<?xml version="1.0" standalone="no"?>
<!DOCTYPE svg PUBLIC "-//W3C//DTD SVG 1.1//EN" "http://www.w3.org/Graphics/SVG/1.1/DTD/svg11.dtd">
<svg xmlns="http://www.w3.org/2000/svg">
<metadata>Generated by Fontastic.me</metadata>
<defs>
<font id="benchfont" horiz-adv-x="512">
<font-face font-family="benchfont" units-per-em="512" ascent="480" descent="-32"/>
<missing-glyph horiz-adv-x="512" />

<glyph glyph-name="abduction" unicode="&#97;" d="M296 254l-92 0-49-163 189 0z m-98 16l110 0 2-6 52-179 3-10-231 0 3 10 53 179 2 6z m-83 18l269 0c4 0 7-1 9-4 3-2 4-6 4-9l0-7c0-4-1-7-4-10l0 0c-2-2-5-4-9-4l-269 0c-3 0-7 2-9 4l0 0c-3 3-4 6-4 10l0 7c0 3 1 7 4 9 2 3 6 4 9 4z m267-15l-264 0 0-3 264 0z m-132 18l-112 0 0 8c0 30 13 58 33 78 20 20 48 33 79 33 30 0 58-13 78-33 20-20 33-48 33-78l0-8z m-96 16l191 0c-2 23-12 44-28 59-17 18-41 28-67 28-27 0-51-10-68-28-16-15-26-36-28-59z m103 113l0-19-15 0 0 19z m-7 30c5 0 9-2 13-6 3-3 5-8 5-13 0-5-2-10-5-13-4-3-8-5-13-5-5 0-10 2-13 5-4 3-6 8-6 13 0 5 2 10 6 13 3 4 8 6 13 6z m2-17c-1 1-2 1-2 1-1 0-2 0-2-1-1 0-1-1-1-2 0-1 0-1 1-2 0-1 1-1 2-1 0 0 1 0 2 1 0 1 1 1 1 2 0 1-1 2-1 2z m-48-107c0-12-9-21-21-21-12 0-22 9-22 21 0 12 10 21 22 21 12 0 21-9 21-21z m45 0c0-12-10-21-22-21-11 0-21 9-21 21 0 12 10 21 21 21 12 0 22-9 22-21z m44 0c0-12-9-21-21-21-12 0-21 9-21 21 0 12 9 21 21 21 12 0 21-9 21-21z m45 0c0-12-10-21-21-21-12 0-22 9-22 21 0 12 10 21 22 21 11 0 21-9 21-21z m-103-112c0-3 3-9 6-14 3-4 6-7 9-9 3 2 6 6 9 10 3 5 6 10 6 14l0 0c1 5-3 9-7 11-3 1-6 1-9 1-3 0-6 0-8-2-4-2-7-5-6-11z m0-19c-4 6-7 14-8 18l0 0c-1 10 3 16 10 19 4 2 8 3 12 3 4 0 8-1 12-2 7-3 13-10 12-19l0 0c-1-5-4-12-8-17-3-6-8-11-12-13l0 0c-1 0-1 0-2 0l0 0c0 0-1 0-1 0 0 0-1 0-1 0-1 0-1 0-1 0l0 0c-5 2-9 6-13 11z m6-13l0 16 6-5c1 0 1 0 2-1 0 0 1 0 1 0 0 0 1 0 1 0 0 1 1 1 2 1l6 5 0-16-8 0 0 2c0 0-1 0-1 0 0 0-1 0-1 0l0-2z m-2 33c-2-5 0-11 7-13 4 8-6 14-7 13z m21 0c2-5 1-11-6-13-4 8 6 14 6 13z m-25-29l29 0c3 0 5-1 7-2l0 0c2-1 3-4 3-6l0-37c0-4-2-7-5-9-3-2-7-3-10-3l-18 0c-4 0-7 1-10 3-3 2-5 5-5 9l0 37c0 2 1 5 3 6l0 0c2 1 4 2 6 2z m29-8l-29 0c0 0-1 0-1 0l0 0c0 0 0 0 0 0l0 0 0 0 0-37c0-1 0-2 1-3 2-1 4-1 6-1l18 0c2 0 4 0 5 1 1 1 2 2 2 3l0 37 0 0 0 0c0 0 0 0 0 0l0 0c0 0-1 0-2 0z m2 0c0 0 0 0 0 0l0 0z m-32 0l0 0 0 0c0 0 0 0 0 0z m12-45c0 2-2 4-4 4-2 0-4-2-4-4l0-33c0-2 2-4 4-4 2 0 4 2 4 4z m16 0c0 2-2 4-4 4-2 0-4-2-4-4l0-33c0-2 2-4 4-4 2 0 4 2 4 4z m11 49c-1 2-4 2-5 0-2-1-2-4 0-5 2-2 3-6 5-10 1-3 2-6 4-9 4-7 9-10 20-4 2 1 3 3 1 5-1 2-3 3-5 2-5-3-8-2-10 1-1 2-2 5-3 7-2 5-4 10-7 13z m-41-5c1 2 1 4 0 6-2 1-4 1-6-1-3-3-5-8-7-12-1-3-2-6-3-8-2-3-4-4-10-1-2 1-4 0-5-2-1-1-1-4 1-5 11-6 17-3 21 4 1 3 2 6 4 9 1 4 3 8 5 10z"/>
<glyph glyph-name="alien-2" unicode="&#98;" d="M204 393c1-10 9-28 19-43 9-11 18-22 27-25l0 0 0 0c10 4 20 16 29 28 10 15 17 30 18 41l0 0c1 18-9 29-22 35-8 4-17 5-26 5-9 0-18-2-26-6-13-6-21-18-19-35z m7-51c-12 16-21 36-23 49l0 0c-3 25 10 42 28 51 10 5 21 7 32 8 12 0 23-2 33-7 19-8 33-25 31-50l0 0c-1-14-9-32-20-48-10-15-23-29-36-34l0 0c0-1-1-1-2-1l0 0c-1-1-2-1-3-1-1 0-2 0-4 1-1 0-1 0-2 0l0 0c-12 5-24 17-34 32z m9 60c-6-13-2-30 19-38 12 23-16 42-19 38z m60 0c6-13 2-30-19-38-12 23 17 42 19 38z m-71-79l6 0c5-5 11-11 18-15l-24 0c-3 0-5-1-7-2-1-1-1-1-1-2l0-106c0-3 2-7 6-10 4-3 11-5 18-5l50 0c7 0 14 2 18 5 4 3 7 7 7 10l0 106c0 1-1 1-2 2-1 1-4 2-7 2l-23 0c6 4 12 10 17 15l6 0c6 0 12-1 16-4 5-4 8-9 8-15l0-106c0-9-5-17-13-22-7-5-16-9-27-9l-50 0c-10 0-20 4-27 9-8 5-13 13-13 22l0 106c0 6 3 11 8 15 4 3 10 4 16 4z m26-148c0 5-4 8-8 8-4 0-8-3-8-8l0-92c0-4 4-8 8-8 4 0 8 4 8 8z m46 0c0 5-3 8-8 8-4 0-7-3-7-8l0-92c0-4 3-8 7-8 5 0 8 4 8 8z m32 137c-3 3-8 3-11 0-3-3-4-7-1-11 7-6 11-17 16-29 3-7 6-15 10-21 11-19 26-30 56-12 4 2 5 6 3 10-2 4-7 5-11 3-19-11-28-5-34 6-4 6-7 13-10 20-5 13-10 25-18 34z m-114-10c3 3 3 8 0 11-3 3-8 3-11 0-9-9-14-22-19-34-3-7-6-13-9-19-7-12-16-19-36-8-4 3-8 1-10-2-3-4-1-9 2-11 31-18 46-6 57 13 4 6 7 14 10 21 5 11 10 22 16 29z"/>
<glyph glyph-name="alien-face" unicode="&#99;" d="M158 352c3-21 17-54 37-82 16-23 35-42 53-49 0 0 1-1 1-1 1 0 1 0 1 0 0 0 1 0 1 0l0 0c0 0 0 0 1 1l0 0c19 8 40 30 56 55 19 27 32 57 34 78l0 0c3 35-17 59-45 71-15 6-33 9-50 9-18 0-35-4-50-11-26-13-44-37-39-71z m24-91c-21 30-36 66-40 89l0 0c-5 42 16 71 48 87 17 8 37 12 56 13 20 0 40-4 58-11 33-15 57-43 53-87l0 0c-2-23-16-56-36-85-18-27-41-51-62-60l0 0c-2-1-3-1-4-2l0 0c-2 0-3 0-5 0-1 0-2 0-4 0-1 0-2 1-3 1l-1 0c-21 8-42 30-60 55z m5 95c2 2 4 3 6 3l3 0c17-5 29-13 37-23 8-11 12-25 10-42l-1-7-7 0c-1 0-2 0-2 0-18 1-30 9-38 20-8 11-12 25-11 40 0 1 0 2 0 2l0 1c0 3 1 5 3 6z m12-15c1-9 3-18 8-25 5-6 11-11 21-13 0 10-3 17-7 23-5 7-12 12-22 15z m76-39c9 5 16 11 20 18 4 7 6 14 5 22-1 0-2 0-2-1-9-3-16-9-20-16-3-6-5-14-3-23z m33 11c-6-12-18-22-34-28l-7-3-3 7c-2 3-3 6-4 9-3 13-1 25 5 35 5 10 15 17 26 23 4 1 9 3 13 4l8 2 2-8c4-15 2-29-6-41z m-92-155l0 54c5-4 10-7 15-10l0-44z m68 55l0-60-6-2-4-1-2 9-4 0 0 44c5 3 11 6 16 10z m-127-27l65-20 49 0 72 20c1 0 3 0 4 0 5 0 9-2 12-5 3-2 5-6 6-10 0-2 0-4 0-6l0-76c0-4-1-7-4-10l0 0c-2-2-6-4-10-4l-203 0c-4 0-7 2-10 4l0 0 0 0c-3 3-4 6-4 10l0 76c0 2 0 5 1 7 1 3 3 7 6 9 3 3 7 5 11 5 2 0 3 0 5 0z m62-36l-67 21 0 0c0 0 0 0 0 0 0 0 0-1-1-1 0-1-1-2-1-3 0 0-1-1-1-2l0-74 201 0 0 74c0 1 0 1 0 2-1 1-1 2-2 3 0 0-1 1-1 1 0 0 0 0 0 0l0 0-73-21-2 0-51 0z m-67 21l0 0c0 0 0 0 0 0z m195 0l0 0 0 0c0 0 0 0 0 0z"/>
<glyph glyph-name="bench" unicode="&#100;" d="M406 303l-88 105-87 104-125-104 0 0 0-356 62-52 106 0 44 52 88 104-88 74z"/>
<glyph glyph-name="astronaut" unicode="&#101;" d="M180 404l12 0c0-2 0-3 0-4 0-4 0-8 1-12l-12 0 0-40c-3-3-5-6-8-9-1-2-3-4-5-6-2 3-2 6-2 9l0 47c0 4 1 7 3 10 3 3 6 5 11 5z m127 0l13 0c4 0 7-2 10-5 2-3 4-6 4-10l0-47c0-3-1-7-3-9-2 2-4 4-6 6-2 3-4 5-7 8l0 41-12 0c1 4 1 8 1 12 0 1 0 2 0 4z m-57 46c13 0 26-6 35-15 9-9 14-21 14-35 0-14-5-26-14-35-9-9-22-15-35-15-14 0-27 6-36 15-9 9-14 21-14 35 0 14 5 26 14 35 9 9 22 15 36 15z m24-26c-6 6-15 10-24 10-10 0-18-4-25-10-6-6-10-15-10-24 0-10 4-18 10-24 7-7 15-10 25-10 9 0 18 3 24 10 6 6 10 14 10 24 0 9-4 18-10 24z m-77-74l104 0c8 0 55-60 79-90 6-9 10-14 12-16l5-6-6-5-25-22-6-6-6 7-38 48 0-74-134 0 0 74-37-48-5-7-6 6-26 22-5 5 4 5c2 3 7 9 13 17 24 32 69 90 77 90z m104-15l-104 0c0 0-42-55-64-84-4-5-7-8-9-11l14-12 46 59 14-5 0-80 103 0 0 81 14 5 47-60 13 12c-2 2-5 6-8 10-22 29-65 85-66 85z m-29-133l44 0 0-127-52 0 0 127z m29-16l-22 0 0-95 22 0z m-111 16l45 0 0-127-53 0 0 127z m29-16l-21 0 0-95 21 0z m8 119l53 0 0-47-61 0 0 47z m38-16l-30 0 0-15 30 0z m110-39l-27-21-9 13 26 20z m-227-17l-27 20 9 12 27-19z m128 129l0-35-53 0 0 48 11-6c3-1 5-2 8-3 2 0 5 0 8 0 2 0 5 0 8 0 2 1 5 2 7 3l11 6z m-45 49l38 0c1 0 2-1 2-2l0-17c0-1-1-2-2-2l-38 0c-2 0-3 1-3 2l0 17c0 1 1 2 3 2z"/>
<glyph glyph-name="astronaut-2" unicode="&#102;" d="M114 362l11 7c2-5 5-9 8-13l-10-6 19-35c-1-6-3-13-4-19-2 1-4 3-6 6l-23 41c-2 3-3 7-2 10 1 4 3 7 7 9z m110 64l11 6c4 2 8 2 12 1 3-1 6-4 8-7l0 0 23-41c2-3 2-6 2-9-6 3-12 5-18 7l-20 35-11-6c-1 5-4 9-7 14z m-63 15c13 4 27 3 38-3 11-6 21-16 25-29 4-13 3-27-3-38-6-11-16-20-29-25-13-4-27-2-38 3-11 6-21 16-25 29-4 13-3 27 3 38 6 12 16 21 29 25z m31-17c-8 4-17 5-26 2-9-3-16-9-20-17-4-8-5-17-2-26 3-9 9-16 17-20 8-4 17-5 26-2 9 3 16 9 20 17 4 8 5 17 2 26-3 9-9 16-17 20z m-37-99l91 51c4 2 16-1 32-7 13-5 31-12 48-19 16-7 32-7 42-7 5 0 9 0 12-1l-3-8 3 8c4-2 6-6 4-10 0-1 0-1 0-1l-11-31-7 2 7-2c-1-4-5-6-8-5l-46 5 1 8-1-8c-1 0-2 0-3 1l-12 5 32-58 0 0c3-3 1-8-2-10-1 0-1-1-1-1l-103-58 0 0c-3-2-8-1-10 3 0 0 0 0-1 0l-32 57-1-12-8 1 8-1c0 0-1-1-1-2l-15-44-8 3 8-3c-2-4-6-6-10-5l-32 7 1 7-1-7c-5 1-7 5-7 9 1 0 1 0 1 1 0 2 2 6 4 9 3 8 9 20 11 35 3 18 6 38 8 54 3 18 7 32 10 34z m99 38l-91-52c-1 0 0-9-2-22-3-16-6-36-9-55-2-16-8-29-12-38l17-3 13 37 5 33c0 2 2 5 4 6 4 2 9 1 11-3l-7-4 7 4 39-70 90 51-40 70c-1 2-2 5-1 8 2 4 7 5 11 4l0 0 32-14 40-4 5 16c-11 1-28 1-46 8-16 7-33 14-48 19-12 5-17 10-18 9z m40-130l32 18 0 0c3 2 8 1 10-2l34-43-7-5 7 5c0-1 1-2 1-3l21-52 0 0c2-4 0-9-4-10l-32-18 0 0c-3-3-8-1-10 2 0 1-1 1-1 2l-21 53-33 41 0 0c-2 4-2 8 2 11 0 1 1 1 1 1z m34 1l-19-10 27-35c1-1 1-2 2-2l0 0 18-46 19 10-18 46z m-105-41l32 18 0 0c4 2 8 1 11-3l29-45-6-5 6 5c1-1 1-1 1-2l25-50 0 0c2-4 0-9-4-11l0 0-31-18 0 0c-4-2-9-1-11 3 0 0 0 1-1 1l-25 51-29 44 0 0c-2 4-1 9 2 11 1 0 1 0 1 1z m33 1l-18-11 24-37c1-1 1-1 1-1l-7-4 7 3 22-44 19 10-22 44z m-52 106l40 22 6 4 4-7 15-26 4-7-7-4-39-22-7-4-4 6-15 27-4 7z m41 5l-27-15 8-13 26 15z m112 28l-9-32-15 4 9 32z m-187-132l-33 3 1 16 34-4z m48 173l14-24 3-6-6-4-33-19-6-4-4 7-14 24-6 11 12 1c3 0 6 0 8 1 3 1 5 2 7 3 3 1 5 3 7 5 2 2 3 4 5 6l7 10z m-64 20l33 19c1 1 3 0 3-1l9-15c0-1 0-2-1-2l-33-19c-1-1-2-1-3 0l-9 15c0 1 0 3 1 3z m18-256c6 0 12-3 16-7 4-5 7-10 7-17 0-6-3-12-7-16-4-5-10-7-16-7-7 0-13 2-17 7-4 4-7 10-7 16 0 7 3 12 7 17 4 4 10 7 17 7z m5-18c-1 1-3 2-5 2-3 0-4-1-6-2-1-2-2-4-2-6 0-2 1-4 2-5 2-2 3-3 6-3 2 0 4 1 5 3 2 1 2 3 2 5 0 2 0 4-2 6z m197 306c7 0 13-2 17-7 4-4 7-10 7-16 0-7-3-13-7-17-4-4-10-7-17-7-6 0-12 3-16 7-4 4-7 10-7 17 0 6 3 12 7 16 4 5 10 7 16 7z m6-18c-1 2-3 3-6 3-2 0-4-1-5-3-1-1-2-3-2-5 0-2 1-4 2-6 1-1 3-2 5-2 3 0 5 1 6 2 1 2 2 4 2 6 0 2-1 4-2 5z m35-166c0-11-10-21-22-21-11 0-21 10-21 21 0 12 10 22 21 22 12 0 22-10 22-22z"/>
<glyph glyph-name="astronaut-helmet" unicode="&#103;" d="M386 111c0 5 1 11 1 16 1 12 2 24-3 36 4 4 7 9 11 14 10-17 9-34 8-51-1-6-1-11-1-15 0-8-4-14-12-19-12-9-34-16-62-21-26-4-58-7-89-7-62 1-123 13-144 42-9 12-11 28-7 43 2 11 8 22 16 32 2-5 5-9 8-14-4-7-8-14-9-22-3-11-1-21 5-30 17-25 73-35 131-35 30 0 61 2 87 7 25 4 45 10 55 18 3 2 5 4 5 6z m-314 172c0 43 17 82 45 110 29 28 68 46 111 46l0-16c-39 0-74-16-100-41-25-25-41-60-41-99z m176 133c34-4 68-24 96-52 28-28 50-64 59-102 2-8 3-15 3-23 0-30-15-59-37-82-22-23-53-41-85-49-12-2-24-4-37-4-43 0-82 17-110 46-28 28-46 67-46 110 0 5 1 11 1 16 5 38 26 73 53 99 28 25 62 42 93 42 3 0 7-1 10-1z m85-63c-26 26-57 44-87 48-2 0-5 0-8 0-27 0-57-15-82-38-25-23-44-55-48-89-1-4-1-9-1-14 0-39 16-74 41-99 25-26 61-41 99-41 11 0 23 1 33 4 30 7 57 23 78 44 20 20 32 46 32 71 0 7 0 13-2 19-9 36-29 69-55 95z m-31 34c3 3 2 8-1 11-4 2-9 2-11-2l-87-109 0 0c-1 0-1-1-1-1-5-9-7-17-6-23 2-7 7-12 16-15l157-75c4-2 9 0 10 4 2 4 1 8-3 10l-158 75c0 0-1 1-1 1l0 0c-3 1-5 2-6 3 0 3 1 7 4 12z m-28 12c2 3 2 8-2 11-3 3-8 2-11-1-19-26-36-47-51-65-42-52-61-76-54-97 6-19 33-30 83-51 28-12 64-27 109-48 4-2 9 0 11 3 2 4 0 9-4 11-45 21-82 37-110 49-46 19-70 29-74 41-5 13 13 35 51 82 15 18 32 39 52 65z m46-72c-3 3-8 2-11-1-3-3-2-8 1-11 13-10 19-21 20-32 1-11-3-23-14-35-3-4-2-8 1-11 3-3 8-3 11 1 13 16 19 31 18 46-1 16-10 30-26 43z m-92-31c6 0 12-2 16-6 4-4 6-10 6-16 0-6-2-12-6-16-4-4-10-6-16-6-6 0-12 2-16 6-4 4-6 10-6 16 0 6 2 12 6 16 4 4 10 6 16 6z m5-17c-1 1-3 2-5 2-2 0-3-1-5-2-1-2-2-3-2-5 0-2 1-4 2-5 2-1 3-2 5-2 2 0 4 1 5 2 1 1 2 3 2 5 0 2-1 3-2 5z"/>
<glyph glyph-name="bench-2" unicode="&#104;" d="M404 301l-173 207-124-104 0-349 62-52 105 0 130 155-85 72z m-9 5l-150 52-12 141z m-125-288l-16 40 12 8z m-4 90l121 42-118-77z m-14-47l-15 37 25 9 4-37z m-17 41l-17 42 38 33 6-66z m-78-3l-12 82 21 78 25-61-10-79z m24 14l-4-31-16-6-3 18z m-24-38l-39-14 36 30z m54 291l-5-42-18 16 8 31z m-14 9l28 103-13-108z m-5-168l-24 59 18 70 20-17z m2-16l19-45-27-23z m-10 152l-66 55 74-26z m-1-5l-18-66-51 125z m-20-72l-20-75-30 196z m22-149l29 25 17-41-50-18z m67 164l61-51-53-45z m4-99l-40-34-21 51 14 117 38-31z m-42 136l-4 3 5 43 26-9 6-65z m16 168l11-126-25 8z m-3 14l-34-124-80 28z m-116-123l29-196-29-110z m31-206l11-75-41-35z m-29-116l44 15 10-60z m56-35l-8 52 15 5z m11 59l53 18 15-38-76-50z m-4-72l74 48 20-48z m99 3l-5 58 121 80z m123 148l-132-45-6 67 56 47z m-82 74l-65 55-6 67 153-53z"/>
<glyph glyph-name="bench-3" unicode="&#105;" d="M399 289l-168 216-128-97 0-350 69-53 106 0 129 168-96 54z m-18 8l-137 48-12 130z m-114-264l-16 37 12 7z m-4 83l111 39-108-71z m-13-43l-14 34 23 8 3-34z m-15 37l-17 39 36 30 5-60z m-72-2l-12 75 20 72 23-56-9-73z m21 13l-3-29-15-6-2 17z m-21-36l-36-12 33 28z m50 267l-5-38-17 15 8 28z m-13 9l25 94-12-99z m-5-154l-23 54 18 64 17-15z m2-15l17-42-25-20z m-9 139l-61 51 68-24z m-1-4l-17-61-47 115z m-18-67l-19-68-27 180z m20-136l26 23 16-38-46-16z m61 151l56-48-49-40z m4-91l-37-31-19 46 13 108 34-29z m-39 125l-4 2 5 40 24-8 5-60z m15 154l10-116-23 8z m-3 12l-31-113-74 26z m-107-113l28-179-28-101z m29-188l11-69-38-32z m-27-107l41 15 9-56z m52-32l-7 48 13 5z m10 54l48 17 15-35-70-46z m-4-66l68 45 18-35z m89 23l-3 34 112 73z m115 116l-121-42-6 62 52 43z m-75 68l-60 50-5 61 140-48z"/>
<glyph glyph-name="benchtrade" unicode="&#106;" d="M1 511l-1-9 7 8-3 2c-1 0-1 0-1 0-1 0-1 0-2-1m4 0l-5-5 10-8 6 0-8 13c0 1-1 1-2 1 0 0-1 0-1-1z m-5-7l16 0-10 8z m451-146c-13-7-20-19-21-32 0-12-5-24-14-32l-17-15c-8-7-18-9-28-9-3 0-6-1-9-1-7-2-14 0-19 4l-7 6c-8 6-13 14-13 23-1 12-9 23-22 27-12 4-25 0-33-8-8-8-10-19-8-28 3-8 2-16-3-22l-49-64c-3-5-9-9-16-9-9 0-18 2-25 8l-19 17c-6 5-10 13-10 21 0 8-4 15-11 20-7 4-16 5-23 3-9-4-14-10-15-18-2-7-8-14-16-17l-27-13c-5-2-12-2-18 0-7 2-15 1-21-4-5-4-8-11-7-18 3-13 18-19 30-13 5 2 9 6 10 11 2 6 6 11 12 14l29 13c8 4 16 3 24 1 3-1 5-1 8-1 8 0 17-3 23-8l19-17c6-6 11-14 9-23-1-9 3-19 13-25 9-6 23-6 33 0 11 8 14 20 10 31-2 5 0 12 4 16l48 64c5 7 13 10 22 11 11 1 21-3 29-9l6-5c5-4 8-10 7-16-1-12 5-24 16-31 11-6 26-6 37 0 10 7 16 17 16 27 0 10 6 20 14 27l14 12c9 9 22 13 35 12 10 0 21 3 29 10 18 16 17 44-5 58-12 8-28 8-41 2z m-430-150c-2 0-4 0-5-1-2-1-3-3-3-5-1-2 0-4 1-6 3-3 8-4 11-1 4 2 5 7 2 10-1 2-4 3-6 3m92 49c-4 0-7-2-9-4-3-2-4-5-4-8 1-4 2-6 4-9 5-4 13-3 18 1 2 2 3 5 3 8 0 3-1 6-4 8-2 2-5 4-8 4m80-71c-5 0-10-2-13-7-5-6-3-15 4-20 7-4 17-2 22 4 5 7 3 16-4 20-3 2-6 3-9 3m98 131c-6 0-12-3-15-8-2-4-3-8-2-12 1-5 4-8 8-10 8-5 20-2 24 5 3 4 3 9 2 13-1 4-4 8-8 10-3 1-6 2-9 2m80-60c-6 0-11-2-15-6-8-7-8-19 0-27 8-7 21-7 29 0 4 4 6 9 6 14 0 5-2 10-6 13-4 4-9 6-14 6m99 90c-6 0-12-2-16-6-5-4-7-9-8-15 0-6 2-12 7-16 8-9 24-9 33-1 5 4 7 9 8 15 0 6-2 12-7 16-4 5-10 7-17 7"/>
<glyph glyph-name="comet" unicode="&#107;" d="M155 260c19 0 36-7 48-19 12-13 20-29 20-48 0-19-8-35-20-48-12-12-29-19-48-19-18 0-35 7-47 19-12 13-20 29-20 48 0 19 8 35 20 48 12 12 29 19 47 19z m37-30c-9 9-22 15-37 15-14 0-27-6-36-15-10-10-15-23-15-37 0-14 5-27 15-37 9-9 22-15 36-15 15 0 28 6 37 15 9 10 15 23 15 37 0 14-6 27-15 37z m-7 44c-3-3-2-8 1-11 3-3 8-3 11 0l118 123-7-33 7-2-7 2c-1-4 2-8 6-9 2-1 5 0 6 1l54 40-13-27 7-3-7 3c-2-3 0-8 4-10 1-1 3-1 4-1l20 2-19-30 0 0c-2-4-1-9 3-11 2-1 4-2 6-1l14 3-158-104c-3-2-4-7-2-11 2-3 7-4 11-2l189 124c3 2 4 5 4 9-1 4-5 7-9 6l1-8-1 8-35-7 17 28c1 1 1 3 1 5 0 4-4 8-8 7l0 0-22-1 19 42c2 3 2 6 0 9-3 3-8 4-11 1l0 0-61-46 8 39c1 3 0 6-2 8-3 3-8 3-11 0l6-6-6 6z m-1-59c0-12-9-21-21-21-12 0-22 9-22 21 0 12 10 22 22 22 12 0 21-10 21-22z m-26-48c0-12-9-21-21-21-12 0-22 9-22 21 0 12 10 21 22 21 12 0 21-9 21-21z m43 20c0-12-10-21-22-21-12 0-21 9-21 21 0 12 9 21 21 21 12 0 22-9 22-21z m-71-81c-19 0-36 7-48 19-12 13-20 29-20 48 0 4 1 9 2 13 1 5 2 9 4 13l14-6c-1-3-2-6-3-10-1-3-1-6-1-10 0-14 6-27 15-37 10-9 22-15 37-15z"/>
<glyph glyph-name="constellation" unicode="&#108;" d="M132 435l8-26 28 0 25-1-20-13-22-16 8-27 7-23-19 15-22 16-22-16-20-15 8 23 8 26-22 17-20 14 25 0 27-1 8 27 8 23z m-5-36l-3 8-3-9-1-6-6 1-8 0 7-6 5-3-2-6-3-8 8 6 5 3 4-3 7-5-3 9-2 5 5 4 7 4-10 0-5 0z m35-22l38-20-34 1-1 0-5 18z m116-59l58-31-34 1-19 10-6 19z m-29 57l8-25 28-1 25 0-20-14-22-15 8-27 7-23-19 14-22 17-22-17-20-14 8 23 9 26-23 16-20 15 25-1 27 0 8 27 8 23z m-5-35l-2 8-4-9-1-6-6 0-8 0 7-5 5-4-2-5-3-8 8 6 5 3 4-3 7-5-3 9-2 5 5 3 7 5-10 0-5 0z m138-35l8-26 28 0 24 0-20-14-22-15 9-27 7-24-19 15-22 16-23-16-20-14 8 23 9 25-22 17-20 15 24-1 27 0 9 26 8 23z m-5-36l-3 8-3-9-2-5-5 0-9 0 8-5 5-4-2-5-3-8 8 5 4 4 5-4 7-5-3 9-2 6 5 3 6 5-9 0-6 0z m-152-82l19-22 27 12 22 10-13-21-14-24 19-22 16-18-23 5-28 7-15-26-12-21-2 25-2 28-29 6-24 5 23 10 25 11-2 29-3 24z m11-36l-7 7 2-11 0-5-5-2-9-4 11-2 5-2 1-5 0-10 6 9 3 5 5-1 10-2-8 8-3 4 3 5 4 8-9-4-6-2z m54 16l90 50 13-10-116-66-1 2z"/>
<glyph glyph-name="dapps" unicode="&#109;" d="M335 431c-36 21-66 47-90 78l0 0 0-129z m-179 0c-36-21-75-33-113-38l0-1 112-64c0 0 1 103 1 103m0 0l89-51 0 129 0 0c-23-31-54-57-89-78m269-155c0 41 8 80 23 116l0 0-112-64z m-180-234l1-1 0 0z m0 0l1-1 0 0z m-179 234c0-42-8-81-23-117l0 0 112 64z m0 0l89 52-112 64 0 0c15-36 23-75 23-116m89-53c2 18 3 35 3 53 0 17-1 35-3 52l-89-52z m180 208l1-103 112 64 0 1c-39 5-77 17-113 38m-90-51c14-11 29-20 44-29 15-9 31-17 47-23l-1 103z m-90-52c16 6 31 14 47 23 15 9 29 18 43 29l-89 51z m270-52l-89-53 112-64 0 0c-15 36-23 75-23 117m-89 52c-3-17-4-35-4-52 0-18 1-36 4-53l89 53z m-180-208c35-20 65-47 89-78l0 0 0 129z m0 0l-1 103-112-64 0 0c38-5 77-18 113-39m89 51c-14 11-28 20-43 29-16 9-31 17-47 23l1-103z m90-51c36 21 74 34 113 39l0 0-112 64c0 0-1-103-1-103m0 0l-90 51 0-129 0 0c24 31 54 58 90 78m1 103c-16-6-32-14-47-23-15-9-30-18-44-29l90-51z m-91-3l-48 28 0 55 48-27z m0 0l49 28 0 55-49-27z m49 84l-49 27-48-27 48-28z"/>
<glyph glyph-name="dbrowser" unicode="&#110;" d="M238 499c-9 0-19-2-26-6l-170-95c-14-8-26-28-26-44l0-192c0-16 12-35 26-43l76-43 94-53c15-8 38-8 52 0l170 96c15 8 26 27 26 43l0 192c0 16-11 36-26 44l-170 95c-7 4-16 6-26 6z m-14-106c76 0 138-61 138-135 0-74-61-134-138-134l-67 0c-24 0-43 13-43 41l0 186c0 23 19 42 42 42l1-187c0-38 6-41 42-41l25 0c53 0 96 42 96 93 0 52-43 93-96 93l-36 0c0 21 16 42 36 42z m-208-85l0-148c0-16 12-35 25-43l55-31 57 36 0 0c-23 0-42 14-42 41l0 184c0 13 7 26 17 33l0 0z"/>
<glyph glyph-name="dmail" unicode="&#111;" d="M511 125l-128 66-127 67 0 0-128-67-128-66 0 0 128-66 128 66 127-66z m0 280l-126-65 0 0 0-151 126-66z m-508 0l-1-282 126 66 0 151z m380 64l-127-63-128 63-128-63 128-64 128-64 127 64 128 64z"/>
<glyph glyph-name="dmemo" unicode="&#112;" d="M40 246c0 54 44 98 98 98 33 0 62-16 80-41 5 13 12 26 20 38-25 26-61 43-100 43-76 0-138-62-138-138 0-42 18-79 48-104l9 49c-11 15-17 34-17 55m254-56c-5-14-12-26-20-38 25-26 61-43 100-43 35 0 66 13 91 34l-43 18c-14-8-30-12-48-12-33 0-62 16-80 41z m-21 151c-7-7-13-15-18-24-12-20-20-45-20-71 0-21-6-40-18-56-17-25-47-42-80-42-17 0-33 5-47 13l-43-19c24-21 56-33 90-33 40 0 75 16 100 42 7 8 13 16 18 24 13 21 20 45 20 71 0 21 7 41 18 57 18 25 47 41 80 41 54 0 98-44 98-98 0-20-6-39-17-55l9-49c30 25 48 63 48 104 0 76-62 138-138 138-39 0-75-17-100-43z m-191-81c-8 0-14-7-14-15 0-8 6-14 14-14 8 0 15 6 15 14 0 8-7 15-15 15z m55 0c-8 0-15-7-15-15 0-8 7-14 15-14 8 0 14 6 14 14 0 8-6 15-14 15z m56 0c-8 0-15-7-15-15 0-8 7-14 15-14 8 0 15 6 15 14 0 8-7 15-15 15z m126 0c-8 0-15-7-15-15 0-8 7-14 15-14 8 0 15 6 15 14 0 8-7 15-15 15z m54 0c-8 0-14-7-14-15 0-8 6-14 14-14 8 0 15 6 15 14 0 8-7 15-15 15z m55 0c-8 0-15-7-15-15 0-8 7-14 15-14 8 0 14 6 14 14 0 8-6 15-14 15z"/>
<glyph glyph-name="dmemo-2" unicode="&#113;" d="M272 161c23 20 40 39 42 41 0 0 16 18 48 54l-48 54c-31-20-61-54-61-54 0 0-30-34-60-54-13-8-26-13-37-13-37 0-68 30-68 67 0 38 31 68 68 68 11 0 24-6 37-14 2 3 19 22 42 42 6 5 12 10 18 15-34 26-66 38-97 38-82 0-149-67-149-149 0-82 67-149 149-149 31 0 63 13 97 39 7 4 13 9 19 15z m90 244c-31 0-62-12-97-38-6-5-12-10-18-15-23-20-41-39-43-42 0 0-16-18-47-54l47-53c31 19 61 53 61 53 0 0 30 34 61 54 13 8 26 14 36 14 38 0 68-30 68-68 0-37-30-67-68-67-10 0-23 5-36 13-2-2-19-21-42-41-7-6-13-11-19-15 35-26 66-39 97-39 83 0 150 67 150 149 0 82-67 149-150 149z"/>
<glyph glyph-name="dmusic" unicode="&#114;" d="M80 188l0 203c0 31 34 50 60 33l147-98 71 48-177 118c-77 52-181-4-181-97l0-302c0-23 26-37 45-24l107 71-72 48z m432-71l0 302c0 23-26 37-45 24l-107-71 72-48 0 0 0-203c0-31-34-50-60-33l-147 98-72-48 178-118c77-52 181 4 181 97m-432 71l0 203c0 31 34 50 60 33l147-98 72 48-178 118c-77 52-181-4-181-97l0-302c0-23 26-37 45-24l107 71-72 48z m142-1l208 138 0 0-72 48-72-48-208-138 0 0 72-48 72 48z"/>
<glyph glyph-name="docchain" unicode="&#115;" d="M15 512l0-213 176 0 0-214 57 0c97 0 176 77 176 171 0 94-79 171-176 171l-123 0 0-43 123 0c73 0 132-57 132-128 0-71-59-128-132-128l-13 0 0 213-176 0 0 128 189 0c59 0 114-22 156-62 41-40 64-94 64-151 0-57-23-111-64-151-42-40-97-62-156-62l-101 0 0 213-44 0 0-256 145 0c71 0 137 27 187 75 50 48 77 113 77 181 0 68-27 133-77 181-50 48-116 75-187 75z"/>
<glyph glyph-name="dpages" unicode="&#116;" d="M247 188c0-89 72-161 161-161l0 0 0 161z m-162 323l0-161 161 0c0 89-72 161-161 161z m162-322l161 0c0 88-72 160-161 160z m-162 160c0-88 72-160 161-160l0 160z"/>
<glyph glyph-name="dpages-2" unicode="&#117;" d="M350 405c0-3 0-6 0-10 0-7-1-13-2-20l48-43c-20 0-38-7-53-20-14-13-23-31-23-49 0-19 9-36 23-49 15-13 35-21 56-21 21 0 41 8 56 21l55 49z m55-220c-3 0-7 0-11 0-7 0-15 0-22 2l-47-44c-1 18-8 35-22 48-15 13-34 21-54 21-21 0-40-8-54-21-15-14-23-32-23-51 0-19 8-37 23-51l54-50 0 0 0 0 54 50c0 1 0 1 1 1z m-86 256l-55 50-157-145c3 0 7 1 11 1 7 0 15-1 22-3l47 44c1-18 9-35 23-47 14-14 34-21 54-21 21 0 40 7 55 21 14 13 22 31 22 50 0 19-8 36-22 50m-127-184c0 17-8 33-23 45-15 11-35 18-57 18-21 0-41-7-56-18l-56-45 163-129c-1 3-1 6-1 9 0 6 1 12 3 18l-49 39c20 1 38 7 53 18 15 12 23 28 23 45m299-12l-38 38c-10 10-23 16-37 16-14 0-28-6-38-16-10-10-15-23-15-38 0-14 5-27 15-37 10-10 24-16 38-16 14 0 27 6 37 16z m-448 0l37-37c10-10 23-16 38-16 14 0 27 6 37 16 10 10 16 23 16 37 0 15-6 28-16 38-10 10-23 16-37 16-15 0-28-6-38-16z m224 203l-38-37c-10-11-16-24-16-38 0-14 6-27 16-37 10-10 23-16 38-16 14 0 27 6 37 16 10 10 16 23 16 37 0 14-6 27-16 38z m0-363l37 32c10 8 16 19 16 31 0 12-6 23-16 31-10 8-23 13-37 13-15 0-28-5-38-13-10-8-16-19-16-31 0-12 6-23 16-31z m189 192l35-13 0 0-38 25c-10 6-23 10-37 10-14 0-28-4-38-10-10-7-15-16-15-25 0-3 0-5 1-8 2 5 6 10 13 15 20 12 55 15 79 6m-287 0c-1-5-5-10-13-14-19-13-55-16-79-7l-34 13 0 0 37-24c10-7 23-10 38-10 14 0 27 3 37 10 10 6 16 15 16 24 0 3-1 6-2 8m77 137l19 34 0 0-37-37c-9-11-15-24-15-38 0-14 6-27 15-37 10-10 23-16 37-16 4 0 8 1 12 2-7 1-15 5-22 12-19 20-23 56-9 80m38-235c-10 8-23 13-37 13-4 0-8 0-12-1 7-1 15-5 22-11 19-16 23-46 9-66l-19-29 0 0 37 32c9 8 15 19 15 31 0 12-6 23-15 31"/>
<glyph glyph-name="dread" unicode="&#118;" d="M149 105l38 0c12 0 21-8 21-18l0-28 49 40c5 4 10 6 16 6l102 0 0 217c0 15-15 28-34 28l-135 0c-21 0-40 5-57 14z m38-105c-3 0-6 0-8 1-8 3-14 9-14 16l0 53-37 0c-12 0-21 8-21 17l0 344c0 44 44 80 99 80l159 0c34 0 61-22 61-49 0-27-27-49-61-49l-149 0c-12 0-22 8-22 18 0 9 10 17 22 17l149 0c10 0 18 6 18 14 0 8-8 14-18 14l-159 0c-31 0-57-20-57-45 0-26 26-46 57-46l135 0c43 0 77-28 77-63l0-235c0-9-9-17-21-17l-116 0-79-65c-4-3-10-5-15-5z m132 277l-105 0c-12 0-22 10-22 22 0 11 10 21 22 21l105 0c12 0 22-10 22-21 0-12-10-22-22-22m0-64l-105 0c-12 0-22 10-22 22 0 11 10 21 22 21l105 0c12 0 22-10 22-21 0-12-10-22-22-22m0-64l-105 0c-12 0-22 10-22 22 0 11 10 21 22 21l105 0c12 0 22-10 22-21 0-12-10-22-22-22"/>
<glyph glyph-name="dshop" unicode="&#119;" d="M6 508l0-2-4 0-2-18 22 0-2 18-4 0 0 2c0 2-2 4-5 4 0 0 0 0 0 0-3 0-5-2-5-4z m1 0c0 2 2 3 4 3 2 0 4-1 4-3l0-2-8 0z m206-314l140-194 138 0-139 341z m-191-194l191 198-73 99z m-1 0l342 0-148 192z"/>
<glyph glyph-name="dvideo" unicode="&#120;" d="M351 124c7 5 16 3 22-4 3-3 4-8 4-12-1-5-3-9-6-12-1 0-2-1-3-1-7-5-16-3-21 4-3 3-4 8-4 12 0 5 3 9 6 12 1 1 1 1 2 1z m-1 101l-64-37 46-56c-10-13-10-31 1-45 11-14 30-18 45-9 2 1 3 2 5 3 15 13 17 35 4 51-11 14-29 17-44 10l-15 19 78 45z m-169-97l-1 71-84-57c-9 6-20 7-29 1-11-8-14-23-6-34 8-12 23-15 34-7 9 6 12 17 9 27l32 21 1-47c0-23 25-38 45-27l34 20 5 55z m180 303c-2-3-5-5-8-7-6-4-15-4-21 1-10 6-13 19-7 29 1 3 4 5 7 7 7 4 15 4 22-1 9-6 13-19 7-29m4 49c-14 9-31 9-45 1-6-3-11-8-15-15-11-18-7-42 9-56l-19-31-71 41-3-49 65-38 41 69c13-6 27-5 38 2 6 3 11 8 15 15 12 20 6 48-15 61m80-106c-13-5-20-19-18-33l-41-17-78 47-22-38 66-40 82 34c8-11 23-16 36-10 15 6 23 24 16 40-7 16-25 24-41 17m8-89l-50 29-51-21 57-34-59-34 99-34c0-10 7-20 17-23 12-5 26 2 30 15 4 13-3 27-16 31-10 3-21 0-27-8l-29 10 29 17c20 11 19 40 0 52m-232-134l-9-86c-10-2-18-11-19-22-2-14 8-27 22-29 14-1 26 8 27 22 2 12-5 22-14 27l4 42 83 48-29 35z m-156 104c-10-5-23-2-29 8-6 11-2 23 7 29 10 6 23 2 29-8 6-10 2-23-7-29z m115-56l-1 66-83 11c-1 6-3 13-6 18-12 21-37 28-57 17-20-12-26-38-15-58 12-20 38-28 57-16 10 5 16 14 19 24l41-6 1-86z m-83 196l37-30 1-94 44-6-1 83-72 59c6 12 2 28-9 37-13 11-32 9-43-4-10-14-8-33 6-44 11-9 26-9 37-1m80 2l44-26 6 91c8 2 14 9 15 18 0 11-8 22-20 23-11 1-21-8-22-19 0-9 5-17 12-21l-2-34-33 20c-10 6-21 5-30 0-8-5-14-14-14-26l0-38 45-37z m36-61l127-76-126-72z"/>
<glyph glyph-name="earth" unicode="&#74;" d="M250 446c50 0 96-21 129-54 34-33 54-79 54-130 0-50-20-96-54-129-33-34-79-54-129-54-51 0-97 20-130 54-33 33-54 79-54 129 0 51 21 97 54 130 33 33 79 54 130 54z m118-65c-30 31-72 49-118 49-47 0-89-18-119-49-31-30-49-72-49-119 0-46 18-88 49-118 30-31 72-50 119-50 46 0 88 19 118 50 31 30 50 72 50 118 0 47-19 89-50 119z m-147 39l-4-15-1-2c-6-13-15-26-28-35-10-6-22-10-38-10l4-5 1-1 9-15c6 0 11-1 15-4 4-3 6-7 8-13 20-6 31-15 35-24 4-9 1-19-8-27-6-6-17-12-29-17-27-9-65-11-95 3 0 2-1 5-1 7 0 4 1 7 1 10 26-16 64-14 90-5 10 4 18 8 23 13 4 4 6 7 4 10-2 6-11 12-29 17l-4 1-1 5c-1 3-2 6-4 7-1 1-4 2-8 1l-6-1-2 5-12 19-15 20 1 2c3 3 6 6 9 10 1 0 1 0 1 0 19-4 32-1 42 5 11 7 18 18 23 29l2 6c6 2 11 3 17 4z m90-306l-2 22 0 2c1 17 4 34 15 49 8 12 20 22 38 28l-9 5-1 0-17 13c-6-3-12-3-18-2l0 0c-5 1-10 5-14 10-25-2-40 2-48 10-8 9-8 21-2 34 5 10 15 22 29 32 26 21 65 38 101 34 4-6 7-12 10-18-35 10-75-7-102-28-11-9-20-19-24-27-3-7-4-13-1-16 5-5 18-8 40-6l4 1 3-4c2-4 5-6 8-7l0 0c3 0 6 0 11 3l4 3 4-3 21-16 25-15-3-14c-24-4-38-13-47-25-8-12-11-27-12-42l2-16c-5-2-10-5-15-7z m-205 77l10-1 2 0c12-4 24-10 33-20 6-7 10-16 12-28l2 2 0 1 11 8c0 5 0 9 2 13 2 4 5 7 9 9 3 17 9 27 17 31 8 5 17 3 26-4 7-6 13-16 18-27 9-21 14-49 7-73-2 0-4 0-5 0-4 0-8 0-11 1 8 20 3 47-5 66-4 9-9 16-14 21-4 3-7 4-9 3-3-3-7-10-9-25l-1-5-4-1c-3-1-4-2-5-3-1-1-1-4 0-6l2-5-4-4-15-11-8-8c-7 4-13 9-20 14-1 9-4 16-8 21-6 6-14 11-23 14-4 5-7 11-10 17z"/>
<glyph glyph-name="flag-on-moon" unicode="&#75;" d="M58 83c0 38 22 71 57 96 10 6 20 12 32 17l1-16c-8-4-16-9-24-14-31-22-50-51-50-83z m119 124c22 7 47 10 73 10 52 0 99-15 134-38 35-25 57-58 57-96l-16 0c0 32-19 61-50 83-32 22-76 36-125 36-26 0-50-4-72-11z m-30 236c-1 4-5 7-9 7-4-1-7-5-7-9l28-291c0-5 4-8 8-7 5 0 8 4 7 8z m-7-18c22 4 42 3 59 2 24-1 45-2 60 9l11 7 1-13 9-89 0-5-4-3c-23-15-44-12-67-9-18 3-37 5-56-3l-10-4-1 10-9 90 0 7z m59-14c-15 1-32 2-49 0l6-72c20 5 38 3 55 1 18-3 36-5 53 4l-7 73c-17-7-36-7-58-6z m86-238c23 0 44-6 60-17 16-11 26-27 26-45l-16 0c0 13-7 24-19 32-13 9-31 15-51 15z"/>
<glyph glyph-name="galaxy" unicode="&#78;" d="M77 250c2-4 6-6 10-5 4 1 7 6 5 10-11 36-7 73 9 104 15 31 43 56 79 68 56 18 105-1 138-34 14-15 25-32 32-49 7-18 11-37 10-55-1-38-19-73-62-91-31-14-53-12-67-2-6 5-10 10-13 17-3 6-5 14-5 21 0 19 10 39 30 49 4 2 5 7 3 11-2 4-6 5-10 3-26-13-38-38-38-63 0-10 2-19 6-28 4-9 10-16 18-22 17-13 45-17 82-1 49 22 71 62 72 105 1 21-4 42-12 61-8 20-20 39-35 54-37 38-91 59-154 39-40-13-71-41-88-76-18-34-23-76-10-116z m345 24c-1 5-6 7-10 6-4-2-6-6-5-10 12-36 8-73-8-104-16-32-44-57-80-68-56-18-105 0-138 34-13 14-24 31-32 49-7 18-11 37-10 55 1 37 20 72 63 91 31 14 53 11 67 1 5-4 10-10 13-16 3-7 4-14 4-22 0-19-10-39-30-49-3-2-5-6-3-10 2-4 7-6 11-4 25 13 37 39 38 63 0 10-2 20-6 28-4 9-10 17-18 23-18 13-46 17-83 0-49-21-70-62-72-105 0-20 4-41 12-61 8-19 20-38 35-54 37-37 92-58 154-38 40 13 71 41 89 75 17 35 22 77 9 116z m1 101c0-11-9-21-21-21-12 0-22 10-22 21 0 12 10 22 22 22 12 0 21-10 21-22z m-294-232c0-11-10-21-22-21-12 0-21 10-21 21 0 12 9 22 21 22 12 0 22-10 22-22z m101 246c0-12-10-21-21-21-12 0-22 9-22 21 0 12 10 21 22 21 11 0 21-9 21-21z m-115 37c0-12-10-21-21-21-12 0-22 9-22 21 0 12 10 22 22 22 11 0 21-10 21-22z m209-302c0-12-10-21-22-21-11 0-21 9-21 21 0 12 10 21 21 21 12 0 22-9 22-21z m23 183c0-12-10-21-22-21-11 0-21 9-21 21 0 12 10 21 21 21 12 0 22-9 22-21z"/>
<glyph glyph-name="globe" unicode="&#79;" d="M260 450c37 0 71-16 96-40 25-25 40-59 40-96 0-38-15-72-40-97-25-24-59-39-96-39-38 0-72 15-96 39-25 25-40 59-40 97 0 37 15 71 40 96 24 24 58 40 96 40z m85-51c-22 22-52 35-85 35-33 0-64-13-85-35-22-22-36-52-36-85 0-34 14-64 36-86 21-21 52-35 85-35 33 0 63 14 85 35 22 22 35 52 35 86 0 33-13 63-35 85z m44-148l15-9 4-2 0-5-1-3c-22-41-59-69-101-81-41-12-87-8-128 15l0 0c-41 23-69 60-81 101-11 42-7 88 15 129l4 6 7-3 15-9c-3-4-5-9-7-13l-9 4c-17-35-20-74-10-109 11-38 36-72 73-92 37-21 79-25 117-14 35 10 67 33 88 66l-8 5c2 4 5 9 7 14z m-152-96l0-65-15 0 0 65z m-54-64l94 0 0-16-94 0z m200 281c10-24 8-36 0-39-11-5-32 11-54 27-19 14-39 29-52 33-8 3-12 8-12 13-1 5 1 10 4 14 3 4 8 7 12 9 15 8 36 11 49 1l-9-13c-8 7-22 4-32-2-4-1-6-3-8-5-1-1-1-1-1-1 0-1 1 0 2-1 16-5 37-21 56-35 19-14 36-27 39-26 0 0-3 5-9 19z m-250-99c19 32 29 38 37 34 5-3 6-9 8-15 3-7 6-17 18-13 62 24 74-4 88-34 6-15 13-31 29-38l-6-14c-22 9-30 28-38 46-10 23-19 44-68 26-27-11-33 8-38 23-1 3-1 5-1 5 0 0-3-6-16-28z"/>
<glyph glyph-name="half-moon" unicode="&#82;" d="M255 450c3-1 7-1 11-1 51-5 96-30 127-66 31-37 48-85 43-137-4-51-29-96-66-127-37-31-85-48-137-43l0 0c-51 4-96 29-127 66-31 37-47 85-43 137 0 3 1 7 1 11 1 4 2 7 2 11l16-2c1-32 15-62 36-85 22-22 51-37 84-40 36-3 70 9 96 31 26 21 43 53 47 89 2 33-7 64-25 89-19 25-46 44-78 51l2 16c3 0 7 0 11 0z m41-22c14-10 26-22 36-36 21-27 31-62 28-99-3-41-23-76-52-100-29-25-67-38-108-34-37 3-69 20-93 44-12 13-21 27-28 43 3-36 17-68 39-94 28-34 69-57 117-61 47-4 91 12 125 40 34 28 56 69 61 116 4 48-12 92-40 126-22 26-51 45-85 55z m-233-149z m16-2l0 0z m156-186z m141 218c0 6 0 12-1 18l-6 46 21-42c6-12 10-26 13-40 3-14 3-28 2-42-2-21-8-41-17-59-9-18-22-34-38-47-16-14-34-23-54-29-19-7-39-9-60-7-14 1-28 4-41 9-14 5-26 12-38 20l-38 28 45-14c6-2 12-3 17-4 6-1 12-2 18-3 22-2 43 1 63 7 20 6 39 17 56 31 17 14 30 31 40 49 10 19 16 40 18 61 0 6 0 12 0 18z m13-33c-3-19-9-36-17-53-11-20-26-39-44-54-18-15-39-27-61-34-18-5-36-8-55-8 8-2 17-4 25-5 19-1 37 1 55 6 17 6 34 15 48 27 14 12 26 26 34 43 9 16 14 34 15 52 1 9 1 17 0 26z"/>
<glyph glyph-name="looking-telescope" unicode="&#83;" d="M90 330l9 33c1 4 3 7 7 8 2 1 6 2 9 1l0 0 173-45c3-1 6-3 8-6 2-2 3-6 2-10l0 0-9-33 0 0 0 0c-1-3-3-6-6-8-3-1-7-1-10 0l0 0-60 15-3 2c-1 1-2 1-3 2-1 0-2 0-4 0 0 0 0 0-1 0 0 0-1 0-1 0l-4 0-97 26c-3 1-6 3-8 5-2 3-3 7-2 10z m23 26l-7-27 93-24c0 0 1 0 1 0 1 0 2 0 3 0 4 0 7-1 10-2 2-1 4-2 6-3l56-15 7 27z m160-86z m16 33l25-6-4-15-24 6z m-86 2c7 0 13-3 18-7 4-4 7-11 7-17 0-7-3-13-7-17-5-5-11-7-18-7-6 0-12 2-17 7-4 4-7 10-7 17 0 6 3 13 7 17 5 4 11 7 17 7z m7-18c-2 1-4 2-7 2-2 0-4-1-6-2-1-2-2-4-2-6 0-3 1-5 2-6 2-2 4-3 6-3 3 0 5 1 7 3 1 1 2 3 2 6 0 2-1 4-2 6z m-5-25c1 4 0 9-4 11-4 1-9 0-11-4l-44-98c-2-4 0-9 3-10 4-2 9 0 11 4z m14 7c-2 4-6 5-10 4-4-2-6-7-4-11l45-97c2-4 6-6 10-4 4 1 6 6 4 10z m107-11l1 2 1 2c6 6 12 11 19 14 6 4 13 5 20 6l2 0c5-2 11-10 18-21 6-10 12-23 19-38l1-1 7-40 17-30c4-3 5-7 4-11-1-4-3-7-5-9-3-3-6-5-9-6-7-1-13 0-19 8l0 0-18 33-1 2-3 16-13-13 1-28 0-1c-1-7-4-12-8-14-2-2-5-3-8-3-3 0-6 1-9 2-4 3-8 7-10 12l0 1 0 34 0 0 1 9 2 4 19 21-9 19-5-4-4-3-1-1c-6-2-12-4-18-6-6-2-12-3-18-3l-1 0c-6 0-9 2-12 5-2 2-3 4-3 7-1 2 0 5 1 7 2 4 5 7 9 8l1 1c3 0 6 1 9 2 7 2 14 4 20 4l5-1 12-11 4-3-1 1-1 2 1 3c1 0 1 1 1 1 0 0 0 0-1 0l-16 14-4 3z m26 7c-4-2-8-4-12-8l12-10c3-2 4-5 5-8 0-1 0-3-1-5l12-23 1-4-2-3-21-23-1-7 1-32c0-1 1-2 3-3 1 0 2-1 3-1 0 0 1 1 2 1 1 1 2 2 2 5l-1 30 0 3 2 2 22 23 8 8 3-11 5-27 17-31c2-3 4-3 6-3 1 0 2 1 3 2 1 1 2 2 2 3l-1 1-20 33 0 2-7 40c-7 14-13 27-19 36-4 8-8 13-10 15-5-1-9-2-14-5z m-37-39c4 1 8 2 12 4l-4 3c-5-1-10-2-15-4-3-1-6-1-10-2-1-1-2-1-2-2 0 0 0 0 0 0 0 0 0-1 0-1 1 0 2-1 3-1 6 0 11 1 16 3z m9 28c0 0 0 0-1 0 0 0 0 0-1 0 0-1 0-1-1-2 0-1 0-2 0-2l20-17c0 0 1 0 1 1 1 0 1 0 2 1 0 0 0 1 0 1 1 1 1 1 0 1l-20 17z m-6 11c5 3 10 2 14-2l0 0 20-16c5-4 6-10 4-15-1-2-2-4-3-5-1-2-3-3-4-4-5-3-11-3-16 1l-20 17 0 0c-5 5-5 11-3 16 1 2 2 3 3 5 2 1 4 3 5 3z m42 87c10-2 19-7 24-14 6-8 9-17 7-27-1-10-6-18-14-24-7-6-17-8-27-7-10 2-18 7-23 14-6 8-9 17-7 27 1 10 6 18 14 24 7 5 17 8 26 7z m12-24c-3 5-8 8-14 8-5 1-11 0-15-4-4-3-7-8-8-13-1-6 1-11 4-15 3-5 8-8 13-8 6-1 12 0 16 3 4 4 7 8 8 14 1 6-1 11-4 15z m-253 48c1 4-1 8-5 9-5 2-9-1-10-5l-20-68c-2-4 1-8 5-9 4-2 8 1 10 5z m-16 15c1 4-1 8-6 9-4 2-8-1-9-5l-25-83c-1-4 1-8 5-9 4-2 8 1 10 5z"/>
<glyph glyph-name="mailchain" unicode="&#84;" d="M316 285l0-285 138 136 0 287z m-271-149l138-136 0 285-138 138z m-2 376l1-195 204-205 96 97z m411 0l-301-303 96-97 203 205z"/>
<glyph glyph-name="mailchain-2" unicode="&#85;" d="M436 426l-72-72c50-51 58-128 24-187-12-20-10-46 7-62l1-2c23-23 62-19 78 9 25 41 37 86 37 132l0 1c0 66-25 131-75 181z m-361 0c-85-85-98-215-38-314 16-28 55-32 78-9l2 2c16 16 18 42 7 62-35 59-27 136 23 187z m-1 0l138-139c23-23 61-23 85 0l137 139z"/>
<glyph glyph-name="man-setting-flag" unicode="&#86;" d="M275 420l0-316-16 0 0 316z m-76-48c0-9-3-18-9-24l0 0c-6-6-14-10-23-10-9 0-17 4-23 10-6 6-9 15-9 24 0 9 3 17 9 23 6 6 14 10 23 10 9 0 17-4 23-10 6-6 9-14 9-23z m-20-13l0 0c3 3 5 8 5 13 0 5-2 9-5 12-3 4-7 6-12 6-4 0-8-2-11-6-4-3-5-7-5-12 0-5 1-10 5-13 2-3 7-5 11-5 5 0 9 2 12 5z m-50-23l123 0 0-16-123 0c-2 0-23-22-40-37-3-3-7-6-9-8l5-12 33 28 12 11 0-17 1-165 16 0 0 108 37 0 1-7 15-101 16 0c-4 27-6 45-9 58-2 17-4 26-4 35-1 11-1 22-1 47 0 10 0 22 0 36l0 8 50 0 0-16-34 0c0-11 0-20-1-28 0-24 0-35 1-46 1-9 2-17 5-33 2-15 6-37 10-68l1-9-48 0-1 7-14 101-8 0 0-108-48 0 0 8 0 156-28-23-7-7-5 9-12 27-2 5 4 4c1 1 7 6 14 12 18 16 46 41 50 41z m138 66c29 1 54-2 77-4 33-4 60-7 82 3l11 6 0-115-5-2c-30-13-58-8-86-3-24 5-49 9-77 2l-10-2 0 115z m76-20c-21 3-44 5-68 5l0-80c27 4 50 0 73-4 25-5 49-9 73-1l0 81c-23-7-49-4-78-1z"/>
<glyph glyph-name="man-with-flag" unicode="&#87;" d="M306 411c0 5-3 8-8 8-4 0-7-3-7-8l0-311c0-5 3-8 7-8 5 0 8 3 8 8z m-8-18c23 2 44-1 63-4 26-4 47-7 64 3l12 7 0-114-4-2c-26-13-48-8-72-3-19 4-39 9-60 2l-10-3 0 114z m61-19c-16 2-34 4-53 4l0-78c22 4 40-1 58-5 20-4 38-8 57 0l0 79c-18-7-39-4-62 0z m-235 19l30 0 0-7c1-8 4-15 9-20 5-5 11-8 17-8 7 0 13 3 18 8 5 5 8 12 8 20l1 7 30 0c4 0 8-2 10-5 2-2 3-6 3-9l0-43c0-4-1-7-3-10-2-3-6-5-10-5l-113 0c-4 0-8 2-10 5-2 3-3 6-3 10l0 43c0 3 1 7 3 9 2 3 6 5 10 5z m16-15l-14 0 0-41 108 0 0 41-13 0c-2-9-6-17-12-23-8-8-18-13-29-13-11 0-21 5-28 13-6 6-10 14-12 23z m40 57c12 0 23-5 30-14 8-8 12-19 12-32 0-13-4-24-12-32-7-9-18-15-30-15-11 0-22 6-29 15-8 8-12 19-12 32 0 13 4 24 12 32 7 9 18 14 29 14z m19-24c-5 6-12 9-19 9-7 0-13-3-18-9-5-5-8-13-8-22 0-9 3-17 8-22 5-6 11-9 18-9 7 0 14 3 19 9 5 5 8 13 8 22 0 9-3 17-8 22z m49-84c5-4 12-9 18-14 6-5 11-10 17-15l0-21c-7 7-17 15-27 24-10 8-19 15-25 20l6 0c4 0 8 2 10 5 0 1 0 1 1 1z m35-97l-47 36 0-74-112 0 0 63-27-39-5-8-7 7-20 20-5 5 4 5c2 3 5 8 10 15 12 18 30 44 44 63 2-1 4-2 6-2l9 0c-10-14-32-49-46-69-2-4-5-8-7-11l10-9 36 53 14-4 0-74 80 0 0 90 13-9 50-38z m-85-23l38 0 0-118-46 0 0 118z m22-15l-14 0 0-87 14 0z m-88 15l38 0 0-118-46 0 0 118z m22-15l-14 0 0-87 14 0z m8 110l45 0 0-44-53 0 0 44z m29-16l-21 0 0-12 21 0z m92-14l-8-17-14 7 12 26 10-5z m-186-37l-22 18 10 12 22-17z m106 119l0-33-45 0 0 47 11-7c2-1 4-2 6-2 2-1 3-1 5-1 2 0 4 0 6 1 2 0 4 1 6 2l11 7z m-15-17l0 6c-3 0-5-1-8-1-2 0-4 1-7 1l0-6z m-23 63l31 0c1 0 2-1 2-2l0-18c0-1-1-2-2-2l-31 0c-1 0-2 1-2 2l0 18c0 1 1 2 2 2z"/>
<glyph glyph-name="measurement" unicode="&#88;" d="M193 289c1 4-2 8-7 8-4 0-8-3-8-7l-23-246c-1-4 2-8 7-8 4-1 8 2 8 7z m-24 73c-3 3-8 3-11 0-3-4-3-9 0-11l18-17c4-3 9-2 11 1 3 3 3 8 0 11z m76-31c-4 0-8-4-8-8 0-4 4-8 8-8l184 3c4 0 7 4 7 8 0 4-3 8-8 8z m214 3c-4 0-8-3-8-8 0-4 4-7 8-7l31 0c5 0 8 4 8 8 0 4-4 8-8 8z m-255 20c12 2 23-1 31-7 9-7 16-16 18-28 1-11-1-22-8-31-6-9-16-15-27-17-11-2-23 1-31 7-9 6-15 16-17 27-2 12 1 23 7 32 6 8 16 15 27 17z m22-20c-5 4-12 6-19 4-8-1-14-5-18-10-3-6-5-13-4-20 1-7 5-13 11-17 5-4 12-6 19-5 8 1 14 6 18 11 4 6 5 13 4 20-1 7-5 13-11 17z m14-52l15-15 7 7-18 13c0-1-1-2-2-3l0 0c0-1-1-1-2-2z m10-31l-34 33 9 6c2 1 4 3 6 5l0 0c1 2 3 4 4 6l4 8 8-5 32-23 7-5-31-31z m247 50c4-9 8-18 10-28 3-10 5-20 6-30 9-61-9-120-43-165-35-46-87-78-148-86-26-4-52-2-77 3-25 5-49 15-71 29l8 13c21-13 43-22 66-27 24-5 48-6 72-3 57 8 105 38 137 80 32 42 49 97 41 154-1 9-3 18-6 28-2 9-5 17-9 26z m-52 49c6 0 12-2 17-7 4-4 6-10 6-16 0-7-2-13-6-17-5-4-11-7-17-7-6 0-12 3-17 7-4 4-6 10-6 17 0 6 2 12 6 16 5 5 11 7 17 7z m6-18c-2 2-4 3-6 3-2 0-4-1-5-3-2-1-3-3-3-5 0-2 1-4 3-6 1-1 3-2 5-2 2 0 4 1 6 2 1 2 2 4 2 6 0 2-1 4-2 5z"/>
<glyph glyph-name="moon" unicode="&#89;" d="M250 450c51 0 98-21 132-55 34-34 55-81 55-133 0-51-21-98-55-132-34-34-81-55-132-55-52 0-99 21-133 55-34 34-55 81-55 132 0 52 21 99 55 133 34 34 81 55 133 55z m121-66c-31 31-74 50-121 50-48 0-91-19-122-50-31-31-50-74-50-122 0-47 19-90 50-121 31-31 74-50 122-50 47 0 90 19 121 50 31 31 50 74 50 121 0 48-19 91-50 122z m-172-302c-40 11-74 35-99 67-23 32-38 71-38 113 0 43 15 82 38 113 25 32 59 57 99 68l4 0c40-11 75-36 99-68 24-31 38-70 38-113 0-21-3-41-10-60-7-20-17-38-29-54l-6-8-7 8c-1 2-3 3-6 5-2 1-5 1-7 1-5 0-9-2-12-5-4-3-6-7-6-12 0-3 1-5 2-7 1-3 3-5 5-6l8-7-8-6c-9-6-19-12-29-17-10-5-21-9-32-12z m-86 77c22-29 53-51 88-61 9 2 18 6 27 10 7 3 13 7 19 11 0 1-1 3-2 4-2 4-3 9-3 14 0 9 4 17 9 23 6 6 15 10 24 10 5 0 10-1 14-3 2-1 3-2 5-3 9 13 16 27 21 43 6 17 10 36 10 55 0 39-13 75-35 104-22 29-53 51-89 61-35-10-66-32-88-61-22-29-35-65-35-104 0-39 13-75 35-103z m71 229c7 0 13-2 18-7 4-4 7-10 7-17 0-7-3-13-7-17-5-5-11-7-18-7-6 0-13 2-17 7-4 4-7 10-7 17 0 7 3 13 7 17 4 5 11 7 17 7z m7-18c-2 2-4 3-7 3-2 0-4-1-6-3-2-1-3-4-3-6 0-2 1-5 3-6 2-2 4-3 6-3 3 0 5 1 7 3 1 1 2 4 2 6 0 2-1 5-2 6z m-58-119c6 0 12-3 17-7 4-5 7-11 7-17 0-7-3-13-7-18-5-4-11-7-17-7-7 0-13 3-18 7-4 5-7 11-7 18 0 6 3 12 7 17 5 4 11 7 18 7z m6-18c-2 1-4 2-6 2-3 0-5-1-7-2-1-2-2-4-2-6 0-3 1-5 2-7 2-1 4-2 7-2 2 0 4 1 6 2 1 2 2 4 2 7 0 2-1 4-2 6z m136-63c9 0 17-4 23-10 6-6 10-14 10-23 0-9-4-17-10-23-6-6-14-10-23-10-9 0-18 4-24 10-5 6-9 14-9 23 0 9 4 17 9 23 6 6 15 10 24 10z m12-21c-3 3-8 5-12 5-5 0-9-2-12-5-4-3-6-7-6-12 0-5 2-9 6-12 3-3 7-5 12-5 4 0 9 2 12 5 3 3 5 7 5 12 0 5-2 9-5 12z m61 230c6 0 12-3 16-7 4-4 6-9 6-16 0-6-2-11-6-15-4-5-10-7-16-7-6 0-12 2-16 7-4 4-7 9-7 15 0 7 3 12 7 16 4 4 10 7 16 7z m5-18c-2 2-3 2-5 2-2 0-4 0-5-2-1-1-2-3-2-5 0-1 1-3 2-4 1-2 3-2 5-2 2 0 3 0 5 2 1 1 2 3 2 4 0 2-1 4-2 5z m24-78c6 0 12-3 16-7 4-4 6-9 6-16 0-6-2-12-6-16-4-4-10-6-16-6-6 0-12 2-16 6-4 4-7 10-7 16 0 7 3 12 7 16 4 4 10 7 16 7z m5-18c-2 1-3 2-5 2-2 0-4-1-5-2-1-1-2-3-2-5 0-2 1-3 2-5 1-1 3-2 5-2 2 0 3 1 5 2 1 2 2 3 2 5 0 2-1 4-2 5z"/>
<glyph glyph-name="moon-and-stars" unicode="&#90;" d="M246 448c50-2 94-23 127-57 32-33 51-79 51-129 0-51-21-98-54-131-34-34-81-55-132-55-34 0-66 9-93 25-29 17-52 40-69 69l12 9c14-13 31-24 49-31 17-7 36-11 56-11 42 0 80 17 108 45 27 28 44 66 44 108 0 32-10 63-27 88-19 25-44 45-75 55l3 15z m115-68c-18 20-41 35-67 44 14-11 26-23 36-37 20-28 31-61 31-97 0-47-19-89-49-119-30-30-72-49-119-49-22 0-43 4-62 12-3 1-7 3-10 4 9-9 20-17 31-23 26-15 55-23 86-23 47 0 90 19 121 50 30 31 50 73 50 120 0 46-18 88-48 118z m-124 18l7-34 36-9-34-8-9-35-8 34-35 9 34 7z m-61-113l6-30 31-8-30-6-7-31-7 30-30 7 29 7z"/>
<glyph glyph-name="moon-orbitting" unicode="&#48;" d="M244 372c31 0 59-13 79-33 21-21 33-49 33-80 0-31-12-59-33-80-20-20-48-33-79-33-31 0-60 13-80 33-20 21-33 49-33 80 0 31 13 59 33 80 20 20 49 33 80 33z m68-44c-17 17-41 28-68 28-27 0-51-11-69-28-17-18-28-42-28-69 0-27 11-51 28-69 18-17 42-28 69-28 27 0 51 11 68 28 18 18 29 42 29 69 0 27-11 51-29 69z m-80 30l-5-15 0-1c-4-9-10-17-18-23-6-3-11-5-19-6l4-6c4-1 7-2 9-4 3-1 5-4 6-7 12-4 19-10 21-16 3-7 1-14-5-19-4-5-11-8-19-11-21-7-52-8-71 9l10 12c15-13 39-12 56-6 6 2 10 4 13 7 1 1 2 2 2 2-1 3-6 6-16 8l-4 2-1 4c0 2-1 3-1 3 0 0-1 0-3 0l-5-1-3 5-6 11-9 12 8 12c11-3 19-1 24 2 6 4 9 10 12 16l5 14 15-4z m46-193l-2 18 0 2c1 10 3 21 9 31l0 0c4 6 10 11 18 15l0 0-9 7c-4-1-7-2-11-1l0 0c-3 1-6 3-9 6-15-1-24 2-29 7-6 6-6 15-2 24 3 6 10 14 18 20 21 17 54 29 82 16l-7-14c-21 10-48 0-65-14-7-5-12-11-14-15-1-3-2-5-1-6 2-3 9-4 21-3l5 1 2-4c1-2 2-3 3-3l0 0c1 0 2 1 4 2l5 2 4-3 12-9 15-9-3-14c-14-2-21-7-26-14l0 0c-4-6-6-15-7-23l2-17z m-126 56l13-2 1-1c8-2 15-6 21-12 3-4 5-8 7-13l3 2c0 3 0 6 1 8 2 2 3 4 6 6 2 10 6 16 11 19 6 4 13 2 19-3 4-4 9-10 12-17 8-18 10-44-4-61l-12 10c10 12 8 31 1 45-2 5-4 9-7 11-1 1-1 2-1 2-2-1-3-5-5-13l0-5-5-1c0 0-1 0-1 0 0 0 0-1 1-2l1-5-4-3-9-7-8-8-13 6c1 9-1 15-5 18-3 4-8 7-13 8l-12 2z m-15 201c-5-3-5-11 0-14 2-1 5-1 7 0l1 0 1 1 1 0 1 1 0 0 1 0 0 1 1 0 1 0 0 0 1 1 1 0 0 0 2 1 0 0 1 0 1 0 0 1 1 0c6 2 7 9 2 13-2 2-5 2-7 2l-1-1-1 0 0 0-1 0-1-1-1 0 0 0-1-1-1 0-1 0-1-1-1 0-1 0 0-1-1 0-1 0-1-1 0 0-1-1z m13-48c3 5 1 11-5 12-3 1-6 0-8-3-2-4-5-6-8-8l0 0c-5-3-6-10-1-14 3-1 6-1 8 0 6 3 11 8 14 13z m-50-13c1 2 1 5-1 7-3 5-11 4-13-1l0-1-1 0 0-1 0-1 0-1-1 0 0-1 0-1-1-1 0 0 0-1 0-1-1-1 0 0 0-1 0-1-1-1 0 0 0-1 0-1 0-1-1 0c0-3 1-6 3-8 4-4 11-2 13 4l0 0 0 1 0 0 0 1 0 1 1 1 0 1 0 0 0 1 1 1 0 1 0 1 1 0 0 1 0 1 0 0 1 1 0 1 0 0z m-9-58c0 6-6 9-11 6-3-2-4-4-4-7l0-1 0-1 0-1 0-1 0-1 0-1 1-1 0-2 0-1 0-1 0-1 0-1 0 0 0-1 1-1 0-1 0 0c1-6 8-9 13-5 2 2 3 5 2 7l0 0 0 1 0 2 0 1-1 1 0 1 0 1 0 0 0 1 0 1 0 1 0 1 0 0 0 1 0 1 0 1 0 1z m15-58c-3 5-9 7-13 3-2-3-3-6-2-9l0 0 1-2 0-1 1-1 0 0 0-1 1-2 1-1 0-1 0-1 1-1 0 0 1-1 0-1 1-1 0-1c3-5 11-5 14 0 1 3 1 5 0 7l0 1-1 1 0 1-1 0 0 1 0 1-1 1-1 1 0 1 0 1-1 1 0 1 0 0-1 1 0 1 0 1z m30-52c-4 4-10 4-13-1-2-3-1-6 0-8l1-1 1-1 0-1 1 0 0-1 1-1 1-1 0-1 1 0 1-1 0-1 1-1 1-1 0 0 1-1 1-1c3-4 10-3 13 2 1 3 0 6-2 8l0 1-1 1 0 1-1 0-1 1 0 1-1 1-1 0 0 1-1 1 0 1-1 0-1 1 0 1-1 1z m42-43c-4 3-10 2-12-4-1-3 0-6 2-8l1 0 1-1 1-1 0-1 1 0 1-1 1-1 1 0 1-1 1-1 1 0 1-1 1-1 1-1 0 0c5-3 12 0 13 6 0 2-1 5-4 7l0 0-1 1-1 1-1 0-1 1-1 0 0 1-1 1-1 0-1 1-1 1-1 1-1 0-1 1z m52-31c-4 2-9 0-10-4-2-4 0-9 4-10l0-1 1 0 2 0 1-1 1 0 1-1 1 0 1 0 1-1 1 0 1-1 1 0 1 0 1-1 1 0 0 0c3-1 6 0 8 2 4 5 2 11-3 13l0 0-1 0-1 0-1 1-1 0-1 0-1 1-1 0-1 1-1 0-1 0-1 1-1 0-1 1z m57-14c-6 0-10-6-7-12 2-2 4-3 7-4l0 0 1 0 1 0 1 0 1 0 1 0 1 0 1 0 1 0 1 0 1 0 1 0 1 0 1 0 1 0 1 0 1 0 0 0c6 1 10 8 6 13-2 2-4 3-7 3l0 0-1 0-1 0-1 0-1 0-2 0-1 0-1 0-1 0-1 0-1 0 0 0-1 0-1 0-1 0z m57 10c-4-2-5-9-2-12 3-3 6-3 9-2l1 0 1 1 1 0 0 1 1 0 1 1 1 0 1 0 1 1 0 0 1 1 1 0 1 1 1 0 0 1 1 0 1 1 1 0 0 0c4 3 4 8 2 12-3 3-8 4-11 1l-1 0 0-1-1 0-1 0 0-1-1 0-1-1 0 0-2-1-1 0 0-1-1 0-1 0 0-1-1 0-1 0z m42 39c-3-6 1-12 8-12 2 0 4 2 6 4l0 0 0 1 1 1 0 1 1 0 0 2 1 1 0 1 1 1 0 1 0 0 1 1 0 1 1 1 0 1 0 1 1 1 0 0c2 6-3 12-9 11-3-1-5-3-6-5l0-1 0 0 0-1-1-1 0-1 0 0-1-1 0-1 0-1-1 0 0-1-1-1 0-1 0 0-1-1 0-1 0 0-1-1z m14 56c0-5 4-8 9-8 4 0 7 4 7 8l0 0 0 1 0 1 0 1 0 1 0 1 0 1 0 1 0 1 0 1 0 1 0 1 0 1 0 1 0 1-1 1 0 1c0 3-2 6-5 7-6 1-11-3-10-8l0-1 0-1 0-1 0-1 0-1 0-1 0-1 0 0 0-1 0-1 0-2 0-1 0-1 0-1 0-1z m-10 58c1-3 5-5 8-5 5 1 9 6 7 11l0 0-1 2 0 1-1 2 0 1-1 1 0 1 0 1-1 1 0 1-1 1 0 1-1 1 0 1c-1 2-3 4-6 4-6 1-11-5-8-11l0 0 1-1 0-1 0-1 1-1 0-1 0-1 1-1 0-1 1-1 0-1 0-1 1-1 0-1z m-27 54c3-5 11-4 14 2 0 2 0 5-1 7l-1 0 0 1-1 1-1 1 0 1-1 1-1 1-1 1 0 1-1 1-1 1 0 1-1 1-1 1c-2 2-5 3-8 2-5-1-8-8-4-12l0-1 1-1 1-1 1-1 0 0 1-1 1-1 0-1 1-1 1-1 0-1 1-1 1-1z m-40 45c2-2 6-3 9-1 4 3 5 9 1 13l-1 0-1 1 0 1-1 0-1 1-1 1-1 1-1 1-1 0-1 1-1 1 0 0-1 1-1 1-1 0c-4 4-11 1-12-5 0-3 1-6 3-7l0-1 1 0 1-1 1-1 0 0 1-1 1 0 1-1 0-1 1 0 1-1 1-1 0 0 1-1 1-1 1 0z m-50 34c5-3 11 1 11 7 0 3-2 5-4 7l-1 0 0 0-1 0-1 1-1 0-1 1-1 0-1 1-1 0 0 0-1 1-1 0-1 0-1 1-1 0-1 1-1 0 0 0c-4 2-8 0-10-3-2-4-1-9 4-11l1 0 0-1 1 0 1-1 1 0 1 0 0-1 1 0 1 0 1-1 1 0 1-1 1 0 1-1 1 0 1 0z m-57 17c3 0 6 1 7 4 4 5 1 11-5 12l0 0-1 0-1 0-1 0-1 0 0 0-1 1-1 0-1 0-1 0-1 0-1 0-1 0 0 0-1 0-1 0-1 0-1 0-1 0 0 0c-6 0-10-4-8-10 1-3 4-5 7-5l1 0 1 0 1 0 1 0 1 0 0-1 1 0 2 0 0 0 1 0 2 0 1 0 0 0 1 0 1 0 1-1z m-99 16c11 0 21-4 28-11 7-8 11-17 11-28 0-11-4-21-11-28-7-7-17-11-28-11-11 0-20 4-28 11-7 7-11 17-11 28 0 11 4 20 11 28 8 7 17 11 28 11z m17-22c-5 4-11 6-17 6-6 0-12-2-17-6-4-5-6-11-6-17 0-6 2-12 6-17 5-4 11-6 17-6 6 0 12 2 17 6 4 5 6 11 6 17 0 6-2 12-6 17z"/>
<glyph glyph-name="musicchain" unicode="&#49;" d="M483 262c0 0 0 0 0 0 14 3 23 18 19 32-4 13-18 21-32 17l0 0z m-318 107c-6-2-12-6-17-10-5-5-9-11-13-17 0 0 0 0 0 0-20-44-40-87-60-130-17-5-34-9-51-14 0 0 0 0-1 0 3-9 4-13 4-13 1-4 2-8 3-12 1-4 2-9 3-13 0 0 1-4 4-12 0 0 0 0 0 0 21 6 42 11 63 17l0 0c7 2 13 7 16 14l0 0 66 141c0 0 0 0 0 0 1 0 1 0 1 0 0 0 0 1 1 1 1 0 3 1 4 1 2-1 4-1 6-2l0 0c2-1 3-2 4-3 2-1 2-3 3-4 0 0 0-1 0-1 0 0 0 0 0-1 0 0 0 0 0 0l-53-113c0 0 0 0 0 0-1-1-2-3-2-5-2-6-3-12-3-18 0-6 1-12 3-17 3-9 8-17 14-23 6-6 13-11 20-14 0 0 0 0 0 0 7-4 16-6 24-6 9-1 18 0 26 4 6 2 12 5 17 10 6 5 10 11 13 17 0 0 0 0 0 0l101 216c2 3 3 6 4 9 0 0 0 0 0 0 1 0 1 0 1 0 0 0 0 1 1 1 1 0 3 1 4 1 2 0 4-1 6-2l0 0c2-1 3-2 4-3 2-1 2-3 3-4 0 0 0-1 0-1 0 0 0 0 0-1 0 0 0 0 0 0l-45-96 0 0c-3-5-3-12-2-18 4-14 18-22 32-18l0 0c38 11 76 21 114 32 0 0 0 0 0 0-2 8-3 12-3 12-1 4-2 8-3 13-2 4-3 8-4 12 0 0-1 4-3 13l-1-1c-20-5-40-11-60-16l22 46c0 0 0 0 0 0 3 6 4 13 5 20 0 7-1 14-3 20-3 9-8 16-14 23-6 6-13 11-20 14 0 0 0 0 0 0-8 4-16 6-25 6-8 1-17 0-26-4-6-2-12-6-17-10-5-5-9-11-13-17 0 0 0 0 0 0-1-3-2-6-4-9l-101-216c0 0 0 0 0 0 0 0 0 0 0 0 0-1-1-1-1-1-1-1-3-1-5-1-1 0-3 1-5 2l0 0c-2 1-3 2-5 3-1 1-2 3-2 4 0 0 0 1 0 1 0 0 0 0 0 0 0 0 0 0 0 0 0 0 0 0 0 0 18 38 35 76 53 114 0 0 0 0 0 0 3 6 4 13 5 20 0 7-1 14-3 20-3 9-8 16-14 23-6 6-13 11-20 14 0 0 0 0 0 0-8 4-16 6-25 6-8 1-16 0-25-3 0-1 0-1-1-1m-128-222l0 1-13 50-1 0c0-1-1-1-2-1-12-5-20-18-16-31 4-14 18-22 32-19z"/>
<glyph glyph-name="musicchain2" unicode="&#50;" d="M338 405c-9 0-19-3-26-10-12-11-14-29-6-42l-51-154-51 154c8 13 6 31-6 42-8 7-17 10-27 10-9 0-19-3-26-10-13-12-14-31-4-45l-37-131c-10-3-19-11-21-22-5-17 6-33 24-37 17-5 35 6 39 22 3 12-1 24-11 31l34 122c3 0 5 0 8 0l51-155c-13-14-12-35 1-48 15-14 38-14 53 0 14 14 14 36 0 50l51 153c2 0 5 0 7 0l34-122c-9-7-13-18-11-30 4-17 22-27 39-24 18 4 29 20 25 37-2 12-11 20-22 23l-36 131c10 14 8 33-5 45-7 7-16 10-26 10z m73-86c0-7 3-14 8-19l-15-55 4-14c6-2 10-5 14-8l19 69c14 2 25 13 25 27 0 14-12 26-27 26-15 0-28-12-28-26z m-368 0c0-14 11-25 25-27l19-69c4 3 9 6 14 8l5 15-15 54c5 5 7 12 7 19 0 14-12 26-27 26-15 0-28-12-28-26z m411-33l19-43c-5-4-8-10-8-17 0-12 11-23 24-23 13 0 23 11 23 23 0 12-10 22-22 23l-21 48c-3-5-9-9-15-11z m-432-37c-12-1-22-11-22-23 0-12 10-23 23-23 13 0 24 11 24 23 0 7-3 13-8 17l19 43c-6 2-12 6-15 11z"/>
<glyph glyph-name="new-moon" unicode="&#51;" d="M374 131c-11-5-39-14-51-16-12-3-24-4-36-4-26 0-50 5-73 15-23 9-44 23-61 41-18 17-32 38-42 61-9 23-14 47-14 73 0 12 1 25 4 36 2 12 5 24 10 35l7-3c-4-10-8-22-10-33-2-11-3-23-3-35 0-25 5-48 14-70 9-22 22-42 39-59 17-17 37-30 59-39 22-9 45-14 70-14 12 0 23 1 35 3 11 3 38 12 49 16z m54 47c-18-27-41-49-69-64-27-15-58-23-91-23-52 0-100 21-134 55-35 35-56 82-56 135 0 33 8 64 23 91 15 28 38 51 64 69l0 0c4 2 9 1 11-3 2-3 2-7-1-10-15-15-27-34-36-54-8-20-12-42-12-64 0-47 19-90 50-121 30-31 73-50 120-50 23 0 44 5 64 13 21 8 39 21 55 36l0 0c3 3 8 3 11 0 3-3 3-7 1-10z m-77-50c6 3 12 6 17 10 0 0-1 0-1-1-22-8-45-13-70-13-51 0-98 21-131 54-34 34-55 80-55 132 0 24 5 48 14 70 0 0 0 1 0 1-3-5-7-11-10-17-14-25-21-53-21-83 0-48 19-92 51-124 31-31 75-51 123-51 30 0 59 8 83 22z"/>
<glyph glyph-name="orbit" unicode="&#52;" d="M250 450c20 0 39-4 58-10 19-6 36-15 52-26l7-5-6-7c-2-2-4-5-5-8-1-3-1-6-1-10 0-7 3-14 7-19 5-4 12-8 19-8 4 0 6 1 9 2 3 1 5 2 8 4l6 5 5-7c9-15 16-31 21-47 4-17 7-34 7-52 0-51-21-98-55-132-34-34-81-55-132-55-52 0-99 21-133 55-34 34-55 81-55 132 0 52 21 99 55 133 34 34 81 55 133 55z m53-24c-17 5-35 8-53 8-48 0-91-19-122-50-31-31-50-74-50-122 0-47 19-90 50-121 31-31 74-50 122-50 47 0 90 19 121 50 31 31 50 74 50 121 0 17-2 32-6 47-4 13-9 26-15 37-2-1-3-1-5-2-4-1-9-2-14-2-11 0-22 5-30 12-7 8-12 19-12 30 0 6 1 11 3 15 0 3 1 5 2 6-12 9-26 16-41 21z m-53-79c23 0 44-9 60-25 15-15 24-36 24-60 0-23-9-44-24-60-16-15-37-24-60-24-24 0-45 9-60 24-16 16-25 37-25 60 0 24 9 45 25 60 15 16 36 25 60 25z m49-36c-13 13-30 20-49 20-19 0-37-7-49-20-13-12-20-30-20-49 0-19 7-36 20-49 12-12 30-20 49-20 19 0 36 8 49 20 12 13 20 30 20 49 0 19-8 37-20 49z m82 116c12 0 23-5 31-12 7-8 12-19 12-31 0-11-5-22-12-30-8-7-19-12-31-12-11 0-22 5-30 12-7 8-12 19-12 30 0 12 5 23 12 31 8 7 19 12 30 12z m20-24c-5 5-12 8-20 8-7 0-14-3-19-8-4-4-7-11-7-19 0-7 3-14 7-19 5-4 12-8 19-8 8 0 15 4 20 8 4 5 7 12 7 19 0 8-3 15-7 19z"/>
<glyph glyph-name="planet" unicode="&#53;" d="M251 390c35 0 67-14 90-37 18-18 30-40 35-66-4-2-9-5-14-8-4 24-15 46-32 63-20 20-48 33-79 33-31 0-59-13-79-33-21-21-33-49-33-80 0-16 3-31 9-45-5-1-10-1-16-1l0 0c-6 14-9 30-9 46 0 36 14 68 38 91 23 23 55 37 90 37z m128-137c-3-32-16-60-38-81-23-23-55-38-90-38-35 0-67 15-90 38-5 4-9 9-12 14 5 0 10 0 15 1 1 0 2 0 4 0 1-1 2-3 4-4 20-20 48-33 79-33 31 0 59 13 79 33 17 16 28 37 32 61 1 1 3 2 4 2 4 2 8 4 13 7z m-24 96c20 2 36 1 49-1 18-3 29-11 32-22 5-17-13-38-46-58-31-18-75-37-125-52-3-1-6-2-8-2-48-14-93-21-127-22-37 0-62 8-67 24l0 0 0 1 0 0c-3 10 3 22 15 34 9 9 22 18 38 27 0-5-1-10-1-16 0-1 0-1 0-2-11-7-20-14-27-21-7-7-11-14-10-18l0 0 0 0 0 0c3-9 22-13 52-13 32 1 76 7 123 21 3 0 5 1 8 2 49 14 91 33 121 50 26 17 42 31 39 41-1 5-8 9-20 11-9 1-21 2-35 1-3 6-7 11-11 15z"/>
<glyph glyph-name="planet-2" unicode="&#54;" d="M250 434c47 0 90-19 121-50 31-31 50-74 50-122 0-47-19-90-50-121-31-31-74-50-121-50-48 0-91 19-122 50-31 31-50 74-50 121 0 48 19 91 50 122 31 31 74 50 122 50z m110-61c-28 28-67 45-110 45-43 0-82-17-111-45-28-29-45-68-45-111 0-43 17-82 45-110 29-28 68-46 111-46 43 0 82 18 110 46 28 28 46 67 46 110 0 43-18 82-46 111z m-237 1l138 0 0-16-138 0z m184 0l68 0 0-16-68 0z m-183-205l55 0 0-16-55 0z m100 0l152 0 0-16-152 0z m97 134c0 3-2 6-4 9-2 2-5 3-8 3-3 0-6-1-9-3-2-3-3-6-3-9l-16 0c0 3-1 6-3 9-2 2-5 3-9 3-3 0-6-1-8-3-2-3-4-6-4-9l-15 0c0 3-1 6-4 9-2 2-5 3-8 3-3 0-6-1-8-3-3-3-4-6-4-9l-16 0c0 3-1 6-3 9-2 2-5 3-8 3-4 0-7-1-9-3-2-3-3-6-3-9l-16 0c0 3-1 6-4 9-2 2-5 3-8 3-3 0-6-1-8-3-3-3-4-6-4-9l-15 0c0 3-2 6-4 9-2 2-5 3-8 3-1 0-1 0-1 0 2 5 4 10 7 15 5-1 9-4 13-7 0-1 0-1 0-1 0 0 1 0 1 1 5 5 11 8 19 8 8 0 15-3 20-8 0-1 0-1 0-1 0 0 0 0 0 1 5 5 12 8 20 8 7 0 14-3 19-8 0-1 0-1 0-1 0 0 0 0 0 1 5 5 12 8 20 8 8 0 14-3 19-8 0-1 1-1 1-1 0 0 0 0 0 1 5 5 12 8 19 8 8 0 15-3 20-8 0-1 0-1 0-1 0 0 0 0 0 1 5 5 12 8 20 8 7 0 14-3 19-8 0-1 0-1 1-1 0 0 0 0 0 1 5 5 12 8 19 8 8 0 15-3 20-8 0-1 0-1 0-1 0 0 0 0 0 1 4 3 8 6 14 7 2-5 4-10 6-15 0 0 0 0 0 0-4 0-7-1-9-3-2-3-3-6-3-9l-16 0c0 3-1 6-3 9-2 2-5 3-9 3-3 0-6-1-8-3-2-3-4-6-4-9z m0-53c0 4-2 7-4 9-2 2-5 3-8 3-3 0-6-1-9-3-2-2-3-5-3-9l-16 0c0 4-1 7-3 9-2 2-5 3-9 3-3 0-6-1-8-3-2-2-4-5-4-9l-15 0c0 4-1 7-4 9-2 2-5 3-8 3-3 0-6-1-8-3-3-2-4-5-4-9l-16 0c0 4-1 7-3 9-2 2-5 3-8 3-4 0-7-1-9-3-2-2-3-5-3-9l-16 0c0 4-1 7-4 9-2 2-5 3-8 3-3 0-6-1-8-3-3-2-4-5-4-9l-15 0c0 4-2 7-4 9-2 2-5 3-8 3-4 0-7-1-9-3 0-1-1-1-1-2-1 2-1 3-1 5 0 5 1 10 1 14 3 1 6 2 10 2 7 0 14-3 19-8 0 0 0 0 0 0 0 0 1 0 1 0 5 5 11 8 19 8 8 0 15-3 20-8 0 0 0 0 0 0 0 0 0 0 0 0 5 5 12 8 20 8 7 0 14-3 19-8 0 0 0 0 0 0 0 0 0 0 0 0 5 5 12 8 20 8 8 0 14-3 19-8 0 0 1 0 1 0 0 0 0 0 0 0 5 5 12 8 19 8 8 0 15-3 20-8 0 0 0 0 0 0 0 0 0 0 0 0 5 5 12 8 20 8 7 0 14-3 19-8 0 0 0 0 1 0 0 0 0 0 0 0 5 5 12 8 19 8 8 0 15-3 20-8 0 0 0 0 0 0 0 0 0 0 0 0 5 5 12 8 20 8 3 0 6-1 9-2 1-4 1-9 1-14 0-2 0-3 0-5-1 1-1 1-2 2-2 2-5 3-8 3-4 0-7-1-9-3-2-2-3-5-3-9l-16 0c0 4-1 7-3 9-2 2-5 3-9 3-3 0-6-1-8-3-2-2-4-5-4-9z m8-42c-1 0-1 0-1 0-5-5-12-8-19-8-8 0-15 3-20 8 0 0 0 0 0 0 0 0 0 0 0 0-5-5-12-8-20-8-7 0-14 3-19 8 0 0 0 0 0 0 0 0-1 0-1 0-5-5-11-8-19-8-8 0-15 3-20 8 0 0 0 0 0 0 0 0 0 0 0 0-5-5-12-8-19-8-8 0-15 3-20 8 0 0 0 0 0 0 0 0 0 0 0 0-5-5-12-8-20-8-8 0-14 3-19 8 0 0-1 0-1 0 0 0 0 0 0 0-4-4-10-7-16-8-2 5-4 10-6 16 1 0 2 0 3 0 3 0 6 1 8 3 2 2 4 5 4 8l15 0c0-3 1-6 4-8 2-2 5-3 8-3 3 0 6 1 8 3 3 2 4 5 4 8l16 0c0-3 1-6 3-8 2-2 5-3 9-3 3 0 6 1 8 3 2 2 3 5 3 8l16 0c0-3 1-6 4-8 2-2 5-3 8-3 3 0 6 1 8 3 3 2 4 5 4 8l15 0c0-3 2-6 4-8 2-2 5-3 8-3 4 0 7 1 9 3 2 2 3 5 3 8l16 0c0-3 1-6 3-8 3-2 6-3 9-3 3 0 6 1 8 3 2 2 4 5 4 8l15 0c0-3 2-6 4-8 2-2 5-3 8-3 4 0 7 1 9 3 2 2 3 5 3 8l16 0c0-3 1-6 3-8 2-2 5-3 9-3 1 0 2 0 2 0-1-6-3-11-6-16-6 1-12 4-16 8 0 0 0 0 0 0 0 0 0 0 0 0-5-5-12-8-20-8-7 0-14 3-19 8 0 0 0 0 0 0z m-45 186c9 0 16-3 22-9 6-6 9-13 9-22 0-9-3-16-9-22-6-6-13-9-22-9-9 0-16 3-22 9-6 6-9 13-9 22 0 9 3 16 9 22 6 6 13 9 22 9z m11-20c-3 3-7 5-11 5-4 0-8-2-11-5-3-3-5-7-5-11 0-4 2-8 5-11 3-3 7-5 11-5 4 0 8 2 11 5 3 3 5 7 5 11 0 4-2 8-5 11z m-93-176c8 0 16-3 22-9 6-6 9-13 9-22 0-9-3-16-9-22-6-6-14-9-22-9-9 0-17 3-22 9-6 6-9 13-9 22 0 9 3 16 9 22 5 6 13 9 22 9z m11-20c-3 3-7 5-11 5-4 0-8-2-11-5-3-3-5-7-5-11 0-4 2-8 5-11 3-3 7-5 11-5 4 0 8 2 11 5 3 3 4 7 4 11 0 4-1 8-4 11z"/>
<glyph glyph-name="planets-orbitting" unicode="&#55;" d="M239 444c-6 0-9-7-6-12 2-2 4-4 7-4l1 0 1 0 1 0 1 0 1 0 1 0 1 0 0 0 1 0 1 0 0 0 1 0 0 0 1 0 1 0 0 0 1 0 1 0 0 0 1 0 1 0 1 0 0 0 2 0 0 0 1 0 0 0c6-1 11 6 8 11-1 3-4 4-6 4l-1 0 0 0-2 0 0 1-1 0-1 0-1 0 0 0-1 0-1 0 0 0-1 0-1 0 0 0-2 0-3 0-1 0-1 0-1 0-1 0-1 0-1 0-2 0z m-43-23c6 2 7 9 3 13-2 2-5 3-8 2l-1 0-1-1-1 0-1 0-1-1-1 0-1 0-1-1-1 0-1-1-1 0-1 0-1-1-1 0-1 0c-6-3-7-10-2-14 3-2 5-2 8-1l0 0 1 1 1 0 1 0 1 1 1 0 1 0 1 1 1 0 2 1 1 0 1 0 1 1z m-53-27c5 4 4 11-1 13-3 1-6 1-8-1l-1 0-1-1-1 0 0-1-1-1-1 0-1-1-1-1-1-1-1 0 0-1-1-1-1 0-1-1-1-1 0 0c-2-2-3-4-2-7 1-6 8-9 13-5l0 1 1 0 0 1 1 1 1 0 1 1 0 1 1 0 2 1 0 1 1 1 1 0 1 1 1 1z m-40-44c3 5 0 11-5 12-3 1-7-1-8-3l-1-1 0-1-1-1 0-1-1-1-1-1 0-1-1-1 0-1-1-1 0-1-1-1 0-1-1-1 0 0c-3-5 0-10 4-11 4-2 8 0 9 3l1 1 0 1 1 1 0 1 1 1 0 1 1 1 1 2 1 1 0 1 1 1 1 1z m-23-54c2 5-4 10-10 9-2-1-4-3-5-6l0-1 0-1-1-1 0-2 0-1 0-1 0-1-1-1 0-1 0-1 0-2 0-1-1-1 0-1 0 0c0-4 2-8 6-9 5-1 9 2 10 7l0 0 0 1 0 1 0 1 0 1 1 1 0 1 0 1 0 1 0 1 0 2 1 1 0 1 0 1z m-2-60c-1 6-7 9-12 6-2-2-4-5-3-8l0 0 0-1 0-2 0-1 0-1 1-1 0-1 0-1 0-1 0-1 1-2 0-1 0-1 0-1 1-1c1-6 9-8 13-4 2 2 2 5 2 7l0 1-1 1 0 1 0 2 0 1-1 1 0 1 0 1 0 1 0 1 0 1-1 1 0 1 0 1z m18-56c-2 5-10 5-13 0-2-3-2-5 0-8l0 0 1-1 0-1 1-1 0-1 1-1 0-1 1-1 1-1 0-1 1-1 0-1 1-1 1-1 0-1c3-5 11-4 14 2 1 2 1 5-1 7l0 1-1 1 0 0-1 1-1 1 0 1-1 1 0 1-1 1 0 1-1 0 0 1-1 1 0 1z m37-47c-2 2-5 3-7 2-6-2-8-9-3-14l1 0 1-1 0-1 1 0 1-1 1-1 1 0 1-1 1-1 0-1 1 0 1-1 1-1 1 0 1-1c4-3 11 0 12 5 0 3-1 6-3 8l-1 0-1 1 0 0-1 1-1 1-1 0-1 1 0 1-1 0-1 1-1 1 0 0-1 1-1 1z m51-31c-3 1-7 0-9-3-3-4-1-9 3-11l1-1 1 0 1 0 1-1 1 0 1 0 1-1 1 0 1-1 1 0 1 0 1-1 2 0 1 0 1-1c6-1 11 4 9 10-1 3-2 5-5 5l-1 1-1 0-1 0-1 1-1 0-1 0-1 1-1 0-1 0-1 1-1 0-1 0-1 1-1 0z m58-11c-6 0-10-7-7-12 1-2 4-4 7-4l1 0 1 0 1 0 1 0 2 0 1 0 1 0 1 0 1 0 2 0 1 0 1 0 1 0 1 1c5 0 9 5 7 10-1 3-4 5-8 5l-1 0-1 0-1 0-1 0-1 0-1 0-1 0-1 0-2 0-1 0-2 0-1 0z m59 9c-5-2-7-8-4-12 2-3 6-4 9-3l1 1 1 0 1 0 1 1 1 0 1 0 1 1 1 0 2 1 1 1 1 0 1 0 1 1 1 0c5 3 6 9 2 13-2 2-5 3-8 2l-1-1-1 0-1-1-1 0-1 0-1-1-1 0-1-1-1 0-2-1-1 0-1 0-1-1z m51 29c-2-2-3-6-2-9 2-5 8-6 12-3l1 0 0 1 1 1 1 0 1 1 1 1 1 1 1 0 0 1 1 1 1 1 1 0 1 1 0 1 1 1 1 0c3 3 2 9-2 12-3 2-7 2-9-1l-1 0 0-1-1-1-1 0-1-1 0-1-1 0-1-1-1-1 0 0-1-1-1-1-1 0-1-1 0-1z m39 45c-3-5 0-11 6-11 3-1 6 1 8 3l0 1 0 1 1 1 0 1 1 1 0 1 1 1 1 1 0 1 1 1 0 1 1 1 0 1 1 1 0 1 0 0c2 5-1 11-7 11-3 0-6-2-7-5l0 0 0-1-1-1 0 0-1-1 0-1-1-1 0-1-1-1 0-1-1-1 0-1-1-1 0 0-1-1z m21 56c-1-3 0-6 2-8 5-3 12-1 13 5l0 1 0 1 0 1 1 1 0 2 0 1 0 1 0 1 0 1 1 1 0 2 0 1 0 1 0 1 0 0c1 7-6 11-12 8-2-2-3-4-3-6l-1-1 0-1 0-1 0-1 0-1 0-1 0-1 0-1 0-1-1-1 0-1 0-1 0-1 0-1z m0 59c1-6 8-8 13-4 2 2 2 4 2 7-1 5-2 11-4 16-1 4-4 6-8 6-5-1-8-6-7-10 2-5 3-10 4-15z m-35 36c4-5 12-3 14 3 0 2 0 5-2 7-2 3-4 6-4 10 0 6-8 9-13 5-2-1-3-4-2-6 0-7 3-14 7-19z m-11 53c4-5 12-2 13 4 1 2 0 5-2 7l0 0-1 0-1 1 0 1-1 0 0 1-1 1 0 0-1 0 0 1-1 0 0 1-1 0 0 1-1 0 0 1-1 0-1 1 0 0-1 1-1 1 0 0c-2 2-5 2-8 1-5-2-7-9-2-13l0 0 1-1 0 0 1 0 0-1 0 0 1-1 1 0 0-1 1-1 1 0 0 0 1-1 0-1 1 0 0 0 1-1 0 0 0-1 1 0 1-1z m-49 34c6-2 12 2 12 7 0 3-2 6-5 7l0 1-1 0-1 0-1 1 0 0-1 0 0 0-1 1-1 0-1 1-2 0 0 0-1 1-1 0-1 0 0 1-1 0-1 0 0 0-1 1 0 0c-6 2-12-3-10-9 0-3 2-5 5-6l0 0 0 0 2-1 1 0 0 0 1-1 0 0 1 0 0 0 1 0 1-1 1 0 0 0 1-1 0 0 1 0 0 0 1-1 1 0 1 0 0-1z m-166-152l14-8 0 15z m16-17l-26 13-7 4 7 3 26 13 6 3 0-39z m78 83c19 0 35-7 47-19 12-12 20-29 20-47 0-19-8-36-20-48-12-12-28-19-47-19-18 0-35 7-47 19-12 12-19 29-19 48 0 18 7 35 19 47 12 12 29 19 47 19z m42-25c-11 11-25 17-42 17-16 0-31-6-41-17-11-11-17-25-17-41 0-17 6-31 17-42 10-11 25-17 41-17 17 0 31 6 42 17 11 11 17 25 17 42 0 16-6 30-17 41z m63-45l-27-13-5-3 0 39 5-3 27-13 7-3z m-25-4l15 8-15 7z m-76 112l13-27 3-5-39 0 2 5 14 27 3 7z m3-24l-7 14-7-14z m-7-175l7 15-14 0z m17 17l-13-27-4-7-3 7-14 27-2 5 39 0z m60 149l-10-28-2-6-4 4-19 19-5 5 42 14z m-15-20l5 15-15-5z m-128-118l15 5-10 10z m23 0l-28-10-8-2 12 35 2 6 28-27z m115-10l-35 12 28 27 2-6 10-28 2-7z m-20 15l15-5-5 15z m-118 128l5-15 10 10z m-1-23l-12 36 8-3 28-9 6-2-4-5-19-19-5-4z m67 99c-5 0-9-6-7-11 2-3 4-5 7-5l1 0 1 0 1 0 1 0 0 0 1 0 1 0 1 0 1 0 0 0 1 0 1 0 1 0 1 0 0 0 1 0 1 0 1 0 0 0c6-1 10 4 8 10-1 3-3 5-6 5l0 0-1 0-1 0-1 0-1 0-1 1-1 0-1 0-1 0 0 0-1 0-1 0-1 0-1 0-2 0-1 0-1 0z m-40-22c6 2 7 9 3 13-2 2-5 3-8 2l0 0 0 0 0 0-1-1 0 0 0 0 0 0 0 0-1 0 0 0 0 0-1 0 0 0 0-1-1 0 0 0 0 0 0 0 0 0-1 0 0 0 0 0-1 0 0 0 0 0 0-1 0 0-1 0 0 0 0 0 0 0-1 0 0 0 0 0 0 0c-2-1-3-2-4-4-2-3-1-5 0-8 0 0 0 0 0-1 1 0 1 0 1 0l0 0c0-1 0-1 0-2l0 0 0 0 0 0c1 0 1-1 1-1 1-6 9-8 13-4 2 2 2 5 2 7 0 0 0 1 0 1l0 0z m-5 15l4-12z m-36-47c4-2 8-1 10 3 3 4 1 9-3 11-2 1-4 3-5 5-1 1-2 2-3 3-3 1-7 1-9-1l0 0-1-1 0 0 0 0-1-1-1 0 0-1 0 0c-3-2-4-7-1-10 2-2 4-4 7-3 2-2 4-4 7-5z m-5 15l-3-2 0 0z m-3-2l-5 5z m-22-41c2 4 1 9-3 11-4 2-9 1-11-3l0 0 0-1 0 0-1 0 0-1 0 0 0-1 0 0-1-1 0 0 0 0 0-1 0 0-1-1 0 0 0-1 0 0-1-1 0 0 0-1 0 0-1-1 0 0 0-1 0 0 0 0-1-1 0 0 0-1 0 0 0-1 0 0-1-1 0 0c-2-6 3-12 9-11 3 1 5 3 6 5l0 0 0 1 0 0 0 1 1 0 0 1 0 1 0 0 1 1 0 0 0 1 0 0 0 0 1 1 0 0 0 1 0 0 0 0 0 1 1 0 0 1 0 0 0 1 1 0 0 0 0 1 0 0 0 1 1 0 0 0z m-16-56c1 3-1 6-4 8-5 2-11-2-11-7l0 0 0-2 0 0 0-2 0 0 0-1 0 0 0-1 0-1 0-1 0-1 0-1 0-1 0-1 0-1 0-1 0-1 0-1 0 0 0-1c1-4 4-7 8-7 4 0 8 4 8 9l0 0 0 1 0 0 0 1 0 1 0 1 0 1-1 0 0 1 0 1 0 1 0 1 0 1 0 1 0 0 0 1 0 0 0 1 0 1 0 0z m12-57c-3 5-9 6-13 2-2-2-3-6-1-8l0-1 0-1 0 0 1-1 0-1 1-1 0-1 0 0 1-1 1-2 0 0 0-1 1-1 0-1 1 0 1-2 0-1 0 0c2-3 6-4 9-4 5 2 7 8 5 12l-1 0 0 1 0 1-1 0 0 1-1 1 0 0 0 1-1 1 0 0 0 1-1 1 0 0 0 1-1 1 0 1 0 0-1 1 0 1z m35-46c-3 2-7 2-10-1-3-3-3-8 1-11l0 0 1-1 0-1 1 0 1-1 0 0 1-1 1 0 0-1 1 0 1-1 1 0 0-1 1 0 1-1 0 0 1-1 1 0 0-1 1 0c3-1 6-1 8 0 5 3 5 10 0 13l0 1-1 0 0 0-1 1-1 0 0 1-1 0-1 1-1 0 0 1-1 0-1 1 0 0-1 1 0 0-1 1-1 0 0 1z m53-25c-6 1-11-5-9-10 1-3 3-5 6-6l0 0 1 0 1 0 0 0 1 0 1-1 1 0 1 0 1 0 1 0 1 0 1 0 0-1 1 0 1 0 1 0 1 0 1 0 1 0 0 0c4-1 7 2 8 5 2 5-2 10-7 10l0 0 0 0-1 0-1 1-1 0-1 0 0 0-1 0-2 0-1 0 0 0-1 1-1 0-1 0 0 0-1 0-1 0-1 1z m58 0c-6-1-8-8-3-13 2-2 4-2 7-2l0 0 1 1 1 0 1 0 0 0 1 0 1 1 1 0 1 0 1 0 1 1 1 0 2 1 1 0 0 0 1 1 1 0 1 0c3 2 5 5 5 9-1 5-6 8-11 6l0 0-1-1-1 0-1 0-1-1-1 0 0 0-1 0-1-1-1 0 0 0-2-1-1 0 0 0-1 0-1 0-1-1z m52 27c-2-2-3-5-3-7 2-6 9-8 13-5l1 1 0 0 1 1 0 0 1 1 1 1 1 1 1 0 0 1 1 1 0 0 1 1 1 1 1 1 0 0 1 1 1 0 0 1c3 3 3 7 0 10-3 4-8 4-11 0l-1 0 0 0-1-1 0-1-1 0 0-1-1 0-1-1 0 0-1-1 0 0-1-1 0 0-1-1 0 0-1-1-1 0 0-1-1 0z m34 47c-2-5 2-10 7-11 4 0 6 2 8 5l0 1 0 1 1 0 0 1 0 1 1 1 0 1 0 1 0 0 1 1 0 1 0 1 1 1 0 0 0 2 1 1 0 1 0 1 0 0c2 6-4 11-10 9-2 0-4-2-5-5l0 0 0-1 0 0 0-1-1-1 0-1 0 0 0-1-1-2 0-1-1-1 0-1 0 0-1-1 0-1 0 0 0-1z m10 58c0-5 5-9 10-7 4 1 6 4 6 8l-1 1 0 0 0 1 0 1 0 1 0 1 0 1 0 1 0 1 0 1 0 1-1 0 0 1 0 1 0 2 0 1 0 1 0 0c-2 6-9 9-13 5-2-2-3-5-3-8l0 0 0-1 0-1 1-1 0-1 0-1 0 0 0-1 0-1 0-1 0-1 1-1 0-1 0-1 0-1 0 0z m-17 55c3-5 10-5 13 1 2 2 2 5 0 7l0 1 0 1-1 0-1 2 0 1-1 0 0 1-1 1 0 1-1 0 0 1-1 1 0 0-1 2 0 0-1 1-1 1 0 0c-3 5-10 4-13-1-1-3-1-6 1-8l0-1 0 0 1-1 0 0 1-1 0-1 1 0 0-1 1-1 0 0 0-1 1 0 0-1 1-1 0 0 0-1 1-1 0 0 1-1z m-40 43c4-3 11-1 12 5 0 3-1 6-4 8l0 0-1 1-1 0 0 1-1 0-1 0-1 1 0 0-1 1-1 0-1 1 0 0-1 0-1 1-1 0-1 1-1 0-1 1 0 0c-5 2-11-1-11-6-1-3 1-6 4-8l0 0 1 0 1-1 0 0 1-1 1 0 0 0 1-1 1 0 1-1 1 0 0-1 1 0 1 0 0-1 1 0 1-1 0 0z m89 15c9 0 18-3 24-10 7-6 10-15 10-24 0-10-3-18-10-25-6-6-15-10-24-10-10 0-18 4-24 10-7 7-11 15-11 25 0 9 4 18 11 24 6 7 14 10 24 10z m13-21c-3 4-8 6-13 6-5 0-10-2-13-6-4-3-6-8-6-13 0-5 2-10 6-13 3-4 8-6 13-6 5 0 10 2 13 6 4 3 6 8 6 13 0 5-2 10-6 13z m-240 42c8 0 15-3 20-8 5-6 9-13 9-21 0-7-4-15-9-20-5-5-12-8-20-8-8 0-15 3-20 8-5 5-9 13-9 20 0 8 4 15 9 21 5 5 12 8 20 8z m9-19c-2 2-5 3-9 3-4 0-7-1-9-3-3-3-4-6-4-10 0-3 1-6 4-9 2-2 5-4 9-4 4 0 7 2 9 4 3 3 4 6 4 9 0 4-1 7-4 10z m246 44c0-12-10-21-21-21-12 0-22 9-22 21 0 12 10 21 22 21 11 0 21-9 21-21z"/>
<glyph glyph-name="readchain" unicode="&#56;" d="M331 512l-295 0 0-115 295 0c37 0 66-30 66-66 0-36-29-65-66-65l-295 0 0-115 295 0c100 0 181 81 181 180 0 100-81 181-181 181m-132-117l-163 0 287-395 176 0z"/>
<glyph glyph-name="robot" unicode="&#57;" d="M205 415l87 0c4 0 8-2 11-5l0 0c3-2 4-6 4-10l0-59c0-3-1-6-3-8-2-1-4-3-7-3l-97 0c-3 0-5 2-7 3-2 2-3 5-3 8l0 59c0 4 2 8 4 10 3 3 7 5 11 5z m87-16l-86 0 0-53 86 0z m-98-72l110 0c3 0 7-1 9-4 3-2 4-5 4-9l0-119c0-3-1-7-4-9l0 0c-2-3-6-4-9-4l-110 0c-4 0-8 1-10 4l0 0c-2 2-4 6-4 9l0 119c0 4 2 7 4 9 2 3 6 4 10 4z m107-15l-105 0 0-114 105 0z m-102-114l46 0 0-109c0-4-2-7-4-10l0 0c-3-2-6-4-10-4l-26 0c-4 0-7 2-10 4l0 0c-2 3-4 6-4 10l0 109z m30-16l-22 0 0-91 22 0z m31 16l46 0 0-109c0-4-2-7-4-10-3-2-6-4-10-4l-26 0c-4 0-7 2-9 4-3 3-4 6-4 10l0 109z m30-16l-22 0 0-91 22 0z m27 130c-4 0-8-3-8-8 0-4 4-7 8-7l23 0 0-84c0-5 3-8 7-8 5 0 8 3 8 8l0 91c0 5-3 8-8 8l-30 0z m-135-15c5 0 8 3 8 7 0 5-3 8-8 8l-30 0c-4 0-8-3-8-8l0-91c0-5 4-8 8-8 4 0 8 3 8 8l0 84z m69 80c0-12-10-21-21-21-12 0-22 9-22 21 0 12 10 21 22 21 11 0 21-9 21-21z m38 0c0-12-10-21-21-21-12 0-22 9-22 21 0 12 10 21 22 21 11 0 21-9 21-21z m-60 65l0-35-16 0 0 35z m55 0l0-35-16 0 0 35z"/>
<glyph glyph-name="robot-2" unicode="&#33;" d="M203 424l93 0c4 0 8-1 10-4 3-3 5-7 5-11l0-61c0-4-2-8-5-11-2-2-6-4-10-4l-93 0c-4 0-8 2-11 4-2 3-4 7-4 11l0 61c0 4 2 8 4 11 3 3 7 4 11 4z m92-15l-91 0 0-60 91 0z m-46 41c8 0 15-3 20-7 5-5 8-11 8-18 0-2 0-4-1-7 0-2-1-4-2-6l-2-3-45 0-2 3c-1 2-2 4-3 6 0 3 0 5 0 7 0 7 3 13 8 18 5 4 12 7 19 7z m10-19c-3 2-6 3-10 3-3 0-6-1-9-3-2-1-3-4-3-6 0 0 0-1 0-1l25 0c0 0 0 1 0 1 0 2-1 5-3 6z m-82-100l145 0c3 0 6-1 9-3l0 0c2-3 3-6 3-9l0-137c0-4-1-7-3-9l0 0c-3-2-6-4-9-4l-145 0c-3 0-7 2-9 4l0 0c-2 2-3 5-3 9l0 137c0 3 1 6 3 9l0 0c2 2 6 3 9 3z m142-15l-139 0 0-131 139 0z m-107-241l-27 0 0 7c0 8 3 15 8 20 5 5 12 8 19 8 8 0 15-3 20-8 5-5 8-12 8-20l0-7z m-8 15l17 0c0 0 0 0 0 1-3 2-5 3-9 3-3 0-6-1-8-3 0-1 0-1 0-1z m16 81l0-72-15 0 0 72z m74 0l0-72-15 0 0 72z m-7-96l-28 0 0 7c0 8 3 15 8 20 5 5 12 8 20 8 7 0 14-3 19-8 5-5 8-12 8-20l0-7z m-9 15l17 0c0 0 0 0 0 1-2 2-5 3-8 3-4 0-7-1-9-3 0-1 0-1 0-1z m47 212l42 0 15 54 15-4-16-60-2-6-54 0z m69 63l-9 1c0 0 0-1 0-1 2-2 5-4 8-4l0 0c4 0 7 1 9 3 0 0 0 0 0 0l-8 1z m-18 17l19-2 20-2 8 0-1-8c-1-8-5-14-10-19-6-4-13-6-20-5l0 0c-8 0-14 4-19 10-4 5-6 12-6 20l1 7z m-202-88l-42 0-15-54-15 4 17 60 1 6 54 0z m-69-63l9 1c0 0 0 0 0 0-3 2-6 3-9 3-3 0-6-1-8-4 0 0 0 0 0 0z m20-15l-19 0-20-1-7 0-1 7c0 8 3 15 8 20 4 5 11 8 19 9 7 0 14-3 19-8 5-4 9-11 9-18l0-8z m124 168c0-12-9-22-21-22-12 0-21 10-21 22 0 12 9 21 21 21 12 0 21-9 21-21z m36-17c-10-7-23-6-31 3-7 9-6 23 3 30 9 8 23 6 30-3 8-9 7-22-2-30z"/>
<glyph glyph-name="rocket" unicode="&#34;" d="M250 277c-8 0-16 3-21 8-5 6-9 13-9 21 0 8 4 15 9 21l0 0c5 5 13 8 21 8 8 0 15-3 20-8l0 0c6-6 9-13 9-21 0-8-3-15-9-21-5-5-12-8-20-8z m-10 19c2-2 6-4 10-4 3 0 7 2 9 4 3 3 4 6 4 10 0 4-1 7-4 10l0 0c-2 2-6 4-9 4-4 0-8-2-10-4l0 0c-3-3-4-6-4-10 0-4 1-7 4-10z m19-172l-19 0 0 100 19 0z m110-33l-21 90-34 20-4 2 0 5c0 55 0 83 0 97 0 13 0 13 0 13l0 0c0 5-11 25-24 49-12 23-27 49-36 66-12-20-31-55-45-81-9-17-15-30-16-33l0-1c0 0 0 0 0-13 0-14 0-42 0-97l0-5-4-2-34-20-21-90 57 0 0 57 48 0 0-57 30 0 0 57 47 0 0-57z m-6 94l22-91c0 0 0-1 0-2 0-1 0-2 0-2 0-4-1-8-4-11l0 0c-2-2-6-4-10-4l0 0 0 0 0 0-60 0c-4 0-8 2-10 4-3 3-4 7-4 11l0 42-17 0 0-42c0-4-1-8-4-11-3-2-6-4-10-4l-33 0c-4 0-7 2-10 4-2 3-4 7-4 11l0 42-16 0 0-42c0-4-2-8-5-11-2-2-6-4-10-4l-60 0c-2 0-4 1-6 2-2 0-4 2-5 4l0 0c-1 1-2 2-2 4-1 1-1 3-1 4l0 1 0 0 0 0c0 0 0 1 0 1 0 1 0 1 0 2l0 0 22 92c1 2 2 4 3 5 1 2 2 3 4 4l0 0 31 18c0 52 0 79 0 93 0 11 0 14 0 15l0 0c0 5 7 20 17 39 14 28 35 64 46 83 1 3 3 4 5 6 3 1 5 2 8 2 2 0 5-1 7-2 2-2 4-3 5-6 9-16 25-43 38-68 13-24 24-47 25-54l0 0c0 0 0 0 0 0 0 0 0-1 0-1l0 0c0-1 0-4 0-14 0-14 1-41 1-93l30-18c2-1 3-2 4-4 2-1 2-3 3-5z m-212-4l0 0 0 0z m-22-91l0-1 0 0z m0-1l0 0 0 0c0 0 0 0 0 0l0 0z m241 0l0 0 0 0z m0 0c0 0 0 0 0 0 0 0 0 0 0 0l0 0z"/>
<glyph glyph-name="rocket-2" unicode="&#35;" d="M123 133l29 0c4 0 7-2 10-4l0 0 0 0c2-3 4-7 4-10l0-44-58 0 0 44c0 3 2 7 4 10l0 0 0 0c3 2 7 4 11 4z m27-16l-26 0 0-26 26 0z m197 16l29 0c4 0 7-2 10-4l0 0 0 0c2-3 4-7 4-10l0-44-58 0 0 44c0 3 2 7 5 10l0 0 0 0c2 2 6 4 10 4z m28-16l-27 0 0-26 27 0z m-287-26l324 0 0-16-324 0z m168 355c43-78 41-127 38-199 0-20-1-41-1-66l0-7-86 0 0 7c0 24-1 44-2 63-3 71-5 124 38 202l7 12z m23-199c2 66 4 112-29 178-34-67-32-116-29-181 0-17 1-35 1-55l55 0c0 21 1 40 2 58z m11-24l92-71-5-14-255 0-5 14 92 71 12 10 1-16c0-5 0-11 0-17 0-4 0-8 0-11l55 0c0 4 0 7 0 11 0 6 0 12 1 17l0 16z m64-69l-61 48 0-2c0-5 0-11 0-19l0-7-86 0 0 7c0 8 0 14 0 19l-1 2-61-48z m-12 175c26-46 25-76 23-118 0-12-1-24-1-39l0-8-20 0-5 2-29 23-3 2 0 4c-1 4-1 9-1 14-2 42-3 74 23 120l7 13z m7-118c2 36 3 62-13 97-17-35-16-63-14-99 0-3 0-7 0-10l24-19 2 0c1 11 1 21 1 31z m-188 94c-17-35-15-61-14-97 0-10 1-20 1-31l1 0 26 20c0 3 0 6 0 9 1 36 3 63-14 99z m-30-98c-1 43-2 73 23 119l7 12 7-12c26-46 24-78 22-121 0-4 0-9 0-13l0-3-3-3-31-23-5-2-19 0 0 8c0 15 0 27-1 38z m140 133c0-12-10-22-21-22-12 0-22 10-22 22 0 12 10 21 22 21 11 0 21-9 21-21z m-42-208l0-35-15 0 0 35z m57 0l0-35-16 0 0 35z m-29 0l0-25-15 0 0 25z"/>
<glyph glyph-name="rocket-launched" unicode="&#36;" d="M255 432c36-65 34-107 32-167-1-16-2-34-2-55l0-8-74 0 0 8c0 20-1 36-2 52-2 60-4 105 32 170l7 12z m16-167c2 54 4 92-23 146-27-54-25-95-23-148 0-14 1-29 1-45l44 0c0 17 0 33 1 47z m12-19l76-59-4-14-214 0-5 14 77 59 12 9 1-15c0-4 0-9 0-15 0-2 0-5 0-7l44 0c0 2 0 5 0 8 0 5 0 10 0 14l1 15z m49-58l-47 36c0-3 0-8 0-14l0-8-74 0 0 8c0 6 0 11 0 14l-47-36z m-5 147c21-39 20-65 19-101-1-9-1-19-1-32l0-8-18 0-5 2-25 19-3 2 0 4c0 4 0 8 0 12-2 36-3 62 19 102l7 12z m3-100c1 29 2 50-10 78-13-28-12-51-11-79 0-3 1-6 1-9l19-15 0 0c1 9 1 17 1 25z m-156 76c-13-29-12-50-11-79 1-7 1-15 1-24l20 15c0 3 0 5 0 8 1 29 2 51-10 80z m-26-79c-2 36-3 61 19 100l7 12 6-12c22-39 21-66 20-102-1-4-1-7-1-11l0-4-3-2-26-20-4-1-18 0 0 7c0 13 0 23 0 33z m121 111c0-12-9-22-21-22-12 0-21 10-21 22 0 11 9 21 21 21 12 0 21-10 21-21z m-37-174l0-30-16 0 0 30z m47 0l0-30-15 0 0 30z m-23 0l0-21-16 0 0 21z m-122 1c-3 2-5 4-8 5-4 2-9 3-14 3-9 0-18-4-24-11-6-7-10-16-10-26 0-10 4-19 10-26 6-6 15-10 24-10 92 0 183 0 275 0 9 0 18 4 24 10 6 7 10 16 10 26 0 10-4 19-10 26-6 7-15 11-24 11-5 0-9-1-13-3-3-1-6-3-9-5l6 20c5 2 10 3 16 3 14 0 26-6 35-15 9-10 15-23 15-37 0-14-6-27-15-36-9-10-21-16-35-16-92 0-183 0-275 0-13 0-26 6-35 16-9 9-15 22-15 36 0 14 6 27 15 37 9 9 22 15 35 15 6 0 11-1 16-3z"/>
<glyph glyph-name="satellite" unicode="&#37;" d="M289 346l44-42c2-2 4-6 4-10 0-3-1-7-4-10l-100-106c-2-3-6-5-10-5-3 0-7 1-10 4l-44 41c-3 3-4 6-4 10 0 4 1 7 4 10l99 107c3 3 7 4 10 4 4 0 8-1 11-3z m32-52l-42 39-98-104 42-40z m-163-74l56-52 3-4-1-4-9-33-4-13-9 9-77 72-9 9 11 4 31 13 4 2z m41-61l-48 46-15-6 59-56z m-33 1l-25-28-12 11 26 27z m156 86l122-113 5-6-5-5-41-44-6-6-5 5-122 114-5 5 5 6 41 44 6 6 5-6z m105-119l-110 103-30-33 110-103z m-78 83l-41-44-11 11 41 44z m34-32l-41-44-11 11 41 44z m35-32l-42-44-11 11 41 44z m-113 76l118-111-11-12-118 111z m-197 225l121-113 6-5-6-6-41-44-5-6-6 5-121 114-6 5 5 6 42 44 5 6z m105-119l-110 103-31-33 110-103z m-79 84l-41-44-11 10 41 44z m35-32l-42-44-11 10 41 44z m34-32l-42-44-11 10 41 44z m-113 75l118-111-10-11-119 111z"/>
<glyph glyph-name="satellite-2" unicode="&#38;" d="M277 338l118-110 6-5-6-6c-26-28-60-46-95-52-36-6-74-1-108 17-41 22-70 59-82 100-13 41-10 88 12 129 3 7 7 13 11 19 5 6 9 12 14 17l5 6 6-6z m101-116l-112 104-113 105c-2-4-5-7-7-10-4-6-7-11-11-17-19-38-22-80-11-117 12-38 38-71 75-91 31-16 65-21 98-15 30 5 59 19 81 41z m-126-66l0-81-64 0 0 101c0 0 0 0 1-1 4-2 9-4 15-7l0-77 32 0 0 67c5-1 11-1 16-2z m-115-65l165 0 0-16-165 0z m133 242l60 58 11-12-60-57z m77 97c9 0 17-3 23-9 6-6 9-14 9-23 0-9-3-17-9-23-6-5-14-9-23-9-8 0-16 4-22 9-6 6-10 14-10 23 0 9 4 17 10 23 6 6 14 9 22 9z m12-20c-3 3-7 5-12 5-4 0-8-2-11-5-3-3-5-7-5-12 0-4 2-9 5-11 3-3 7-5 11-5 5 0 9 2 12 5 3 2 5 7 5 11 0 5-2 9-5 12z"/>
<glyph glyph-name="saturn" unicode="&#39;" d="M246 379c35 0 67-14 90-37 23-23 37-55 37-90 0-6 0-12-1-17-1-1-2-1-3-2-5-3-10-6-15-8 2 8 4 18 4 27 0 31-13 59-33 79-20 20-48 33-79 33-31 0-59-13-79-33-21-20-33-48-33-79 0-28 10-53 26-72-2 0-5 0-8 0-3 0-8 0-12 1-14 20-22 45-22 71 0 35 15 67 38 90 23 23 54 37 90 37z m112-187c-6-11-13-21-22-30-23-23-55-37-90-37-28 0-54 8-75 23 10 1 19 1 29 2 14-6 29-10 46-10 31 0 59 13 79 33 2 2 5 5 7 8 9 3 18 7 26 11z m0 136c16-2 30-4 42-8 15-6 26-14 32-24 2-2 3-5 4-8 3-12-1-26-11-39-10-12-25-25-44-36-24-15-56-28-93-39-49-14-98-19-137-17-41 2-72 12-84 32 0 0 0 0 0 0l0 0c-8 14-5 28 5 43 8 12 22 24 39 36 0-5-1-11-1-16 0-1 0-2 0-4-11-8-20-16-25-24-7-10-9-19-5-27l0 0c1-1 0 0 1 0 8-15 35-23 70-25 38-2 85 4 133 17 35 10 66 23 89 37 18 11 31 22 39 32 8 10 11 18 9 26-1 1-1 3-2 4-4 7-13 13-25 17-7 3-16 5-27 6-2 6-6 11-9 17z m4 72c7 0 14-3 19-8 5-5 8-12 8-19 0-8-3-15-8-20-5-5-12-8-19-8-8 0-15 3-20 8-5 5-8 12-8 20 0 7 3 14 8 19 5 5 12 8 20 8z m8-19c-2 2-5 4-8 4-4 0-7-2-9-4-2-2-3-5-3-8 0-4 1-7 3-9 2-2 5-3 9-3 3 0 6 1 8 3 2 2 4 5 4 9 0 3-2 6-4 8z m-269-44c6 0 12-3 16-7 4-4 7-10 7-16 0-6-3-12-7-16-4-4-10-7-16-7-6 0-12 3-16 7-4 4-7 10-7 16 0 6 3 12 7 16 4 4 10 7 16 7z m5-18c-1 1-3 2-5 2-2 0-4-1-5-2-2-1-2-3-2-5 0-2 0-4 2-5 1-2 3-2 5-2 2 0 4 0 5 2 2 1 2 3 2 5 0 2 0 4-2 5z"/>
<glyph glyph-name="sharechain" unicode="&#40;" d="M126 512l-131-183 131-183 244 0-38 36-188 0-104 147 104 147 217 0 97-136 44 0-123 172z m11-146l38-36 188 0 105-147-105-147-217 0-97 136-44 0 123-172 253 0 131 183-131 183z"/>
<glyph glyph-name="shopchain" unicode="&#41;" d="M383 491l-193 0c-87 0-138-97-90-169l53 80 0 0 225 0c35 0 55-38 36-67l-108-163 53-80 131 197c57 86-4 202-107 202m-24-398l-225 0c-35 0-55 39-36 68l108 163-53 79-131-197c-57-86 4-201 107-201l193 0c87 0 138 96 90 168l-53-80z m-152 232l0 78-53 0z m98-151l0-79 53 0z"/>
<glyph glyph-name="solar-system" unicode="&#42;" d="M226 307c13 8 28 12 42 10 14-1 27-8 36-19 1-1 2-2 3-3 7-10 8-23 6-35-3-11-10-22-20-31-2-1-3-2-5-3-13-9-28-12-42-11-14 2-27 8-36 19-1 1-2 2-3 3-7 11-8 23-6 35 3 12 10 23 20 31 2 1 3 3 5 4z m40-5c-10 1-22-2-32-8-1-1-2-2-3-3-8-6-13-14-15-22-1-8 0-16 4-23 1-1 1-1 2-2 6-8 15-12 26-13 10-1 22 1 32 8 1 1 2 2 3 2 8 7 13 15 15 23 1 8 0 16-4 23-1 0-1 1-2 2-6 7-15 12-26 13z m-63 33c23 15 49 21 73 18 25-2 47-13 62-32 2-2 3-3 4-5 12-18 15-39 11-59-4-20-16-39-34-54-3-2-6-3-8-5-23-15-49-21-73-19-25 3-47 14-62 32-2 2-3 4-4 6-4 5-7 10-9 16 6-2 12-2 18-1 1-2 2-4 4-7 1-1 2-2 3-4 12-15 31-24 51-26 21-2 44 3 63 16 2 1 5 3 7 5 15 12 25 28 29 44 3 16 1 33-9 47-1 2-2 3-3 4-12 16-31 25-51 27-21 2-44-3-63-16-2-2-5-3-7-5-15-12-25-28-29-44-4 2-10 3-15 2l0 1c4 19 16 39 34 53 3 2 6 4 8 6z m-18 31c21 12 43 20 65 23 20 2 40 1 58-4-2-2-4-4-5-6-2-3-3-5-4-8-15 4-31 4-47 2-19-2-38-8-55-18-3 4-7 8-12 11z m-22-39c-14-15-23-33-27-51-5-25-1-50 13-71 1-2 3-4 4-7 3-3 7-7 10-10l1-1c-1 0-1 0-1-1-3-3-6-7-8-12-1 1-2 2-2 2-4 4-8 8-12 13-2 2-4 5-5 7-17 25-21 55-15 83 4 20 14 40 29 58 4-5 8-8 13-10z m59-167c15-2 30-2 45 0 20 3 40 11 58 22 3 2 5 4 8 7 3-4 7-7 12-9 0-1 0-1 1-1-1-1-1-1-2-1-3-3-7-6-11-9-20-13-42-21-64-24-18-3-37-3-54 0 3 5 6 10 7 15z m139 58c9 13 14 26 17 39 5 24 2 49-13 71-1 2-3 4-4 6-2 2-3 3-4 5 4 2 8 6 11 10 2-2 3-3 5-5 2-3 4-5 5-8 17-25 21-54 15-83-3-15-10-30-19-44-3 4-7 7-12 9 0 0 0 0-1 0z m-203 173c42 28 90 39 135 34 45-4 87-24 114-58 3-4 5-7 7-10 22-33 27-70 19-107-7-36-29-71-63-98-5-4-9-7-14-11-42-27-90-38-135-34-45 5-87 25-114 59-3 3-5 7-7 10-22 32-27 70-19 107 8 36 29 71 63 98 5 3 9 7 14 10z m133 19c-41 4-86-6-124-32-5-3-9-6-13-9-31-25-51-57-58-90-7-32-2-66 17-94 2-3 4-6 6-9 25-31 63-49 104-53 41-4 86 6 124 31 5 3 9 7 13 10 31 25 51 56 58 89 7 33 2 67-17 95-2 3-4 6-6 9-25 31-63 49-104 53z m36-21c8 3 16 4 23 2 8-2 14-7 17-14 3-6 1-14-3-21-4-6-10-11-18-14-8-3-16-4-23-2-7 2-13 6-16 13-3 7-2 15 3 22 3 6 10 11 17 14z m19-13c-3 1-8 0-13-2l0 1 0-1c-5-1-8-4-10-8-2-2-3-5-2-7l0 0c1-2 3-3 6-4 4-1 9-1 13 1l0 0c5 2 9 5 11 9 2 2 2 5 1 7-1 2-3 3-6 4z m-177-195c5 7 12 11 19 12 8 2 15 1 21-4l0 0c6-5 8-12 7-20 0-7-4-14-9-21-6-6-12-10-19-12-8-2-16-1-21 4-6 5-8 12-8 20 1 7 4 15 10 21z m23-3c-4-1-8-3-12-7-3-4-5-8-5-12 0-3 0-6 2-7 2-1 4-2 7-1 4 1 8 3 11 7 3 4 5 9 6 12 0 3-1 6-2 7l0 0c-2 2-5 2-7 1z m0 160c5 11 0 24-11 29-10 4-23 0-28-11-5-11 0-23 10-28 11-5 24 0 29 10z m181-148c5 11 0 23-11 28-10 5-23 0-28-10-5-11 0-24 10-29 11-4 24 0 29 11z m-184 54c5 11 0 24-11 29-10 5-23 0-28-11-5-10 0-23 10-28 11-5 24 0 29 10z"/>
<glyph glyph-name="space-gun" unicode="&#43;" d="M248 353c-8 0-16 0-24-1-8-1-16-2-24-4l-3 0-85 23c-1 1-2 1-3 0-1 0-2-1-3-2-1-1-1-2-1-3 0-1 0-2 1-3l18-28 5-8-9-3c-6-2-11-5-16-7-6-2-11-5-16-7-2-1-4-2-5-4-1-2-1-4-1-6 0-2 0-4 1-6 1-2 3-3 5-4 3-1 6-3 10-5 3-1 7-2 11-4l3-1 1-3c3-8 4-16 3-23-1-8-4-16-9-22-3-5-8-11-15-19l0 0c-4-6-8-12-13-17-1-2-2-4-3-6-1-2-1-5-1-7 0 0 0-1 0-2 0 0 0-1 0-1 1-3 2-6 3-8 2-2 4-4 6-6 5-3 11-6 18-9 6-3 13-6 20-8 2 0 3-1 4-1 1 0 2 0 3 0 2 0 4 0 5 1 2 0 4 1 6 2 2 2 4 4 6 6 2 3 3 5 3 8 1 11 3 19 4 27 1 8 2 16 3 21 0 5 1 8 3 12 2 3 5 6 8 9l10 7 3-11c1-5 3-10 7-13 1-1 2-2 3-3 0 1-1 2-1 4-2 4-3 9-3 14l0 9 9-1c1 0 2 0 3 0l2-1c15-1 29-3 42-4 13-2 25-2 33-1 3 0 5 1 8 3 3 2 6 6 9 10l2 3 3 1c5 0 55 15 90 31 17 8 30 15 30 18 0 6-20 15-46 24-47 16-111 29-123 29z m-25 14c8 1 17 2 25 2 13 0 80-13 128-30 32-11 56-24 56-39 0-11-16-22-38-32-32-15-78-28-91-32-4-5-7-8-11-11-5-4-10-6-16-7-9-1-21 0-35 1-12 1-25 3-38 4 0 0 0 0 0 0 2-5 4-9 6-12l0 0c0-1 1-2 1-3l0 0c0-1 0-2 0-3 0-2 0-3-1-5 0-1-1-3-3-4l0 0c-1-1-2-2-3-2-2-1-3-1-4-1-1 0-2 0-3 0 0 0-1 1-1 1-8 2-14 6-20 12-1 2-3 4-4 6l0-1c-1-7-2-14-3-21-1-9-2-18-4-27 0-5-2-10-5-14-3-5-7-8-11-11-3-2-6-3-9-4-4-1-7-2-10-2-2 0-4 0-6 1-2 0-4 0-5 1-8 3-16 6-23 9-7 3-13 6-19 10-4 3-8 6-11 10-2 4-4 9-5 14 0 1 0 2-1 3 0 1 0 2 0 3 0 4 1 8 2 12 2 4 3 7 6 11 4 4 8 10 13 16l0 0c3 4 8 10 15 19 3 5 5 10 5 15 1 4 1 8-1 12-2 1-5 2-7 3-4 2-7 3-10 5-5 2-9 5-12 10-3 4-4 9-4 14 0 5 1 10 4 15 3 4 7 7 12 9 5 3 10 5 16 8 2 1 5 2 8 3l-13 20c-3 3-4 8-4 12 1 4 2 8 4 12 3 3 7 6 10 7 4 1 9 2 13 0l83-22c8 1 16 2 24 3z m-9-58c-5 0-8-3-8-8 0-4 3-7 8-7l160 0c5 0 8 3 8 7 0 5-3 8-8 8z m-48-4c0-12-10-21-22-21-11 0-21 9-21 21 0 12 10 22 21 22 12 0 22-10 22-22z m35 0c0-12-10-21-22-21-11 0-21 9-21 21 0 12 10 22 21 22 12 0 22-10 22-22z"/>
<glyph glyph-name="space-rocket" unicode="&#44;" d="M212 353l87 0 0-167c0-3-1-7-4-9-2-3-6-4-10-4l-67 0c-4 0-8 1-10 4-3 2-4 6-4 9l0 167z m72-15l-65 0 0-150 65 0z m-65 15l65 0c-1 41-10 68-22 79-3 4-7 5-10 5-4 0-8-1-11-5-12-11-21-38-22-79z m73-15l-88 0 0 8c0 50 11 82 26 97 6 7 14 10 22 10 7 0 15-3 21-10 15-15 26-47 26-97l0-8z m-9-150l37 0c-1 24-5 43-10 55-6 12-12 18-18 18l0 0 0 0 0 15 0 0 0 0c12 0 24-8 32-26 7-16 12-39 12-70l0 0 0-7-53 0z m-67-15l-52 0 0 7 0 0c0 31 4 54 11 70 8 18 20 26 32 26l0 0 0 0 0-15 0 0 0 0c-6 0-12-6-17-18-6-12-10-31-11-55l37 0z m27-7l0-87-16 0 0 87z m29 0l0-87-16 0 0 87z m-22 152c6 0 11-3 15-7 4-4 7-9 7-15 0-6-3-12-7-16-4-4-9-7-15-7-6 0-12 3-16 7-4 4-7 10-7 16 0 6 3 11 7 15 4 4 10 7 16 7z m4-18c-1 2-3 2-4 2-2 0-4 0-5-2-1-1-2-3-2-4 0-2 1-4 2-5 1-1 3-2 5-2 1 0 3 1 4 2 2 1 2 3 2 5 0 1 0 3-2 4z"/>
<glyph glyph-name="space-shuttle" unicode="&#45;" d="M137 217l230 0c1 0 2 0 4-1 1 0 3-1 4-2 1-2 2-4 2-6 0-1 0-2-1-3l-13-32c0-1-1-3-2-4-2-2-4-4-7-4l-204 0c-3 0-5 2-7 4-1 1-2 3-3 4l-13 32c0 1 0 2 0 3 0 2 1 4 2 6 1 1 2 2 4 2 1 1 3 1 4 1z m229-10l-228 0 12-30c0 0 0-1 1-1l202 0c0 0 0 1 1 1z m-114 15l-94 0 0 6c0 26 11 49 28 66 17 17 40 27 66 27 26 0 49-10 66-27 17-17 27-40 27-66l0-6z m-83 11l166 0c-1 21-10 40-24 54-15 15-36 24-59 24-23 0-44-9-59-24-14-14-23-33-24-54z m88 99l0-17-10 0 0 17z m-5 23c4 0 7-1 10-4 3-3 4-6 4-10 0-4-1-8-4-10-3-3-6-5-10-5-4 0-8 2-10 5-3 2-5 6-5 10 0 4 2 7 5 10 2 3 6 4 10 4z m3-11c-1 0-2 1-3 1-1 0-2-1-3-1-1-1-1-2-1-3 0-1 0-2 1-3 1-1 2-1 3-1 1 0 2 0 3 1 0 1 1 2 1 3 0 1-1 2-1 3z m-39-93c0-12-10-21-21-21-12 0-22 9-22 21 0 12 10 21 22 21 11 0 21-9 21-21z m38 0c0-12-10-21-21-21-12 0-22 9-22 21 0 12 10 21 22 21 11 0 21-9 21-21z m38 0c0-12-9-21-21-21-12 0-21 9-21 21 0 12 9 21 21 21 12 0 21-9 21-21z m38 0c0-12-9-21-21-21-12 0-21 9-21 21 0 12 9 21 21 21 12 0 21-9 21-21z m-138-58c0-12-9-22-21-22-12 0-21 10-21 22 0 11 9 21 21 21 12 0 21-10 21-21z m33 0c0-12-9-22-21-22-12 0-22 10-22 22 0 11 10 21 22 21 12 0 21-10 21-21z m33 0c0-12-10-22-22-22-11 0-21 10-21 22 0 11 10 21 21 21 12 0 22-10 22-21z m32 0c0-12-9-22-21-22-12 0-21 10-21 22 0 11 9 21 21 21 12 0 21-10 21-21z m33 0c0-12-10-22-21-22-12 0-22 10-22 22 0 11 10 21 22 21 11 0 21-10 21-21z m33 0c0-12-10-22-22-22-12 0-21 10-21 22 0 11 9 21 21 21 12 0 22-10 22-21z"/>
<glyph glyph-name="space-shuttle-2" unicode="&#46;" d="M66 247l344 0c4 0 8-2 11-5l0 0c3-2 4-6 4-10l0-9c0-4-1-8-4-11l0 0c-3-3-7-4-11-4l-344 0c-4 0-8 1-11 4l0 0 0 0c-3 3-4 7-4 11l0 9c0 4 1 8 4 10l0 0 0 0c3 3 7 5 11 5z m344-16l-344 0 0-8 344 0z m-301-15l34 0-3-11-21-70-2-5-39 0 3 10 21 70 1 6z m13-16l-7 0-16-55 7 0z m-60-55l78 0 0-39-85 0 0 39z m63-15l-55 0 0-8 55 0z m244 70l-7 0 16-55 7 0z m-18 16l29 0 2-6 21-70 3-10-40 0-1 5-21 70-3 11z m63-86l-55 0 0-8 55 0z m-63 15l78 0 0-39-86 0 0 39z m-109 55l-8 0 0-55 8 0z m-16 16l31 0 0-8 1-70 0-8-39 0 0 8-1 70 0 8z m39-86l-54 0 0-8 54 0z m-62 15l78 0 0-39-86 0 0 39z m35 110l-140 0 0 7c0 39 15 74 41 100 25 25 60 41 99 41 39 0 74-16 99-41 26-26 41-61 41-100l0-7z m-125 15l250 0c-2 32-16 60-37 81-22 22-54 36-88 36-35 0-66-14-88-36-21-21-35-49-37-81z m133 148l0-24-16 0 0 24z m-8 36c6 0 11-3 15-7 4-4 7-9 7-15 0-6-3-11-7-15-4-4-9-6-15-6-6 0-11 2-15 6-4 4-7 9-7 15 0 6 3 11 7 15 4 4 9 7 15 7z m4-18c-1 1-2 2-4 2-2 0-3-1-4-2-1-1-2-2-2-4 0-2 1-3 2-4 1-1 2-2 4-2 2 0 3 1 4 2 1 1 2 2 2 4 0 2-1 3-2 4z m-69-139c0-11-9-21-21-21-12 0-21 10-21 21 0 12 9 22 21 22 12 0 21-10 21-22z m58 0c0-11-10-21-22-21-11 0-21 10-21 21 0 12 10 22 21 22 12 0 22-10 22-22z m57 0c0-11-10-21-21-21-12 0-22 10-22 21 0 12 10 22 22 22 11 0 21-10 21-22z m57 0c0-11-9-21-21-21-12 0-22 10-22 21 0 12 10 22 22 22 12 0 21-10 21-22z"/>
<glyph glyph-name="space-shuttle-3" unicode="&#47;" d="M250 305l-98 0 0 7c0 27 11 52 29 69 17 18 42 29 69 29 27 0 51-11 69-29 17-17 28-42 28-69l0-7z m-82 15l163 0c-2 20-10 37-23 50-15 15-36 24-58 24-23 0-43-9-58-24-13-13-22-30-24-50z m170 20c29-3 54-7 71-12 20-5 32-13 32-23 0-13-23-24-60-30-34-6-80-9-131-9-51 0-98 3-131 9-37 6-60 17-60 30 0 10 11 18 31 23 17 5 42 9 71 12l11 1-2-10c-1-3-1-6-2-9 0-1 0-1 0-2l163 0c0 1 0 1 0 2 0 3-1 6-1 9l-3 10z m67-27c-14 4-34 8-58 11l0-1c0-3 0-7 0-11l0-7-195 0 0 7c0 4 0 8 1 11l0 1c-24-3-44-7-59-11-13-3-20-6-20-8 0-4 18-10 47-15 33-5 78-9 129-9 50 0 95 4 128 9 29 5 47 11 47 15 0 2-7 5-20 8z m-183 31c0-12-10-22-21-22-12 0-22 10-22 22 0 11 10 21 22 21 11 0 21-10 21-21z m158-95c0-20-35-32-80-36-16-2-33-3-50-3-18 0-35 1-51 3-45 4-79 16-79 36l15 0c0-10 29-17 65-21 16-1 33-2 50-2 17 0 34 1 49 2 37 4 65 11 65 21z m-23-57c0-17-29-27-66-31-13-1-27-2-41-2-14 0-28 1-42 2-37 4-65 14-65 31l15 0c0-7 23-12 52-15 12-2 26-2 40-2 13 0 27 0 40 2 28 3 51 8 51 15z m-55-58c0-10-15-16-33-18-6-1-13-1-19-1-7 0-13 0-19 1-19 2-34 8-34 18l16 0c0-1 8-2 19-3 6 0 12-1 18-1 6 0 12 1 17 1 11 1 20 2 20 3z"/>
<glyph glyph-name="space-vehicle" unicode="&#58;" d="M430 209l-43-32-9-6-3 10c-1 3-3 6-6 8-2 2-5 3-9 3-3 0-7-1-9-3-3-2-5-5-6-8l-2-5-32 0-2 5c-1 3-3 6-5 8-3 2-6 3-10 3-3 0-6-1-9-3-2-2-4-5-5-8l-2-5-71 0-1 5c-1 3-3 6-6 8-3 2-6 3-9 3-4 0-7-1-10-3-2-2-4-5-5-8l-2-5-32 0-2 5c-1 3-3 6-5 8-3 2-6 3-10 3-3 0-6-1-9-3-2-1-4-4-5-7l-4-11-9 8-33 30-5 5 4 5 44 63 2 4 199 0 4-1 116-63 11-6z m-45-14l26 19-104 56-189 0-37-54 21-19c1 2 3 4 6 5 5 4 11 6 17 6 7 0 14-3 19-6 4-3 7-7 9-11l10 0c2 4 6 8 9 11 5 3 12 6 19 6 7 0 13-3 18-6 4-3 7-7 9-11l49 0c2 4 5 8 9 11 5 3 12 6 18 6 7 0 14-3 19-6 4-3 7-7 9-11l10 0c3 4 6 8 9 11 6 3 12 6 19 6 7 0 13-3 19-6 2-2 4-4 6-7z m-260 13c9 0 17-4 22-9 6-6 9-14 9-22 0-9-3-17-9-23-5-5-13-9-22-9-8 0-16 4-22 9-5 6-9 14-9 23 0 8 4 16 9 22 6 5 14 9 22 9z m11-20c-3 2-6 4-11 4-4 0-8-2-11-4-3-3-4-7-4-11 0-5 1-9 4-12 3-2 7-4 11-4 5 0 8 2 11 4 3 3 5 7 5 12 0 4-2 8-5 11z m55 20c8 0 16-4 22-9 5-6 9-14 9-22 0-9-4-17-9-23-6-5-14-9-22-9-9 0-17 4-22 9-6 6-9 14-9 23 0 8 3 16 9 22 5 5 13 9 22 9z m11-20c-3 2-7 4-11 4-5 0-8-2-11-4-3-3-5-7-5-11 0-5 2-9 5-12 3-2 6-4 11-4 4 0 8 2 11 4 3 3 4 7 4 12 0 4-1 8-4 11z m92 20c9 0 17-4 23-9 5-6 9-14 9-22 0-9-4-17-9-23-6-5-14-9-23-9-8 0-16 4-22 9-5 6-9 14-9 23 0 8 4 16 9 22 6 5 14 9 22 9z m12-20c-3 2-7 4-12 4-4 0-8-2-11-4-2-3-4-7-4-11 0-5 2-9 4-12 3-2 7-4 11-4 5 0 9 2 12 4 2 3 4 7 4 12 0 4-2 8-4 11z m54 20c9 0 16-4 22-9 6-6 9-14 9-22 0-9-3-17-9-23-6-5-13-9-22-9-9 0-16 4-22 9-6 6-9 14-9 23 0 8 3 16 9 22 6 5 13 9 22 9z m11-20c-3 2-7 4-11 4-4 0-8-2-11-4-3-3-5-7-5-11 0-5 2-9 5-12 3-2 7-4 11-4 4 0 8 2 11 4 3 3 5 7 5 12 0 4-2 8-5 11z m-254 59l55 0 0-22-55 0z m117 0l32 0 0-22-32 0z m55 0l31 0 0-22-31 0z m111 53l39-36 3-3-3-4c-9-9-21-15-33-18-12-2-25 0-37 6-14 8-24 20-28 34-4 15-3 30 4 45 1 2 3 4 4 6 2 2 3 4 5 6l3 3 4-3z m28-40l-35 33-35 33c0-1-1-1-1-2-1-1-2-3-3-5-6-12-7-25-4-37 4-11 12-22 24-28 9-5 20-7 30-5 9 1 17 5 24 11z m-34 38l20 19 7-7-20-19z m49 20c0-12-10-21-22-21-11 0-21 9-21 21 0 12 10 22 21 22 12 0 22-10 22-22z m-232 50c24 0 47-11 63-27 13-12 22-29 25-47l-16 0c-3 14-10 26-20 36-13 14-32 22-52 22-21 0-39-8-53-22-10-10-17-22-20-36l-16 0c4 18 13 35 25 47 17 16 39 27 64 27z m7-8l0-66-15 0 0 66z"/>
<glyph glyph-name="star" unicode="&#59;" d="M257 428l41-116 123-3 22-1-17-13-98-75 35-119 6-21-18 13-101 69-102-69-18-13 6 21 35 119-98 75-17 13 22 1 123 3 41 116 8 21z m28-126l-35 100-36-100-2-5-5 0-107-3 85-65 4-4-1-5-31-102 88 60 5 3 4-3 88-60-30 102-2 5 5 4 84 65-106 2-6 1z m26-37l-25 0-16 1-5 0-2 5-7 20-6 18-14-38-1-5-6 0-40-1 19-15 13-10 4-3-1-5-12-39 33 23 5 3 4-3 18-12 15-11-11 39-2 5 5 3z m-24 16l46-1 22-1-18-13-45-35 16-54 7-21-19 12-33 23-13 9-47-32-18-12 6 21 16 54-8 7-37 28-17 13 22 1 56 1 19 54 8 21 7-21 14-39 5-15z"/>
<glyph glyph-name="star-falling" unicode="&#60;" d="M114 209l31-25 35 15 17 6-6-16-14-38 24-29 12-13-18 0-40 2-20-32-9-15-5 17-11 38-37 9-17 5 15 9 33 22-3 38-1 18z m25-40l-21 17 2-25 0-4-4-3-22-15 24-6 5-1 1-4 7-26 13 21 3 4 4 0 27-1-16 19-3 3 2 4 9 26-23-10-4-2z m291 247l-210-212-11 10 178 233 5 7 7-7 25-25 0 0z m-132-111l110 111-14 14z"/>
<glyph glyph-name="star-orbitting-earth" unicode="&#61;" d="M248 413c34 8 69 5 100-9 30-14 56-38 71-70 18-37 20-78 8-114-13-36-39-67-76-85l-8 12c22 22 37 50 42 80 5 29 2 60-12 89-12 24-30 44-51 57-21 15-46 23-72 24z m93-24c-11 6-24 10-36 11 9-3 18-8 26-14 23-15 42-36 55-63 16-32 20-66 14-99-2-15-7-30-14-44 12 14 20 29 26 45 11 32 10 69-7 102-14 29-37 50-64 62z m-169-23c39 11 79 5 111-14 33-18 58-49 69-88 10-39 4-79-14-111-19-32-50-58-89-68-39-11-78-5-111 14-32 18-58 49-68 88-11 39-5 79 14 111 19 32 50 58 88 68z m104-27c-29 16-65 22-99 12-35-9-63-32-79-61-17-29-23-64-13-99 9-35 32-62 61-79 29-16 64-22 99-12 35 9 62 32 79 61 17 29 22 64 13 99-10 35-32 62-61 79z m-201-170c5 15 13 17 23 14 6-2 11-6 16-10 11-7 24-16 38-12 33 9 56 2 68-11 7-7 11-15 12-24 1-8-1-17-6-24-7-13-22-22-44-20l2 16c14-2 24 4 29 12 3 4 4 9 3 15 0 5-3 10-7 14-9 9-26 14-53 7-21-6-37 5-51 15-4 3-9 6-12 7-1 0-2 0-4-5z m277 93c4-15 2-22-5-24-7-2-14 3-23 11-16 12-39 30-60 24-38-10-63-3-77 10-8 9-13 20-13 31 0 11 4 22 11 32 12 16 34 27 64 20l-3-15c-23 5-40-3-49-15-5-6-7-14-7-22 0-7 2-14 8-20 10-10 30-15 61-6 29 8 56-13 74-27 2-1 3-2 4-3z m-9-9c1 0 0 0-2 1 1-1 1-1 2-1z m-216 89c15-2 19-9 17-19 0-5-3-10-5-15-4-10-10-22-4-33 12-25 10-43 2-55-5-7-12-12-19-14-8-2-16-2-24 1-14 4-26 16-28 37l16 1c1-13 8-21 17-24 5-1 10-1 15 0 4 1 8 4 10 8 6 7 6 20-3 39-9 17-2 33 4 46 2 4 3 8 4 11 0 0-1 1-4 1z m68 108l8-30 31-9-30-9-9-30-8 29-31 10 30 8z"/>
<glyph glyph-name="stars" unicode="&#62;" d="M176 204c28 45 65 80 106 103 43 24 92 37 145 37l0-15c-50-1-96-13-137-35-40-23-74-55-101-98z m-18 31l18-49 53-2 21-1-17-13-41-32 14-51 6-21-18 12-43 30-44-30-18-12 6 21 15 51-42 32-17 13 21 1 53 2 18 49 8 21z m5-59l-12 34-13-35-2-5-5 0-37-1 29-22 5-4-2-5-10-35 30 21 5 3 4-3 30-21-10 35-1 6 4 3 29 22-37 1-5 1z m152-9l9-25 26-1 22 0-17-14-21-16 7-26 6-21-18 12-22 16-22-16-18-12 6 21 8 26-22 16-17 14 22 0 27 1 9 25 7 21z m-4-35l-4 10-3-10-2-5-6 0-10-1 8-6 4-3-1-5-3-11 9 6 4 3 5-3 8-6-3 11-1 5 4 3 8 6-10 1-5 0z m-112 64c29 46 60 76 97 95 37 18 79 25 131 26l0-16c-49 0-89-7-124-24-34-17-63-45-91-89z m-76 167l9-25 27-1 22 0-17-14-22-16 8-26 6-21-18 13-22 15-23-16-17-12 6 21 7 26-21 16-17 14 21 0 27 1 9 25 8 21z m-4-35l-3 10-4-10-2-5-5 0-11-1 9-6 4-3-1-5-3-11 8 6 5 3 4-3 9-6-3 11-2 5 5 3 8 7-11 0-5 0z m18 24c29 47 61 71 99 83 37 13 79 14 130 15l0-16c-49-1-90-2-125-13-35-12-64-34-91-77z"/>
<glyph glyph-name="stars-2" unicode="&#63;" d="M324 435l16-76 75-15-1-8 1 8c4-1 7-5 6-9-1-3-3-6-6-6l-76-16-15-76-8 2 8-2c-1-4-5-7-10-6-3 1-5 4-6 7l-16 76-75 15 1 7-1-7c-4 1-7 5-6 9 0 3 3 6 6 6l76 16 15 76 8-2-8 2c1 4 5 6 10 6 3-1 5-4 6-7z m9-82l-7-2-10 44-8-43c-1-3-3-5-6-6l-2 8 2-8-45-9 43-9c3 0 6-3 6-6l-7-2 7 2 10-44 8 43c1 3 3 5 6 6l2-8-2 8 45 9-43 9c-3 0-6 3-6 6z m-189-120l12-56 55-11-1-8 1 8c5-1 7-5 7-9-1-4-4-6-7-6l-56-12-11-56-8 2 8-2c-1-4-5-7-9-6-4 1-6 3-7 6l-11 56-56 12 1 7-1-7c-4 0-7 5-6 9 0 3 3 6 6 6l56 12 11 56 8-2-8 2c1 4 5 7 10 6 3-1 5-4 6-7z m5-63l-8-1-5 24-4-23c-1-3-3-6-6-6l-2 7 2-7-25-6 23-4c3-1 6-3 7-6l-8-2 8 2 5-25 5 24c0 3 2 5 6 6l1-8-1 8 24 5-23 5c-3 0-6 3-7 6z m-40 264c6 0 12-2 16-5 5-4 8-9 8-15 0-5-3-10-8-14-4-3-10-5-16-5-6 0-11 2-15 5-5 4-8 9-8 14 0 6 3 11 8 15 4 3 9 5 15 5z m7-17c-2 1-4 1-7 1-2 0-5 0-6-1-1-1-2-2-2-3 0 0 1-1 2-2 1-1 4-1 6-1 3 0 5 0 7 1 0 1 1 2 1 2 0 1-1 2-1 3z m279-290c9 0 16-2 22-6 6-5 10-12 10-19 0-8-4-14-10-19-6-4-13-6-22-6-8 0-15 2-21 6-6 5-10 11-10 19 0 7 4 14 10 19 6 4 13 6 21 6z m12-19c-3 2-7 4-12 4-4 0-8-2-11-4-3-2-4-4-4-6 0-2 1-5 4-6 3-2 7-4 11-4 5 0 9 2 12 4 3 1 4 4 4 6 0 2-1 4-4 6z m-25 170c8 0 16-3 22-7 6-4 10-11 10-18 0-8-4-14-10-19-6-4-14-7-22-7-8 0-15 3-21 7-6 5-10 11-10 19 0 7 4 14 10 18 6 4 13 7 21 7z m12-19c-3 2-7 3-12 3-4 0-9-1-12-3-2-2-3-4-3-6 0-3 1-5 3-7 3-2 8-3 12-3 5 0 9 1 12 3 2 2 4 4 4 7 0 2-2 4-4 6z m-280 83c8 0 16-3 21-7 6-5 10-11 10-19 0-7-4-14-10-18-5-5-13-7-21-7-8 0-16 2-21 7-6 4-10 11-10 18 0 8 4 14 10 19 5 4 13 7 21 7z m12-20c-3 3-7 4-12 4-5 0-9-1-12-4-2-1-4-4-4-6 0-2 2-4 4-6 3-2 7-4 12-4 5 0 9 2 12 4 2 2 4 4 4 6 0 2-2 5-4 6z m188-119l9-42 41-8-41-9-9-41-8 42-42 8 42 9z m-99 98l9-41 41-9-42-9-8-41-9 42-41 8 42 9z"/>
<glyph glyph-name="sun" unicode="&#64;" d="M433 255l-59-29 0 72 72-36z m-43-3l22 10-22 11z m-302 10l21-10 0 21z m26-30l-47 23-14 7 14 7 47 24 11 5 0-72z m136 147c32 0 61-13 82-34 22-21 35-50 35-83 0-32-13-61-35-82-21-22-50-35-82-35-33 0-62 13-83 35-21 21-34 50-34 82 0 33 13 62 34 83 21 21 50 34 83 34z m71-45c-18 18-43 30-71 30-28 0-54-12-72-30-18-18-30-44-30-72 0-28 12-53 30-71 18-19 44-30 72-30 28 0 53 11 71 30 19 18 30 43 30 71 0 28-11 54-30 72z m-64 111l23-47 6-11-72 0 5 11 24 47 7 14z m3-42l-10 21-11-21z m-10-303l10 22-21 0z m30 26l-23-47-7-13-7 13-24 47-5 12 72 0z m104 261l-17-50-4-12-9 9-42 42 77 26z m-27-33l7 23-23-8z m-222-206l23 7-15 16z m40-3l-50-17-15-5 26 77 51-51z m199-17l-62 21 51 51 26-77z m-33 27l23-7-7 23z m-19 264c2 4 0 8-4 10-4 2-8 0-10-4l-15-38c-2-4 0-8 4-10 4-2 8 0 10 4z m-115-282c1 4 0 9-4 11-4 1-9-1-11-5l-15-37c-2-4 0-9 4-10 4-2 9 0 10 4z m205 185c4 1 6 6 4 10-2 4-6 6-10 4l-38-16c-4-1-6-6-4-10 2-4 6-6 10-4z m-281-118c4 2 6 7 4 10-1 4-6 6-10 5l-37-16c-4-2-6-6-5-10 2-4 7-6 11-4z m275-14c4-2 9 0 10 4 2 4 0 8-4 10l-37 15c-4 2-9 0-11-4-1-4 1-8 5-10z m-271 187l8-23 15 15z m-3-40l-17 50-5 15 15-5 50-17 12-4-51-51z m-7-32c4-1 8 0 10 4 2 4 0 9-4 11l-38 15c-4 2-8 0-10-4-2-4 0-9 4-10z m183-161c-2 4-7 6-10 4-4-2-6-6-5-10l16-38c2-4 6-6 10-4 4 2 6 6 4 10z m-116 237c1-4 6-6 10-4 4 1 6 6 4 10l-16 37c-1 4-6 6-10 5-4-2-6-7-4-11z"/>
<glyph glyph-name="sun-and-planets" unicode="&#91;" d="M222 138c-1 0-2 0-3 0-29 7-53 24-67 46-14 23-20 51-14 80 0 1 0 2 0 3l10-2c-2-22 4-44 16-60 13-17 31-29 54-34 12-2 23-2 34-1 12 2 23 6 34 11l7 3 0-8c0-4 1-7 3-10l0 0c2-4 4-6 7-9l8-5-8-3c-13-6-26-11-40-12-14-2-27-2-41 1z m-1 11c1-1 2-1 3-1 12-3 25-3 37-1 11 1 21 4 30 8-2 2-3 4-4 6l0 0c-1 2-2 5-3 8-10-5-20-7-30-9-13-2-25-1-38 1-25 5-46 19-60 37 0 1 0 1-1 2 2-4 4-7 6-10 13-20 34-35 60-41z m100 59c5 5 10 11 13 18 4 7 7 14 9 21 1 2 2 5 2 7 6 23 2 45-8 63-11 19-28 33-50 40-2 0-4 1-7 2l2 10c1 0 3-1 5-1 2 0 3-1 5-1 4-1 8-2 12-3 26-8 47-25 60-47 13-22 18-48 12-76 0-4-1-8-3-12-2-9-6-17-10-24-4-8-10-15-15-22l-6-7-3 9c-1 3-3 6-6 9-3 2-6 4-10 5l-7 2 5 7z m22 13c-2-5-6-10-10-15 3-1 5-3 7-5 2-1 3-3 5-5 3 4 6 9 9 14 4 7 7 14 9 22 2 4 2 7 3 11 5 25 1 49-11 69-4 7-9 13-14 18 2-2 3-5 5-7 11-21 15-46 9-71 0-3-1-6-2-8-2-8-5-16-10-23z m-26-11c9 0 18-3 24-9 6-7 10-15 10-24 0-10-4-18-10-24-6-6-15-10-24-10-10 0-18 4-24 10-6 6-10 14-10 24 0 9 4 17 10 24 6 6 14 9 24 9z m16-17c-4 4-10 7-16 7-7 0-13-3-17-7-4-4-7-10-7-16 0-7 3-13 7-17 4-4 10-7 17-7 6 0 12 3 16 7 5 4 7 10 7 17 0 6-2 12-7 16z m-109 0c-1 0-1 0-2 1-20 4-36 16-46 31-10 15-13 34-9 54 0 0 0 1 0 2l10-2c-1-14 2-28 10-39 8-10 20-18 35-21 17-4 35 0 49 9 15 9 27 23 32 40 1 2 1 4 2 6 0 2 0 5 1 7l0 5 5 0c1-1 1-1 1-1 0 0 0 0 1 0 1 0 3 1 4 1 2 1 3 1 5 2l7 4 1-8c0-5 0-10-1-15 0-4-1-9-3-14-6-22-21-39-40-50-18-12-40-16-62-12z m0 11c0 0 1-1 2-1 19-4 39 1 55 11 16 9 29 25 35 44 2 4 3 8 3 12 0 2 0 4 0 6-1 0-2-1-4-1 0-1 0-2 0-3-1-2-1-5-2-7-6-20-19-36-36-46-17-10-37-14-57-10-10 2-19 5-26 11 8-8 18-14 30-16z m72 114c-4 5-9 10-15 14-5 3-11 6-18 7l1 11c1 0 2-1 4-1 1 0 2 0 3 0 8-2 15-4 21-8 7-4 13-8 18-13l6-7-8-2c-1 0-2-1-3-1-1 0-1-1-2-1l-4-3z m17 12c7 0 14-3 19-8 5-5 8-12 8-19 0-8-3-15-8-20-5-5-12-8-19-8-8 0-15 3-20 8-5 5-8 12-8 20 0 7 3 14 8 19 5 5 12 8 20 8z m12-15c-3 3-8 5-12 5-5 0-9-2-12-5-4-3-5-8-5-12 0-5 1-9 5-13 3-3 7-5 12-5 4 0 9 2 12 5 3 4 5 8 5 13 0 4-2 9-5 12z m-118 46c8 0 16-3 22-9 6-6 9-14 9-22 0-9-3-17-9-22-6-6-14-10-22-10-9 0-17 4-23 10-5 5-9 13-9 22 0 8 4 16 9 22 6 6 14 9 23 9z m15-16c-4 4-9 6-15 6-6 0-11-2-15-6-4-4-6-9-6-15 0-6 2-11 6-15 4-4 9-6 15-6 6 0 11 2 15 6 3 4 6 9 6 15 0 6-3 11-6 15z m-10 37l0-18-10 0 0 18z m0-87l0-18-10 0 0 18z m25 77l-8-15-9 5 8 15z m-43-75l-9-15-9 5 9 15z m61 54l-16-9-5 9 15 9z m-76-43l-15-9-5 9 15 9z m80 16l-17 0 0 11 17 0z m-87 0l-18 0 0 11 18 0z m77-25l-15 9 5 9 16-9z m-75 43l-15 9 5 9 15-9z m54-60l-8 15 9 5 8-15z m-43 75l-9 15 9 5 9-15z"/>
<glyph glyph-name="telescope" unicode="&#93;" d="M26 291l43 144 0 0 0 0 0 0c1 4 3 8 5 10 4 4 8 6 13 5l0 0 0 0 20-6c5-2 8-6 9-11 0-4 0-7-1-11l0-1 0 0-43-144 0 0 0 0c-1-4-3-7-5-9-4-5-9-6-13-5l-20 6c-5 1-8 5-9 11 0 3 0 7 1 11z m60 139l-43-144c0 0 0-1-1-1l13-4c0 0 0 1 0 1l0 1 0 0 43 144 0 0 0 0c0 0 0 1 0 1l-12 4c0-1 0-1 0-2l0 0 0 0z m-20-126l25 100c2 5 4 9 8 11 4 3 8 5 13 3l34-8c5-2 8-5 10-10 2-3 3-8 1-13l-25-99c-1-5-4-9-7-12-4-3-9-4-14-3l-34 9c-5 1-8 5-10 9-2 4-2 9-1 13z m42 96l-25-100c0-1 0-1 0-2l31-8c0 1 1 1 1 2l25 99c1 1 1 2 0 2l-31 8c0 0 0-1-1-1z m10-93l18 69c1 5 4 9 8 10 4 2 8 3 13 1l249-64c0 1 10-6 11-6 2-4 4-9 2-13l-17-69c-2-5-5-9-9-10-4-2-8-3-12-1l-66 16c0 7-2 14-6 20l76-19c0-1 16 60 17 65l0 0-250 64c0 0 0 0 0 0l-17-65c0 0 0 0 0 0l116-30c-4-2-7-4-9-7-3-2-5-5-6-7l-105 27c-4 1-8 3-10 6-3 4-4 9-3 13z m286-27l38-10-4-17-38 10z m-132-8c10 0 18-4 24-10 7-6 10-15 10-24 0-10-3-18-10-24-6-7-14-10-24-10-9 0-18 3-24 10-6 6-10 14-10 24 0 9 4 18 10 24 6 6 15 10 24 10z m12-22c-3 3-7 4-12 4-4 0-9-1-12-4-3-3-5-8-5-12 0-5 2-9 5-12 3-3 8-5 12-5 5 0 9 2 12 5 3 3 5 7 5 12 0 4-2 9-5 12z m-13-40c2 5 0 10-5 12-4 2-9 0-11-4l-69-151c-2-5 0-10 4-12 4-2 10 0 12 4z m22 8c-2 4-7 6-11 4-5-2-6-7-4-12l69-151c2-4 7-6 11-4 5 2 7 7 5 12z"/>
<glyph glyph-name="telescope-1" unicode="&#94;" d="M98 511c-54 0-98-44-98-98 0-52 40-94 90-98 2 0 3 0 4 0 32 0 59-27 59-59l0-158c0-54 44-98 98-98 54 0 98 44 98 98l0 63c0 11-9 20-19 20-11 0-20-9-20-20l0-63c0-32-26-59-59-59-32 0-59 27-59 59l0 158c0 51-40 94-90 98-1 0-3 0-4 0-32 0-59 26-59 59 0 32 27 59 59 59l310 0c33 0 59-27 59-59 0-33-26-59-59-59-11 0-19-9-19-20 0-11 8-19 19-19 54 0 98 44 98 98 0 54-44 98-98 98z m200-252c0-17 14-31 31-31 18 0 32 14 32 31 0 18-14 32-32 32-17 0-31-14-31-32z"/>
<glyph glyph-name="two-satellites" unicode="&#95;" d="M343 289l91-85 6-6-5-5c-21-22-47-36-75-41-29-5-58-1-85 13-32 18-55 46-65 79-10 32-7 69 10 101l0 0c3 5 6 10 9 15 3 5 7 9 11 13l5 6 6-5z m75-91l-86 79-86 80c-1-2-3-4-4-6-3-4-6-9-8-13-16-29-18-61-9-90 9-28 29-54 57-69 24-12 50-16 75-12 22 4 44 14 61 31z m-94-38l0-78-53 0 0 103 11-6c6-3 12-5 18-7 5-2 12-4 18-5l6-1z m-16-62l0 55c-4 1-9 3-13 4-3 1-6 2-8 3l0-62z m-74 0l128 0 0-16-128 0z m101 187l47 45 10-12-46-44z m61 76c8 0 14-3 19-8 5-5 8-11 8-19 0-7-3-14-8-19-5-4-11-7-19-7-7 0-14 3-18 7-5 5-8 12-8 19 0 8 3 14 8 19 4 5 11 8 18 8z m8-19c-2 2-5 3-8 3-3 0-5-1-7-3-2-2-4-5-4-8 0-3 2-5 4-7 2-2 4-4 7-4 3 0 6 2 8 4 2 2 3 4 3 7 0 3-1 6-3 8z m-222 26l28-26c-3-5-5-10-6-15l-33 30-72 67c-1-2-2-3-3-4-2-4-5-8-7-11l0 0c-12-25-14-51-7-76 8-24 24-45 49-58 12-6 26-10 39-11 9 0 19 0 28 2 0-5 1-10 2-15-10-2-20-3-31-2-16 1-31 5-46 13-28 14-47 39-55 67-9 28-7 59 8 87l0 0c2 4 5 8 8 13 2 4 6 7 9 11l5 6 6-5z m-16-110l0-67-47 0 0 90 12-6c4-2 9-4 14-6 5-1 10-3 15-4l6-1z m-15-52l0 45c-4 1-8 2-11 3-2 1-4 2-5 2l0-50z m-63 0l109 0 0-15-109 0z m86 159l39 38 11-11-39-38z m53 65c6 0 12-3 17-7 4-4 6-10 6-17 0-6-2-12-6-17-5-4-11-7-17-7-7 0-13 3-17 7-4 5-7 11-7 17 0 7 3 13 7 17 4 4 10 7 17 7z m5-18c-1 1-3 2-5 2-3 0-5-1-6-2-2-2-2-4-2-6 0-2 0-4 2-6 1-1 3-2 6-2 2 0 4 1 5 2 2 2 3 4 3 6 0 2-1 4-3 6z"/>
<glyph glyph-name="videochain" unicode="&#96;" d="M45 394c-29-17-45-51-45-95l0-106c0-44 16-78 45-95 13-7 27-10 42-10 20 0 41 6 62 18l106 61-44 25-84-48c-23-13-45-16-60-7-14 8-23 29-23 56l0 106c0 28 9 48 23 57 15 8 37 5 61-8l209-121c11-6 24-2 30 8 6 11 3 24-8 30l-209 121c-22 12-43 19-63 19-15 0-29-4-42-11m378 11c-19 0-40-6-62-19l-106-61 45-25 83 48c24 14 45 16 60 8 15-9 24-29 24-57l0-106c0-27-9-47-24-56-15-9-37-6-61 8l-209 120c-11 6-24 3-30-8-6-10-3-24 8-30l209-120c22-13 44-19 64-19 15 0 29 4 41 11 30 17 46 50 46 94l0 106c0 45-16 78-46 95-12 7-26 11-41 11z m-208-212l-45-26 45-25 44 25z m132 133l-45 26-45-26 45-26z"/>
<glyph glyph-name="weapon" unicode="&#123;" d="M223 418c28 0 55-8 78-21 19-11 36-26 49-43l-14-8c-12 16-26 28-43 38-20 12-44 18-70 18-39 0-74-16-100-41-25-26-41-61-41-100 0-13 1-24 4-36 2-7 5-15 8-22l259 0c3 7 5 15 7 22 3 12 5 23 5 36 0 5-1 11-1 16l15 8c0-2 0-4 0-5 1-6 1-13 1-19 0-14-1-27-5-40-3-13-8-25-14-36l-12 3-252 0-11-3c-7 11-12 23-15 36-3 13-5 26-5 40 0 43 18 82 46 111 29 28 68 46 111 46z m19-230l-145 0-11-3c-7 11-12 23-15 36-3 13-5 26-5 40 0 22 5 44 14 64 9 20 22 38 38 52l3 3 4-1c36-7 69-26 91-54 23-27 36-62 36-100 0-5 0-10 0-16-1-5-2-10-3-15l-1-6z m-148 15l141 0c1 3 1 5 1 8 1 4 1 9 1 14 0 34-12 66-33 90-19 24-47 41-78 48-14-12-25-28-32-45-8-17-12-37-12-57 0-13 1-24 4-36 2-7 5-15 8-22z m-1 0l269 0 0-96-277 0 0 96z m253-15l-246 0 0-66 246 0z m-62 123l83 43 7 3 3-6c2-2 3-3 3-4 1-1 2-3 3-5l4-7-7-3-1-1c0-1 1-3 2-4 0-1 1-2 1-3l1 0 8 4 3-7c1-2 2-4 2-5 1-2 2-3 2-4l3-7-6-3-84-44-5 0c-11 2-18 8-22 16-5 9-6 20-4 31l0 4z m77 22l-66-34c-1-7 0-13 2-18 2-3 5-6 10-7l67 34-1 1c-2 4-4 7-6 11-2 4-4 8-6 11z m68-3l-46-23-6-4-4 6c-2 4-4 7-6 11-2 4-4 8-6 11l-2 7 6 3 45 24 6 1c7-2 11-6 14-11 3-6 4-13 3-19l-1-4z m-47-6l36 18c0 2-1 4-2 6 0 0-1 1-1 2l-36-19c0-1 1-3 2-4 0-1 1-2 1-3z"/>
<glyph glyph-name="x" unicode="&#124;" d="M96 150l160 0c35 0 64-29 64-64l0-32c0-17 14-32 32-32 17 0 32 15 32 32l0 32c0 71-58 128-128 128l-160 0c-18 0-32 14-32 32 0 17 14 32 32 32l160 0c70 0 128 57 128 127l0 32c0 18-15 32-32 32-18 0-32-14-32-32l0-32c0-35-29-64-64-64l-160 0c-53 0-96-43-96-95 0-53 43-96 96-96z m199-15c14-12 23-30 23-50l0-31c0-17 14-32 31-32 18 0 32 15 32 32l0 31c0 18-4 34-10 50z m216 110c0 53-43 96-96 96l-159 0c-35 0-64 29-64 64l0 32c0 18-14 32-32 32-17 0-32-14-32-32l0-32c0-71 57-128 128-128l159 0c18 0 32-14 32-32 0-18-14-32-32-32l-159 0c-71 0-128-57-128-128l0-32c0-18 15-32 32-32 18 0 32 14 32 32l0 32c0 35 29 64 64 64l159 0c53 0 96 43 96 96m-316-34l-99 0c-17 0-32 14-32 32 0 18 15 32 32 32l99 0c-28 14-51 36-65 64l-34 0c-53 0-96-43-96-96 0-53 43-96 96-96l34 0c14 28 37 50 65 64m123 227l0-32c0-20-9-38-24-50l78 0c6 15 10 32 10 50l0 32c0 17-14 31-32 31-18 0-32-14-32-31"/>
</font>
</defs>
</svg>
