<?xml version="1.0" encoding="UTF-8"?>
<svg width="24px" height="24px" viewBox="0 0 24 24" version="1.1" xmlns="http://www.w3.org/2000/svg" xmlns:xlink="http://www.w3.org/1999/xlink">
    <!-- Generator: Sketch 49.2 (51160) - http://www.bohemiancoding.com/sketch -->
    <title>abduction</title>
    <desc>Created with Sketch.</desc>
    <defs></defs>
    <g id="abduction" stroke="none" stroke-width="1" fill="none" fill-rule="evenodd">
        <g id="Group">
            <g id="Layer_x0020_1">
                <g>
                    <g id="_347233504">
                        <rect id="_347233888" x="0" y="0" width="23.4056914" height="23.4056914"></rect>
                        <rect id="_347233528" x="2.92570629" y="2.92570629" width="17.5542857" height="17.5542857"></rect>
                    </g>
                    <path d="M13.8867771,12.0742971 L9.54634286,12.0742971 L7.26102514,19.7485714 L16.1466137,19.7485714 L13.8867531,12.0742971 L13.8867771,12.0742971 Z M9.27421714,11.3428491 L14.1593486,11.3428491 L14.4319334,11.3428491 L14.5093461,11.6057153 L16.9845998,20.011441 L17.1225795,20.4800205 L16.6346013,20.4800205 L6.77104697,20.4800205 L6.28108354,20.4800205 L6.42104743,20.0100079 L8.92418914,11.6042822 L9.00204754,11.3428467 L9.27418697,11.3428467 L9.27421714,11.3428491 Z" id="Shape" fill="#212121" fill-rule="nonzero"></path>
                    <path d="M5.41258286,10.48752 L17.9931086,10.48752 C18.1675608,10.48752 18.325896,10.5586155 18.4404549,10.6731758 C18.5550151,10.787736 18.6261106,10.9460712 18.6261106,11.1205221 L18.6261106,11.4412961 C18.6261106,11.6157213 18.5550151,11.7740835 18.4404549,11.8886424 L18.439024,11.8886424 C18.3244638,12.0031622 18.1666144,12.0742982 17.9931075,12.0742982 L5.41258175,12.0742982 C5.23907444,12.0742982 5.08122506,12.0031622 4.96666518,11.8886424 L4.96523436,11.8886424 C4.85067413,11.7740822 4.77957859,11.6157199 4.77957859,11.4412961 L4.77957859,11.1205221 C4.77957859,10.9460698 4.85067413,10.7877346 4.96523436,10.6731758 C5.07979459,10.5586155 5.23812979,10.48752 5.41258064,10.48752 L5.41258286,10.48752 Z M17.8946743,11.218968 L5.51101714,11.218968 L5.51101714,11.3428557 L17.8946743,11.3428557 L17.8946743,11.218968 Z" id="Shape" fill="#212121" fill-rule="nonzero"></path>
                    <path d="M11.7028457,10.3636114 L6.85597714,10.3636114 L6.49025486,10.3636114 L6.49025486,9.99788914 C6.49025486,8.55852343 7.07371886,7.25535429 8.01702171,6.312072 C8.96031086,5.36876914 10.26348,4.78530514 11.7028389,4.78530514 C13.1422046,4.78530514 14.445384,5.36876914 15.3886903,6.312072 C16.3319931,7.25537486 16.9154571,8.55853029 16.9154571,9.99788914 L16.9154571,10.3636114 L16.5497349,10.3636114 L11.7028663,10.3636114 L11.7028457,10.3636114 Z M7.23648,9.63216343 L11.7028457,9.63216343 L16.1692114,9.63216343 C16.0810406,8.54054057 15.6017417,7.55941714 14.8715383,6.82921029 C14.0606537,6.018312 12.94032,5.51674286 11.7028491,5.51674286 C10.4653783,5.51674286 9.34505829,6.018312 8.53417371,6.82921029 C7.80397029,7.5594 7.32466971,8.54054057 7.23648,9.63216343 Z" id="Shape" fill="#66BB6A" fill-rule="nonzero"></path>
                    <polygon id="Shape" fill="#66BB6A" fill-rule="nonzero" points="12.0685714 4.29569143 12.0685714 5.19973714 11.33712 5.19973714 11.33712 4.29569143"></polygon>
                    <path d="M11.7028457,2.92569257 C11.9424408,2.92569257 12.1594114,3.02285349 12.3164777,3.17991977 C12.473544,3.33698606 12.5707049,3.55395634 12.5707049,3.79356549 C12.5707049,4.03316057 12.473544,4.2501312 12.3164777,4.40719749 C12.1594114,4.56426377 11.9424411,4.66142469 11.7028457,4.66142469 C11.4632506,4.66142469 11.24628,4.56426377 11.0892137,4.40719749 C10.9321474,4.2501312 10.8349865,4.03316091 10.8349865,3.79356549 C10.8349865,3.5539704 10.9321474,3.33698606 11.0892137,3.17991977 C11.24628,3.02285349 11.4632503,2.92569257 11.7028457,2.92569257 Z M11.7993315,3.69706629 C11.7746701,3.67240488 11.7405463,3.65713817 11.7028457,3.65713817 C11.6651448,3.65713817 11.6310213,3.67240478 11.6063599,3.69706629 C11.5816985,3.72172769 11.5664318,3.75586491 11.5664318,3.79356583 C11.5664318,3.83126674 11.5816984,3.86539029 11.6063599,3.89005166 C11.6310213,3.91471306 11.6651451,3.92997977 11.7028457,3.92997977 C11.7405466,3.92997977 11.7746702,3.91471317 11.7993315,3.89005166 C11.8239929,3.86539025 11.8392597,3.8312664 11.8392597,3.79356583 C11.8392597,3.75585154 11.8239931,3.72172766 11.7993315,3.69706629 Z" id="Shape" fill="#66BB6A" fill-rule="nonzero"></path>
                    <circle id="Oval" fill="#66BB6A" cx="8.56662857" cy="8.71491429" r="1"></circle>
                    <circle id="Oval" fill="#66BB6A" cx="10.65744" cy="8.71491429" r="1"></circle>
                    <circle id="Oval" fill="#66BB6A" cx="12.7482514" cy="8.71491429" r="1"></circle>
                    <circle id="Oval" fill="#66BB6A" cx="14.8390629" cy="8.71491429" r="1"></circle>
                    <path d="M11.0033486,13.9542857 C11.0267006,14.1219213 11.1501696,14.3948434 11.3151597,14.633304 C11.4389931,14.8122782 11.5809819,14.9649439 11.7108237,15.0234171 C11.8531632,14.949001 12.0103783,14.7787467 12.1425014,14.5838297 C12.2946813,14.3593121 12.4070685,14.1112937 12.4218086,13.9436846 L12.422524,13.9436846 C12.4456736,13.6852594 12.297975,13.5118869 12.09303,13.423512 C11.9699659,13.3704501 11.8278153,13.3453567 11.6863672,13.3480701 C11.5453099,13.3507697 11.4064662,13.380844 11.2895169,13.4380632 C11.0994472,13.5310666 10.9693908,13.703629 11.0032583,13.9542929 L11.0033528,13.9542794 L11.0033486,13.9542857 Z M11.0151731,14.8404514 C10.8201361,14.5585663 10.6722474,14.2220811 10.6419182,14.0042846 L10.6419182,14.0035692 C10.5825662,13.5679383 10.8044785,13.2699612 11.1295057,13.1109269 C11.2949816,13.0299639 11.4876714,12.9874849 11.6806417,12.9837862 C11.8732088,12.9800877 12.0677342,13.0146973 12.2373251,13.0878176 C12.5792915,13.2352733 12.8252051,13.5301445 12.7853822,13.9750496 L12.7860976,13.9751171 C12.7661876,14.2015917 12.6286264,14.515604 12.4439156,14.7881205 C12.2702056,15.0443994 12.0492253,15.2720771 11.8370447,15.3678714 L11.8369502,15.3676689 C11.8203203,15.3757949 11.8036904,15.3822741 11.7873035,15.3867555 L11.7873575,15.386931 C11.7646128,15.3930997 11.7411798,15.3964203 11.7173958,15.3964203 C11.6973778,15.3964203 11.6774543,15.3936667 11.6554521,15.3887938 C11.6345567,15.3841234 11.6245545,15.3812212 11.6149573,15.3781976 L11.6071012,15.375336 C11.3943814,15.2965193 11.1841321,15.0846363 11.0151721,14.8404514 L11.0151731,14.8404514 Z" id="Shape" fill="#212121" fill-rule="nonzero"></path>
                    <path d="M11.2949143,15.4678971 L11.2949143,15.0878777 L11.2949143,14.7356949 L11.5827792,14.9386015 C11.6079536,14.9563383 11.6338029,14.9722933 11.6601247,14.9860077 C11.6784554,14.9955645 11.6955713,15.0034205 11.7112697,15.0093867 C11.7275487,15.0022596 11.7444891,14.9937017 11.7619827,14.9838749 C11.7861177,14.9703226 11.8116295,14.9538142 11.8381402,14.9347949 L12.1274225,14.7272855 L12.1274225,15.08337 L12.1274225,15.467898 L11.7617002,15.467898 L11.7617002,15.3755021 C11.7469061,15.3779723 11.7320984,15.3792682 11.7173986,15.3792682 C11.698123,15.3792682 11.6799813,15.3771625 11.6606383,15.3734504 L11.6606383,15.467898 L11.294916,15.467898 L11.2949143,15.4678971 Z" id="Shape" fill="#212121" fill-rule="nonzero"></path>
                    <path d="M11.2186629,13.9238057 C11.1188427,14.1476482 11.1836753,14.4160903 11.5254662,14.5493314 C11.7248496,14.1784663 11.2564313,13.8642103 11.2186629,13.9238057 Z" id="Shape" fill="#212121"></path>
                    <path d="M12.2036571,13.9238057 C12.3034635,14.1476482 12.2386447,14.4160903 11.8968538,14.5493314 C11.6974704,14.1784663 12.1658887,13.8642103 12.2036571,13.9238057 Z" id="Shape" fill="#212121"></path>
                    <path d="M11.0348571,15.2850171 L12.3874971,15.2850171 C12.4990337,15.2850171 12.603551,15.3195593 12.6820574,15.3751454 L12.6827728,15.3751454 C12.7789754,15.4433119 12.8387457,15.5431183 12.8387457,15.6580025 L12.8387457,17.3995694 C12.8387457,17.5664085 12.7485228,17.7137695 12.6032135,17.8167065 C12.4760728,17.9067672 12.3044553,17.9626906 12.1191232,17.9626906 L11.3032295,17.9626906 C11.1178977,17.9626906 10.9462809,17.9067672 10.8191529,17.8167065 C10.6738164,17.7137547 10.5836207,17.5664074 10.5836207,17.3995694 L10.5836207,15.6580025 C10.5836207,15.5430915 10.6433913,15.4433119 10.7395936,15.3751454 L10.740309,15.3751454 C10.8188017,15.3195459 10.9233056,15.2850171 11.0348555,15.2850171 L11.0348571,15.2850171 Z M12.3874971,15.6507394 L11.0348571,15.6507394 C10.9990865,15.6507394 10.9695929,15.6588654 10.9507896,15.6719588 L10.9510326,15.6722962 C10.9509381,15.6723637 10.9508706,15.6722288 10.9507896,15.6719723 L10.9503172,15.6722962 L10.9493453,15.6709194 L10.9493453,17.3995674 C10.9493453,17.4418575 10.9799189,17.4846742 11.0291607,17.519554 C11.0965712,17.567311 11.1933677,17.5969667 11.3032304,17.5969667 L12.1191241,17.5969667 C12.2289869,17.5969667 12.3257967,17.5673109 12.3932072,17.519554 C12.4424491,17.4846745 12.4730227,17.4418441 12.4730227,17.3995674 L12.4730227,15.6709194 L12.4720508,15.6722962 L12.4715783,15.6719723 C12.4714973,15.6722423 12.4714164,15.6723502 12.4713354,15.6722962 L12.4715783,15.6719588 C12.4528022,15.6588654 12.4232677,15.6507394 12.3874974,15.6507394 L12.3874971,15.6507394 Z M12.4730225,15.6580015 C12.4730225,15.6485797 12.4724691,15.6689081 12.4715917,15.6719318 L12.4730225,15.6699205 L12.4730225,15.6580015 Z M10.9493448,15.6580015 L10.9493448,15.6699205 L10.9507756,15.6719318 C10.9498982,15.6688947 10.9493448,15.6485797 10.9493448,15.6580015 Z" id="Shape" fill="#212121" fill-rule="nonzero"></path>
                    <path d="M11.5110857,17.7798514 C11.5110857,17.6788704 11.4292049,17.5969899 11.3282242,17.5969899 C11.2272432,17.5969899 11.1453627,17.6788707 11.1453627,17.7798514 L11.1453627,19.2996549 C11.1453627,19.4006359 11.2272435,19.4825163 11.3282242,19.4825163 C11.4292053,19.4825163 11.5110857,19.4006355 11.5110857,19.2996549 L11.5110857,17.7798514 Z" id="Shape" fill="#212121" fill-rule="nonzero"></path>
                    <path d="M12.27696,17.7798514 C12.27696,17.6788704 12.1950792,17.5969899 12.0940985,17.5969899 C11.9931175,17.5969899 11.911237,17.6788707 11.911237,17.7798514 L11.911237,19.2996549 C11.911237,19.4006359 11.9931178,19.4825163 12.0940985,19.4825163 C12.1950795,19.4825163 12.27696,19.4006355 12.27696,19.2996549 L12.27696,17.7798514 Z" id="Shape" fill="#212121" fill-rule="nonzero"></path>
                    <path d="M12.8078743,15.4558286 C12.738061,15.3832481 12.6225963,15.3810075 12.5500159,15.4508207 C12.4774354,15.520634 12.4751949,15.6360986 12.545008,15.7086791 C12.6434917,15.8114958 12.7153974,16.0001348 12.786088,16.1856002 C12.8389202,16.324228 12.8911994,16.4613572 12.9614447,16.5829648 C13.1492601,16.9081391 13.4124767,17.0799877 13.9238344,16.7846025 C14.0110065,16.7341189 14.0407432,16.6225014 13.9902596,16.5353293 C13.9397759,16.4481572 13.8281584,16.4184205 13.7409863,16.4689041 C13.4846262,16.6169941 13.3606172,16.5446433 13.2771452,16.4001167 C13.2233005,16.306911 13.1756649,16.1819433 13.1275165,16.0556138 C13.044016,15.8365093 12.9590711,15.6136778 12.8078766,15.4558298 L12.8078743,15.4558286 Z" id="Shape" fill="#212121" fill-rule="nonzero"></path>
                    <path d="M10.8606857,15.7006286 C10.930499,15.6280481 10.9282584,15.5125834 10.8556778,15.4427702 C10.7830974,15.3729569 10.6676327,15.3751975 10.5978194,15.447778 C10.4466249,15.6056274 10.36168,15.8284558 10.2781796,16.047562 C10.2300311,16.1738929 10.1823956,16.2988602 10.1285509,16.3920649 C10.0450772,16.5365912 9.92106847,16.6089423 9.66470973,16.4608523 C9.57753761,16.4103687 9.46592013,16.4401054 9.41543647,16.5272775 C9.36495281,16.6144496 9.39468957,16.7260671 9.48186161,16.7765507 C9.99321933,17.0719342 10.2564342,16.9000873 10.4442513,16.574913 C10.5144966,16.4533067 10.5667754,16.3161772 10.619608,16.1775484 C10.6902986,15.9920816 10.7622044,15.8034433 10.860688,15.7006273 L10.8606857,15.7006286 Z" id="Shape" fill="#212121" fill-rule="nonzero"></path>
                </g>
            </g>
        </g>
    </g>
</svg>