<?xml version="1.0" encoding="UTF-8"?>
<svg width="24px" height="24px" viewBox="0 0 24 24" version="1.1" xmlns="http://www.w3.org/2000/svg" xmlns:xlink="http://www.w3.org/1999/xlink">
    <!-- Generator: Sketch 49.2 (51160) - http://www.bohemiancoding.com/sketch -->
    <title>alien-face</title>
    <desc>Created with Sketch.</desc>
    <defs></defs>
    <g id="alien-face" stroke="none" stroke-width="1" fill="none" fill-rule="evenodd">
        <g id="Group">
            <g id="Layer_x0020_1">
                <g>
                    <g id="_350172704">
                        <rect id="_350173208" x="0" y="0" width="23.4056914" height="23.4056914"></rect>
                        <rect id="_350172752" x="2.92570629" y="2.92570629" width="17.5542857" height="17.5542857"></rect>
                    </g>
                    <path d="M7.39930286,7.51289143 C7.53324651,8.474592 8.22116229,10.0107017 9.136224,11.3332114 C9.88386857,12.4137634 10.7714777,13.3357269 11.6075486,13.6476583 C11.6476385,13.6602657 11.679481,13.669998 11.6951527,13.6734806 C11.7060728,13.6759103 11.7185723,13.6772871 11.7355262,13.6772871 C11.7414789,13.6772871 11.7483631,13.6761802 11.7559221,13.6741285 L11.7573529,13.6741285 C11.7723091,13.670079 11.7860773,13.6645987 11.7985092,13.657971 L11.819931,13.6465514 C12.7027881,13.2479732 13.6690796,12.2314703 14.4571504,11.0688314 C15.3090681,9.81200287 15.9399527,8.40271258 16.0257219,7.42707144 L16.0271527,7.42707144 C16.1758635,5.76712858 15.2408612,4.6595663 13.9421492,4.09950915 C13.220315,3.7882247 12.3890201,3.64105087 11.5632487,3.65692515 C10.7382864,3.67278566 9.92190924,3.85077453 9.22905324,4.18978344 C8.01146467,4.78553201 7.17930581,5.89567258 7.39912867,7.51290573 L7.39930415,7.51287873 L7.39930286,7.51289143 Z M8.536224,11.74752 C7.56108,10.3381886 6.82436914,8.674968 6.67644,7.61290286 L6.67644,7.61147204 C6.40563669,5.62426518 7.42156114,4.26335204 8.90906057,3.53551775 C9.69899657,3.14900804 10.6230103,2.94620804 11.5518274,2.92836232 C12.4798354,2.91053104 13.4158629,3.07670872 14.2307177,3.42809718 C15.8034994,4.10634746 16.9349829,5.45689261 16.7528914,7.48982289 L16.7543088,7.48994438 C16.6581874,8.58333638 15.976983,10.1246267 15.060015,11.4774415 C14.2035202,12.7410038 13.1303225,13.8561398 12.1199465,14.3123044 L12.1198385,14.3120614 C12.0625786,14.3410018 12.0047924,14.3638274 11.9472627,14.3795261 L11.9473572,14.3798905 C11.8780839,14.3986937 11.8071773,14.4087769 11.7355281,14.4087769 C11.6695617,14.4087769 11.6064033,14.4001785 11.5380074,14.3849659 C11.4759557,14.3711572 11.4297238,14.3572134 11.3778903,14.3408803 L11.3607475,14.3351706 C10.3691738,13.9677854 9.3614172,12.9401877 8.5362252,11.7475454 L8.536224,11.74752 Z" id="Shape" fill="#66BB6A" fill-rule="nonzero"></path>
                    <path d="M8.77505143,7.29990857 C8.85883543,7.22550583 8.95503806,7.18916846 9.05856994,7.18055657 L9.18143143,7.19198966 C9.976332,7.40218543 10.5633206,7.75916109 10.9364006,8.26819766 C11.3143937,8.78395423 11.4618086,9.43619194 11.3722337,10.2297725 L11.334479,10.5643689 L10.9993697,10.5540696 C10.9617634,10.5529223 10.936427,10.5519639 10.9227127,10.551208 C10.0973184,10.5056378 9.50383611,10.143208 9.12040526,9.60858056 C8.7508224,9.09324228 8.58808526,8.42157828 8.60937326,7.72940113 C8.61070959,7.68536971 8.61197843,7.65275782 8.6131393,7.63171393 L8.61743177,7.59171828 C8.63867811,7.46698033 8.69421017,7.37170925 8.77505143,7.29991188 L8.77505143,7.29990857 Z M9.34056343,8.00537143 C9.36364553,8.44896686 9.48495497,8.86255543 9.71468229,9.18286971 C9.92763154,9.4798056 10.2418457,9.69854743 10.6671497,9.78521829 C10.665152,9.34757486 10.5579754,8.98636114 10.3478201,8.69962971 C10.1293365,8.40151954 9.7926624,8.170752 9.34056343,8.00537143 Z" id="Shape" fill="#66BB6A" fill-rule="nonzero"></path>
                    <path d="M12.9106286,9.82433143 C13.3252286,9.60169029 13.6347737,9.31419086 13.8282857,8.98132114 C14.0062608,8.67519291 14.0880069,8.32537029 14.0646411,7.94785029 C14.0253744,7.96338686 13.9869449,7.97959831 13.9493925,7.99648457 C13.5441593,8.17863086 13.2279079,8.44014857 13.0432107,8.75811429 C12.8677056,9.06026057 12.8105942,9.422448 12.9106303,9.82433143 L12.9106286,9.82433143 Z M14.4597086,9.34704343 C14.1336703,9.90785829 13.5826423,10.3637109 12.8359954,10.6623051 L12.5112127,10.7921993 L12.3674287,10.472303 C12.2961847,10.3137789 12.2420294,10.1592501 12.2039777,10.0092984 C12.0516089,9.40869154 12.1409811,8.8585944 12.4117841,8.39239097 C12.6745423,7.94004926 13.1071635,7.5757704 13.6522378,7.33077497 C13.8466677,7.24337349 14.0536515,7.17142731 14.2703647,7.1164488 L14.6263978,7.02611794 L14.7132326,7.38502423 C14.8869154,8.10291909 14.7924137,8.77475794 14.4597072,9.3470448 L14.4597086,9.34704343 Z" id="Shape" fill="#66BB6A" fill-rule="nonzero"></path>
                    <path d="M10.1117829,16.6054629 L10.1117829,14.0465486 C10.3467614,14.2295589 10.5913371,14.3893519 10.8432309,14.5147783 L10.8432309,16.6054629 L10.1117829,16.6054629 Z M13.2939291,14.0033383 L13.2939291,16.5565989 L13.2939291,16.8331793 L13.0267841,16.9080274 L12.852359,16.9568914 L12.7400801,16.5565989 L12.5624829,16.5565989 L12.5624829,14.4984446 C12.8120935,14.359979 13.0568177,14.1920328 13.2939309,14.0033383 L13.2939291,14.0033383 Z" id="Shape" fill="#212121" fill-rule="nonzero"></path>
                    <path d="M7.34262857,15.2999314 L10.4156674,16.2397234 L12.7061966,16.2397234 L16.0702046,15.2970686 C16.1382497,15.2780089 16.2040944,15.2690461 16.2673341,15.2690461 C16.4790686,15.2690461 16.6687615,15.3610237 16.8173215,15.5052664 C16.946136,15.6303146 17.044201,15.7982879 17.0937669,15.9752241 C17.1189547,16.0650959 17.1325879,16.156925 17.1325879,16.2465808 L17.1325879,19.8152094 C17.1325879,19.9974232 17.0579016,20.1632231 16.9376047,20.2835454 L16.9361739,20.2849762 C16.8158499,20.4052731 16.65005,20.4799594 16.4678379,20.4799594 L6.93788358,20.4799594 C6.75638529,20.4799594 6.59062758,20.4053136 6.46956129,20.2849491 L6.46954779,20.2849626 L6.46883239,20.2842472 L6.46811698,20.2835318 L6.46813047,20.2835183 C6.34776602,20.162452 6.27312019,19.9967197 6.27312019,19.8152063 L6.27312019,16.2465777 C6.27312019,16.1501457 6.28956115,16.049894 6.31966236,15.9514912 C6.37231939,15.7792124 6.46941276,15.6170166 6.5944339,15.4972329 C6.7412011,15.356594 6.9269515,15.2671137 7.13381333,15.2671137 C7.19982019,15.2671137 7.26957927,15.2775884 7.34264556,15.2999281 L7.34262857,15.2999314 Z M10.2603291,16.9540149 L7.13379429,15.9978617 L7.13379429,15.9983207 C7.13403726,15.9984691 7.13407775,15.9985636 7.13379429,15.9985636 C7.12812501,15.9985636 7.11567957,16.008053 7.10014299,16.0229416 C7.06283362,16.0586851 7.03335339,16.1087097 7.01677728,16.1629326 C7.00888077,16.1887683 7.00454781,16.2171146 7.00454781,16.2465815 L7.00454781,19.7485243 L16.4011307,19.7485243 L16.4011307,16.2465815 C16.4011307,16.2211372 16.3975266,16.1960574 16.3908989,16.1723814 C16.3750384,16.1157828 16.3458821,16.0641787 16.3087483,16.0281383 C16.291376,16.0112654 16.2762579,16.0004937 16.2673219,16.0004937 C16.266701,16.0004937 16.266998,16.0002913 16.2673219,16.0001023 L16.2673219,15.9999403 L12.8523311,16.9568752 L12.7537528,16.9711699 L10.3660373,16.9711699 L10.2603187,16.9540135 L10.2603291,16.9540149 Z M7.13379429,15.9978617 L7.13118911,15.9970653 C7.12851644,15.9962554 7.13279541,15.9977132 7.13379429,15.9983207 L7.13379429,15.9978617 Z M16.2673714,15.999927 L16.2673444,15.9999405 L16.2673444,16.0001024 C16.2676954,15.9999 16.2680868,15.9997245 16.2673714,15.999927 Z" id="Shape" fill="#212121" fill-rule="nonzero"></path>
                </g>
            </g>
        </g>
    </g>
</svg>