<?xml version="1.0" encoding="UTF-8"?>
<svg width="24px" height="24px" viewBox="0 0 24 24" version="1.1" xmlns="http://www.w3.org/2000/svg" xmlns:xlink="http://www.w3.org/1999/xlink">
    <!-- Generator: Sketch 49.2 (51160) - http://www.bohemiancoding.com/sketch -->
    <title>alien-2</title>
    <desc>Created with Sketch.</desc>
    <defs></defs>
    <g id="alien-2" stroke="none" stroke-width="1" fill="none" fill-rule="evenodd">
        <g id="Group">
            <g id="Layer_x0020_1">
                <g>
                    <g id="_258296864">
                        <rect id="_258297152" x="0" y="0" width="23.4056914" height="23.4056914"></rect>
                        <rect id="_258296888" x="2.92570629" y="2.92570629" width="17.5542857" height="17.5542857"></rect>
                    </g>
                    <path d="M9.558,5.56611429 C9.62750297,6.06684686 9.98940686,6.87392571 10.4718754,7.57364914 C10.8560366,8.13083314 11.3048297,8.60481257 11.7190251,8.76718286 L11.7191871,8.76666992 L11.7315516,8.77067892 C12.1768476,8.56438417 12.6716556,8.03696463 13.0809104,7.43107777 C13.5289733,6.76771777 13.8602213,6.03069492 13.9042682,5.52787092 L13.905699,5.52787092 C13.9788194,4.70877835 13.5160041,4.16120806 12.8735927,3.88362749 C12.5037527,3.72383446 12.0775573,3.64825743 11.6538578,3.65638349 C11.2309298,3.66449597 10.8134533,3.75539377 10.460163,3.92848246 C9.86048526,4.22228669 9.45023269,4.76953503 9.55782812,5.5661396 L9.55800359,5.56611261 L9.558,5.56611429 Z M9.87187611,7.98794057 C9.32922926,7.20092229 8.91850354,6.26677029 8.83513783,5.66610857 L8.83513783,5.66467775 C8.67674846,4.49823318 9.27076869,3.70014746 10.1401687,3.27419546 C10.5904053,3.05360598 11.1155424,2.93789855 11.642435,2.92780346 C12.1685458,2.91772024 12.6994875,3.01228929 13.1621561,3.21219935 C14.0784761,3.60813078 14.737787,4.39875592 14.6314327,5.59060278 L14.63285,5.59072426 C14.5782627,6.21394255 14.1978672,7.08274598 13.6866329,7.83965112 C13.207106,8.54956769 12.6002763,9.17882026 12.0214134,9.44109226 L12.0212785,9.4408088 C11.9808916,9.46093479 11.941247,9.47657943 11.9029389,9.48698651 L11.9025745,9.48565018 C11.8477173,9.50057931 11.7946149,9.50857032 11.7442663,9.50857032 C11.6972383,9.50857032 11.6513575,9.5022396 11.6011842,9.491063 C11.5525362,9.48021037 11.5265383,9.47244884 11.499191,9.4638099 L11.4820482,9.45666929 C10.909127,9.24363877 10.3361099,8.66125443 9.87187446,7.98794472 L9.87187611,7.98794057 Z" id="Shape" fill="#66BB6A" fill-rule="nonzero"></path>
                    <path d="M10.3242514,5.14076571 C10.0400445,5.778144 10.2246339,6.54248571 11.1978069,6.92185371 C11.76552,5.86588114 10.4318057,4.97107886 10.3242514,5.14076571 Z" id="Shape" fill="#66BB6A"></path>
                    <path d="M13.1288571,5.14076571 C13.4130507,5.778144 13.2284746,6.54248571 12.2553017,6.92185371 C11.6875886,5.86588114 13.0213029,4.97107886 13.1288571,5.14076571 Z" id="Shape" fill="#66BB6A"></path>
                    <path d="M9.80084571,8.83830857 L10.0783574,8.83830857 C10.3294125,9.11526686 10.6133345,9.37282971 10.9188305,9.56975657 L9.80084537,9.56975657 C9.66614571,9.56975657 9.54989829,9.60440674 9.47114914,9.66018171 C9.42873737,9.69022896 9.40240217,9.72105909 9.40240217,9.74538309 L9.40240217,14.7041945 C9.40240217,14.8773645 9.51472149,15.0435555 9.69562594,15.1717077 C9.91289486,15.3256155 10.2201837,15.4211698 10.5649985,15.4211698 L12.8880991,15.4211698 C13.2329139,15.4211698 13.5402031,15.3256152 13.7574579,15.1717077 C13.9383758,15.0435411 14.0506954,14.8773634 14.0506954,14.7041945 L14.0506954,9.74538309 C14.0506954,9.72108614 14.0243467,9.6902424 13.9819351,9.66019509 C13.9031859,9.6044064 13.7869385,9.56975623 13.6522522,9.56975623 L12.5392077,9.56975623 C12.837156,9.3733152 13.1179197,9.1155768 13.3696899,8.83830823 L13.6522502,8.83830823 C13.9378608,8.83830823 14.2037359,8.92548034 14.401945,9.06591669 C14.6365323,9.2320944 14.7821393,9.47197269 14.7821393,9.74538069 L14.7821393,14.7041921 C14.7821393,15.1264858 14.5505489,15.5016847 14.1774696,15.765983 C13.8407407,16.0045385 13.3838376,16.1526161 12.888097,16.1526161 L10.5649965,16.1526161 C10.0692559,16.1526161 9.61234046,16.0045262 9.27561017,15.765983 C8.90254389,15.5016861 8.67095417,15.1264858 8.67095417,14.7041921 L8.67095417,9.74538069 C8.67095417,9.47195897 8.81654709,9.23207897 9.05113474,9.06590297 C9.24937097,8.92549337 9.51523303,8.83830789 9.80084331,8.83830789 L9.80084571,8.83830857 Z" id="Shape" fill="#212121" fill-rule="nonzero"></path>
                    <path d="M11.0019086,15.7868914 C11.0019086,15.5849163 10.8381607,15.4211691 10.6361863,15.4211691 C10.4342112,15.4211691 10.270464,15.584917 10.270464,15.7868914 L10.270464,20.1142971 C10.270464,20.3162722 10.4342119,20.4800194 10.6361863,20.4800194 C10.8381614,20.4800194 11.0019086,20.3162715 11.0019086,20.1142971 L11.0019086,15.7868914 Z" id="Shape" fill="#212121" fill-rule="nonzero"></path>
                    <path d="M13.1826514,15.7868914 C13.1826514,15.5849163 13.0189035,15.4211691 12.8169291,15.4211691 C12.6149541,15.4211691 12.4512069,15.584917 12.4512069,15.7868914 L12.4512069,20.1142971 C12.4512069,20.3162722 12.6149547,20.4800194 12.8169291,20.4800194 C13.0189042,20.4800194 13.1826514,20.3162715 13.1826514,20.1142971 L13.1826514,15.7868914 Z" id="Shape" fill="#212121" fill-rule="nonzero"></path>
                    <path d="M14.6572457,9.36363429 C14.5176058,9.21847337 14.2866891,9.2140056 14.1415303,9.35364552 C13.9963694,9.49328541 13.9919016,9.72420209 14.1315415,9.86936095 C14.4313389,10.1823734 14.6474729,10.7099678 14.8605449,11.2301404 C15.0068668,11.5873598 15.1519197,11.9414627 15.3300707,12.2498558 C15.8420215,13.1361141 16.5485507,13.6285735 17.9493107,12.8194169 C18.1236683,12.7184359 18.183142,12.4952009 18.0821609,12.3208444 C17.9811799,12.1464868 17.7579449,12.0870131 17.5835884,12.1879941 C16.6988421,12.6990809 16.2665301,12.4122011 15.9614969,11.8841335 C15.8059965,11.6149368 15.6710133,11.2854158 15.5348421,10.9529918 C15.295679,10.3691232 15.0530729,9.77688552 14.6572478,9.36363295 L14.6572457,9.36363429 Z" id="Shape" fill="#212121" fill-rule="nonzero"></path>
                    <path d="M9.32694857,9.85470857 C9.46658846,9.70954766 9.46212069,9.478632 9.31695981,9.33899314 C9.17179889,9.19935326 8.94088323,9.20382103 8.80124438,9.34898191 C8.41123752,9.75615905 8.16440781,10.3388413 7.92023523,10.9153248 C7.78471203,11.2353024 7.65003946,11.5532276 7.49549695,11.8207385 C7.17499306,12.3755739 6.72915638,12.6889762 5.82212438,12.1650253 C5.64776678,12.0640443 5.42453009,12.123518 5.32355181,12.2978756 C5.22257078,12.4722332 5.28204449,12.6954699 5.45640209,12.7964482 C6.88240323,13.6201831 7.60061009,13.0975549 8.12692323,12.1864608 C8.29989055,11.8870546 8.44532129,11.5437236 8.59166952,11.1981956 C8.80914072,10.6847602 9.02895981,10.1658185 9.32695066,9.85470991 L9.32694857,9.85470857 Z" id="Shape" fill="#212121" fill-rule="nonzero"></path>
                </g>
            </g>
        </g>
    </g>
</svg>