<?xml version="1.0" encoding="UTF-8"?>
<svg width="24px" height="24px" viewBox="0 0 24 24" version="1.1" xmlns="http://www.w3.org/2000/svg" xmlns:xlink="http://www.w3.org/1999/xlink">
    <!-- Generator: Sketch 49.2 (51160) - http://www.bohemiancoding.com/sketch -->
    <title>astronaut-helmet</title>
    <desc>Created with Sketch.</desc>
    <defs></defs>
    <g id="astronaut-helmet" stroke="none" stroke-width="1" fill="none" fill-rule="evenodd">
        <g id="Group">
            <g id="Layer_x0020_1">
                <g>
                    <g id="_258303872">
                        <rect id="_258297176" x="0" y="0" width="23.4056914" height="23.4056914"></rect>
                        <rect id="_258303512" x="2.92570629" y="2.92570629" width="17.5542857" height="17.5542857"></rect>
                    </g>
                    <path d="M18.10128,18.8140457 C18.1034937,18.5410694 18.1219459,18.2972366 18.1402766,18.0548057 C18.1841866,17.4738926 18.2273811,16.9014686 18.0167805,16.3706331 C18.1894642,16.1559291 18.3501617,15.93168 18.4962799,15.6989966 C18.9910467,16.4922103 18.9305222,17.293632 18.8688593,18.1090937 C18.8502991,18.3544526 18.8316309,18.6011897 18.8298627,18.819768 C18.8271901,19.1507602 18.6335839,19.441272 18.2870959,19.6896 C17.721409,20.0949943 16.6694993,20.4288617 15.3877793,20.6542697 C14.1408867,20.8735632 12.6557736,20.9953855 11.182705,20.9834126 C8.28802046,20.959885 5.4338136,20.4022011 4.45022503,19.0297611 C4.03449017,18.4496571 3.94270046,17.7398366 4.10511531,17.0260046 C4.2246024,16.50084 4.48393131,15.9726103 4.85296217,15.4965909 C4.97902286,15.7269261 5.11715109,15.9511337 5.26698274,16.1683474 C5.04903909,16.4961134 4.89453703,16.8432617 4.8165576,17.1860126 C4.69918971,17.7018377 4.75874434,18.2053097 5.04450377,18.6040491 C5.87366606,19.7610446 8.4953952,20.2329326 11.1884352,20.254824 C12.6093483,20.2663786 14.0483232,20.1477285 15.2620923,19.9342659 C16.4410341,19.726932 17.3864969,19.4356659 17.8614226,19.0953185 C18.0150874,18.9851859 18.1007071,18.8892936 18.1013146,18.8140406 L18.10128,18.8140457 Z" id="Shape" fill="#66BB6A" fill-rule="nonzero"></path>
                    <path d="M3.36005143,10.7461029 C3.36006857,8.72622857 4.17882171,6.89753143 5.50253486,5.57379429 C6.82626171,4.25008114 8.65495886,3.431328 10.6748091,3.431328 L10.6748091,4.162776 C8.85684343,4.162776 7.210992,4.89963429 6.01966629,6.09094286 C4.82835771,7.28226514 4.09149943,8.92811314 4.09149943,10.7460857 L3.36005143,10.7461029 Z" id="Shape" fill="#66BB6A" fill-rule="nonzero"></path>
                    <path d="M11.63832,4.50233143 C13.2127509,4.70068903 14.8180903,5.61258171 16.13352,6.92799086 C17.4324103,8.22688114 18.4581463,9.92754514 18.8973669,11.7270651 C18.9835402,12.0801017 19.0244805,12.4300046 19.0244805,12.7740343 C19.0244805,14.1907371 18.3475947,15.54972 17.287045,16.6446857 C16.2443273,17.7212434 14.8239147,18.5457086 13.3142222,18.914184 C12.7460256,19.0528522 12.1675125,19.1275382 11.5940496,19.1275382 C9.57417531,19.1275382 7.74547817,18.308785 6.42177531,16.9850719 C5.09804846,15.661345 4.27930903,13.8326479 4.27930903,11.8127633 C4.27930903,11.5667702 4.29622241,11.3140022 4.32871269,11.0560742 C4.55156983,9.28705131 5.52987497,7.64275646 6.8073264,6.44354846 C8.09374354,5.23594731 9.69336069,4.47037817 11.144915,4.47037817 C11.3034528,4.47037817 11.4680242,4.48086638 11.6383447,4.50231518 L11.63832,4.50233143 Z M15.6163543,7.44513943 C14.4082697,6.23706857 12.9546206,5.402184 11.5497257,5.22519429 C11.4251767,5.20950926 11.2898966,5.20184222 11.1448697,5.20184222 C9.87962057,5.20184222 8.46328114,5.88982279 7.30726971,6.97499307 C6.14229943,8.06861136 5.25159771,9.55647765 5.05151314,11.1446845 C5.0246785,11.3577959 5.01069429,11.5805862 5.01069429,11.8127965 C5.01069429,13.6307759 5.74755257,15.2766479 6.93886114,16.4679394 C8.13018343,17.6592479 9.77601771,18.3961062 11.594004,18.3961062 C12.1147697,18.3961062 12.6354531,18.3294246 13.142748,18.2056179 C14.5182943,17.8698877 15.8130771,17.1180716 16.7641423,16.136139 C17.6973754,15.1726144 18.2930006,13.990731 18.2930006,12.7740476 C18.2930006,12.4808509 18.2594168,12.1880327 18.1887531,11.898507 C17.7828309,10.2353927 16.8279223,8.65672416 15.6163406,7.44513559 L15.6163543,7.44513943 Z" id="Shape" fill="#212121" fill-rule="nonzero"></path>
                    <path d="M14.1529029,5.87571429 C14.2783426,5.71791909 14.2521288,5.48828571 14.0943336,5.36284457 C13.9365384,5.2374048 13.706905,5.26361863 13.5814639,5.42141383 L9.50499531,10.531151 L9.50444188,10.5307055 C9.48604369,10.5537606 9.47091207,10.5783682 9.45893891,10.6039607 C9.22132828,11.0173607 9.13434508,11.372475 9.1978412,11.6692624 C9.27193331,12.0156819 9.51525388,12.2504876 9.92749263,12.3737653 L17.2961441,15.8805082 C17.4783983,15.9672887 17.6965189,15.889903 17.7832995,15.7076488 C17.8700801,15.5253946 17.7926943,15.307274 17.6104402,15.2204934 L10.2318802,11.7090191 C10.2093515,11.6972891 10.1852838,11.6877053 10.1598126,11.6806862 L10.1595157,11.6817525 C10.0091444,11.6402452 9.92662926,11.5856041 9.91213224,11.5178291 C9.88713336,11.4009608 9.94620198,11.2180451 10.089446,10.9691377 L14.1529202,5.87572054 L14.1529029,5.87571429 Z" id="Shape" fill="#212121" fill-rule="nonzero"></path>
                    <path d="M12.8290629,5.29453714 C12.9521403,5.13517611 12.9227143,4.90618971 12.7633529,4.78311429 C12.6039919,4.6600368 12.3750055,4.68946286 12.2519301,4.84882423 C11.3366763,6.03326194 10.5322718,7.02774994 9.85602034,7.8638208 C7.89418834,10.2892642 6.96557349,11.4373522 7.30324663,12.4353408 C7.6018968,13.3179819 8.83850263,13.8314311 11.1864466,14.8063042 C12.5154089,15.3581019 14.2183838,16.0651968 16.3328352,17.0741979 C16.5150895,17.1609785 16.7332101,17.0835928 16.8199906,16.9013386 C16.9067712,16.7190843 16.8293855,16.5009638 16.6471313,16.4141832 C14.5319462,15.4048323 12.8101142,14.6899101 11.466457,14.1320095 C9.31860446,13.2402038 8.18736446,12.7705032 7.9946856,12.2010621 C7.78571829,11.5834598 8.63352103,10.5352769 10.4245965,8.32094777 C11.0981222,7.48823691 11.899273,6.49778434 12.8290639,5.29453063 L12.8290629,5.29453714 Z" id="Shape" fill="#212121" fill-rule="nonzero"></path>
                    <path d="M15.0058629,8.66619429 C14.8512261,8.53679931 14.6209714,8.55726274 14.4915771,8.71189954 C14.3621822,8.86653634 14.3826456,9.09679097 14.5372824,9.22618526 C15.124919,9.71792811 15.4425213,10.2191613 15.4880904,10.7298435 C15.533809,11.2420378 15.3101421,11.7942401 14.8152127,12.3866527 C14.6858177,12.5412895 14.7062811,12.7715441 14.8609179,12.9009384 C15.0155547,13.0303334 15.2458094,13.0098699 15.3752037,12.8552331 C15.9986757,12.1089531 16.2774185,11.3795451 16.2138117,10.6669954 C16.1500862,9.95293371 15.7466208,9.28606286 15.0058608,8.66619429 L15.0058629,8.66619429 Z" id="Shape" fill="#66BB6A" fill-rule="nonzero"></path>
                    <path d="M10.69104,10.1149029 C10.9794449,10.1149029 11.2405817,10.2318387 11.4295989,10.4208826 C11.6186294,10.6099131 11.7355786,10.8710643 11.7355786,11.1594552 C11.7355786,11.4478467 11.6186427,11.7089866 11.4296122,11.8980278 C11.2405683,12.0870583 10.9794305,12.2039942 10.6910397,12.2039942 C10.4026481,12.2039942 10.1414979,12.0870583 9.95246709,11.8980278 C9.76343657,11.7089973 9.64648731,11.4478461 9.64648731,11.1594552 C9.64648731,10.8710503 9.7634232,10.6098998 9.95246709,10.4208826 C10.1414839,10.2318387 10.4026351,10.1149029 10.6910397,10.1149029 L10.69104,10.1149029 Z M10.9124527,10.9380309 C10.8558274,10.8813919 10.7775237,10.8463502 10.69104,10.8463502 C10.6045563,10.8463502 10.5262392,10.8813919 10.4696136,10.9380309 C10.4129746,10.9946561 10.3779329,11.0729736 10.3779329,11.1594573 C10.3779329,11.2459543 10.412988,11.3242581 10.4696136,11.3808837 C10.5262389,11.4375089 10.6045426,11.4725506 10.69104,11.4725506 C10.777537,11.4725506 10.8558408,11.4375089 10.9124664,11.3808837 C10.9690917,11.3242584 11.0041334,11.2459546 11.0041334,11.1594573 C11.0041334,11.0729602 10.9690783,10.9946565 10.9124527,10.9380309 Z" id="Shape" fill="#212121" fill-rule="nonzero"></path>
                </g>
            </g>
        </g>
    </g>
</svg>