<?xml version="1.0" encoding="UTF-8"?>
<svg width="24px" height="24px" viewBox="0 0 24 24" version="1.1" xmlns="http://www.w3.org/2000/svg" xmlns:xlink="http://www.w3.org/1999/xlink">
    <!-- Generator: Sketch 49.2 (51160) - http://www.bohemiancoding.com/sketch -->
    <title>astronaut</title>
    <desc>Created with Sketch.</desc>
    <defs></defs>
    <g id="astronaut" stroke="none" stroke-width="1" fill="none" fill-rule="evenodd">
        <g id="Group">
            <g id="Layer_x0020_1">
                <g>
                    <g id="_350174192">
                        <rect id="_350174600" x="0" y="0" width="23.4056914" height="23.4056914"></rect>
                        <rect id="_350174144" x="2.92570629" y="2.92570629" width="17.5542857" height="17.5542857"></rect>
                    </g>
                    <path d="M8.41608,5.07332571 L9.00923657,5.07332571 C9.00498459,5.135256 9.00278438,5.19751029 9.00278438,5.26006149 C9.00278438,5.44474526 9.02154703,5.6271072 9.05799261,5.80477234 L8.48922689,5.80477234 L8.48922689,7.70293234 C8.36222129,7.83213806 8.23984563,7.96775589 8.12124861,8.10155177 C8.04104163,8.19204446 7.96146895,8.28337406 7.88246335,8.37539211 C7.80433512,8.25980606 7.75777958,8.11792526 7.75777958,7.96696011 L7.75777958,5.77459097 C7.75777958,5.59222869 7.82571672,5.42310754 7.93516083,5.29761497 C8.05579512,5.15921691 8.22583341,5.07332709 8.41607969,5.07332709 L8.41608,5.07332571 Z M14.3964686,5.07332571 L14.9896251,5.07332571 C15.1798704,5.07332571 15.3499097,5.15921554 15.470544,5.2976136 C15.5799885,5.42310754 15.6479253,5.59222766 15.6479253,5.7745896 L15.6479253,7.96695874 C15.6479253,8.1278856 15.5949713,8.27852674 15.5073134,8.39798846 C15.4206271,8.29747989 15.3332931,8.19770057 15.2452437,8.09886583 C15.1386881,7.97928411 15.0293383,7.85832583 14.9164786,7.74163269 L14.9164786,5.8047744 L14.3477129,5.8047744 C14.3841583,5.6271096 14.4029211,5.44474697 14.4029211,5.26006354 C14.4029211,5.19751234 14.4007209,5.13525806 14.3964689,5.07332777 L14.3964686,5.07332571 Z" id="Shape" fill="#66BB6A" fill-rule="nonzero"></path>
                    <path d="M11.7028457,2.92570629 C12.3473897,2.92570629 12.9310183,3.18702 13.3534457,3.60944914 C13.7758766,4.03188 14.0371886,4.61550514 14.0371886,5.26004914 C14.0371886,5.90459314 13.7758749,6.488208 13.3534457,6.91066286 C12.9310149,7.33309371 12.3473897,7.59440571 11.7028457,7.59440571 C11.0582743,7.59440571 10.4746869,7.333092 10.052232,6.91066286 C9.62980114,6.48820457 9.36848914,5.90459314 9.36848914,5.26004914 C9.36848914,4.61550514 9.62980286,4.03187657 10.052232,3.60944914 C10.4746903,3.18701829 11.0583017,2.92570629 11.7028457,2.92570629 Z M12.8363006,4.12659771 C12.5462757,3.8365728 12.145512,3.65715429 11.7028457,3.65715429 C11.2601829,3.65715429 10.8594171,3.83656046 10.5693806,4.12659771 C10.2793557,4.41662263 10.0999371,4.81738629 10.0999371,5.26005257 C10.0999371,5.70271543 10.2793433,6.10348114 10.5693806,6.39351771 C10.8594189,6.683556 11.2601691,6.86296114 11.7028457,6.86296114 C12.1455086,6.86296114 12.5462743,6.6835416 12.8363006,6.39351771 C13.1263389,6.10347943 13.305744,5.70271543 13.305744,5.26005257 C13.305744,4.81738971 13.1263245,4.416624 12.8363006,4.12659771 Z" id="Shape" fill="#212121" fill-rule="nonzero"></path>
                    <path d="M9.24363429,7.57882286 L14.1308571,7.57882286 C14.4883337,7.57882286 16.6742091,10.3969063 17.7898286,11.8351543 C18.0825261,12.2125269 18.298728,12.4912389 18.3750754,12.5852023 L18.5967854,12.8580573 L18.3322183,13.0894858 L17.14284,14.1298275 L16.8524373,14.3838254 L16.6156903,14.0798297 L14.8346297,11.792904 L14.8346297,14.8986617 L14.8346297,15.264384 L14.4689074,15.264384 L8.90560457,15.264384 L8.53988229,15.264384 L8.53988229,14.8986617 L8.53988229,11.832912 L6.78998743,14.0798263 L6.55324046,14.3838219 L6.26283771,14.1298241 L5.07347314,13.0894824 L4.81064743,12.8595792 L5.02918526,12.5866299 C5.11753166,12.4762947 5.34222446,12.1830699 5.63938869,11.7952642 C6.75853269,10.3347751 8.87034411,7.57880709 9.24364011,7.57880709 L9.24363429,7.57882286 Z M14.1308571,8.31027086 L9.24363429,8.31027086 C9.22920459,8.31027086 7.26192,10.8775954 6.21937714,12.2381109 C6.06046149,12.445499 5.92226571,12.6258377 5.812848,12.767784 L6.45243771,13.3272343 L8.61844457,10.5460286 L9.27131657,10.7703165 L9.27131657,14.5329336 L14.1032023,14.5329336 L14.1032023,10.730305 L14.7560743,10.5060171 L16.9532503,13.3272446 L17.5916811,12.7688194 C17.4896205,12.6378723 17.3609006,12.471924 17.2127177,12.2808686 C16.1720126,10.939176 14.1328354,8.31027429 14.1308914,8.31027429 L14.1308571,8.31027086 Z" id="Shape" fill="#212121" fill-rule="nonzero"></path>
                    <path d="M12.7303886,14.53296 L14.4689314,14.53296 L14.8346537,14.53296 L14.8346537,14.8986823 L14.8346537,20.1142937 L14.8346537,20.480016 L14.4689314,20.480016 L12.7303886,20.480016 L12.3646663,20.480016 L12.3646663,20.1142937 L12.3646663,14.8986823 L12.3646663,14.53296 L12.7303886,14.53296 Z M14.1032091,15.264408 L13.0961143,15.264408 L13.0961143,19.748568 L14.1032091,19.748568 L14.1032091,15.264408 Z" id="Shape" fill="#212121" fill-rule="nonzero"></path>
                    <path d="M8.90561143,14.53296 L10.6441543,14.53296 L11.0098766,14.53296 L11.0098766,14.8986823 L11.0098766,20.1142937 L11.0098766,20.480016 L10.6441543,20.480016 L8.90561143,20.480016 L8.53988914,20.480016 L8.53988914,20.1142937 L8.53988914,14.8986823 L8.53988914,14.53296 L8.90561143,14.53296 Z M10.278432,15.264408 L9.27133714,15.264408 L9.27133714,19.748568 L10.278432,19.748568 L10.278432,15.264408 Z" id="Shape" fill="#212121" fill-rule="nonzero"></path>
                    <path d="M10.6290514,9.72641143 L12.7766606,9.72641143 L13.1423829,9.72641143 L13.1423829,10.0921337 L13.1423829,11.5238606 L13.1423829,11.8895829 L12.7766606,11.8895829 L10.6290514,11.8895829 L10.2633291,11.8895829 L10.2633291,11.5238606 L10.2633291,10.0921337 L10.2633291,9.72641143 L10.6290514,9.72641143 Z M12.4109383,10.4578594 L10.9947771,10.4578594 L10.9947771,11.1581383 L12.4109383,11.1581383 L12.4109383,10.4578594 Z" id="Shape" fill="#66BB6A" fill-rule="nonzero"></path>
                    <polygon id="Shape" fill="#212121" fill-rule="nonzero" points="17.5640914 12.2737371 16.3198286 13.2427543 15.8712343 12.6684343 17.1155314 11.6994171"></polygon>
                    <polygon id="Shape" fill="#212121" fill-rule="nonzero" points="6.95091429 13.0613143 5.66341714 12.1505486 6.08341714 11.55624 7.37094857 12.46704"></polygon>
                    <path d="M12.9444,7.02342857 L12.9444,8.302488 L12.9444,8.66821029 L12.5786777,8.66821029 L10.8269897,8.66821029 L10.4612674,8.66821029 L10.4612674,8.302488 L10.4612674,7.02342857 L10.4612674,6.43322743 L10.9898469,6.69628251 C11.0992101,6.75070766 11.2149717,6.7929168 11.3352686,6.82111474 C11.4519885,6.84846233 11.5750255,6.86294606 11.702856,6.86294606 C11.8306581,6.86294606 11.9536817,6.84846237 12.0704023,6.82111474 C12.1906992,6.79291677 12.3064474,6.75070766 12.415824,6.69628251 L12.9444034,6.43328126 L12.9444034,7.02342754 L12.9444,7.02342857 Z" id="Shape" fill="#212121" fill-rule="nonzero"></path>
                    <rect id="Rectangle-path" fill="#66BB6A" x="10.7105143" y="4.72316571" width="1.98467657" height="1" rx="0.097874"></rect>
                </g>
            </g>
        </g>
    </g>
</svg>