<?xml version="1.0" encoding="UTF-8"?>
<svg width="24px" height="24px" viewBox="0 0 24 24" version="1.1" xmlns="http://www.w3.org/2000/svg" xmlns:xlink="http://www.w3.org/1999/xlink">
    <!-- Generator: Sketch 49.2 (51160) - http://www.bohemiancoding.com/sketch -->
    <title>astronaut-2</title>
    <desc>Created with Sketch.</desc>
    <defs></defs>
    <g id="astronaut-2" stroke="none" stroke-width="1" fill="none" fill-rule="evenodd">
        <g id="Group">
            <g id="Layer_x0020_1">
                <g>
                    <g id="_258293744">
                        <rect id="_258294008" x="0" y="0" width="23.4056914" height="23.4056914"></rect>
                        <rect id="_258294056" x="2.92570629" y="2.92570629" width="17.5542857" height="17.5542857"></rect>
                    </g>
                    <path d="M5.32669714,7.01016 L5.84156229,6.71642331 C5.94829337,6.93814663 6.08414057,7.14294446 6.24497143,7.32595474 L5.75000229,7.60832606 L6.67046743,9.22173977 C6.58711543,9.51635383 6.52623806,9.82580263 6.4736352,10.1295158 C6.35945314,10.0672615 6.25848549,9.97140994 6.1880784,9.84800846 L5.1016944,7.94373531 L5.1016809,7.94370832 C5.0113233,7.78530557 4.9863513,7.60565666 5.01892273,7.44388089 C5.05511164,7.2639618 5.16065507,7.10489769 5.3266977,7.0101666 L5.32669714,7.01016 Z M10.5204686,4.047144 L11.0364274,3.7527864 L11.0364544,3.7527729 C11.2018223,3.6584601 11.3918499,3.64864684 11.5647527,3.70886284 C11.7205909,3.7631529 11.8628495,3.87671439 11.9539367,4.03637233 L11.9539637,4.03641283 L13.0403477,5.94068597 C13.1152229,6.07195705 13.1452027,6.2178198 13.1347414,6.35602997 C12.8543546,6.24978471 12.5626294,6.14430883 12.2713209,6.06452048 L11.334498,4.42239591 L10.8388534,4.70515843 C10.7620346,4.469883 10.6545746,4.24898357 10.5204687,4.04714357 L10.5204686,4.047144 Z" id="Shape" fill="#66BB6A" fill-rule="nonzero"></path>
                    <path d="M7.55166857,3.32371543 C8.16493714,3.12445337 8.80054629,3.19243097 9.33233829,3.4633824 C9.86436,3.73445554 10.2930686,4.20874697 10.4923029,4.82194697 C10.6915649,5.43521554 10.623601,6.07082469 10.3526493,6.60260297 C10.0815761,7.13462469 9.60727097,7.56334697 8.99407097,7.76258126 C8.3808024,7.96184331 7.74520697,7.89387943 7.21341497,7.62292766 C6.68139326,7.35185451 6.25268469,6.87753566 6.05343669,6.26434937 C5.85417463,5.6510808 5.92213851,5.01548537 6.19309029,4.48369337 C6.46416343,3.95167166 6.93848229,3.52296309 7.55166857,3.32371509 L7.55166857,3.32371543 Z M9.00090171,4.11481029 C8.63489486,3.92833097 8.19810171,3.88131634 7.77738857,4.01801383 C7.35659314,4.1547384 7.03087886,4.44936583 6.84451886,4.81512926 C6.65802617,5.18114983 6.61103863,5.61791554 6.74773611,6.03862869 C6.88447406,6.45943783 7.17908811,6.7851384 7.54485154,6.9714984 C7.91087211,7.15799109 8.34763783,7.20497863 8.76835097,7.06828114 C9.1891464,6.93155657 9.51486069,6.63692914 9.70122069,6.27116571 C9.8877,5.90515886 9.93470091,5.46837943 9.79800343,5.04766629 C9.66129257,4.62688457 9.36666514,4.30117029 9.00090171,4.11481029 Z" id="Shape" fill="#212121" fill-rule="nonzero"></path>
                    <path d="M7.28708571,8.77635429 L11.5321029,6.35459657 C11.6993064,6.25920411 12.2721223,6.41988789 13.016808,6.70242171 C13.6465029,6.94131497 14.4884606,7.28070171 15.2912743,7.60915886 C16.0200069,7.90729611 16.7748754,7.92076731 17.2397554,7.92902846 C17.4937128,7.9335504 17.6780846,7.93683048 17.8087783,7.9875168 L17.6773454,8.32751246 L17.8095885,7.98654514 C17.9978901,8.05957097 18.0913389,8.27145394 18.018313,8.45975657 C18.0158023,8.46622227 18.0131162,8.47256647 18.010295,8.4788027 L17.5040665,9.93907584 L17.1597796,9.82050658 L17.5053213,9.94029058 C17.4457938,10.1120432 17.2710717,10.2110668 17.0975922,10.1809249 L14.9393339,9.9429227 L14.9793296,9.58005984 L14.9392396,9.9435707 C14.8936153,9.93853584 14.8509066,9.92529398 14.8123691,9.90551904 L14.228864,9.66520841 L15.7684125,12.3638301 L15.7693304,12.3633037 C15.869407,12.5387279 15.808327,12.7621117 15.6329031,12.8621883 C15.6247636,12.8668317 15.6165027,12.8711241 15.6081742,12.8750791 L10.800117,15.6180426 L10.8006435,15.6189605 C10.6252192,15.719037 10.4018355,15.657957 10.3017589,15.4825331 C10.2971155,15.4743936 10.292823,15.4661327 10.288868,15.4578042 L8.78341317,12.8189391 L8.70780905,13.3431745 L8.34637934,13.2917459 L8.70835077,13.3439573 C8.70370735,13.3761642 8.69497395,13.4067649 8.68279845,13.4353407 L7.94595387,15.5106515 L7.60166702,15.3892208 L7.94630702,15.5115831 C7.8807997,15.696105 7.68225319,15.7952771 7.49675959,15.7395697 L5.98164302,15.4320783 L6.05307593,15.0749411 L5.98033365,15.4333469 C5.78239433,15.393176 5.65449799,15.2001365 5.69466885,15.0021971 C5.69686907,14.991331 5.69956872,14.9806808 5.70267336,14.9702466 C5.73293657,14.839664 5.80195347,14.6950565 5.89077233,14.5089563 C6.06511656,14.1437072 6.3307369,13.5872226 6.42492662,12.9118901 C6.5465329,12.0401415 6.68433713,11.0874992 6.80794262,10.3455769 C6.94808205,9.50442835 7.10865816,8.87813463 7.28709233,8.77635749 L7.28708571,8.77635429 Z M11.8921029,6.98888229 L7.64708571,9.41064 C7.600692,9.43709671 7.63466726,9.82495886 7.527936,10.4655737 C7.40468297,11.2054011 7.26810686,12.149352 7.14778286,13.0118811 C7.03886503,13.7927726 6.75185143,14.401896 6.55902857,14.805984 L7.36337829,14.969219 L7.99022743,13.2037344 L8.20929154,11.6848224 C8.21913182,11.5689799 8.28389657,11.4597514 8.39250411,11.3977944 C8.56792834,11.2977178 8.7912984,11.3588112 8.89137497,11.5342354 L8.5737192,11.7154502 L8.89086206,11.5354502 L10.7554666,14.8038627 L14.9542323,12.4084776 L13.0831786,9.12877817 C13.0169695,9.03065897 12.9995297,8.90230354 13.0479751,8.78465246 C13.1248749,8.59790331 13.3386477,8.50885509 13.5253968,8.58575486 L13.5249379,8.58686172 L15.0686727,9.22263201 L16.9112076,9.42582218 L17.1778397,8.65668732 C16.6579654,8.6471035 15.8451643,8.62226652 15.0169894,8.28344618 C14.2517974,7.97039326 13.4302088,7.63965646 12.759666,7.38526675 C12.2041414,7.17450423 11.9442865,6.95911246 11.8921037,6.98887589 L11.8921029,6.98888229 Z" id="Shape" fill="#212121" fill-rule="nonzero"></path>
                    <path d="M13.7857371,13.0750971 L15.2709566,12.2277943 L15.2704301,12.2268764 C15.434718,12.1331578 15.6410793,12.1807796 15.7488119,12.3312994 L17.3264279,14.3626319 L17.0378608,14.5869198 L17.3266977,14.3625915 C17.3540318,14.397795 17.3739149,14.4364004 17.3866168,14.4765579 L18.3746522,16.9389065 L18.3755431,16.9385555 C18.447948,17.1190146 18.3663237,17.3230938 18.1928839,17.4051635 L16.7067456,18.2529909 L16.707272,18.2539088 C16.5318478,18.3539854 16.308464,18.2929054 16.2083875,18.1174815 C16.1970624,18.0976255 16.187816,18.0771622 16.1805539,18.0563343 L15.1757939,15.5749263 L13.6546019,13.6305354 L13.6535356,13.6313723 C13.5290812,13.4722949 13.557144,13.2424318 13.7162219,13.1179781 C13.7381971,13.1007812 13.7615356,13.086527 13.7857382,13.0750938 L13.7857371,13.0750971 Z M15.356928,13.0184043 L14.4885291,13.5138192 L15.7634709,15.1434432 C15.7933426,15.1753532 15.818004,15.2131889 15.8353899,15.2561407 L15.8349985,15.2563027 L16.7080979,17.4125621 L17.5792259,16.9155804 L16.7193573,14.7726547 L15.3569322,13.0184021 L15.356928,13.0184043 Z" id="Shape" fill="#212121" fill-rule="nonzero"></path>
                    <path d="M10.46304,14.9706514 L11.9487737,14.12304 L11.9482473,14.1221221 C12.1236715,14.0220455 12.3470553,14.0831255 12.4471319,14.2585494 L12.4471993,14.2586709 L13.8479182,16.3788926 L13.5436256,16.5803281 L13.8487685,16.3787442 C13.8640081,16.4018128 13.8762646,16.4259882 13.8856863,16.450798 L15.0410189,18.8098437 L15.0423957,18.8091688 C15.1312279,18.9905591 15.056191,19.2096225 14.8748006,19.2984568 L14.8709266,19.3002926 L13.3845586,20.1482571 L13.3850716,20.1491615 C13.2096473,20.2492381 12.9862773,20.1881447 12.8862007,20.0127205 C12.8767114,19.9960906 12.8686799,19.9790152 12.8620522,19.9616698 L11.6882808,17.573776 L10.3152442,15.5029463 L10.3145828,15.5033783 C10.2029787,15.3350409 10.2489541,15.1080811 10.4172915,14.9964777 C10.4321261,14.9866509 10.4474062,14.978066 10.4630372,14.9706554 L10.46304,14.9706514 Z M12.0132686,14.9259045 L11.1390377,15.4246553 L12.2926457,17.164549 C12.3069134,17.1832577 12.3196153,17.2035861 12.3303871,17.2254939 L12.0021758,17.3868257 L12.3293208,17.2268301 L13.3596065,19.3228221 L14.2363094,18.8226826 L13.2294579,16.7667946 L12.0132751,14.9259089 L12.0132686,14.9259045 Z" id="Shape" fill="#212121" fill-rule="nonzero"></path>
                    <path d="M9.55460571,9.95523429 L11.419992,8.89104 L11.7360281,8.71074309 L11.9171349,9.02818286 L12.6266057,10.2717703 L12.8069026,10.5878198 L12.4894629,10.7689131 L10.6240629,11.8331074 L10.3080267,12.0134043 L10.12692,11.6959646 L9.41746286,10.4523771 L9.23716594,10.136341 L9.55460571,9.95523429 Z M11.4639566,9.70562366 L10.2320469,10.4084259 L10.5801154,11.0185231 L11.8120251,10.3157345 L11.4639566,9.70562366 Z" id="Shape" fill="#66BB6A" fill-rule="nonzero"></path>
                    <polygon id="Shape" fill="#212121" fill-rule="nonzero" points="16.7360229 8.38741714 16.3121829 9.90648 15.6093257 9.71218286 16.0331657 8.19312"></polygon>
                    <polygon id="Shape" fill="#212121" fill-rule="nonzero" points="7.98826286 14.5841143 6.41859429 14.4309943 6.48716571 13.7052686 8.05683429 13.8583886"></polygon>
                    <path d="M10.2245829,6.4608 L10.8583954,7.57179086 L11.0387061,7.88784034 L10.7212526,8.06893371 L9.19973486,8.93694171 L8.88369874,9.11725234 L8.702592,8.79979886 L8.06877943,7.68882171 L7.7773104,7.17790971 L8.36591726,7.14452839 C8.48709154,7.13767125 8.60877874,7.11678936 8.72859154,7.08127536 C8.84440697,7.04693582 8.9584272,6.99867902 9.06841166,6.9359389 C9.17715394,6.87390062 9.27638023,6.80038896 9.365388,6.71769833 C9.45754114,6.63207867 9.53747794,6.5380357 9.60457817,6.43794576 L9.93250629,5.94882233 L10.2245829,6.46080062 L10.2245829,6.4608 Z" id="Shape" fill="#212121" fill-rule="nonzero"></path>
                    <rect id="Rectangle-path" fill="#66BB6A" transform="translate(9.433635, 6.194482) rotate(-29.704487) translate(-9.433635, -6.194482) " x="7.75582587" y="4.51667273" width="1.98467757" height="1" rx="0.097874"></rect>
                    <path d="M8.04572571,17.5542514 C8.34864137,17.5542514 8.62293943,17.6770862 8.821488,17.8756327 C9.02003451,18.0741792 9.14286926,18.3484773 9.14286926,18.651395 C9.14286926,18.954324 9.02003451,19.2286224 8.821488,19.4271573 C8.62294149,19.6257038 8.34864343,19.7485385 8.04572571,19.7485385 C7.74279669,19.7485385 7.46849829,19.6257038 7.26996343,19.4271573 C7.07141691,19.2286241 6.94858217,18.9543264 6.94858217,18.651395 C6.94858217,18.3484793 7.07141691,18.0741813 7.26996343,17.8756327 C7.46849657,17.6770862 7.74279429,17.5542514 8.04572571,17.5542514 Z M8.30433977,18.3927806 C8.23819817,18.326639 8.14674686,18.2856984 8.04572571,18.2856984 C7.94473131,18.2856984 7.85325326,18.3266253 7.78711166,18.3927806 C7.72097006,18.4589222 7.68002949,18.5503735 7.68002949,18.6513946 C7.68002949,18.752389 7.72095634,18.8438671 7.78711166,18.9100087 C7.85325326,18.976164 7.94473131,19.0170909 8.04572571,19.0170909 C8.1467472,19.0170909 8.23819817,18.9761506 8.30433977,18.9100087 C8.37049509,18.8438671 8.41142194,18.752389 8.41142194,18.6513946 C8.41142194,18.5503731 8.37048171,18.4589222 8.30433977,18.3927806 Z" id="Shape" fill="#66BB6A" fill-rule="nonzero"></path>
                    <path d="M17.5542857,4.02284571 C17.8572147,4.02284571 18.1315131,4.14568046 18.330048,4.34422697 C18.5285945,4.54276011 18.6514293,4.81705783 18.6514293,5.11998926 C18.6514293,5.42290491 18.5285945,5.69720297 18.330048,5.89575154 C18.1315149,6.09429806 17.8572171,6.2171328 17.5542857,6.2171328 C17.2513701,6.2171328 16.977072,6.09429806 16.7785234,5.89575154 C16.5799769,5.69720503 16.4571422,5.42290697 16.4571422,5.11998926 C16.4571422,4.81706023 16.5799769,4.54276183 16.7785234,4.34422697 C16.9770699,4.14568046 17.251368,4.02284571 17.5542857,4.02284571 Z M17.8128998,4.86137486 C17.7467582,4.79521954 17.6552801,4.75429269 17.5542857,4.75429269 C17.4532642,4.75429269 17.3618133,4.79523291 17.2956717,4.86137486 C17.2295163,4.92751646 17.1885895,5.01899451 17.1885895,5.11998891 C17.1885895,5.2210104 17.2295297,5.31246137 17.2956717,5.37860297 C17.3618133,5.44474457 17.4532646,5.48568514 17.5542857,5.48568514 C17.6552801,5.48568514 17.7467582,5.44475829 17.8128998,5.37860297 C17.8790414,5.31246137 17.9199819,5.22101006 17.9199819,5.11998891 C17.9199819,5.01899451 17.8790551,4.92751646 17.8128998,4.86137486 Z" id="Shape" fill="#66BB6A" fill-rule="nonzero"></path>
                    <circle id="Oval" fill="#66BB6A" cx="18.4450286" cy="12.6406286" r="1"></circle>
                </g>
            </g>
        </g>
    </g>
</svg>