<?xml version="1.0" encoding="UTF-8"?>
<svg width="24px" height="24px" viewBox="0 0 24 24" version="1.1" xmlns="http://www.w3.org/2000/svg" xmlns:xlink="http://www.w3.org/1999/xlink">
    <!-- Generator: Sketch 49.2 (51160) - http://www.bohemiancoding.com/sketch -->
    <title>benchtrade</title>
    <desc>Created with Sketch.</desc>
    <defs>
        <path d="M1.47515844,1.09936614 L0.0302961039,9.72972811 L6.50337662,2.32420684 L3.59074286,0.264460384 C3.34687792,0.0919666389 3.07168831,0.0128807339 2.80210909,0.0128807339 C2.17944935,0.0127906589 1.58643117,0.434432027 1.47515844,1.09936614" id="path-1"></path>
        <path d="M6.36657025,0.0278074866 C5.83744835,0.0283636364 5.30628099,0.248042781 4.9267562,0.697411765 L0.0511363636,6.4701533 L10.4641736,14.0909804 L16.3176136,14.0911658 L7.96565083,0.904670232 C7.59923554,0.326181818 6.98643595,0.0283636364 6.37019628,0.0278074866 L6.36657025,0.0278074866 Z" id="path-3"></path>
        <polygon id="path-5" points="0.0291308691 7.54709091 16.322997 7.54727273 6.25324675 0.073"></polygon>
        <polygon id="path-7" points="0 0.0116967488 23.8931059 0.0116967488 23.8931059 10.2328842 0 10.2328842"></polygon>
    </defs>
    <g id="benchtrade" stroke="none" stroke-width="1" fill="none" fill-rule="evenodd">
        <g id="trade-icon" transform="translate(0.000000, 5.000000)">
            <g id="Group-3" transform="translate(1.090909, 4.363636)">
                <mask id="mask-2" fill="white">
                    <use xlink:href="#path-1"></use>
                </mask>
                <g id="Clip-2"></g>
                <path d="M1.47515844,1.09936614 L0.0302961039,9.72972811 L6.50337662,2.32420684 L3.59074286,0.264460384 C3.34687792,0.0919666389 3.07168831,0.0128807339 2.80210909,0.0128807339 C2.17944935,0.0127906589 1.58643117,0.434432027 1.47515844,1.09936614" id="Fill-1" stroke="#4A4A4A" mask="url(#mask-2)"></path>
            </g>
            <g id="Group-6" transform="translate(7.636364, 0.000000)">
                <mask id="mask-4" fill="white">
                    <use xlink:href="#path-3"></use>
                </mask>
                <g id="Clip-5"></g>
                <path d="M4.9267562,0.697411765 L0.0511363636,6.4701533 L10.4641736,14.0909804 L16.3176136,14.0911658 L7.96565083,0.904670232 C7.59923554,0.326181818 6.98643595,0.0283636364 6.37019628,0.0278074866 C5.83744835,0.0283636364 5.30628099,0.248042781 4.9267562,0.697411765 Z" id="Fill-4" stroke="#4A4A4A" mask="url(#mask-4)"></path>
            </g>
            <g id="Group-9" transform="translate(1.500000, 6.600000)">
                <mask id="mask-6" fill="white">
                    <use xlink:href="#path-5"></use>
                </mask>
                <g id="Clip-8"></g>
                <polygon id="Fill-7" stroke="#4A4A4A" mask="url(#mask-6)" points="0.0291308691 7.54709091 16.322997 7.54727273 6.25324675 0.073"></polygon>
            </g>
            <g id="Group-25" transform="translate(0.000000, 2.000000)">
                <g id="Group-12">
                    <mask id="mask-8" fill="white">
                        <use xlink:href="#path-7"></use>
                    </mask>
                    <g id="Clip-11"></g>
                    <path d="M21.1510093,0.220331136 C20.5149992,0.548885733 20.1883274,1.12234179 20.1726129,1.70586473 C20.1570888,2.2849333 19.9349901,2.84164091 19.4835544,3.23799108 L18.6861133,3.93804043 C18.3406793,4.2412051 17.8754339,4.36218589 17.4018074,4.35470254 C17.2536146,4.35238627 17.1053265,4.36913471 16.9611338,4.40503696 C16.6446526,4.48379029 16.3072187,4.38196331 16.0571195,4.18436729 L15.7404479,3.93420967 C15.3956805,3.66178018 15.1495814,3.27612052 15.1337716,2.85411316 C15.1129142,2.29696011 14.7369083,1.76760235 14.0890885,1.57160991 C13.5477467,1.40786714 12.9288798,1.5631466 12.5481119,1.95869498 C12.1789632,2.34212746 12.0804855,2.83273217 12.2051541,3.26721177 C12.3070605,3.62231443 12.2713456,3.99906535 12.0441992,4.29911196 L9.76940146,7.30376513 C9.59349393,7.53619434 9.32015629,7.70759864 9.01577054,7.71454746 C8.57566837,7.72773241 8.15232838,7.61958022 7.84079966,7.34225092 L6.95707146,6.55551945 C6.65792389,6.28914791 6.44877774,5.92629463 6.45715882,5.54001136 C6.46458751,5.19800455 6.30068017,4.8506525 5.94676983,4.61822328 C5.63752687,4.41519293 5.22237748,4.37216368 4.87313388,4.50695303 C4.47150851,4.66196523 4.22931422,4.96985153 4.15769404,5.30740397 C4.08035949,5.67212808 3.78873585,5.96558221 3.43349216,6.13235396 L2.17147229,6.72451838 C1.90146804,6.85128986 1.59117744,6.84505373 1.309173,6.74385037 C0.996977604,6.63168924 0.625066986,6.67079864 0.32782421,6.90910763 C0.0736297309,7.11302885 -0.0485626695,7.44425607 0.0178193282,7.7512515 C0.150297605,8.36337152 0.839451314,8.65263854 1.39460291,8.39793746 C1.6464164,8.2824801 1.81860959,8.0783807 1.89165836,7.84550605 C1.97518348,7.57975812 2.15471012,7.35000153 2.41938096,7.2257245 L3.79502167,6.58028577 C4.14855104,6.41431581 4.55122405,6.4307079 4.92551566,6.55079781 C5.04104129,6.5878582 5.16199557,6.60763562 5.2835213,6.60950646 C5.6816228,6.61556441 6.07058131,6.7187277 6.35887156,6.97547779 L7.25098085,7.76960352 C7.56165241,8.04613103 7.75851265,8.43704686 7.71060713,8.83562421 C7.65841584,9.2694802 7.84556164,9.72266817 8.2779494,10.0085499 C8.73643281,10.3117145 9.38006199,10.3069038 9.8344501,9.9983939 C10.340839,9.65460534 10.5036987,9.07616038 10.327696,8.57816142 C10.2341707,8.3137498 10.3103624,8.02189924 10.4824603,7.7946371 L12.7317338,4.82356991 C12.9740234,4.50347862 13.3636485,4.33171797 13.7809884,4.29305401 C14.2832821,4.24271959 14.7674802,4.42980328 15.1440575,4.72735544 L15.4127284,4.93956179 C15.6555894,5.13136712 15.7996869,5.41947601 15.7694959,5.71551368 C15.7146379,6.25182026 15.965499,6.8097751 16.5215078,7.14224954 C17.0389445,7.45165033 17.7301935,7.4483541 18.2442968,7.13405349 C18.7251615,6.83997575 18.9727845,6.37725542 18.98888,5.90892258 C19.0058326,5.41582342 19.2527889,4.95461758 19.6373664,4.61697606 L20.2911862,4.04307456 C20.7352884,3.65322778 21.332155,3.46596592 21.9402598,3.49652292 C22.4197911,3.52066563 22.9078941,3.37260225 23.2900906,3.04422583 C24.1565804,2.29981091 24.0981033,0.965458752 23.057325,0.303538835 C22.4975067,-0.052543791 21.7436853,-0.0857734181 21.1510093,0.220331136 Z" id="Fill-10" fill="#4A4A4A" mask="url(#mask-8)"></path>
                </g>
                <path d="M0.964948528,7.22852185 C0.883709154,7.22852185 0.805803165,7.25257547 0.739897365,7.29792099 C0.658372272,7.35440245 0.605038099,7.43716471 0.589990243,7.53097382 C0.574942387,7.6249611 0.599799921,7.71868112 0.660086585,7.79494 C0.78123135,7.94799227 1.0269495,7.98380544 1.19161876,7.86995165 C1.36000237,7.75351432 1.39600294,7.53043929 1.27152478,7.37266538 C1.19914269,7.28099437 1.08752189,7.22852185 0.964948528,7.22852185" id="Fill-13" fill="#FEFEFE"></path>
                <path d="M5.28854042,4.97267561 C5.12520452,4.97267561 4.97405928,5.03414596 4.86262895,5.14568348 C4.75662728,5.25205392 4.70129308,5.39058494 4.70672174,5.53597569 C4.71205515,5.68145554 4.77757999,5.81588853 4.89120083,5.91504289 C5.11901394,6.11388612 5.5015914,6.10096844 5.71388045,5.88831665 C5.81997736,5.7819462 5.87521633,5.64350427 5.86988291,5.49802443 C5.86454949,5.35290094 5.79902465,5.21820068 5.68540381,5.11931359 C5.57702115,5.0246136 5.43606655,4.97267561 5.28854042,4.97267561" id="Fill-15" fill="#FEFEFE"></path>
                <path d="M9.05027585,8.28548234 C8.80665296,8.28548234 8.57941129,8.39782165 8.44255199,8.58606347 C8.2155008,8.89884959 8.30274027,9.32646946 8.63703125,9.53903216 C8.96217922,9.7450024 9.43704384,9.65885481 9.65599967,9.35693737 C9.88314611,9.04424034 9.79590664,8.61679865 9.46161566,8.40414686 C9.33923278,8.32664076 9.19704006,8.28548234 9.05027585,8.28548234" id="Fill-17" fill="#FEFEFE"></path>
                <path d="M13.6464244,2.13770734 C13.3553722,2.13770734 13.0832727,2.28345445 12.9366037,2.51811085 C12.8260305,2.69512766 12.7959348,2.90181059 12.8514595,3.10003022 C12.9071747,3.29851711 13.0419387,3.46475433 13.2314655,3.56818488 C13.6106143,3.77540234 14.1345273,3.64382015 14.3539594,3.29263733 C14.4645325,3.11562053 14.4947235,2.90893759 14.4391988,2.71062888 C14.3832932,2.51214199 14.2487196,2.34599385 14.0593833,2.2425633 C13.9335718,2.17387686 13.7906172,2.13770734 13.6464244,2.13770734" id="Fill-19" fill="#FEFEFE"></path>
                <path d="M17.367883,4.96284035 C17.1139743,4.96284035 16.8749229,5.05540223 16.695301,5.22368847 C16.3251047,5.570506 16.3251047,6.13469696 16.6961582,6.48115814 C17.0562591,6.81737426 17.6825546,6.81621612 18.0409412,6.48035635 C18.2200869,6.31251555 18.3188504,6.08917326 18.3188504,5.85157697 C18.3184694,5.61406977 18.2192298,5.39081657 18.0396079,5.22306486 C17.859986,5.05522406 17.6217918,4.96284035 17.367883,4.96284035" id="Fill-21" fill="#FEFEFE"></path>
                <path d="M22.0290421,0.725492738 C21.7494187,0.725492738 21.4823669,0.823488957 21.277316,1.00148573 C21.0609316,1.18928212 20.9356916,1.44478499 20.924739,1.72095615 C20.9134055,1.99703823 21.0179786,2.26046988 21.2189341,2.46296571 C21.6209405,2.86875914 22.3483805,2.89414907 22.7815302,2.51811085 C22.9980098,2.33013628 23.1231546,2.07463341 23.1342024,1.79864043 C23.1455359,1.52246926 23.0409628,1.25903761 22.8400073,1.05663087 C22.6283849,0.842999113 22.3402851,0.725492738 22.0290421,0.725492738" id="Fill-23" fill="#FEFEFE"></path>
            </g>
        </g>
    </g>
</svg>