<svg xmlns="http://www.w3.org/2000/svg" viewBox="0 0 301.89 490.14"><defs><style>.cls-1{fill:#231f20;stroke:#231f20;stroke-miterlimit:10;stroke-width:9px;}</style></defs><title>Asset 3</title><g id="Layer_2" data-name="Layer 2"><g id="_3" data-name="3"><g id="logo"><path class="cls-1" d="M288.27,213.08,127,6.28,4.5,99.91V434.54l65.71,51.1H171.63L295.19,324.93l-91.12-52.54h0ZM271,205.48l-132-46-10.61-124Zm-110,253.1-14.49-35.15,10.88-7.18Zm-3.24-79.79,105.91-36.9L160.36,410Zm-12.63,41.29-13.3-32.26L154.22,380,157,412.21ZM130.4,384.53,115,347.15l34-28.52,4.94,57.71Zm-68.55,2.55-11-72L69.5,246.17l22.06,53.5-8.45,69.57Zm20.64-12.66-3.4,28-14.16,4.93-2.45-16.13Zm-21,34.11L27.85,420.26l31.43-26.37ZM109.37,153,105,189.24,88.61,175.51,96,148.27ZM96.9,144.82l24.43-90.34-11.51,94.84ZM92.44,292.45,71,240.53,87.58,179.3l16.88,14.16Zm1.9,13.95,16.36,39.69-23.59,19.8ZM85.6,173,27.86,124.54,92.6,147.1Zm-1,3.79L68.8,235.11,23.68,125.69Zm-17.3,64L49.54,306.35,23.26,134Zm19.21,130.3,25.65-21.51L127,385.7,82.84,401.1Zm58.26-143.79,53.78,45.12-46.58,39.1Zm3.86,87-35,29.4L95.21,299.18l12.51-103L140.88,224ZM111.43,194.66l-3.2-2.68,4.59-37.84,22.77,7.94L140.46,219Zm14.36-147.3,9.47,110.83-22-7.67Zm-2.9-12.31L93.53,143.65,22.82,119ZM21.05,143.17,47.23,314.88,21.05,411.72ZM48.57,323.61l10.08,66.16L22.48,420.12ZM22.82,425.79l39.24-13.68,8.15,53.44Zm49.66,31-7-45.9,13.13-4.57ZM82.36,405l46-16L142,422.07,74.92,466.34Zm-3.74,63.13,64.79-42.75,17.52,33.16Zm84.83-22L160.7,414l106.59-70.3ZM273,334.85,157.38,375.13l-5.07-59.3,49-41.11h0ZM201.3,270.08l-57-47.82-5-58.9L273,210Z"/></g></g></g></svg>