<?xml version="1.0" encoding="UTF-8"?>
<svg width="25px" height="24px" viewBox="0 0 25 24" version="1.1" xmlns="http://www.w3.org/2000/svg" xmlns:xlink="http://www.w3.org/1999/xlink">
    <!-- Generator: Sketch 49.2 (51160) - http://www.bohemiancoding.com/sketch -->
    <title>Page 1</title>
    <desc>Created with Sketch.</desc>
    <defs>
        <polygon id="path-1" points="0.0962929562 0.0482764103 6.10110145 0.0482764103 6.10110145 6.84102564 0.0962929562 6.84102564"></polygon>
        <polygon id="path-3" points="0 0.101186129 7.77502609 0.101186129 7.77502609 5.63047077 0 5.63047077"></polygon>
    </defs>
    <g id="Page-1" stroke="none" stroke-width="1" fill="none" fill-rule="evenodd">
        <g transform="translate(12.392305, 10.892305) rotate(-30.000000) translate(-12.392305, -10.892305) translate(0.392305, -0.607695)">
            <path d="M20.4463188,7.82225282 C20.2971014,7.90340154 20.1367536,7.94456564 19.9697971,7.94456564 C19.5936812,7.94456564 19.2501449,7.73544256 19.0732174,7.39869897 C18.8093333,6.89682718 18.9961159,6.27016564 19.4895652,6.00183231 C19.6387826,5.92056564 19.7991304,5.87940154 19.966087,5.87940154 C20.342087,5.87940154 20.6856232,6.08864256 20.8626667,6.42526821 C21.1264348,6.92714 20.9396522,7.55380154 20.4463188,7.82225282 M21.8196522,5.90476051 C21.4413333,5.18515538 20.7158841,4.77540154 19.966087,4.77540154 C19.631942,4.77540154 19.2930435,4.85678615 18.9776812,5.02828359 C18.0666087,5.52402205 17.6630145,6.60525795 17.9723478,7.57102205 L16.4029565,8.42473487 L14.4522319,4.98735538 L13.1129855,6.95072974 L14.8981449,10.0964221 L18.3204058,8.23483744 C18.7244638,8.75676051 19.338029,9.04856564 19.9697971,9.04856564 C20.303942,9.04856564 20.6427246,8.96729897 20.958087,8.79580154 C21.9806957,8.23943744 22.3664348,6.94506821 21.8196522,5.90476051" id="Fill-1" fill="#4A4A4A"></path>
            <path d="M22.6395826,12.2116908 C21.9561043,12.1239369 21.3243362,12.5264959 21.0814377,13.1490292 L18.9273507,12.8726754 L16.7729159,9.0764959 L14.8981333,10.0963985 L16.7452058,13.3508395 L20.9889159,13.8955267 C21.0721623,14.5599318 21.5859014,15.1094549 22.2693797,15.1972087 C23.0796986,15.3012395 23.8196406,14.7172754 23.9219014,13.8926959 C24.0240464,13.0683523 23.4500174,12.3156036 22.6395826,12.2116908" id="Fill-3" fill="#4A4A4A"></path>
            <path d="M20.7603942,16.1025005 L19.3914667,13.6904492 L16.7452058,13.3507569 L18.3168,16.1200749 L14.9819594,16.1200749 L18.3209739,19.9154287 C18.0805101,20.3454697 18.1225971,20.9006544 18.464742,21.2896492 C18.8932638,21.7766595 19.6288,21.8180595 20.1076406,21.382239 C20.5863652,20.9461826 20.6271768,20.1980338 20.1986551,19.7109056 C19.8563942,19.3219108 19.3186551,19.2181159 18.8719304,19.4136749 L17.8762203,18.281839 L19.5236406,18.281839 C20.622887,18.281839 21.3100754,17.0710954 20.7603942,16.1025005" id="Fill-5" fill="#4A4A4A"></path>
            <g id="Group-9" transform="translate(10.782609, 16.071810)">
                <mask id="mask-2" fill="white">
                    <use xlink:href="#path-1"></use>
                </mask>
                <g id="Clip-8"></g>
                <path d="M1.81576812,4.26683026 C2.21507246,4.26683026 2.55165217,4.55898923 2.61588406,4.96143026 C2.65078261,5.17939949 2.6,5.39807641 2.47304348,5.57724051 C2.3462029,5.75652256 2.15826087,5.87470718 1.94388406,5.91009179 C1.90005797,5.91740462 1.85542029,5.92106103 1.8115942,5.92106103 C1.41217391,5.92106103 1.07571014,5.62890205 1.01147826,5.22657897 C0.97657971,5.00860974 1.02736232,4.78981487 1.1542029,4.61065077 C1.28115942,4.43136872 1.46898551,4.31330205 1.68336232,4.27779949 C1.72730435,4.27048667 1.77182609,4.26683026 1.81576812,4.26683026 Z M4.19930435,0.0482764103 L0.633391304,0.0482764103 L1.17994203,3.47114821 C0.446608696,3.76684564 -0.0128695652,4.54943538 0.118724638,5.37401487 C0.255652174,6.23150205 0.984463768,6.84106103 1.8115942,6.84106103 C1.90307246,6.84106103 1.99571014,6.83363026 2.08892754,6.81817897 C3.02504348,6.66343026 3.66063768,5.76607641 3.50852174,4.81387641 C3.37692754,3.98917897 2.6973913,3.39554308 1.90991304,3.35119436 L1.72776812,2.21004051 L6.10110145,2.21004051 L4.19930435,0.0482764103 Z" id="Fill-7" fill="#4A4A4A" mask="url(#mask-2)"></path>
            </g>
            <path d="M7.77506087,16.1201221 L5.2981913,19.4965221 C4.81575652,19.3285631 4.26213333,19.4854349 3.94074203,19.9236144 C3.54213333,20.4668862 3.65204638,21.2360297 4.18607536,21.6414195 C4.72010435,22.0469272 5.47616232,21.9351118 5.87465507,21.39184 C6.19604638,20.9537785 6.18642319,20.3691067 5.89088696,19.9463785 L7.11210435,18.2817682 L11.7611478,18.2817682 L11.4159884,16.1201221 L7.77506087,16.1201221 Z" id="Fill-10" fill="#4A4A4A"></path>
            <g id="Group-14" transform="translate(0.000000, 12.651297)">
                <mask id="mask-4" fill="white">
                    <use xlink:href="#path-3"></use>
                </mask>
                <g id="Clip-13"></g>
                <path d="M5.49873623,3.46882462 L7.18511304,0.497342564 L2.25143188,0.839393846 C2.06534493,0.378332308 1.60586667,0.0682451282 1.09038841,0.10398359 C0.445750725,0.148686154 -0.0412057971,0.716491282 0.00273623188,1.37228615 C0.0466782609,2.02796308 0.604823188,2.52334769 1.24946087,2.47864513 C1.76493913,2.44290667 2.17885217,2.07219385 2.30175072,1.58990154 L4.18557681,1.45933231 L3.05514203,3.45125026 C2.50546087,4.41984513 3.19253333,5.63047077 4.29201159,5.63047077 L6.18928696,5.63047077 L7.77502609,3.46882462 L5.49873623,3.46882462 Z" id="Fill-12" fill="#4A4A4A" mask="url(#mask-4)"></path>
            </g>
            <path d="M3.71703188,8.01719846 C3.16561159,8.01719846 2.71703188,7.56073692 2.71703188,6.99977282 C2.71703188,6.43880872 3.16561159,5.98234718 3.71703188,5.98234718 C4.26856812,5.98234718 4.71714783,6.43880872 4.71714783,6.99977282 C4.71714783,7.56073692 4.26856812,8.01719846 3.71703188,8.01719846 Z M7.1852058,13.1485574 L8.7603942,10.3729882 L5.51853913,7.90255231 C5.65071304,7.62997282 5.7270029,7.32424974 5.7270029,6.99977282 C5.7270029,5.87053179 4.82717681,4.95501385 3.71703188,4.95501385 C2.6070029,4.95501385 1.70717681,5.87053179 1.70717681,6.99977282 C1.70717681,8.12901385 2.6070029,9.04453179 3.71703188,9.04453179 C4.2412058,9.04453179 4.71703188,8.83871128 5.07471304,8.50432667 L6.67517681,9.72391641 L4.63111884,13.3255985 L7.1852058,13.1485574 Z" id="Fill-15" fill="#4A4A4A"></path>
            <path d="M8.46924058,2.99752513 L9.28535652,5.12461231 L7.04755942,9.0677559 L8.76037101,10.3729764 L10.7486609,6.86954564 L9.15816812,2.72400205 C9.69231304,2.33229436 9.92187826,1.61080205 9.67132754,0.957955897 C9.3744,0.183858462 8.51677681,-0.198767179 7.75584928,0.103417436 C6.99492174,0.405484103 6.6188058,1.27795077 6.91584928,2.05204821 C7.16628406,2.70501231 7.81555942,3.07749436 8.46924058,2.99752513" id="Fill-17" fill="#4A4A4A"></path>
            <path d="M11.9077681,4.82722821 L13.1129855,6.95065897 L15.5728116,3.34473077 C15.9593623,3.43543333 16.3783768,3.28634615 16.6183768,2.93450513 C16.9329275,2.47344359 16.8204638,1.84017692 16.3672464,1.5203 C15.914029,1.20030513 15.2916522,1.31471538 14.9771014,1.77577692 C14.7371014,2.12761795 14.7463768,2.57912564 14.9652754,2.91575128 L14.0434203,4.26697179 L13.1445217,2.68327436 C12.8697391,2.19885897 12.3886957,1.95682821 11.9077681,1.95682821 C11.4268406,1.95682821 10.9457971,2.19885897 10.6710145,2.68327436 L9.75901449,4.29008974 L10.7486957,6.86951026 L11.9077681,4.82722821 Z" id="Fill-19" fill="#4A4A4A"></path>
            <polygon id="Fill-21" fill="#4A4A4A" points="11.9077681 8.20051436 15.4451594 14.4335144 8.37037681 14.4335144"></polygon>
        </g>
    </g>
</svg>