<?xml version="1.0" encoding="UTF-8"?>
<svg width="24px" height="24px" viewBox="0 0 24 24" version="1.1" xmlns="http://www.w3.org/2000/svg" xmlns:xlink="http://www.w3.org/1999/xlink">
    <!-- Generator: Sketch 49.2 (51160) - http://www.bohemiancoding.com/sketch -->
    <title>comet</title>
    <desc>Created with Sketch.</desc>
    <defs></defs>
    <g id="comet" stroke="none" stroke-width="1" fill="none" fill-rule="evenodd">
        <g id="Group">
            <g id="Layer_x0020_1">
                <g>
                    <g id="_259450368">
                        <rect id="_259449912" x="0" y="0" width="23.4056914" height="23.4056914"></rect>
                        <rect id="_259450536" x="2.92570629" y="2.92570629" width="17.5542857" height="17.5542857"></rect>
                    </g>
                    <path d="M7.28070857,11.7996 C8.15206629,11.7996 8.94098743,12.1528389 9.51204686,12.7238983 C10.0831063,13.2949577 10.4363451,14.0838789 10.4363451,14.9552366 C10.4363451,15.8265943 10.08312,16.6155154 9.51204686,17.1865749 C8.94098743,17.7576343 8.15206629,18.1108731 7.28070857,18.1108731 C6.40935086,18.1108731 5.62042971,17.757648 5.04937029,17.1865749 C4.47829714,16.6155154 4.125072,15.8265943 4.125072,14.9552366 C4.125072,14.0838789 4.47831086,13.2949577 5.04937029,12.7238983 C5.62042971,12.1528251 6.40935086,11.7996 7.28070857,11.7996 Z M8.99489829,13.2410434 C8.55624343,12.8023886 7.950168,12.5310446 7.28070857,12.5310446 C6.61124571,12.5310446 6.00517371,12.8023742 5.56651886,13.2410434 C5.127864,13.6796983 4.85652,14.2857737 4.85652,14.9552331 C4.85652,15.624696 5.1278496,16.230768 5.56651886,16.6694229 C6.00517371,17.1080914 6.61124914,17.3794217 7.28070857,17.3794217 C7.95017143,17.3794217 8.55624343,17.1080787 8.99489829,16.6694229 C9.43356686,16.230768 9.70489714,15.6246926 9.70489714,14.9552331 C9.70489714,14.2857703 9.43355417,13.6796983 8.99489829,13.2410434 Z" id="Shape" fill="#66BB6A" fill-rule="nonzero"></path>
                    <path d="M8.69177143,11.1615086 C8.55213154,11.3066695 8.55659931,11.5375851 8.70176019,11.677224 C8.84692111,11.8168639 9.07783677,11.8123961 9.21747562,11.6672352 L14.7744013,5.91419523 L14.4296551,7.44719866 L14.7853762,7.52720301 L14.4285751,7.44696895 C14.3842735,7.64401718 14.5080936,7.83970152 14.7051421,7.88400552 C14.8185415,7.90950384 14.9314954,7.87929459 15.0154008,7.81151969 L17.5083219,5.94923969 L16.9247105,7.19914255 L17.2547173,7.35342826 L16.9233473,7.19869718 C16.8379028,7.38170746 16.9169761,7.59935318 17.0999863,7.68480003 C17.1654936,7.71538721 17.2354419,7.72488998 17.3021773,7.71608911 L18.2192002,7.65156717 L17.3532288,9.06404259 L17.3524594,9.06357015 C17.2469026,9.23575473 17.3009094,9.46094844 17.4730936,9.56650387 C17.5620071,9.62100993 17.6650532,9.63296947 17.7584615,9.60807873 L18.4153312,9.4879169 L11.0221312,14.3494255 C10.8540774,14.459882 10.8073864,14.6856686 10.9178434,14.8537238 C11.0282999,15.0217776 11.2540864,15.0684686 11.4221416,14.9580116 L20.2852731,9.1299545 C20.422659,9.05734695 20.5034464,8.9017385 20.4740063,8.74078421 C20.437669,8.54211598 20.2471268,8.41050753 20.0484589,8.4468449 L20.1142631,8.80658775 L20.0485532,8.44801747 L18.4021086,8.74917838 L19.1984835,7.45023667 C19.2462675,7.38343335 19.2719547,7.30024353 19.2657455,7.21192387 C19.2515723,7.01044798 19.0767287,6.85860615 18.8752518,6.87277884 L18.8752923,6.87339976 L17.8471117,6.94575085 L18.768818,4.97178513 C18.8404131,4.84882902 18.8362961,4.6898729 18.7457764,4.56869828 C18.624899,4.40689405 18.3957124,4.3737017 18.2339078,4.49457908 L18.2340833,4.49480855 L15.3578342,6.64342912 L15.7647268,4.8340074 C15.8042229,4.70638089 15.7721373,4.56169243 15.6694828,4.4625354 C15.5242138,4.32222043 15.2926759,4.32622946 15.1523616,4.47149827 L15.4154033,4.72557702 L15.1525505,4.47271302 L8.69175052,11.1615473 L8.69177143,11.1615086 Z" id="Shape" fill="#212121" fill-rule="nonzero"></path>
                    <circle id="Oval" fill="#66BB6A" cx="7.62942857" cy="13.9090286" r="1"></circle>
                    <circle id="Oval" fill="#66BB6A" cx="6.40885714" cy="16.1758286" r="1"></circle>
                    <circle id="Oval" fill="#66BB6A" cx="8.39897143" cy="15.2319429" r="1"></circle>
                    <path d="M6.08132571,19.0458514 C5.209968,19.0458514 4.42104686,18.6926263 3.84998743,18.1215531 C3.27891429,17.5504937 2.92568914,16.7615726 2.92568914,15.8902149 C2.92568914,15.6849055 2.94719194,15.475872 2.989536,15.2662423 C3.03112423,15.0603929 3.09302743,14.85912 3.17457086,14.6655531 L3.84600514,14.9484237 C3.78310286,15.0977283 3.73553486,15.2520953 3.70381406,15.4091071 C3.67284891,15.5623536 3.6571368,15.7234965 3.6571368,15.8902145 C3.6571368,16.5596774 3.9284664,17.1657494 4.36713566,17.6044042 C4.80579051,18.0430728 5.41186594,18.3144031 6.08132537,18.3144031 L6.08132537,19.0458511 L6.08132571,19.0458514 Z" id="Shape" fill="#212121" fill-rule="nonzero"></path>
                </g>
            </g>
        </g>
    </g>
</svg>