<?xml version="1.0" encoding="UTF-8"?>
<svg width="24px" height="24px" viewBox="0 0 24 24" version="1.1" xmlns="http://www.w3.org/2000/svg" xmlns:xlink="http://www.w3.org/1999/xlink">
    <!-- Generator: Sketch 49.2 (51160) - http://www.bohemiancoding.com/sketch -->
    <title>constellation</title>
    <desc>Created with Sketch.</desc>
    <defs></defs>
    <g id="constellation" stroke="none" stroke-width="1" fill="none" fill-rule="evenodd">
        <g id="Group">
            <g id="Layer_x0020_1">
                <g>
                    <g id="_347237104">
                        <rect id="_347237440" x="0" y="0" width="23.4056914" height="23.4056914"></rect>
                        <rect id="_347237176" x="2.92570629" y="2.92570629" width="17.5542857" height="17.5542857"></rect>
                    </g>
                    <path d="M6.19998857,3.62461714 L6.56707543,4.83150171 L7.886712,4.84267831 L9.02814171,4.85235658 L8.09242629,5.50554058 L7.05873943,6.22713487 L7.456104,7.48624344 L7.80056914,8.57772915 L6.887544,7.88766744 L5.88084,7.12680915 L4.80673714,7.89337944 L3.87790629,8.55628001 L4.25102743,7.47767201 L4.66360457,6.28506744 L3.60185486,5.49982858 L2.68414629,4.82113258 L3.824712,4.84267587 L5.08717029,4.86654089 L5.50571314,3.61461175 L5.86767086,2.53196489 L6.1999992,3.62461289 L6.19998857,3.62461714 Z M5.94789394,5.29924457 L5.83519646,4.92870171 L5.6938152,5.351592 L5.60903246,5.60521166 L5.34238663,5.60016329 L4.95385063,5.59282022 L5.31245863,5.85803496 L5.52704126,6.01673462 L5.43959931,6.26946353 L5.3127288,6.63621439 L5.67599623,6.37695233 L5.89400743,6.22137062 L6.10741577,6.38266193 L6.414516,6.61476559 L6.28122,6.1924033 L6.20083749,5.93769027 L6.42121097,5.78383656 L6.73956857,5.56160033 L6.29359714,5.55782081 L6.02585794,5.55556659 L5.94789154,5.29924728 L5.94789394,5.29924457 Z" id="Shape" fill="#212121" fill-rule="nonzero"></path>
                    <polygon id="Shape" fill="#66BB6A" fill-rule="nonzero" points="7.58221714 6.30771429 9.37926857 7.25753143 7.75971429 7.22691429 7.75734857 7.22568 7.48834286 6.37323429"></polygon>
                    <polygon id="Shape" fill="#66BB6A" fill-rule="nonzero" points="13.0373486 9.10837714 15.7690629 10.5522171 14.1495086 10.5216 13.2572914 10.0500343 12.9740571 9.15253714"></polygon>
                    <path d="M11.6857029,6.40392 L12.0527897,7.61080457 L13.3724263,7.62198117 L14.5138423,7.63165944 L13.5781406,8.28484344 L12.5444537,9.00643773 L12.9418183,10.2655463 L13.2862697,11.357032 L12.3732583,10.6669703 L11.3665543,9.90611201 L10.2924514,10.6726823 L9.36362057,11.3355829 L9.73674171,10.2569749 L10.1493189,9.0643703 L9.08756914,8.27913144 L8.16986057,7.60043544 L9.31042629,7.62197873 L10.5728846,7.64584375 L10.9914274,6.39391461 L11.3533851,5.31126775 L11.6857135,6.40391575 L11.6857029,6.40392 Z M11.4336082,8.07854743 L11.3209107,7.70800457 L11.1795295,8.13089486 L11.0947467,8.38451451 L10.8281009,8.37946615 L10.4395649,8.37212307 L10.7981729,8.63733782 L11.0127555,8.79603747 L10.9253136,9.04876639 L10.7984431,9.41551725 L11.1617105,9.15625519 L11.3797217,9.00067347 L11.5931301,9.16196479 L11.9002303,9.39406845 L11.7669343,8.97170616 L11.6865518,8.71699313 L11.9069253,8.56313942 L12.2252829,8.34090319 L11.7793114,8.33712367 L11.5115722,8.33486945 L11.4336058,8.07855014 L11.4336082,8.07854743 Z" id="Shape" fill="#212121" fill-rule="nonzero"></path>
                    <path d="M17.9028686,9.69534857 L18.2699554,10.9022331 L19.589592,10.9134097 L20.731008,10.923088 L19.7953063,11.576272 L18.7616194,12.2978663 L19.158984,13.5569749 L19.5034354,14.6484469 L18.590424,13.9583989 L17.58372,13.1975406 L16.5096171,13.9641109 L15.5807726,14.6270012 L15.9539074,13.5484034 L16.3664846,12.3557989 L15.3047349,11.57056 L14.3870126,10.891864 L15.527592,10.9134073 L16.7900503,10.9372723 L17.2085931,9.68534318 L17.5705371,8.60269632 L17.9028792,9.69534432 L17.9028686,9.69534857 Z M17.6507739,11.369976 L17.5380765,10.9994331 L17.3966952,11.4223234 L17.3118987,11.6759431 L17.0452666,11.6708947 L16.6567306,11.6635516 L17.0153386,11.9287664 L17.2299079,12.0874527 L17.1424793,12.340195 L17.0156088,12.7069458 L17.3788762,12.4476838 L17.5968741,12.2920887 L17.8102958,12.4533934 L18.117396,12.685497 L17.9841,12.2631347 L17.9037041,12.008408 L18.124091,11.8545676 L18.4424486,11.6323314 L17.9964771,11.6285519 L17.7287246,11.6262977 L17.6507719,11.3699784 L17.6507739,11.369976 Z" id="Shape" fill="#212121" fill-rule="nonzero"></path>
                    <path d="M10.5616457,15.2453143 L11.4239314,16.2425691 L12.6884811,15.6941314 L13.7363691,15.2396571 L13.1456297,16.2169886 L12.4634914,17.3455166 L13.3747474,18.3774617 L14.1316114,19.2345497 L13.01904,18.9746126 L11.7359177,18.6748152 L11.0356526,19.8610461 L10.4538891,20.8465443 L10.3570793,19.7053443 L10.2457317,18.3926472 L8.90243451,18.0935112 L7.78773051,17.8452638 L8.83957166,17.4020729 L10.0538791,16.8904203 L9.92306709,15.5181689 L9.814716,14.3814501 L10.561644,15.2453163 L10.5616457,15.2453143 Z M11.0472343,16.9217897 L10.7571555,16.5863026 L10.8049666,17.0878581 L10.83033,17.3538693 L10.5835404,17.4578602 L10.1742855,17.6303013 L10.6659358,17.7397862 L10.9290043,17.7983554 L10.9516544,18.0655005 L10.9888558,18.5041279 L11.2436905,18.0724502 L11.3800369,17.8414941 L11.6408244,17.902439 L12.0721764,18.0032174 L11.7397263,17.6267499 L11.5616837,17.4251122 L11.6997173,17.1967478 L11.929148,16.8171741 L11.4672372,17.0175024 L11.2219863,17.123869 L11.0472372,16.9217859 L11.0472343,16.9217897 Z" id="Shape" fill="#212121" fill-rule="nonzero"></path>
                    <polygon id="Shape" fill="#66BB6A" fill-rule="nonzero" points="13.5917486 16.18584 17.79792 13.8178629 18.4335086 14.29824 12.9744 17.3716114 12.9154286 17.3048229"></polygon>
                </g>
            </g>
        </g>
    </g>
</svg>