<?xml version="1.0" encoding="UTF-8"?>
<svg width="24px" height="24px" viewBox="0 0 24 24" version="1.1" xmlns="http://www.w3.org/2000/svg" xmlns:xlink="http://www.w3.org/1999/xlink">
    <!-- Generator: Sketch 49.2 (51160) - http://www.bohemiancoding.com/sketch -->
    <title>dapps</title>
    <desc>Created with Sketch.</desc>
    <defs>
        <polygon id="path-1" points="0.0573387013 0.0595012987 4.25934909 0.0595012987 4.25934909 6.12633974 0.0573387013 6.12633974"></polygon>
        <polygon id="path-3" points="0.137114286 0.0595012987 0.708542857 0.0595012987 0.708542857 6.12620831 0.137114286 6.12620831"></polygon>
        <polygon id="path-5" points="0 0.0423916883 5.29452831 0.0423916883 5.29452831 4.87143584 0 4.87143584"></polygon>
        <polygon id="path-7" points="0.0369194805 0.0595012987 4.23916883 0.0595012987 4.23916883 6.12622026 0.0369194805 6.12622026"></polygon>
        <polygon id="path-9" points="0.117425455 0.0460836364 5.37172468 0.0460836364 5.37172468 5.52892519 0.117425455 5.52892519"></polygon>
    </defs>
    <g id="dapps" stroke="none" stroke-width="1" fill="none" fill-rule="evenodd">
        <g id="Page-1" transform="translate(2.000000, 0.000000)">
            <polygon id="Fill-4" fill="#4A4A4A" points="9.49164 22.0467008 9.49164 22.0467008 9.51392571 22.0598436 9.51335429 22.0598436"></polygon>
            <polygon id="Fill-6" fill="#4A4A4A" points="9.49164 22.0467008 9.49164 22.0467008 9.51392571 22.0592722 9.51335429 22.0592722"></polygon>
            <path d="M1.09218338,11.0841242 C1.09230286,13.0254436 0.703393766,14.875241 0.00037038961,16.5612306 L1.19480519e-05,16.5668462 L5.25428727,13.5333553 L1.09218338,11.0841242 Z" id="Fill-8" fill="#4A4A4A"></path>
            <path d="M1.09218338,11.0841242 L5.25428727,8.63525143 L0.00037038961,5.60188 L0.00037038961,5.60725662 C0.703393766,7.29336571 1.09230286,9.14340208 1.09218338,11.0841242" id="Fill-10" fill="#4A4A4A"></path>
            <path d="M5.25427532,13.5333673 C5.36073247,12.7262764 5.41414026,11.9091491 5.41414026,11.0841361 C5.41402078,10.25984 5.36061299,9.44235429 5.25427532,8.63526338 L1.09217143,11.0841361 L5.25427532,13.5333673 Z" id="Fill-12" fill="#4A4A4A"></path>
            <g id="Group-16" transform="translate(9.438961, 0.059979)">
                <mask id="mask-2" fill="white">
                    <use xlink:href="#path-1"></use>
                </mask>
                <g id="Clip-15"></g>
                <path d="M4.25934909,3.74628779 C2.57849714,2.77574753 1.17089714,1.51415273 0.0619984416,0.0623449351 L0.0573387013,0.0594774026 L0.0573387013,6.12633974 L4.25934909,3.74628779 Z" id="Fill-14" fill="#4A4A4A" mask="url(#mask-2)"></path>
            </g>
            <path d="M13.6983101,3.80626701 L13.7380971,8.63519169 L18.9923725,5.60182026 L18.9875932,5.59919169 C17.1756712,5.36500987 15.3791621,4.77680727 13.6983101,3.80626701" id="Fill-17" fill="#4A4A4A"></path>
            <path d="M9.49629974,6.18636675 C10.1419725,6.68185247 10.8227725,7.13695377 11.5375049,7.54940052 C12.2517595,7.96136935 12.9859673,8.32399273 13.7380971,8.63512 L13.6983101,3.80631481 L9.49629974,6.18636675 Z" id="Fill-19" fill="#4A4A4A"></path>
            <g id="Group-23" transform="translate(9.438961, 0.059979)">
                <mask id="mask-4" fill="white">
                    <use xlink:href="#path-3"></use>
                </mask>
                <g id="Clip-22"></g>
                <polygon id="Fill-21" fill="#4A4A4A" mask="url(#mask-4)" points="0.137114286 6.12620831 0.137114286 6.12620831 0.137114286 0.0594654545"></polygon>
            </g>
            <g id="Group-26" transform="translate(0.000000, 3.763875)">
                <mask id="mask-6" fill="white">
                    <use xlink:href="#path-5"></use>
                </mask>
                <g id="Clip-25"></g>
                <path d="M5.29452831,0.0423916883 C3.61331792,1.01293195 1.81668935,1.60101506 0.00500623377,1.8350774 L-1.19480519e-05,1.83782545 L5.25426338,4.87143584 C5.25426338,4.87143584 5.29405039,0.0423916883 5.29452831,0.0423916883" id="Fill-24" fill="#4A4A4A" mask="url(#mask-6)"></path>
            </g>
            <g id="Group-29" transform="translate(5.257143, 0.059979)">
                <mask id="mask-8" fill="white">
                    <use xlink:href="#path-7"></use>
                </mask>
                <g id="Clip-28"></g>
                <path d="M0.0369194805,3.74628779 L4.23916883,6.12622026 L4.23916883,0.0594774026 L4.23415065,0.062105974 C3.12572987,1.51415273 1.71812987,2.77574753 0.0369194805,3.74628779" id="Fill-27" fill="#4A4A4A" mask="url(#mask-8)"></path>
            </g>
            <path d="M5.25427532,8.63529922 C6.00616623,8.32393299 6.74085195,7.96130961 7.45534545,7.5492213 C8.1696,7.13665506 8.85063896,6.68167325 9.49631169,6.18618753 L5.29406234,3.80625506 L5.25427532,8.63529922 Z" id="Fill-30" fill="#4A4A4A"></path>
            <g id="Group-34" transform="translate(13.620779, 5.556083)">
                <mask id="mask-10" fill="white">
                    <use xlink:href="#path-9"></use>
                </mask>
                <g id="Clip-33"></g>
                <path d="M4.27940987,5.52892519 C4.27929039,3.58760571 4.66831896,1.73780831 5.37134234,0.0516992208 L5.37182026,0.0460836364 L0.117425455,3.07957455 L4.27940987,5.52892519 Z" id="Fill-32" fill="#4A4A4A" mask="url(#mask-10)"></path>
            </g>
            <path d="M17.9001891,11.0850083 L13.7382047,13.5337616 L18.992241,16.567133 L18.9921216,16.5616369 C18.2889787,14.8756473 17.9001891,13.0256109 17.9001891,11.0850083" id="Fill-35" fill="#4A4A4A"></path>
            <path d="M13.7381569,8.63565766 C13.6315803,9.44286805 13.5784114,10.2599953 13.5781725,11.0848888 C13.5784114,11.9094239 13.6318192,12.7266706 13.7381569,13.5337616 L17.9001413,11.0850083 L13.7381569,8.63565766 Z" id="Fill-37" fill="#4A4A4A"></path>
            <path d="M5.29406234,18.3627579 C6.97491429,19.3332982 8.38263377,20.594893 9.49141299,22.0467008 L9.49631169,22.0496878 L9.49607273,15.9828255 L5.29406234,18.3627579 Z" id="Fill-39" fill="#4A4A4A"></path>
            <path d="M5.29406234,18.3627579 L5.25427532,13.5338332 L0.000119480519,16.5670852 L0.0048987013,16.5699527 C1.8167013,16.8041345 3.61321039,17.3922177 5.29406234,18.3627579" id="Fill-41" fill="#4A4A4A"></path>
            <path d="M9.49613247,15.9828255 C8.85045974,15.4871008 8.16965974,15.0322384 7.45504675,14.6196722 C6.74067273,14.2077034 6.00658442,13.84508 5.25433506,13.5338332 L5.29412208,18.3627579 L9.49613247,15.9828255 Z" id="Fill-43" fill="#4A4A4A"></path>
            <polygon id="Fill-45" fill="#4A4A4A" points="9.49629974 15.9828255 9.49629974 15.9828255 9.49629974 22.0496878"></polygon>
            <path d="M13.6980114,18.3627579 C15.3792218,17.3923371 17.1757309,16.8041345 18.987414,16.5700722 L18.9924322,16.5674436 L13.7381569,13.5337138 C13.7381569,13.5337138 13.6982504,18.3627579 13.6980114,18.3627579" id="Fill-47" fill="#4A4A4A"></path>
            <path d="M13.6983101,18.3627579 L9.49629974,15.9828255 L9.49629974,22.0496878 L9.50107896,22.0469397 C10.6097387,20.594893 12.0170997,19.3334177 13.6983101,18.3627579" id="Fill-49" fill="#4A4A4A"></path>
            <path d="M13.7381569,13.5337735 C12.9861465,13.8450203 12.2518192,14.2076436 11.5372062,14.6198514 C10.8229517,15.0322982 10.1417932,15.4873995 9.49635948,15.9828852 L13.6983699,18.3628177 L13.7381569,13.5337735 Z" id="Fill-51" fill="#4A4A4A"></path>
            <polygon id="Fill-53" fill="#4A4A4A" points="9.4980561 13.7069844 7.22744831 12.3961636 7.22744831 9.77452208 9.4980561 11.0853429"></polygon>
            <polygon id="Fill-55" fill="#4A4A4A" points="9.49449558 13.7069844 11.7648644 12.3961636 11.7648644 9.77452208 9.49449558 11.0853429"></polygon>
            <polygon id="Fill-57" fill="#4A4A4A" points="11.7668358 9.77282545 9.49610857 8.46200468 7.22573974 9.77294494 9.49610857 11.0837657"></polygon>
        </g>
    </g>
</svg>