<?xml version="1.0" encoding="UTF-8"?>
<svg width="714px" height="762px" viewBox="0 0 714 762" version="1.1" xmlns="http://www.w3.org/2000/svg" xmlns:xlink="http://www.w3.org/1999/xlink">
    <!-- Generator: Sketch 49.2 (51160) - http://www.bohemiancoding.com/sketch -->
    <title>dbrowser-icon</title>
    <desc>Created with Sketch.</desc>
    <defs>
        <path d="M330.141463,0.61297235 C316.26556,0.644449309 302.40665,3.62316359 291.878229,9.54911521 L38.4841337,152.184468 C17.3185398,164.097668 0,193.343076 0,217.17279 L0,502.438525 C0,526.266583 17.3185398,555.515304 38.4841337,567.431818 L150.68591,630.58785 L291.878229,710.0622 C313.043823,721.978714 347.680902,721.978714 368.844797,710.0622 L622.240591,567.431818 C643.412982,555.515304 660.724725,526.266583 660.724725,502.438525 L660.724725,217.17279 C660.724725,193.343076 643.412982,164.097668 622.240591,152.184468 L368.844797,9.54911521 C358.318075,3.62316359 344.459165,0.644449309 330.583262,0.61297235 L330.141463,0.61297235 Z M309.825483,159.5683 C422.392594,159.5683 515.202771,249.395256 515.202771,359.806486 C515.202771,470.217717 423.072285,560.041359 309.825483,560.041359 L208.741761,560.041359 C173.859992,560.041359 145.520254,539.675767 145.520254,498.406161 L145.520254,221.206811 C145.520254,187.175249 173.812414,159.58321 208.714573,159.569956 L208.741761,436.76765 C208.741761,494.698507 218.575198,498.406161 271.961568,498.406161 L309.825483,498.431012 C388.224501,498.431012 452.008452,436.244138 452.008452,359.806486 C452.008452,283.367177 388.224501,221.180304 309.825483,221.180304 L255.596296,221.205154 C255.596296,190.410749 279.810306,159.5683 309.825483,159.5683 Z" id="path-1"></path>
        <linearGradient x1="0%" y1="-2.28385417%" x2="128.105164%" y2="120.364583%" id="linearGradient-3">
            <stop stop-color="#2DBFFF" offset="0%"></stop>
            <stop stop-color="#7875F5" offset="57.2649573%"></stop>
            <stop stop-color="#B543E9" offset="100%"></stop>
        </linearGradient>
        <path d="M0,108.209004 L0,327.808861 C0,351.350277 16.852813,380.247149 37.4492258,392.020312 L119.214802,438.747969 L203.128318,384.720394 L203.128318,384.718758 C169.184583,384.718758 141.606952,364.598155 141.606952,323.825005 L141.606952,49.960244 C141.606952,29.7430728 151.569491,11.8369966 166.891132,0.761090076 L166.891132,0.75781657 L0,108.209004 Z" id="path-4"></path>
        <linearGradient x1="50%" y1="3.73238801%" x2="50%" y2="97.8719745%" id="linearGradient-6">
            <stop stop-color="#0099DA" offset="0%"></stop>
            <stop stop-color="#78C479" offset="100%"></stop>
        </linearGradient>
    </defs>
    <g id="dbrowser-icon" stroke="none" stroke-width="1" fill="none" fill-rule="evenodd">
        <g id="Page-1" transform="translate(24.000000, 18.000000)">
            <g id="Group-3">
                <mask id="mask-2" fill="white">
                    <use xlink:href="#path-1"></use>
                </mask>
                <g id="Clip-2"></g>
                <path d="M330.141463,0.61297235 C316.26556,0.644449309 302.40665,3.62316359 291.878229,9.54911521 L38.4841337,152.184468 C17.3185398,164.097668 0,193.343076 0,217.17279 L0,502.438525 C0,526.266583 17.3185398,555.515304 38.4841337,567.431818 L150.68591,630.58785 L291.878229,710.0622 C313.043823,721.978714 347.680902,721.978714 368.844797,710.0622 L622.240591,567.431818 C643.412982,555.515304 660.724725,526.266583 660.724725,502.438525 L660.724725,217.17279 C660.724725,193.343076 643.412982,164.097668 622.240591,152.184468 L368.844797,9.54911521 C358.318075,3.62316359 344.459165,0.644449309 330.583262,0.61297235 L330.141463,0.61297235 Z M309.825483,159.5683 C422.392594,159.5683 515.202771,249.395256 515.202771,359.806486 C515.202771,470.217717 423.072285,560.041359 309.825483,560.041359 L208.741761,560.041359 C173.859992,560.041359 145.520254,539.675767 145.520254,498.406161 L145.520254,221.206811 C145.520254,187.175249 173.812414,159.58321 208.714573,159.569956 L208.741761,436.76765 C208.741761,494.698507 218.575198,498.406161 271.961568,498.406161 L309.825483,498.431012 C388.224501,498.431012 452.008452,436.244138 452.008452,359.806486 C452.008452,283.367177 388.224501,221.180304 309.825483,221.180304 L255.596296,221.205154 C255.596296,190.410749 279.810306,159.5683 309.825483,159.5683 Z" id="Fill-1" fill="url(#linearGradient-3)" mask="url(#mask-2)"></path>
            </g>
            <g id="Group-6" transform="translate(0.000000, 177.730337)">
                <mask id="mask-5" fill="white">
                    <use xlink:href="#path-4"></use>
                </mask>
                <g id="Clip-5"></g>
                <path d="M0,108.209004 L0,327.808861 C0,351.350277 16.852813,380.247149 37.4492258,392.020312 L119.214802,438.747969 L203.128318,384.720394 L203.128318,384.718758 C169.184583,384.718758 141.606952,364.598155 141.606952,323.825005 L141.606952,49.960244 C141.606952,29.7430728 151.569491,11.8369966 166.891132,0.761090076 L166.891132,0.75781657 L0,108.209004 Z" id="Fill-4" fill="url(#linearGradient-6)" mask="url(#mask-5)"></path>
            </g>
        </g>
    </g>
</svg>