<?xml version="1.0" encoding="UTF-8"?>
<svg width="24px" height="24px" viewBox="0 0 24 24" version="1.1" xmlns="http://www.w3.org/2000/svg" xmlns:xlink="http://www.w3.org/1999/xlink">
    <!-- Generator: Sketch 49.2 (51160) - http://www.bohemiancoding.com/sketch -->
    <title>dmemo-2</title>
    <desc>Created with Sketch.</desc>
    <defs>
        <polygon id="path-1" points="0 0.0373057258 13.9698387 0.0373057258 13.9698387 16.6643727 0 16.6643727"></polygon>
        <polygon id="path-3" points="0 0.0166785107 13.969854 0.0166785107 13.969854 16.6579388 0 16.6579388"></polygon>
    </defs>
    <g id="dmemo-2" stroke="none" stroke-width="1" fill="none" fill-rule="evenodd">
        <g id="Page-1" transform="translate(12.000000, 12.000000) rotate(90.000000) translate(-12.000000, -12.000000) translate(5.000000, 0.000000)">
            <g id="Group-3" transform="translate(0.000000, 7.000000)">
                <mask id="mask-2" fill="white">
                    <use xlink:href="#path-1"></use>
                </mask>
                <g id="Clip-2"></g>
                <path d="M11.4565321,4.24945853 C10.5321234,3.17838854 9.62988978,2.37169951 9.51042993,2.26603914 C9.50930584,2.26501679 8.66751752,1.52210565 6.98506496,0.0373057258 L4.4646562,2.26179637 C5.3887073,3.71113762 6.98506496,5.12009586 6.98506496,5.12009586 C6.98506496,5.12009586 8.58147372,6.52925856 9.51042993,7.97456151 C9.89129124,8.56716946 10.1598971,9.16616712 10.1598971,9.67652663 C10.1598971,11.430683 8.73853942,12.8530852 6.98506496,12.8530852 C5.2316927,12.8530852 3.80997737,11.430683 3.80997737,9.67652663 C3.80997737,9.16616712 4.07888978,8.56716946 4.46010876,7.97456151 C4.33998467,7.86859444 3.43805766,7.06180317 2.5137,5.9907843 C2.25837883,5.69501707 2.02385328,5.40528172 1.80879489,5.12009586 C0.57919635,6.74988272 -1.53284672e-05,8.21655289 -1.53284672e-05,9.67652663 C-1.53284672e-05,13.5297307 3.13342993,16.6643727 6.98506496,16.6643727 C10.8365467,16.6643727 13.9698387,13.5297307 13.9698387,9.67652663 C13.9698387,8.21655289 13.3907803,6.74988272 12.1611818,5.12009586 C11.9461745,4.8352167 11.7115978,4.54527688 11.4565321,4.24945853 Z" id="Fill-1" fill="#4A4A4A" mask="url(#mask-2)"></path>
            </g>
            <g id="Group-6">
                <mask id="mask-4" fill="white">
                    <use xlink:href="#path-3"></use>
                </mask>
                <g id="Clip-5"></g>
                <path d="M0,7.01064825 C0,8.47185973 0.579211679,9.93987564 1.80875912,11.5707372 C2.02381752,11.8561649 2.25839416,12.1461459 2.51366423,12.4421638 C3.43807299,13.5140907 4.33994891,14.3215148 4.46012409,14.4276229 C4.46087348,14.4283732 5.30252555,15.1718119 6.98508029,16.6579388 L9.50554015,14.4315623 C8.58148905,12.9810946 6.98508029,11.5707372 6.98508029,11.5707372 C6.98508029,11.5707372 5.38872263,10.1605845 4.46012409,8.71426091 C4.07890511,8.12084359 3.80994161,7.52138927 3.80994161,7.01064825 C3.80994161,5.25495361 5.23170803,3.83165249 6.98508029,3.83165249 C8.73850365,3.83165249 10.1599124,5.25495361 10.1599124,7.01064825 C10.1599124,7.52138927 9.89130657,8.12084359 9.51044526,8.71426091 C9.62990511,8.82001085 10.5321387,9.62738379 11.4565474,10.6993618 C11.7116131,10.9954309 11.9461898,11.2856166 12.1611971,11.5707372 C13.3907956,9.93987564 13.969854,8.47185973 13.969854,7.01064825 C13.969854,3.1540752 10.836562,0.0166733946 6.98508029,0.0166733946 C3.13344526,0.0166733946 0,3.1540752 0,7.01064825 Z" id="Fill-4" fill="#4A4A4A" mask="url(#mask-4)"></path>
            </g>
        </g>
    </g>
</svg>