<?xml version="1.0" encoding="UTF-8"?>
<svg width="24px" height="24px" viewBox="0 0 24 24" version="1.1" xmlns="http://www.w3.org/2000/svg" xmlns:xlink="http://www.w3.org/1999/xlink">
    <!-- Generator: Sketch 49.2 (51160) - http://www.bohemiancoding.com/sketch -->
    <title>dmemo</title>
    <desc>Created with Sketch.</desc>
    <defs>
        <polygon id="path-1" points="0 0.0170415225 11.1586474 0.0170415225 11.1586474 11.3573215 0 11.3573215"></polygon>
        <polygon id="path-3" points="0.0147276316 0.0109558442 8.96139868 0.0109558442 8.96139868 3.77922078 0.0147276316 3.77922078"></polygon>
        <path d="M0.0299990172,0.0169936999 L21.7709287,0.0169936999 L21.7709287,12.9090909 C21.9492037,12.9090909 19.5929699,12.9090909 14.7022272,12.9090909 C9.81148445,12.9090909 4.92074173,12.9090909 0.0299990172,12.9090909 L0.0299990172,0.0169936999 Z" id="path-5"></path>
    </defs>
    <g id="dmemo" stroke="none" stroke-width="1" fill="none" fill-rule="evenodd">
        <g id="Page-1" transform="translate(0.000000, 6.000000)">
            <path d="M3.86340158,5.81818182 C3.48700069,5.81818182 3.18181818,6.12375903 3.18181818,6.50001956 C3.18181818,6.87628008 3.48700069,7.18181818 3.86340158,7.18181818 C4.24027204,7.18181818 4.54545455,6.87628008 4.54545455,6.50001956 C4.54545455,6.12375903 4.24027204,5.81818182 3.86340158,5.81818182 Z" id="Fill-1" fill="#4A4A4A"></path>
            <path d="M6.40932569,5.81818182 C6.03245523,5.81818182 5.72727273,6.12375903 5.72727273,6.50001956 C5.72727273,6.87628008 6.03245523,7.18181818 6.40932569,7.18181818 C6.78572658,7.18181818 7.09090909,6.87628008 7.09090909,6.50001956 C7.09090909,6.12375903 6.78572658,5.81818182 6.40932569,5.81818182 Z" id="Fill-3" fill="#4A4A4A"></path>
            <path d="M9.04523932,5.81818182 C8.6687885,5.81818182 8.36363636,6.12375903 8.36363636,6.50001956 C8.36363636,6.87628008 8.6687885,7.18181818 9.04523932,7.18181818 C9.42161188,7.18181818 9.72727273,6.87628008 9.72727273,6.50001956 C9.72727273,6.12375903 9.42161188,5.81818182 9.04523932,5.81818182 Z" id="Fill-5" fill="#4A4A4A"></path>
            <path d="M14.9544868,5.81818182 C14.5779185,5.81818182 14.2727273,6.12375903 14.2727273,6.50001956 C14.2727273,6.87628008 14.5779185,7.18181818 14.9544868,7.18181818 C15.3311724,7.18181818 15.6363636,6.87628008 15.6363636,6.50001956 C15.6363636,6.12375903 15.3311724,5.81818182 14.9544868,5.81818182 Z" id="Fill-7" fill="#4A4A4A"></path>
            <path d="M17.4998434,5.81818182 C17.1229472,5.81818182 16.8181818,6.12375903 16.8181818,6.50001956 C16.8181818,6.87628008 17.1229472,7.18181818 17.4998434,7.18181818 C17.8763092,7.18181818 18.1818182,6.87628008 18.1818182,6.50001956 C18.1818182,6.12375903 17.8763092,5.81818182 17.4998434,5.81818182 Z" id="Fill-9" fill="#4A4A4A"></path>
            <path d="M20.0454545,5.81818182 C19.6691832,5.81818182 19.3636364,6.12375903 19.3636364,6.50001956 C19.3636364,6.87628008 19.6691832,7.18181818 20.0454545,7.18181818 C20.4221953,7.18181818 20.7272727,6.87628008 20.7272727,6.50001956 C20.7272727,6.12375903 20.4221953,5.81818182 20.0454545,5.81818182 Z" id="Fill-11" fill="#4A4A4A"></path>
            <g id="Group-15">
                <mask id="mask-2" fill="white">
                    <use xlink:href="#path-1"></use>
                </mask>
                <g id="Clip-14"></g>
                <path d="M1.86356418,6.47662001 C1.86356418,3.93706354 3.92523159,1.87816137 6.46815029,1.87816137 C8.01966693,1.87816137 9.3912508,2.64573765 10.2255562,3.82008493 C10.4588388,3.18061497 10.774489,2.58058352 11.1586474,2.03170808 C9.980383,0.791498899 8.31507955,0.0170415225 6.46815029,0.0170415225 C2.8959531,0.0170415225 -1.96862996e-05,2.90914596 -1.96862996e-05,6.47662001 C-1.96862996e-05,8.4266436 0.865980634,10.1729475 2.23370599,11.3573215 L2.66192238,9.06442277 C2.15850432,8.32708399 1.86356418,7.43655237 1.86356418,6.47662001" id="Fill-13" fill="#4A4A4A" mask="url(#mask-2)"></path>
            </g>
            <g id="Group-18" transform="translate(12.818182, 9.090909)">
                <mask id="mask-4" fill="white">
                    <use xlink:href="#path-3"></use>
                </mask>
                <g id="Clip-17"></g>
                <path d="M0.950688158,0.0109558442 C0.716332895,0.644579221 0.400385526,1.23908571 0.0147276316,1.78302078 C1.19601711,3.01185195 2.86563553,3.77922857 4.71774079,3.77922857 C6.34125395,3.77922857 7.82424079,3.18892987 8.96139868,2.21591688 L6.96675395,1.3570987 C6.30118816,1.72454026 5.53441184,1.93489091 4.71774079,1.93489091 C3.16176711,1.93489091 1.78721447,1.17433247 0.950688158,0.0109558442 Z" id="Fill-16" fill="#4A4A4A" mask="url(#mask-4)"></path>
            </g>
            <g id="Group-21" transform="translate(2.181818, 0.000000)">
                <mask id="mask-6" fill="white">
                    <use xlink:href="#path-5"></use>
                </mask>
                <g id="Clip-20"></g>
                <path d="M10.6289179,2.02739823 C10.30994,2.36236756 10.0256747,2.73104178 9.7847312,3.12859469 C9.19387125,4.10121033 8.85397936,5.2424289 8.85397936,6.46290694 C8.85397936,7.4506682 8.54003342,8.36517331 8.00833808,9.11409677 C7.17531597,10.2857243 5.80588108,11.0516768 4.25675086,11.0516768 C3.44291302,11.0516768 2.67931597,10.8398343 2.01643636,10.4697867 L0.0299990172,11.3346958 C1.16297199,12.3146096 2.639886,12.9090948 4.25675086,12.9090948 C6.1008,12.9090948 7.76358133,12.1362758 8.94003342,10.8987295 C9.2590113,10.5635248 9.54323735,10.1950468 9.7847312,9.79753308 C10.3755912,8.82468201 10.715483,7.68338497 10.715483,6.46290694 C10.715483,5.47487101 11.0288786,4.56091523 11.5610457,3.81199177 C12.3941464,2.64012882 13.7630703,1.87417635 15.3126722,1.87417635 C17.8512472,1.87417635 19.9101759,3.92872291 19.9101759,6.46290694 C19.9101759,7.42080857 19.6157287,8.30945626 19.1130457,9.04527444 L19.5406034,11.3333225 C20.9062644,10.1514148 21.7709327,8.40884449 21.7709327,6.46290694 C21.7709327,2.90297988 18.8794143,0.0169936999 15.3126722,0.0169936999 C13.4681514,0.0169936999 11.80537,0.789812711 10.6289179,2.02739823 Z" id="Fill-19" fill="#4A4A4A" mask="url(#mask-6)"></path>
            </g>
        </g>
    </g>
</svg>