<?xml version="1.0" encoding="UTF-8"?>
<svg width="24px" height="24px" viewBox="0 0 24 24" version="1.1" xmlns="http://www.w3.org/2000/svg" xmlns:xlink="http://www.w3.org/1999/xlink">
    <!-- Generator: Sketch 49.2 (51160) - http://www.bohemiancoding.com/sketch -->
    <title>dmusic</title>
    <desc>Created with Sketch.</desc>
    <defs>
        <polygon id="path-1" points="0 0.0012574741 16.8030115 0.0012574741 16.8030115 20.9950132 0 20.9950132"></polygon>
        <polygon id="path-3" points="0 0 16.8333333 0 16.8333333 21 0 21"></polygon>
    </defs>
    <g id="dmusic" stroke="none" stroke-width="1" fill="none" fill-rule="evenodd">
        <g id="Group">
            <path d="M24,18.5291675 L24,4.36767628 C24,3.277175 22.783472,2.6267108 21.8753103,3.23158854 L16.8851657,6.55538915 L20.2582859,8.80210915 L20.2580669,8.80225502 L20.2580669,18.3469675 C20.2580669,19.8009935 18.6360783,20.6683034 17.4250986,19.8617512 L10.5395678,15.2754607 L7.16666667,17.5220348 L15.5011681,23.0735185 C19.1340342,25.4932482 24,22.8913914 24,18.5291675" id="Fill-1" fill="#4A4A4A"></path>
            <g id="Group-5">
                <mask id="mask-2" fill="white">
                    <use xlink:href="#path-1"></use>
                </mask>
                <g id="Clip-4"></g>
                <path d="M3.73517092,15.1945135 L3.73517092,5.65263854 C3.73517092,4.19897188 5.35423153,3.33191979 6.56302518,4.13830521 L13.4361991,8.72315938 L16.8030115,6.47725313 L8.48348261,0.927419792 C4.85717453,-1.49151771 -7.28715729e-06,1.10956563 -7.28715729e-06,5.47049271 L-7.28715729e-06,19.627701 C-7.28715729e-06,20.717951 1.2143246,21.3682219 2.12084697,20.763451 L7.10198333,17.4406385 L3.73502518,15.1946594 L3.73517092,15.1945135 Z" id="Fill-3" fill="#4A4A4A" mask="url(#mask-2)"></path>
            </g>
            <mask id="mask-4" fill="white">
                <use xlink:href="#path-3"></use>
            </mask>
            <g id="Clip-4"></g>
            <path d="M3.7419169,15.1977751 L3.7419169,5.65306199 C3.7419169,4.19896295 5.36389848,3.33165298 6.57487293,4.13827824 L13.4604468,8.72449611 L16.8333333,6.47792184 L8.49879509,0.926437791 C4.86594473,-1.49321919 0,1.1086378 0,5.47086198 L0,19.6322812 C0,20.7228555 1.21652268,21.3733197 2.12468052,20.768369 L7.11480343,17.4445682 L3.74177089,15.197921 L3.7419169,15.1977751 Z" id="Fill-3" fill="#4A4A4A"></path>
            <polygon id="Fill-6" fill="#4A4A4A" points="10.4269457 15.2465199 20.1664472 8.7534801 20.1664472 8.75362642 20.1666667 8.75355326 16.7863809 6.5 13.4062414 8.7534801 13.4063145 8.75355326 3.66681299 15.2465199 3.66681299 15.2463736 3.66666667 15.2465199 7.04695248 17.5 10.427092 15.2465931"></polygon>
        </g>
    </g>
</svg>