<?xml version="1.0" encoding="UTF-8"?>
<svg width="24px" height="24px" viewBox="0 0 24 24" version="1.1" xmlns="http://www.w3.org/2000/svg" xmlns:xlink="http://www.w3.org/1999/xlink">
    <!-- Generator: Sketch 49.2 (51160) - http://www.bohemiancoding.com/sketch -->
    <title>docchain</title>
    <desc>Created with Sketch.</desc>
    <defs>
        <path d="M0,0 L0,10.0003418 L8.25069913,10.0003418 L8.25069913,19.9998323 L10.9320028,19.9998323 C15.4812642,19.9998323 19.1823826,16.4112122 19.1823826,12.0000387 C19.1823826,7.58894259 15.4812642,4.00016767 10.9320028,4.00016767 L5.15677674,4.00016767 L5.15677674,6.0003289 L10.9320028,6.0003289 C14.343889,6.0003289 17.1196081,8.69179401 17.1196081,12.0000387 C17.1196081,15.3083608 14.343889,17.9997485 10.9320028,17.9997485 L10.3133939,17.9997485 L10.3133939,8.00033535 L2.06261492,8.00033535 L2.06261492,2.00008384 L10.9320028,2.00008384 C13.6867318,2.00008384 16.2766527,3.04025125 18.2244208,4.92905165 C20.1722686,6.81777465 21.2449976,9.32900392 21.2449976,12.0000387 C21.2449976,14.6711509 20.1722686,17.1823801 18.2244208,19.0710257 C16.2766527,20.9598261 13.6867318,21.9999936 10.9320028,21.9999936 L6.18800439,21.9999936 L6.18800439,12.0000387 L4.12538947,12.0000387 L4.12538947,24 L10.9320028,24 C14.2377414,24 17.3455508,22.7518146 19.6829523,20.4853624 C22.0204335,18.2188329 23.3076923,15.2053578 23.3076923,12.0000387 C23.3076923,8.79471958 22.0204335,5.78124446 19.6829523,3.51479233 C17.3455508,1.24818542 14.2377414,0 10.9320028,0 L0,0 Z" id="path-1"></path>
    </defs>
    <g id="docchain" stroke="none" stroke-width="1" fill="none" fill-rule="evenodd">
        <g id="Page-1" transform="translate(0.692308, 0.000000)">
            <mask id="mask-2" fill="white">
                <use xlink:href="#path-1"></use>
            </mask>
            <g id="Clip-2"></g>
            <path d="M0,0 L0,10.0003418 L8.25069913,10.0003418 L8.25069913,19.9998323 L10.9320028,19.9998323 C15.4812642,19.9998323 19.1823826,16.4112122 19.1823826,12.0000387 C19.1823826,7.58894259 15.4812642,4.00016767 10.9320028,4.00016767 L5.15677674,4.00016767 L5.15677674,6.0003289 L10.9320028,6.0003289 C14.343889,6.0003289 17.1196081,8.69179401 17.1196081,12.0000387 C17.1196081,15.3083608 14.343889,17.9997485 10.9320028,17.9997485 L10.3133939,17.9997485 L10.3133939,8.00033535 L2.06261492,8.00033535 L2.06261492,2.00008384 L10.9320028,2.00008384 C13.6867318,2.00008384 16.2766527,3.04025125 18.2244208,4.92905165 C20.1722686,6.81777465 21.2449976,9.32900392 21.2449976,12.0000387 C21.2449976,14.6711509 20.1722686,17.1823801 18.2244208,19.0710257 C16.2766527,20.9598261 13.6867318,21.9999936 10.9320028,21.9999936 L6.18800439,21.9999936 L6.18800439,12.0000387 L4.12538947,12.0000387 L4.12538947,24 L10.9320028,24 C14.2377414,24 17.3455508,22.7518146 19.6829523,20.4853624 C22.0204335,18.2188329 23.3076923,15.2053578 23.3076923,12.0000387 C23.3076923,8.79471958 22.0204335,5.78124446 19.6829523,3.51479233 C17.3455508,1.24818542 14.2377414,0 10.9320028,0 L0,0 Z" id="Fill-1" fill="#4A4A4A" mask="url(#mask-2)"></path>
        </g>
    </g>
</svg>