<?xml version="1.0" encoding="UTF-8"?>
<svg width="24px" height="24px" viewBox="0 0 24 24" version="1.1" xmlns="http://www.w3.org/2000/svg" xmlns:xlink="http://www.w3.org/1999/xlink">
    <!-- Generator: Sketch 49.2 (51160) - http://www.bohemiancoding.com/sketch -->
    <title>dpages-2</title>
    <desc>Created with Sketch.</desc>
    <defs>
        <polygon id="path-1" points="0.0203271429 0.0108636364 8.92941429 0.0108636364 8.92941429 9.94063636 0.0203271429 9.94063636"></polygon>
        <polygon id="path-3" points="0.0673625 0.0823090909 10.9881125 0.0823090909 10.9881125 8.18181818 0.0673625 8.18181818"></polygon>
    </defs>
    <g id="dpages-2" stroke="none" stroke-width="1" fill="none" fill-rule="evenodd">
        <g id="Page-1" transform="translate(0.000000, 1.000000)">
            <g id="Group-3" transform="translate(15.000000, 4.000000)">
                <mask id="mask-2" fill="white">
                    <use xlink:href="#path-1"></use>
                </mask>
                <g id="Clip-2"></g>
                <path d="M1.38498429,0.0108636364 C1.40375571,0.163136364 1.41442714,0.317 1.41442714,0.472340909 C1.41442714,0.792795455 1.37238429,1.10734091 1.29357,1.41222727 L3.56568429,3.42040909 C2.63444143,3.452 1.76375571,3.78688636 1.10109857,4.37256818 C0.404112857,4.98870455 0.0203271429,5.80768182 0.0203271429,6.67893182 C0.0203271429,7.55018182 0.404112857,8.36915909 1.10109857,8.98518182 C1.79808429,9.60120455 2.72482714,9.94052273 3.71058429,9.94063636 C4.69621286,9.94063636 5.62295571,9.60131818 6.32007,8.98529545 L8.92955571,6.67893182 L1.38498429,0.0108636364 Z" id="Fill-1" fill="#010000" mask="url(#mask-2)"></path>
            </g>
            <path d="M14.9420608,2.34448132 L12.3874511,0 L5,6.77512624 C5.16952701,6.75804357 5.34069014,6.74846343 5.51361525,6.74846343 C5.86789776,6.74846343 6.2156358,6.78586063 6.55267614,6.85649978 L8.77867783,4.81500505 C8.81316217,5.65194056 9.18405757,6.43428077 9.83334477,7.02963497 C10.5156061,7.65534555 11.4227706,8 12.3877028,8 C13.3525091,8 14.2596737,7.65534555 14.941935,7.02963497 C15.6241962,6.4039244 15.9998741,5.5719521 16,4.68700043 C16,3.80216419 15.6243221,2.97019189 14.9420608,2.34448132" id="Fill-4" fill="#010000"></path>
            <path d="M9,10.95616 C9,10.1665255 8.61227493,9.42416405 7.90837084,8.86595107 C7.20446676,8.3075321 6.26852493,8.00010299 5.27298303,8 C4.27757098,8 3.34162916,8.3075321 2.63772507,8.86584808 L0,10.9547181 L7.62179709,17 C7.60270949,16.8618886 7.59206198,16.7222324 7.59206198,16.5813403 C7.59206198,16.2910077 7.63426247,16.0060307 7.71398892,15.729911 L5.41880194,13.9094363 C6.35967798,13.8809077 7.23887639,13.5773923 7.90837084,13.046369 C8.61227493,12.488053 9,11.7457945 9,10.95616" id="Fill-6" fill="#010000"></path>
            <g id="Group-10" transform="translate(8.000000, 13.000000)">
                <mask id="mask-4" fill="white">
                    <use xlink:href="#path-3"></use>
                </mask>
                <g id="Clip-9"></g>
                <path d="M10.9881125,1.32325714 C10.8212375,1.34020519 10.6526125,1.34967273 10.4824875,1.34967273 C10.1294875,1.34967273 9.7828625,1.31145195 9.4472375,1.23956883 L7.2396125,3.30384156 C7.2043625,2.45784156 6.8361125,1.66701039 6.1922375,1.06494545 C5.5144875,0.431322078 4.6136125,0.0823090909 3.6552375,0.0823090909 C2.6968625,0.0823090909 1.7958625,0.431322078 1.1183625,1.06494545 C0.4406125,1.69856883 0.0674875,2.54106234 0.0673625,3.43708831 C0.0673625,4.33323117 0.4406125,5.17572468 1.1182375,5.80934805 L3.6532375,8.18184156 L3.6543625,8.18078961 L3.6552375,8.18160779 L6.1922375,5.80934805 C6.2046125,5.79777662 6.2161125,5.78562078 6.2283625,5.77381558 L10.9881125,1.32325714 Z" id="Fill-8" fill="#010000" mask="url(#mask-4)"></path>
            </g>
            <path d="M23,11.4999358 L21.2426639,9.73217998 C20.7731564,9.2598886 20.1490176,9 19.4852003,9 C18.821383,9 18.1971166,9.2598886 17.7278643,9.73217998 C17.2583567,10.204343 17,10.8321826 17,11.4999358 C17,12.1676891 17.2583567,12.7955286 17.7278643,13.2676917 C18.1971166,13.7399831 18.821383,14 19.4852003,14 C20.1490176,14 20.7731564,13.7399831 21.2426639,13.2676917 L23,11.4999358 Z" id="Fill-11" fill="#4A4A4A"></path>
            <path d="M2,11.5000642 L3.75733606,13.26782 C4.22684358,13.7401114 4.85098239,14 5.51479969,14 C6.17861699,14 6.80275581,13.7401114 7.27213575,13.26782 C7.74151569,12.795657 8,12.1678174 8,11.5000642 C8,10.8323109 7.74151569,10.2044714 7.27213575,9.73230832 C6.80275581,9.26001694 6.17861699,9 5.51479969,9 C4.85098239,9 4.22684358,9.26001694 3.75733606,9.73230832 L2,11.5000642 Z" id="Fill-13" fill="#4A4A4A"></path>
            <path d="M12.4999358,2 L10.73218,3.75733606 C10.2598886,4.22684358 10,4.85098239 10,5.51479969 C10,6.17861699 10.2598886,6.80275581 10.73218,7.27213575 C11.204343,7.74151569 11.8321826,8 12.4999358,8 C13.1676891,8 13.7954003,7.74151569 14.2676917,7.27213575 C14.7399831,6.80275581 15,6.17861699 15,5.51479969 C15,4.85098239 14.7399831,4.22684358 14.2676917,3.75733606 L12.4999358,2 Z" id="Fill-15" fill="#4A4A4A"></path>
            <path d="M12.5000642,19 L14.2676917,17.5355533 C14.7401114,17.144297 15,16.6242877 15,16.0710003 C15,15.5178192 14.7401114,14.9977035 14.26782,14.6065535 C13.795657,14.2154036 13.1678174,14 12.5000642,14 C11.8323109,14 11.2044714,14.2154036 10.7323083,14.6065535 C10.2600169,14.9977035 10,15.5178192 10,16.0710003 C10,16.6242877 10.2600169,17.144297 10.7323083,17.5355533 L12.5000642,19 Z" id="Fill-17" fill="#4A4A4A"></path>
            <path d="M21.3855575,10.0119954 L22.9950242,10.6146592 L23,10.6115156 L21.2426639,9.47203839 C20.7731564,9.16760424 20.1491452,9 19.4852003,9 C18.821383,9 18.1972442,9.16760424 17.7278643,9.47195566 C17.2583567,9.77638981 17,10.181006 17,10.6115156 C17,10.7443746 17.0274305,10.8741727 17.0754019,11 C17.13358,10.7579418 17.3273794,10.5164626 17.6661138,10.3052614 C18.59926,9.72352747 20.2644807,9.59224024 21.3855575,10.0119954" id="Fill-19" fill="#4A4A4A"></path>
            <path d="M7.9247257,10 C7.86642001,10.2420582 7.67262057,10.4835374 7.3338862,10.6946559 C6.40073998,11.2763898 4.73551927,11.4077598 3.61457004,10.9880046 L2.00497576,10.3852581 L2,10.3884844 L3.75733606,11.5279616 C4.22684358,11.8323958 4.85098239,12 5.51479969,12 C6.17861699,12 6.80275581,11.8323958 7.27213575,11.5280443 C7.74151569,11.2236102 8,10.8189113 8,10.3884844 C8,10.2556254 7.97256953,10.1257445 7.9247257,10" id="Fill-21" fill="#4A4A4A"></path>
            <path d="M11.5179931,3.61444246 L12.4221128,2.00497576 L12.4172733,2 L10.7080576,3.75733606 C10.2514064,4.22684358 10,4.85085481 10,5.51479969 C10,6.17861699 10.2514064,6.80275581 10.7079335,7.27200817 C11.1645847,7.74151569 11.7715089,8 12.4172733,8 C12.6165619,8 12.8112591,7.97256953 13,7.9247257 C12.6369126,7.86642001 12.2746939,7.67262057 11.9578921,7.3338862 C11.0852912,6.40073998 10.8883604,4.73551927 11.5179931,3.61444246" id="Fill-23" fill="#4A4A4A"></path>
            <path d="M13.2920665,14.606647 C12.8354153,14.2155053 12.2284911,14 11.5828508,14 C11.3834381,14 11.1887409,14.0229646 11,14.0628336 C11.3630874,14.1114206 11.7253061,14.2729167 12.0421079,14.5551894 C12.9147088,15.3327947 13.1116396,16.7204491 12.4820069,17.6545536 L11.5780113,18.9958536 L11.5828508,19 L13.2919424,17.5354781 C13.7485936,17.1443365 14,16.6243382 14,16.0710625 C14,15.5178932 13.7485936,14.9977886 13.2920665,14.606647" id="Fill-25" fill="#4A4A4A"></path>
        </g>
    </g>
</svg>