<?xml version="1.0" encoding="UTF-8"?>
<svg width="24px" height="24px" viewBox="0 0 24 24" version="1.1" xmlns="http://www.w3.org/2000/svg" xmlns:xlink="http://www.w3.org/1999/xlink">
    <!-- Generator: Sketch 49.2 (51160) - http://www.bohemiancoding.com/sketch -->
    <title>dread</title>
    <desc>Created with Sketch.</desc>
    <defs>
        <polygon id="path-1" points="0 0.0367171765 14.9542847 0.0367171765 14.9542847 24 0 24"></polygon>
    </defs>
    <g id="dread" stroke="none" stroke-width="1" fill="none" fill-rule="evenodd">
        <g id="Page-1" transform="translate(5.000000, 0.000000)">
            <g id="Group-3">
                <mask id="mask-2" fill="white">
                    <use xlink:href="#path-1"></use>
                </mask>
                <g id="Clip-2"></g>
                <path d="M2.00761806,19.0982513 L3.75921528,19.0982513 C4.31352083,19.0982513 4.76289583,19.4637289 4.76289583,19.9145336 L4.76289583,21.2130184 L7.0695625,19.3372913 C7.25782639,19.1841995 7.51310417,19.0982513 7.77942361,19.0982513 L12.5976181,19.0982513 L12.5976181,8.90875482 C12.5976181,8.18864188 11.8772014,7.60275953 10.9916458,7.60275953 L4.6520625,7.60275953 C3.67060417,7.60275953 2.7589375,7.354176 2.00761806,6.93059012 L2.00761806,19.0982513 Z M3.7589375,24.0000113 C3.62963194,24.0000113 3.49921528,23.9796819 3.37497917,23.9378372 C2.99997917,23.8115125 2.75539583,23.513856 2.75539583,23.1837289 L2.75539583,20.730816 L1.00379861,20.730816 C0.449423611,20.730816 -2.08333333e-05,20.3652819 -2.08333333e-05,19.9145336 L-2.08333333e-05,3.81973835 C-2.08333333e-05,1.73377129 2.08692361,0.0367171765 4.6520625,0.0367171765 L12.1262292,0.0367171765 C13.6856736,0.0367171765 14.9542847,1.06837835 14.9542847,2.33642541 C14.9542847,3.60447247 13.6856736,4.63607718 12.1262292,4.63607718 L5.10539583,4.63607718 C4.55102083,4.63607718 4.10164583,4.270656 4.10164583,3.81985129 C4.10164583,3.36904659 4.55102083,3.00356894 5.10539583,3.00356894 L12.1262292,3.00356894 C12.5785208,3.00356894 12.9467153,2.70427482 12.9467153,2.33642541 C12.9467153,1.968576 12.5785208,1.66922541 12.1262292,1.66922541 L4.6520625,1.66922541 C3.1939375,1.66922541 2.00761806,2.63396894 2.00761806,3.81973835 C2.00761806,5.00550776 3.1939375,5.97019482 4.6520625,5.97019482 L10.9916458,5.97019482 C12.9842153,5.97019482 14.6052569,7.28844424 14.6052569,8.90875482 L14.6052569,19.9145336 C14.6052569,20.3652819 14.1557431,20.730816 13.6014375,20.730816 L8.1951875,20.730816 L4.46886806,23.7609148 C4.27692361,23.917056 4.02011806,24.0000113 3.7589375,24.0000113 Z" id="Fill-1" fill="#4A4A4A" mask="url(#mask-2)"></path>
            </g>
            <path d="M9.95902938,11 L5.04075461,11 C4.46601382,11 4,10.5523193 4,10.0000346 C4,9.44774984 4.46601382,9 5.04075461,9 L9.95902938,9 C10.5339142,9 11,9.44774984 11,10.0000346 C11,10.5523193 10.5339142,11 9.95902938,11" id="Fill-4" fill="#4A4A4A"></path>
            <path d="M9.95902938,14 L5.04075461,14 C4.46601382,14 4,13.5523193 4,12.9999654 C4,12.4477498 4.46601382,12 5.04075461,12 L9.95902938,12 C10.5339142,12 11,12.4477498 11,12.9999654 C11,13.5523193 10.5339142,14 9.95902938,14" id="Fill-6" fill="#4A4A4A"></path>
            <path d="M9.95902938,17 L5.04075461,17 C4.46601382,17 4,16.5522657 4,16 C4,15.4477343 4.46601382,15 5.04075461,15 L9.95902938,15 C10.5339142,15 11,15.4477343 11,16 C11,16.5522657 10.5339142,17 9.95902938,17" id="Fill-8" fill="#4A4A4A"></path>
        </g>
    </g>
</svg>