<?xml version="1.0" encoding="UTF-8"?>
<svg width="24px" height="24px" viewBox="0 0 24 24" version="1.1" xmlns="http://www.w3.org/2000/svg" xmlns:xlink="http://www.w3.org/1999/xlink">
    <!-- Generator: Sketch 49.2 (51160) - http://www.bohemiancoding.com/sketch -->
    <title>dvideo</title>
    <desc>Created with Sketch.</desc>
    <defs>
        <polygon id="path-1" points="0.0928517062 0.0471414783 5.88306457 0.0471414783 5.88306457 6.68019971 0.0928517062 6.68019971"></polygon>
        <polygon id="path-3" points="0 0.0988073408 7.49716766 0.0988073408 7.49716766 5.49810382 0 5.49810382"></polygon>
    </defs>
    <g id="dvideo" stroke="none" stroke-width="1" fill="none" fill-rule="evenodd">
        <g id="Page-1" transform="translate(12.155445, 10.998711) rotate(-30.000000) translate(-12.155445, -10.998711) translate(0.155445, -0.501289)">
            <path d="M19.7156226,7.63835919 C19.5717379,7.71760018 19.4171205,7.75779655 19.2561305,7.75779655 C18.8934559,7.75779655 18.5621968,7.55358976 18.3915921,7.22476268 C18.1371386,6.73468941 18.3172461,6.12276008 18.7930608,5.86073501 C18.9369456,5.78137884 19.091563,5.74118247 19.252553,5.74118247 C19.6151157,5.74118247 19.9463749,5.94550444 20.1170913,6.27421634 C20.3714331,6.76428961 20.1913256,7.37621894 19.7156226,7.63835919 M21.0398768,5.76594528 C20.675078,5.06325737 19.9755543,4.66313645 19.252553,4.66313645 C18.9303495,4.66313645 18.6035622,4.74260779 18.2994701,4.91007348 C17.4209569,5.39415761 17.0317861,6.44997469 17.3300647,7.39303461 L15.8167592,8.22667747 L13.9357482,4.87010746 L12.6443628,6.78732478 L14.3657255,9.85906489 L17.665684,8.04124434 C18.055302,8.5508975 18.6469401,8.83584257 19.2561305,8.83584257 C19.578334,8.83584257 19.9050094,8.75648641 20.2091016,8.58902071 C21.195165,8.04573619 21.5671188,6.78179634 21.0398768,5.76594528" id="Fill-1" fill="#4A4A4A"></path>
            <path d="M21.8305051,11.9246057 C21.1714525,11.8389148 20.5622621,12.23201 20.3280441,12.8399082 L18.2509383,12.5700512 L16.1734972,8.86311622 L14.3657143,9.85904185 L16.1467774,13.0369741 L20.2388288,13.5688562 C20.3191002,14.2176418 20.8144797,14.7542461 21.4735322,14.839937 C22.2548925,14.9415221 22.968391,14.3712864 23.0669973,13.566092 C23.1654919,12.7611279 22.6119771,12.0260756 21.8305051,11.9246057" id="Fill-3" fill="#4A4A4A"></path>
            <path d="M20.0184738,15.7239462 L18.698468,13.3685999 L16.1467774,13.0368935 L17.6622071,15.7411074 L14.4465447,15.7411074 L17.6662318,19.4472362 C17.4343616,19.8671673 17.4749444,20.4093001 17.804862,20.7891501 C18.2180696,21.2647112 18.9273197,21.3051379 19.3890478,20.8795631 C19.8506641,20.453758 19.8900172,19.7231975 19.4768097,19.2475212 C19.1467803,18.8676712 18.6282585,18.7663165 18.1974986,18.9572781 L17.2373725,17.8520505 L18.8259184,17.8520505 C19.8858807,17.8520505 20.5485108,16.6697704 20.0184738,15.7239462" id="Fill-5" fill="#4A4A4A"></path>
            <g id="Group-9" transform="translate(10.397267, 15.693977)">
                <mask id="mask-2" fill="white">
                    <use xlink:href="#path-1"></use>
                </mask>
                <g id="Clip-8"></g>
                <path d="M1.75087747,4.16652119 C2.13591176,4.16652119 2.46046302,4.45181178 2.52239943,4.84479181 C2.5560508,5.05763679 2.50708302,5.27117283 2.38466359,5.44612496 C2.26235595,5.62119226 2.08113046,5.73659847 1.87441489,5.77115123 C1.83215503,5.77829213 1.78911258,5.78186258 1.74685272,5.78186258 C1.36170663,5.78186258 1.03726717,5.49657198 0.975330761,5.10370713 C0.94167939,4.89086215 0.990647165,4.67721094 1.11295481,4.50225881 C1.23537424,4.32719151 1.41648793,4.21190047 1.6232035,4.17723254 C1.66557516,4.17009164 1.70850581,4.16652119 1.75087747,4.16652119 Z M4.04923256,0.0471414783 L0.61075561,0.0471414783 L1.13777409,3.38954485 C0.430648108,3.67829073 -0.0124096417,4.44248254 0.11448174,5.24767696 C0.246515856,6.08500544 0.949281693,6.68023427 1.74685272,6.68023427 C1.8350618,6.68023427 1.92438886,6.67297819 2.01427491,6.65789015 C2.9169366,6.50677943 3.52981638,5.63052151 3.38313665,4.70070681 C3.25624527,3.89539722 2.60099383,3.31571713 1.84165791,3.27241101 L1.66602235,2.15808459 L5.88306457,2.15808459 L4.04923256,0.0471414783 Z" id="Fill-7" fill="#4A4A4A" mask="url(#mask-2)"></path>
            </g>
            <path d="M7.4972012,15.7411535 L5.10884826,19.0381776 C4.6436544,18.8741672 4.1098162,19.0273511 3.79991056,19.4552294 C3.41554706,19.9857294 3.52153211,20.7367911 4.03647634,21.1326506 C4.55142057,21.5286251 5.28045907,21.4194384 5.66471077,20.8889384 C5.97461642,20.4611753 5.96533714,19.8902486 5.68036257,19.4774583 L6.85793695,17.8519814 L11.3408362,17.8519814 L11.0080118,15.7411535 L7.4972012,15.7411535 Z" id="Fill-10" fill="#4A4A4A"></path>
            <g id="Group-14" transform="translate(0.000000, 12.353878)">
                <mask id="mask-4" fill="white">
                    <use xlink:href="#path-3"></use>
                </mask>
                <g id="Clip-13"></g>
                <path d="M5.30222626,3.38727589 L6.92833652,0.485650519 L2.17097179,0.819660505 C1.99153508,0.369438079 1.54847733,0.0666407509 1.05142087,0.101539036 C0.429820798,0.145190686 -0.0397332132,0.699647262 0.00263844635,1.34002503 C0.0450101059,1.98028762 0.583208442,2.46402622 1.20480851,2.42037457 C1.70186497,2.38547628 2.10098588,2.02347856 2.21949237,1.55252448 L4.03599561,1.42502481 L2.94595951,3.37011469 C2.41592247,4.31593882 3.07844082,5.49810382 4.1386267,5.49810382 L5.96809856,5.49810382 L7.49716766,3.38727589 L5.30222626,3.38727589 Z" id="Fill-12" fill="#4A4A4A" mask="url(#mask-4)"></path>
            </g>
            <path d="M3.58419521,7.82872184 C3.05248119,7.82872184 2.61993251,7.38299128 2.61993251,6.8352149 C2.61993251,6.28743852 3.05248119,5.84170796 3.58419521,5.84170796 C4.11602102,5.84170796 4.54856971,6.28743852 4.54856971,6.8352149 C4.54856971,7.38299128 4.11602102,7.82872184 3.58419521,7.82872184 Z M6.92842596,12.8394475 L8.44732138,10.1291292 L5.32132145,7.71677091 C5.44877183,7.45059951 5.52233529,7.15206368 5.52233529,6.8352149 C5.52233529,5.73252124 4.65466655,4.83852624 3.58419521,4.83852624 C2.51383566,4.83852624 1.64616692,5.73252124 1.64616692,6.8352149 C1.64616692,7.93790856 2.51383566,8.83190356 3.58419521,8.83190356 C4.08963656,8.83190356 4.54845791,8.63092169 4.89335651,8.30439813 L6.43662403,9.4953165 L4.46561517,13.0123265 L6.92842596,12.8394475 Z" id="Fill-15" fill="#4A4A4A"></path>
            <path d="M8.1665728,2.9270562 L8.95352297,5.00413761 L6.79569869,8.85458169 L8.44729902,10.1291177 L10.3645328,6.70804924 L8.83087993,2.65996339 C9.34593596,2.27746436 9.56729714,1.57293365 9.32570042,0.935435277 C9.03938427,0.179536126 8.21241022,-0.194094354 7.47867618,0.100986192 C6.74494214,0.395951562 6.38226756,1.24790738 6.66869551,2.00380653 C6.91018043,2.64142007 7.53625244,3.00514543 8.1665728,2.9270562" id="Fill-17" fill="#4A4A4A"></path>
            <path d="M11.4822167,4.71374472 L12.6443628,6.78725567 L15.0162814,3.26609937 C15.3890178,3.3546696 15.7930579,3.20908732 16.0244809,2.86551774 C16.3277905,2.41529531 16.2193458,1.79691614 15.7823252,1.48455921 C15.3453046,1.17208711 14.7451698,1.28380769 14.4418603,1.73403012 C14.2104373,2.0775997 14.2193811,2.51849288 14.4304569,2.84720478 L13.5415464,4.1666594 L12.674772,2.62019316 C12.4098094,2.14716592 11.9459571,1.91082506 11.4822167,1.91082506 C11.0184762,1.91082506 10.5546239,2.14716592 10.2896613,2.62019316 L9.41025368,4.18923386 L10.3645663,6.70801468 L11.4822167,4.71374472 Z" id="Fill-19" fill="#4A4A4A"></path>
            <polygon id="Fill-21" fill="#4A4A4A" points="11.4822167 8.00772816 14.8931912 14.0941963 8.07124216 14.0941963"></polygon>
        </g>
    </g>
</svg>