<?xml version="1.0" encoding="UTF-8"?>
<svg width="24px" height="24px" viewBox="0 0 24 24" version="1.1" xmlns="http://www.w3.org/2000/svg" xmlns:xlink="http://www.w3.org/1999/xlink">
    <!-- Generator: Sketch 49.2 (51160) - http://www.bohemiancoding.com/sketch -->
    <title>earth</title>
    <desc>Created with Sketch.</desc>
    <defs></defs>
    <g id="earth" stroke="none" stroke-width="1" fill="none" fill-rule="evenodd">
        <g id="Group">
            <g id="Layer_x0020_1">
                <g>
                    <g id="_350181248">
                        <rect id="_350180720" x="0" y="0" width="23.4056914" height="23.4056914"></rect>
                        <rect id="_350180696" x="2.92570629" y="2.92570629" width="17.5542857" height="17.5542857"></rect>
                    </g>
                    <path d="M11.7028457,3.09782057 C14.0790069,3.09782057 16.2302743,4.060992 17.7874971,5.61821143 C19.3447166,7.17543086 20.307888,9.32669143 20.307888,11.7028629 C20.307888,14.079024 19.3447166,16.2302914 17.7874971,17.7875143 C16.2302777,19.3447337 14.0790171,20.3079051 11.7028457,20.3079051 C9.32668457,20.3079051 7.17541714,19.3447337 5.61819429,17.7875143 C4.06097486,16.2302949 3.09780343,14.0790343 3.09780343,11.7028629 C3.09780343,9.32670171 4.06097486,7.17543429 5.61819429,5.61821143 C7.17541371,4.060992 9.32667429,3.09782057 11.7028457,3.09782057 Z M17.2703314,6.13536 C15.8455166,4.71054514 13.8770983,3.82926857 11.7028457,3.82926857 C9.52857943,3.82926857 7.56017143,4.71054514 6.13536,6.13536 C4.71054514,7.56017486 3.82926857,9.52857943 3.82926857,11.7028457 C3.82926857,13.877112 4.71054514,15.84552 6.13536,17.2703314 C7.56017486,18.6951463 9.52857943,19.5764229 11.7028457,19.5764229 C13.877112,19.5764229 15.84552,18.6951463 17.2703314,17.2703314 C18.6951463,15.8455166 19.5764229,13.8770983 19.5764229,11.7028457 C19.5764229,9.52857943 18.6951463,7.56017143 17.2703314,6.13536 Z" id="Shape" fill="#212121" fill-rule="nonzero"></path>
                    <path d="M10.3722514,4.31293714 L10.1690883,5.03175086 L10.1448049,5.09459897 C9.83453253,5.7190584 9.43240601,6.34192354 8.80090087,6.75050297 C8.33757058,7.0502736 7.76486544,7.22823669 7.0375763,7.19816126 L7.22516235,7.4455584 L7.24944583,7.48126149 L7.67444126,8.20275977 C7.95350537,8.19873727 8.18375897,8.26925246 8.3708184,8.40573394 C8.5592952,8.54322789 8.69002663,8.73700937 8.7706104,8.97966994 C9.72235097,9.28965874 10.2280755,9.69337851 10.400639,10.1217614 C10.581179,10.5699854 10.4299168,11.0045225 10.0470915,11.3829237 C9.73403863,11.6923591 9.2498424,11.9662265 8.67292354,12.1677442 C7.39208126,12.6151728 5.60290869,12.7203648 4.20360926,12.0637399 C4.19789949,11.9438613 4.19497032,11.823551 4.19497032,11.7028485 C4.19497032,11.5489543 4.19966774,11.3956673 4.20892759,11.243149 C5.43958245,11.9938862 7.19750702,11.9107227 8.43292759,11.4791671 C8.90951273,11.3126925 9.2983573,11.0974745 9.53567273,10.8629157 C9.70320027,10.6973318 9.77973559,10.532855 9.72348816,10.3931877 C9.61945673,10.1348976 9.20661045,9.86481051 8.36620587,9.61823451 L8.15308107,9.5557104 L8.11049376,9.33680811 C8.07827328,9.17118377 8.02369947,9.0537216 7.94225067,8.99431543 C7.85935742,8.93384297 7.72562976,8.91505337 7.53248153,8.94499269 L7.28828359,8.98285543 L7.16247936,8.76928526 L6.63059136,7.86632983 L5.92094565,6.9303984 L5.97098393,6.85343109 C6.10500885,6.69527143 6.24599856,6.54193063 6.39396679,6.39396137 C6.39861021,6.38931795 6.40332113,6.38475552 6.40799153,6.3801121 C7.3068841,6.57220673 7.93945553,6.43949119 8.4037561,6.13908627 C8.88802125,5.82576353 9.21584067,5.31884856 9.47552067,4.80175485 L9.55915622,4.50583142 C9.82565325,4.42665027 10.0970648,4.36219587 10.3722556,4.31294067 L10.3722514,4.31293714 Z" id="Shape" fill="#66BB6A" fill-rule="nonzero"></path>
                    <path d="M14.5832229,18.6383657 L14.4663141,17.6189726 L14.4648832,17.5518319 C14.5219,16.7555942 14.6765502,15.921601 15.1661221,15.2164605 C15.5412935,14.6760696 16.1025267,14.2243073 16.9485061,13.9429073 L16.5307347,13.6967791 L16.4950316,13.6724956 L15.6958521,13.0664339 C15.3985384,13.2001482 15.1222419,13.2291697 14.8644647,13.1659163 L14.8645457,13.1655788 C14.6070384,13.1020694 14.3860714,12.9502944 14.1966771,12.7223091 C13.0423423,12.8135846 12.3289286,12.6103947 11.963772,12.2357503 C11.5607537,11.8222577 11.5618611,11.2607126 11.8592815,10.6611308 C12.109945,10.1558074 12.5854083,9.61240627 13.1995409,9.1247537 C14.4294655,8.14812513 16.2480792,7.36770684 17.9556895,7.54504627 C18.1328547,7.81089564 18.2922295,8.08708284 18.4333272,8.37187027 C16.8004083,7.93453884 14.8988472,8.70757335 13.6538301,9.69619027 C13.1211466,10.1191594 12.7165478,10.5747686 12.5135592,10.9839823 C12.3573298,11.2989384 12.3311026,11.5676211 12.4866301,11.7271868 C12.7236335,11.9703456 13.3007821,12.0852017 14.3296895,11.9775535 L14.5489154,11.9546063 L14.6711293,12.1404106 C14.7863104,12.3155242 14.9079572,12.4256029 15.037311,12.4573374 L15.0387418,12.4573374 C15.16842,12.489153 15.3341119,12.448442 15.5418229,12.3229481 L15.752437,12.1956994 L15.9503897,12.3458142 L16.9158034,13.0779342 L18.0953005,13.7728268 L17.9667291,14.4471068 C16.8228548,14.6270122 16.155432,15.0699719 15.7661143,15.6307457 C15.3769714,16.1912348 15.247008,16.8908279 15.1959051,17.5699525 L15.2802696,18.3054771 C15.053606,18.4284737 14.8209884,18.5396053 14.583217,18.6383591 L14.5832229,18.6383657 Z" id="Shape" fill="#66BB6A" fill-rule="nonzero"></path>
                    <path d="M4.97122286,15.0315771 L5.45963314,15.0984477 L5.52535646,15.1141597 C6.08062389,15.299235 6.64569017,15.5613448 7.0608696,16.0408203 C7.34411829,16.3679382 7.55068217,16.7857803 7.62708446,17.3324077 L7.71483703,17.2441693 L7.74626109,17.2155934 L8.25823937,16.8085396 C8.22979841,16.582929 8.26506953,16.3856631 8.35699286,16.2136414 C8.44980737,16.0400127 8.59255183,15.9066762 8.77889571,15.8085419 C8.92845686,14.9951065 9.20923629,14.5309534 9.55083857,14.3343248 C9.95222486,14.1032607 10.3815643,14.2097758 10.7774443,14.5505408 C11.0917524,14.8211144 11.3921289,15.2584345 11.6274317,15.7841099 C12.0653049,16.7623739 12.2866877,18.0762162 11.9527006,19.2065134 C11.8695914,19.20924 11.7863069,19.2107383 11.7028198,19.2107383 C11.5310943,19.2107383 11.3601245,19.2047991 11.1901284,19.193285 C11.5660027,18.2156553 11.3668617,16.9864336 10.9617235,16.0812633 C10.7708707,15.654893 10.5370675,15.3086484 10.3003075,15.104837 C10.1450902,14.9712307 10.0062873,14.9124592 9.91370177,14.9657505 C9.73132611,15.0707268 9.57018291,15.4239516 9.46820349,16.1175208 L9.43579402,16.3379213 L9.22534179,16.4103804 C9.10855437,16.4505784 9.03072305,16.4987673 8.99986591,16.5564996 C8.96837434,16.6154333 8.97064207,16.7109743 9.01237886,16.8492509 L9.08355531,17.0849988 L8.8895304,17.2392575 L8.21492469,17.7756129 L7.84627097,18.1462895 C7.51957131,17.9503884 7.20676011,17.7287066 6.91056926,17.4826723 C6.85951851,17.0631043 6.71268411,16.7526712 6.50944011,16.5179615 C6.23562686,16.2017635 5.84788697,16.0041077 5.44854069,15.8584757 C5.27152389,15.5925859 5.11221669,15.316398 4.97122526,15.0315832 L4.97122286,15.0315771 Z" id="Shape" fill="#66BB6A" fill-rule="nonzero"></path>
                </g>
            </g>
        </g>
    </g>
</svg>