<?xml version="1.0" encoding="UTF-8"?>
<svg width="24px" height="24px" viewBox="0 0 24 24" version="1.1" xmlns="http://www.w3.org/2000/svg" xmlns:xlink="http://www.w3.org/1999/xlink">
    <!-- Generator: Sketch 49.2 (51160) - http://www.bohemiancoding.com/sketch -->
    <title>flag-on-moon</title>
    <desc>Created with Sketch.</desc>
    <defs></defs>
    <g id="flag-on-moon" stroke="none" stroke-width="1" fill="none" fill-rule="evenodd">
        <g id="Group">
            <g id="Layer_x0020_1">
                <g>
                    <g id="_347230312">
                        <rect id="_347230576" x="0" y="0" width="23.4056914" height="23.4056914"></rect>
                        <rect id="_347230216" x="2.92570629" y="2.92570629" width="17.5542857" height="17.5542857"></rect>
                    </g>
                    <path d="M2.73080091,20.1142629 C2.73080229,18.3499131 3.754704,16.7623611 5.41011086,15.6219771 C5.85524571,15.315336 6.34662514,15.0409543 6.87613714,14.8042903 L6.94993234,15.5733703 C6.54683177,15.7666255 6.17016206,15.9837874 5.82440091,16.2219771 C4.36496434,17.2273714 3.46224891,18.6042686 3.46224891,20.1142629 L2.73080091,20.1142629 Z M8.293728,14.2888457 C9.34498971,13.9866723 10.4965303,13.8197383 11.7028354,13.8197383 C14.1538869,13.8197383 16.3792011,14.5084766 17.9955669,15.6219669 C19.6509737,16.7623577 20.6748754,18.349896 20.6748754,20.1142526 L19.9434274,20.1142526 C19.9434274,18.6042377 19.0407154,17.2273543 17.5812754,16.2219669 C16.0828011,15.1896823 14.0048983,14.5511863 11.7028183,14.5511863 C10.5140091,14.5511863 9.385008,14.721481 8.36468571,15.0283234 L8.29371154,14.2888457 L8.293728,14.2888457 Z" id="Shape" fill="#212121" fill-rule="nonzero"></path>
                    <path d="M6.86766857,3.25714286 C6.84874392,3.05674697 6.67091726,2.90964343 6.47052,2.92856709 C6.27012411,2.94749174 6.12302057,3.1253184 6.14194423,3.32571566 L7.45248137,16.9817842 C7.47140602,17.1821801 7.64923269,17.3292837 7.84962994,17.31036 C8.05002583,17.2914353 8.19712937,17.1136087 8.17820571,16.9132114 L6.86766857,3.25714286 Z" id="Shape" fill="#66BB6A" fill-rule="nonzero"></path>
                    <path d="M6.55930286,4.06350857 C7.58022171,3.9088584 8.50775657,3.95012263 9.34470514,3.98733771 C10.4752971,4.03760537 11.426808,4.07992251 12.1288251,3.57823029 L12.6426377,3.21103714 L12.7031102,3.84108514 L13.105765,8.03673086 L13.1267819,8.25587589 L12.9414772,8.37672617 C11.8758806,9.07168731 10.8619149,8.94059246 9.80031264,8.80331246 C8.95213207,8.693652 8.06961435,8.57953749 7.15480635,8.95774663 L6.70046578,9.14558914 L6.65337024,8.65488514 L6.2507291,4.45920514 L6.21772574,4.11524057 L6.55930059,4.063488 L6.55930286,4.06350857 Z M9.31328229,4.71592114 C8.60970857,4.68463207 7.839144,4.65038674 7.01014629,4.74171641 L7.33480766,8.12486613 C8.24638937,7.86772327 9.08312194,7.97591218 9.89175394,8.08045653 C10.7497059,8.19139927 11.5719699,8.29761744 12.3580179,7.87579515 L12.0307245,4.46535058 C11.243545,4.80171504 10.3449747,4.76180064 9.31328331,4.71591984 L9.31328229,4.71592114 Z" id="Shape" fill="#66BB6A" fill-rule="nonzero"></path>
                    <path d="M13.3387886,15.871848 C14.4318,15.8718514 15.4276389,16.1813811 16.1540503,16.6817897 C16.9194857,17.2091006 17.3929406,17.949672 17.3929406,18.7784949 L16.6614926,18.7784949 C16.6614926,18.2040069 16.3092274,17.674104 15.7397589,17.2817897 C15.1312423,16.8625989 14.2828183,16.603296 13.3387886,16.603296 L13.3387886,15.871848 Z" id="Shape" fill="#212121" fill-rule="nonzero"></path>
                </g>
            </g>
        </g>
    </g>
</svg>