<?xml version="1.0" encoding="UTF-8"?>
<svg width="24px" height="24px" viewBox="0 0 24 24" version="1.1" xmlns="http://www.w3.org/2000/svg" xmlns:xlink="http://www.w3.org/1999/xlink">
    <!-- Generator: Sketch 49.2 (51160) - http://www.bohemiancoding.com/sketch -->
    <title>galaxy</title>
    <desc>Created with Sketch.</desc>
    <defs></defs>
    <g id="galaxy" stroke="none" stroke-width="1" fill="none" fill-rule="evenodd">
        <g id="Group">
            <g id="Layer_x0020_1">
                <g>
                    <g id="_350171408">
                        <rect id="_350171984" x="0" y="0" width="23.4056914" height="23.4056914"></rect>
                        <rect id="_350172056" x="2.92570629" y="2.92570629" width="17.5542857" height="17.5542857"></rect>
                    </g>
                    <path d="M3.62955429,12.2726057 C3.69109303,12.4643222 3.89641577,12.5698656 4.08813257,12.5083269 C4.27984903,12.4467881 4.38539246,12.2414654 4.32385371,12.0497486 C3.779184,10.3687234 3.967728,8.625456 4.71284914,7.16602286 C5.45768571,5.70713829 6.758304,4.53263657 8.43806057,3.98837143 C11.0601086,3.13880229 13.3622777,4.01567853 14.8983463,5.59947771 C15.5446183,6.26582057 16.0562571,7.05657943 16.4004514,7.89674057 C16.7430792,8.733096 16.9190297,9.61701943 16.8956914,10.4738777 C16.8482177,12.2169154 15.961728,13.8547989 13.9521017,14.740872 C12.5036366,15.3794229 11.4615291,15.2718 10.8161863,14.7974568 C10.546031,14.5988832 10.3424229,14.3336671 10.2061166,14.0319254 C10.0659771,13.7216935 9.99643371,13.3744899 9.99799954,13.0212134 C10.001995,12.1222797 10.4610727,11.1869551 11.3831835,10.7132465 C11.5622791,10.621728 11.6332666,10.4023399 11.5417481,10.2232454 C11.4502296,10.0441498 11.2308415,9.97316229 11.051747,10.0646808 C9.86520411,10.6742362 9.27453326,11.8707014 9.26941783,13.0183539 C9.26737958,13.4767848 9.3579264,13.9279779 9.54041006,14.3319425 C9.7267272,14.7443962 10.0083415,15.1093642 10.3847575,15.3860397 C11.2247575,16.0034671 12.5198112,16.1706031 14.2463918,15.4094457 C16.5521061,14.3928332 17.5694455,12.5040537 17.6242786,10.4910229 C17.6503844,9.53285715 17.4551314,8.54810287 17.0747472,7.6195943 C16.6959312,6.69491887 16.1327266,5.82453487 15.4212158,5.09091658 C13.7079278,3.32439315 11.1400615,2.3463863 8.21518149,3.2940743 C6.34106263,3.90130858 4.89089691,5.20989144 4.06139863,6.83458858 C3.23218491,8.45872001 3.02271634,10.3997543 3.62953234,12.2726114 L3.62955429,12.2726057 Z" id="Shape" fill="#212121" fill-rule="nonzero"></path>
                    <path d="M19.7761714,11.1330857 C19.7146327,10.9413693 19.5093099,10.8358258 19.3175931,10.8973646 C19.1258767,10.9589033 19.0203333,11.1642261 19.081872,11.3559429 C19.6265417,13.036968 19.4379977,14.7802354 18.6928766,16.2396686 C17.94804,17.6985531 16.6474217,18.8730411 14.9676651,19.4173063 C12.3456034,20.2668891 10.043448,19.3900127 8.50737943,17.8062 C7.86110743,17.1398571 7.34946857,16.349112 7.00527429,15.5089509 C6.66264651,14.6725954 6.486696,13.788672 6.51003429,12.9318137 C6.557508,11.188776 7.44399771,9.55089257 9.453624,8.66481943 C10.9020891,8.02626857 11.9441966,8.13389143 12.5895394,8.60823463 C12.8596947,8.80680823 13.0633029,9.07202434 13.1996091,9.37376606 C13.3397486,9.68399794 13.409292,10.0312015 13.4077262,10.3844781 C13.4037307,11.2834118 12.944653,12.2187363 12.0225422,12.6924449 C11.8434466,12.7839634 11.7724591,13.0033515 11.8639776,13.1824461 C11.9554961,13.3615416 12.1748842,13.4325291 12.3539787,13.3410106 C13.5405216,12.7314552 14.1311925,11.5349901 14.1363079,10.3873375 C14.1383461,9.92890663 14.0477993,9.47771349 13.8653157,9.07374891 C13.6789985,8.6612952 13.3973842,8.2963272 13.0209682,8.01965177 C12.1809682,7.40222434 10.8859145,7.23508834 9.15933394,7.9962457 C6.85361966,9.01285827 5.83628023,10.9016377 5.78144709,12.9146686 C5.75534136,13.8728343 5.95059429,14.8575886 6.33097851,15.7860971 C6.70979451,16.7107726 7.2730128,17.5811566 7.98450994,18.3147646 C9.69779794,20.081288 12.2656642,21.0592948 15.1905442,20.1116068 C17.0646768,19.5043726 18.5148288,18.1958034 19.3443271,16.5710926 C20.1735408,14.9469611 20.3830094,13.0059268 19.7761934,11.1330697 L19.7761714,11.1330857 Z" id="Shape" fill="#66BB6A" fill-rule="nonzero"></path>
                    <circle id="Oval" fill="#212121" cx="18.8342743" cy="6.39997714" r="1"></circle>
                    <circle id="Oval" fill="#66BB6A" cx="5.02858286" cy="17.2799657" r="1"></circle>
                    <circle id="Oval" fill="#212121" cx="9.78284571" cy="5.75996571" r="1"></circle>
                    <circle id="Oval" fill="#212121" cx="4.38857143" cy="4.02281143" r="1"></circle>
                    <circle id="Oval" fill="#66BB6A" cx="14.1714171" cy="18.1942629" r="1"></circle>
                    <circle id="Oval" fill="#66BB6A" cx="15.2573143" cy="9.61121143" r="1"></circle>
                </g>
            </g>
        </g>
    </g>
</svg>