<?xml version="1.0" encoding="UTF-8"?>
<svg width="24px" height="24px" viewBox="0 0 24 24" version="1.1" xmlns="http://www.w3.org/2000/svg" xmlns:xlink="http://www.w3.org/1999/xlink">
    <!-- Generator: Sketch 49.2 (51160) - http://www.bohemiancoding.com/sketch -->
    <title>globe</title>
    <desc>Created with Sketch.</desc>
    <defs></defs>
    <g id="globe" stroke="none" stroke-width="1" fill="none" fill-rule="evenodd">
        <g id="Group">
            <g id="Layer_x0020_1">
                <g>
                    <g id="_350186264">
                        <rect id="_350187032" x="0" y="0" width="23.4056914" height="23.4056914"></rect>
                        <rect id="_350187008" x="2.92570629" y="2.92570629" width="17.5542857" height="17.5542857"></rect>
                    </g>
                    <path d="M12.1785257,2.92570629 C13.9385589,2.92570629 15.5320457,3.63914743 16.68552,4.79260457 C17.8389771,5.94606171 18.5524183,7.539552 18.5524183,9.29959886 C18.5524183,11.059632 17.8389771,12.6531051 16.68552,13.8065589 C15.5320629,14.960016 13.9385726,15.6734571 12.1785257,15.6734571 C10.4184926,15.6734571 8.82500571,14.960016 7.67153143,13.8065589 C6.51807429,12.6531017 5.80463314,11.0596251 5.80463314,9.29959886 C5.80463314,7.53956571 6.51807429,5.94607886 7.67153143,4.79260457 C8.82498857,3.63914743 10.4184789,2.92570629 12.1785257,2.92570629 Z M16.1683543,5.30974971 C15.1473017,4.28869714 13.7366743,3.65715086 12.1785257,3.65715086 C10.6203737,3.65715086 9.20974629,4.28869714 8.18869714,5.30974971 C7.16764457,6.33080229 6.53609829,7.74142971 6.53609829,9.29957829 C6.53609829,10.8577303 7.16764457,12.268344 8.18869714,13.2894069 C9.20974971,14.3104594 10.6203771,14.9420057 12.1785257,14.9420057 C13.7366777,14.9420057 15.1473051,14.3104594 16.1683543,13.2894069 C17.1894069,12.2683543 17.8209531,10.8577269 17.8209531,9.29957829 C17.8209531,7.74142629 17.1894069,6.33079886 16.1683543,5.30974971 Z" id="Shape" fill="#212121" fill-rule="nonzero"></path>
                    <path d="M18.2396914,12.2499086 L18.9540891,12.6468 L19.1426739,12.7515603 L19.1426739,12.9653736 L19.1426739,12.9653871 L19.0955242,13.1425256 C18.0340179,15.0532376 16.2990511,16.3526799 14.3521985,16.9089142 C12.4058088,17.4650182 10.2464842,17.2781748 8.33560423,16.2165999 L8.33557723,16.2165864 C6.42485152,15.1550801 5.12542295,13.420127 4.56915437,11.4732607 C4.01305037,9.52684354 4.1998938,7.36747783 5.26148237,5.45663211 L5.43844535,5.13811234 L5.75719449,5.31519669 L6.47184935,5.71223554 C6.34199563,5.91840891 6.22368283,6.13104926 6.11735563,6.34926069 L5.72964249,6.13386823 C4.9174482,7.78514366 4.79786649,9.61373109 5.27201049,11.2732968 C5.77715906,13.0413185 6.95635792,14.6163974 8.68982306,15.5794454 L8.68985006,15.5794589 C10.4231678,16.5424006 12.3836901,16.7113606 14.1521815,16.2060783 C15.8111918,15.7320852 17.3003129,14.6645583 18.2732901,13.1025732 L17.8851723,12.886951 C18.0150261,12.6807776 18.1333389,12.468151 18.2396661,12.2499258 L18.2396914,12.2499086 Z" id="Shape" fill="#66BB6A" fill-rule="nonzero"></path>
                    <polygon id="Shape" fill="#66BB6A" fill-rule="nonzero" points="11.1313029 16.7165829 11.1313029 19.7629714 10.3998857 19.7629714 10.3998857 16.7165829"></polygon>
                    <polygon id="Shape" fill="#66BB6A" fill-rule="nonzero" points="8.56261714 19.7485371 12.9686057 19.7485371 12.9686057 20.4799886 8.56261714 20.4799886"></polygon>
                    <path d="M17.9428457,6.57884571 C18.4101703,7.69529143 18.3503589,8.23269943 17.9424678,8.40342514 C17.4378609,8.61463337 16.473486,7.89596914 15.4111432,7.10424 C14.5498038,6.46231543 13.6163546,5.76665143 12.9966472,5.555064 C12.6245512,5.42803131 12.4404369,5.21334069 12.3990506,4.95579429 C12.3621191,4.72594491 12.4520046,4.499712 12.6315859,4.29803657 C12.7675679,4.14530331 12.9631586,3.9996024 13.1915642,3.878712 C13.8535356,3.52828114 14.8434328,3.371784 15.4903391,3.8563993 L15.0531825,4.43925645 C14.6630934,4.14703142 13.9964385,4.27831622 13.5315585,4.52441736 C13.3805934,4.60432742 13.2567465,4.69452319 13.1772945,4.78376033 C13.141443,4.82401245 13.1183474,4.8370921 13.1190492,4.84151976 C13.120723,4.85199446 13.1505273,4.83618792 13.2309232,4.86363 C13.9579826,5.11186406 14.9396066,5.84344714 15.8454386,6.51852257 C16.7332226,7.18015457 17.5391118,7.78076486 17.6624615,7.72913057 C17.678268,7.72251641 17.5337011,7.49230269 17.2685529,6.85885286 L17.9428466,6.57884383 L17.9428457,6.57884571 Z" id="Shape" fill="#212121" fill-rule="nonzero"></path>
                    <path d="M6.23046857,11.2076571 C7.112328,9.71086971 7.57843543,9.40695429 7.96057371,9.63208114 C8.18217566,9.7626504 8.26184263,10.0101943 8.35494171,10.2996411 C8.46762549,10.6500034 8.61825326,11.1182057 9.17482971,10.9074446 C12.1018594,9.79908343 12.6727954,11.0977574 13.2986469,12.5214377 C13.6097829,13.229208 13.9376571,13.9750457 14.6750571,14.3058617 L14.3779053,14.9715703 C13.3812298,14.52444 12.9958138,13.6477097 12.6300778,12.8157291 C12.149903,11.7234171 11.7118413,10.7269989 9.43198869,11.5902994 C8.15916583,12.0722846 7.87401497,11.185848 7.6606584,10.5225017 C7.6133064,10.3752621 7.61120057,10.2719595 7.59200606,10.260648 C7.57192056,10.24881 7.45290583,10.5682879 6.85904606,11.5762491 L6.23048263,11.207664 L6.23046857,11.2076571 Z" id="Shape" fill="#212121" fill-rule="nonzero"></path>
                </g>
            </g>
        </g>
    </g>
</svg>