<?xml version="1.0" encoding="UTF-8"?>
<svg width="24px" height="24px" viewBox="0 0 24 24" version="1.1" xmlns="http://www.w3.org/2000/svg" xmlns:xlink="http://www.w3.org/1999/xlink">
    <!-- Generator: Sketch 49.2 (51160) - http://www.bohemiancoding.com/sketch -->
    <title>half-moon</title>
    <desc>Created with Sketch.</desc>
    <defs></defs>
    <g id="half-moon" stroke="none" stroke-width="1" fill="none" fill-rule="evenodd">
        <g id="Group">
            <g id="Layer_x0020_1">
                <g>
                    <g id="_259449168">
                        <rect id="_259449264" x="0" y="0" width="23.4056914" height="23.4056914"></rect>
                        <rect id="_259449528" x="2.92570629" y="2.92570629" width="17.5542857" height="17.5542857"></rect>
                    </g>
                    <path d="M11.9456914,2.92806857 C12.1120718,2.9327795 12.2842965,2.94278174 12.4624457,2.9583588 C14.87616,3.1694724 16.9760914,4.33930509 18.42,6.06000223 C19.8635109,7.78021251 20.6507177,10.0517508 20.4394697,12.4668365 C20.2283561,14.8805508 19.0585234,16.9804822 17.3378263,18.4243908 C15.6176297,19.8678742 13.3460777,20.6551085 10.930992,20.4438468 L10.9309245,20.4438468 C8.51726508,20.2327198 6.41731308,19.0629005 4.97343879,17.3422034 C3.52995537,15.6220068 2.74273479,13.3504548 2.95396908,10.9354034 L2.95399608,10.9353359 C2.96856075,10.7686723 2.98894316,10.5972438 3.01481962,10.4215885 C3.04162728,10.2395502 3.07163413,10.0691759 3.10461048,9.91006959 L3.82594762,9.96827439 C3.89621996,11.4992515 4.53239448,12.9047498 5.54472819,13.9584458 C6.54352248,14.998071 7.90953733,15.6945167 9.46029391,15.8301475 C11.1588288,15.9787099 12.7573659,15.4242527 13.9686939,14.4077773 C15.1795453,13.3917064 16.0028208,11.9132481 16.1515076,10.2133315 C16.2870308,8.66400811 15.8383467,7.19868468 14.988087,6.03482868 C14.1263019,4.85522525 12.8522482,3.98477268 11.3557899,3.64954068 L11.425765,2.92857039 C11.5987189,2.92342754 11.7721193,2.92314406 11.9457078,2.92805746 L11.9456914,2.92806857 Z M13.8605486,3.94967657 C14.5256229,4.399224 15.1056343,4.96045714 15.575832,5.60404457 C16.5274766,6.90668571 17.0296937,8.54614971 16.8781371,10.2790046 C16.7119999,12.1784743 15.7913074,13.8311417 14.4370629,14.9675417 C13.0832914,16.1035474 11.2955074,16.7230663 9.39462857,16.5567909 C7.6632,16.4053533 6.13666286,15.6263383 5.01918857,14.4632023 C4.46652686,13.8879463 4.01425371,13.2185109 3.68695886,12.4844434 C3.8464008,14.1337611 4.51000457,15.6544697 5.53318971,16.8738377 C6.856752,18.4511143 8.78250514,19.523544 10.9966183,19.7171897 L10.9966723,19.7172167 C13.2093831,19.9107421 15.2916437,19.1885961 16.869438,17.8646259 C18.446742,16.5410499 19.519158,14.6153104 19.7128174,12.4011973 C19.9063562,10.188459 19.1842243,8.10619157 17.8602266,6.528363 C16.8380117,5.31018128 15.4565546,4.39330928 13.860558,3.949659 L13.8605486,3.94967657 Z M2.95398857,10.9353909 L2.95398857,10.9353504 L2.95398857,10.9353909 Z M3.680616,11.0010332 L3.680616,11.0010872 L3.680616,11.0010332 Z M10.9966389,19.7172015 Z" id="Shape" fill="#212121" fill-rule="nonzero"></path>
                    <path d="M17.63568,9.50938286 C17.6298217,9.23243794 17.6087374,8.95589829 17.5727914,8.68096457 L17.2870995,6.49635771 L18.2613658,8.47239086 C18.554927,9.06781371 18.7653795,9.70050857 18.8874435,10.3542446 C19.0086045,11.003136 19.0425391,11.6693863 18.9841454,12.3370114 C18.8993085,13.3070949 18.6259659,14.2359531 18.1872734,15.0789223 C17.7489682,15.9211371 17.1450151,16.677744 16.3984917,17.3041714 C15.6524414,17.9301977 14.8028414,18.3937131 13.8974688,18.6793269 C12.9915305,18.9651267 12.0300322,19.0733006 11.0608265,18.9885326 C10.3929991,18.9301255 9.74212251,18.780996 9.12314537,18.5488389 C8.50009166,18.3151426 7.91349394,17.9984331 7.37856823,17.6065474 L5.59978766,16.3034057 L7.7028528,16.9636903 C7.9649496,17.045976 8.23316023,17.1144123 8.50639337,17.1685001 C8.77591406,17.221859 9.0509568,17.2610177 9.33045051,17.2854494 C10.3441077,17.3741064 11.3498517,17.2612604 12.2962608,16.962961 C13.2417922,16.6649318 14.1295077,16.181233 14.9080094,15.5279702 C15.6855134,14.8755302 16.3160311,14.0851347 16.7745031,13.2045473 C17.2325157,12.3247965 17.5182871,11.3551176 17.6067957,10.343161 C17.6318485,10.0566727 17.6413649,9.77841703 17.6356821,9.50938389 L17.63568,9.50938286 Z M18.2516091,11.0642126 C18.1057464,11.9350834 17.8249131,12.7698309 17.4230709,13.5416777 C16.9211074,14.5058091 16.229808,15.3719966 15.3765909,16.0879577 C14.5244297,16.8030309 13.55124,17.3329749 12.5133977,17.6600914 C11.6835771,17.9216482 10.8132171,18.0531771 9.93119657,18.0457783 C10.3166674,18.1521586 10.7154891,18.2242395 11.1236777,18.2599426 C11.9972606,18.3363566 12.8628823,18.2391687 13.6774766,17.9821879 C14.4934354,17.7247752 15.2586,17.3074896 15.9299143,16.7441753 C16.6006731,16.1813239 17.143872,15.5004542 17.5387097,14.7417833 C17.93328,13.9836096 18.1791634,13.1476587 18.2555657,12.2741582 C18.2912013,11.8666587 18.289433,11.461909 18.2516107,11.0642085 L18.2516091,11.0642126 Z" id="Shape" fill="#66BB6A" fill-rule="nonzero"></path>
                </g>
            </g>
        </g>
    </g>
</svg>