<?xml version="1.0" encoding="UTF-8"?>
<svg width="24px" height="24px" viewBox="0 0 24 24" version="1.1" xmlns="http://www.w3.org/2000/svg" xmlns:xlink="http://www.w3.org/1999/xlink">
    <!-- Generator: Sketch 49.2 (51160) - http://www.bohemiancoding.com/sketch -->
    <title>looking-telescope</title>
    <desc>Created with Sketch.</desc>
    <defs></defs>
    <g id="looking-telescope" stroke="none" stroke-width="1" fill="none" fill-rule="evenodd">
        <g id="Group">
            <g id="Layer_x0020_1">
                <g>
                    <g id="_258292568">
                        <rect id="_258291968" x="0" y="0" width="23.4056914" height="23.4056914"></rect>
                        <rect id="_258292280" x="2.92570629" y="2.92570629" width="17.5542857" height="17.5542857"></rect>
                    </g>
                    <path d="M4.21992,8.51835429 L4.63207886,6.975888 C4.67714983,6.80714571 4.79552983,6.67883074 4.95069291,6.60843771 C5.07856251,6.55043554 5.23518343,6.5342376 5.39061634,6.57409817 L5.39203367,6.57409817 L13.4845937,8.68851531 C13.6388523,8.72880789 13.768814,8.81912503 13.8536794,8.93244343 C13.9554836,9.06846583 13.9972203,9.2373432 13.9542013,9.40715314 L13.9552137,9.40740961 L13.5643977,10.9555845 L13.5632098,10.9552875 L13.5629669,10.9570288 C13.5189625,11.1286192 13.4005013,11.2582168 13.2451489,11.3287065 C13.1171446,11.3868033 12.959889,11.4029471 12.8044815,11.3631002 L12.8044005,11.3630732 L9.98908394,10.6410092 L9.82337869,10.5481542 C9.78535377,10.510656 9.74051252,10.4806086 9.69120314,10.4603883 C9.64584897,10.4417876 9.59389377,10.4315154 9.53705252,10.4315154 C9.51361943,10.4315154 9.49473537,10.4325548 9.48027846,10.4345525 C9.46216374,10.4370497 9.44352246,10.4410722 9.4245844,10.4464311 L9.23315149,10.4478619 L4.68772292,9.24296245 C4.53442257,9.20231914 4.40486577,9.11201537 4.31998806,8.99865651 C4.21785983,8.86231011 4.17623114,8.69312211 4.21993857,8.52263708 L4.21993857,8.51835812 L4.21992,8.51835429 Z M5.30059543,7.30369371 L4.96452789,8.56138629 L9.33263074,9.71928343 C9.34832928,9.71644878 9.36420329,9.7139111 9.38027966,9.71168386 C9.43560926,9.70403033 9.48805029,9.70006183 9.53704903,9.70006183 C9.68742034,9.70006183 9.83318846,9.73064901 9.96834617,9.78608674 C10.0733225,9.82914651 10.1702403,9.88725669 10.2563462,9.95766377 L12.8923382,10.6337403 L13.2112087,9.37058263 L5.30060297,7.30369234 L5.30059543,7.30369371 Z M12.8044354,11.363088 L12.8043949,11.3630745 L12.8044354,11.363088 Z" id="Shape" fill="#212121" fill-rule="nonzero"></path>
                    <polygon id="Shape" fill="#212121" fill-rule="nonzero" points="13.5683657 9.77976 14.7222857 10.0757143 14.5422857 10.7814514 13.3883314 10.4854971"></polygon>
                    <path d="M9.53701714,9.70008 C9.85113634,9.70008 10.1355737,9.82743669 10.3414766,10.0333399 C10.5473527,10.2392431 10.6747365,10.5236805 10.6747365,10.8377993 C10.6747365,11.1519185 10.547353,11.4363559 10.3414766,11.6422587 C10.1355734,11.8481349 9.851136,11.9755186 9.53701714,11.9755186 C9.22289794,11.9755186 8.93846057,11.8481352 8.73255771,11.6422587 C8.52665451,11.4363555 8.39929783,11.1519182 8.39929783,10.8377993 C8.39929783,10.5236801 8.52665451,10.2392427 8.73255771,10.0333399 C8.93846091,9.82743669 9.22289829,9.70008 9.53701714,9.70008 Z M9.82432869,10.5504857 C9.75084377,10.4770008 9.64924217,10.4315249 9.53701714,10.4315249 C9.42479211,10.4315249 9.32319051,10.4770008 9.2497056,10.5504857 C9.17622069,10.6239706 9.1307448,10.7255722 9.1307448,10.8377973 C9.1307448,10.9500223 9.17622069,11.0516239 9.2497056,11.1251088 C9.32319051,11.1985937 9.42479211,11.2440696 9.53701714,11.2440696 C9.64924217,11.2440696 9.75084377,11.1985937 9.82432869,11.1251088 C9.8978136,11.0516239 9.94328949,10.9500223 9.94328949,10.8377973 C9.94328949,10.7255722 9.8978136,10.6239706 9.82432869,10.5504857 Z" id="Shape" fill="#212121" fill-rule="nonzero"></path>
                    <path d="M9.58590857,11.7078857 C9.66953074,11.5248487 9.58894569,11.3086594 9.40590857,11.2250366 C9.22287154,11.1414144 9.00668229,11.2219995 8.92305943,11.4050366 L6.82651543,15.9850937 C6.74289326,16.1681307 6.82347831,16.38432 7.00651543,16.4679429 C7.18955246,16.551565 7.40574171,16.47098 7.48936457,16.2879429 L9.58590857,11.7078857 Z" id="Shape" fill="#212121" fill-rule="nonzero"></path>
                    <path d="M10.2732,11.4050057 C10.1895778,11.2219687 9.97338891,11.1413835 9.79035086,11.2250057 C9.60731383,11.3086279 9.52672869,11.5248168 9.61035086,11.7078549 L11.7068949,16.287912 C11.790517,16.470949 12.0067059,16.5515342 12.189744,16.467912 C12.372781,16.3842898 12.4533662,16.1681009 12.369744,15.9850629 L10.2732,11.4050057 Z" id="Shape" fill="#212121" fill-rule="nonzero"></path>
                    <path d="M15.2854629,11.8969714 L15.3272537,11.7961797 L15.3841762,11.7091289 C15.6614585,11.4178759 15.9494722,11.1994855 16.2472711,11.0478603 C16.551901,10.8927511 16.8666665,10.807091 17.1905191,10.7845217 L17.2965483,10.797912 C17.5452682,10.8775385 17.8279083,11.2287909 18.1314878,11.748192 C18.4035463,12.2136549 18.7144272,12.8388549 19.0402203,13.525584 L19.0636669,13.5992445 L19.3861415,15.4490651 L20.2180432,16.8912799 C20.3855708,17.0203776 20.4294942,17.2107309 20.3838431,17.4126113 C20.3514877,17.5556935 20.2661108,17.7033919 20.1486215,17.8227713 C20.0337915,17.9394508 19.8834743,18.0348837 19.7174032,18.0779973 C19.4275405,18.1532774 19.1068741,18.0817093 18.8545895,17.7229241 L18.8378381,17.6961435 L17.9980541,16.1764772 L17.9690462,16.0950013 L17.8122769,15.3226025 L17.2123043,15.9239671 L17.2656361,17.2492059 L17.2633953,17.2994331 C17.2163941,17.631181 17.0733932,17.8426731 16.8894239,17.9622823 C16.7622699,18.0449595 16.6202406,18.0799741 16.4781016,18.0778817 C16.3460883,18.0759379 16.2145065,18.0415306 16.0968685,17.98392 C15.8677076,17.8717354 15.6808628,17.6637264 15.6324856,17.4267497 L15.6268973,17.3720544 L15.6114553,15.8194258 L15.613696,15.7781345 L15.6733991,15.3567836 L15.7436981,15.2061154 L16.6389736,14.2031897 L16.2117667,13.3125565 L15.9759242,13.4995488 L15.797814,13.6407545 L15.7297421,13.6809391 C15.4612877,13.7922192 15.1892039,13.8889347 14.9117981,13.9638908 C14.6307091,14.0398457 14.3444759,14.0936232 14.0514976,14.1178659 L14.0035109,14.1167455 C13.7572613,14.0947298 13.5712538,13.9990269 13.4523338,13.868687 C13.36774,13.7759805 13.3164732,13.6665364 13.2995735,13.5510313 C13.2825116,13.4344598 13.3006803,13.3150674 13.3551057,13.2036518 C13.4306018,13.0490963 13.5764645,12.9111165 13.7938943,12.8272118 L13.8329584,12.8149284 C13.9737863,12.7824244 14.1244679,12.7418892 14.2721378,12.7021904 C14.5873775,12.6174077 14.8896852,12.5361073 15.1940189,12.509502 L15.4004892,12.5753466 L15.9803909,13.0575889 L16.1618488,13.2084865 L16.1465012,13.1764955 L16.0899702,13.0586552 L16.1420331,12.9398836 C16.1521433,12.9168015 16.1571377,12.8962842 16.154546,12.8823268 C16.1542491,12.8806935 16.1519543,12.8779264 16.1471354,12.8739174 L15.3669332,12.2251082 L15.2051694,12.0905841 L15.2854573,11.8969778 L15.2854629,11.8969714 Z M16.5061954,11.5567735 C16.3135341,11.6548656 16.1245029,11.7887554 15.9394011,11.9610878 L16.5109749,12.4364043 C16.6267227,12.5326742 16.6910287,12.6517968 16.714813,12.7796523 C16.7305116,12.8641248 16.7272585,12.9499066 16.7087388,13.0327728 L17.2342805,14.1283899 L17.3161747,14.2991301 L17.1896415,14.4408895 L16.2260107,15.5203889 L16.1808993,15.8387736 L16.1957339,17.3309839 C16.2156709,17.3847072 16.274159,17.4371616 16.3468609,17.4727567 C16.3919723,17.4948399 16.4397697,17.5080144 16.4848002,17.5086758 C16.5196664,17.5091887 16.5525347,17.5018996 16.5791534,17.4845948 C16.6303931,17.4512809 16.6733041,17.3761899 16.6953066,17.2432854 L16.6381009,15.8220363 L16.633093,15.6977708 L16.7206971,15.6099778 L17.7835131,14.5447035 L18.1587394,14.1685995 L18.2645256,14.6897972 L18.5177674,15.9375812 L19.3293925,17.4063058 C19.4130281,17.5190842 19.5009967,17.5457704 19.5745354,17.5266702 C19.6354261,17.5108637 19.6943869,17.4719749 19.7423736,17.4232192 C19.7835569,17.3813746 19.8130237,17.3371676 19.8249562,17.2989942 L19.758396,17.2331224 L18.8666691,15.6872139 L18.8320728,15.5934544 L18.5078568,13.7336019 C18.1976386,13.080771 17.9008796,12.4855882 17.6381756,12.0361367 C17.4292217,11.6786464 17.2619379,11.4329516 17.1590122,11.3598853 C16.9371675,11.3838043 16.7194111,11.4482046 16.5061916,11.5567717 L16.5061954,11.5567735 Z M14.7644811,13.4125632 C14.9465194,13.3633752 15.1265314,13.3036725 15.3049817,13.2359784 L15.1311909,13.0914521 C14.9060523,13.1226467 14.6670926,13.1869121 14.419464,13.2535128 C14.2799455,13.2910245 14.1377811,13.3292787 13.9810526,13.3658863 C13.9201481,13.3921405 13.8833654,13.4232 13.8685035,13.4536389 C13.8652504,13.460307 13.8638466,13.4653689 13.8642921,13.4684465 C13.8648995,13.4726175 13.8682201,13.4782058 13.8742133,13.484766 C13.900589,13.5136658 13.9507353,13.5365995 14.0261367,13.5468176 C14.2770434,13.5246264 14.5227413,13.4778817 14.7644796,13.4125633 L14.7644811,13.4125632 Z" id="Shape" fill="#66BB6A" fill-rule="nonzero"></path>
                    <path d="M15.1952914,12.0826971 C15.1828055,12.0712371 15.1691317,12.0702652 15.1575905,12.0754891 C15.1404207,12.0832506 15.1231563,12.0964384 15.1072282,12.1133923 C15.0888165,12.1329783 15.0735229,12.1562223 15.0628728,12.1812348 C15.0456759,12.2216621 15.0432463,12.2663281 15.0678132,12.2986969 L15.9888166,13.0645918 C15.9997097,13.0736492 16.0226029,13.0660631 16.0459956,13.0514444 C16.0680788,13.0376492 16.0881238,13.0199259 16.1047537,12.9999212 C16.1214376,12.9798627 16.1351924,12.9569695 16.1446681,12.9329156 C16.1548324,12.9071068 16.158126,12.8830529 16.1471383,12.8739144 L15.2064549,12.0916344 L15.1952918,12.0826985 L15.1952914,12.0826971 Z M14.9232058,11.5554 C15.1326322,11.4606689 15.3729007,11.471508 15.5814504,11.6630626 L15.5812749,11.6632651 L16.5109698,12.436408 C16.7453545,12.6313102 16.7703128,12.9007908 16.6759057,13.1404925 C16.644711,13.2197008 16.5986819,13.2959121 16.5422589,13.3637546 C16.4858089,13.431678 16.4193299,13.4908144 16.3473299,13.5358174 C16.1288192,13.6723932 15.8593516,13.6970008 15.6249813,13.5020986 L14.6843116,12.7198461 L14.6586378,12.6963995 C14.448955,12.4740957 14.4382914,12.1931161 14.5383272,11.9580292 C14.5753126,11.871154 14.6282936,11.7906097 14.6920458,11.7227805 C14.7582416,11.6523193 14.8371121,11.5943442 14.9232046,11.5554015 L14.9232058,11.5554 Z" id="Shape" fill="#66BB6A" fill-rule="nonzero"></path>
                    <path d="M16.8955543,7.51182857 C17.3591143,7.57749771 17.7523063,7.82505703 18.0132549,8.17216457 C18.2739072,8.51885486 18.4024114,8.96432571 18.3369579,9.42627771 C18.2712888,9.88983771 18.0237295,10.2830297 17.6766219,10.5439783 C17.3299317,10.8046306 16.8844608,10.9331349 16.4225088,10.8676814 C15.9589762,10.8020122 15.5657705,10.5544666 15.3048082,10.2073454 C15.0441559,9.86065509 14.9156517,9.41519794 14.9811051,8.95323223 C15.0467743,8.48967223 15.2943336,8.09648023 15.6414411,7.83553166 C15.9881314,7.57487931 16.4336023,7.44637509 16.8955543,7.51182857 Z M17.4303977,8.60932114 C17.2824158,8.4124752 17.0590869,8.27202514 16.79556,8.234688 C16.5304666,8.19713554 16.2758469,8.27009417 16.0785977,8.4183864 C15.8817518,8.56636834 15.7413017,8.78969726 15.7039646,9.05322411 C15.6664121,9.31833086 15.7393707,9.57293726 15.887663,9.7701864 C16.0356586,9.96704571 16.2589875,10.1074824 16.5225007,10.1448195 C16.7875941,10.182372 17.0422138,10.1094134 17.239463,9.96112114 C17.4363089,9.8131392 17.576759,9.58981029 17.6140961,9.32628343 C17.6516486,9.06119006 17.5786899,8.80657029 17.4303977,8.60932114 Z" id="Shape" fill="#66BB6A" fill-rule="nonzero"></path>
                    <path d="M5.57108571,6.38417143 C5.6286696,6.19087543 5.51867177,5.98746857 5.32537577,5.92988571 C5.13207977,5.87230183 4.92867291,5.98229966 4.87109006,6.17559566 L3.92071406,9.35651451 C3.86313017,9.54981051 3.973128,9.75321737 4.166424,9.81080023 C4.35972,9.86838411 4.56312686,9.75838629 4.62070971,9.56509029 L5.57108571,6.38417143 Z" id="Shape" fill="#212121" fill-rule="nonzero"></path>
                    <path d="M4.81128,5.69290286 C4.86966034,5.49960686 4.7602968,5.29556571 4.56700114,5.23718743 C4.37370514,5.17880709 4.169664,5.28817063 4.11128571,5.48146629 L2.94144,9.35506629 C2.88305966,9.54836229 2.9924232,9.75240343 3.18571886,9.81078171 C3.37901486,9.86916206 3.583056,9.75979851 3.64143429,9.56650286 L4.81128,5.69290286 Z" id="Shape" fill="#212121" fill-rule="nonzero"></path>
                </g>
            </g>
        </g>
    </g>
</svg>