<?xml version="1.0" encoding="UTF-8"?>
<svg width="24px" height="24px" viewBox="0 0 24 24" version="1.1" xmlns="http://www.w3.org/2000/svg" xmlns:xlink="http://www.w3.org/1999/xlink">
    <!-- Generator: Sketch 49.2 (51160) - http://www.bohemiancoding.com/sketch -->
    <title>mailchain2</title>
    <desc>Created with Sketch.</desc>
    <defs>
        <path d="M3.39699258,0.00993741635 L0.00561578281,3.41484239 C2.37597654,5.79485361 2.7463402,9.4224572 1.11670675,12.1921491 C0.567472072,13.1257638 0.679898932,14.3061949 1.44353419,15.0728833 L1.52793774,15.1576305 C2.59527008,16.2291966 4.40171729,16.0452986 5.18320072,14.7488565 C6.32926523,12.847572 6.90429915,10.6961213 6.90835808,8.54427991 L6.90835808,8.4998965 C6.9026867,5.4265551 5.7322686,2.35477688 3.39699258,0.00993741635 Z" id="path-1"></path>
        <path d="M3.51158791,0.00993741635 C-0.470502516,4.00812848 -1.0658311,10.1190813 1.72543537,14.7491357 C2.50691881,16.0453544 4.31331041,16.2291966 5.38036474,15.1577421 L5.46482389,15.072995 C6.22845915,14.3062507 6.34088601,13.1257638 5.79154013,12.1921491 C4.16190668,9.4224572 4.53227033,5.79485361 6.90240869,3.41484239 L3.51158791,0.00993741635 Z" id="path-3"></path>
        <path d="M0.00835986159,0.00995804196 L6.47031142,6.53969231 C7.56357093,7.64441958 9.33608304,7.64441958 10.4293979,6.53969231 L16.8910727,0.00995804196 L0.00835986159,0.00995804196 Z" id="path-5"></path>
    </defs>
    <g id="mailchain2" stroke="none" stroke-width="1" fill="none" fill-rule="evenodd">
        <g id="Page-1" transform="translate(0.000000, 4.000000)">
            <g id="Group-3" transform="translate(17.049774, 0.000000)">
                <mask id="mask-2" fill="white">
                    <use xlink:href="#path-1"></use>
                </mask>
                <g id="Clip-2"></g>
                <path d="M3.39699258,0.00993741635 L0.00561578281,3.41484239 C2.37597654,5.79485361 2.7463402,9.4224572 1.11670675,12.1921491 C0.567472072,13.1257638 0.679898932,14.3061949 1.44353419,15.0728833 L1.52793774,15.1576305 C2.59527008,16.2291966 4.40171729,16.0452986 5.18320072,14.7488565 C6.32926523,12.847572 6.90429915,10.6961213 6.90835808,8.54427991 L6.90835808,8.4998965 C6.9026867,5.4265551 5.7322686,2.35477688 3.39699258,0.00993741635 Z" id="Fill-1" fill="#4A4A4A" mask="url(#mask-2)"></path>
            </g>
            <g id="Group-6">
                <mask id="mask-4" fill="white">
                    <use xlink:href="#path-3"></use>
                </mask>
                <g id="Clip-5"></g>
                <path d="M3.51158791,0.00993741635 C-0.470502516,4.00812848 -1.0658311,10.1190813 1.72543537,14.7491357 C2.50691881,16.0453544 4.31331041,16.2291966 5.38036474,15.1577421 L5.46482389,15.072995 C6.22845915,14.3062507 6.34088601,13.1257638 5.79154013,12.1921491 C4.16190668,9.4224572 4.53227033,5.79485361 6.90240869,3.41484239 L3.51158791,0.00993741635 Z" id="Fill-4" fill="#4A4A4A" mask="url(#mask-4)"></path>
            </g>
            <g id="Group-9" transform="translate(3.475113, 0.000000)">
                <mask id="mask-6" fill="white">
                    <use xlink:href="#path-5"></use>
                </mask>
                <g id="Clip-8"></g>
                <path d="M0.00835986159,0.00995804196 L6.47031142,6.53969231 C7.56357093,7.64441958 9.33608304,7.64441958 10.4293979,6.53969231 L16.8910727,0.00995804196 L0.00835986159,0.00995804196 Z" id="Fill-7" fill="#4A4A4A" mask="url(#mask-6)"></path>
            </g>
        </g>
    </g>
</svg>