<?xml version="1.0" encoding="UTF-8"?>
<svg width="24px" height="24px" viewBox="0 0 24 24" version="1.1" xmlns="http://www.w3.org/2000/svg" xmlns:xlink="http://www.w3.org/1999/xlink">
    <!-- Generator: Sketch 49.2 (51160) - http://www.bohemiancoding.com/sketch -->
    <title>man-setting-flag</title>
    <desc>Created with Sketch.</desc>
    <defs></defs>
    <g id="man-setting-flag" stroke="none" stroke-width="1" fill="none" fill-rule="evenodd">
        <g id="Group">
            <g id="Layer_x0020_1">
                <g>
                    <g id="_259443624">
                        <rect id="_259443312" x="0" y="0" width="23.4056914" height="23.4056914"></rect>
                        <rect id="_259443024" x="2.92570629" y="2.92570629" width="17.5542857" height="17.5542857"></rect>
                    </g>
                    <polygon id="Shape" fill="#66BB6A" fill-rule="nonzero" points="12.8863886 4.29006857 12.8863886 19.1156229 12.1549371 19.1156229 12.1549371 4.29006857"></polygon>
                    <path d="M9.34717714,6.57329143 C9.34717714,7.001256 9.18023006,7.38980571 8.91020914,7.67212114 L8.90877832,7.67212114 C8.63388506,7.95948686 8.25440804,8.13717943 7.83537832,8.13717943 C7.41604004,8.13717943 7.03602061,7.95933909 6.76105946,7.67175771 C6.49116061,7.38950811 6.32403661,7.00110857 6.32403661,6.57329143 C6.32403661,6.14551543 6.49119969,5.75702057 6.76111089,5.474664 C7.03605798,5.18705554 7.41606404,5.00913257 7.83537489,5.00913257 C8.25536118,5.00913257 8.63528461,5.186892 8.91013604,5.47431086 C9.18019672,5.75672263 9.34717261,6.14536457 9.34717261,6.573288 L9.34717714,6.57329143 Z M8.382384,7.16995886 L8.38164159,7.16925695 C8.52628959,7.01802197 8.61572937,6.80743637 8.61572937,6.57329237 C8.61572937,6.33915077 8.52626251,6.12848323 8.38157405,5.97718037 C8.24178537,5.83099363 8.04869199,5.74058186 7.83537862,5.74058186 C7.62268582,5.74058186 7.42962091,5.83115546 7.28968377,5.97753112 C7.14506285,6.12882026 7.05548799,6.33935169 7.05548799,6.5732934 C7.05548799,6.807219 7.14503577,7.01768426 7.28962959,7.16889455 C7.42955302,7.31522975 7.62263302,7.4057358 7.83537931,7.4057358 C8.04935439,7.4057358 8.24266274,7.3156614 8.38238388,7.16996083 L8.382384,7.16995886 Z" id="Shape" fill="#212121" fill-rule="nonzero"></path>
                    <path d="M6.03267429,8.26354286 L9.314208,8.26354286 L9.56619463,8.26354286 L11.7892323,8.26354286 L11.7892323,8.99499086 L9.56619463,8.99499086 L9.314208,8.99499086 L6.03267429,8.99499086 C5.94442217,8.99499086 4.95166286,10.0345097 4.189344,10.7122046 C4.01338011,10.8686499 3.85854069,11.0062923 3.73840457,11.1124286 L3.9917544,11.6558297 L5.51340583,10.3564286 L6.11397154,9.84358629 L6.11483544,10.6335737 L6.12333936,18.3883166 L6.90850964,18.3883166 L6.90850964,13.6916537 L6.90850964,13.3259314 L7.27423193,13.3259314 L8.32462964,13.3259314 L8.64115159,13.3259314 L8.68606039,13.6402262 L9.36452667,18.3883176 L10.141369,18.3883176 C9.9535669,17.0904147 9.82132381,16.2556502 9.72475639,15.645961 C9.60158427,14.8682685 9.53371467,14.4398856 9.49841684,14.0189839 C9.45495216,13.5007313 9.45838073,12.9724467 9.46600738,11.7965153 C9.46893651,11.3454696 9.47251357,10.7975187 9.47416035,10.1180273 L9.47505124,9.75230503 L9.83845238,9.75230503 L11.7892272,9.75230503 L11.7892272,10.483753 L10.2016375,10.483753 C10.1997883,11.0011176 10.1969671,11.4323873 10.1945914,11.7993782 C10.1872213,12.9350307 10.1839142,13.4452262 10.2270009,13.9589736 C10.2622853,14.3797416 10.3271045,14.7889039 10.4447556,15.5316902 C10.5565215,16.2373005 10.7138175,17.230249 10.9242036,18.7026182 L10.9838258,19.119769 L10.5627732,19.119769 L9.04800635,19.119769 L8.73149778,19.119769 L8.68657526,18.8054743 L8.00810898,14.0573829 L7.63995584,14.0573829 L7.63995584,18.7540457 L7.63995584,19.119768 L7.27423355,19.119768 L5.75945298,19.119768 L5.39556498,19.1197545 L5.39516003,18.7540459 L5.38711502,11.4235888 L4.10034817,12.5224185 L3.73466702,12.8346883 L3.53178748,12.399558 L2.95999777,11.1731409 L2.84299434,10.9221667 L3.05428348,10.7417076 C3.1128932,10.691656 3.37289754,10.4605243 3.70362062,10.1665031 C4.54838634,9.41551222 5.84429034,8.26354993 6.0326732,8.26354993 L6.03267429,8.26354286 Z" id="Shape" fill="#212121" fill-rule="nonzero"></path>
                    <path d="M12.50496,5.15636571 C13.8574629,5.09578526 15.056856,5.23426457 16.1391771,5.35925897 C17.651568,5.53390011 18.9243771,5.68088331 19.9585714,5.19065143 L20.4800126,4.94348366 L20.4800126,5.52065966 L20.4800126,10.0756539 L20.4800126,10.3158566 L20.2571421,10.4113707 C18.8249455,11.0251536 17.5404449,10.7852736 16.1956221,10.5341109 C15.0726689,10.3244009 13.9042838,10.1062011 12.6092678,10.4299443 L12.1549683,10.5435192 L12.1549683,10.0756529 L12.1549683,5.52065863 L12.1549683,5.17205177 L12.5049809,5.15636674 L12.50496,5.15636571 Z M16.0563086,6.08498057 C15.0943234,5.97388937 14.0377303,5.85191863 12.886392,5.87383989 L12.886392,9.62558846 C14.143248,9.40918354 15.2545234,9.61665257 16.327032,9.81694046 C17.4866194,10.0334938 18.597312,10.2408559 19.7485714,9.82755014 L19.7485714,6.05238442 C18.6600823,6.38561722 17.4534,6.24630134 16.0563086,6.08498283 L16.0563086,6.08498057 Z" id="Shape" fill="#66BB6A" fill-rule="nonzero"></path>
                </g>
            </g>
        </g>
    </g>
</svg>