<?xml version="1.0" encoding="UTF-8"?>
<svg width="24px" height="24px" viewBox="0 0 24 24" version="1.1" xmlns="http://www.w3.org/2000/svg" xmlns:xlink="http://www.w3.org/1999/xlink">
    <!-- Generator: Sketch 49.2 (51160) - http://www.bohemiancoding.com/sketch -->
    <title>man-with-flag</title>
    <desc>Created with Sketch.</desc>
    <defs></defs>
    <g id="man-with-flag" stroke="none" stroke-width="1" fill="none" fill-rule="evenodd">
        <g id="Group">
            <g id="Layer_x0020_1">
                <g>
                    <g id="_258303320">
                        <rect id="_258303248" x="0" y="0" width="23.4056914" height="23.4056914"></rect>
                        <rect id="_258303392" x="2.92570629" y="2.92570629" width="17.5542857" height="17.5542857"></rect>
                    </g>
                    <path d="M14.3512457,4.71408 C14.3512457,4.51210491 14.1874978,4.34835771 13.9855234,4.34835771 C13.7835483,4.34835771 13.6198011,4.5121056 13.6198011,4.71408 L13.6198011,19.3289486 C13.6198011,19.5309237 13.783549,19.6946709 13.9855234,19.6946709 C14.1874985,19.6946709 14.3512457,19.530923 14.3512457,19.3289486 L14.3512457,4.71408 Z" id="Shape" fill="#66BB6A" fill-rule="nonzero"></path>
                    <path d="M13.9669371,5.56292571 C15.0673063,5.50272309 16.0425463,5.64025749 16.9225543,5.76437451 C18.1210423,5.93341371 19.1296766,6.07567269 19.9314103,5.61150617 L20.4799954,5.29390423 L20.4799954,5.92721966 L20.4799954,10.4174482 L20.4799954,10.6371062 L20.2828392,10.7403007 C19.0888186,11.3653121 18.0315089,11.1241395 16.9245535,10.8716393 C16.0327203,10.6682064 15.1047638,10.4565387 14.0912301,10.766015 L13.6197878,10.9099745 L13.6197878,10.4174465 L13.6197878,5.92721794 L13.6197878,5.58192994 L13.9669375,5.56292431 L13.9669371,5.56292571 Z M16.82256,6.48723771 C16.0707566,6.38120846 15.2468194,6.26502857 14.3512354,6.27935006 L14.3512354,9.95285863 C15.3514731,9.76496229 16.2329691,9.96593849 17.0845611,10.1601926 C17.9920251,10.3671891 18.8615863,10.565412 19.7485474,10.1879316 L19.7485474,6.48894874 C18.8757874,6.77671937 17.9208617,6.64214109 16.82256,6.48722096 L16.82256,6.48723771 Z" id="Shape" fill="#66BB6A" fill-rule="nonzero"></path>
                    <path d="M5.80035429,5.56501714 L6.87287657,5.56501714 L7.21050994,5.56501714 L7.23716911,5.90216434 C7.26709488,6.28064434 7.41967985,6.61541349 7.64823425,6.85316091 C7.86378888,7.07739497 8.14823997,7.21418606 8.45821368,7.21418606 C8.76817539,7.21418606 9.05261139,7.07739429 9.26816568,6.85316091 C9.49669197,6.61542857 9.64928911,6.28064434 9.67923082,5.90216434 L9.70591697,5.56501714 L10.0435233,5.56501714 L11.1160455,5.56501714 C11.3008373,5.56501714 11.4621564,5.65506446 11.5731255,5.80014411 C11.6627138,5.91722846 11.718354,6.07328263 11.718354,6.23994754 L11.718354,8.26021269 C11.718354,8.42690331 11.6627141,8.5829304 11.5731255,8.70001611 C11.4621561,8.84509611 11.3008377,8.93514309 11.1160455,8.93514309 L5.80035411,8.93514309 C5.61557571,8.93514309 5.45425697,8.8450824 5.3432604,8.70001611 C5.25368554,8.58293177 5.19804566,8.42689131 5.19804566,8.26021269 L5.19804566,6.23994754 C5.19804566,6.07325691 5.25368554,5.91722983 5.34327411,5.80014411 C5.45423023,5.65507783 5.61554863,5.56501714 5.80035411,5.56501714 L5.80035429,5.56501714 Z M6.559512,6.29646514 L5.92949143,6.29646514 L5.92949143,8.20369714 L10.9869086,8.20369714 L10.9869086,6.29646514 L10.3568743,6.29646514 C10.2638438,6.70989257 10.0646763,7.07718171 9.793872,7.35889029 C9.44353714,7.72333029 8.97490286,7.94563543 8.45821371,7.94563543 C7.94151086,7.94563543 7.47286286,7.72333166 7.122528,7.35889029 C6.85172469,7.07718034 6.65254286,6.70990629 6.559512,6.29646514 Z" id="Shape" fill="#212121" fill-rule="nonzero"></path>
                    <path d="M8.45818286,3.58601143 C9.00707657,3.58601143 9.50189829,3.83712069 9.85813371,4.24306971 C10.2027189,4.63573714 10.4158423,5.17434514 10.4158423,5.76582857 C10.4158423,6.35729829 10.2026904,6.89593371 9.85813371,7.28858743 C9.50189829,7.69453714 9.00708,7.94564571 8.45818286,7.94564571 C7.90928914,7.94564571 7.41446743,7.69453646 7.058232,7.28858743 C6.71367429,6.89593371 6.50052343,6.35729829 6.50052343,5.76582857 C6.50052343,5.17434514 6.71364823,4.63573714 7.058232,4.24306971 C7.41446743,3.83712 7.90928571,3.58601143 8.45818286,3.58601143 Z M9.30956229,4.72306971 C9.08966126,4.47247337 8.78847429,4.31745943 8.45818286,4.31745943 C8.12790617,4.31745943 7.82670514,4.47247406 7.60680343,4.72306971 C7.37521303,4.98697509 7.231968,5.35543886 7.231968,5.76582857 C7.231968,6.17621829 7.37522571,6.54468 7.60680343,6.80858743 C7.82670446,7.05918377 8.12790514,7.21419771 8.45818286,7.21419771 C8.78847291,7.21419771 9.08966057,7.05918309 9.30956229,6.80858743 C9.54113931,6.54468206 9.68439771,6.17621829 9.68439771,5.76582857 C9.68439771,5.35543886 9.54115371,4.98697714 9.30956229,4.72306971 Z" id="Shape" fill="#212121" fill-rule="nonzero"></path>
                    <path d="M11.6042057,8.65566857 C11.8750899,8.86624217 12.1675851,9.10281257 12.4554377,9.34377257 C12.7292376,9.57297394 13.0035223,9.80739771 13.2540926,10.0270046 L13.2540926,11.0015691 C12.9256786,10.7016638 12.4580709,10.2982389 11.9868583,9.90376457 C11.548392,9.53671886 11.122128,9.18113143 10.8254229,8.935152 L11.1160279,8.935152 C11.3008197,8.935152 11.4621387,8.84510469 11.5731079,8.70002503 C11.5839875,8.68579779 11.5943542,8.67099017 11.604208,8.6556696 L11.6042057,8.65566857 Z M13.2540926,13.2027771 L11.0606846,11.5416617 L11.0606846,14.6478 L11.0606846,15.0135223 L10.6949623,15.0135223 L6.19619657,15.0135223 L5.83047429,15.0135223 L5.83047429,14.6478 L5.83047429,12.0254434 L4.55462743,13.8922869 L4.306812,14.2548926 L3.99605383,13.9451469 L3.03427097,12.9864703 L2.81628686,12.7691743 L2.99284491,12.5178898 C3.08077303,12.392747 3.25556263,12.1328235 3.48662777,11.7891984 C4.03333749,10.9761538 4.87067691,9.73098926 5.52920606,8.86385897 C5.61023657,8.90963177 5.70195737,8.93515714 5.80033303,8.93515714 L6.23771931,8.93515714 C5.77689874,9.62527029 4.73638217,11.2371446 4.09235246,12.1949057 C3.9635784,12.3864062 3.851016,12.5537983 3.7634256,12.6835046 L4.19958446,13.1182577 L5.8947696,10.6378337 L6.56192503,10.843548 L6.56192503,14.2820966 L10.3292393,14.2820966 L10.3292393,10.8066566 L10.3292393,10.07166 L10.9149593,10.515228 L13.2540953,12.2867057 L13.2540953,13.2027823 L13.2540926,13.2027771 Z" id="Shape" fill="#212121" fill-rule="nonzero"></path>
                    <path d="M9.28909714,14.2820914 L10.6949589,14.2820914 L11.0606811,14.2820914 L11.0606811,14.6478137 L11.0606811,19.4539851 L11.0606811,19.8197074 L10.6949589,19.8197074 L9.28909714,19.8197074 L8.92337486,19.8197074 L8.92337486,19.4539851 L8.92337486,14.6478137 L8.92337486,14.2820914 L9.28909714,14.2820914 Z M10.3292366,15.0135394 L9.65481943,15.0135394 L9.65481943,19.0882594 L10.3292366,19.0882594 L10.3292366,15.0135394 Z" id="Shape" fill="#212121" fill-rule="nonzero"></path>
                    <path d="M6.19621714,14.2820914 L7.60207886,14.2820914 L7.96780114,14.2820914 L7.96780114,14.6478137 L7.96780114,19.4539851 L7.96780114,19.8197074 L7.60207886,19.8197074 L6.19621714,19.8197074 L5.83049486,19.8197074 L5.83049486,19.4539851 L5.83049486,14.6478137 L5.83049486,14.2820914 L6.19621714,14.2820914 Z M7.23635657,15.0135394 L6.56193943,15.0135394 L6.56193943,19.0882594 L7.23635657,19.0882594 L7.23635657,15.0135394 Z" id="Shape" fill="#212121" fill-rule="nonzero"></path>
                    <path d="M7.58986286,9.85289143 L9.32651657,9.85289143 L9.69223886,9.85289143 L9.69223886,10.2186137 L9.69223886,11.537952 L9.69223886,11.9036743 L9.32651657,11.9036743 L7.58986286,11.9036743 L7.22414057,11.9036743 L7.22414057,11.537952 L7.22414057,10.2186137 L7.22414057,9.85289143 L7.58986286,9.85289143 Z M8.96079086,10.5843394 L7.95558514,10.5843394 L7.95558514,11.1722331 L8.96079086,11.1722331 L8.96079086,10.5843394 Z" id="Shape" fill="#212121" fill-rule="nonzero"></path>
                    <polygon id="Shape" fill="#212121" fill-rule="nonzero" points="13.2541029 11.2561029 12.8719886 12.0416914 12.2148343 11.7245143 12.80328 10.5147771 13.2541029 10.7323543"></polygon>
                    <polygon id="Shape" fill="#212121" fill-rule="nonzero" points="4.55681143 12.9651429 3.51565714 12.1258629 3.97278857 11.5573029 5.01394286 12.3965829"></polygon>
                    <path d="M9.53218286,7.3908 L9.53218286,8.56944686 L9.53218286,8.93516914 L9.16646057,8.93516914 L7.74994629,8.93516914 L7.384224,8.93516914 L7.384224,8.56944686 L7.384224,7.3908 L7.384224,6.76419429 L7.92994629,7.07365646 C8.01013989,7.11913234 8.09665029,7.15486217 8.18825006,7.17930789 C8.27372126,7.20212002 8.36406549,7.21421451 8.45821646,7.21421451 C8.55235371,7.21421451 8.64268423,7.20212002 8.72814206,7.17930789 C8.81972811,7.15486245 8.90625223,7.11913234 8.9864592,7.07365646 L9.53218149,6.76423474 L9.53218149,7.39079931 L9.53218286,7.3908 Z M8.80073486,8.20372114 L8.80073486,7.9119552 C8.68876629,7.93410593 8.57430069,7.94566049 8.45821509,7.94566049 C8.34210274,7.94566049 8.2276368,7.93410593 8.11566857,7.9119552 L8.11566857,8.20372114 L8.80073486,8.20372114 Z" id="Shape" fill="#212121" fill-rule="nonzero"></path>
                    <rect id="Rectangle-path" fill="#212121" x="7.65572571" y="5.27108571" width="1.60490743" height="1" rx="0.090189"></rect>
                </g>
            </g>
        </g>
    </g>
</svg>