<?xml version="1.0" encoding="UTF-8"?>
<svg width="24px" height="24px" viewBox="0 0 24 24" version="1.1" xmlns="http://www.w3.org/2000/svg" xmlns:xlink="http://www.w3.org/1999/xlink">
    <!-- Generator: Sketch 49.2 (51160) - http://www.bohemiancoding.com/sketch -->
    <title>measurement</title>
    <desc>Created with Sketch.</desc>
    <defs></defs>
    <g id="measurement" stroke="none" stroke-width="1" fill="none" fill-rule="evenodd">
        <g id="Group" transform="translate(4.000000, 4.000000)">
            <g id="Layer_x0020_1">
                <g>
                    <g id="_347231464">
                        <rect id="_347232040" x="0" y="0" width="23.4056914" height="23.4056914"></rect>
                        <rect id="_347232064" x="2.92570629" y="2.92570629" width="17.5542857" height="17.5542857"></rect>
                    </g>
                    <path d="M5.06756571,6.47166857 C5.08649037,6.27127269 4.93938583,6.09344571 4.73898994,6.07452 C4.53859406,6.05559535 4.36076709,6.20269989 4.34184137,6.40309577 L3.24841166,17.9368786 C3.22948701,18.1372745 3.37659154,18.3151015 3.57698743,18.3340272 C3.77738331,18.3529519 3.95521029,18.2058473 3.974136,18.0054514 L5.06756571,6.47166857 Z" id="Shape" fill="#212121" fill-rule="nonzero"></path>
                    <path d="M3.91776,3.02571429 C3.76786114,2.89079863 3.53695886,2.90294709 3.40204457,3.05284591 C3.26712891,3.20274477 3.27927737,3.43364705 3.42917619,3.56856134 L4.27025619,4.32780134 C4.42015505,4.46271699 4.65105734,4.45056854 4.78597162,4.30066971 C4.92088728,4.15077086 4.90873882,3.91986857 4.75884,3.78495429 L3.91776,3.02571429 Z" id="Shape" fill="#212121" fill-rule="nonzero"></path>
                    <path d="M7.48734857,4.48378286 C7.28615623,4.48614506 7.12498629,4.65117531 7.12734857,4.852368 C7.12971077,5.05356034 7.29474103,5.21473029 7.49593371,5.212368 L16.0865623,5.08113737 C16.2877546,5.07877517 16.4489246,4.91374491 16.4465623,4.71255223 C16.4442001,4.51135989 16.2791698,4.35018994 16.0779771,4.35255223 L7.48734857,4.48378286 Z M17.5194514,4.33052297 C17.3182591,4.33288517 17.1570891,4.49791543 17.1594514,4.69910811 C17.1618136,4.90030046 17.3268439,5.0614704 17.5280366,5.05910811 L18.9864617,5.0368224 C19.1876541,5.0344602 19.348824,4.86942994 19.3464617,4.66823726 C19.3440995,4.46704491 19.1790693,4.30587497 18.9778766,4.30823726 L17.5194514,4.33052297 Z" id="Shape" fill="#212121" fill-rule="nonzero"></path>
                    <path d="M5.56621714,3.41573486 C6.10188343,3.32528263 6.62401371,3.46087337 7.03510286,3.75319269 C7.44608571,4.04543109 7.74561257,4.49454583 7.83622629,5.03122697 C7.92666514,5.56689326 7.79108777,6.08902354 7.49876846,6.50011269 C7.20653006,6.91109554 6.75742903,7.2106224 6.22073417,7.30124983 C5.68506789,7.39170206 5.1629376,7.25611131 4.75184846,6.963792 C4.34085189,6.6715536 4.04131131,6.22242514 3.95071131,5.685744 C3.86027246,5.15009143 3.99584983,4.62796114 4.28816914,4.216872 C4.58040754,3.80587543 5.029536,3.50636229 5.56621714,3.41573486 Z M6.61225371,4.34746971 C6.35381486,4.16370377 6.024672,4.07858331 5.68621714,4.1357352 C5.34877269,4.19271154 5.06630743,4.3811616 4.88244686,4.63972149 C4.6986672,4.89817371 4.61357383,5.22728949 4.67071234,5.56574777 C4.72767531,5.90319223 4.91612503,6.18565749 5.17469863,6.36951806 C5.43315086,6.55329771 5.76228034,6.63840446 6.1007352,6.58125257 C6.43817966,6.52427623 6.7206312,6.33582617 6.90449177,6.07726629 C7.08827143,5.81881406 7.1733648,5.48969829 7.11622629,5.15122971 C7.05926331,4.81379897 6.8708136,4.53133371 6.61225371,4.34747314 L6.61225371,4.34746971 Z" id="Shape" fill="#212121" fill-rule="nonzero"></path>
                    <path d="M7.26613714,6.77067429 L7.97429829,7.47884914 L8.2886064,7.1645544 L7.44982011,6.56637497 C7.41858501,6.60668091 7.38581109,6.64577211 7.35153874,6.68354023 L7.35083683,6.68289231 C7.32348924,6.71299356 7.2952374,6.74228477 7.266135,6.77067197 L7.26613714,6.77067429 Z M7.71572571,8.25457029 L6.45719657,6.99602743 L6.12600206,6.66483291 L6.52862949,6.42458983 C6.63565749,6.36072926 6.73076674,6.28257394 6.81152709,6.19353909 L6.81152709,6.19212176 C6.89404217,6.10116999 6.96273531,5.99861011 7.01505463,5.88803182 L7.20170914,5.49361239 L7.556484,5.74661113 L9.06336857,6.82123856 L9.415284,7.07221273 L9.11051897,7.37695068 L8.23287326,8.25456896 L7.97429966,8.51314256 L7.71572606,8.25456896 L7.71572571,8.25457029 Z" id="Shape" fill="#212121" fill-rule="nonzero"></path>
                    <path d="M19.30896,5.87410286 C19.4951016,6.30750514 19.6523451,6.75635314 19.7797543,7.21741371 C19.9062065,7.67504571 20.0015314,8.140968 20.0647848,8.61190971 C20.4496488,11.4769269 19.6368614,14.2266411 18.0116911,16.3561611 C16.3865894,18.485616 13.9489025,19.9951783 11.0839197,20.3800354 C9.87490251,20.5424335 8.65765337,20.4915449 7.48511966,20.2387217 C6.31015851,19.9853853 5.17930937,19.5301937 4.14567737,18.8846657 L4.53140537,18.26466 C5.4937128,18.865644 6.54520423,19.2891411 7.63654251,19.524444 C8.73029794,19.7602731 9.86350594,19.8080571 10.9867848,19.6571729 C13.6518374,19.2991855 15.9196419,17.8946575 17.4317105,15.9133101 C18.9437105,13.9320552 19.6999265,11.3740529 19.3419391,8.70902434 C19.282992,8.27022206 19.1943621,7.8367512 19.0769133,7.4116872 C18.9603957,6.99000034 18.8136422,6.57265749 18.6375418,6.16264834 L19.3089761,5.87408126 L19.30896,5.87410286 Z" id="Shape" fill="#66BB6A" fill-rule="nonzero"></path>
                    <path d="M16.8605143,3.58649143 C17.1632949,3.58649143 17.4374846,3.709272 17.6359371,3.90772423 C17.8343894,4.10620354 17.9571699,4.38036651 17.9571699,4.6831608 C17.9571699,4.98594137 17.8343894,5.26013109 17.6359371,5.45858366 C17.4374849,5.65703589 17.1632949,5.77981646 16.8605143,5.77981646 C16.5577337,5.77981646 16.2835817,5.65704926 16.0850914,5.45858366 C15.8866258,5.26009097 15.7638586,4.98594137 15.7638586,4.6831608 C15.7638586,4.38038023 15.8866392,4.1062008 16.0850914,3.90772423 C16.2835437,3.709272 16.5577337,3.58649143 16.8605143,3.58649143 Z M17.118791,4.42487314 C17.0527437,4.35882583 16.9614007,4.31793943 16.8605143,4.31793943 C16.7596279,4.31793943 16.6682849,4.35882583 16.6022376,4.42487314 C16.5361769,4.49093383 16.4953039,4.5822768 16.4953039,4.6831632 C16.4953039,4.7840496 16.5361769,4.8753792 16.6022376,4.94143989 C16.6682983,5.00750057 16.7596279,5.0483736 16.8605143,5.0483736 C16.9614007,5.0483736 17.0527437,5.0074872 17.118791,4.94143989 C17.1848383,4.87539257 17.2257247,4.7840496 17.2257247,4.6831632 C17.2257247,4.58226343 17.1848517,4.49093383 17.118791,4.42487314 Z" id="Shape" fill="#212121" fill-rule="nonzero"></path>
                </g>
            </g>
        </g>
    </g>
</svg>