<?xml version="1.0" encoding="UTF-8"?>
<svg width="24px" height="24px" viewBox="0 0 24 24" version="1.1" xmlns="http://www.w3.org/2000/svg" xmlns:xlink="http://www.w3.org/1999/xlink">
    <!-- Generator: Sketch 49.2 (51160) - http://www.bohemiancoding.com/sketch -->
    <title>moon-and-stars</title>
    <desc>Created with Sketch.</desc>
    <defs></defs>
    <g id="moon-and-stars" stroke="none" stroke-width="1" fill="none" fill-rule="evenodd">
        <g id="Group">
            <g id="Layer_x0020_1">
                <g>
                    <g id="_350184128">
                        <rect id="_350183840" x="0" y="0" width="23.4056914" height="23.4056914"></rect>
                        <rect id="_350184224" x="2.92570629" y="2.92570629" width="17.5542857" height="17.5542857"></rect>
                    </g>
                    <path d="M11.5465371,2.97667543 C13.8713109,3.08090949 15.9594857,4.09376914 17.4641829,5.66856343 C18.9619817,7.23615086 19.8819051,9.36003771 19.8819051,11.6983577 C19.8819051,14.1096137 18.9045189,16.2926434 17.3242971,17.8728377 C15.7440891,19.4530594 13.5610629,20.4304457 11.1498171,20.4304457 C9.55858286,20.4304457 8.06564229,20.0037634 6.77914286,19.25844 C5.44741371,18.4869291 4.33851429,17.374128 3.57238971,16.0399714 L4.14096686,15.5942571 C4.79324571,16.2150583 5.56282629,16.713768 6.41297486,17.0536011 C7.22954057,17.3800039 8.122656,17.5595589 9.05980457,17.5595589 C11.030112,17.5595589 12.8138846,16.7609589 14.1050503,15.4698034 C15.3962057,14.178648 16.1948057,12.3948891 16.1948057,10.424592 C16.1948057,8.88613371 15.7090834,7.46260457 14.8829314,6.29906057 C14.0326457,5.10155657 12.8226583,4.17770743 11.4108514,3.68526171 L11.5465635,2.97668229 L11.5465371,2.97667543 Z M16.9356,6.17142857 C16.0723817,5.26798629 14.9996709,4.56646629 13.7955669,4.144752 C14.44092,4.63205486 15.0087154,5.21646514 15.4771611,5.876208 C16.3896994,7.161408 16.9262057,8.731008 16.9262057,10.4245851 C16.9262057,12.5967874 16.0457109,14.5633851 14.6221509,15.9869623 C13.1985909,17.4105223 11.2319691,18.2910171 9.05977371,18.2910171 C8.03059543,18.2910171 7.045704,18.0922005 6.14152114,17.730768 C5.97820491,17.6654901 5.81760206,17.5948803 5.65990286,17.5191686 C6.10904571,17.9430703 6.60713486,18.315516 7.14483771,18.6270291 C8.32155429,19.3087491 9.68943086,19.6990097 11.1497863,19.6990097 C13.3591509,19.6990097 15.3593177,18.8035183 16.8071349,17.3557011 C18.254952,15.9078977 19.1504434,13.907724 19.1504434,11.6983526 C19.1504434,9.554172 18.307704,7.607484 16.9356,6.17142686 L16.9356,6.17142857 Z" id="Shape" fill="#212121" fill-rule="nonzero"></path>
                    <polygon id="Shape" fill="#66BB6A" points="11.1047657 5.35237714 11.4531086 6.95691429 13.1162057 7.36381714 11.5116686 7.71216 11.1047657 9.37525714 10.7564229 7.77072 9.09332571 7.36381714 10.6978629 7.01547429"></polygon>
                    <polygon id="Shape" fill="#66BB6A" points="8.238 10.6552457 8.54033143 12.0479314 9.98382857 12.4010743 8.59114286 12.70344 8.238 14.1469371 7.93563429 12.7542514 6.49213714 12.4010743 7.88482286 12.0987429"></polygon>
                </g>
            </g>
        </g>
    </g>
</svg>