<?xml version="1.0" encoding="UTF-8"?>
<svg width="24px" height="24px" viewBox="0 0 24 24" version="1.1" xmlns="http://www.w3.org/2000/svg" xmlns:xlink="http://www.w3.org/1999/xlink">
    <!-- Generator: Sketch 49.2 (51160) - http://www.bohemiancoding.com/sketch -->
    <title>moon-orbitting</title>
    <desc>Created with Sketch.</desc>
    <defs></defs>
    <g id="moon-orbitting" stroke="none" stroke-width="1" fill="none" fill-rule="evenodd">
        <g id="Group">
            <g id="Layer_x0020_1">
                <g>
                    <g id="_258297920">
                        <rect id="_258298544" x="0" y="0" width="23.4056914" height="23.4056914"></rect>
                        <rect id="_258297992" x="2.92570629" y="2.92570629" width="17.5542857" height="17.5542857"></rect>
                    </g>
                    <path d="M11.42736,6.58282286 C12.8862171,6.58282286 14.20704,7.17418286 15.1630971,8.13027086 C16.1191817,9.086328 16.7105451,10.4071543 16.7105451,11.866008 C16.7105451,13.3248651 16.1191851,14.6456743 15.1630971,15.6017451 C14.20704,16.5578297 12.8862137,17.1491931 11.42736,17.1491931 C9.96848914,17.1491931 8.64769371,16.5578331 7.69162286,15.6017451 C6.73553829,14.6456606 6.14417486,13.3248617 6.14417486,11.866008 C6.14417486,10.4071509 6.73553486,9.086328 7.69162286,8.13027086 C8.64770743,7.17418629 9.96851657,6.58282286 11.42736,6.58282286 Z M14.645952,8.647416 C13.8222857,7.82374971 12.6843223,7.31426743 11.42736,7.31426743 C10.1703977,7.31426743 9.03243429,7.82373257 8.20875429,8.647416 C7.385088,9.47108229 6.87560571,10.6090457 6.87560571,11.866008 C6.87560571,13.122984 7.38507086,14.2609337 8.20875429,15.0846137 C9.03243429,15.9082937 10.170384,16.4177623 11.42736,16.4177623 C12.6843223,16.4177623 13.8222857,15.9082834 14.645952,15.0846137 C15.469632,14.2609337 15.9791006,13.1229703 15.9791006,11.866008 C15.9791006,10.6090457 15.4696217,9.47108229 14.645952,8.647416 Z" id="Shape" fill="#212121" fill-rule="nonzero"></path>
                    <path d="M10.8567429,7.20565714 L10.6536336,7.92426514 L10.6293501,7.98711326 C10.4344478,8.37937269 10.180101,8.77175554 9.77543355,9.03358183 C9.5387003,9.18673371 9.25940613,9.29107577 8.9239067,9.31930046 L9.10834773,9.63242091 C9.26973367,9.643692 9.40787527,9.69405429 9.5250803,9.77956594 C9.64470247,9.8668056 9.73199595,9.98264811 9.79069995,10.1237877 C10.3617594,10.3219293 10.672652,10.5846459 10.7866588,10.8676814 C10.9194553,11.1973913 10.8141279,11.5111728 10.5422315,11.7799111 C10.3401076,11.9796727 10.0319024,12.1549625 9.66738007,12.2822928 C8.68674007,12.624853 7.22245893,12.6410379 6.31735378,11.8422357 L6.80021664,11.2965271 C7.4830955,11.8992014 8.63967264,11.8688825 9.42738007,11.5937194 C9.69159607,11.5014315 9.90443835,11.3847926 10.0308086,11.2599062 C10.0873934,11.203969 10.1180212,11.1602482 10.109504,11.1391097 C10.0635693,11.0250761 9.84762315,10.8959376 9.39447195,10.7629783 L9.18136053,10.7004542 L9.13875984,10.4815519 C9.12666535,10.4193381 9.1126811,10.3799499 9.09651024,10.3681526 C9.07890843,10.3553157 9.03513333,10.3536959 8.96081184,10.3652099 L8.71662727,10.4030861 L8.59080933,10.1895022 L8.27728395,9.65723702 L7.85961881,9.1063856 L8.23389881,8.53067017 C8.76156281,8.65624502 9.12161424,8.58824034 9.37828738,8.42217062 C9.63613207,8.25534491 9.81595824,7.97885977 9.9601331,7.6940312 L10.1538878,7.00850548 L10.856745,7.20566171 L10.8567429,7.20565714 Z" id="Shape" fill="#212121" fill-rule="nonzero"></path>
                    <path d="M13.0289143,16.2727886 L12.9303765,15.4136469 L12.9289456,15.3465062 C12.9645136,14.8497679 13.062255,14.3276822 13.3733913,13.879537 L13.3733913,13.8781062 C13.568631,13.5969095 13.8413502,13.3534936 14.2248531,13.1762193 L14.1987743,13.1584826 L13.7888715,12.8476298 C13.6105991,12.9122463 13.4409915,12.921776 13.2791629,12.8820639 L13.2792439,12.8817265 C13.1165218,12.8415285 12.9756669,12.7544644 12.8540599,12.6262033 C12.1584645,12.6695867 11.7163536,12.5314585 11.477677,12.2865858 C11.1872338,11.9886241 11.1828333,11.5944326 11.3888177,11.1792121 C11.5480303,10.8582491 11.8461,10.5162292 12.2290474,10.2121389 C13.204572,9.4375115 14.7838337,8.86489893 16.0581789,9.48687607 L15.7381879,10.1440269 C14.7550656,9.66420179 13.4845227,10.147388 12.6833445,10.7835755 C12.3818462,11.0229817 12.1546416,11.2772075 12.0431067,11.5020635 C11.9783283,11.6326461 11.9576218,11.7339779 12.0005465,11.778023 C12.1118537,11.8922188 12.4160791,11.9426891 12.9801579,11.8836745 L13.1993839,11.8607274 L13.3215977,12.0465316 C13.3697595,12.1197463 13.4135482,12.1640479 13.4520185,12.1734834 L13.4534493,12.1734834 C13.4922436,12.1829997 13.5540117,12.1634676 13.642547,12.1099739 L13.8531611,11.9827252 L14.0511138,12.13284 L14.6195675,12.5639212 L15.3168635,12.9747429 L15.1882921,13.6490229 C14.5526281,13.7489915 14.1849618,13.9905302 13.9733915,14.2952538 L13.9727301,14.2947948 C13.7623183,14.5984798 13.6895489,14.9857068 13.6600012,15.3648211 L13.754638,16.1899308 L13.0289157,16.2727836 L13.0289143,16.2727886 Z" id="Shape" fill="#212121" fill-rule="nonzero"></path>
                    <path d="M7.11054857,13.6633371 L7.72082057,13.7468918 L7.78654389,13.7626038 C8.13889131,13.8800526 8.49875417,14.0478366 8.7680616,14.3588632 C8.90786366,14.5203167 9.01923806,14.7143821 9.08722937,14.9512621 L9.21864891,14.8467853 C9.21497736,14.7154871 9.24339134,14.5966347 9.3008808,14.4890653 C9.35997634,14.3785141 9.44413851,14.2904646 9.55066697,14.222487 C9.65267383,13.730703 9.84057017,13.4412322 10.0698521,13.3092596 C10.3716339,13.1355363 10.686467,13.2087106 10.9712544,13.4538534 C11.1744579,13.6287781 11.3671721,13.9081528 11.5165584,14.2419243 C11.8919458,15.0806146 12.009923,16.317074 11.3260433,17.1219106 L10.7688867,16.6504683 C11.2435827,16.0918134 11.1356479,15.1753871 10.8508485,14.5390751 C10.7459126,14.3046229 10.6197843,14.116322 10.4941159,14.0081471 C10.4500035,13.9701764 10.439677,13.9366734 10.4327122,13.9406824 C10.3615087,13.9816635 10.2929373,14.1579243 10.2393895,14.5221236 L10.20698,14.7425104 L9.99652779,14.8149829 C9.96189099,14.8269019 9.94428939,14.8309109 9.94374939,14.8319233 C9.9436684,14.8320718 9.94964815,14.8521707 9.96272801,14.8954869 L10.0339182,15.1312214 L9.8398799,15.2854938 L9.44302961,15.601017 L9.04397818,16.0022558 L8.42254275,15.7108273 C8.46265978,15.2864147 8.37181601,15.0152181 8.21662584,14.8360033 C8.06135475,14.6566646 7.82829213,14.546937 7.59122355,14.465313 L7.01341327,14.3861994 L7.1105471,13.6633365 L7.11054857,13.6633371 Z" id="Shape" fill="#212121" fill-rule="nonzero"></path>
                    <path d="M6.43608,4.21515429 C6.1756704,4.34869303 6.16940743,4.71850629 6.42536235,4.86090171 C6.53326773,4.91975451 6.65900475,4.92214354 6.76878521,4.86655752 L6.79795505,4.85179035 L6.82721938,4.83722568 L6.85656473,4.82290395 L6.88607205,4.80875774 L6.91571434,4.79478699 L6.94545113,4.78104573 L6.97522841,4.76753393 L7.00518117,4.75421109 L7.0353229,4.74105024 L7.06547815,4.72811887 L7.09568736,4.71543045 L7.12615306,4.70289051 L7.15671326,4.69053957 L7.18727345,4.67844507 L7.2179821,4.66653957 L7.24886623,4.65480953 L7.27980435,4.64329546 L7.31082346,4.63201087 L7.34201808,4.62088827 L7.37326666,4.60998165 L7.39505294,4.60255759 C7.66420917,4.50794787 7.72840711,4.15938045 7.50958608,3.97556102 C7.41045442,3.89373439 7.27815751,3.86934285 7.15648437,3.91111999 L7.13469809,3.91854405 L7.09872518,3.93109749 L7.06288701,3.94386689 L7.02711638,3.95690626 L6.99145375,3.97017511 L6.95595329,3.98365992 L6.92049329,3.99740119 L6.88510083,4.01141242 L6.84992438,4.02562615 L6.81486929,4.04005584 L6.77977375,4.05479599 L6.74486712,4.0697521 L6.71016312,4.08491071 L6.67548586,4.10033928 L6.64087615,4.11603782 L6.60644198,4.13196583 L6.57215626,4.1480963 L6.53797855,4.16448326 L6.5038548,4.18115366 L6.46989305,4.19804006 L6.43607979,4.21515593 L6.43608,4.21515429 Z M7.04210057,6.44592686 C7.1765304,6.22821257 7.05522093,5.946504 6.80469223,5.89392686 C6.65375417,5.86429807 6.5034504,5.9284152 6.42147394,6.05887611 C6.32444811,6.2155512 6.19613314,6.34096389 6.03728537,6.43438697 L6.03130563,6.43785603 C5.79708278,6.57192141 5.78212666,6.90144346 6.00318864,7.05651089 C6.12025961,7.13656941 6.26833584,7.14366963 6.39214293,7.07408568 C6.65826213,6.92175734 6.8806595,6.70659425 7.04210064,6.44592682 Z M4.70097943,7.09821943 C4.75207063,6.97650514 4.73440125,6.83978057 4.6550448,6.73450629 C4.48318423,6.51108206 4.13788251,6.55531611 4.0270368,6.81394389 L4.02076008,6.82871105 L4.00647888,6.86287529 L3.99238663,6.89725563 L3.97856434,6.93164935 L3.96497153,6.96608352 L3.95155419,7.00067986 L3.93836633,7.03541095 L3.92540794,7.07022295 L3.91266552,7.10515666 L3.90012559,7.14019838 L3.88781513,7.17533438 L3.87573415,7.21053792 L3.86386913,7.24587655 L3.85220661,7.28132318 L3.84078703,7.31683735 L3.82958342,7.35240535 L3.8185823,7.38810843 L3.80779714,7.42393289 L3.79725497,7.45978443 L3.78687477,7.49583826 L3.77675102,7.53193289 L3.77151367,7.55104649 C3.73648567,7.68260112 3.77513122,7.81927152 3.87383081,7.91299049 C4.0759547,8.10164283 4.40498853,8.00869358 4.47753024,7.74218283 L4.48160674,7.7273617 L4.49048863,7.69566768 L4.49954599,7.66414913 L4.50884633,7.63259009 L4.51828166,7.60122 L4.52793295,7.56991742 L4.53775971,7.53866883 L4.54777546,7.50758222 L4.55795318,7.47659009 L4.56833338,7.44573295 L4.57890257,7.41492981 L4.58964723,7.38424814 L4.60056737,7.35368794 L4.61168997,7.32323575 L4.62300154,7.29287805 L4.63448859,7.26262834 L4.64615112,7.23248661 L4.65804312,7.20237189 L4.67008361,7.17243264 L4.6822861,7.14269585 L4.69470456,7.11298608 L4.70098128,7.09821891 L4.70097943,7.09821943 Z M4.28785029,9.79618286 C4.26731935,9.51977794 3.96192,9.36450514 3.726888,9.51267771 C3.61343451,9.585852 3.5488992,9.71164286 3.55815909,9.84672034 L3.55972489,9.8701669 L3.56260003,9.91014885 L3.56566415,9.9502525 L3.56894424,9.99036953 L3.57242681,10.0305404 L3.57611184,10.070725 L3.57998585,10.1109095 L3.58407583,10.151175 L3.5883683,10.1914676 L3.59284975,10.2317464 L3.59753366,10.2721199 L3.60243353,10.3125339 L3.60752239,10.352894 L3.61281374,10.3933618 L3.61830754,10.4337891 L3.62399033,10.474311 L3.62990259,10.51486 L3.63599033,10.5553686 L3.64229403,10.5959852 L3.64400832,10.6066894 C3.69242661,10.8955263 4.04087232,11.0147305 4.25547003,10.8145633 C4.34420798,10.7303339 4.38556683,10.6103607 4.36598078,10.4893619 L4.36480642,10.4821133 L4.35904265,10.4449795 L4.35346786,10.4078186 L4.34806855,10.3707523 L4.34287169,10.3337131 L4.33783683,10.2966873 L4.33300443,10.259729 L4.32834751,10.2227707 L4.32387957,10.1859204 L4.31960061,10.1491106 L4.31549712,10.1122603 L4.31158262,10.0755314 L4.30787057,10.0388563 L4.30432053,10.0021545 L4.30095945,9.96556066 L4.29780084,9.92903438 L4.29481771,9.89253483 L4.29202356,9.85610283 L4.28941838,9.81963038 L4.28785258,9.79618382 L4.28785029,9.79618286 Z M4.94606743,12.5120571 C4.84482994,12.2708829 4.53474514,12.2103562 4.34913257,12.394379 C4.24491223,12.5003949 4.21375783,12.6552069 4.27069371,12.792875 L4.27505366,12.8034442 L4.29211553,12.8442496 L4.30940688,12.8850819 L4.32684669,12.9258198 L4.34447547,12.9665173 L4.36230675,13.0072419 L4.38034049,13.0479527 L4.39856321,13.0886231 L4.41696141,13.1292531 L4.43556209,13.1698964 L4.45436523,13.2104992 L4.47333038,13.2510483 L4.49249798,13.2915973 L4.51186807,13.3321463 L4.53142711,13.3726549 L4.55116166,13.4130822 L4.57109866,13.45355 L4.58497491,13.481397 C4.72191514,13.7518088 5.10659091,13.7501079 5.24080234,13.4779415 C5.29059754,13.3740856 5.29039526,13.2573657 5.23907456,13.1540628 L5.22649414,13.1288075 L5.20787998,13.0910661 L5.18944129,13.0532305 L5.17117808,13.0154486 L5.15313083,12.9776534 L5.13523208,12.9398041 L5.1175088,12.9019009 L5.0999745,12.8640248 L5.08264266,12.826162 L5.06545931,12.7882317 L5.04847842,12.7503148 L5.03168651,12.7124116 L5.01507008,12.674468 L4.99862912,12.6364972 L4.98235016,12.5985131 L4.96630067,12.5605962 L4.95042666,12.5226254 L4.94606672,12.5120563 L4.94606743,12.5120571 Z M6.36693943,14.9488389 C6.20626903,14.7435295 5.89323086,14.7646409 5.76110743,14.9895634 C5.68679931,15.1191473 5.6974224,15.2782114 5.78859,15.3966309 L5.8078656,15.4216297 L5.83733242,15.4595329 L5.86702872,15.4974361 L5.89690049,15.5352313 L5.92689374,15.5729185 L5.95715695,15.6106057 L5.98758216,15.6481987 L6.01818285,15.6856969 L6.04893199,15.7231006 L6.07989713,15.7604504 L6.11106473,15.7977598 L6.14240781,15.8349612 L6.17389937,15.8720679 L6.2056069,15.9091208 L6.23748991,15.9460928 L6.26586336,15.9787318 C6.44491845,16.1824753 6.7714165,16.1291435 6.87849765,15.8803695 C6.9322885,15.75061 6.90946279,15.6039779 6.81697227,15.4978129 L6.79043458,15.4672797 L6.76041432,15.4324945 L6.73059655,15.3976283 L6.70091376,15.3626812 L6.67143343,15.3276666 L6.64212861,15.2925981 L6.61299926,15.257435 L6.58400489,15.222191 L6.55521298,15.1869066 L6.52662357,15.1515817 L6.49822313,15.1161892 L6.46993066,15.0806617 L6.44184069,15.0451341 L6.41398018,15.0095524 L6.38621414,14.973836 L6.36693854,14.9488371 L6.36693943,14.9488389 Z M8.35186629,16.966824 C8.15180777,16.8102569 7.860744,16.8956743 7.77801257,17.1362009 C7.72948629,17.2836566 7.7753939,17.4428691 7.89727029,17.5398261 L7.90518031,17.5461298 L7.94903619,17.5807666 L7.99300008,17.6151469 L8.03705859,17.6492841 L8.08123848,17.6831784 L8.12549928,17.7168027 L8.16980088,17.75013 L8.21423722,17.7832684 L8.25879528,17.8161368 L8.30339379,17.8487217 L8.34808659,17.8810772 L8.39287402,17.9131627 L8.43774237,17.9449917 L8.48269162,17.9765642 L8.50310109,17.9907509 C8.7289548,18.146022 9.03554109,18.0093516 9.07376966,17.7384269 C9.09141195,17.601473 9.03285617,17.4681369 8.91928131,17.3892647 L8.90167951,17.3770217 L8.85953791,17.3474199 L8.81747722,17.3175886 L8.77549745,17.2875009 L8.73355814,17.2571701 L8.69171345,17.226583 L8.64996305,17.1957663 L8.60828019,17.1647067 L8.56662442,17.1333501 L8.52509002,17.1018045 L8.48366362,17.070016 L8.44227768,17.0379575 L8.40098637,17.0056561 L8.35977597,16.9731251 L8.35186594,16.9668214 L8.35186629,16.966824 Z M10.7675246,18.4163143 C10.5859183,18.3412097 10.3802983,18.4195809 10.2955303,18.5970432 C10.2064413,18.7860466 10.2921962,19.0095381 10.4846013,19.0907986 L10.5227475,19.1069156 L10.57014,19.1266636 L10.6175057,19.1460877 L10.6648443,19.1652553 L10.7122639,19.1841529 L10.7597239,19.2028076 L10.8071839,19.2211653 L10.8545763,19.239226 L10.9020634,19.2570573 L10.9496043,19.2746321 L10.9971319,19.29191 L11.0446594,19.3089043 L11.092187,19.3256287 L11.1397145,19.3420832 L11.1872962,19.3582811 L11.1944503,19.3606703 C11.3366414,19.4077796 11.4921017,19.3637075 11.5889657,19.2496333 C11.7554808,19.0501419 11.6706844,18.7494116 11.4246237,18.666399 L11.4211141,18.6652247 L11.377177,18.6502685 L11.3332131,18.6350559 L11.2892221,18.6195734 L11.2452583,18.6038479 L11.2013211,18.5878658 L11.1573706,18.5716409 L11.1134201,18.5551324 L11.0693749,18.5383405 L11.0253973,18.5213327 L10.9814739,18.5040818 L10.93751,18.486534 L10.8935191,18.4687432 L10.8495552,18.450696 L10.8056722,18.4324328 L10.7675259,18.4163158 L10.7675246,18.4163143 Z M13.4749474,19.0753543 C13.1824659,19.0603172 12.9917897,19.3760698 13.1413635,19.628352 C13.2056561,19.7334905 13.3120903,19.7986738 13.4354784,19.8057199 L13.4557259,19.8068672 L13.5022142,19.8092429 L13.5486484,19.8112947 L13.594907,19.8130765 L13.6411793,19.8145613 L13.687438,19.8157626 L13.7336291,19.8166535 L13.7796988,19.8172474 L13.825728,19.8175579 L13.8717302,19.8175714 L13.9175976,19.8172879 L13.9634651,19.816721 L14.0092649,19.8158436 L14.0549297,19.8146693 L14.100527,19.8132114 L14.1461109,19.8114567 L14.1916139,19.8093914 L14.2065025,19.8086085 C14.4987138,19.7919111 14.6541196,19.4564497 14.4777916,19.2225388 C14.4035374,19.1250272 14.2884375,19.0720057 14.1660886,19.0782957 L14.1560863,19.0788087 L14.115443,19.0806579 L14.0747184,19.0822237 L14.0338454,19.0835466 L13.9928781,19.0845859 L13.9518837,19.0853823 L13.9107947,19.0858953 L13.8695709,19.0861517 L13.82832,19.0861382 L13.7869341,19.0858548 L13.7454539,19.0853148 L13.7039599,19.084505 L13.6623988,19.0834386 L13.6206888,19.0820888 L13.5788575,19.0804959 L13.5370667,19.0786332 L13.4951949,19.0765004 L13.4749474,19.0753531 L13.4749474,19.0753543 Z M16.1462777,18.6011863 C15.9181426,18.7123718 15.8688199,19.0128583 16.0490897,19.1915897 C16.1607343,19.2994817 16.324091,19.3273152 16.4644063,19.2598238 L16.4989889,19.2433018 L16.5381744,19.2241747 L16.5771981,19.2047236 L16.6160462,19.1849486 L16.6547729,19.1648496 L16.693297,19.1444402 L16.7316456,19.1237068 L16.7698323,19.1026629 L16.8078706,19.0812816 L16.8457467,19.0595628 L16.8833801,19.0375605 L16.9208784,19.0152208 L16.9582416,18.9925301 L16.9954025,18.9695155 L17.0323745,18.9462039 L17.0691439,18.9225549 L17.1056973,18.8986224 L17.1421426,18.8743119 L17.1473395,18.8707889 C17.3210494,18.7501546 17.3583722,18.513206 17.2296523,18.3452472 C17.1108941,18.1917579 16.8937603,18.1582687 16.7336717,18.267578 L16.7336582,18.2675915 L16.7024501,18.2883924 L16.6710261,18.3089774 L16.639467,18.3292518 L16.6077595,18.3492698 L16.57589,18.3689909 L16.543872,18.3884419 L16.511665,18.4076231 L16.4792421,18.4265747 L16.4467381,18.4452159 L16.4140722,18.4635736 L16.3812039,18.4817018 L16.3481735,18.4995465 L16.3150216,18.5171213 L16.2817213,18.5344127 L16.2482455,18.5514341 L16.2146212,18.5681855 L16.1808619,18.5846669 L16.1462792,18.6011889 L16.1462777,18.6011863 Z M18.0994286,16.79244 C17.9539303,17.0512838 18.1588347,17.3657006 18.4546766,17.336664 C18.5736374,17.3241781 18.6763457,17.2569295 18.7357385,17.1531679 L18.7402065,17.1453659 L18.7615338,17.1073817 L18.7825777,17.0691545 L18.8032706,17.0308732 L18.823707,16.992322 L18.843833,16.9535548 L18.863635,16.9146525 L18.8830996,16.8756288 L18.9022672,16.8364567 L18.9211244,16.797082 L18.939698,16.7575183 L18.9579343,16.7178062 L18.9758735,16.6779593 L18.9935023,16.6379369 L19.0108071,16.5978065 L19.0278285,16.5574601 L19.0445259,16.5169653 L19.0609129,16.4763758 L19.0728859,16.4460451 C19.1771199,16.1763622 18.9447735,15.8994177 18.6604596,15.9545045 C18.5372337,15.9799219 18.4375078,16.062977 18.3914381,16.1802907 L18.3815978,16.2052491 L18.3673166,16.2406282 L18.352806,16.2758046 L18.3380253,16.3108059 L18.3229612,16.345753 L18.3076811,16.380457 L18.2921176,16.4150396 L18.276311,16.4494333 L18.260248,16.4836515 L18.2439016,16.5177617 L18.2272987,16.5517235 L18.2104527,16.5855098 L18.1933504,16.6190936 L18.176005,16.6524884 L18.1583762,16.6857483 L18.140464,16.7189271 L18.1223357,16.751836 L18.1038971,16.7846369 L18.0994291,16.792439 L18.0994286,16.79244 Z M18.767256,14.1643063 C18.7660142,14.3810757 18.9483898,14.549952 19.1644697,14.5322571 C19.3524878,14.5157622 19.4964878,14.3601943 19.4986474,14.1714617 L19.4989444,14.1480826 L19.4992549,14.1015943 L19.4992818,14.0550521 L19.4990389,14.0084424 L19.4984989,13.9616976 L19.4976621,13.914899 L19.4965417,13.8680733 L19.4951379,13.8211395 L19.4934371,13.7741925 L19.4914663,13.7271912 L19.4891986,13.6800552 L19.4866609,13.6329326 L19.4838263,13.5857424 L19.4807217,13.5385118 L19.4773201,13.4911598 L19.4736351,13.4437941 L19.4704495,13.4057287 C19.4565057,13.2532786 19.3531087,13.127893 19.2060716,13.0853599 C18.959579,13.0160325 18.7198625,13.2136478 18.7417299,13.4687667 L18.7445646,13.5026205 L18.7479257,13.5457208 L18.7510033,13.5886993 L18.7538379,13.6316644 L18.7564026,13.674562 L18.7587243,13.7173653 L18.760776,13.7600469 L18.7625578,13.8027014 L18.7640966,13.8453021 L18.7653655,13.8877544 L18.7663778,13.9301795 L18.7671337,13.9724696 L18.7676197,14.0146516 L18.7678627,14.0568337 L18.7678357,14.0989214 L18.7675522,14.1409283 L18.7672552,14.1643074 L18.767256,14.1643063 Z M18.2949086,11.4206949 C18.3504675,11.5760873 18.5000558,11.674679 18.664776,11.6638265 C18.9063147,11.6464677 19.0648663,11.4055365 18.9845647,11.1770757 L18.9692036,11.1332061 L18.9519798,11.0848145 L18.934486,11.0364501 L18.9167087,10.9880722 L18.898675,10.9397616 L18.8803847,10.8914242 L18.861784,10.8430464 L18.8429134,10.7947358 L18.8238133,10.7465064 L18.8044297,10.6982229 L18.7847627,10.649953 L18.7648526,10.6017775 L18.7446727,10.5535615 L18.7241957,10.5053859 L18.7098605,10.4720856 C18.6587426,10.3545154 18.5526725,10.2742677 18.426126,10.2554105 C18.1418652,10.2168055 17.9258906,10.4996085 18.0387249,10.7628939 L18.0516832,10.7929817 L18.0707294,10.8378367 L18.0895325,10.882705 L18.1080927,10.9276409 L18.1263829,10.9725092 L18.1444167,11.017418 L18.1622209,11.062381 L18.1797418,11.1072898 L18.1969926,11.1521581 L18.214014,11.197094 L18.2307789,11.242057 L18.2472873,11.2869795 L18.2635393,11.3319154 L18.2795483,11.3768242 L18.2949094,11.4206938 L18.2949086,11.4206949 Z M17.0069417,8.91343886 C17.1784917,9.15632743 17.5488446,9.10770651 17.6512011,8.82806194 C17.6909671,8.71539154 17.6753496,8.59362309 17.6070751,8.49531497 L17.5936577,8.47594488 L17.5615993,8.43015871 L17.5292573,8.38441299 L17.4966859,8.33881574 L17.463858,8.29328602 L17.4307466,8.24783722 L17.3974058,8.20248305 L17.363795,8.15722317 L17.3299142,8.11201745 L17.2957635,8.06690602 L17.2613832,8.02192968 L17.226733,7.97702088 L17.1917993,7.93219299 L17.1585934,7.88998385 C17.0678038,7.77586899 16.9221434,7.72707288 16.7808574,7.76239779 C16.5241195,7.82979494 16.421262,8.13462751 16.5847538,8.34352694 L16.6159079,8.38311734 L16.6487088,8.42521848 L16.6812802,8.46742762 L16.7136357,8.50975848 L16.7457076,8.55211608 L16.7775367,8.59456831 L16.8091227,8.63712854 L16.8404928,8.67978305 L16.8715794,8.72247837 L16.9024366,8.76528168 L16.9330642,8.80815219 L16.9634084,8.85106317 L16.9935231,8.89406877 L17.0069405,8.91343886 L17.0069417,8.91343886 Z M15.1229554,6.80247771 C15.2435359,6.90753497 15.4162738,6.92212663 15.5531451,6.83981417 C15.7647312,6.71018983 15.7903779,6.41527817 15.6040337,6.2515296 L15.5732441,6.22454647 L15.5360023,6.19213701 L15.498612,6.15991653 L15.4612488,6.12795254 L15.4237639,6.09615051 L15.3861847,6.06452397 L15.3485379,6.03309991 L15.3107965,6.0018648 L15.2729876,5.97081867 L15.2351249,5.93998851 L15.1971675,5.90933386 L15.1591159,5.87885469 L15.1209833,5.84856446 L15.0827965,5.81849023 L15.0445693,5.78861846 L15.0229316,5.77186704 C14.7985086,5.59910201 14.4729441,5.73557013 14.4365773,6.01611915 C14.4214456,6.14597287 14.4725639,6.27067035 14.5761362,6.35097195 L14.5954253,6.36591459 L14.6313849,6.39400457 L14.6672498,6.42224304 L14.7030338,6.45067049 L14.7387369,6.47925991 L14.7743995,6.5080788 L14.8100217,6.53707317 L14.8455358,6.56622953 L14.8809825,6.59557488 L14.9163615,6.62510918 L14.9516731,6.65481895 L14.9869171,6.68473121 L15.0221206,6.71483246 L15.0571623,6.74505518 L15.0921636,6.77549386 L15.1229532,6.80247699 L15.1229554,6.80247771 Z M12.7828491,5.22389143 C13.0348896,5.34749554 13.3268297,5.15367326 13.3097143,4.87301486 C13.3008324,4.74131177 13.2247827,4.62671109 13.1064566,4.56792583 L13.0980606,4.56376834 L13.0572284,4.54372334 L13.0163149,4.52388082 L12.9754827,4.50428126 L12.9345829,4.4848572 L12.8935885,4.46559511 L12.852567,4.44656249 L12.8116131,4.42775935 L12.7706458,4.40917217 L12.7295434,4.39071998 L12.688441,4.37251077 L12.6474332,4.35453103 L12.6062632,4.33668627 L12.5650933,4.31908447 L12.5239638,4.30169863 L12.4828076,4.28451528 L12.4415838,4.2674939 L12.4150461,4.25669523 C12.2510822,4.19130929 12.0675741,4.24913619 11.9708713,4.39679421 C11.8465787,4.59075158 11.9272177,4.84775763 12.1406531,4.93471649 L12.1641941,4.94430031 L12.2023943,4.96005285 L12.2406348,4.97602135 L12.2788754,4.99219234 L12.3170488,5.0085253 L12.3551951,5.02504725 L12.3934493,5.04181214 L12.431609,5.05872552 L12.4697148,5.07582789 L12.5079016,5.09317323 L12.5460749,5.11068055 L12.5841537,5.12836334 L12.6222053,5.1462216 L12.6602975,5.16432285 L12.69843,5.18262655 L12.7364279,5.20106523 L12.7744528,5.21973339 L12.7828487,5.22389088 L12.7828491,5.22389143 Z M10.1168366,4.38398743 C10.2543168,4.40215615 10.3866545,4.3435464 10.4663486,4.23029554 C10.6216063,4.00492766 10.4858941,3.69654583 10.2150504,3.65918126 L10.2126477,3.6588573 L10.1717075,3.65341749 L10.1307806,3.64819365 L10.0898942,3.64318578 L10.0490483,3.63839387 L10.008216,3.63383143 L9.96749147,3.62948497 L9.92672644,3.62534099 L9.88596142,3.62142649 L9.84533147,3.61774146 L9.80467444,3.61424538 L9.76405787,3.61099228 L9.7234821,3.60794166 L9.68289262,3.60512052 L9.64239776,3.60252884 L9.60192999,3.60013964 L9.56151604,3.59797991 L9.52115593,3.59603615 L9.4808229,3.59432187 L9.45015474,3.59317451 C9.20266331,3.5861014 9.02076046,3.81589657 9.08469988,4.05528765 C9.1284344,4.21081519 9.2633096,4.31769474 9.42488446,4.32416068 L9.45161113,4.32517306 L9.48800267,4.32672536 L9.52444804,4.32848014 L9.56094759,4.3304239 L9.59750096,4.33257013 L9.6341085,4.33491883 L9.67070233,4.33747001 L9.70741787,4.34022367 L9.74417387,4.3431798 L9.78099742,4.34632491 L9.81790187,4.34968599 L9.85475216,4.35322256 L9.89171044,4.35698861 L9.92876336,4.36093013 L9.96581627,4.36508761 L10.0029096,4.36942057 L10.0400435,4.3739695 L10.0772178,4.37870741 L10.1144325,4.38366128 L10.1168352,4.38398524 L10.1168366,4.38398743 Z" id="Shape" fill="#66BB6A" fill-rule="nonzero"></path>
                    <path d="M5.48571429,3.65712 C5.99061943,3.65712 6.44777829,3.86180846 6.77867657,4.19273143 C7.10960126,4.52362903 7.314288,4.98077486 7.314288,5.48569371 C7.314288,5.99059886 7.10959954,6.44775771 6.77867657,6.778656 C6.44777897,7.10958069 5.99061943,7.31426743 5.48571429,7.31426743 C4.98079543,7.31426743 4.52365029,7.10957897 4.192752,6.778656 C3.86182731,6.4477584 3.65714057,5.99059886 3.65714057,5.48569371 C3.65714057,4.98077486 3.86182903,4.52362971 4.192752,4.19273143 C4.5236496,3.86180674 4.98079543,3.65712 5.48571429,3.65712 Z M6.26153143,4.70988 C6.06302537,4.51137394 5.78871086,4.38856629 5.48571429,4.38856629 C5.182704,4.38856629 4.90840457,4.51137394 4.70989714,4.70988 C4.51139109,4.90838606 4.38858343,5.18268686 4.38858343,5.48569714 C4.38858343,5.78869371 4.51139109,6.06300686 4.70989714,6.26151429 C4.9084032,6.46002034 5.182704,6.582828 5.48571429,6.582828 C5.78871086,6.582828 6.063024,6.46002034 6.26153143,6.26151429 C6.46003749,6.06300823 6.58284514,5.78869371 6.58284514,5.48569714 C6.58284514,5.18268686 6.46003749,4.90838743 6.26153143,4.70988 Z" id="Shape" fill="#66BB6A" fill-rule="nonzero"></path>
                </g>
            </g>
        </g>
    </g>
</svg>