<?xml version="1.0" encoding="UTF-8"?>
<svg width="24px" height="24px" viewBox="0 0 24 24" version="1.1" xmlns="http://www.w3.org/2000/svg" xmlns:xlink="http://www.w3.org/1999/xlink">
    <!-- Generator: Sketch 49.2 (51160) - http://www.bohemiancoding.com/sketch -->
    <title>moon</title>
    <desc>Created with Sketch.</desc>
    <defs></defs>
    <g id="moon" stroke="none" stroke-width="1" fill="none" fill-rule="evenodd">
        <g id="Group">
            <g id="Layer_x0020_1">
                <g>
                    <g id="_347236096">
                        <rect id="_347236000" x="0" y="0" width="23.4056914" height="23.4056914"></rect>
                        <rect id="_347235568" x="2.92570629" y="2.92570629" width="17.5542857" height="17.5542857"></rect>
                    </g>
                    <path d="M11.7028457,2.92569257 C14.1265337,2.92569257 16.3208229,3.90812571 17.9092114,5.49650057 C19.4975863,7.08486171 20.4800194,9.27917486 20.4800194,11.7028663 C20.4800194,14.1265543 19.4975863,16.3208434 17.9092114,17.909232 C16.3208503,19.4976069 14.1265371,20.48004 11.7028457,20.48004 C9.27915771,20.48004 7.08486857,19.4976069 5.49648,17.909232 C3.90810514,16.3208709 2.925672,14.1265577 2.925672,11.7028663 C2.925672,9.27917829 3.90810514,7.08488914 5.49648,5.49650057 C7.08484114,3.90812571 9.27915429,2.92569257 11.7028457,2.92569257 Z M17.3920457,6.01364914 C15.9360891,4.55768229 13.9246286,3.65714057 11.7028457,3.65714057 C9.48104914,3.65714057 7.46958857,4.55767886 6.01364571,6.01364914 C4.55767886,7.46960571 3.65713714,9.48106629 3.65713714,11.7028491 C3.65713714,13.9246457 4.55767543,15.9361063 6.01364571,17.3920491 C7.46960229,18.848016 9.48106286,19.7485577 11.7028457,19.7485577 C13.9246423,19.7485577 15.9361029,18.8480194 17.3920457,17.3920491 C18.8480126,15.9360926 19.7485543,13.924632 19.7485543,11.7028491 C19.7485543,9.48105257 18.848016,7.469592 17.3920457,6.01364914 Z" id="Shape" fill="#212121" fill-rule="nonzero"></path>
                    <path d="M9.33702857,20.1558171 C7.46675657,19.633176 5.84852571,18.5066194 4.70592,16.9996697 C3.58866514,15.5261383 2.92570971,13.6909783 2.92570971,11.7028354 C2.92570971,9.71470971 3.58866514,7.87953257 4.70592,6.40600114 C5.84852571,4.899048 7.46677029,3.77249486 9.33702857,3.24985371 L9.53132331,3.24985371 C11.4015816,3.77249486 13.0198262,4.89905143 14.1624319,6.40600114 C15.2796867,7.87953257 15.9426422,9.71469257 15.9426422,11.7028354 C15.9426422,12.6969051 15.7766263,13.6534491 15.470809,14.5462286 C15.1533555,15.4729543 14.6863005,16.3287086 14.0988285,17.0844377 L13.8079128,17.4586526 L13.5202639,17.0815783 C13.4446735,16.9825008 13.3472019,16.9014703 13.235328,16.8460461 C13.1284214,16.7930921 13.0066666,16.7633013 12.8765554,16.7633013 C12.6534014,16.7633013 12.4513851,16.8537264 12.3051977,16.9999131 C12.159011,17.1460999 12.0685858,17.3481154 12.0685858,17.5712709 C12.0685858,17.6984791 12.0963384,17.8166702 12.1458501,17.9201211 C12.1980075,18.0290931 12.2746913,18.125039 12.3689907,18.2010751 L12.7382925,18.4988345 L12.3561405,18.7796534 C11.931577,19.0916263 11.479681,19.3656408 11.0053519,19.5968157 C10.5391862,19.8240192 10.0463496,20.0118751 9.53132331,20.1558065 L9.33702857,20.1558065 L9.33702857,20.1558171 Z M5.28589714,16.5596914 C6.31352229,17.9149886 7.76086629,18.934584 9.43426286,19.4251131 C9.86472343,19.298796 10.2829543,19.1358171 10.6853554,18.9396857 C11.0013103,18.7856969 11.3049291,18.6122842 11.5945611,18.4211211 C11.5551864,18.3617016 11.5197669,18.299353 11.4886937,18.2344395 C11.3915599,18.0315058 11.3371347,17.806475 11.3371347,17.5712955 C11.3371347,17.1462487 11.5094541,16.7613847 11.7880467,16.4827927 C12.0666384,16.204201 12.4515027,16.0318807 12.8765496,16.0318807 C13.1200591,16.0318807 13.3515679,16.0894375 13.5581736,16.1917817 C13.6289451,16.2268502 13.6965987,16.2671698 13.7606482,16.3122 C14.1886917,15.7012663 14.5337088,15.0290914 14.7793659,14.3119783 C15.0592536,13.494912 15.2111911,12.6172663 15.2111911,11.7028629 C15.2111911,9.87670286 14.6046459,8.1942 13.5824311,6.84605143 C12.5548299,5.49078171 11.1075305,4.4712 9.43416823,3.98065714 C7.76079566,4.4712 6.3134928,5.49078171 5.28590537,6.84605143 C4.26369051,8.194224 3.65714537,9.87672 3.65714537,11.7028629 C3.65714537,13.5290229 4.26369051,15.2115257 5.28590537,16.5596743 L5.28589714,16.5596914 Z" id="Shape" fill="#212121" fill-rule="nonzero"></path>
                    <path d="M8.64157714,5.78941714 C8.95857154,5.78941714 9.24564,5.91794811 9.45344571,6.12574114 C9.66123874,6.33353417 9.78976971,6.62059029 9.78976971,6.937596 C9.78976971,7.2545904 9.66123874,7.54165886 9.45344571,7.74946457 C9.24563931,7.9572576 8.95856914,8.08578857 8.64157714,8.08578857 C8.32456937,8.08578857 8.03751429,7.9572576 7.82972229,7.74946457 C7.62192926,7.54165817 7.49339829,7.254588 7.49339829,6.937596 C7.49339829,6.62058823 7.62192926,6.33353314 7.82972229,6.12574114 C8.03751531,5.91794811 8.32457143,5.78941714 8.64157714,5.78941714 Z M8.9362992,6.642888 C8.86091109,6.56749989 8.75670411,6.52086309 8.64157714,6.52086309 C8.52646354,6.52086309 8.42225657,6.56749989 8.34686846,6.642888 C8.27148034,6.71827611 8.22484354,6.82248309 8.22484354,6.93759669 C8.22484354,7.05272366 8.27148034,7.15693063 8.34686846,7.23231874 C8.42225657,7.30770686 8.52646354,7.35434366 8.64157714,7.35434366 C8.75670411,7.35434366 8.86091109,7.30770686 8.9362992,7.23231874 C9.01168731,7.15693063 9.05832411,7.05272366 9.05832411,6.93759669 C9.05832411,6.82248309 9.01168731,6.71827611 8.9362992,6.642888 Z" id="Shape" fill="#66BB6A" fill-rule="nonzero"></path>
                    <path d="M6.21202286,12.23232 C6.52903063,12.23232 6.81608571,12.360851 7.02387771,12.568644 C7.23167074,12.7764504 7.36020171,13.0635206 7.36020171,13.3805126 C7.36020171,13.6975203 7.23167074,13.9845754 7.02387771,14.1923674 C6.81608469,14.4001605 6.52902857,14.5286914 6.21202286,14.5286914 C5.89501509,14.5286914 5.60796,14.4001605 5.40015429,14.1923674 C5.19236126,13.9845744 5.06383029,13.6975183 5.06383029,13.3805126 C5.06383029,13.0635182 5.19236126,12.7764497 5.40015429,12.568644 C5.60794731,12.360851 5.89500343,12.23232 6.21202286,12.23232 Z M6.50673154,13.0857909 C6.43134343,13.0104027 6.32713646,12.9637659 6.21202286,12.9637659 C6.09689589,12.9637659 5.99268891,13.0104027 5.9173008,13.0857909 C5.84191269,13.161179 5.79527589,13.2653859 5.79527589,13.3805129 C5.79527589,13.4956265 5.84191269,13.5998335 5.9173008,13.6752216 C5.99268891,13.7506097 6.09690926,13.7972465 6.21202286,13.7972465 C6.32713646,13.7972465 6.43134343,13.7506097 6.50673154,13.6752216 C6.58211966,13.5998335 6.62875646,13.4956265 6.62875646,13.3805129 C6.62875646,13.2653859 6.58211966,13.161179 6.50673154,13.0857909 Z" id="Shape" fill="#66BB6A" fill-rule="nonzero"></path>
                    <path d="M12.8765486,16.0318629 C13.3015954,16.0318629 13.6864457,16.2041822 13.9650514,16.4827749 C14.2436431,16.7613665 14.4159634,17.1462309 14.4159634,17.5712777 C14.4159634,17.9963383 14.2436441,18.3811749 13.9650377,18.6597669 C13.6864461,18.9383719 13.3016091,19.1106926 12.8765486,19.1106926 C12.4515017,19.1106926 12.0666377,18.9383733 11.7880457,18.6597806 C11.5094541,18.3811755 11.3371337,17.9963246 11.3371337,17.5712777 C11.3371337,17.1462309 11.509453,16.7613669 11.7880457,16.4827749 C12.0666374,16.2041832 12.4515017,16.0318629 12.8765486,16.0318629 Z M13.4479063,16.99992 C13.3017062,16.8537333 13.099704,16.7633081 12.8765486,16.7633081 C12.6533945,16.7633081 12.4513783,16.8537333 12.3051909,16.99992 C12.1590041,17.1461067 12.068579,17.3481223 12.068579,17.5712777 C12.068579,17.7944318 12.1590041,17.9964343 12.3051909,18.1426354 C12.4513776,18.2888222 12.6533931,18.3792473 12.8765486,18.3792473 C13.0997026,18.3792473 13.3017051,18.2888222 13.4478926,18.1426221 C13.5940927,17.9964353 13.6845178,17.7944335 13.6845178,17.5712781 C13.6845178,17.348124 13.5940927,17.1461078 13.4479059,16.9999203 L13.4479063,16.99992 Z" id="Shape" fill="#212121" fill-rule="nonzero"></path>
                    <path d="M16.2987771,6.23893714 C16.5896386,6.23893714 16.8530194,6.35687177 17.0436823,6.54753566 C17.2343458,6.73817246 17.3522808,7.00157794 17.3522808,7.2924408 C17.3522808,7.58330229 17.2343462,7.84668309 17.0436823,8.03734594 C16.8530187,8.22800949 16.58964,8.34594446 16.2987771,8.34594446 C16.0079157,8.34594446 15.7445109,8.22800983 15.553872,8.03734594 C15.3632085,7.8466824 15.2452735,7.58330366 15.2452735,7.2924408 C15.2452735,7.00155223 15.3632081,6.73817451 15.553872,6.54753566 C15.7445088,6.35687211 16.0079143,6.23893714 16.2987771,6.23893714 Z M16.5265341,7.06468457 C16.4682754,7.00642594 16.3877445,6.97038549 16.2987771,6.97038549 C16.2098098,6.97038549 16.1292655,7.00643931 16.0710202,7.06468457 C16.0127616,7.12292983 15.9767211,7.20347417 15.9767211,7.29244149 C15.9767211,7.3814088 16.0127616,7.46193977 16.0710202,7.5201984 C16.1292655,7.57844366 16.2098098,7.61449749 16.2987771,7.61449749 C16.3877445,7.61449749 16.4682754,7.57845703 16.5265341,7.5201984 C16.5847927,7.46193977 16.6208331,7.3814088 16.6208331,7.29244149 C16.6208331,7.20347417 16.5847927,7.12292983 16.5265341,7.06468457 Z" id="Shape" fill="#66BB6A" fill-rule="nonzero"></path>
                    <path d="M17.6659543,10.7440114 C17.9568158,10.7440114 18.2202206,10.8619461 18.4108594,11.0526099 C18.601523,11.2432735 18.7194579,11.5066522 18.7194579,11.7975151 C18.7194579,12.0884037 18.6015233,12.3517814 18.4108594,12.5424202 C18.2202226,12.7330838 17.9568446,12.8510187 17.6659543,12.8510187 C17.3750928,12.8510187 17.111712,12.7330841 16.9210491,12.5424202 C16.7303856,12.3517834 16.6124506,12.0883779 16.6124506,11.7975151 C16.6124506,11.5066536 16.7303853,11.2432728 16.9210491,11.0526099 C17.1117127,10.8619464 17.3750914,10.7440114 17.6659543,10.7440114 Z M17.8937112,11.5697589 C17.8354659,11.5115002 17.7549216,11.4754598 17.6659543,11.4754598 C17.576987,11.4754598 17.496456,11.5115002 17.4381974,11.5697589 C17.3799387,11.6280175 17.3438983,11.7085485 17.3438983,11.7975158 C17.3438983,11.8864831 17.3799387,11.9670274 17.4381974,12.0252727 C17.496456,12.0835313 17.576987,12.1195718 17.6659543,12.1195718 C17.7549216,12.1195718 17.8354659,12.0835313 17.8937112,12.0252727 C17.9519698,11.9670274 17.9880103,11.8864831 17.9880103,11.7975158 C17.9880103,11.7085485 17.9519698,11.6280175 17.8937112,11.5697589 Z" id="Shape" fill="#66BB6A" fill-rule="nonzero"></path>
                </g>
            </g>
        </g>
    </g>
</svg>