<?xml version="1.0" encoding="UTF-8"?>
<svg width="24px" height="24px" viewBox="0 0 24 24" version="1.1" xmlns="http://www.w3.org/2000/svg" xmlns:xlink="http://www.w3.org/1999/xlink">
    <!-- Generator: Sketch 49.2 (51160) - http://www.bohemiancoding.com/sketch -->
    <title>musicchain</title>
    <desc>Created with Sketch.</desc>
    <defs>
        <path d="M0.000721804511,2.43118242 C0.0046556391,2.43150382 0.00855338346,2.4317895 0.012487218,2.43211089 C0.68647218,2.48592608 1.27690827,1.98891227 1.33129624,1.32206101 C1.38568421,0.655174042 0.883416541,0.0709560594 0.209431579,0.0171408699 L0.197702256,0.0162124061 L0.000721804511,2.43118242 Z" id="path-1"></path>
        <path d="M9.22846393,0.0291957859 C8.92238567,0.0360212389 8.60480528,0.0941626633 8.29965865,0.216341846 C7.99479868,0.337484703 7.70516737,0.525166793 7.46745686,0.760805731 C7.46720603,0.761055879 7.46695521,0.761341761 7.46670438,0.761556174 C5.87654503,2.34745554 4.28634983,3.93335491 2.69615464,5.51921854 C1.88122395,5.44889136 1.06629326,5.37852845 0.251362565,5.30820126 C0.251362565,5.30820126 0.239681282,5.30720067 0.216318718,5.30516376 C0.181382367,5.70775828 0.16396794,5.90905554 0.16396794,5.90905554 C0.146481848,6.1103528 0.128995757,6.31165006 0.111545497,6.51291159 C0.0940594059,6.71420885 0.0765733145,6.91550611 0.0591588873,7.11680337 C0.0591588873,7.11680337 0.0416727959,7.31810063 0.00673644507,7.72069515 C0.0300631777,7.72269633 0.0417444602,7.72369692 0.0417444602,7.72369692 C1.04454314,7.81024796 2.04737765,7.89679899 3.050248,7.98335002 L3.05057049,7.98338576 C3.39387836,8.01129507 3.75227157,7.89476207 4.01492126,7.63282191 L4.01517209,7.6326075 L9.185752,2.47595988 C9.185967,2.47574547 9.18603866,2.47570973 9.18603866,2.47570973 C9.19184347,2.47263649 9.19327676,2.4715287 9.20481471,2.46656148 C9.21599434,2.46202309 9.23838944,2.45526911 9.27332579,2.45330367 C9.32374163,2.45401837 9.39483263,2.46623987 9.46871853,2.49815154 C9.54281942,2.52977733 9.61889109,2.57969962 9.68664969,2.6469893 L9.68682885,2.64716797 C9.7543008,2.71474353 9.80439415,2.79060969 9.83606978,2.86451041 C9.86806789,2.93819671 9.88028666,3.00909566 9.88103913,3.05937531 C9.87906836,3.09421728 9.87229609,3.11655188 9.8677454,3.12770131 C9.86280057,3.13924383 9.86165394,3.14063751 9.85857237,3.14646237 C9.85857237,3.14646237 9.85853654,3.14646237 9.85832155,3.14674825 L5.71175295,7.28211513 C5.71146629,7.28236528 5.7112513,7.28261542 5.71100047,7.28286557 C5.65094578,7.34643877 5.59239604,7.41187021 5.53570957,7.47855238 C5.35389722,7.70682984 5.21182273,7.96491058 5.11851579,8.23263987 C5.02882791,8.50036915 4.9846827,8.77302992 4.97737294,9.03911538 C4.97174729,9.46947627 5.06401509,9.87764551 5.22303819,10.2442545 C5.38234795,10.6111852 5.61016879,10.9377706 5.88288732,11.2101455 C5.88317397,11.2103956 5.8834248,11.2106815 5.88371146,11.2109674 C6.15682414,11.4829492 6.4842942,11.7101546 6.85218293,11.869034 C7.21978501,12.0276275 7.62909571,12.1196103 8.06062235,12.1140356 C8.36670061,12.1072101 8.684281,12.0491044 8.98946346,11.9268895 C9.2942876,11.8057109 9.58391891,11.6180646 9.82159359,11.3823899 C9.82188025,11.3821397 9.82213107,11.3818896 9.8223819,11.3816752 L17.7241961,3.50117151 C17.8377841,3.38792617 17.951372,3.27464509 18.0649599,3.16136401 C18.0651391,3.1611496 18.0652466,3.16111386 18.0652466,3.16111386 C18.0710514,3.15800489 18.0724847,3.15693283 18.0840226,3.15192988 C18.0952381,3.14742722 18.1175974,3.14067324 18.1525337,3.1387078 C18.2029496,3.1394225 18.2740405,3.15164399 18.3478906,3.18355567 C18.4220273,3.21518146 18.498099,3.26513949 18.5658576,3.33235769 L18.5660368,3.33260784 C18.6335087,3.40014766 18.6835662,3.47604956 18.7152419,3.54991454 C18.7472758,3.62363658 18.7595304,3.69449979 18.7602471,3.74477944 C18.7582763,3.77962141 18.7515398,3.80192027 18.7469892,3.81310544 C18.7419727,3.82464796 18.7408619,3.82604164 18.7377445,3.83183076 C18.7377445,3.83183076 18.7377445,3.83190223 18.7375295,3.83211665 L15.2053032,7.35480084 L15.2050882,7.35505099 C15.0086205,7.55130957 14.8771165,7.81668032 14.8530014,8.11474893 C14.7990024,8.7821067 15.2976785,9.36673713 15.9668439,9.42055457 L15.9672023,9.42059031 C17.8036719,9.56839174 19.6402131,9.71615744 21.4766827,9.86395887 C21.4766827,9.86395887 21.488364,9.86488799 21.5116907,9.86678196 C21.544298,9.46397303 21.5605658,9.26264003 21.5605658,9.26264003 C21.5768694,9.06123557 21.593173,8.8598311 21.6094767,8.65842663 C21.6257445,8.45702217 21.6420481,8.25565343 21.6583517,8.0542847 C21.6583517,8.0542847 21.6746554,7.85288024 21.7072268,7.45010704 L21.6722188,7.44728394 C20.7094088,7.36980969 19.7465629,7.29233544 18.7837171,7.21486119 L20.4565771,5.54652035 C20.4568279,5.54627021 20.4570429,5.54602006 20.4572937,5.54573418 C20.6936068,5.30870156 20.8817614,5.01985268 21.0032324,4.715852 C21.1257784,4.41152971 21.1840773,4.09477151 21.1909213,3.7895201 C21.1965469,3.35915921 21.1042791,2.95095424 20.9452202,2.58438095 C20.7859104,2.21748605 20.5581612,1.8908649 20.2853711,1.61849001 C20.2851202,1.61820413 20.2848336,1.61795398 20.2845827,1.6176681 C20.0114701,1.3456863 19.6839642,1.11848091 19.3160754,0.959637252 C18.9485092,0.800972271 18.5391985,0.708989465 18.107636,0.714599916 C17.8015936,0.721425369 17.4839774,0.779566793 17.1788307,0.901781711 C16.8740424,1.02288883 16.5843753,1.21057092 16.3466648,1.4462456 C16.3464498,1.44646001 16.3461631,1.44671016 16.3458765,1.44699604 C16.2323244,1.56024138 16.1187723,1.67348673 16.0051843,1.7867678 L8.10333428,9.66723574 C8.10311928,9.66752162 8.10304762,9.66752162 8.10304762,9.66752162 C8.09724281,9.67059486 8.09584536,9.67173839 8.08427157,9.67666987 C8.07305611,9.68120826 8.05069684,9.68792651 8.01576049,9.68992769 C7.96534465,9.68917724 7.89428949,9.67699149 7.82036775,9.64504408 C7.74626686,9.61348976 7.67019519,9.56353173 7.60243659,9.49624206 L7.60222159,9.49606338 C7.53478548,9.42848782 7.48472796,9.35262166 7.4530165,9.27872094 C7.42098256,9.20503464 7.40876379,9.13413569 7.40804715,9.08385605 C7.41098538,9.0541957 7.41571523,9.03321905 7.41804432,9.01946094 C7.42366997,9.00795415 7.42757567,9.00534547 7.42811315,9.00055693 C7.43069307,9.00073561 7.43130222,8.99966355 7.43051391,8.99676898 C7.43051391,8.99676898 7.43054974,8.99669751 7.43076473,8.99651884 C8.81295427,7.61806321 10.1951438,6.23957185 11.5773692,4.86111622 C11.57762,4.86086608 11.577835,4.86061593 11.5781216,4.86036578 C11.8143989,4.62329743 12.0025535,4.33444855 12.1240603,4.03044787 C12.2466063,3.72608984 12.3048694,3.40936738 12.3117133,3.10411597 C12.317339,2.67375508 12.2250712,2.26555011 12.0660481,1.89894109 C11.9067383,1.53208192 11.6789533,1.2054965 11.406199,0.933085883 C11.4059481,0.9328 11.4056256,0.932549853 11.4053748,0.93226397 C11.1322263,0.660282174 10.8047921,0.43307678 10.4368675,0.274197387 C10.0799076,0.120178003 9.6835323,0.0289456384 9.26569354,0.0289456384 C9.25329562,0.0289456384 9.24089769,0.0290171091 9.22846393,0.0291957859" id="path-3"></path>
        <path d="M0.0113684211,1.12640973 C-0.046881203,1.79747381 0.451921805,2.38857826 1.12558195,2.44667842 L1.13734737,2.44768511 L1.3484391,0.0174731928 L1.33667368,0.0164305537 C1.3008,0.0133385895 1.26514286,0.0118645136 1.22977444,0.0118645136 C0.601371429,0.0118645136 0.0665503759,0.491083004 0.0113684211,1.12640973" id="path-5"></path>
    </defs>
    <g id="musicchain" stroke="none" stroke-width="1" fill="none" fill-rule="evenodd">
        <g id="Page-1" transform="translate(11.969289, 12.041234) rotate(-20.000000) translate(-11.969289, -12.041234) translate(-0.530711, 5.541234)">
            <g id="Group-3" transform="translate(22.639306, 7.437173)">
                <mask id="mask-2" fill="white">
                    <use xlink:href="#path-1"></use>
                </mask>
                <g id="Clip-2"></g>
                <path d="M0.000721804511,2.43118242 C0.0046556391,2.43150382 0.00855338346,2.4317895 0.012487218,2.43211089 C0.68647218,2.48592608 1.27690827,1.98891227 1.33129624,1.32206101 C1.38568421,0.655174042 0.883416541,0.0709560594 0.209431579,0.0171408699 L0.197702256,0.0162124061 L0.000721804511,2.43118242 Z" id="Fill-1" fill="#4A4A4A" mask="url(#mask-2)"></path>
            </g>
            <g id="Group-6" transform="translate(1.142857, 0.000000)">
                <mask id="mask-4" fill="white">
                    <use xlink:href="#path-3"></use>
                </mask>
                <g id="Clip-5"></g>
                <path d="M9.22846393,0.0291957859 C8.92238567,0.0360212389 8.60480528,0.0941626633 8.29965865,0.216341846 C7.99479868,0.337484703 7.70516737,0.525166793 7.46745686,0.760805731 C7.46720603,0.761055879 7.46695521,0.761341761 7.46670438,0.761556174 C5.87654503,2.34745554 4.28634983,3.93335491 2.69615464,5.51921854 C1.88122395,5.44889136 1.06629326,5.37852845 0.251362565,5.30820126 C0.251362565,5.30820126 0.239681282,5.30720067 0.216318718,5.30516376 C0.181382367,5.70775828 0.16396794,5.90905554 0.16396794,5.90905554 C0.146481848,6.1103528 0.128995757,6.31165006 0.111545497,6.51291159 C0.0940594059,6.71420885 0.0765733145,6.91550611 0.0591588873,7.11680337 C0.0591588873,7.11680337 0.0416727959,7.31810063 0.00673644507,7.72069515 C0.0300631777,7.72269633 0.0417444602,7.72369692 0.0417444602,7.72369692 C1.04454314,7.81024796 2.04737765,7.89679899 3.050248,7.98335002 L3.05057049,7.98338576 C3.39387836,8.01129507 3.75227157,7.89476207 4.01492126,7.63282191 L4.01517209,7.6326075 L9.185752,2.47595988 C9.185967,2.47574547 9.18603866,2.47570973 9.18603866,2.47570973 C9.19184347,2.47263649 9.19327676,2.4715287 9.20481471,2.46656148 C9.21599434,2.46202309 9.23838944,2.45526911 9.27332579,2.45330367 C9.32374163,2.45401837 9.39483263,2.46623987 9.46871853,2.49815154 C9.54281942,2.52977733 9.61889109,2.57969962 9.68664969,2.6469893 L9.68682885,2.64716797 C9.7543008,2.71474353 9.80439415,2.79060969 9.83606978,2.86451041 C9.86806789,2.93819671 9.88028666,3.00909566 9.88103913,3.05937531 C9.87906836,3.09421728 9.87229609,3.11655188 9.8677454,3.12770131 C9.86280057,3.13924383 9.86165394,3.14063751 9.85857237,3.14646237 C9.85857237,3.14646237 9.85853654,3.14646237 9.85832155,3.14674825 L5.71175295,7.28211513 C5.71146629,7.28236528 5.7112513,7.28261542 5.71100047,7.28286557 C5.65094578,7.34643877 5.59239604,7.41187021 5.53570957,7.47855238 C5.35389722,7.70682984 5.21182273,7.96491058 5.11851579,8.23263987 C5.02882791,8.50036915 4.9846827,8.77302992 4.97737294,9.03911538 C4.97174729,9.46947627 5.06401509,9.87764551 5.22303819,10.2442545 C5.38234795,10.6111852 5.61016879,10.9377706 5.88288732,11.2101455 C5.88317397,11.2103956 5.8834248,11.2106815 5.88371146,11.2109674 C6.15682414,11.4829492 6.4842942,11.7101546 6.85218293,11.869034 C7.21978501,12.0276275 7.62909571,12.1196103 8.06062235,12.1140356 C8.36670061,12.1072101 8.684281,12.0491044 8.98946346,11.9268895 C9.2942876,11.8057109 9.58391891,11.6180646 9.82159359,11.3823899 C9.82188025,11.3821397 9.82213107,11.3818896 9.8223819,11.3816752 L17.7241961,3.50117151 C17.8377841,3.38792617 17.951372,3.27464509 18.0649599,3.16136401 C18.0651391,3.1611496 18.0652466,3.16111386 18.0652466,3.16111386 C18.0710514,3.15800489 18.0724847,3.15693283 18.0840226,3.15192988 C18.0952381,3.14742722 18.1175974,3.14067324 18.1525337,3.1387078 C18.2029496,3.1394225 18.2740405,3.15164399 18.3478906,3.18355567 C18.4220273,3.21518146 18.498099,3.26513949 18.5658576,3.33235769 L18.5660368,3.33260784 C18.6335087,3.40014766 18.6835662,3.47604956 18.7152419,3.54991454 C18.7472758,3.62363658 18.7595304,3.69449979 18.7602471,3.74477944 C18.7582763,3.77962141 18.7515398,3.80192027 18.7469892,3.81310544 C18.7419727,3.82464796 18.7408619,3.82604164 18.7377445,3.83183076 C18.7377445,3.83183076 18.7377445,3.83190223 18.7375295,3.83211665 L15.2053032,7.35480084 L15.2050882,7.35505099 C15.0086205,7.55130957 14.8771165,7.81668032 14.8530014,8.11474893 C14.7990024,8.7821067 15.2976785,9.36673713 15.9668439,9.42055457 L15.9672023,9.42059031 C17.8036719,9.56839174 19.6402131,9.71615744 21.4766827,9.86395887 C21.4766827,9.86395887 21.488364,9.86488799 21.5116907,9.86678196 C21.544298,9.46397303 21.5605658,9.26264003 21.5605658,9.26264003 C21.5768694,9.06123557 21.593173,8.8598311 21.6094767,8.65842663 C21.6257445,8.45702217 21.6420481,8.25565343 21.6583517,8.0542847 C21.6583517,8.0542847 21.6746554,7.85288024 21.7072268,7.45010704 L21.6722188,7.44728394 C20.7094088,7.36980969 19.7465629,7.29233544 18.7837171,7.21486119 L20.4565771,5.54652035 C20.4568279,5.54627021 20.4570429,5.54602006 20.4572937,5.54573418 C20.6936068,5.30870156 20.8817614,5.01985268 21.0032324,4.715852 C21.1257784,4.41152971 21.1840773,4.09477151 21.1909213,3.7895201 C21.1965469,3.35915921 21.1042791,2.95095424 20.9452202,2.58438095 C20.7859104,2.21748605 20.5581612,1.8908649 20.2853711,1.61849001 C20.2851202,1.61820413 20.2848336,1.61795398 20.2845827,1.6176681 C20.0114701,1.3456863 19.6839642,1.11848091 19.3160754,0.959637252 C18.9485092,0.800972271 18.5391985,0.708989465 18.107636,0.714599916 C17.8015936,0.721425369 17.4839774,0.779566793 17.1788307,0.901781711 C16.8740424,1.02288883 16.5843753,1.21057092 16.3466648,1.4462456 C16.3464498,1.44646001 16.3461631,1.44671016 16.3458765,1.44699604 C16.2323244,1.56024138 16.1187723,1.67348673 16.0051843,1.7867678 L8.10333428,9.66723574 C8.10311928,9.66752162 8.10304762,9.66752162 8.10304762,9.66752162 C8.09724281,9.67059486 8.09584536,9.67173839 8.08427157,9.67666987 C8.07305611,9.68120826 8.05069684,9.68792651 8.01576049,9.68992769 C7.96534465,9.68917724 7.89428949,9.67699149 7.82036775,9.64504408 C7.74626686,9.61348976 7.67019519,9.56353173 7.60243659,9.49624206 L7.60222159,9.49606338 C7.53478548,9.42848782 7.48472796,9.35262166 7.4530165,9.27872094 C7.42098256,9.20503464 7.40876379,9.13413569 7.40804715,9.08385605 C7.41098538,9.0541957 7.41571523,9.03321905 7.41804432,9.01946094 C7.42366997,9.00795415 7.42757567,9.00534547 7.42811315,9.00055693 C7.43069307,9.00073561 7.43130222,8.99966355 7.43051391,8.99676898 C7.43051391,8.99676898 7.43054974,8.99669751 7.43076473,8.99651884 C8.81295427,7.61806321 10.1951438,6.23957185 11.5773692,4.86111622 C11.57762,4.86086608 11.577835,4.86061593 11.5781216,4.86036578 C11.8143989,4.62329743 12.0025535,4.33444855 12.1240603,4.03044787 C12.2466063,3.72608984 12.3048694,3.40936738 12.3117133,3.10411597 C12.317339,2.67375508 12.2250712,2.26555011 12.0660481,1.89894109 C11.9067383,1.53208192 11.6789533,1.2054965 11.406199,0.933085883 C11.4059481,0.9328 11.4056256,0.932549853 11.4053748,0.93226397 C11.1322263,0.660282174 10.8047921,0.43307678 10.4368675,0.274197387 C10.0799076,0.120178003 9.6835323,0.0289456384 9.26569354,0.0289456384 C9.25329562,0.0289456384 9.24089769,0.0290171091 9.22846393,0.0291957859" id="Fill-4" fill="#4A4A4A" mask="url(#mask-4)"></path>
            </g>
            <g id="Group-9" transform="translate(0.019200, 5.280581)">
                <mask id="mask-6" fill="white">
                    <use xlink:href="#path-5"></use>
                </mask>
                <g id="Clip-8"></g>
                <path d="M1.12527409,2.4577794 L1.1370395,2.45878368 L1.34813123,0.0343788925 L1.33636582,0.0333387448 C1.30049214,0.0302541691 1.26483499,0.0287836156 1.22946657,0.0287836156 C0.601063565,0.0287836156 0.066242512,0.506856987 0.0110605571,1.14066556 C-0.047189067,1.8101261 0.451613941,2.39981807 1.12527409,2.4577794 Z" id="Fill-7" fill="#4A4A4A" mask="url(#mask-6)"></path>
            </g>
        </g>
    </g>
</svg>