<?xml version="1.0" encoding="UTF-8"?>
<svg width="24px" height="24px" viewBox="0 0 24 24" version="1.1" xmlns="http://www.w3.org/2000/svg" xmlns:xlink="http://www.w3.org/1999/xlink">
    <!-- Generator: Sketch 49.2 (51160) - http://www.bohemiancoding.com/sketch -->
    <title>musicchain2</title>
    <desc>Created with Sketch.</desc>
    <defs>
        <path d="M15.8955921,0 C15.4507855,0 15.0059788,0.161795876 14.6666129,0.485479977 C14.1064896,1.01972035 14.0091821,1.82786859 14.3736253,2.45787513 L11.9947715,9.69233023 L9.61659553,2.46027621 C9.98278157,1.82980792 9.88586137,1.0203668 9.32506031,0.485479977 C8.98569434,0.161795876 8.54088771,0 8.09608107,0 C7.65137126,0 7.20656463,0.161795876 6.86719866,0.485479977 C6.2691206,1.05601361 6.19843953,1.93868768 6.6545745,2.58328541 L4.95880972,8.72164732 C4.47004526,8.87199189 4.07248844,9.25376367 3.94264828,9.76473203 C3.74416034,10.5459143 4.24735148,11.3326375 5.0663805,11.5218611 C5.88550635,11.7111771 6.71034477,11.2313304 6.90883271,10.4501481 C7.04883933,9.89882314 6.8392167,9.34500472 6.41600168,9.00017264 L7.98754206,3.3116439 C8.10431106,3.31847774 8.22156418,3.31441437 8.3375586,3.2990844 L10.7234805,10.5548722 C10.1324705,11.2059343 10.160743,12.1916702 10.8093628,12.8103178 C11.4880948,13.4575936 12.5883957,13.4575936 13.2670308,12.8103178 C13.9385978,12.1698757 13.9452786,11.136026 13.2882352,10.4872725 L15.6518877,3.29880735 C15.7679789,3.31432203 15.885232,3.31847774 16.002001,3.3116439 L17.575381,9.00691414 C17.1683355,9.34380418 16.9610367,9.87619757 17.0827437,10.4141319 C17.2603177,11.200024 18.0721818,11.699541 18.896052,11.5300802 C19.7198254,11.3606193 20.2437367,10.5862709 20.0660658,9.80056354 C19.9461016,9.26992478 19.5366355,8.87014491 19.0298619,8.7184151 L17.3355495,2.58540944 C17.7933305,1.94062702 17.7231335,1.05666005 17.1244745,0.485479977 C16.7851086,0.161795876 16.3403019,0 15.8955921,0 Z M19.337373,4.08340653 C19.337373,4.41955778 19.4764114,4.72458733 19.7022035,4.94964244 L18.9834835,7.54400976 L19.1847794,8.24346293 C19.4474612,8.31106258 19.6821611,8.44395314 19.8684493,8.62264893 L20.7804288,5.33058307 C21.4456054,5.26870908 21.9654502,4.73400696 21.9654502,4.08340653 C21.9654502,3.39124895 21.3770545,2.83004259 20.6513632,2.83004259 C19.9255751,2.83004259 19.337373,3.39124895 19.337373,4.08340653 Z M2.03464663,4.08340653 C2.03464663,4.73400696 2.55449139,5.26870908 3.21957123,5.33058307 L4.13164753,8.62283363 C4.31512785,8.44690832 4.54527704,8.31531065 4.80311771,8.24678751 L5.01109435,7.52415467 L4.29779646,4.94964244 C4.52368542,4.72458733 4.66262698,4.41955778 4.66262698,4.08340653 C4.66262698,3.39124895 4.07432809,2.83004259 3.34863681,2.83004259 C2.62294553,2.83004259 2.03464663,3.39124895 2.03464663,4.08340653 Z M21.2809088,5.57493917 L22.1651968,7.58399698 C21.9386301,7.77654516 21.7959124,8.05673276 21.7959124,8.36887321 C21.7959124,8.94938056 22.2893244,9.42008465 22.8979562,9.42008465 C23.5066848,9.42008465 24,8.94938056 24,8.36887321 C24,7.81099142 23.5442523,7.35487851 22.9685405,7.32015519 L21.9727119,5.05787576 C21.8125661,5.29826084 21.5690552,5.48286698 21.2809088,5.57493917 Z M1.03155636,7.32015519 C0.455844502,7.35487851 0,7.81089907 0,8.36887321 C0,8.94938056 0.493411975,9.42008465 1.10204378,9.42008465 C1.71077241,9.42008465 2.20428121,8.94938056 2.20428121,8.36887321 C2.20428121,8.05673276 2.06136989,7.77654516 1.83480317,7.58399698 L2.71918797,5.57493917 C2.43104158,5.48286698 2.18753076,5.29826084 2.02738488,5.05787576 L1.03155636,7.32015519 Z" id="path-1"></path>
    </defs>
    <g id="musicchain2" stroke="none" stroke-width="1" fill="none" fill-rule="evenodd">
        <g id="Page-1" transform="translate(0.000000, 5.000000)">
            <mask id="mask-2" fill="white">
                <use xlink:href="#path-1"></use>
            </mask>
            <g id="Clip-2"></g>
            <path d="M15.8450121,0 C15.3995451,0 14.954078,0.161795876 14.6142082,0.485479977 C14.0532533,1.01972035 13.9558013,1.82786859 14.3207856,2.45787513 L11.9383999,9.69233023 L9.556693,2.46027621 C9.92342273,1.82980792 9.82635862,1.0203668 9.26472494,0.485479977 C8.92485511,0.161795876 8.47938806,0 8.03392101,0 C7.58855093,0 7.14308389,0.161795876 6.80321406,0.485479977 C6.20424803,1.05601361 6.13346201,1.93868768 6.59027421,2.58328541 L4.8919917,8.72164732 C4.40250157,8.87199189 4.00435449,9.25376367 3.87432156,9.76473203 C3.67553892,10.5459143 4.17947715,11.3326375 4.9997222,11.5218611 C5.82006421,11.7111771 6.64612729,11.2313304 6.84490993,10.4501481 C6.98512441,9.89882314 6.77519055,9.34500472 6.35134718,9.00017264 L7.92522085,3.3116439 C8.04216322,3.31847774 8.15959043,3.31441437 8.27575706,3.2990844 L10.6652214,10.5548722 C10.0733339,11.2059343 10.1016483,12.1916702 10.7512312,12.8103178 C11.4309709,13.4575936 12.5329055,13.4575936 13.2125482,12.8103178 C13.8851122,12.1698757 13.891803,11.136026 13.233784,10.4872725 L15.6009458,3.29880735 C15.7172094,3.31432203 15.8346366,3.31847774 15.951579,3.3116439 L17.527295,9.00691414 C17.1196452,9.34380418 16.9120385,9.87619757 17.0339262,10.4141319 C17.211764,11.200024 18.0248334,11.699541 18.8499268,11.5300802 C19.6749233,11.3606193 20.1996125,10.5862709 20.0216778,9.80056354 C19.9015355,9.26992478 19.4914615,8.87014491 18.9839354,8.7184151 L17.2871074,2.58540944 C17.7455681,1.94062702 17.6752669,1.05666005 17.0757191,0.485479977 C16.7358492,0.161795876 16.2903822,0 15.8450121,0 Z" id="Path" fill="#4A4A4A" mask="url(#mask-2)"></path>
            <path d="M19.2772496,4.06028461 C19.2772496,4.39375903 19.4138452,4.69635958 19.6356705,4.91962254 L18.9295775,7.49333049 L19.1273368,8.1872138 C19.3854037,8.25427514 19.6159802,8.38610748 19.7989955,8.56338028 L20.6949528,5.29752968 C21.3484431,5.2361484 21.8591549,4.7057042 21.8591549,4.06028461 C21.8591549,3.37363879 21.2810965,2.81690141 20.5681547,2.81690141 C19.8551177,2.81690141 19.2772496,3.37363879 19.2772496,4.06028461 Z" id="Path" fill="#4A4A4A" mask="url(#mask-2)"></path>
            <path d="M2.02816901,4.06024496 C2.02816901,4.70564397 2.53982776,5.23607127 3.19443456,5.29745059 L4.09214835,8.56338028 C4.27273939,8.38886146 4.49926441,8.25831588 4.75304486,8.19034057 L4.95774648,7.47348503 L4.25568093,4.9195555 C4.4780128,4.69629966 4.61476644,4.39370875 4.61476644,4.06024496 C4.61476644,3.37362104 4.03573152,2.81690141 3.32146773,2.81690141 C2.60720394,2.81690141 2.02816901,3.37362104 2.02816901,4.06024496 Z" id="Path" fill="#4A4A4A" mask="url(#mask-2)"></path>
            <path d="M21.2957746,5.59129764 L22.1752281,7.6151658 C21.9499,7.8091334 21.8079626,8.09138649 21.8079626,8.40582797 C21.8079626,8.9906147 22.298677,9.46478873 22.9039813,9.46478873 C23.5093819,9.46478873 24,8.9906147 24,8.40582797 C24,7.8438336 23.546744,7.38435831 22.9741797,7.34937902 L21.9837955,5.07042254 C21.8245252,5.31257969 21.5823457,5.4985467 21.2957746,5.59129764 Z" id="Path" fill="#4A4A4A" mask="url(#mask-2)"></path>
            <path d="M1.02588011,7.34937902 C0.453336169,7.38435831 0,7.84374057 0,8.40582797 C0,8.9906147 0.490696923,9.46478873 1.09597967,9.46478873 C1.7013587,9.46478873 2.19215191,8.9906147 2.19215191,8.40582797 C2.19215191,8.09138649 2.05002698,7.8091334 1.82470697,7.6151658 L2.70422535,5.59129764 C2.41766451,5.4985467 2.17549364,5.31257969 2.01622898,5.07042254 L1.02588011,7.34937902 Z" id="Path" fill="#4A4A4A" mask="url(#mask-2)"></path>
        </g>
    </g>
</svg>