<?xml version="1.0" encoding="UTF-8"?>
<svg width="24px" height="24px" viewBox="0 0 24 24" version="1.1" xmlns="http://www.w3.org/2000/svg" xmlns:xlink="http://www.w3.org/1999/xlink">
    <!-- Generator: Sketch 49.2 (51160) - http://www.bohemiancoding.com/sketch -->
    <title>new-moon</title>
    <desc>Created with Sketch.</desc>
    <defs></defs>
    <g id="new-moon" stroke="none" stroke-width="1" fill="none" fill-rule="evenodd">
        <g id="Group">
            <g id="Layer_x0020_1">
                <g>
                    <g id="_347222704">
                        <rect id="_347222872" x="0" y="0" width="23.4056914" height="23.4056914"></rect>
                        <rect id="_347222776" x="2.92570629" y="2.92570629" width="17.5542857" height="17.5542857"></rect>
                    </g>
                    <path d="M17.5161943,17.8626857 C16.9923394,18.0759994 15.717504,18.5146526 15.1497257,18.6253954 C14.5956343,18.7334763 14.023992,18.7901153 13.440096,18.7901153 C12.2366674,18.7901153 11.0881234,18.5504393 10.0397211,18.1161713 C8.95025829,17.6648959 7.97068457,17.0044227 7.15149943,16.1852239 C6.33230057,15.3660387 5.67182743,14.386465 5.220552,13.2970022 C4.78628571,12.2486033 4.546608,11.1000559 4.546608,9.89662731 C4.546608,9.31273131 4.60324697,8.74109246 4.71132789,8.1869976 C4.822068,7.61921931 4.98692297,7.07057931 5.20023531,6.54672446 L5.53879989,6.68386731 C5.33420606,7.18631417 5.17608789,7.7124936 5.06989474,8.25700217 C4.9664976,8.78702846 4.91232891,9.33521931 4.91232891,9.89662731 C4.91232891,11.0528513 5.14184057,12.1545027 5.55768206,13.1584262 C5.98942491,14.2007256 6.62304891,15.1396399 7.41007063,15.9266479 C8.1970752,16.7136662 9.13599291,17.3472902 10.1782923,17.7790365 C11.1822158,18.1948639 12.2838535,18.4243896 13.4400912,18.4243896 C14.0014992,18.4243896 14.5496935,18.3702209 15.0797163,18.2668238 C15.6242249,18.1606327 16.8765998,17.7287129 17.3790466,17.5241198 L17.5161895,17.8626843 L17.5161943,17.8626857 Z" id="Shape" fill="#66BB6A" fill-rule="nonzero"></path>
                    <path d="M20.0416457,15.6756686 C19.2368366,16.9189989 18.129624,17.9492709 16.8236194,18.6627086 C15.5562891,19.3550229 14.104032,19.7485543 12.5618023,19.7485543 C10.102896,19.7485543 7.87669371,18.7518377 6.26526514,17.1404091 C4.65383657,15.5289806 3.65712,13.3027749 3.65712,10.843872 C3.65712,9.30163543 4.05065143,7.84937829 4.74296571,6.58205486 C5.46049714,5.26856229 6.49846286,4.15608343 7.751376,3.35016686 L7.75097105,3.34953244 C7.92083379,3.24027724 8.14713219,3.28942444 8.25638705,3.45928718 C8.35542408,3.61326227 8.32429711,3.81361632 8.19109574,3.93112032 C7.48487859,4.65954432 6.91607174,5.52259804 6.52686031,6.47834661 C6.14921688,7.40570661 5.94110259,8.42084832 5.94110259,9.48539232 C5.94110259,11.6888289 6.83420431,13.6836438 8.27811974,15.1275523 C9.72202145,16.5714678 11.7168397,17.4645695 13.9202797,17.4645695 C14.9848237,17.4645695 15.9999655,17.2564524 16.9273255,16.8788118 C17.891498,16.4861718 18.7613403,15.9107786 19.4937997,15.1958975 L19.4930843,15.1951686 C19.6376106,15.0540842 19.8691746,15.0568785 20.0102603,15.2014048 C20.1378193,15.332082 20.1477406,15.5338953 20.0416439,15.6756688 L20.0416457,15.6756686 Z M16.47504,18.0227006 C16.7491502,17.8729639 17.0137303,17.7078929 17.2677017,17.5287017 C17.2457129,17.5378671 17.2236974,17.5469784 17.2016139,17.5559683 C16.1882825,17.9686106 15.0804905,18.1960175 13.9202825,18.1960175 C11.5149511,18.1960175 9.3372768,17.2210209 7.76099109,15.6447009 C6.18467109,14.0683946 5.20967451,11.8907237 5.20967451,9.48540946 C5.20967451,8.32520146 5.43708069,7.21740946 5.84972366,6.20407803 C5.85871354,6.18199481 5.8678249,6.15997906 5.87699026,6.13799026 C5.69780009,6.39196101 5.53273083,6.65654112 5.38299141,6.93065198 C4.74897655,8.09126455 4.38858569,9.42453312 4.38858569,10.8438863 C4.38858569,13.1008977 5.30340741,15.1442405 6.78243141,16.6232577 C8.26145541,18.1022817 10.3048085,19.0171034 12.5618028,19.0171034 C13.9811628,19.0171034 15.3144314,18.6567125 16.4750371,18.0226977 L16.47504,18.0227006 Z" id="Shape" fill="#212121" fill-rule="nonzero"></path>
                    <path d="M16.7214514,17.9671886 C15.70812,18.3798309 14.600328,18.6072377 13.44012,18.6072377 C11.0347886,18.6072377 8.85711429,17.6322411 7.28082857,16.0559211 C5.70450857,14.4796149 4.729512,12.301944 4.729512,9.89662971 C4.729512,8.73642171 4.95691817,7.62862971 5.36956114,6.61529829" id="Shape"></path>
                </g>
            </g>
        </g>
    </g>
</svg>