<?xml version="1.0" encoding="UTF-8"?>
<svg width="24px" height="24px" viewBox="0 0 24 24" version="1.1" xmlns="http://www.w3.org/2000/svg" xmlns:xlink="http://www.w3.org/1999/xlink">
    <!-- Generator: Sketch 49.2 (51160) - http://www.bohemiancoding.com/sketch -->
    <title>orbit</title>
    <desc>Created with Sketch.</desc>
    <defs></defs>
    <g id="orbit" stroke="none" stroke-width="1" fill="none" fill-rule="evenodd">
        <g id="Group">
            <g id="Layer_x0020_1">
                <g>
                    <g id="_259451256">
                        <rect id="_259451520" x="0" y="0" width="23.4056914" height="23.4056914"></rect>
                        <rect id="_259450704" x="2.92570629" y="2.92570629" width="17.5542857" height="17.5542857"></rect>
                    </g>
                    <path d="M11.7028457,2.92569257 C12.650496,2.92569257 13.5645326,3.07676571 14.4220937,3.35612571 C15.3075017,3.64455771 16.1324126,4.07134629 16.8715783,4.61111657 L17.1940395,4.846608 L16.9315783,5.14540663 C16.8320959,5.25865749 16.7524152,5.39017166 16.6980843,5.53441577 C16.6465882,5.67115371 16.6183903,5.8211064 16.6183903,5.97957806 C16.6183903,6.32829463 16.7597177,6.64399063 16.9882029,6.87247749 C17.2166887,7.10096331 17.5323857,7.24229006 17.8811023,7.24229006 C18.0235498,7.24229006 18.1579526,7.22000434 18.2811377,7.17890194 C18.4120848,7.13519451 18.5332457,7.07095577 18.640692,6.99011451 L18.9590362,6.7505736 L19.1692725,7.09011017 C19.5918233,7.77258446 19.9234519,8.51627589 20.1471045,9.30421303 C20.3639009,10.0680027 20.4799999,10.8726782 20.4799999,11.7028485 C20.4799999,14.1265365 19.4975667,16.3208256 17.9091919,17.9092142 C16.3208307,19.497589 14.1265176,20.4800222 11.7028262,20.4800222 C9.27913817,20.4800222 7.08484903,19.497589 5.49646046,17.9092142 C3.9080856,16.320853 2.92565246,14.1265399 2.92565246,11.7028485 C2.92565246,9.27916046 3.9080856,7.08487131 5.49646046,5.49648274 C7.0848216,3.90810789 9.27913474,2.92567474 11.7028262,2.92567474 L11.7028457,2.92569257 Z M14.1963771,4.05042514 C13.4128149,3.79517211 12.5747829,3.65713714 11.7028457,3.65713714 C9.48104914,3.65713714 7.46958857,4.55767543 6.01364571,6.01364571 C4.55767886,7.46960229 3.65713714,9.48106286 3.65713714,11.7028457 C3.65713714,13.9246423 4.55767543,15.9361029 6.01364571,17.3920457 C7.46960229,18.8480126 9.48106286,19.7485543 11.7028457,19.7485543 C13.9246423,19.7485543 15.9361029,18.848016 17.3920457,17.3920457 C18.8480126,15.9360891 19.7485543,13.9246286 19.7485543,11.7028457 C19.7485543,10.937976 19.6424304,10.1995509 19.4442483,9.50136686 C19.2723473,8.89575086 19.0316575,8.31976457 18.7313763,7.78241143 C18.6605911,7.81590075 18.5875519,7.84531371 18.5125821,7.87033954 C18.3116462,7.93739931 18.0991683,7.97373669 17.8811043,7.97373669 C17.3304963,7.97373669 16.8319478,7.75051509 16.4710563,7.38962469 C16.1101649,7.02873326 15.8869443,6.53018811 15.8869443,5.97957669 C15.8869443,5.734164 15.9323393,5.49737554 16.0152322,5.27727154 C16.0522042,5.17909817 16.096789,5.08456971 16.148231,4.99440103 C15.5502024,4.59745474 14.8947658,4.2779256 14.1963761,4.05042274 L14.1963771,4.05042514 Z" id="Shape" fill="#212121" fill-rule="nonzero"></path>
                    <path d="M11.7028457,7.73221714 C12.7992446,7.73221714 13.791912,8.17666286 14.5104686,8.89521943 C15.2290251,9.613776 15.6734709,10.60644 15.6734709,11.7028423 C15.6734709,12.7992411 15.2290251,13.7919086 14.5104686,14.5104651 C13.791912,15.2290217 12.799248,15.6734674 11.7028457,15.6734674 C10.6064469,15.6734674 9.61377943,15.2290217 8.89522286,14.5104651 C8.17666629,13.7919086 7.73222057,12.7992446 7.73222057,11.7028423 C7.73222057,10.6064434 8.17666629,9.613776 8.89522286,8.89521943 C9.61377943,8.17666286 10.6064434,7.73221714 11.7028457,7.73221714 Z M13.99332,9.41236457 C13.407168,8.82621257 12.5973634,8.46366171 11.7028457,8.46366171 C10.8083246,8.46366171 9.99852343,8.82621257 9.41237143,9.41236457 C8.82621943,9.99851657 8.46366857,10.8083211 8.46366857,11.7028389 C8.46366857,12.59736 8.82621943,13.4071611 9.41237143,13.9933131 C9.99852343,14.5794651 10.808328,14.942016 11.7028457,14.942016 C12.5973669,14.942016 13.407168,14.5794651 13.99332,13.9933131 C14.579472,13.4071611 14.9420229,12.5973566 14.9420229,11.7028389 C14.9420229,10.8083177 14.579472,9.99851657 13.99332,9.41236457 Z" id="Shape" fill="#66BB6A" fill-rule="nonzero"></path>
                    <path d="M17.8810971,3.98540571 C18.4317189,3.98540571 18.9302674,4.20862731 19.2911589,4.56951771 C19.6520503,4.93040914 19.8752709,5.42895429 19.8752709,5.97957943 C19.8752709,6.53020114 19.6520493,7.02874971 19.2911589,7.38962743 C18.9302674,7.75051886 18.4317223,7.97373943 17.8810971,7.97373943 C17.3304754,7.97373943 16.8319269,7.75051783 16.4710491,7.38962743 C16.1101577,7.02874971 15.8869371,6.53020457 15.8869371,5.97957943 C15.8869371,5.42895771 16.1101587,4.93040914 16.4710491,4.56951771 C16.8319269,4.20862629 17.330472,3.98540571 17.8810971,3.98540571 Z M18.7740103,5.08666629 C18.5455245,4.85818046 18.2298274,4.71685371 17.8810971,4.71685371 C17.5323669,4.71685371 17.2166709,4.85818114 16.9881977,5.08666629 C16.7597119,5.31515211 16.6183851,5.63084914 16.6183851,5.97957943 C16.6183851,6.32830971 16.7597126,6.64400571 16.9881977,6.87247886 C17.2166702,7.10096469 17.5323703,7.24229143 17.8810971,7.24229143 C18.2298274,7.24229143 18.5455234,7.100964 18.7740103,6.87247886 C19.0024961,6.6440064 19.1438229,6.32830629 19.1438229,5.97957943 C19.1438229,5.63084914 19.0024954,5.31515314 18.7740103,5.08666629 Z" id="Shape" fill="#212121" fill-rule="nonzero"></path>
                </g>
            </g>
        </g>
    </g>
</svg>