<?xml version="1.0" encoding="UTF-8"?>
<svg width="24px" height="24px" viewBox="0 0 24 24" version="1.1" xmlns="http://www.w3.org/2000/svg" xmlns:xlink="http://www.w3.org/1999/xlink">
    <!-- Generator: Sketch 49.2 (51160) - http://www.bohemiancoding.com/sketch -->
    <title>planet-2</title>
    <desc>Created with Sketch.</desc>
    <defs></defs>
    <g id="planet-2" stroke="none" stroke-width="1" fill="none" fill-rule="evenodd">
        <g id="Group">
            <g id="Layer_x0020_1">
                <g>
                    <g id="_350180504">
                        <rect id="_350180576" x="0" y="0" width="23.4056914" height="23.4056914"></rect>
                        <rect id="_350179952" x="2.92570629" y="2.92570629" width="17.5542857" height="17.5542857"></rect>
                    </g>
                    <path d="M11.7028457,3.65712 C13.9245463,3.65712 15.936,4.55768571 17.3920114,6.01368343 C18.8480057,7.46969143 19.7485749,9.48113486 19.7485749,11.7028491 C19.7485749,13.9245497 18.8480091,15.9360034 17.3920114,17.3920149 C15.9360034,18.8480091 13.92456,19.7485783 11.7028457,19.7485783 C9.48114514,19.7485783 7.46969143,18.8480126 6.01368,17.3920149 C4.55768571,15.9360069 3.65711657,13.9245634 3.65711657,11.7028491 C3.65711657,9.48114857 4.55768229,7.46969486 6.01368,6.01368343 C7.469688,4.55768914 9.48113143,3.65712 11.7028457,3.65712 Z M16.8748457,6.53082857 C15.5512423,5.20723886 13.7226514,4.38856457 11.7028457,4.38856457 C9.68302629,4.38856457 7.85444571,5.20723886 6.53084571,6.53082857 C5.207256,7.854432 4.38858171,9.68302286 4.38858171,11.7028286 C4.38858171,13.722648 5.207256,15.5512286 6.53084571,16.8748286 C7.85444914,18.1984183 9.68304,19.0170926 11.7028457,19.0170926 C13.7226651,19.0170926 15.5512457,18.1984183 16.8748457,16.8748286 C18.1984354,15.5512251 19.0171097,13.7226343 19.0171097,11.7028286 C19.0171097,9.68300914 18.1984354,7.85442857 16.8748457,6.53082857 Z" id="Shape" fill="#212121" fill-rule="nonzero"></path>
                    <path d="M5.76277714,6.46868571 L12.2281714,6.46868571 L12.2281714,7.20013371 L5.76277714,7.20013371 L5.76277714,6.46868571 Z M14.4009257,6.46868571 L17.5817349,6.46868571 L17.5817349,7.20013371 L14.4009257,7.20013371 L14.4009257,6.46868571 Z" id="Shape" fill="#212121" fill-rule="nonzero"></path>
                    <path d="M5.79336,16.0914171 L8.40263657,16.0914171 L8.40263657,16.8228651 L5.79336,16.8228651 L5.79336,16.0914171 Z M10.5216,16.0914171 L17.6123314,16.0914171 L17.6123314,16.8228651 L10.5216,16.8228651 L10.5216,16.0914171 Z" id="Shape" fill="#212121" fill-rule="nonzero"></path>
                    <path d="M15.0346629,9.79296 C15.0346629,9.6386472 14.9721387,9.49896686 14.8710634,9.39789257 C14.7700015,9.29681726 14.6303074,9.23429314 14.4760097,9.23429314 C14.3216969,9.23429314 14.1820166,9.29681726 14.0809423,9.39789257 C13.979867,9.49895451 13.9173429,9.63866194 13.9173429,9.79296 L13.1858949,9.79296 C13.1858949,9.6386472 13.1233707,9.49896686 13.0222954,9.39789257 C12.9212335,9.29681726 12.7815394,9.23429314 12.6272417,9.23429314 C12.4729289,9.23429314 12.3332486,9.29681726 12.2321743,9.39789257 C12.131099,9.49895451 12.0685749,9.63866194 12.0685749,9.79296 L11.3371269,9.79296 C11.3371269,9.63866091 11.2746027,9.49895314 11.1735274,9.39789257 C11.0724521,9.29681726 10.9327714,9.23429314 10.77846,9.23429314 C10.6241609,9.23429314 10.4844669,9.29681726 10.3834063,9.39789257 C10.282331,9.49896789 10.2198069,9.63864857 10.2198069,9.79296 L9.48835886,9.79296 C9.48835886,9.63866091 9.42583474,9.49895314 9.32475943,9.39789257 C9.22368411,9.29681726 9.08400343,9.23429314 8.929692,9.23429314 C8.7753792,9.23429314 8.63569886,9.29681726 8.53462457,9.39789257 C8.43354926,9.49896789 8.37102514,9.63864857 8.37102514,9.79296 L7.63957714,9.79296 C7.63957714,9.6386472 7.57705303,9.49896686 7.47597771,9.39789257 C7.37491577,9.29683063 7.23522171,9.23429314 7.080924,9.23429314 C6.92662491,9.23429314 6.78691714,9.29681726 6.68585657,9.39789257 C6.58478126,9.49895451 6.52225714,9.63866194 6.52225714,9.79296 L5.79080914,9.79296 C5.79080914,9.6386472 5.72828503,9.49896686 5.62720971,9.39789257 C5.52614777,9.29683063 5.38645371,9.23429314 5.232156,9.23429314 C5.22320661,9.23429314 5.21431125,9.23452261 5.20546985,9.23492756 C5.29619191,8.99591293 5.40015614,8.76208299 5.51690277,8.53440528 C5.75883305,8.58892505 5.97502162,8.71139499 6.14435877,8.88074585 C6.14844874,8.88483583 6.15251174,8.88895282 6.15653424,8.8930968 C6.16055674,8.88895282 6.16461974,8.88483583 6.16870971,8.88074585 C6.4021632,8.64726562 6.724704,8.50284871 7.08092571,8.50284871 C7.43714743,8.50284871 7.75967657,8.64726699 7.993128,8.88074585 C7.99721798,8.88483583 8.00128097,8.88895282 8.00530347,8.8930968 C8.00932598,8.88895282 8.01338897,8.88483583 8.01747895,8.88074585 C8.25095918,8.64726562 8.57348695,8.50284871 8.92969495,8.50284871 C9.28590295,8.50284871 9.60843209,8.64726699 9.84191095,8.88074585 C9.84600093,8.88483583 9.85006392,8.88895282 9.85408642,8.8930968 C9.85810893,8.88895282 9.86217192,8.88483583 9.8662619,8.88074585 C10.0997154,8.64726562 10.4222425,8.50284871 10.7784642,8.50284871 C11.1346722,8.50284871 11.4572013,8.64726699 11.6906802,8.88074585 C11.6947702,8.88483583 11.6988332,8.88895282 11.7028557,8.8930968 C11.7068782,8.88895282 11.7109412,8.88483583 11.7150311,8.88074585 C11.9485114,8.64726562 12.2710391,8.50284871 12.6272471,8.50284871 C12.9834688,8.50284871 13.305998,8.64726699 13.5394494,8.88074585 C13.5435394,8.88483583 13.5476024,8.88895282 13.5516249,8.8930968 C13.5556474,8.88895282 13.5597104,8.88483583 13.5638004,8.88074585 C13.7972806,8.64726562 14.1198084,8.50284871 14.4760164,8.50284871 C14.8322381,8.50284871 15.1547672,8.64726699 15.3882187,8.88074585 C15.3923086,8.88483583 15.3963716,8.88895282 15.4003941,8.8930968 C15.4044166,8.88895282 15.4084796,8.88483583 15.4125696,8.88074585 C15.6460498,8.64726562 15.9685776,8.50284871 16.3247856,8.50284871 C16.6810073,8.50284871 17.0035467,8.64726699 17.2370016,8.88074585 C17.2410916,8.88483583 17.2451546,8.88895282 17.2491771,8.8930968 C17.2531996,8.88895282 17.2572626,8.88483583 17.2613525,8.88074585 C17.430689,8.71139602 17.6468783,8.58892573 17.8888085,8.53440528 C18.0055689,8.76208128 18.109506,8.99592528 18.2002415,9.23492756 C18.1914001,9.23452261 18.1825047,9.23429314 18.1735553,9.23429314 C18.0192562,9.23429314 17.8795622,9.29683097 17.7785016,9.39789257 C17.6774263,9.49896789 17.6149022,9.63864857 17.6149022,9.79296 L16.8834542,9.79296 C16.8834542,9.63866091 16.8209301,9.49895314 16.7198547,9.39789257 C16.6187928,9.29681726 16.4790854,9.23429314 16.3247873,9.23429314 C16.1704745,9.23429314 16.0307942,9.29681726 15.9297199,9.39789257 C15.8286446,9.49896789 15.7661205,9.63864857 15.7661205,9.79296 L15.0346725,9.79296 L15.0346629,9.79296 Z" id="Shape" fill="#66BB6A" fill-rule="nonzero"></path>
                    <path d="M15.0346629,12.2615314 C15.0346629,12.1072186 14.9721387,11.9675383 14.8710634,11.866464 C14.7700015,11.7653887 14.6303074,11.7028646 14.4760097,11.7028646 C14.3216969,11.7028646 14.1820166,11.7653887 14.0809423,11.866464 C13.979867,11.9675393 13.9173429,12.10722 13.9173429,12.2615314 L13.1858949,12.2615314 C13.1858949,12.1072186 13.1233707,11.9675383 13.0222954,11.866464 C12.9212335,11.7653887 12.7815394,11.7028646 12.6272417,11.7028646 C12.4729289,11.7028646 12.3332486,11.7653887 12.2321743,11.866464 C12.131099,11.9675393 12.0685749,12.10722 12.0685749,12.2615314 L11.3371269,12.2615314 C11.3371269,12.1072186 11.2746027,11.9675383 11.1735274,11.866464 C11.0724521,11.7653887 10.9327714,11.7028646 10.77846,11.7028646 C10.6241609,11.7028646 10.4844669,11.7653887 10.3834063,11.866464 C10.282331,11.9675393 10.2198069,12.10722 10.2198069,12.2615314 L9.48835886,12.2615314 C9.48835886,12.1072186 9.42583474,11.9675383 9.32475943,11.866464 C9.22368411,11.7653887 9.08400343,11.7028646 8.929692,11.7028646 C8.7753792,11.7028646 8.63569886,11.7653887 8.53462457,11.866464 C8.43354926,11.9675393 8.37102514,12.10722 8.37102514,12.2615314 L7.63957714,12.2615314 C7.63957714,12.1072186 7.57705303,11.9675383 7.47597771,11.866464 C7.37491577,11.7654021 7.23522171,11.7028646 7.080924,11.7028646 C6.92662491,11.7028646 6.78691714,11.7653887 6.68585657,11.866464 C6.58478126,11.9675393 6.52225714,12.10722 6.52225714,12.2615314 L5.79080914,12.2615314 C5.79080914,12.1072186 5.72828503,11.9675383 5.62720971,11.866464 C5.52614777,11.7654021 5.38645371,11.7028646 5.232156,11.7028646 C5.07785691,11.7028646 4.93814914,11.7653887 4.83708857,11.866464 C4.80763526,11.8959173 4.78146206,11.9286641 4.75914926,11.9640837 C4.75592316,11.8772489 4.75428987,11.7901581 4.75428987,11.7028642 C4.75428987,11.4841241 4.7645891,11.2667054 4.78470158,11.0511648 C4.92411209,10.9996011 5.07484786,10.9714169 5.23215758,10.9714169 C5.58837929,10.9714169 5.91090843,11.1158352 6.14435986,11.3493141 C6.14844984,11.353404 6.15251283,11.357521 6.15653534,11.361665 C6.16055784,11.357521 6.16462083,11.353404 6.16871081,11.3493141 C6.4021643,11.1158338 6.7247051,10.9714169 7.08092681,10.9714169 C7.43714853,10.9714169 7.75967767,11.1158352 7.9931291,11.3493141 C7.99721907,11.353404 8.00128207,11.357521 8.00530457,11.361665 C8.00932707,11.357521 8.01339007,11.353404 8.01748005,11.3493141 C8.25096027,11.1158338 8.57348805,10.9714169 8.92969605,10.9714169 C9.28590405,10.9714169 9.60843319,11.1158352 9.84191205,11.3493141 C9.84600202,11.353404 9.85006502,11.357521 9.85408752,11.361665 C9.85811002,11.357521 9.86217302,11.353404 9.86626299,11.3493141 C10.0997165,11.1158338 10.4222436,10.9714169 10.7784653,10.9714169 C11.1346733,10.9714169 11.4572024,11.1158352 11.6906813,11.3493141 C11.6947713,11.353404 11.6988343,11.357521 11.7028568,11.361665 C11.7068793,11.357521 11.7109423,11.353404 11.7150322,11.3493141 C11.9485125,11.1158338 12.2710402,10.9714169 12.6272482,10.9714169 C12.9834699,10.9714169 13.3059991,11.1158352 13.5394505,11.3493141 C13.5435405,11.353404 13.5476035,11.357521 13.551626,11.361665 C13.5556485,11.357521 13.5597115,11.353404 13.5638015,11.3493141 C13.7972817,11.1158338 14.1198095,10.9714169 14.4760175,10.9714169 C14.8322392,10.9714169 15.1547683,11.1158352 15.3882197,11.3493141 C15.3923097,11.353404 15.3963727,11.357521 15.4003952,11.361665 C15.4044177,11.357521 15.4084807,11.353404 15.4125707,11.3493141 C15.6460509,11.1158338 15.9685787,10.9714169 16.3247867,10.9714169 C16.6810084,10.9714169 17.0035478,11.1158352 17.2370027,11.3493141 C17.2410927,11.353404 17.2451557,11.357521 17.2491782,11.361665 C17.2532007,11.357521 17.2572637,11.353404 17.2613536,11.3493141 C17.4948071,11.1158338 17.8173342,10.9714169 18.1735559,10.9714169 C18.3308653,10.9714169 18.4816011,10.9996014 18.6210119,11.0511648 C18.6411244,11.2667057 18.6514236,11.4841248 18.6514236,11.7028642 C18.6514236,11.7901577 18.6497903,11.8772489 18.6465643,11.9640837 C18.6242516,11.9286641 18.5980784,11.8959171 18.5686249,11.866464 C18.467563,11.7653887 18.3278556,11.7028646 18.1735575,11.7028646 C18.0192584,11.7028646 17.8795644,11.7654024 17.7785038,11.866464 C17.6774285,11.9675393 17.6149044,12.10722 17.6149044,12.2615314 L16.8834564,12.2615314 C16.8834564,12.1072186 16.8209323,11.9675383 16.7198569,11.866464 C16.618795,11.7653887 16.4790876,11.7028646 16.3247895,11.7028646 C16.1704767,11.7028646 16.0307964,11.7653887 15.9297221,11.866464 C15.8286468,11.9675393 15.7661227,12.10722 15.7661227,12.2615314 L15.0346747,12.2615314 L15.0346629,12.2615314 Z" id="Shape" fill="#66BB6A" fill-rule="nonzero"></path>
                    <path d="M15.4003886,14.2383086 C15.3963661,14.2424525 15.3923031,14.2465695 15.3882131,14.2506595 C15.1547596,14.4841397 14.8322325,14.6285567 14.4760108,14.6285567 C14.1198028,14.6285567 13.7972737,14.4841384 13.5637948,14.2506595 C13.5597048,14.2465695 13.5556418,14.2424525 13.5516193,14.2383086 C13.5475968,14.2424525 13.5435338,14.2465695 13.5394439,14.2506595 C13.3059904,14.4841397 12.9834633,14.6285567 12.6272416,14.6285567 C12.2710336,14.6285567 11.9485044,14.4841384 11.7150256,14.2506595 C11.7109356,14.2465695 11.7068726,14.2424525 11.7028501,14.2383086 C11.6988276,14.2424525 11.6947646,14.2465695 11.6906746,14.2506595 C11.4571944,14.4841397 11.1346666,14.6285567 10.7784586,14.6285567 C10.4222369,14.6285567 10.0997078,14.4841384 9.86625634,14.2506595 C9.86216637,14.2465695 9.85810337,14.2424525 9.85408087,14.2383086 C9.85005837,14.2424525 9.84599537,14.2465695 9.84190539,14.2506595 C9.60842517,14.4841397 9.28589739,14.6285567 8.92968939,14.6285567 C8.57348139,14.6285567 8.25095225,14.4841384 8.01747339,14.2506595 C8.01338342,14.2465695 8.00932042,14.2424525 8.00529792,14.2383086 C8.00127542,14.2424525 7.99721242,14.2465695 7.99312245,14.2506595 C7.75966896,14.4841397 7.43714187,14.6285567 7.08092016,14.6285567 C6.72469845,14.6285567 6.40215902,14.4841384 6.16870416,14.2506595 C6.16461418,14.2465695 6.16055119,14.2424525 6.15652869,14.2383086 C6.15250618,14.2424525 6.14844319,14.2465695 6.14435321,14.2506595 C5.94675127,14.4482882 5.68532921,14.5820837 5.39368464,14.6185281 C5.2828499,14.3788655 5.18578361,14.1330492 5.10305253,13.8821155 C5.1444923,13.8919153 5.1877139,13.8971122 5.23215024,13.8971122 C5.38644933,13.8971122 5.52614338,13.8345743 5.62720395,13.7335127 C5.72827927,13.6324374 5.79080338,13.4927567 5.79080338,13.3384453 L6.52225138,13.3384453 C6.52225138,13.4927444 6.5847755,13.6324522 6.68585081,13.7335127 C6.78691275,13.834588 6.92662018,13.8971122 7.08091824,13.8971122 C7.23521733,13.8971122 7.37491138,13.8345743 7.47597195,13.7335127 C7.57704727,13.6324374 7.63957138,13.4927567 7.63957138,13.3384453 L8.37101938,13.3384453 C8.37101938,13.4927581 8.4335435,13.6324384 8.53461881,13.7335127 C8.63569413,13.834588 8.77537481,13.8971122 8.92968624,13.8971122 C9.08399904,13.8971122 9.22367938,13.834588 9.32475367,13.7335127 C9.42582898,13.6324508 9.4883531,13.4927434 9.4883531,13.3384453 L10.2198011,13.3384453 C10.2198011,13.4927581 10.2823252,13.6324384 10.3834005,13.7335127 C10.4844625,13.834588 10.6241565,13.8971122 10.7784542,13.8971122 C10.932767,13.8971122 11.0724474,13.834588 11.1735217,13.7335127 C11.274597,13.6324508 11.3371211,13.4927434 11.3371211,13.3384453 L12.0685691,13.3384453 C12.0685691,13.4927444 12.1310932,13.6324522 12.2321685,13.7335127 C12.3332438,13.834588 12.4729245,13.8971122 12.627236,13.8971122 C12.781535,13.8971122 12.9212291,13.834588 13.0222897,13.7335127 C13.123365,13.6324374 13.1858891,13.4927567 13.1858891,13.3384453 L13.9173371,13.3384453 C13.9173371,13.4927444 13.9798612,13.6324522 14.0809365,13.7335127 C14.1820118,13.834588 14.3216925,13.8971122 14.476004,13.8971122 C14.630303,13.8971122 14.7699971,13.834588 14.8710577,13.7335127 C14.972133,13.6324374 15.0346571,13.4927567 15.0346571,13.3384453 L15.7661051,13.3384453 C15.7661051,13.4927581 15.8286292,13.6324384 15.9297045,13.7335127 C16.0307798,13.834588 16.1704605,13.8971122 16.324772,13.8971122 C16.479071,13.8971122 16.6187788,13.834588 16.7198394,13.7335127 C16.8209147,13.6324508 16.8834388,13.4927434 16.8834388,13.3384453 L17.6148868,13.3384453 C17.6148868,13.4927581 17.6774109,13.6324384 17.7784862,13.7335127 C17.8795482,13.8345747 18.0192422,13.8971122 18.17354,13.8971122 C18.2179763,13.8971122 18.2611979,13.8919153 18.3026377,13.8821155 C18.21992,14.1330492 18.1228266,14.3788538 18.0120056,14.6185281 C17.720361,14.5820827 17.4589393,14.4482875 17.261337,14.2506595 C17.257247,14.2465695 17.253184,14.2424525 17.2491615,14.2383086 C17.245139,14.2424525 17.241076,14.2465695 17.236986,14.2506595 C17.0035325,14.4841397 16.6809917,14.6285567 16.32477,14.6285567 C15.968562,14.6285567 15.6460329,14.4841384 15.412554,14.2506595 C15.4084641,14.2465695 15.4044011,14.2424525 15.4003786,14.2383086 L15.4003886,14.2383086 Z" id="Shape" fill="#66BB6A" fill-rule="nonzero"></path>
                    <path d="M13.3145486,5.52514286 C13.7184583,5.52514286 14.0841806,5.68889074 14.3489246,5.953632 C14.6136669,6.21837429 14.7774137,6.58409829 14.7774137,6.988008 C14.7774137,7.39191771 14.6136658,7.75764 14.3489246,8.022384 C14.0841823,8.28711291 13.7184583,8.45087314 13.3145486,8.45087314 C12.9106389,8.45087314 12.5449166,8.28711154 12.2801726,8.022384 C12.0154437,7.75764171 11.8516834,7.39191771 11.8516834,6.988008 C11.8516834,6.58409829 12.015445,6.218376 12.2801726,5.953632 C12.5449149,5.68888971 12.9106389,5.52514286 13.3145486,5.52514286 Z M13.831776,6.47078057 C13.6994386,6.3384432 13.5165501,6.25658949 13.3145486,6.25658949 C13.1125464,6.25658949 12.9296571,6.3384432 12.7973211,6.47078057 C12.6649971,6.60311794 12.5831301,6.78600651 12.5831301,6.988008 C12.5831301,7.19001017 12.6649975,7.37289943 12.7973211,7.50523543 C12.9296585,7.63755943 13.1125471,7.71942651 13.3145486,7.71942651 C13.5165507,7.71942651 13.69944,7.63755909 13.831776,7.50523543 C13.9641134,7.37289806 14.0459671,7.19000949 14.0459671,6.988008 C14.0459671,6.78600583 13.9641134,6.60311657 13.831776,6.47078057 Z" id="Shape" fill="#212121" fill-rule="nonzero"></path>
                    <path d="M9.46213714,14.7085714 C9.86604686,14.7085714 10.2317691,14.872333 10.4965131,15.1370606 C10.7612421,15.4018029 10.9250023,15.7675269 10.9250023,16.1714366 C10.9250023,16.5753463 10.7612407,16.9410686 10.4965131,17.2058126 C10.2317709,17.4705549 9.86604686,17.6343017 9.46213714,17.6343017 C9.05822743,17.6343017 8.69250514,17.4705538 8.42776114,17.2058126 C8.16301886,16.9410703 7.999272,16.5753463 7.999272,16.1714366 C7.999272,15.7675269 8.16301989,15.4018046 8.42776114,15.1370606 C8.69250343,14.8723317 9.05822743,14.7085714 9.46213714,14.7085714 Z M9.97936457,15.6542091 C9.8470272,15.5218851 9.66413863,15.4400181 9.46213714,15.4400181 C9.26013497,15.4400181 9.07724571,15.5218855 8.94490971,15.6542091 C8.81257234,15.7865465 8.73071863,15.9694351 8.73071863,16.1714366 C8.73071863,16.3734387 8.81257234,16.556328 8.94490971,16.688664 C9.07724709,16.8210014 9.26013566,16.9028551 9.46213714,16.9028551 C9.66413931,16.9028551 9.84702857,16.8210014 9.97936457,16.688664 C10.1116886,16.5563266 10.1935557,16.3734381 10.1935557,16.1714366 C10.1935557,15.9694344 10.1116882,15.7865451 9.97936457,15.6542091 Z" id="Shape" fill="#212121" fill-rule="nonzero"></path>
                </g>
            </g>
        </g>
    </g>
</svg>