<?xml version="1.0" encoding="UTF-8"?>
<svg width="24px" height="24px" viewBox="0 0 24 24" version="1.1" xmlns="http://www.w3.org/2000/svg" xmlns:xlink="http://www.w3.org/1999/xlink">
    <!-- Generator: Sketch 49.2 (51160) - http://www.bohemiancoding.com/sketch -->
    <title>planet</title>
    <desc>Created with Sketch.</desc>
    <defs></defs>
    <g id="planet" stroke="none" stroke-width="1" fill="none" fill-rule="evenodd">
        <g id="Group">
            <g id="Layer_x0020_1">
                <g>
                    <g id="_344538144">
                        <rect id="_344538288" x="0" y="0" width="23.4056914" height="23.4056914"></rect>
                        <rect id="_344538240" x="2.92570629" y="2.92570629" width="17.5542857" height="17.5542857"></rect>
                    </g>
                    <path d="M11.7685029,5.70857143 C13.4237349,5.70857143 14.9223017,6.37951886 16.00704,7.46428457 C16.8291154,8.28634629 17.4134023,9.34611086 17.6482457,10.53156 C17.429195,10.6629525 17.2032857,10.7897287 16.9722651,10.9122 C16.800985,9.77535771 16.2661543,8.75767886 15.4898949,7.98143314 C14.5375474,7.029072 13.2218263,6.44001943 11.7684891,6.44001943 C10.3151657,6.44001943 8.99944457,7.029072 8.04708343,7.98143314 C7.09474971,8.93376686 6.50568343,10.2495154 6.50568343,11.7028389 C6.50568343,12.4637931 6.66724457,13.1870194 6.95785029,13.8401074 C6.70228663,13.8602874 6.448776,13.8741232 6.198624,13.8804 L6.18230455,13.8807915 C5.91887163,13.2056989 5.77423598,12.471148 5.77423598,11.7028395 C5.77423598,10.0476349 6.44519712,8.54902688 7.52993541,7.46430231 C8.61470112,6.37953659 10.1132817,5.70858916 11.7684725,5.70858916 L11.7685029,5.70857143 Z M17.7459751,12.1546629 C17.6359992,13.6297851 16.9922091,14.9562377 16.007064,15.9413829 C14.922312,17.0261486 13.4237417,17.697096 11.7685269,17.697096 C10.1133223,17.697096 8.61474171,17.0261486 7.52998971,15.9413829 C7.3309032,15.7422963 7.14581486,15.5292103 6.97619314,15.3038297 C7.21844743,15.2864034 7.45935086,15.2638207 7.69850057,15.236905 C7.74998297,15.2311142 7.80137109,15.225121 7.85267829,15.2189658 C7.91568857,15.2890897 7.98049371,15.3575936 8.04713486,15.4242347 C8.999496,16.3765958 10.3152171,16.9656484 11.7685406,16.9656484 C13.2218777,16.9656484 14.5375989,16.3765958 15.4899463,15.4242347 C16.2526149,14.6615661 16.7822194,13.665837 16.9629634,12.5530496 C17.0296721,12.5209371 17.0964213,12.4883925 17.1632242,12.4553891 C17.3583559,12.3589708 17.5527854,12.2588538 17.7459751,12.1546629 Z" id="Shape" fill="#212121" fill-rule="nonzero"></path>
                    <path d="M16.6522971,7.62870857 C17.5625554,7.56224297 18.3276411,7.58211223 18.9189051,7.68959931 C19.7626457,7.84298057 20.2912937,8.18518903 20.441784,8.72120846 C20.6651136,9.5167056 19.8175269,10.4959399 18.2666537,11.4360302 C16.8361029,12.3032016 14.7788709,13.1840736 12.4341737,13.8730965 C12.2925223,13.9147251 12.1617237,13.9523719 12.0415611,13.9861042 C9.78371314,14.6200265 7.68124114,14.9533797 6.09418971,14.9771362 C4.36779771,15.002972 3.19501029,14.6339568 2.96742857,13.8595419 L2.96599775,13.8566803 L2.96389201,13.8493372 L2.96389201,13.8479199 C2.82549396,13.3549085 3.07388984,12.8105885 3.63309773,12.2569805 C4.06073659,11.8336479 4.68190459,11.3880399 5.45335716,10.9465119 C5.42370135,11.1960012 5.40852927,11.4484616 5.40852927,11.7028479 C5.40852927,11.742776 5.40889372,11.7826904 5.40963613,11.8225644 C4.88088185,12.1500063 4.45321213,12.4713735 4.14738356,12.7741266 C3.78391385,13.1339381 3.60774699,13.4366775 3.66639956,13.6494375 L3.66675052,13.649343 L3.66885625,13.6566861 L3.66839731,13.6568211 C3.79517354,14.0743525 4.70489217,14.2692119 6.08560874,14.2485479 C7.6090156,14.2257493 9.64388303,13.9010622 11.8444087,13.2832439 C11.9820916,13.2445847 12.1102715,13.2078287 12.2284636,13.1730976 C14.5159962,12.5008816 16.5118807,11.6482474 17.889515,10.8131605 C19.1468545,10.0510062 19.8626853,9.35916164 19.738931,8.9183605 C19.6713045,8.6774965 19.3410419,8.50683593 18.7903242,8.40673536 C18.3575699,8.32806713 17.8098076,8.30275776 17.1613345,8.33014587 C17.0081421,8.08562393 16.8381172,7.85123959 16.6522979,7.62870473 L16.6522971,7.62870857 Z" id="Shape" fill="#66BB6A" fill-rule="nonzero"></path>
                </g>
            </g>
        </g>
    </g>
</svg>