<?xml version="1.0" encoding="UTF-8"?>
<svg width="24px" height="24px" viewBox="0 0 24 24" version="1.1" xmlns="http://www.w3.org/2000/svg" xmlns:xlink="http://www.w3.org/1999/xlink">
    <!-- Generator: Sketch 49.2 (51160) - http://www.bohemiancoding.com/sketch -->
    <title>planets-orbitting</title>
    <desc>Created with Sketch.</desc>
    <defs></defs>
    <g id="planets-orbitting" stroke="none" stroke-width="1" fill="none" fill-rule="evenodd">
        <g id="Group">
            <g id="Layer_x0020_1">
                <g>
                    <g id="_350182784">
                        <rect id="_350179280" x="0" y="0" width="23.4056914" height="23.4056914"></rect>
                        <rect id="_350184320" x="2.92570629" y="2.92570629" width="17.5542857" height="17.5542857"></rect>
                    </g>
                    <path d="M11.2250057,3.19220229 C10.941217,3.20193456 10.7759829,3.51568937 10.9287987,3.75533829 C10.9994894,3.86416183 11.1183422,3.92698286 11.2481959,3.92327074 L11.294279,3.92194791 L11.3452622,3.92082755 L11.3963263,3.92000415 L11.4474984,3.91953171 L11.4987381,3.91936973 L11.5288798,3.91941023 L11.558927,3.9195857 L11.5890148,3.91986917 L11.6190755,3.92026062 L11.6490283,3.92076006 L11.6790215,3.92138098 L11.7089878,3.92209639 L11.7389405,3.92293328 L11.7688393,3.92387816 L11.7987111,3.92494453 L11.8285558,3.92610539 L11.8582791,3.92737423 L11.8881509,3.92877805 L11.9178877,3.93026287 L11.9475165,3.93186917 L11.9772802,3.93359695 L12.006936,3.93540573 L12.0365648,3.93734948 L12.0662206,3.93938773 L12.0957684,3.94153396 L12.1252893,3.94378818 L12.1547696,3.94615038 L12.1842229,3.94862057 L12.1979507,3.94982192 C12.4865178,3.97290402 12.6862238,3.67282318 12.5530787,3.41541049 C12.4934432,3.30387392 12.3866174,3.23260283 12.2605297,3.22107529 L12.2468019,3.21987394 L12.2145949,3.21716078 L12.1823609,3.2145826 L12.1500865,3.21211241 L12.117785,3.2097772 L12.0855375,3.20754998 L12.0531821,3.20544425 L12.0207996,3.2034465 L11.9884712,3.20158373 L11.9559538,3.19981545 L11.9234633,3.19819565 L11.8910539,3.19668384 L11.8584419,3.19528002 L11.8258975,3.19401117 L11.7933261,3.19286382 L11.7607006,3.19183794 L11.7280752,3.19092006 L11.6954093,3.19012366 L11.6627164,3.18944874 L11.629929,3.18889531 L11.5971956,3.18847687 L11.5644352,3.1881664 L11.5315533,3.18799093 L11.4987389,3.18792344 L11.442883,3.18811241 L11.3870943,3.18863884 L11.3313869,3.18951624 L11.2757604,3.19074458 L11.2250069,3.1922024 L11.2250057,3.19220229 Z M9.18644914,4.26238971 C9.44585966,4.18006354 9.52913074,3.858912 9.34242206,3.66063429 C9.24549051,3.56030126 9.10273269,3.52239806 8.96915349,3.56398629 L8.92778126,3.5767152 L8.87712206,3.59264321 L8.82651703,3.60888168 L8.77606046,3.62544411 L8.7257928,3.64229002 L8.67559269,3.65944639 L8.62559486,3.67688619 L8.57569166,3.69462298 L8.52589646,3.71269721 L8.47633063,3.73101442 L8.42691326,3.74962858 L8.3775768,3.76855323 L8.32841589,3.78777483 L8.27937669,3.80727991 L8.25032832,3.81905043 C7.98527541,3.92867009 7.94201335,4.28501386 8.17444066,4.45405272 C8.27787826,4.52794255 8.40906843,4.54418095 8.52701781,4.49612712 L8.55185469,4.48605737 L8.59668257,4.46822609 L8.641686,4.4506513 L8.68678371,4.43334648 L8.73207069,4.41629811 L8.77747903,4.39949273 L8.82292783,4.38301128 L8.86856554,4.36678632 L8.91435171,4.35080431 L8.96020543,4.33513275 L9.00626177,4.31971769 L9.05237194,4.30458607 L9.09863057,4.28972441 L9.14507811,4.27511925 L9.18645034,4.26239033 L9.18644914,4.26238971 Z M6.71058857,5.53149943 C6.9292344,5.3631888 6.89048057,5.02287086 6.63919611,4.90818857 C6.51501154,4.85272389 6.37383291,4.86847646 6.26552297,4.9510728 L6.24262982,4.96851261 L6.20152742,5.00020663 L6.16061393,5.03217062 L6.11988936,5.06436408 L6.07934033,5.09682751 L6.03904776,5.12947992 L5.99891736,5.16238882 L5.9589625,5.19556769 L5.91927747,5.22892203 L5.87975427,5.26253283 L5.84042033,5.29640009 L5.80128867,5.33051033 L5.76242719,5.36479605 L5.72375462,5.39931113 L5.68528433,5.4340693 L5.67865666,5.44013006 C5.58821781,5.52356297 5.54610329,5.64476434 5.56497381,5.76628971 C5.61155643,6.0547488 5.95845038,6.175476 6.17385723,5.97844286 L6.17719132,5.97537874 L6.21244903,5.94353623 L6.24790903,5.91188269 L6.28355795,5.88043162 L6.31934195,5.849237 L6.35532857,5.81825839 L6.39150412,5.78748223 L6.4279224,5.75688154 L6.46444869,5.72653735 L6.50120469,5.69640912 L6.5381496,5.66645636 L6.57524297,5.63677357 L6.61253897,5.60727977 L6.65002389,5.57801544 L6.68769772,5.54894009 L6.71059087,5.53150028 L6.71058857,5.53149943 Z M4.82492914,7.57753371 C4.96400229,7.35621531 4.83520135,7.067256 4.57793691,7.02148457 C4.43127771,6.99718762 4.28668389,7.06069714 4.20681463,7.18646091 L4.1870531,7.21750704 L4.15934105,7.26159264 L4.1318315,7.30594807 L4.1046324,7.35043858 L4.07767629,7.39507755 L4.05100361,7.43991881 L4.02458743,7.48489515 L3.9984277,7.53007413 L3.97252443,7.57544201 L3.94691815,7.62093127 L3.92154134,7.66660944 L3.89643449,7.71251733 L3.87162459,7.7585195 L3.84705768,7.80473767 L3.8253119,7.84625835 C3.72086184,8.04993435 3.82280121,8.29503778 4.04117681,8.36421607 C4.2107831,8.41656247 4.39205338,8.34099898 4.47428424,8.18363561 L4.49397826,8.14602933 L4.51643945,8.10377973 L4.53917061,8.06163813 L4.56211773,8.01969881 L4.58533481,7.97788087 L4.60880839,7.93617093 L4.63249793,7.8946907 L4.65644393,7.85334521 L4.68064642,7.81212144 L4.70507835,7.77108658 L4.72973976,7.73020018 L4.75464415,7.68948933 L4.77975099,7.64899447 L4.80516833,7.60858053 L4.82492986,7.5775344 L4.82492914,7.57753371 Z M3.76400229,10.148016 C3.82138354,9.87385166 3.56340377,9.64023771 3.29569029,9.723792 C3.16892777,9.7646784 3.07651817,9.8667528 3.04834731,9.99694389 L3.03930343,10.0391667 L3.0283428,10.0918776 L3.01770614,10.1446965 L3.00739344,10.1976504 L2.9973912,10.2507123 L2.9877264,10.3038957 L2.97837206,10.357187 L2.96935519,10.4106134 L2.96067576,10.4641073 L2.95230682,10.5176822 L2.94426182,10.5714326 L2.93655429,10.6252639 L2.92917072,10.6792303 L2.9221381,10.7332639 L2.92014035,10.7494079 C2.89877254,10.9353067 3.01624835,11.1043336 3.19796264,11.1489427 C3.41193772,11.1992104 3.61874435,11.054981 3.64629635,10.8371183 L3.64775417,10.8254287 L3.65419286,10.7759575 L3.66092853,10.7266348 L3.66798816,10.6773659 L3.67533123,10.6282049 L3.68299827,10.5791116 L3.69094879,10.5301262 L3.69920976,10.4812893 L3.70775421,10.4325065 L3.71660911,10.3838585 L3.72574745,10.3353052 L3.73519629,10.2868598 L3.74494207,10.2384953 L3.75495782,10.1902389 L3.7640017,10.148016 L3.76400229,10.148016 Z M3.65947131,12.9305726 C3.62106857,12.6648312 3.32181086,12.528552 3.09643131,12.6755355 C2.97802423,12.7541767 2.91564857,12.890928 2.93509954,13.0319458 L2.93655736,13.04265 L2.94426489,13.0964813 L2.95229639,13.150218 L2.96066533,13.2038199 L2.96935823,13.2573139 L2.9783751,13.3107403 L2.98772944,13.3640182 L2.99739424,13.4172015 L3.00739648,13.4702635 L3.01770918,13.5232174 L3.02834584,13.5760363 L3.03930647,13.6287471 L3.05059106,13.6813771 L3.06218612,13.7338586 L3.07329524,13.7826413 C3.14044929,14.0697235 3.50063924,14.1641727 3.70006209,13.9466189 C3.78124106,13.8573142 3.81280004,13.7356942 3.78597901,13.618097 L3.77589578,13.5737954 L3.7652726,13.5257683 L3.7549599,13.4776737 L3.74494415,13.4294172 L3.73519837,13.3810527 L3.72574953,13.3326074 L3.71661119,13.284054 L3.70775629,13.235406 L3.69921184,13.1866366 L3.69095087,13.1377997 L3.68301386,13.0888143 L3.67534682,13.039721 L3.66799024,12.9905467 L3.66093061,12.9412778 L3.65947279,12.9305736 L3.65947131,12.9305726 Z M4.52144503,15.5734217 C4.38361371,15.3207199 4.02223817,15.3185331 3.88086789,15.5694532 C3.81961269,15.6803418 3.81857314,15.8109786 3.87873515,15.9225961 L3.89644492,15.9554375 L3.9215383,16.0013049 L3.94690163,16.0469697 L3.97252143,16.092486 L3.9984247,16.1378539 L4.02458442,16.1830329 L4.0510006,16.2280092 L4.07767328,16.2728505 L4.1046429,16.3175165 L4.131842,16.36198 L4.15932457,16.4062949 L4.18703662,16.4503939 L4.21501863,16.4943578 L4.2432706,16.5381057 L4.26884991,16.5772236 C4.42925048,16.8186544 4.79167962,16.7886479 4.90927619,16.5231492 C4.95901756,16.408373 4.94827276,16.2798962 4.87983639,16.1751081 L4.85663278,16.1396344 L4.83078351,16.0995849 L4.80517722,16.0593736 L4.77975988,16.0189463 L4.75462602,15.9784109 L4.72972163,15.9377001 L4.7050737,15.8968408 L4.68064177,15.8558059 L4.65643928,15.8145821 L4.63249328,15.7732367 L4.60880374,15.7317564 L4.58534367,15.6900736 L4.56211307,15.6482152 L4.53915244,15.6062625 L4.52144267,15.5734211 L4.52144503,15.5734217 Z M6.24732617,17.7555326 C6.14911234,17.6699667 6.01797634,17.6434426 5.8939536,17.6823987 C5.62344754,17.7714065 5.55208183,18.1168673 5.76511234,18.3055073 L5.80131497,18.3374443 L5.84044663,18.3715411 L5.87972674,18.4053543 L5.91923623,18.4389786 L5.9589888,18.4723869 L5.99891691,18.5055253 L6.03902057,18.5384207 L6.07933989,18.5711001 L6.11988891,18.6035635 L6.16061349,18.635757 L6.20152697,18.667721 L6.24262937,18.699415 L6.28396114,18.7309201 L6.32546846,18.7621417 L6.35675753,18.7854128 C6.57879113,18.9491744 6.89548896,18.8173228 6.93594267,18.5442385 C6.9557987,18.4102406 6.89968622,18.2777682 6.79129467,18.1970476 L6.76351515,18.1763952 L6.72549024,18.1477923 L6.68769504,18.1189869 L6.65002121,18.0899115 L6.6125363,18.0606472 L6.5752403,18.0311534 L6.53814693,18.0014706 L6.5012291,17.9715448 L6.46444635,17.9413761 L6.42789298,17.9110184 L6.3915419,17.8804717 L6.35535298,17.8496821 L6.31931253,17.8186495 L6.28352853,17.7874684 L6.2473259,17.7555314 L6.24732617,17.7555326 Z M8.62062789,19.2090583 C8.46337269,19.1486534 8.28770537,19.2017557 8.18995131,19.3388177 C8.05328091,19.5352721 8.13366343,19.80366 8.35652057,19.8911537 L8.37757793,19.8993742 L8.42691439,19.9182988 L8.47633176,19.936913 L8.52589759,19.9552302 L8.57569279,19.9733044 L8.62559599,19.9910412 L8.67559382,20.008481 L8.72579393,20.0256374 L8.77606159,20.0424833 L8.82651816,20.0590457 L8.87712319,20.0752842 L8.92778239,20.0912122 L8.97867096,20.1068838 L9.02964045,20.1222044 L9.07870673,20.1366611 C9.36244125,20.217732 9.62010902,19.9503302 9.52775359,19.6696451 C9.48914856,19.5553142 9.39893907,19.4681421 9.28296182,19.4343155 L9.23818776,19.4211276 L9.19153759,19.4071029 L9.14507633,19.3928081 L9.09862879,19.378203 L9.05237016,19.3633413 L9.00625999,19.3482097 L8.96020365,19.3327946 L8.91434993,19.3171231 L8.86856376,19.3011411 L8.82292605,19.2849161 L8.77747725,19.2684347 L8.7320689,19.2516293 L8.68678193,19.2345809 L8.64168422,19.2172761 L8.62062686,19.2090556 L8.62062789,19.2090583 Z M11.3487045,19.7471691 C11.0708146,19.743997 10.890949,20.0394213 11.0213839,20.2850503 C11.0855818,20.4035654 11.2045965,20.4762267 11.3394717,20.4785352 L11.3870938,20.4792911 L11.4428825,20.4798175 L11.4987384,20.4800065 L11.5545943,20.4798175 L11.610383,20.4792911 L11.6660904,20.4784137 L11.7217169,20.4771854 L11.7772759,20.4755926 L11.8327135,20.4736623 L11.8880565,20.4713811 L11.9433319,20.4687624 L11.9985669,20.4657793 L12.0536805,20.4624587 L12.1005062,20.4593406 C12.3425849,20.4413609 12.4996776,20.2016173 12.4198491,19.9722812 C12.3649245,19.8173204 12.2135678,19.7184318 12.0496183,19.7296761 L12.007355,19.7324973 L11.9568847,19.7355479 L11.9063469,19.7382611 L11.8556877,19.7406638 L11.8049342,19.742756 L11.7540861,19.7445243 L11.7031975,19.7459821 L11.6522143,19.7471025 L11.6011502,19.7479259 L11.5499781,19.7483983 L11.4987384,19.7485603 L11.4474987,19.7483983 L11.3963266,19.7479259 L11.3487045,19.74717 L11.3487045,19.7471691 Z M14.0972187,19.3122 C13.8598375,19.3970774 13.7765527,19.6861989 13.9322558,19.8846377 C14.0299296,20.0067298 14.1925032,20.0540009 14.3402146,20.0020731 L14.3718952,19.9910315 L14.4217713,19.9733083 L14.4715665,19.9552475 L14.5211457,19.9369168 L14.5705631,19.9183026 L14.6199129,19.8993645 L14.6690738,19.8801564 L14.7180725,19.8606648 L14.7669904,19.8408493 L14.8157193,19.8207638 L14.8642727,19.8003949 L14.9126776,19.7797559 L14.9609474,19.75882 L15.0091092,19.7375737 L15.0486996,19.7197964 C15.2853249,19.6111621 15.3379415,19.3014559 15.1496399,19.121065 C15.0410323,19.0188017 14.883426,18.992102 14.7473107,19.0533576 L14.7118236,19.0692721 L14.6678193,19.0886827 L14.6236528,19.1078367 L14.5793512,19.1267479 L14.5348744,19.1453891 L14.4903029,19.1637737 L14.4456235,19.1818615 L14.4007552,19.1997062 L14.3557788,19.2172945 L14.3106945,19.2345859 L14.2654075,19.2516343 L14.2200125,19.2684262 L14.1745367,19.2849211 L14.1288989,19.3011596 L14.0972184,19.3122012 L14.0972187,19.3122 Z M16.5232827,17.9493566 C16.3992199,18.0522813 16.3564166,18.2229672 16.4183335,18.3719486 C16.5139824,18.5985717 16.7986615,18.6698698 16.9888683,18.5134783 L16.9985736,18.5055143 L17.0384747,18.4723894 L17.0782272,18.4389811 L17.1177367,18.4053568 L17.1570168,18.3715436 L17.1961214,18.3374738 L17.2350504,18.3031343 L17.273723,18.2685921 L17.3121796,18.233861 L17.3504877,18.1988464 L17.3885393,18.1636157 L17.4263616,18.1282096 L17.4640221,18.0925202 L17.5014528,18.0566148 L17.5386408,18.0205202 L17.5568636,18.0026215 C17.7232844,17.8362007 17.6948162,17.5625883 17.4970929,17.43449 C17.3525666,17.3422426 17.164913,17.3621527 17.0427112,17.4823954 L17.0276471,17.4971895 L16.9935639,17.5302604 L16.9592917,17.5631423 L16.9248441,17.5957812 L16.8901535,17.6282717 L16.8552873,17.6605327 L16.8202727,17.6925506 L16.7850016,17.7244202 L16.7495687,17.7560467 L16.7139602,17.7874438 L16.6781492,17.8186519 L16.6421087,17.8496845 L16.6059198,17.8804741 L16.5695687,17.9110208 L16.5329882,17.941392 L16.5232829,17.949356 L16.5232827,17.9493566 Z M18.3299513,15.8334411 C18.19374,16.0687166 18.3501313,16.362792 18.6212181,16.3826331 C18.7612766,16.3912316 18.8905094,16.3228625 18.9618075,16.2018909 L18.9728762,16.1830337 L18.9990359,16.1378547 L19.0249392,16.0924869 L19.050559,16.0469705 L19.0759223,16.0013057 L19.1010157,15.9554383 L19.1258525,15.9093957 L19.1504195,15.8631638 L19.1746624,15.816851 L19.1987029,15.7703088 L19.2224195,15.7236048 L19.2458795,15.6768062 L19.2690831,15.6297377 L19.2919898,15.5825613 L19.314613,15.5352363 L19.3189864,15.5259495 C19.4292136,15.2891083 19.2639133,15.0183872 19.003396,15.0057529 C18.8544692,15.0002996 18.7198775,15.081546 18.6562189,15.2165155 L18.6537622,15.2217528 L18.6330558,15.2650824 L18.6120929,15.3082365 L18.590887,15.3512287 L18.5693977,15.3941397 L18.5476789,15.4368754 L18.5257172,15.4794219 L18.5034719,15.5219013 L18.4810108,15.5641646 L18.4583066,15.6062657 L18.435346,15.6482184 L18.4121154,15.6900768 L18.3886553,15.7317597 L18.3649658,15.7732399 L18.3410198,15.8145854 L18.3299511,15.8334425 L18.3299513,15.8334411 Z M19.2915833,13.2247166 C19.2689871,13.3595513 19.3203347,13.4908358 19.4273897,13.5754834 C19.6455898,13.7446306 19.9652983,13.6205949 20.0124206,13.3488199 L20.0190887,13.3107411 L20.0281056,13.2573147 L20.0367985,13.2038208 L20.0451674,13.1502189 L20.0531989,13.0964822 L20.0609065,13.0426509 L20.06829,12.9886845 L20.0753091,12.9346509 L20.0820178,12.8805765 L20.0884025,12.8263131 L20.0944362,12.7719555 L20.100146,12.7175575 L20.1055183,12.6629702 L20.1105262,12.6083424 L20.1119435,12.591888 C20.135606,12.2960588 19.8169784,12.096528 19.5609687,12.2472205 C19.458368,12.3084757 19.3931847,12.4127098 19.3829799,12.531792 L19.3819675,12.543657 L19.3773646,12.5936953 L19.3724512,12.6435851 L19.3672273,12.6934749 L19.3617065,12.7432163 L19.3558618,12.792863 L19.34972,12.8424827 L19.3432678,12.8919539 L19.3365322,12.9412766 L19.3294725,12.9905456 L19.3221159,13.0397198 L19.3144489,13.0888132 L19.3065119,13.1377986 L19.2982509,13.1866355 L19.2915828,13.2247142 L19.2915833,13.2247166 Z M19.2908814,10.4401886 C19.3424451,10.7262854 19.690406,10.8410469 19.9022745,10.6416507 C19.9923081,10.5554235 20.0322496,10.4346542 20.0109359,10.3117385 C19.9665534,10.0614799 19.910738,9.81174651 19.8439484,9.56651109 C19.7967582,9.39315223 19.6308507,9.27973954 19.4522272,9.29875851 C19.2273723,9.32404087 19.0799564,9.53985189 19.1381485,9.75840309 C19.1987828,9.98375726 19.2501304,10.2103814 19.2908817,10.4401882 L19.2908814,10.4401886 Z M17.6778448,8.758152 C17.8594107,8.98264251 18.2169397,8.9184984 18.3093774,8.64475269 C18.3486575,8.52536023 18.3260613,8.39722046 18.2472582,8.29907383 C18.137031,8.16330789 18.0699308,8.00089611 18.0530444,7.82675383 C18.0245764,7.53533863 17.6834615,7.3936464 17.4565929,7.57910023 C17.3621588,7.65703954 17.3137134,7.77447497 17.3249169,7.896324 C17.3566785,8.21389886 17.4764896,8.51012057 17.6778438,8.75815029 L17.6778448,8.758152 Z M17.1482643,6.29178171 C17.3553688,6.50057349 17.7096997,6.39432823 17.7677831,6.1057344 C17.7901363,5.98577486 17.7554456,5.86599086 17.6695155,5.77865691 L17.6595942,5.76854667 L17.6381454,5.74685489 L17.6166831,5.72527107 L17.5951263,5.70375477 L17.573502,5.68230593 L17.5517562,5.6609111 L17.5299564,5.63959725 L17.5081026,5.61839139 L17.4861409,5.59722603 L17.4641251,5.57616867 L17.4421094,5.55523279 L17.4198776,5.5342429 L17.3976189,5.51340151 L17.3753602,5.49268159 L17.3529665,5.47197518 L17.3304783,5.45134975 L17.3079631,5.43084583 L17.2853804,5.41040938 L17.2627302,5.39005392 L17.2399586,5.36973895 L17.2171194,5.34950499 L17.1942398,5.32939251 L17.1712522,5.30930702 L17.1482376,5.28937001 L17.1251689,5.26948701 L17.1116031,5.25789195 C17.0078686,5.17040955 16.8695244,5.14690875 16.7426957,5.19498967 C16.4841221,5.29638898 16.4265248,5.6340491 16.6371927,5.81461481 L16.6488418,5.82456305 L16.6700206,5.84279928 L16.6911455,5.86111649 L16.7121354,5.87944721 L16.7331253,5.89791291 L16.7539937,5.91639209 L16.7747946,5.93495229 L16.795582,5.95363395 L16.8163019,5.97236962 L16.8369543,5.99119978 L16.8574987,6.01004342 L16.8779757,6.02896807 L16.8984796,6.04804118 L16.9188216,6.06710081 L16.9390555,6.08620094 L16.9593435,6.10549001 L16.9795234,6.12479259 L16.9995954,6.14414918 L17.0196404,6.16360025 L17.0395774,6.18307831 L17.0594335,6.20263735 L17.079276,6.22230439 L17.099051,6.24203894 L17.1187586,6.26184096 L17.1383446,6.28166997 L17.1482659,6.29178021 L17.1482643,6.29178171 Z M14.8825065,4.67726057 C15.1284188,4.7917128 15.4057545,4.61263063 15.4040951,4.34120674 C15.4015169,4.20059486 15.3212694,4.075884 15.1941558,4.01554629 L15.1774989,4.00766328 L15.1495574,3.99456991 L15.1215753,3.98157103 L15.0935528,3.96868015 L15.0654089,3.95584327 L15.0372649,3.94315485 L15.0090669,3.93053393 L14.9808284,3.91803449 L14.9524955,3.90560256 L14.9241085,3.8932921 L14.8957351,3.88108961 L14.8672131,3.86894112 L14.8387047,3.85694112 L14.8101423,3.8450221 L14.7815124,3.83319758 L14.752842,3.82148105 L14.7240636,3.809832 L14.6952716,3.79831793 L14.6664663,3.78689835 L14.6375934,3.77558678 L14.6086935,3.76438317 L14.5796586,3.75323355 L14.5506508,3.74223243 L14.5216024,3.73132581 L14.4924326,3.72048665 L14.4896789,3.71947428 C14.2183493,3.62080171 13.9451703,3.86045062 14.0072755,4.14256685 C14.0349335,4.26550959 14.1209854,4.36273771 14.2389067,4.40659393 L14.2390956,4.40666143 L14.2657008,4.41652868 L14.2923465,4.42654443 L14.3189247,4.43662765 L14.3453948,4.44677839 L14.371892,4.4570641 L14.3983352,4.4674308 L14.4247379,4.47787848 L14.4510731,4.48842065 L14.4772869,4.49901682 L14.5035546,4.50976148 L14.5297278,4.52056015 L14.5558876,4.53148028 L14.5819933,4.5424814 L14.6080045,4.55355003 L14.6340563,4.56475364 L14.6599865,4.57601122 L14.6858628,4.58736329 L14.7117256,4.59880985 L14.7375478,4.6103509 L14.7633161,4.62198644 L14.7890034,4.63368949 L14.8146772,4.64550051 L14.8402835,4.65739251 L14.8658493,4.669379 L14.8825062,4.67726201 L14.8825065,4.67726057 Z" id="Shape" fill="#212121" fill-rule="nonzero"></path>
                    <path d="M7.07746286,11.8339543 L7.74705943,12.1687529 L7.74705943,11.4991563 L7.07746286,11.833955 L7.07746286,11.8339543 Z M7.84850057,12.626616 L6.58891886,11.9968114 L6.26321794,11.8339543 L6.58891886,11.6710971 L7.84850057,11.0412926 L8.11278411,10.9091575 L8.11278411,11.2041497 L8.11278411,12.4637589 L8.11278411,12.7587511 L7.84850057,12.626616 Z" id="Shape" fill="#66BB6A" fill-rule="nonzero"></path>
                    <path d="M11.4987429,8.71206857 C12.3607851,8.71206857 13.1412857,9.061512 13.7062286,9.62645829 C14.2711749,10.1914046 14.6206183,10.9719017 14.6206183,11.833944 C14.6206183,12.6959863 14.2711749,13.4764731 13.7062286,14.0414297 C13.1412823,14.606376 12.3607851,14.9558331 11.4987429,14.9558331 C10.6367006,14.9558331 9.8562,14.606376 9.29125714,14.0414297 C8.72631086,13.4764834 8.37685371,12.6959863 8.37685371,11.833944 C8.37685371,10.9719017 8.72631086,10.1914011 9.29125714,9.62645829 C9.85621714,9.061512 10.6367006,8.71206857 11.4987429,8.71206857 Z M13.447656,9.88503086 C12.9489051,9.38628 12.2598446,9.07779086 11.4987429,9.07779086 C10.7376411,9.07779086 10.0485771,9.38629474 9.54982971,9.88503086 C9.05107886,10.3837817 8.742576,11.0728423 8.742576,11.833944 C8.742576,12.5950457 9.05107989,13.2841097 9.54982971,13.7828571 C10.0485806,14.281608 10.7376411,14.5901109 11.4987429,14.5901109 C12.2598446,14.5901109 12.9489086,14.281607 13.447656,13.7828571 C13.9463931,13.2841063 14.254896,12.5950457 14.254896,11.833944 C14.254896,11.0728423 13.9464055,10.3837783 13.447656,9.88503086 Z" id="Shape" fill="#66BB6A" fill-rule="nonzero"></path>
                    <g id="_350182112" transform="translate(6.857143, 3.428571)" fill="#66BB6A" fill-rule="nonzero">
                        <path d="M9.55141714,8.56824 L8.29183543,9.19804457 L8.02755189,9.33017966 L8.02755189,9.03518743 L8.02755189,7.77557829 L8.02755189,7.48058606 L8.29183543,7.61272114 L9.55141714,8.24252571 L9.87711806,8.40538286 L9.55141714,8.56824 Z M8.39327657,8.74018149 L9.06287314,8.40538286 L8.39327657,8.07058423 L8.39327657,8.7401808 L8.39327657,8.74018149 Z" id="_350182304"></path>
                        <path d="M4.80445714,3.49556571 L5.43426171,4.75514743 L5.5663968,5.01943097 L5.27140457,5.01943097 L4.01179543,5.01943097 L3.7168032,5.01943097 L3.84893829,4.75514743 L4.47874286,3.49556571 L4.6416,3.1698648 L4.80445714,3.49556571 Z M4.97639863,4.65370629 L4.6416,3.98410971 L4.30680137,4.65370629 L4.97639794,4.65370629 L4.97639863,4.65370629 Z" id="_350182712"></path>
                        <path d="M4.6416,12.8266629 L4.97639863,12.1570663 L4.30680206,12.1570663 L4.64160069,12.8266629 L4.6416,12.8266629 Z M5.43426171,12.0556251 L4.80445714,13.3152069 L4.6416,13.6409078 L4.47874286,13.3152069 L3.84893829,12.0556251 L3.7168032,11.7913416 L4.01179543,11.7913416 L5.27140457,11.7913416 L5.5663968,11.7913416 L5.43426171,12.0556251 Z" id="_350182352"></path>
                        <path d="M8.22864,5.04833143 L7.78331657,6.38432571 L7.68973269,6.66505029 L7.48117029,6.45647451 L6.590496,5.56580023 L6.38192023,5.35723783 L6.6626448,5.26365394 L7.99863909,4.81833051 L8.3436288,4.70333829 L8.22863657,5.048328 L8.22864,5.04833143 Z M7.53116914,5.98932686 L7.76792949,5.27904686 L7.05764949,5.5158072 L7.53116949,5.9893272 L7.53116914,5.98932686 Z" id="_350182544"></path>
                        <path d="M1.51525714,11.5317257 L2.22553714,11.2949654 L1.75201714,10.8214454 L1.5152568,11.5317254 L1.51525714,11.5317257 Z M2.62053943,11.5471138 L1.28454514,11.9924372 L0.939555429,12.1074295 L1.05454766,11.7624397 L1.49987109,10.4264455 L1.59345497,10.1457209 L1.80201737,10.3542967 L2.69269166,11.2449709 L2.90126743,11.4535333 L2.62054286,11.5471172 L2.62053943,11.5471138 Z" id="_350182880"></path>
                        <path d="M7.99865143,11.9924571 L6.66265714,11.5471337 L6.38193257,11.4535498 L6.59050834,11.2449874 L7.48118263,10.3543131 L7.68974503,10.1457374 L7.78332891,10.4264619 L8.22865234,11.7624562 L8.34364457,12.1074459 L7.99865486,11.9924537 L7.99865143,11.9924571 Z M7.057656,11.2949863 L7.767936,11.5317466 L7.53117566,10.8214666 L7.05765566,11.2949866 L7.057656,11.2949863 Z" id="_350182256"></path>
                        <path d="M1.51525714,5.27903966 L1.75201749,5.98932 L2.22553749,5.5158 L1.51525714,5.27903966 Z M1.49986906,6.38432229 L1.05454563,5.048328 L0.939553406,4.70333829 L1.28454312,4.81833051 L2.62053741,5.26365394 L2.90126198,5.35723783 L2.69268621,5.56580023 L1.80201192,6.45647451 L1.59344952,6.66505029 L1.49986563,6.38432571 L1.49986906,6.38432229 Z" id="_350182520"></path>
                    </g>
                    <path d="M11.4987429,5.15417143 C11.2302751,5.15571024 11.053608,5.43268217 11.1681288,5.67644914 C11.2298835,5.80516903 11.3560118,5.88480926 11.4987429,5.88561909 L11.5372807,5.88574057 L11.575751,5.88609153 L11.6140862,5.88671245 L11.6524755,5.88756284 L11.6907432,5.88864271 L11.7289299,5.88997904 L11.7670491,5.89154484 L11.8050874,5.89336712 L11.8431795,5.89541886 L11.8811637,5.89768657 L11.9189859,5.90021076 L11.9567949,5.90296441 L11.9945362,5.90596104 L12.0321967,5.90918714 L12.0698434,5.9126562 L12.1073551,5.91634123 L12.1448534,5.92026924 L12.1822707,5.92441322 L12.1870896,5.92496665 C12.4519265,5.95388003 12.6587891,5.70197442 12.5762188,5.44780208 C12.5308104,5.31159076 12.4130243,5.21469968 12.2700772,5.19827236 L12.2652583,5.19771893 L12.2233056,5.19306201 L12.181272,5.18864806 L12.1391167,5.18450409 L12.0969614,5.18063007 L12.0546576,5.17699901 L12.0123,5.17365143 L11.9698749,5.17054682 L11.9273283,5.16772567 L11.8847818,5.16516099 L11.8422353,5.16286628 L11.7994995,5.16082803 L11.7567099,5.15907325 L11.7138528,5.15757494 L11.6709418,5.15636009 L11.6280442,5.15540171 L11.5849577,5.1547268 L11.5418712,5.15432185 L11.4987442,5.15417337 L11.4987429,5.15417143 Z M9.60723771,6.19300114 C9.86836251,6.1049112 9.94177989,5.77310743 9.74377303,5.58181029 C9.64393954,5.48784857 9.50521749,5.45627589 9.37482446,5.49948411 L9.37429802,5.49965959 L9.36474122,5.50285869 L9.35534639,5.5060443 L9.34620805,5.50914891 L9.33681321,5.51234801 L9.3274454,5.51556061 L9.31807758,5.5188002 L9.30896622,5.52195881 L9.29969289,5.52517141 L9.2900956,5.52851899 L9.28090326,5.53175858 L9.27165692,5.53501168 L9.26231608,5.53833226 L9.25300223,5.54163935 L9.2436749,5.54498693 L9.23461754,5.54825352 L9.22538471,5.55157411 L9.2157604,5.55507019 L9.20647357,5.55847176 L9.19774017,5.56167086 L9.18845334,5.56507244 L9.17895054,5.56858199 L9.16967721,5.57202407 L9.16064684,5.57539865 L9.15148148,5.57882722 L9.14222162,5.5823233 L9.13288079,5.58584637 L9.12364796,5.58935592 L9.11473905,5.5927575 L9.10550622,5.59628056 L9.09628686,5.5998306 L9.0870675,5.60339416 L9.07786165,5.60697122 L9.0686693,5.61056176 L9.05947696,5.6141658 L9.05051409,5.61768887 L9.04133522,5.62130642 L9.03225085,5.62492398 L9.02307198,5.62856851 L9.01382564,5.63228056 L9.00490326,5.6358711 L8.9958459,5.63951563 L8.99126996,5.6413649 C8.90968607,5.67281598 8.83791578,5.73404433 8.79441064,5.82411839 C8.74090333,5.93812524 8.74718001,6.06738513 8.81351077,6.17480296 C8.82133977,6.18761286 8.82858839,6.20027426 8.83562101,6.21354307 L8.83559401,6.21348908 C8.84293708,6.22787828 8.84972675,6.24193004 8.85611144,6.25680531 L8.85627342,6.25718326 C8.86310358,6.27362422 8.86897532,6.28934974 8.87467161,6.30620909 L8.87463112,6.30607411 L8.8787211,6.31909997 L8.87858611,6.31862753 C8.88371546,6.33599986 8.88815642,6.35312924 8.89185496,6.37085256 C8.95258387,6.65931164 9.31078867,6.7617097 9.51487096,6.54859827 C9.59808821,6.46018433 9.63222513,6.34111587 9.60799576,6.22204707 C9.6060925,6.2129222 9.60409473,6.20382435 9.60201602,6.19475348 L9.60671344,6.19317418 L9.60723987,6.1929987 L9.60723771,6.19300114 Z M9.37482377,5.49948343 L9.55086891,6.02479886 L9.55082842,6.02469087 L9.37482377,5.49948343 Z M7.68387634,7.68985371 C7.85190343,7.77494709 8.0543232,7.72100781 8.15731749,7.56323966 C8.27504983,7.38094491 8.21009589,7.13769223 8.01698914,7.03866823 C7.91753349,6.98894057 7.82841771,6.90440057 7.77132,6.80879211 C7.73835713,6.74960194 7.68810274,6.69830846 7.62132686,6.6630912 C7.48882731,6.59503269 7.33235486,6.61152754 7.21755086,6.70677189 L7.20036751,6.72117459 L7.18330563,6.7355773 L7.16629776,6.75003401 L7.14922241,6.76463918 L7.13226854,6.77925785 L7.11540915,6.79387653 L7.09852275,6.80861667 L7.08170386,6.82341082 L7.07608855,6.82837821 C6.93648912,6.95306198 6.91254295,7.16070655 7.02065095,7.31357592 C7.10307175,7.42897306 7.23804123,7.48153546 7.36725895,7.46444643 C7.46054592,7.55380529 7.56672363,7.62961169 7.68379426,7.68981432 L7.68387525,7.68985481 L7.68387634,7.68985371 Z M7.45206994,6.98738743 L7.30623429,7.07271017 L7.29752787,7.07779903 L7.45206994,6.98738743 Z M7.29752787,7.07779903 L7.0760881,6.82837731 L7.29752787,7.07779903 Z M6.27698753,8.98293617 C6.3714217,8.80771457 6.31181325,8.59170189 6.13954776,8.4912996 C5.96124867,8.38856383 5.73376262,8.4513852 5.6350609,8.63233011 L5.63340061,8.63535374 L5.62268296,8.65503429 L5.61197879,8.67484982 L5.60127462,8.69482731 L5.59069196,8.71476432 L5.58016326,8.73474182 L5.56970207,8.75475981 L5.55936236,8.77472379 L5.54902264,8.79480929 L5.53870995,8.81504325 L5.52854571,8.83515573 L5.51840848,8.85537621 L5.50833874,8.87566416 L5.49836348,8.89589811 L5.48844222,8.91622656 L5.47854795,8.93663602 L5.46874816,8.95707247 L5.45906989,8.97740091 L5.44940509,8.99787785 L5.43978078,9.01844928 L5.43023749,9.03903422 L5.42076167,9.05967315 L5.41140733,9.08024458 L5.40208,9.10089699 L5.39282015,9.1216439 L5.3836143,9.14241782 L5.37452992,9.16313774 L5.36549955,9.18388464 L5.35649619,9.20476653 L5.34757381,9.2256889 L5.33870543,9.24667879 L5.32991804,9.26768215 L5.32125212,9.28860453 L5.3126402,9.3095809 L5.30406877,9.33063826 L5.30340735,9.33225806 C5.19574473,9.6022512 5.43027787,9.88371977 5.71569993,9.82663406 C5.83768404,9.80147321 5.93547958,9.71936297 5.98242667,9.60414137 L5.98206221,9.60508626 L5.98968876,9.58632361 L5.9974098,9.56753397 L6.00518484,9.54877132 L6.01297336,9.53014365 L6.02081587,9.51158346 L6.02873937,9.49303677 L6.03671687,9.4745036 L6.04480236,9.45591642 L6.05294186,9.43735622 L6.06109483,9.41893101 L6.06932879,9.40053282 L6.07763025,9.38212112 L6.08601269,9.36370941 L6.09440865,9.34541918 L6.10287208,9.32715597 L6.11138951,9.30893325 L6.12000143,9.29069702 L6.12870784,9.27239332 L6.13740074,9.2542786 L6.14616115,9.23619086 L6.15500255,9.21810313 L6.16392492,9.20000188 L6.17286081,9.18200864 L6.18189119,9.1640289 L6.19097556,9.14602214 L6.20007341,9.12819086 L6.20925228,9.11031909 L6.21856613,9.09237985 L6.22786648,9.07454857 L6.23723429,9.0567848 L6.24665611,9.0390345 L6.25609144,9.02143269 L6.26566175,9.00372292 L6.27532655,8.98595915 L6.27698684,8.98293553 L6.27698753,8.98293617 Z M5.55428925,11.616607 C5.55962109,11.4609986 5.46711713,11.3204134 5.32249622,11.2631282 C5.08651862,11.1717852 4.83343793,11.3380709 4.82332707,11.5906647 L4.82321909,11.5937424 L4.82240919,11.6176884 L4.82168028,11.6416614 L4.82105936,11.6656479 L4.82050593,11.6896479 L4.82004699,11.7136749 L4.81965554,11.7376073 L4.81935858,11.7616749 L4.8191426,11.7857424 L4.81902112,11.8098369 L4.81896713,11.8339449 L4.81911561,11.8770718 L4.81952056,11.9201583 L4.82019547,11.9632449 L4.82115385,12.0061425 L4.8223687,12.0490534 L4.82386701,12.0919106 L4.8256218,12.1347002 L4.82766004,12.1774359 L4.82995475,12.2199825 L4.83251943,12.262529 L4.83534058,12.3050755 L4.83844519,12.3475006 L4.83979502,12.364576 C4.85579051,12.5512442 5.00732257,12.6946504 5.19459731,12.7001306 C5.41281114,12.7052059 5.58615731,12.5220338 5.56875731,12.3044529 L5.56775843,12.2919939 L5.56500477,12.254185 L5.56248059,12.2163627 L5.56021288,12.1783786 L5.55816113,12.1402865 L5.55633886,12.1022482 L5.55477306,12.064129 L5.55343672,12.0259423 L5.55235686,11.9876746 L5.55150646,11.9492853 L5.55088554,11.9109501 L5.55053459,11.8724798 L5.5504131,11.8339419 L5.5504401,11.8124256 L5.55056158,11.7909498 L5.55075056,11.769474 L5.55102053,11.7480252 L5.55135799,11.7264953 L5.55176293,11.705087 L5.55226237,11.6837057 L5.5528293,11.6623379 L5.55347722,11.6410106 L5.55417913,11.6196832 L5.55428711,11.6166056 L5.55428925,11.616607 Z M6.08205953,14.2956722 C5.97183233,14.0588443 5.65968353,14.0088735 5.48118182,14.2000233 C5.38117279,14.3099402 5.35522913,14.4656025 5.41745633,14.6011387 L5.42606825,14.6200498 L5.44311662,14.6568326 L5.46036747,14.6934939 L5.47784781,14.730061 L5.49555758,14.7665335 L5.51346984,14.8028709 L5.53159807,14.8390598 L5.54994226,14.8751407 L5.56850246,14.9111273 L5.58726511,14.9469247 L5.60621674,14.9826007 L5.62539785,15.0181416 L5.64476794,15.0535745 L5.664408,15.0889402 L5.68421002,15.1241033 L5.70418752,15.1590909 L5.72438098,15.1939704 L5.74480392,15.228769 L5.76544286,15.2634326 L5.77837423,15.2848409 C5.86253606,15.4226588 6.025002,15.4889623 6.18152966,15.4493448 C6.41931583,15.3873065 6.53113766,15.1154773 6.40345526,14.9050248 L6.39279158,14.887369 L6.37444738,14.8565658 L6.35629214,14.8256277 L6.33828538,14.7945276 L6.32044063,14.7632655 L6.30279833,14.7319629 L6.28539902,14.7005928 L6.26813469,14.6690472 L6.25105934,14.6373667 L6.23415946,14.6055782 L6.21744854,14.5736681 L6.2009401,14.5417042 L6.18462065,14.5095917 L6.16849018,14.4773712 L6.15254866,14.4450562 L6.13680963,14.4126333 L6.12124608,14.3800619 L6.105858,14.347369 L6.09067241,14.3145816 L6.08206049,14.2956704 L6.08205953,14.2956722 Z M7.75462296,16.4563202 C7.60688376,16.3387767 7.3988881,16.35021 7.26532125,16.4837757 C7.11293873,16.638669 7.12680147,16.889266 7.29578695,17.0259494 L7.31176896,17.0388943 L7.34307154,17.0639607 L7.37459009,17.0888786 L7.40618966,17.11354 L7.4379107,17.1380259 L7.46986121,17.1623634 L7.50194671,17.1864984 L7.53411319,17.2104174 L7.56645514,17.2341609 L7.59899959,17.257756 L7.63169249,17.2811485 L7.66452038,17.3043386 L7.69742928,17.3272858 L7.73051366,17.3500844 L7.76378698,17.3727076 L7.79712782,17.3950743 L7.83061714,17.4172925 L7.86434942,17.4393488 L7.8981492,17.461162 L7.92312106,17.477063 C8.03961158,17.5502644 8.18390849,17.552721 8.30297592,17.4839607 C8.53943935,17.3447662 8.54578358,17.0060521 8.31416602,16.8589492 L8.29291968,16.8453969 L8.26279145,16.8259594 L8.23286568,16.8063868 L8.20299391,16.7865983 L8.17321663,16.7666073 L8.14364184,16.7464948 L8.11414803,16.7261798 L8.08474872,16.7056624 L8.05553835,16.685037 L8.02648999,16.6642361 L7.99753611,16.6432597 L7.96870371,16.6220808 L7.93993882,16.6007265 L7.9113899,16.5792372 L7.88300294,16.5575994 L7.85465647,16.5357321 L7.82645849,16.5137164 L7.7985035,16.4916061 L7.77060247,16.4692664 L7.75462046,16.4563215 L7.75462296,16.4563202 Z M10.2145818,17.6433602 C9.93909473,17.5837517 9.70260353,17.8445659 9.78869496,18.1131567 C9.82979736,18.2380836 9.93045439,18.3294941 10.0589178,18.3580431 L10.0715117,18.3608238 L10.1121821,18.3695437 L10.1529472,18.3780207 L10.1937794,18.3862276 L10.2346387,18.3941916 L10.2756465,18.4019262 L10.3167218,18.4093907 L10.357878,18.4166123 L10.3991827,18.423591 L10.4405549,18.4303131 L10.4819543,18.4367653 L10.5234077,18.4429745 L10.5650097,18.4489273 L10.6066925,18.4546236 L10.6484563,18.4600634 L10.6902605,18.4652467 L10.7322269,18.4701736 L10.7741796,18.4748306 L10.8162132,18.4792445 L10.8239883,18.4800139 C10.9929332,18.4955505 11.1475024,18.3958925 11.2041003,18.2362075 C11.2806493,18.0108262 11.1303994,17.7750235 10.8932612,17.7518601 L10.8901296,17.7515496 L10.8526313,17.7476216 L10.8152139,17.7434776 L10.777945,17.7390907 L10.7406761,17.7344742 L10.7035018,17.7296283 L10.6664084,17.724553 L10.629396,17.7192481 L10.5923972,17.7137138 L10.5554794,17.7079635 L10.5187234,17.7019973 L10.482035,17.6958015 L10.445387,17.6893629 L10.4087931,17.6827082 L10.3723207,17.6758376 L10.3358616,17.6687374 L10.2995376,17.6614213 L10.2633082,17.6538893 L10.2271731,17.6461413 L10.2145792,17.6433606 L10.2145818,17.6433602 Z M12.9474755,17.6046876 C12.6720964,17.674339 12.577567,18.0161025 12.7776262,18.2179013 C12.8697927,18.3092714 12.9993224,18.3453118 13.1254102,18.3141578 L13.1278129,18.3135638 L13.167849,18.3033861 L13.2077905,18.2929789 L13.2477049,18.2823153 L13.2875113,18.2714086 L13.3271963,18.2602725 L13.3667867,18.248907 L13.4063233,18.2372714 L13.445698,18.2254199 L13.4849377,18.2133524 L13.5241369,18.2010284 L13.5632414,18.1884615 L13.6021705,18.1756921 L13.6410727,18.1626662 L13.6798129,18.1494109 L13.7184587,18.1359396 L13.7570503,18.1222118 L13.7955069,18.1082681 L13.8337883,18.0941083 L13.863984,18.0827427 C14.0289065,18.0193951 14.1252305,17.8497483 14.0939681,17.6757267 C14.0521235,17.4502913 13.8187375,17.317873 13.604087,17.3990249 L13.5780758,17.4088247 L13.543952,17.4214456 L13.5097608,17.4338506 L13.4755156,17.4460395 L13.4411085,17.458026 L13.4066068,17.4698235 L13.3720512,17.4813916 L13.3373335,17.4927842 L13.3026024,17.5039473 L13.2677496,17.5148944 L13.2327484,17.5256661 L13.1976933,17.5362217 L13.1626111,17.5465344 L13.1273939,17.5566582 L13.0920552,17.5665794 L13.0566761,17.5762712 L13.0212161,17.585747 L12.985594,17.5950204 L12.9498775,17.6040912 L12.9474748,17.6046852 L12.9474755,17.6046876 Z M15.3713795,16.3490865 C15.2697508,16.4376218 15.2248417,16.5725916 15.2536609,16.704307 C15.3146596,16.975434 15.639766,17.0823825 15.8503283,16.9018953 L15.8702923,16.8846984 L15.9004881,16.8583902 L15.9305353,16.8318795 L15.9604071,16.8052203 L15.9901574,16.7783452 L16.0197052,16.7513081 L16.0491045,16.724109 L16.0783283,16.6967479 L16.1074037,16.6691979 L16.1363306,16.6414588 L16.165055,16.6135713 L16.1936309,16.5855218 L16.2220584,16.5572564 L16.2503238,16.5288289 L16.2783733,16.500253 L16.3062608,16.4715286 L16.3339999,16.4426017 L16.3615499,16.4135264 L16.388911,16.3843025 L16.4062158,16.3656073 C16.5272012,16.2333509 16.53557,16.0349257 16.4256264,15.8932736 C16.2860132,15.7150959 16.0214321,15.7040137 15.8679041,15.8704345 L15.8535419,15.885944 L15.8291234,15.9120093 L15.80457,15.937926 L15.7798815,15.9636673 L15.7550176,15.9892871 L15.7299918,16.0147584 L15.7048579,16.0400542 L15.6795621,16.0651881 L15.6540908,16.090214 L15.628471,16.1150779 L15.6027297,16.1397663 L15.5768129,16.1643197 L15.5507477,16.1887382 L15.524534,16.2129946 L15.4981718,16.2370891 L15.4717151,16.2609946 L15.4450559,16.2847921 L15.4182753,16.3084142 L15.3913461,16.3318877 L15.3713821,16.3490846 L15.3713795,16.3490865 Z M16.9824961,14.1427047 C16.8833374,14.3824754 17.0564535,14.6441813 17.3155938,14.6488922 C17.466154,14.6498101 17.599531,14.5625436 17.6578976,14.4234972 L17.6691687,14.3965816 L17.6846917,14.3589482 L17.6999853,14.3211393 L17.7150359,14.2833036 L17.7298841,14.2453195 L17.7445297,14.2071869 L17.7589054,14.1689868 L17.7730652,14.1307055 L17.7870089,14.0922489 L17.8007367,14.0536572 L17.814208,14.0150114 L17.8274633,13.9762713 L17.8404892,13.937369 L17.8532586,13.89844 L17.8658255,13.8593354 L17.8781495,13.8201362 L17.890217,13.7808965 L17.9020685,13.7415218 L17.9137041,13.7019852 L17.9160258,13.6939132 C17.9945318,13.4115961 17.7297491,13.156303 17.4503606,13.2464298 C17.3339918,13.2854668 17.2462122,13.3758111 17.2124123,13.4941105 L17.2113324,13.497809 L17.2010197,13.5328912 L17.190464,13.5679463 L17.1796924,13.6029476 L17.1687453,13.6378004 L17.1575822,13.6725314 L17.1461896,13.7072492 L17.1346215,13.7418047 L17.122824,13.7763064 L17.1108375,13.8107135 L17.0986485,13.8449587 L17.0862436,13.8791499 L17.0736227,13.9132737 L17.0608128,13.9472894 L17.0478139,13.9811837 L17.0346126,14.0149835 L17.0211818,14.0487158 L17.0075889,14.0822861 L16.9937667,14.1157889 L16.9824956,14.1427045 L16.9824961,14.1427047 Z M17.4348104,11.4488179 C17.4527901,11.6908966 17.6925337,11.8479893 17.9218698,11.7681609 C18.0768306,11.7132362 18.1757192,11.5618795 18.1644748,11.39793 L18.1621396,11.3628074 L18.159035,11.3203822 L18.1556874,11.2780246 L18.1520564,11.2357209 L18.1481824,11.1935655 L18.1440384,11.1514102 L18.1396245,11.1093766 L18.1349675,11.0674239 L18.1300406,11.0254575 L18.1248573,10.9836533 L18.1194175,10.9418895 L18.1137212,10.9002067 L18.1077684,10.8586047 L18.1015592,10.8171513 L18.095107,10.7757519 L18.0883849,10.7343797 L18.0814062,10.693075 L18.0741846,10.6519188 L18.0704186,10.6311989 C18.0179776,10.3493271 17.67639,10.2347395 17.4641409,10.4276984 C17.3703276,10.5144656 17.3285097,10.638488 17.3512007,10.7643464 L17.3541568,10.7805849 L17.3605955,10.8172329 L17.3667912,10.8539213 L17.3727575,10.8906773 L17.3785078,10.9275952 L17.3840421,10.9645939 L17.3893469,11.0016064 L17.3944222,11.0386997 L17.3992681,11.075874 L17.4038846,11.1131429 L17.4082715,11.1504119 L17.4124155,11.1878292 L17.4163435,11.2253275 L17.4200286,11.2628392 L17.4234976,11.3004859 L17.4267237,11.3381464 L17.4297203,11.3758877 L17.432474,11.4136967 L17.4348092,11.4488193 L17.4348104,11.4488179 Z M16.6378698,8.83659617 C16.7814244,9.07744646 17.1286698,9.07546234 17.2697384,8.83289763 C17.3351648,8.71740621 17.3350702,8.57902152 17.2675112,8.46439478 L17.2526765,8.43911242 L17.2320376,8.40444888 L17.2112232,8.36996054 L17.1902063,8.33560728 L17.1690005,8.30138907 L17.1475651,8.26729234 L17.1259543,8.2333441 L17.1041411,8.19954432 L17.0820848,8.16581205 L17.0598666,8.13232272 L17.0374999,8.09898189 L17.0148767,8.06570856 L16.9920781,8.03262418 L16.969131,7.99971528 L16.9459409,7.96688739 L16.9225483,7.93419449 L16.8989532,7.90165005 L16.8752097,7.86930809 L16.8512907,7.83714161 L16.8392637,7.82114613 C16.6788902,7.61084235 16.356226,7.6333307 16.2275208,7.86500201 C16.1577347,7.9930739 16.16856,8.1459155 16.2561373,8.26267515 L16.2655186,8.2751341 L16.286873,8.30389899 L16.3080518,8.33273139 L16.3290282,8.36168527 L16.3498291,8.39073363 L16.3704545,8.419944 L16.390972,8.44934331 L16.4112869,8.47883712 L16.4313994,8.50841191 L16.4513904,8.53818919 L16.4711789,8.56806096 L16.4907515,8.59798673 L16.510189,8.62811496 L16.5294511,8.65833768 L16.5485108,8.68868187 L16.5674219,8.71917456 L16.5861441,8.74977525 L16.6046908,8.78051091 L16.623035,8.81131406 L16.6378696,8.83659641 L16.6378698,8.83659617 Z M14.7554367,6.85548874 C14.9749599,6.99735617 15.2652687,6.87195669 15.3144001,6.61517811 C15.3404653,6.46870783 15.2786836,6.32360109 15.1538782,6.24209811 L15.1331313,6.22853232 L15.0993315,6.20671906 L15.0653832,6.18510826 L15.0312865,6.16367294 L14.9970683,6.14246709 L14.962715,6.12145022 L14.9282267,6.10063581 L14.8935632,6.07999687 L14.8587645,6.05957393 L14.823885,6.03938047 L14.7888974,6.01940297 L14.7537344,5.99960095 L14.7183686,5.97996089 L14.6829357,5.9605908 L14.6473948,5.94140969 L14.6117188,5.92245806 L14.5759214,5.90369541 L14.5399348,5.88513521 L14.5038539,5.86679102 L14.4837819,5.85673478 C14.252556,5.74333546 13.9818082,5.89401706 13.9567659,6.15064701 C13.9430786,6.30115306 14.0228403,6.44446495 14.1582823,6.51175443 L14.1743857,6.51981291 L14.2064982,6.53613237 L14.2384622,6.5526408 L14.2703722,6.56935173 L14.3021607,6.5862516 L14.3338413,6.60332695 L14.3653869,6.62059128 L14.3967569,6.63799059 L14.4280595,6.65563289 L14.4593216,6.67347765 L14.4904217,6.6914844 L14.5213599,6.70963965 L14.552163,6.72798384 L14.5828987,6.74653053 L14.6134994,6.76525269 L14.6439921,6.78416383 L14.6743363,6.80322346 L14.704559,6.82248555 L14.7346872,6.84192312 L14.7554341,6.85548891 L14.7554367,6.85548874 Z" id="Shape" fill="#212121" fill-rule="nonzero"></path>
                    <path d="M18.9352457,6.12243429 C19.381944,6.12243429 19.7863954,6.30354103 20.0791474,6.59630743 C20.3719125,6.88905874 20.5530206,7.29350743 20.5530206,7.74020914 C20.5530206,8.18689371 20.3719138,8.59134514 20.0791474,8.88409714 C19.7863961,9.17686217 19.3819474,9.35797029 18.9352457,9.35797029 C18.4885474,9.35797029 18.084096,9.17686354 17.791344,8.88409714 C17.498579,8.59134583 17.3174709,8.18689714 17.3174709,7.74020914 C17.3174709,7.29351086 17.4985776,6.88905943 17.791344,6.59630743 C18.0840953,6.3035424 18.488544,6.12243429 18.9352457,6.12243429 Z M19.5619989,7.11345257 C19.4016387,6.95307909 19.1800354,6.85387989 18.9352457,6.85387989 C18.6904539,6.85387989 18.4688537,6.95307909 18.3084926,7.11345257 C18.1481191,7.27381269 18.0489199,7.495416 18.0489199,7.74020571 C18.0489199,7.98498411 18.1481191,8.20658743 18.3084926,8.36694514 C18.4688527,8.52731863 18.690456,8.62651783 18.9352457,8.62651783 C19.1800375,8.62651783 19.4016377,8.52731863 19.5619989,8.36694514 C19.7223723,8.20658503 19.8215715,7.98498171 19.8215715,7.74020571 C19.8215715,7.49541394 19.7223723,7.27381371 19.5619989,7.11345257 Z" id="Shape" fill="#212121" fill-rule="nonzero"></path>
                    <path d="M8.29467429,5.15417143 C8.66501486,5.15417143 9.00033943,5.30432674 9.24307886,5.54706514 C9.48581897,5.78980526 9.63597257,6.12514286 9.63597257,6.49548343 C9.63597257,6.865824 9.48581726,7.20116229 9.24307886,7.44390171 C9.00033874,7.68664183 8.66501486,7.83679543 8.29467429,7.83679543 C7.92433371,7.83679543 7.58899543,7.68664011 7.346256,7.44390171 C7.10351589,7.2011616 6.95336229,6.865824 6.95336229,6.49548343 C6.95336229,6.12514286 7.1035176,5.78980457 7.346256,5.54706514 C7.58899611,5.30432503 7.92433371,5.15417143 8.29467429,5.15417143 Z M8.72593029,6.06421371 C8.61559509,5.95387851 8.46310457,5.88561737 8.29467429,5.88561737 C8.12624229,5.88561737 7.9737384,5.95387817 7.86340457,6.06421371 C7.75306937,6.17454891 7.68480823,6.3270528 7.68480823,6.49548343 C7.68480823,6.66391543 7.75306903,6.81641931 7.86340457,6.92675314 C7.97373977,7.03708834 8.12624366,7.10534949 8.29467429,7.10534949 C8.46310629,7.10534949 8.6155968,7.03708869 8.72593029,6.92675314 C8.83626549,6.81641794 8.90452663,6.66391406 8.90452663,6.49548343 C8.90452663,6.32705143 8.83626583,6.17454754 8.72593029,6.06421371 Z" id="Shape" fill="#212121" fill-rule="nonzero"></path>
                    <circle id="Oval" fill="#212121" cx="19.2505371" cy="3.98636571" r="1"></circle>
                </g>
            </g>
        </g>
    </g>
</svg>