<?xml version="1.0" encoding="UTF-8"?>
<svg width="24px" height="24px" viewBox="0 0 24 24" version="1.1" xmlns="http://www.w3.org/2000/svg" xmlns:xlink="http://www.w3.org/1999/xlink">
    <!-- Generator: Sketch 49.2 (51160) - http://www.bohemiancoding.com/sketch -->
    <title>robot</title>
    <desc>Created with Sketch.</desc>
    <defs></defs>
    <g id="robot" stroke="none" stroke-width="1" fill="none" fill-rule="evenodd">
        <g id="Group">
            <g id="Layer_x0020_1">
                <g>
                    <g id="_259442184">
                        <rect id="_259441632" x="0" y="0" width="23.4056914" height="23.4056914"></rect>
                        <rect id="_259441536" x="2.92570629" y="2.92570629" width="17.5542857" height="17.5542857"></rect>
                    </g>
                    <path d="M9.60678857,4.56154286 L13.70064,4.56154286 C13.8928965,4.56154286 14.0678331,4.64034617 14.1947726,4.76725714 L14.1962034,4.76868796 C14.3231144,4.89562602 14.4019177,5.07056408 14.4019177,5.26282054 L14.4019177,8.03681939 C14.4019177,8.16848202 14.3483024,8.28799585 14.2619133,8.37438522 C14.175524,8.46077459 14.056064,8.51438956 13.9243475,8.51438956 L9.38306751,8.51438956 C9.25135105,8.51438956 9.13189105,8.46077425 9.04550168,8.37438522 C8.95911231,8.28799585 8.90549734,8.16853585 8.90549734,8.03681939 L8.90549734,5.26282054 C8.90549734,5.06957871 8.98428694,4.89418054 9.11121162,4.76725825 C9.23813631,4.64033356 9.41353345,4.56154396 9.60677391,4.56154396 L9.60678857,4.56154286 Z M13.6704686,5.29299086 L9.63696,5.29299086 L9.63696,7.78294286 L13.6704686,7.78294286 L13.6704686,5.29299086 Z" id="Shape" fill="#66BB6A" fill-rule="nonzero"></path>
                    <path d="M9.07148571,8.65265143 L14.2359771,8.65265143 C14.4088094,8.65265143 14.56566,8.72309897 14.6791269,8.83656583 C14.7925937,8.95003269 14.8630413,9.10691006 14.8630413,9.27972926 L14.8630413,14.8418664 C14.8630413,15.0137541 14.7925937,15.1701185 14.6791269,15.2836138 L14.6791269,15.2850447 C14.56566,15.3985115 14.4088097,15.4689591 14.2359771,15.4689591 L9.07148571,15.4689591 C8.89866686,15.4689591 8.74178949,15.3985115 8.62832229,15.2850447 L8.62832229,15.2836138 C8.51485543,15.1701199 8.44440789,15.0137287 8.44440789,14.8418664 L8.44440789,9.27972926 C8.44440789,9.1069104 8.51485543,8.95003303 8.62832229,8.83656583 C8.74178914,8.72309897 8.89866651,8.65265143 9.07148571,8.65265143 Z M14.1316114,9.38409943 L9.17585143,9.38409943 L9.17585143,14.7375051 L14.1316114,14.7375051 L14.1316114,9.38409943 Z" id="Shape" fill="#212121" fill-rule="nonzero"></path>
                    <path d="M9.34062857,14.7375086 L11.1033737,14.7375086 L11.469096,14.7375086 L11.469096,15.1032309 L11.469096,19.8391166 C11.469096,20.0157014 11.397096,20.1760615 11.2811184,20.2920377 L11.280403,20.2913223 C11.1636289,20.4077724 11.0035256,20.4800151 10.8282224,20.4800151 L9.61577671,20.4800151 C9.44046048,20.4800151 9.28037053,20.407772 9.16359613,20.2913223 L9.16288072,20.2920377 C9.04690312,20.1760601 8.97490312,20.0157003 8.97490312,19.8391166 L8.97490312,15.1032309 L8.97490312,14.7375086 L9.34062541,14.7375086 L9.34062857,14.7375086 Z M10.7376514,15.4689566 L9.70635429,15.4689566 L9.70635429,19.748568 L10.7376514,19.748568 L10.7376514,15.4689566 Z" id="Shape" fill="#212121" fill-rule="nonzero"></path>
                    <path d="M12.2040686,14.7375086 L13.9668274,14.7375086 L14.3325497,14.7375086 L14.3325497,15.1032309 L14.3325497,19.8391166 C14.3325497,20.0157014 14.2605497,20.1760615 14.1445721,20.2920377 C14.0285945,20.4080153 13.8682752,20.4800153 13.6916647,20.4800153 L12.4792327,20.4800153 C12.3026208,20.4800153 12.1423011,20.4080153 12.0263253,20.2920377 C11.9103477,20.1760601 11.8383477,20.0157003 11.8383477,19.8391166 L11.8383477,15.1032309 L11.8383477,14.7375086 L12.2040699,14.7375086 L12.2040686,14.7375086 Z M13.6011051,15.4689566 L12.5697943,15.4689566 L12.5697943,19.748568 L13.6011051,19.748568 L13.6011051,15.4689566 Z" id="Shape" fill="#212121" fill-rule="nonzero"></path>
                    <path d="M14.8552457,9.36850286 C14.6532706,9.36850286 14.4895234,9.53225074 14.4895234,9.73422514 C14.4895234,9.93620023 14.6532713,10.0999474 14.8552457,10.0999474 L15.9212469,10.0999474 L15.9212469,14.0293989 C15.9212469,14.2313739 16.0849947,14.3951211 16.2869691,14.3951211 C16.4889442,14.3951211 16.6526914,14.2313733 16.6526914,14.0293989 L16.6526914,9.73422171 C16.6526914,9.53224663 16.4889435,9.36849943 16.2869691,9.36849943 L14.8552423,9.36849943 L14.8552457,9.36850286 Z" id="Shape" fill="#212121" fill-rule="nonzero"></path>
                    <path d="M8.55044571,10.0999543 C8.7524208,10.0999543 8.916168,9.9362064 8.916168,9.734232 C8.916168,9.53225691 8.75242011,9.36850971 8.55044571,9.36850971 L7.11871886,9.36850971 C6.91674377,9.36850971 6.75299657,9.5322576 6.75299657,9.734232 L6.75299657,14.0294091 C6.75299657,14.2313842 6.91674446,14.3951314 7.11871886,14.3951314 C7.32069394,14.3951314 7.48444114,14.2313835 7.48444114,14.0294091 L7.48444114,10.0999577 L8.55044229,10.0999577 L8.55044571,10.0999543 Z" id="Shape" fill="#212121" fill-rule="nonzero"></path>
                    <g id="_259441392" transform="translate(10.285714, 3.428571)" fill="#66BB6A">
                        <circle id="_259442064" cx="0.473177143" cy="2.90170286" r="1"></circle>
                        <circle id="_259441128" cx="2.26282286" cy="2.90170286" r="1"></circle>
                    </g>
                    <polygon id="Shape" fill="#66BB6A" fill-rule="nonzero" points="10.7233714 3.29142857 10.7233714 4.92726857 9.99192 4.92726857 9.99192 3.29142857"></polygon>
                    <polygon id="Shape" fill="#66BB6A" fill-rule="nonzero" points="13.3155429 3.29142857 13.3155429 4.92726857 12.5840914 4.92726857 12.5840914 3.29142857"></polygon>
                </g>
            </g>
        </g>
    </g>
</svg>