<?xml version="1.0" encoding="UTF-8"?>
<svg width="24px" height="24px" viewBox="0 0 24 24" version="1.1" xmlns="http://www.w3.org/2000/svg" xmlns:xlink="http://www.w3.org/1999/xlink">
    <!-- Generator: Sketch 49.2 (51160) - http://www.bohemiancoding.com/sketch -->
    <title>robot-2</title>
    <desc>Created with Sketch.</desc>
    <defs></defs>
    <g id="robot-2" stroke="none" stroke-width="1" fill="none" fill-rule="evenodd">
        <g id="Group">
            <g id="Layer_x0020_1">
                <g>
                    <g id="_258295616">
                        <rect id="_258296288" x="0" y="0" width="23.4056914" height="23.4056914"></rect>
                        <rect id="_258295520" x="2.92570629" y="2.92570629" width="17.5542857" height="17.5542857"></rect>
                    </g>
                    <path d="M9.52110857,4.10921143 L13.8676114,4.10921143 C14.0616631,4.10921143 14.2384766,4.18806857 14.3669417,4.31510126 C14.4973354,4.4439696 14.5782847,4.62132411 14.5782847,4.81592983 L14.5782847,7.68039497 C14.5782847,7.87501371 14.4973354,8.0523264 14.3669417,8.18122354 C14.2384378,8.30825623 14.0616638,8.38711337 13.8676114,8.38711337 L9.52110857,8.38711337 C9.32705691,8.38711337 9.15028457,8.30825623 9.02177829,8.18122354 C8.89138457,8.05232811 8.81043531,7.8750144 8.81043531,7.68039497 L8.81043531,4.81592983 C8.81043531,4.62133817 8.89139829,4.4439984 9.02176491,4.31508754 C9.1502688,4.18808194 9.3270696,4.10921143 9.52110891,4.10921143 L9.52110857,4.10921143 Z M13.8468343,4.84065943 L9.54188571,4.84065943 L9.54188571,7.655664 L13.8468343,7.655664 L13.8468343,4.84065943 Z" id="Shape" fill="#66BB6A" fill-rule="nonzero"></path>
                    <path d="M11.6943429,2.90136686 C12.0449211,2.90136686 12.3655989,3.02737371 12.600648,3.2310768 C12.8500834,3.44725234 13.0043829,3.74916823 13.0043829,4.08550766 C13.0043829,4.18704206 12.9889408,4.28850891 12.9599194,4.38804549 C12.9304931,4.48902651 12.8882434,4.5827856 12.8351139,4.66778469 L12.7270464,4.840644 L12.5251118,4.840644 L10.8635781,4.840644 L10.6616839,4.840644 L10.5535759,4.66778469 C10.500433,4.58279931 10.4582102,4.4890536 10.428757,4.3880592 C10.3997356,4.28852263 10.3842936,4.18702869 10.3842936,4.085508 C10.3842936,3.74917063 10.5385927,3.44725543 10.7880285,3.23107714 C11.0230745,3.02737406 11.343769,2.9013672 11.6943473,2.9013672 L11.6943429,2.90136686 Z M12.1235074,3.78250971 C12.0167897,3.69003291 11.8652846,3.63281349 11.6943429,3.63281349 C11.5233867,3.63281349 11.3718816,3.69003291 11.2651646,3.78250971 C11.172863,3.86251406 11.1157382,3.96985269 11.1157382,4.08550629 C11.1157382,4.09359178 11.1159541,4.1014883 11.1163726,4.10919583 L12.2723017,4.10919583 C12.2727202,4.1014883 12.2729362,4.09359178 12.2729362,4.08550629 C12.2729362,3.96985269 12.2158114,3.86251406 12.1235098,3.78250971 L12.1235074,3.78250971 Z" id="Shape" fill="#66BB6A" fill-rule="nonzero"></path>
                    <path d="M8.29618286,8.46617143 L15.0925714,8.46617143 C15.2522698,8.46617143 15.3976063,8.53166537 15.5030811,8.63710046 L15.504512,8.63853128 C15.6099474,8.74400716 15.675441,8.88934328 15.675441,9.04904099 L15.675441,15.4842296 C15.675441,15.643928 15.6099471,15.7892644 15.504512,15.8947393 L15.5030811,15.8961701 C15.3976053,16.0016055 15.2522691,16.0670991 15.0925714,16.0670991 L8.29618286,16.0670991 C8.13648446,16.0670991 7.991148,16.0016052 7.88567314,15.8961701 L7.88424232,15.8947393 C7.77880689,15.7892634 7.71331329,15.6439273 7.71331329,15.4842296 L7.71331329,9.04904099 C7.71331329,8.88934259 7.77880724,8.74400614 7.88424232,8.63853128 L7.88567314,8.63710046 C7.99114903,8.53166503 8.13648514,8.46617143 8.29618286,8.46617143 Z M14.9439771,9.19761943 L8.44474286,9.19761943 L8.44474286,15.3356537 L14.9439771,15.3356537 L14.9439771,9.19761943 Z" id="Shape" fill="#212121" fill-rule="nonzero"></path>
                    <path d="M9.95232,20.5043314 L9.03804,20.5043314 L8.67231771,20.5043314 L8.67231771,20.1386091 C8.67231771,19.7851954 8.81560217,19.4651931 9.04724571,19.2335486 C9.27890366,19.0018906 9.59890971,18.8586069 9.95232,18.8586069 C10.3057474,18.8586069 10.6257497,19.0018913 10.8573806,19.2335486 C11.0890385,19.4651798 11.2323223,19.7851851 11.2323223,20.1386091 L11.2323223,20.5043314 L10.8666,20.5043314 L9.95232,20.5043314 Z M9.54341486,19.7728834 L9.95232,19.7728834 L10.3612114,19.7728834 C10.3544218,19.7652974 10.3474296,19.7578868 10.3402351,19.7506922 C10.2409954,19.6514525 10.1038255,19.5900489 9.95231962,19.5900489 C9.80080111,19.5900489 9.66364454,19.6514392 9.56439048,19.7506922 C9.55719586,19.7578868 9.55020374,19.7652974 9.5434141,19.7728834 L9.54341486,19.7728834 Z" id="Shape" fill="#212121" fill-rule="nonzero"></path>
                    <polygon id="Shape" fill="#212121" fill-rule="nonzero" points="10.3180457 16.0006286 10.3180457 19.3585029 9.58659429 19.3585029 9.58659429 16.0006286"></polygon>
                    <polygon id="Shape" fill="#212121" fill-rule="nonzero" points="13.80216 16.0006286 13.80216 19.3585029 13.0707086 19.3585029 13.0707086 16.0006286"></polygon>
                    <path d="M13.4364343,20.5043314 L12.5221543,20.5043314 L12.156432,20.5043314 L12.156432,20.1386091 C12.156432,19.7851817 12.2997165,19.4651794 12.5313737,19.2335486 C12.7630049,19.0018906 13.0830103,18.8586069 13.4364343,18.8586069 C13.789848,18.8586069 14.1098503,19.0018913 14.3415086,19.2335486 C14.5731531,19.4651931 14.7164366,19.7851989 14.7164366,20.1386091 L14.7164366,20.5043314 L14.3507143,20.5043314 L13.4364343,20.5043314 Z M13.0275429,19.7728834 L13.4364343,19.7728834 L13.8453394,19.7728834 C13.8385498,19.7652974 13.8315576,19.7578868 13.8243631,19.7506922 C13.72511,19.6514392 13.5879535,19.5900489 13.4364339,19.5900489 C13.2849288,19.5900489 13.1477588,19.6514525 13.0485185,19.7506922 C13.0413239,19.7578868 13.0343317,19.7652974 13.0275421,19.7728834 L13.0275429,19.7728834 Z" id="Shape" fill="#212121" fill-rule="nonzero"></path>
                    <polygon id="Shape" fill="#212121" fill-rule="nonzero" points="15.2432571 9.84990857 17.2116343 9.84990857 17.9269371 7.29877714 18.6297943 7.49592 17.8396114 10.3142057 17.7646971 10.58136 17.4881829 10.58136 15.2432571 10.58136"></polygon>
                    <path d="M18.4573029,6.89355429 L18.048912,6.85023806 C18.0553777,6.85929542 18.0620999,6.86816383 18.069092,6.87681624 C18.1570468,6.98563978 18.2869952,7.06100081 18.4380268,7.07700984 L18.4380133,7.07714482 C18.5892349,7.09277589 18.7325331,7.04596371 18.8420191,6.95746882 C18.8502665,6.95080066 18.8583115,6.94390303 18.8661676,6.93676241 L18.4587333,6.89355418 L18.4573024,6.89355418 L18.4573029,6.89355429 Z M17.6252811,6.0714 L18.5344594,6.167832 L18.5344459,6.16798048 L19.4422082,6.26425031 L19.8064048,6.30288242 L19.7679211,6.66569042 C19.7306793,7.016783 19.5542697,7.31987214 19.2991531,7.52604585 C19.045061,7.73143614 18.7126651,7.83986814 18.3623028,7.80273431 L18.360872,7.80273431 C18.0097795,7.76549248 17.7066903,7.58906951 17.5005166,7.3339526 C17.2950588,7.07975248 17.1865997,6.74687145 17.2238415,6.39568631 L17.2623252,6.03291945 L17.6252806,6.07140311 L17.6252811,6.0714 Z" id="Shape" fill="#212121" fill-rule="nonzero"></path>
                    <polygon id="Shape" fill="#212121" fill-rule="nonzero" points="8.16243429 10.2156686 6.19405714 10.2156686 5.47875429 12.7668 4.77589714 12.5696571 5.56608 9.75137143 5.64102857 9.48421714 5.91750857 9.48421714 8.16243429 9.48421714"></polygon>
                    <path d="M4.93930286,13.1603657 L5.34996343,13.1443567 C5.34217491,13.1362037 5.3341164,13.1282802 5.32584195,13.1206267 C5.22284973,13.0253556 5.08254847,12.9694185 4.92942367,12.9753715 C4.77806698,12.9812702 4.6434215,13.0479519 4.54812195,13.1509846 C4.5404819,13.1592456 4.53309833,13.1677495 4.52597122,13.1764694 L4.93930265,13.160366 L4.93930286,13.1603657 Z M5.87861143,13.8533417 L4.96503086,13.8889502 L4.05143657,13.9245586 L3.68852229,13.9386914 L3.67428158,13.5731302 C3.66059427,13.2217291 3.79133883,12.8972285 4.01383152,12.6567039 C4.23629712,12.416191 4.55049895,12.2605565 4.90369323,12.2467874 C5.25509438,12.2331001 5.57959495,12.3638446 5.82011952,12.5863373 C6.06061906,12.8087762 6.21626695,13.122991 6.23003609,13.4761853 L6.24419582,13.8390859 L5.87860725,13.8533401 L5.87861143,13.8533417 Z" id="Shape" fill="#212121" fill-rule="nonzero"></path>
                    <circle id="Oval" fill="#66BB6A" cx="10.68864" cy="6.00994286" r="1"></circle>
                    <circle id="Oval" fill="#66BB6A" transform="translate(12.304816, 10.169603) rotate(50.428127) translate(-12.304816, -10.169603) " cx="9.35024268" cy="7.21502976" r="1"></circle>
                </g>
            </g>
        </g>
    </g>
</svg>