<?xml version="1.0" encoding="UTF-8"?>
<svg width="24px" height="24px" viewBox="0 0 24 24" version="1.1" xmlns="http://www.w3.org/2000/svg" xmlns:xlink="http://www.w3.org/1999/xlink">
    <!-- Generator: Sketch 49.2 (51160) - http://www.bohemiancoding.com/sketch -->
    <title>rocket-2</title>
    <desc>Created with Sketch.</desc>
    <defs></defs>
    <g id="rocket-2" stroke="none" stroke-width="1" fill="none" fill-rule="evenodd">
        <g id="Group">
            <g id="Layer_x0020_1">
                <g>
                    <g id="_350178440">
                        <rect id="_350178608" x="0" y="0" width="23.4056914" height="23.4056914"></rect>
                        <rect id="_350179016" x="2.92570629" y="2.92570629" width="17.5542857" height="17.5542857"></rect>
                    </g>
                    <path d="M5.74474286,17.7693257 L7.10544,17.7693257 C7.28974594,17.7693257 7.45806857,17.8451187 7.58095886,17.9673326 L7.58097236,17.9673191 L7.58168776,17.9680345 L7.58240317,17.9687499 L7.58238968,17.9687634 C7.7046035,18.091652 7.78039653,18.259976 7.78039653,18.4442822 L7.78039653,20.1142125 L7.78039653,20.4799348 L7.41467425,20.4799348 L5.43551082,20.4799348 L5.06978853,20.4799348 L5.06978853,20.1142125 L5.06978853,18.4442822 C5.06978853,18.2599763 5.14558156,18.0916537 5.26779539,17.9687634 L5.26778189,17.9687499 L5.2684973,17.9680345 L5.26921271,17.9673191 L5.26922621,17.9673326 C5.39211478,17.8451187 5.56042541,17.7693257 5.74474507,17.7693257 L5.74474286,17.7693257 Z M7.04895086,18.5007737 L5.80123543,18.5007737 L5.80123543,19.7484891 L7.04895086,19.7484891 L7.04895086,18.5007737 Z" id="Shape" fill="#66BB6A" fill-rule="nonzero"></path>
                    <path d="M16.2504,17.7693257 L17.6110971,17.7693257 C17.7954165,17.7693257 17.9637257,17.8451187 18.086616,17.9673326 L18.0866295,17.9673191 L18.0873449,17.9680345 L18.0880603,17.9687499 L18.0880468,17.9687634 C18.2102606,18.091652 18.2860537,18.259976 18.2860537,18.4442822 L18.2860537,20.1142125 L18.2860537,20.4799348 L17.9203314,20.4799348 L15.941168,20.4799348 L15.5754457,20.4799348 L15.5754457,20.1142125 L15.5754457,18.4442822 C15.5754457,18.2599763 15.6512387,18.0916537 15.7734525,17.9687634 L15.773439,17.9687499 L15.7741544,17.9680345 L15.7748699,17.9673191 L15.7748834,17.9673326 C15.8977719,17.8451187 16.0660959,17.7693257 16.2504022,17.7693257 L16.2504,17.7693257 Z M17.554608,18.5007737 L16.3068926,18.5007737 L16.3068926,19.7484891 L17.554608,19.7484891 L17.554608,18.5007737 Z" id="Shape" fill="#66BB6A" fill-rule="nonzero"></path>
                    <polygon id="Shape" fill="#66BB6A" fill-rule="nonzero" points="4.11606857 19.7485371 19.2896229 19.7485371 19.2896229 20.4799886 4.11606857 20.4799886"></polygon>
                    <path d="M12.0214286,3.11427771 C14.0308011,6.731112 13.93476,9.06483771 13.7963074,12.4292263 C13.7587145,13.3427246 13.7178823,14.3350526 13.7178823,15.4962446 L13.7178823,15.8619669 L13.35216,15.8619669 L10.053552,15.8619669 L9.68782971,15.8619669 L9.68782971,15.4962446 C9.68782971,14.4062709 9.64846869,13.4572286 9.61169931,12.5698389 C9.47344971,9.23532343 9.37001211,6.73996457 11.3842845,3.11428457 L11.7028581,2.54086286 L12.0214317,3.11428457 L12.0214286,3.11427771 Z M13.0677223,12.4006663 C13.1933242,9.348792 13.2824938,7.17624343 11.7032571,4.06827771 C10.1191509,7.20157371 10.2147291,9.51291771 10.34028,12.5413063 C10.3739718,13.3543234 10.4097422,14.2172434 10.4176522,15.1305531 L12.9879048,15.1305531 C12.9956933,14.1511577 13.0330433,13.2435566 13.0677202,12.4006937 L13.0677223,12.4006663 Z" id="Shape" fill="#212121" fill-rule="nonzero"></path>
                    <path d="M13.60224,13.5344571 L17.9019771,16.8569726 L17.67912,17.511264 L5.72653714,17.511264 L5.50368,16.8569726 L9.80153143,13.5359143 L10.3658023,13.0998926 L10.3886819,13.8130491 C10.3970374,14.073661 10.4042995,14.3458423 10.4096313,14.633976 C10.4128979,14.810291 10.4154356,14.9766305 10.4170824,15.1305257 L12.9884287,15.1305257 C12.989981,14.9761995 12.9923567,14.8086449 12.9954343,14.6303451 C13.0003612,14.3446399 13.0071644,14.0733086 13.0150744,13.8130217 L13.0368202,13.0975577 L13.6022224,13.5344571 L13.60224,13.5344571 Z M16.6095429,16.779816 L13.7256686,14.5513783 L13.7240353,14.641763 C13.7201478,14.8678461 13.7178666,15.1466955 13.7178666,15.4962453 L13.7178666,15.8619675 L13.3521443,15.8619675 L10.0535363,15.8619675 L9.68781398,15.8619675 L9.68781398,15.4962453 C9.68781398,15.1527401 9.6853168,14.8750258 9.68106484,14.6453938 L9.67924257,14.5519721 L6.79613628,16.7798133 L16.6095306,16.7798133 L16.6095429,16.779816 Z" id="Shape" fill="#212121" fill-rule="nonzero"></path>
                    <path d="M16.0452,8.56217143 C17.2495886,10.7300537 17.1923006,12.1221257 17.1097166,14.1290057 C17.0878493,14.6603657 17.0640922,15.2376103 17.0640922,15.930168 L17.0640922,16.2958903 L16.6983699,16.2958903 L16.1062934,16.2958903 L15.8834362,16.2187341 L14.5124259,15.1593192 L14.3767947,15.0545184 L14.3709905,14.8821854 C14.3637014,14.6661178 14.3541311,14.4358231 14.3448712,14.2121019 C14.2624371,12.2235168 14.2007499,10.7353248 15.4080507,8.56219337 L15.7266109,7.98877166 L16.0451982,8.56219337 L16.0452,8.56217143 Z M16.3811325,14.1004457 C16.450379,12.4177474 16.50066,11.194704 15.7273279,9.53962286 C14.9505267,11.2163143 15.0041839,12.5122629 15.0734547,14.1835543 C15.0801229,14.3444002 15.0869531,14.508661 15.0934997,14.6868 L16.2293032,15.5644594 L16.3351706,15.5644594 C16.3421357,15.0481749 16.3623022,14.5583074 16.3811323,14.1004594 L16.3811325,14.1004457 Z" id="Shape" fill="#212121" fill-rule="nonzero"></path>
                    <path d="M7.54590857,9.69936 C6.77260457,11.3544549 6.82285714,12.5774846 6.892104,14.2601829 C6.91093416,14.7180171 6.93110057,15.2078846 6.93806571,15.7241691 L6.96969226,15.7241691 L8.18200426,14.7874011 C8.18795702,14.6292415 8.19395026,14.4849446 8.19980853,14.3433874 C8.26908178,12.6720789 8.32271081,11.3760411 7.54591138,9.69935314 L7.54590857,9.69936 Z M6.16351886,14.2887429 C6.0809496,12.2818526 6.02366297,10.8897737 7.22803543,8.72190857 L7.54660903,8.14848686 L7.86518263,8.72190857 C9.0724992,10.8950434 9.01082606,12.3833486 8.92838949,14.3719543 C8.91983157,14.5786135 8.91103066,14.7907269 8.9043085,14.9829566 L8.89827477,15.1554514 L8.76287328,15.2600904 L7.31555671,16.3784664 L7.09269957,16.4556226 L6.57486528,16.4556226 L6.20914299,16.4556226 L6.20914299,16.0899003 C6.20914299,15.3973426 6.18538598,14.8201152 6.16351865,14.2887518 L6.16351886,14.2887429 Z" id="Shape" fill="#212121" fill-rule="nonzero"></path>
                    <circle id="Oval" fill="#212121" cx="11.7035314" cy="8.07438857" r="1"></circle>
                    <polygon id="Shape" fill="#66BB6A" fill-rule="nonzero" points="10.7491543 17.8052571 10.7491543 19.4545371 10.0177029 19.4545371 10.0177029 17.8052571"></polygon>
                    <polygon id="Shape" fill="#66BB6A" fill-rule="nonzero" points="13.3879886 17.8052571 13.3879886 19.4545371 12.6565371 19.4545371 12.6565371 17.8052571"></polygon>
                    <polygon id="Shape" fill="#66BB6A" fill-rule="nonzero" points="12.0686057 17.8052571 12.0686057 18.9851314 11.3371543 18.9851314 11.3371543 17.8052571"></polygon>
                </g>
            </g>
        </g>
    </g>
</svg>