<?xml version="1.0" encoding="UTF-8"?>
<svg width="24px" height="24px" viewBox="0 0 24 24" version="1.1" xmlns="http://www.w3.org/2000/svg" xmlns:xlink="http://www.w3.org/1999/xlink">
    <!-- Generator: Sketch 49.2 (51160) - http://www.bohemiancoding.com/sketch -->
    <title>rocket</title>
    <desc>Created with Sketch.</desc>
    <defs></defs>
    <g id="rocket" stroke="none" stroke-width="1" fill="none" fill-rule="evenodd">
        <g id="Group">
            <g id="Layer_x0020_1">
                <g>
                    <g id="_259448472">
                        <rect id="_259448496" x="0" y="0" width="23.4056914" height="23.4056914"></rect>
                        <rect id="_259449048" x="2.92570629" y="2.92570629" width="17.5542857" height="17.5542857"></rect>
                    </g>
                    <path d="M11.7013029,11.0316343 C11.3216503,11.0316343 10.9774834,10.8772947 10.7283051,10.6281017 C10.4791262,10.3789227 10.3247726,10.0347703 10.3247726,9.65511771 C10.3247726,9.27644914 10.4791258,8.93268686 10.7283189,8.68342971 L10.7283189,8.68199889 C10.9774841,8.43279318 11.321664,8.27841146 11.7013029,8.27841146 C12.0809417,8.27841146 12.4251223,8.43279181 12.6742869,8.68199889 L12.6742869,8.68342971 C12.9234792,8.9326896 13.0778331,9.27645257 13.0778331,9.65511771 C13.0778331,10.0347703 12.9234799,10.3789234 12.6743006,10.6281017 C12.4251216,10.8772941 12.0809554,11.0316343 11.7013029,11.0316343 Z M11.2454503,10.1109566 C11.3622915,10.2278115 11.5235561,10.3001894 11.7013029,10.3001894 C11.8790486,10.3001894 12.0403131,10.2278115 12.1571554,10.1109566 C12.2739967,9.99411531 12.3463882,9.83285074 12.3463882,9.65511771 C12.3463882,9.47676446 12.2742936,9.31525714 12.1578573,9.19842857 L12.1571418,9.19914398 C12.0402869,9.08226192 11.8790226,9.00985701 11.701303,9.00985701 C11.5235844,9.00985701 11.3623198,9.08226192 11.2454641,9.19914398 L11.2447487,9.19842857 C11.1283124,9.31525646 11.0562178,9.47676377 11.0562178,9.65511771 C11.0562178,9.83285006 11.1286093,9.99411429 11.2454506,10.1109566 L11.2454503,10.1109566 Z" id="Shape" fill="#66BB6A" fill-rule="nonzero"></path>
                    <polygon id="Shape" fill="#66BB6A" points="12.1462629 18.2025943 11.2562057 18.2025943 11.2562057 13.4834057 12.1462629 13.4834057"></polygon>
                    <path d="M17.3199773,19.7485714 L16.3032446,15.5215543 L14.7107143,14.5860926 L14.5308223,14.4804278 L14.5307143,14.2718112 C14.5292835,11.6851289 14.5275422,10.3820969 14.5260844,9.7250112 C14.5247076,9.09986263 14.5261519,9.10722034 14.5258414,9.10506034 L14.5229798,9.07363629 C14.5122081,8.88264874 14.0188461,7.91185114 13.4234198,6.80285571 C12.8352175,5.70729343 12.1401638,4.47754029 11.7012929,3.70871743 C11.1691752,4.64076086 10.2548541,6.26091171 9.60326435,7.51168886 C9.18968949,8.30559171 8.88816378,8.925786 8.88067235,9.05974371 L8.87924153,9.07688657 C8.87885008,9.08080107 8.87820216,9.08734776 8.87667685,9.72255171 C8.87509755,10.381554 8.87335626,11.6850043 8.87189845,14.271786 L8.87179046,14.4804026 L8.69189846,14.5860674 L7.09938189,15.5214879 L6.08271446,19.7485714 L8.76927103,19.7485394 L8.76927103,17.4404491 L8.76927103,17.0747268 L9.13499332,17.0747268 L10.6275842,17.0747268 L10.9933065,17.0747268 L10.9933065,17.4404491 L10.9933065,19.7485394 L12.4091179,19.7485394 L12.4091179,17.4404491 L12.4091179,17.0747268 L12.7748402,17.0747268 L14.2676059,17.0747268 L14.6333282,17.0747268 L14.6333282,17.4404491 L14.6333282,19.7485394 L17.3199773,19.7485714 Z M17.0066273,15.3313714 L18.0279782,19.5775886 C18.0392628,19.6096471 18.0480232,19.6417999 18.0540704,19.6737504 C18.0623989,19.7177818 18.0667453,19.7601261 18.0667453,19.8001351 C18.0667453,19.9868976 17.9906283,20.1563705 17.8676184,20.2794459 L17.8676184,20.2808768 C17.7445813,20.4039138 17.5746106,20.4800175 17.3869018,20.4800175 L17.385525,20.479869 L17.385336,20.4798825 L17.3836082,20.4800175 L14.5818996,20.4800175 C14.3951909,20.4800175 14.2256505,20.4039138 14.1025065,20.2808497 C13.978565,20.156962 13.9018812,19.9869375 13.9018812,19.8001331 L13.9018812,17.8062028 L13.1405635,17.8062028 L13.1405635,19.8001331 C13.1405635,19.9869364 13.0638797,20.1569617 12.9399383,20.2808497 C12.8168337,20.4038867 12.6472679,20.4800175 12.4605588,20.4800175 L10.9418765,20.4800175 C10.7551545,20.4800175 10.5856171,20.4039004 10.4624834,20.2808497 C10.3385419,20.156962 10.2618581,19.9869375 10.2618581,19.8001331 L10.2618581,17.8062028 L9.50071529,17.8062028 L9.50071529,19.8001331 C9.50071529,19.9869364 9.42403152,20.1569617 9.30009003,20.2808497 C9.17694501,20.4039138 9.00740626,20.4800175 8.82069689,20.4800175 L6.01898832,20.4800175 C5.91615826,20.4800175 5.81527186,20.4559365 5.72336181,20.4113785 C5.63280158,20.3674955 5.55150123,20.3026091 5.48634501,20.22031 L5.48491418,20.22031 C5.43910093,20.1620514 5.40324938,20.0956396 5.37816938,20.0242605 C5.35388591,19.955122 5.34104893,19.8812459 5.34040127,19.8057093 L5.33897045,19.8028477 L5.33897045,19.7973269 L5.34040127,19.7944652 C5.34069823,19.7613808 5.34195358,19.735464 5.34418079,19.7174575 C5.34663748,19.6975879 5.35159137,19.6721437 5.35915041,19.6408951 L5.35947437,19.640976 L6.39598294,15.3313989 C6.41770174,15.2407307 6.45692786,15.157176 6.51035426,15.0850008 C6.56442866,15.0119616 6.63236546,14.9501394 6.71081769,14.903867 L6.71223501,14.903867 L8.14343387,14.0632053 C8.14486469,11.6145984 8.14655198,10.3636396 8.14809079,9.72259959 C8.14938663,9.18768759 8.15107392,9.0578613 8.15246424,9.01981102 L8.15208629,9.01978402 C8.16625953,8.76636665 8.49989772,8.04765031 8.95469429,7.17460573 C9.62849086,5.88117031 10.5831594,4.19243773 11.111348,3.26826288 C11.1715098,3.16315145 11.2582637,3.07763979 11.3607834,3.01816608 C11.463357,2.95866562 11.5804685,2.92571602 11.701292,2.92571602 C11.8221694,2.92571602 11.9392671,2.95866541 12.041841,3.01816608 C12.1444283,3.07766653 12.2311547,3.16316482 12.2912494,3.26826288 C12.7223168,4.02257602 13.4418985,5.29419888 14.0662894,6.45715659 C14.6840254,7.60771316 15.2009442,8.65118516 15.2484574,9.00226402 L15.2487003,9.00222352 C15.2489028,9.00360035 15.2491458,9.00544962 15.2494428,9.01063299 C15.2503741,9.01866448 15.251157,9.02641251 15.251562,9.03364762 L15.2502796,9.03371511 C15.2517375,9.08922025 15.2536137,9.24825728 15.2546666,9.72503168 C15.2560839,10.3641894 15.2577712,11.6147128 15.259175,14.0632031 L16.6903465,14.9038785 C16.7704321,14.9510687 16.8388684,15.0128773 16.8922406,15.0849585 C16.9456804,15.1571204 16.9849067,15.2407292 17.0066253,15.3313837 L17.0066273,15.3313714 Z M7.08221589,15.5315918 L7.08187843,15.5317942 L7.08195942,15.5319292 L7.08221589,15.5315918 Z M6.06933017,19.8042775 L6.06893872,19.8059243 L6.06946515,19.8059918 L6.06933017,19.8042775 Z M6.06893872,19.8059243 L6.06773737,19.8109052 L6.06773737,19.812336 C6.06627955,19.8183563 6.06854727,19.8095148 6.06953265,19.8065047 L6.06946515,19.8059918 L6.06893872,19.8059243 Z M17.3380016,19.8105947 L17.3380016,19.8105407 L17.3371917,19.808003 L17.3370297,19.808003 L17.3380016,19.8105947 Z M17.3364493,19.8056273 C17.3370297,19.8085564 17.3375021,19.8110131 17.3369487,19.8080435 C17.3369082,19.807841 17.3369487,19.807841 17.3370297,19.80803 L17.3371917,19.808003 L17.3364493,19.8056273 Z" id="Shape" fill="#212121" fill-rule="nonzero"></path>
                </g>
            </g>
        </g>
    </g>
</svg>