<?xml version="1.0" encoding="UTF-8"?>
<svg width="24px" height="24px" viewBox="0 0 24 24" version="1.1" xmlns="http://www.w3.org/2000/svg" xmlns:xlink="http://www.w3.org/1999/xlink">
    <!-- Generator: Sketch 49.2 (51160) - http://www.bohemiancoding.com/sketch -->
    <title>rocket-launched</title>
    <desc>Created with Sketch.</desc>
    <defs></defs>
    <g id="rocket-launched" stroke="none" stroke-width="1" fill="none" fill-rule="evenodd">
        <g id="Group">
            <g id="Layer_x0020_1">
                <g>
                    <g id="_258299192">
                        <rect id="_258299072" x="0" y="0" width="23.4056914" height="23.4056914"></rect>
                        <rect id="_258299288" x="2.92570629" y="2.92570629" width="17.5542857" height="17.5542857"></rect>
                    </g>
                    <path d="M11.9374629,3.75589714 C13.628328,6.799416 13.5476229,8.76054857 13.4312811,11.5877829 C13.3999111,12.350088 13.3658277,13.1781394 13.3658277,14.1539349 L13.3658277,14.5196571 L13.0001054,14.5196571 L10.2376882,14.5196571 L9.87196594,14.5196571 L9.87196594,14.1539349 C9.87196594,13.2378309 9.83912455,12.4459543 9.80844274,11.7055303 C9.69227623,8.90361943 9.6053472,6.80678743 11.300317,3.75587314 L11.6188906,3.18245143 L11.9374642,3.75587314 L11.9374629,3.75589714 Z M12.702696,11.5592229 C12.8060661,9.04755086 12.8797937,7.24957714 11.6193874,4.71596571 C10.3547451,7.27343657 10.4336811,9.18414857 10.5370251,11.67696 C10.5646022,12.3421714 10.5938397,13.0471337 10.6014929,13.7882057 L12.6361478,13.7882057 C12.6437068,12.9926434 12.674267,12.2500457 12.7026943,11.559216 L12.702696,11.5592229 Z" id="Shape" fill="#212121" fill-rule="nonzero"></path>
                    <path d="M13.2457714,12.4641257 L16.8465943,15.2465589 L16.6237371,15.9008503 L6.61405714,15.9008503 L6.3912,15.2465589 L9.99044571,12.4653531 L10.5546891,12.0293451 L10.5775958,12.742488 C10.5845744,12.9599592 10.5906621,13.1880274 10.5951571,13.4308869 C10.5974923,13.5576226 10.5994091,13.6772311 10.6007994,13.7882023 L12.6368977,13.7882023 C12.638207,13.6767603 12.6400023,13.5561528 12.6422025,13.4278526 C12.6463465,13.1874747 12.6520293,12.9601097 12.6586435,12.7426903 L12.6804027,12.02724 L13.2457947,12.4641257 L13.2457714,12.4641257 Z M15.5541463,15.1694023 L13.3700777,13.4817223 C13.3673781,13.6560936 13.3658257,13.8753463 13.3658257,14.1539246 L13.3658257,14.5196469 L13.0001035,14.5196469 L10.2376863,14.5196469 L9.87196402,14.5196469 L9.87196402,14.1539246 C9.87196402,13.878721 9.87022274,13.6596309 9.8672531,13.4820857 L7.68364395,15.1694023 L15.5541354,15.1694023 L15.5541463,15.1694023 Z" id="Shape" fill="#212121" fill-rule="nonzero"></path>
                    <path d="M15.3072,8.31822857 C16.3239189,10.1482903 16.2756651,11.3208891 16.2061063,13.0112914 C16.1879105,13.4535634 16.1681355,13.9340229 16.1681355,14.5173394 L16.1681355,14.8830617 L15.8024133,14.8830617 L15.3065801,14.8830617 L15.083723,14.8059055 L13.9355698,13.9187009 L13.7999386,13.8139001 L13.7941344,13.6415671 C13.7881141,13.4632138 13.7800556,13.2692174 13.7722671,13.0808071 C13.7028317,11.4060562 13.6508902,10.1527111 14.6700523,8.3182128 L14.9886125,7.74479109 L15.3071998,8.3182128 L15.3072,8.31822857 Z M15.4775218,12.9827314 C15.5334723,11.6231143 15.5744534,10.624008 14.9894647,9.30929143 C14.4012075,10.644624 14.4448361,11.7011109 14.5008521,13.0522629 C14.5060625,13.1781885 14.5113943,13.306571 14.5165911,13.446144 L15.4295889,14.1516343 L15.4397261,14.1516343 C15.4462863,13.7422183 15.4624032,13.3502263 15.4775213,12.9827486 L15.4775218,12.9827314 Z" id="Shape" fill="#212121" fill-rule="nonzero"></path>
                    <path d="M8.13744,9.44307429 C7.55247771,10.7577703 7.593432,11.7568731 7.64938286,13.11648 C7.66401504,13.4720811 7.67957859,13.8505989 7.68651669,14.2456663 L8.61221726,13.5303634 C8.61688766,13.4077176 8.6215176,13.2959246 8.62606653,13.1861691 C8.68207087,11.835 8.72569773,10.7784343 8.13744024,9.44306057 L8.13744,9.44307429 Z M6.92079771,13.14504 C6.85124091,11.454648 6.80298446,10.2820629 7.819704,8.45201143 L8.13829131,7.87858971 L8.45685154,8.45201143 C9.47602869,10.2865131 9.42407211,11.539968 9.3546504,13.2147429 C9.3474288,13.3890062 9.34000474,13.5677657 9.33448392,13.7259634 L9.32846366,13.8984583 L9.19304846,14.0030973 L7.9809936,14.9396767 L7.75813646,15.0168329 L7.32449074,15.0168329 L6.95876846,15.0168329 L6.95876846,14.6511106 C6.95876846,14.0677666 6.93899342,13.5873346 6.92079771,13.1450489 L6.92079771,13.14504 Z" id="Shape" fill="#212121" fill-rule="nonzero"></path>
                    <circle id="Oval" fill="#212121" cx="11.6194629" cy="7.93851429" r="1"></circle>
                    <polygon id="Shape" fill="#66BB6A" fill-rule="nonzero" points="10.87968 16.0876114 10.87968 17.4688114 10.1482286 17.4688114 10.1482286 16.0876114"></polygon>
                    <polygon id="Shape" fill="#66BB6A" fill-rule="nonzero" points="13.0896 16.0876114 13.0896 17.4688114 12.3581486 17.4688114 12.3581486 16.0876114"></polygon>
                    <polygon id="Shape" fill="#66BB6A" fill-rule="nonzero" points="11.9846743 16.0876114 11.9846743 17.0757257 11.2532229 17.0757257 11.2532229 16.0876114"></polygon>
                    <path d="M6.27809143,16.0487657 C6.15991371,15.9488781 6.02763017,15.8659042 5.88469714,15.8034744 C5.69684126,15.7214181 5.489088,15.676091 5.26948457,15.676091 C4.82668457,15.676091 4.42555543,15.864217 4.13505943,16.1683618 C3.839784,16.4775003 3.65713714,16.906259 3.65713714,17.3813081 C3.65713714,17.8563401 3.83978297,18.2850864 4.13505943,18.5942133 C4.42555646,18.8983574 4.82668457,19.0864841 5.26948457,19.0864841 C9.55838743,19.0864841 13.8472903,19.0864841 18.1361931,19.0864841 C18.5789931,19.0864841 18.9801223,18.8983581 19.2706183,18.5942133 C19.5658937,18.2850885 19.7485406,17.8563401 19.7485406,17.3813081 C19.7485406,16.9062624 19.5658947,16.4775024 19.2706183,16.1683618 C18.9801213,15.8642177 18.5789931,15.676091 18.1361931,15.676091 C17.916589,15.676091 17.7088354,15.7214184 17.5209806,15.8034744 C17.3780469,15.8659042 17.2457633,15.9488781 17.1275863,16.0487657 L17.3875502,15.0727029 C17.6237301,14.9896478 17.8755422,14.9446443 18.1361925,14.9446443 C18.7858107,14.9446443 19.3737867,15.2201181 19.7991833,15.6654946 C20.2198039,16.1058638 20.4799845,16.7126112 20.4799845,17.3813061 C20.4799845,18.0499838 20.2198046,18.6567209 19.7991833,19.0970763 C19.3737833,19.5424546 18.7858107,19.8179266 18.1361925,19.8179266 C13.8472896,19.8179266 9.55838674,19.8179266 5.26948389,19.8179266 C4.6198656,19.8179266 4.0318896,19.5424529 3.60649303,19.0970763 C3.18587246,18.6567209 2.92569189,18.0499838 2.92569189,17.3813061 C2.92569189,16.7126146 3.18587177,16.1058638 3.60649303,15.6654946 C4.03189303,15.2201163 4.6198656,14.9446443 5.26948389,14.9446443 C5.53013623,14.9446443 5.78194903,14.9896478 6.01812617,15.0727029 L6.27809006,16.0487657 L6.27809143,16.0487657 Z" id="Shape" fill="#66BB6A" fill-rule="nonzero"></path>
                </g>
            </g>
        </g>
    </g>
</svg>