<?xml version="1.0" encoding="UTF-8"?>
<svg width="24px" height="24px" viewBox="0 0 24 24" version="1.1" xmlns="http://www.w3.org/2000/svg" xmlns:xlink="http://www.w3.org/1999/xlink">
    <!-- Generator: Sketch 49.2 (51160) - http://www.bohemiancoding.com/sketch -->
    <title>satellite</title>
    <desc>Created with Sketch.</desc>
    <defs></defs>
    <g id="satellite" stroke="none" stroke-width="1" fill="none" fill-rule="evenodd">
        <g id="Group">
            <g id="Layer_x0020_1">
                <g>
                    <g id="_259446912">
                        <rect id="_259447080" x="0" y="0" width="23.4056914" height="23.4056914"></rect>
                        <rect id="_259446936" x="2.92570629" y="2.92570629" width="17.5542857" height="17.5542857"></rect>
                    </g>
                    <path d="M13.5255429,7.80349714 L15.5902183,9.73819543 C15.723433,9.86304137 15.7935298,10.0314329 15.7990505,10.2021051 C15.8045848,10.3722785 15.7452734,10.5449218 15.619739,10.6788789 L10.9342875,15.6790731 C10.8094416,15.8122879 10.6410501,15.8823442 10.4703641,15.8879054 C10.3001774,15.8934127 10.1275203,15.8340741 9.99361783,15.7085938 L7.9289424,13.7738955 C7.7957544,13.6490901 7.72567131,13.4806989 7.72011017,13.3099858 C7.71457587,13.1398395 7.77387394,12.9671825 7.89942171,12.8332121 L12.5848389,7.83301783 C12.7096982,7.69978937 12.8780626,7.62969291 13.0487623,7.62417189 C13.218949,7.61866457 13.3915656,7.67798983 13.5255223,7.8034968 L13.5255429,7.80349714 Z M15.0439269,10.2262423 L13.0729029,8.37930857 L8.47525714,13.2858343 L10.4462674,15.1327543 L15.0439474,10.2262286 L15.0439269,10.2262423 Z" id="Shape" fill="#66BB6A" fill-rule="nonzero"></path>
                    <path d="M7.40550857,13.7080114 L10.0087543,16.1473851 L10.1684935,16.2970543 L10.1116114,16.5073851 L9.69306857,18.0550629 L9.53420709,18.6425246 L9.09020709,18.2264914 L5.47501851,14.8388606 L5.06445394,14.4541303 L5.58501737,14.2359977 L7.01551337,13.6365771 L7.23233691,13.54572 L7.40552023,13.7080101 L7.40550857,13.7080114 Z M9.349008,16.5291326 L7.07868686,14.4017314 L6.38558743,14.6921613 L9.14622171,17.2790184 L9.34900697,16.5291315 L9.349008,16.5291326 Z" id="Shape" fill="#66BB6A" fill-rule="nonzero"></path>
                    <polygon id="Shape" fill="#66BB6A" fill-rule="nonzero" points="7.79835429 16.5169714 6.58844571 17.8081371 6.05701714 17.3081143 7.26692571 16.0169486"></polygon>
                    <path d="M15.1138971,12.4593257 L20.7949371,17.7827314 L21.060611,18.0316807 L20.8106493,18.2984479 L18.874871,20.3642822 L18.625908,20.629956 L18.3591545,20.3799943 L12.6781145,15.0565543 L12.4124273,14.8075913 L12.6624024,14.5408378 L14.5981807,12.4750173 L14.8471299,12.2093301 L15.1138971,12.4593051 L15.1138971,12.4593257 Z M20.0292686,18.0652114 L14.8806857,13.2406971 L13.443816,14.7740777 L18.5923989,19.598592 L20.0292686,18.0652114 Z" id="Shape" fill="#212121" fill-rule="nonzero"></path>
                    <polygon id="Shape" fill="#212121" fill-rule="nonzero" points="16.3685486 14.1360686 14.4327771 16.2018857 13.9013486 15.7018629 15.83712 13.6360457"></polygon>
                    <polygon id="Shape" fill="#212121" fill-rule="nonzero" points="17.9700686 15.6367543 16.0342971 17.7026057 15.5028686 17.2026171 17.43864 15.1367657"></polygon>
                    <polygon id="Shape" fill="#212121" fill-rule="nonzero" points="19.5716229 17.1375086 17.6358171 19.2033257 17.1043886 18.7033029 19.0401943 16.6374857"></polygon>
                    <polygon id="Shape" fill="#212121" fill-rule="nonzero" points="14.2739314 13.6121143 19.8270514 18.8156571 19.3270286 19.3470857 13.7739086 14.1435429"></polygon>
                    <path d="M5.04658286,3.02571429 L10.7276229,8.34912 L10.9933101,8.59808297 L10.743335,8.86483646 L8.80754297,10.9306707 L8.55859371,11.1963579 L8.29182651,10.9463829 L2.61078651,5.62294286 L2.34511269,5.3739936 L2.5950744,5.1072264 L4.53085269,3.04140583 L4.77981566,2.775732 L5.04656914,3.02569371 L5.04658286,3.02571429 Z M9.96195429,8.6316 L4.81337143,3.80708571 L3.37650171,5.34046629 L8.52508457,10.1649806 L9.96195429,8.63158629 L9.96195429,8.6316 Z" id="Shape" fill="#212121" fill-rule="nonzero"></path>
                    <polygon id="Shape" fill="#212121" fill-rule="nonzero" points="6.30123429 4.70242286 4.36546286 6.76827429 3.83403429 6.26825143 5.76980571 4.20243429"></polygon>
                    <polygon id="Shape" fill="#212121" fill-rule="nonzero" points="7.90278857 6.20317714 5.96698286 8.26899429 5.43555429 7.76897143 7.37136 5.70315429"></polygon>
                    <polygon id="Shape" fill="#212121" fill-rule="nonzero" points="9.50430857 7.70386286 7.56853714 9.76971429 7.03710857 9.26972571 8.97288 7.20387429"></polygon>
                    <polygon id="Shape" fill="#212121" fill-rule="nonzero" points="4.20661714 4.17850286 9.75973714 9.38204571 9.25971429 9.91347429 3.70662857 4.70993143"></polygon>
                </g>
            </g>
        </g>
    </g>
</svg>