<?xml version="1.0" encoding="UTF-8"?>
<svg width="24px" height="24px" viewBox="0 0 24 24" version="1.1" xmlns="http://www.w3.org/2000/svg" xmlns:xlink="http://www.w3.org/1999/xlink">
    <!-- Generator: Sketch 49.2 (51160) - http://www.bohemiancoding.com/sketch -->
    <title>satellite-2</title>
    <desc>Created with Sketch.</desc>
    <defs></defs>
    <g id="satellite-2" stroke="none" stroke-width="1" fill="none" fill-rule="evenodd">
        <g id="Group">
            <g id="Layer_x0020_1">
                <g>
                    <g id="_258305624">
                        <rect id="_258305432" x="0" y="0" width="23.4056914" height="23.4056914"></rect>
                        <rect id="_258305360" x="2.92570629" y="2.92570629" width="17.5542857" height="17.5542857"></rect>
                    </g>
                    <path d="M12.96216,8.17117714 L18.5095543,13.31808 L18.7766722,13.5659091 L18.5281279,13.8337968 C17.3073953,15.1495042 15.7203165,15.9733454 14.0413965,16.2586608 C12.3639199,16.5437181 10.5946536,16.2902604 9.00784217,15.4516505 C7.07110389,14.4281397 5.73250389,12.7163397 5.13400217,10.7762105 C4.53561017,8.83650309 4.67708331,6.66867909 5.70026846,4.73259909 C5.86192423,4.42671394 6.04385589,4.13128937 6.24472217,3.84814766 C6.44532069,3.5654256 6.6638856,3.29637737 6.89906503,3.04287909 L7.14689417,2.77576114 L7.41478183,3.02430549 L12.9621761,8.17120834 L12.96216,8.17117714 Z M17.7385029,13.5982286 L12.4650171,8.70545143 L7.19221714,3.81332571 C7.06814057,3.96136183 6.95030023,4.11402754 6.838968,4.270944 C6.65802309,4.52599474 6.49327543,4.79374629 6.34594286,5.07254057 C5.41639543,6.83148 5.28771429,8.80046057 5.83110514,10.5618891 C6.37435886,12.3229063 7.589544,13.8767383 9.34782514,14.8059463 C10.7891211,15.5676411 12.3967166,15.7977634 13.9214023,15.5386629 C15.3302091,15.2992567 16.668216,14.6412411 17.7385337,13.5982389 L17.7385029,13.5982286 Z" id="Shape" fill="#212121" fill-rule="nonzero"></path>
                    <path d="M11.8066286,16.6854514 L11.8066286,20.1142286 L11.8066286,20.4799509 L11.4409063,20.4799509 L9.17781943,20.4799509 L8.81209714,20.4799509 L8.81209714,20.1142286 L8.81209714,15.7616229 C8.82039861,15.7660503 8.82863256,15.7705587 8.83694753,15.7749592 C9.06764719,15.8968761 9.3035041,16.0073865 9.54354525,16.1064643 L9.54354525,19.7484986 L11.0751841,19.7484986 L11.0751841,16.5717523 C11.3171819,16.6204408 11.5612595,16.6583711 11.8066321,16.6854352 L11.8066286,16.6854514 Z" id="Shape" fill="#66BB6A" fill-rule="nonzero"></path>
                    <polygon id="Shape" fill="#66BB6A" fill-rule="nonzero" points="6.44468571 19.7485029 14.1740571 19.7485029 14.1740571 20.4799543 6.44468571 20.4799543"></polygon>
                    <polygon id="Shape" fill="#212121" fill-rule="nonzero" points="12.6524914 8.38957714 15.46008 5.69461714 15.9657943 6.22032 13.1582057 8.91528"></polygon>
                    <path d="M16.2842057,3.83506286 C16.6990491,3.83506286 17.0746526,4.0032384 17.3465246,4.27513371 C17.6184209,4.54700331 17.7865954,4.92260571 17.7865954,5.33745257 C17.7865954,5.75226857 17.6184199,6.12788571 17.3465246,6.39978171 C17.0746282,6.67167806 16.6990114,6.83985257 16.2842057,6.83985257 C15.8693897,6.83985257 15.4937726,6.67167703 15.2218766,6.39978171 C14.9499802,6.12788537 14.7818057,5.75226857 14.7818057,5.33745257 C14.7818057,4.92260914 14.9499813,4.54700571 15.2218766,4.27513371 C15.4937729,4.00323737 15.8693897,3.83506286 16.2842057,3.83506286 Z M16.829376,4.79228229 C16.6898979,4.65280423 16.4971286,4.56650949 16.2842057,4.56650949 C16.0712832,4.56650949 15.8785131,4.65279086 15.7390217,4.79228229 C15.5995437,4.93176034 15.5132489,5.12452971 15.5132489,5.33745257 C15.5132489,5.55037509 15.5995303,5.74314514 15.7390217,5.88263657 C15.8785131,6.022128 16.0712825,6.10840937 16.2842057,6.10840937 C16.4971282,6.10840937 16.6898846,6.022128 16.829376,5.88263657 C16.9688674,5.74314514 17.0551488,5.55037577 17.0551488,5.33745257 C17.0551488,5.12453006 16.9688541,4.93176 16.829376,4.79228229 Z" id="Shape" fill="#212121" fill-rule="nonzero"></path>
                </g>
            </g>
        </g>
    </g>
</svg>