<?xml version="1.0" encoding="UTF-8"?>
<svg width="24px" height="24px" viewBox="0 0 24 24" version="1.1" xmlns="http://www.w3.org/2000/svg" xmlns:xlink="http://www.w3.org/1999/xlink">
    <!-- Generator: Sketch 49.2 (51160) - http://www.bohemiancoding.com/sketch -->
    <title>saturn</title>
    <desc>Created with Sketch.</desc>
    <defs></defs>
    <g id="saturn" stroke="none" stroke-width="1" fill="none" fill-rule="evenodd">
        <g id="Group">
            <g id="Layer_x0020_1">
                <g>
                    <g id="_350176760">
                        <rect id="_350177360" x="0" y="0" width="23.4056914" height="23.4056914"></rect>
                        <rect id="_350177504" x="2.92570629" y="2.92570629" width="17.5542857" height="17.5542857"></rect>
                    </g>
                    <path d="M11.51592,6.21658286 C13.1653611,6.21658286 14.65872,6.88520914 15.73968,7.96616571 C16.82064,9.04712571 17.4892629,10.5404709 17.4892629,12.1899257 C17.4892629,12.4640763 17.4706892,12.7338686 17.4349186,12.9982183 C17.3921153,13.0244995 17.3495822,13.0502273 17.307481,13.0753341 C17.0781178,13.2120991 16.8422205,13.3422631 16.6012776,13.4661226 C16.7034597,13.0575946 16.7578176,12.6301169 16.7578176,12.1899261 C16.7578176,10.7423798 16.1710862,9.43188377 15.2225342,8.48333177 C14.2739822,7.53477977 12.963469,6.94804834 11.5159399,6.94804834 C10.0683936,6.94804834 8.7578976,7.53477977 7.8093456,8.48333177 C6.8607936,9.43188377 6.27406217,10.7423832 6.27406217,12.1899261 C6.27406217,13.4839546 6.74299474,14.6684335 7.52010446,15.5827546 C7.38343406,15.580001 7.2474384,15.5753036 7.11232046,15.5684599 C6.96267806,15.5608739 6.7724736,15.5476455 6.56017303,15.5256837 C5.91770674,14.5731065 5.5426176,13.4252928 5.5426176,12.1899271 C5.5426176,10.540486 6.21124389,9.04714083 7.29220046,7.96616712 C8.37316046,6.88520712 9.8665056,6.21658426 11.5159605,6.21658426 L11.51592,6.21658286 Z M16.7867314,15.0026397 C16.5079642,15.5239714 16.15416,15.9991543 15.7396663,16.4136446 C14.6587063,17.4945909 13.1653474,18.1632137 11.5159063,18.1632137 C10.2172731,18.1632137 9.01546629,17.7486686 8.03542629,17.044824 C8.47776686,17.0386283 8.92477714,17.0146418 9.372744,16.9749974 C10.027008,17.2684776 10.7523806,17.4317654 11.5159131,17.4317654 C12.9634594,17.4317654 14.2739554,16.8450477 15.2225074,15.8964957 C15.3400642,15.7789389 15.4520599,15.6557938 15.5580754,15.5275471 C15.9739851,15.3669576 16.3851977,15.1923165 16.7867314,15.0026397 Z" id="Shape" fill="#212121" fill-rule="nonzero"></path>
                    <path d="M16.7650286,8.63468571 C17.5172091,8.69820891 18.1838366,8.827428 18.7324217,9.02065714 C19.4429177,9.2709024 19.9702183,9.63399429 20.2529246,10.1081211 C20.3275567,10.2332911 20.3832778,10.3620514 20.4206815,10.4937943 C20.5877637,11.0821851 20.396749,11.7125829 19.9082849,12.3386366 C19.4655261,12.90612 18.7678255,13.4792434 17.8690666,14.0151669 C16.7141901,14.7038229 15.2171078,15.3392434 13.4961981,15.8279109 C11.1842609,16.4844 8.89371806,16.755192 7.05950091,16.6622811 C5.14108149,16.5651069 3.68724377,16.0568023 3.15278091,15.1604983 C3.13157506,15.1249303 3.14485742,15.1488627 3.13582704,15.1330697 L3.13582704,15.1316389 C2.77823047,14.5055612 2.88319275,13.809304 3.36747161,13.1065017 C3.75106704,12.5497909 4.38550018,11.9838606 5.22003504,11.4491097 C5.19149962,11.6935371 5.17688098,11.9408115 5.17688098,12.1899246 C5.17688098,12.2459697 5.17760989,12.301947 5.17908121,12.35783 C4.64164578,12.745934 4.23013492,13.1395854 3.96747206,13.5207911 C3.64973538,13.9819065 3.56609949,14.4132585 3.76950566,14.7705603 L3.77011309,14.7702093 C3.78741791,14.800486 3.76591511,14.7651069 3.77850904,14.7862183 C4.18001533,15.4595692 5.41758218,15.8487909 7.09379018,15.933696 C8.85418676,16.022866 11.0617102,15.7603505 13.2990588,15.1250537 C14.958285,14.653896 16.394181,14.0457292 17.4948073,13.3894423 C18.3175959,12.8988206 18.9468896,12.3862217 19.3340062,11.8900629 C19.6754326,11.4524743 19.8172873,11.0411692 19.717845,10.6909543 C19.6975706,10.6195481 19.6674694,10.5499104 19.6272173,10.4824053 C19.436432,10.1624414 19.0408253,9.90339499 18.4895796,9.70923499 C18.123871,9.58043419 17.6959853,9.4830031 17.2180664,9.41757705 C17.0863362,9.14686836 16.9350608,8.88522962 16.7650493,8.63468676 L16.7650286,8.63468571 Z" id="Shape" fill="#66BB6A" fill-rule="nonzero"></path>
                    <path d="M16.9544229,5.24245714 C17.3111554,5.24245714 17.634144,5.38709143 17.8679349,5.620896 C18.1017391,5.85468686 18.2463737,6.17767543 18.2463737,6.534408 C18.2463737,6.89112686 18.1017394,7.21414286 17.8679349,7.44793371 C17.634144,7.68173794 17.3111554,7.82637257 16.9544229,7.82637257 C16.597704,7.82637257 16.274688,7.68173829 16.0408971,7.44793371 C15.8070929,7.21414286 15.6624583,6.89112686 15.6624583,6.534408 C15.6624583,6.17767543 15.8070926,5.85468686 16.0408971,5.620896 C16.274688,5.38709177 16.597704,5.24245714 16.9544229,5.24245714 Z M17.3507863,6.13804457 C17.249387,6.03663189 17.1092338,5.97390514 16.9544229,5.97390514 C16.7995971,5.97390514 16.6594443,6.03663189 16.5580457,6.13804457 C16.456633,6.23944389 16.3939063,6.37959703 16.3939063,6.534408 C16.3939063,6.68923371 16.456633,6.82938651 16.5580457,6.93078514 C16.659445,7.03219783 16.7995982,7.09492457 16.9544229,7.09492457 C17.1092349,7.09492457 17.249388,7.03219783 17.3507863,6.93078514 C17.452199,6.82938583 17.5149257,6.68923269 17.5149257,6.534408 C17.5149257,6.379596 17.452199,6.23944286 17.3507863,6.13804457 Z" id="Shape" fill="#212121" fill-rule="nonzero"></path>
                    <path d="M4.73451429,8.20659429 C5.03196309,8.20659429 5.30132229,8.32720183 5.49629143,8.52218469 C5.69126091,8.7171408 5.81188183,8.98648526 5.81188183,9.28396183 C5.81188183,9.58141063 5.69127429,9.85076983 5.49629143,10.045739 C5.30132194,10.2407222 5.03196343,10.3613294 4.73451429,10.3613294 C4.4370384,10.3613294 4.16769257,10.2407085 3.97273714,10.045739 C3.77775394,9.85076949 3.65714674,9.58141097 3.65714674,9.28396183 C3.65714674,8.98648594 3.77776766,8.71714011 3.97273714,8.52218469 C4.16769326,8.3272152 4.43703771,8.20659429 4.73451429,8.20659429 Z M4.97914423,9.03933257 C4.91657966,8.97675429 4.83006891,8.93804126 4.73451429,8.93804126 C4.63895966,8.93804126 4.55244891,8.97675429 4.48988434,9.03933257 C4.42730606,9.10189714 4.38859303,9.18840789 4.38859303,9.28396251 C4.38859303,9.37951714 4.42730606,9.46602789 4.48988434,9.52859246 C4.55244891,9.59117074 4.63895966,9.62988377 4.73451429,9.62988377 C4.83006891,9.62988377 4.91657966,9.59117074 4.97914423,9.52859246 C5.04172251,9.46602789 5.08043554,9.37951714 5.08043554,9.28396251 C5.08043554,9.18840789 5.04172251,9.10189714 4.97914423,9.03933257 Z" id="Shape" fill="#212121" fill-rule="nonzero"></path>
                </g>
            </g>
        </g>
    </g>
</svg>