<?xml version="1.0" encoding="UTF-8"?>
<svg width="24px" height="24px" viewBox="0 0 24 24" version="1.1" xmlns="http://www.w3.org/2000/svg" xmlns:xlink="http://www.w3.org/1999/xlink">
    <!-- Generator: Sketch 49.2 (51160) - http://www.bohemiancoding.com/sketch -->
    <title>shopchain</title>
    <desc>Created with Sketch.</desc>
    <defs></defs>
    <g id="shopchain" stroke="none" stroke-width="1" fill="none" fill-rule="evenodd">
        <g id="bshop" transform="translate(0.000000, 1.000000)" fill="#4A4A4A">
            <path d="M17.9401716,0 L8.89120785,0 C4.84618443,0 2.43354783,4.52091554 4.67725643,7.89603876 L4.67732649,7.89603876 L7.16591413,4.15259253 L7.16605426,4.15287359 L17.7383828,4.15287359 C19.3489793,4.15287359 20.3096478,5.95296272 19.4162422,7.29682879 L14.3361406,14.9385125 L16.8246582,18.6818182 L22.9737496,9.43200615 C25.6540366,5.40033768 22.7720309,0 17.9401716,0" id="Fill-1"></path>
            <path d="M16.8340178,18.619924 L6.26159147,18.619924 C4.65099082,18.619924 3.69031977,16.8198348 4.58372774,15.4758985 L9.66384258,7.83421479 L7.17531849,4.09090909 L1.02621099,13.3407211 C-1.6540129,17.3724599 1.22800026,22.7727273 6.05987227,22.7727273 L15.1087896,22.7727273 C19.1537536,22.7727273 21.5664665,18.2518117 19.3227521,14.8766885 L16.8341579,18.6200645 L16.8340178,18.619924 Z" id="Fill-3"></path>
            <polygon id="Fill-5" points="9.68181818 7.77272727 9.68181818 4.09111642 7.22727273 4.09090909"></polygon>
            <polygon id="Fill-7" points="14.3181818 14.8636364 14.3181818 18.5452472 16.7727273 18.5454545"></polygon>
        </g>
    </g>
</svg>