<?xml version="1.0" encoding="UTF-8"?>
<svg width="24px" height="24px" viewBox="0 0 24 24" version="1.1" xmlns="http://www.w3.org/2000/svg" xmlns:xlink="http://www.w3.org/1999/xlink">
    <!-- Generator: Sketch 49.2 (51160) - http://www.bohemiancoding.com/sketch -->
    <title>solar-system</title>
    <desc>Created with Sketch.</desc>
    <defs></defs>
    <g id="solar-system" stroke="none" stroke-width="1" fill="none" fill-rule="evenodd">
        <g id="Group">
            <g id="Layer_x0020_1">
                <g>
                    <g id="_350185784">
                        <rect id="_350185640" x="0" y="0" width="23.4056914" height="23.4056914"></rect>
                        <rect id="_350185568" x="2.92570629" y="2.92570629" width="17.5542857" height="17.5542857"></rect>
                    </g>
                    <path d="M10.58232,9.62605714 C11.1858686,9.22568229 11.8939783,9.064824 12.5508994,9.12841371 C13.2243017,9.19359703 13.8473589,9.49332686 14.2603406,10.0120937 C14.2990536,10.060728 14.3357421,10.1112387 14.3703247,10.1633691 C14.6976048,10.65672 14.7879624,11.2344994 14.6657489,11.7915497 C14.5465317,12.3348446 14.2245569,12.85716 13.7235809,13.2559817 C13.6571287,13.3088681 13.5867487,13.3600941 13.5125482,13.4093091 C12.9090134,13.8096703 12.2008899,13.9705286 11.5439825,13.9069389 C10.8705802,13.8417555 10.2475231,13.5420257 9.83454137,13.0232589 C9.79581463,12.9745975 9.75912617,12.9241138 9.72454354,12.8719563 C9.39726343,12.3786055 9.30690583,11.8008501 9.42913303,11.2438032 C9.54833657,10.7005358 9.8702976,10.1782066 10.3712736,9.77939863 C10.4377125,9.72648514 10.5081058,9.67528629 10.5823197,9.62605783 L10.58232,9.62605714 Z M12.482328,9.85413806 C11.9843897,9.80594914 11.4459806,9.9289728 10.9851909,10.2346409 C10.9301719,10.2711405 10.876921,10.3099481 10.8255734,10.3508345 C10.4605265,10.6414395 10.2275311,11.0146539 10.1434077,11.3980882 C10.0622962,11.7677671 10.1201501,12.1480402 10.3331263,12.4690848 C10.355142,12.5023042 10.3794391,12.5356179 10.4059766,12.5689587 C10.690872,12.9268262 11.1311194,13.1346182 11.6125491,13.1812159 C12.1104737,13.2294048 12.6488966,13.1063949 13.1096726,12.8007267 C13.1646782,12.7642409 13.217929,12.7254062 13.2692767,12.6845469 C13.6343235,12.3939281 13.8673327,12.0207137 13.9514664,11.6372657 C14.0325778,11.2675731 13.9747105,10.8873 13.7617341,10.5662417 C13.7397183,10.5330494 13.715435,10.4997219 13.6888971,10.4663949 C13.4040017,10.1085274 12.9637543,9.90073543 12.4823246,9.85413771 L12.482328,9.85413806 Z" id="Shape" fill="#212121" fill-rule="nonzero"></path>
                    <path d="M9.52926857,8.30324571 C10.5762926,7.60868914 11.8037897,7.32955886 12.9418834,7.43971886 C14.0964891,7.55149851 15.1625589,8.06266629 15.8663486,8.94670971 C15.9322742,9.02953543 15.9943529,9.11493909 16.0525173,9.20263783 C16.6049081,10.0353487 16.7570338,11.0122755 16.5500784,11.9554584 C16.3461593,12.8848858 15.7929435,13.7803224 14.9311173,14.4664413 C14.8155583,14.5584322 14.6936955,14.6471297 14.5656384,14.7320746 C13.5186144,15.4266312 12.2911173,15.7057615 11.1530338,15.5956015 C9.9984144,15.4838218 8.93234469,14.9726403 8.2285584,14.0886106 C8.1626328,14.0057986 8.1005808,13.920408 8.04240309,13.8327096 C7.88308251,13.5925341 7.75711611,13.3403462 7.66339851,13.0804365 C7.92089246,13.1679055 8.21491166,13.1910686 8.47431051,13.1231181 C8.52604971,13.2277299 8.58486171,13.3301551 8.65098994,13.4298401 C8.69660057,13.4986005 8.74626103,13.5668211 8.79999771,13.6343126 C9.37569943,14.3574429 10.2589749,14.7766886 11.221608,14.8698806 C12.2007223,14.9646521 13.2584914,14.7233565 14.1627703,14.1234909 C14.2716343,14.0512749 14.3763809,13.9749689 14.4768219,13.895005 C15.2027191,13.3171022 15.6669545,12.5707536 15.8358048,11.801173 C16.0016451,11.0453616 15.8820367,10.265917 15.4439362,9.60550903 C15.3983256,9.53673497 15.3486518,9.46851463 15.2949147,9.40100949 C14.7192267,8.67786549 13.8359376,8.25863349 12.8733182,8.16544149 C11.8941902,8.07066994 10.8364245,8.3119656 9.93214217,8.9118312 C9.82329189,8.9840472 9.718572,9.06033977 9.61813097,9.14029029 C8.90813211,9.70553143 8.44850126,10.4319017 8.27068869,11.1835851 C8.04497006,11.0957517 7.78505897,11.0580645 7.54264526,11.0901093 L7.54483198,11.079864 C7.74877815,10.1504092 8.30199427,9.25497261 9.16383427,8.56885375 C9.27937987,8.47687615 9.40122924,8.38819238 9.52927541,8.30324746 L9.52926857,8.30324571 Z" id="Shape" fill="#212121" fill-rule="nonzero"></path>
                    <path d="M8.68121143,6.84922286 C9.63682286,6.25856229 10.6867646,5.90293714 11.7345977,5.77313829 C12.6554263,5.65909097 13.5769406,5.71971189 14.4337337,5.94853543 C14.346467,6.03928457 14.2678529,6.13805177 14.2002535,6.24412149 C14.1284019,6.35685943 14.0702784,6.4762656 14.0278666,6.59961291 C13.3246872,6.44072434 12.5752323,6.40572309 11.8231752,6.4988616 C10.9320689,6.60925097 10.0398723,6.89984331 9.21913406,7.3775736 C9.0905088,7.16334171 8.8956336,6.97879303 8.68121177,6.84922389 L8.68121143,6.84922286 Z M7.62193029,8.67633943 C6.98274514,9.39790629 6.56038286,10.2243531 6.37478057,11.0702263 C6.12421131,12.2121977 6.3056016,13.3908034 6.96881486,14.390568 C7.03802057,14.494883 7.11307131,14.5980237 7.19402057,14.6997065 C7.33501029,14.8768042 7.48786526,15.0414165 7.651032,15.1933934 L7.67319624,15.2138973 C7.65734921,15.2312156 7.64173166,15.2487501 7.62645144,15.2665001 C7.48147944,15.4348917 7.3591175,15.6264316 7.26880001,15.8315939 C7.2299519,15.7974971 7.19165715,15.7628606 7.15388904,15.7276838 C6.96365715,15.5504915 6.7859519,15.3592084 6.62258047,15.1540049 C6.52944195,15.0370286 6.44200001,14.9167046 6.36022721,14.7934392 C5.5827095,13.6213547 5.36883178,12.2452667 5.66050035,10.9159307 C5.86991304,9.96158781 6.34029007,9.03202666 7.0495175,8.22188266 C7.2026423,8.41480049 7.40770721,8.57398666 7.62192778,8.67632952 L7.62193029,8.67633943 Z M10.4196583,16.5039737 C11.0959234,16.6155912 11.8056926,16.616509 12.512544,16.5031503 C13.4463977,16.3533595 14.3754069,16.00382 15.2158526,15.4463 C15.3517941,15.3561043 15.4832273,15.2618323 15.6100183,15.1638073 C15.7552063,15.3429571 15.948313,15.4899941 16.150152,15.5831731 C16.1724512,15.5934723 16.1952093,15.6032046 16.2183051,15.6124644 C16.1919024,15.6340887 16.1653917,15.6556456 16.1385706,15.6769864 C15.9739587,15.8080414 15.8005999,15.9342238 15.6187238,16.0548835 C14.6904586,16.6706618 13.6621581,17.0570926 12.6268221,17.2231486 C11.7603638,17.3621138 10.8891432,17.3465234 10.0673523,17.1817627 C10.2215842,16.9786942 10.3437573,16.7480347 10.4196586,16.5039718 L10.4196583,16.5039737 Z M16.9390869,13.7589017 C17.321184,13.1937806 17.5841726,12.5846846 17.720112,11.9651383 C17.9707083,10.8231394 17.7893043,9.64453371 17.1260914,8.64476914 C17.0569125,8.54046754 16.9818483,8.4373272 16.9009125,8.33567143 C16.8435583,8.26363097 16.784665,8.19407417 16.724341,8.12700103 C16.931999,7.99747131 17.119357,7.83411463 17.2694702,7.64204674 C17.3397288,7.71999943 17.4074095,7.79978811 17.4723497,7.88137166 C17.5654745,7.99833463 17.6529168,8.11864491 17.7346759,8.24189966 C18.5121936,9.41398423 18.726085,10.7900962 18.434389,12.1194082 C18.2762969,12.8398814 17.9695056,13.5462459 17.5234965,14.1977431 C17.3783222,14.0185934 17.1852151,13.8715697 16.9833765,13.7783911 C16.9687983,13.7716554 16.9540176,13.7651762 16.9390886,13.758886 L16.9390869,13.7589017 Z" id="Shape" fill="#212121" fill-rule="nonzero"></path>
                    <path d="M7.42309714,5.65769143 C9.35708229,4.37475771 11.6233029,3.85904229 13.7237829,4.06239429 C15.8407783,4.2673392 17.7929143,5.20141029 19.0782857,6.81599657 C19.1986231,6.96713726 19.3114557,7.12236789 19.4168235,7.28120229 C20.4194373,8.79262286 20.6950875,10.5678651 20.3186715,12.2833509 C19.9452693,13.9850571 18.9296133,15.62676 17.3460727,16.887408 C17.1323541,17.0575543 16.9074864,17.2212483 16.6717378,17.3776389 C14.7377527,18.6605726 12.4715321,19.176288 10.3710521,18.972936 C8.25405669,18.7679911 6.30192069,17.83392 5.01654926,16.2193337 C4.89622526,16.0681797 4.78336594,15.912949 4.67802514,15.754128 C3.675384,14.2427074 3.39974743,12.4674514 3.77617714,10.7519794 C4.14957943,9.05025943 5.16523543,7.40855657 6.748776,6.147888 C6.96250834,5.97774171 7.18733486,5.81406137 7.42309714,5.65767086 L7.42309714,5.65769143 Z M13.6552114,4.78811657 C11.7136937,4.60016606 9.61717714,5.07803349 7.82595429,6.26627657 C7.60940091,6.4099392 7.40167543,6.56124171 7.20306171,6.71934857 C5.75545029,7.871808 4.82876229,9.36440914 4.49044114,10.9062857 C4.1551296,12.4343897 4.39827463,14.0121531 5.2866,15.3512571 C5.37938743,15.4911401 5.47984183,15.6292008 5.58797691,15.7650343 C6.7452672,17.2187211 8.51458491,18.0608537 10.4396112,18.2472137 C12.3811289,18.4351642 14.4776455,17.9572968 16.2688683,16.7690537 C16.4854217,16.6253911 16.6931472,16.4741019 16.8917746,16.315968 C18.3393861,15.1635086 19.2660741,13.6709074 19.6043952,12.1290309 C19.9397067,10.6009131 19.6965483,9.02314971 18.8082363,7.68405943 C18.7154355,7.54417646 18.6149945,7.40611577 18.5068461,7.27028229 C17.3495558,5.81659543 15.5802381,4.97446286 13.6552118,4.78810286 L13.6552114,4.78811657 Z" id="Shape" fill="#212121" fill-rule="nonzero"></path>
                    <path d="M15.3435086,5.77124571 L15.3435356,5.77123222 L15.3435626,5.77121872 C15.709326,5.62379015 16.0893969,5.5977114 16.4081477,5.67473289 C16.769214,5.76195883 17.0583626,5.97914683 17.1899443,6.30560375 C17.321094,6.63092649 17.2631052,6.98745746 17.0633841,7.30090089 C16.8870286,7.5776298 16.5947772,7.82266432 16.2284721,7.9703226 L16.2284316,7.9703361 C15.8626956,8.11776467 15.4826213,8.14383004 15.1638601,8.06682193 C14.8028076,7.97958227 14.5136864,7.76239462 14.3820773,7.43595107 L14.3820638,7.43589708 C14.2509545,7.11060108 14.3089299,6.75405708 14.5086374,6.44065137 C14.6849928,6.16393582 14.9772305,5.91890165 15.3435082,5.77124337 L15.3435086,5.77124571 Z M16.23672,6.38331429 C16.0589338,6.34034914 15.8376034,6.35865288 15.6149863,6.44837623 L15.6131235,6.4437193 L15.6130695,6.4437463 L15.6149323,6.44840323 C15.392885,6.53791054 15.221106,6.67800951 15.1229186,6.83208094 C15.0481243,6.94947591 15.0209659,7.0695702 15.0592335,7.16450391 L15.059247,7.1645579 C15.097056,7.25834408 15.1997914,7.32551185 15.3352875,7.3582451 C15.5131008,7.40119688 15.7344041,7.38290651 15.9570075,7.29318316 L15.957048,7.29316966 C16.1791087,7.20366235 16.3509154,7.06356338 16.4491029,6.90948166 C16.5239105,6.79207332 16.5510555,6.67196532 16.5127879,6.57703161 C16.474979,6.48323172 16.3722298,6.41605058 16.2367203,6.38331732 L16.23672,6.38331429 Z" id="Shape" fill="#66BB6A" fill-rule="nonzero"></path>
                    <path d="M7.90357714,15.5050971 C8.16062537,15.2065416 8.487096,15.0088457 8.80706057,14.9306229 C9.16811314,14.8423574 9.52446857,14.9022629 9.79050857,15.1313023 L9.79050857,15.1327331 C10.0563713,15.3616376 10.1685429,15.7048863 10.1349737,16.0747948 C10.1052099,16.4025203 9.95832137,16.7544474 9.701448,17.0528428 C9.44439977,17.3514255 9.11791543,17.549108 8.79796457,17.6273171 C8.43689829,17.7155826 8.08054286,17.6556501 7.81451657,17.4266243 C7.54857291,17.197666 7.43640343,16.8538506 7.47005143,16.4831329 C7.4998152,16.1554345 7.64667669,15.8035077 7.90357714,15.5050986 L7.90357714,15.5050971 Z M8.97848914,15.639203 C8.80220126,15.6822895 8.61471086,15.8000623 8.45787429,15.982235 C8.30090229,16.1645702 8.21221851,16.3677881 8.19577749,16.5488407 C8.18325106,16.686888 8.21422968,16.8056729 8.29165611,16.8723278 C8.3690016,16.9389151 8.4913368,16.9517787 8.62653566,16.9187349 C8.80282354,16.8756483 8.99031394,16.7578889 9.14715051,16.5757029 C9.30412251,16.3933677 9.39280629,16.1901497 9.40924731,16.0090834 C9.42181423,15.8706178 9.39106509,15.7516437 9.31407086,15.6847865 L9.31336895,15.6855964 C9.23602346,15.6190091 9.11370197,15.6061588 8.9784894,15.6392027 L8.97848914,15.639203 Z" id="Shape" fill="#66BB6A" fill-rule="nonzero"></path>
                    <ellipse id="Oval" fill="#66BB6A" transform="translate(8.127433, 8.412058) rotate(24.781931) translate(-8.127433, -8.412058) " cx="7.79931121" cy="7.80761081" rx="1" ry="1"></ellipse>
                    <ellipse id="Oval" fill="#66BB6A" transform="translate(16.607260, 15.304906) rotate(24.781937) translate(-16.607260, -15.304906) " cx="16.3088662" cy="14.7552217" rx="1" ry="1"></ellipse>
                    <ellipse id="Oval" fill="#66BB6A" transform="translate(7.976620, 12.744894) rotate(24.781937) translate(-7.976620, -12.744894) " cx="7.67822625" cy="12.1952102" rx="1" ry="1"></ellipse>
                </g>
            </g>
        </g>
    </g>
</svg>