<?xml version="1.0" encoding="UTF-8"?>
<svg width="24px" height="24px" viewBox="0 0 24 24" version="1.1" xmlns="http://www.w3.org/2000/svg" xmlns:xlink="http://www.w3.org/1999/xlink">
    <!-- Generator: Sketch 49.2 (51160) - http://www.bohemiancoding.com/sketch -->
    <title>space-rocket</title>
    <desc>Created with Sketch.</desc>
    <defs></defs>
    <g id="space-rocket" stroke="none" stroke-width="1" fill="none" fill-rule="evenodd">
        <g id="Group">
            <g id="Layer_x0020_1">
                <g>
                    <g id="_259448400">
                        <rect id="_350183288" x="0" y="0" width="23.4056914" height="23.4056914"></rect>
                        <rect id="_259450032" x="2.92570629" y="2.92570629" width="17.5542857" height="17.5542857"></rect>
                    </g>
                    <path d="M9.91402286,7.43334857 L13.6693714,7.43334857 L14.0350937,7.43334857 L14.0350937,7.79907086 L14.0350937,15.2637223 C14.0350937,15.4441814 13.9588553,15.6077143 13.8360477,15.7257566 C13.7168712,15.8403302 13.5539061,15.9114799 13.3759985,15.9114799 L10.2074054,15.9114799 C10.0294975,15.9114799 9.86654606,15.8403302 9.74734251,15.7257566 C9.62454823,15.6077002 9.54830983,15.4441817 9.54830983,15.2637223 L9.54830983,7.79907086 L9.54830983,7.43334857 L9.91403211,7.43334857 L9.91402286,7.43334857 Z M13.3036389,8.16479657 L10.2797451,8.16479657 L10.2797451,15.1800309 L13.3036389,15.1800309 L13.3036389,8.16479657 Z" id="Shape" fill="#212121" fill-rule="nonzero"></path>
                    <path d="M10.2842366,7.43334857 L13.2991406,7.43334857 C13.251829,5.509488 12.8311817,4.28805257 12.3013063,3.75445714 C12.1299991,3.58194857 11.9558846,3.495708 11.7918789,3.495708 C11.6279013,3.4957215 11.4537597,3.58200274 11.282424,3.75455177 C10.7523874,4.28828777 10.3315749,5.50986034 10.2842366,7.43334857 Z M13.6693611,8.16479657 L9.91401257,8.16479657 L9.54829029,8.16480343 L9.54829029,7.79907429 C9.54829029,5.45381143 10.0820811,3.92821714 10.765272,3.24027429 C11.07846,2.92489954 11.430144,2.76715886 11.791872,2.76713143 C12.1535863,2.76711793 12.5052583,2.92479189 12.8184446,3.24017829 C13.5014606,3.92801143 14.0350731,5.45340343 14.0350731,7.79908114 L14.0350731,8.16480343 L13.6693509,8.16480343 L13.6693611,8.16479657 Z" id="Shape" fill="#212121" fill-rule="nonzero"></path>
                    <path d="M13.2703886,15.1800343 L14.9998869,15.1800343 C14.9672344,14.040264 14.7817135,13.1787463 14.5160674,12.5921794 C14.2688729,12.0463474 13.976136,11.7734811 13.7055223,11.7734811 L13.7055223,11.774912 L13.7052928,11.774912 L13.7052928,11.043464 L13.7055223,11.043464 L13.7055223,11.0448948 C14.2663646,11.0448813 14.8051749,11.4606159 15.1817794,12.2921645 C15.5125286,13.0224639 15.7331863,14.1070411 15.7336183,15.5415314 L15.7350491,15.5415314 L15.7350491,15.5457563 L15.7350491,15.9114786 L15.3693268,15.9114786 L13.2703886,15.9114786 L13.2703931,15.1800306 L13.2703886,15.1800343 Z" id="Shape" fill="#212121" fill-rule="nonzero"></path>
                    <path d="M10.1353029,15.9114857 L8.03638286,15.9114857 L7.67066057,15.9114894 L7.67066057,15.5457634 L7.67066057,15.5415385 L7.67209139,15.5415385 C7.67252334,14.1070448 7.89318042,13.022471 8.22393025,12.2921716 C8.60053482,11.460623 9.13931768,11.0448882 9.70018739,11.0449019 L9.70018739,11.0434711 L9.70041686,11.0434711 L9.70041686,11.7749191 L9.70018739,11.7749191 L9.70018739,11.7734883 C9.42957334,11.7734883 9.13683539,12.0463566 8.88964225,12.5921865 C8.62399551,13.1787568 8.43847311,14.0402711 8.40582282,15.1800414 L10.1353074,15.1800414 L10.1353074,15.9114894 L10.1353029,15.9114857 Z" id="Shape" fill="#212121" fill-rule="nonzero"></path>
                    <polygon id="Shape" fill="#66BB6A" fill-rule="nonzero" points="11.3930743 16.2212571 11.3930743 20.2742743 10.6616229 20.2742743 10.6616229 16.2212571"></polygon>
                    <polygon id="Shape" fill="#66BB6A" fill-rule="nonzero" points="12.7440686 16.2212571 12.7440686 20.2742743 12.0126171 20.2742743 12.0126171 16.2212571"></polygon>
                    <path d="M11.7028457,9.10049143 C11.9903194,9.10049143 12.2506354,9.21704949 12.4390697,9.40548583 C12.6275061,9.59392217 12.7440641,9.85423783 12.7440641,10.1417098 C12.7440641,10.4291835 12.6275061,10.6894995 12.4390697,10.8779338 C12.2506334,11.0663702 11.9903177,11.1829282 11.7028457,11.1829282 C11.415372,11.1829282 11.155056,11.0663702 10.9666217,10.8779338 C10.7781854,10.6894975 10.6616273,10.4291818 10.6616273,10.1417098 C10.6616273,9.85423611 10.7781854,9.59392011 10.9666217,9.40548583 C11.1550581,9.21704949 11.4153737,9.10049143 11.7028457,9.10049143 Z M11.9219232,9.922632 C11.8659051,9.86661394 11.7884249,9.83193669 11.7028457,9.83193669 C11.6172665,9.83193669 11.5397859,9.86661394 11.4837682,9.922632 C11.4277502,9.97865006 11.3930729,10.0561303 11.3930729,10.1417095 C11.3930729,10.2272887 11.4277502,10.3047693 11.4837682,10.360787 C11.5397863,10.416805 11.6172665,10.4514823 11.7028457,10.4514823 C11.7884249,10.4514823 11.8659055,10.416805 11.9219232,10.360787 C11.9779413,10.3047689 12.0126185,10.2272887 12.0126185,10.1417095 C12.0126185,10.0561303 11.9779413,9.97864971 11.9219232,9.922632 Z" id="Shape" fill="#66BB6A" fill-rule="nonzero"></path>
                </g>
            </g>
        </g>
    </g>
</svg>