<?xml version="1.0" encoding="UTF-8"?>
<svg width="24px" height="24px" viewBox="0 0 24 24" version="1.1" xmlns="http://www.w3.org/2000/svg" xmlns:xlink="http://www.w3.org/1999/xlink">
    <!-- Generator: Sketch 49.2 (51160) - http://www.bohemiancoding.com/sketch -->
    <title>space-shuttle-3</title>
    <desc>Created with Sketch.</desc>
    <defs></defs>
    <g id="space-shuttle-3" stroke="none" stroke-width="1" fill="none" fill-rule="evenodd">
        <g id="Group">
            <g id="Layer_x0020_1">
                <g>
                    <g id="_258300224">
                        <rect id="_258300416" x="0" y="0" width="23.4056914" height="23.4056914"></rect>
                        <rect id="_258300512" x="2.92570629" y="2.92570629" width="17.5542857" height="17.5542857"></rect>
                    </g>
                    <path d="M11.7028457,9.72641143 L7.49712,9.72641143 L7.13139793,9.72641143 L7.13139793,9.36068914 C7.13139793,8.098368 7.64309164,6.95550514 8.47037507,6.12823543 C9.29764479,5.300952 10.4405076,4.78925829 11.7028288,4.78925829 C12.9651499,4.78925829 14.1080128,5.300952 14.9352825,6.12823543 C15.7625659,6.95550514 16.2742596,8.098368 16.2742596,9.36068914 L16.2742596,9.72641143 L15.9085376,9.72641143 L11.7028119,9.72641143 L11.7028457,9.72641143 Z M7.88011886,8.99496343 L11.7028457,8.99496343 L15.5255657,8.99496343 C15.439163,8.08051886 15.0321874,7.25941714 14.4181509,6.64538057 C13.7232857,5.95050171 12.763272,5.52070286 11.7028423,5.52070286 C10.642416,5.52070286 9.68240229,5.95050171 8.98753371,6.64538057 C8.37349714,7.25941714 7.96652229,8.08052229 7.88011886,8.99496343 Z" id="Shape" fill="#212121" fill-rule="nonzero"></path>
                    <path d="M15.83664,8.06142857 C17.2243063,8.18991909 18.3864857,8.38075817 19.1946411,8.61202629 C20.1272263,8.87890149 20.6628514,9.25080686 20.6628514,9.71016686 C20.6628514,10.3194137 19.5840651,10.8077006 17.8399234,11.1045566 C16.2639154,11.3728087 14.0936606,11.538744 11.7028491,11.538744 C9.31202743,11.538744 7.14178629,11.3728094 5.56577486,11.1045566 C3.82162971,10.8077016 2.74284686,10.3194137 2.74284686,9.71016686 C2.74284686,9.25080686 3.278472,8.87889943 4.21105714,8.61202629 C5.019216,8.38075954 6.181392,8.18992114 7.56905829,8.06142857 L8.06888571,8.01515623 L7.95763269,8.50429337 C7.92655958,8.64092331 7.9026,8.78257474 7.8862536,8.92878823 C7.88379691,8.95069598 7.88155618,8.97275211 7.87947744,8.99497029 L11.7028489,8.99497029 L15.5262203,8.99497029 C15.5241416,8.97275208 15.5219008,8.95069577 15.5194441,8.92878823 C15.5030977,8.7825744 15.4791382,8.64092331 15.4480651,8.50429337 L15.336812,8.01515623 L15.8366395,8.06142857 L15.83664,8.06142857 Z M18.9946526,9.31488343 C18.3147703,9.12033223 17.369712,8.95539771 16.243536,8.83436914 L16.2451693,8.84879883 C16.2643774,9.02057849 16.2742852,9.19148043 16.2742852,9.36069483 L16.2742852,9.72641712 L15.9085629,9.72641712 L11.7028372,9.72641712 L7.49711146,9.72641712 L7.13138917,9.72641712 L7.13138917,9.36069483 C7.13138917,9.19148009 7.14129692,9.02057781 7.16050504,8.84879883 L7.16213834,8.83436914 C6.03595891,8.95539497 5.09090405,9.12033086 4.41102177,9.31488343 C3.81600348,9.48515109 3.47426748,9.62398114 3.47426748,9.71016686 C3.47426748,9.908808 4.31938291,10.1519931 5.68575091,10.3845566 C7.22021148,10.6457489 9.34715663,10.807296 11.7028252,10.807296 C14.0584835,10.807296 16.1854423,10.6457482 17.7198995,10.3845566 C19.0862675,10.1519942 19.9313829,9.908808 19.9313829,9.71016686 C19.9313829,9.62398011 19.5896462,9.48515006 18.9946286,9.31488343 L18.9946526,9.31488343 Z" id="Shape" fill="#212121" fill-rule="nonzero"></path>
                    <circle id="Oval" fill="#212121" cx="9.40786286" cy="7.89785143" r="1"></circle>
                    <path d="M17.7992571,12.3475543 C17.7992571,13.2677349 16.1691051,13.82064 14.0825486,14.0321691 C13.3243474,14.1090285 12.5099966,14.1474717 11.7028354,14.1474717 C10.8956777,14.1474717 10.0813234,14.1090285 9.32312229,14.0321691 C7.23656571,13.8206235 5.60641371,13.2677451 5.60641371,12.3475543 L6.33786171,12.3475543 C6.33786171,12.8041886 7.67852914,13.1324674 9.39455314,13.3064469 C10.1151189,13.3794861 10.9054046,13.4160261 11.702832,13.4160261 C12.5002594,13.4160261 13.2905451,13.3794861 14.0111109,13.3064469 C15.7271383,13.1324805 17.0678023,12.8041886 17.0678023,12.3475543 L17.7992571,12.3475543 Z" id="Shape" fill="#66BB6A" fill-rule="nonzero"></path>
                    <path d="M16.7221714,15.0098743 C16.7221714,15.8006606 15.371208,16.2707657 13.6419909,16.4460686 C13.0227566,16.5088491 12.3592046,16.5402329 11.7028354,16.5402329 C11.0464663,16.5402329 10.3828903,16.5088358 9.76368,16.4460686 C8.03446629,16.2707661 6.68349943,15.8006606 6.68349943,15.0098743 L7.41494743,15.0098743 C7.41494743,15.3371139 8.47642629,15.5826069 9.83511429,15.7203429 C10.4167029,15.7792899 11.0562,15.8087839 11.7028354,15.8087839 C12.3494709,15.8087839 12.9889543,15.7793036 13.5705566,15.7203429 C14.9292411,15.5826062 15.9907234,15.3371109 15.9907234,15.0098743 L16.7221714,15.0098743 Z" id="Shape" fill="#66BB6A" fill-rule="nonzero"></path>
                    <path d="M14.1621943,17.7267771 C14.1621943,18.2100446 13.4747794,18.4833154 12.5949051,18.5725131 C12.3059736,18.6018045 12.000816,18.6164503 11.702856,18.6164503 C11.4048943,18.6164503 11.0997257,18.6018046 10.8108069,18.5725131 C9.93093257,18.4833165 9.24351771,18.2100171 9.24351771,17.7267771 L9.97496571,17.7267771 C9.97496571,17.7464847 10.372896,17.7951597 10.8822411,17.8467905 C11.1335256,17.8722618 11.4146297,17.8850043 11.702856,17.8850043 C11.9910854,17.8850043 12.2721737,17.8722619 12.5234709,17.8467905 C13.032816,17.7951593 13.4307463,17.7464846 13.4307463,17.7267771 L14.1621943,17.7267771 Z" id="Shape" fill="#66BB6A" fill-rule="nonzero"></path>
                </g>
            </g>
        </g>
    </g>
</svg>