<?xml version="1.0" encoding="UTF-8"?>
<svg width="24px" height="24px" viewBox="0 0 24 24" version="1.1" xmlns="http://www.w3.org/2000/svg" xmlns:xlink="http://www.w3.org/1999/xlink">
    <!-- Generator: Sketch 49.2 (51160) - http://www.bohemiancoding.com/sketch -->
    <title>space-shuttle</title>
    <desc>Created with Sketch.</desc>
    <defs></defs>
    <g id="space-shuttle" stroke="none" stroke-width="1" fill="none" fill-rule="evenodd">
        <g id="Group" transform="translate(4.000000, 4.000000)">
            <g id="Layer_x0020_1">
                <g>
                    <g id="_259437288">
                        <rect id="_259437096" x="0" y="0" width="15.6037943" height="15.6037943"></rect>
                        <rect id="_259436928" x="1.95047086" y="1.95047086" width="11.7028571" height="11.7028571"></rect>
                    </g>
                    <path d="M2.42285714,9.81604571 L13.18096,9.81604571 C13.2448341,9.81604571 13.3103189,9.83001198 13.3702784,9.85448891 C13.4413696,9.88349234 13.5080331,9.92886469 13.5581029,9.9845856 C13.6221749,10.0558928 13.6623099,10.1444777 13.6623099,10.2436896 C13.6623099,10.2887739 13.65377,10.3344523 13.6352414,10.3798517 L13.0257214,11.8731979 C12.9948011,11.9489685 12.9596967,12.0253058 12.9017079,12.0949122 C12.8217168,12.1909033 12.7179689,12.2541474 12.5714405,12.2541474 L3.0323776,12.2541474 C2.88586697,12.2541474 2.78212846,12.1909303 2.70211931,12.0949394 C2.6441216,12.025333 2.60902606,11.9489957 2.57809691,11.8731982 L1.96857691,10.3798519 C1.95005723,10.3344526 1.9414992,10.2887833 1.9414992,10.2436629 C1.9414992,10.1444053 1.98163429,10.0558562 2.04570629,9.984568 C2.09578491,9.92884686 2.16243977,9.88350171 2.23350377,9.85448937 C2.2934992,9.8300304 2.358984,9.81604617 2.42285806,9.81604617 L2.42285714,9.81604571 Z M13.1402795,10.3036777 L2.46356571,10.3036777 L3.02954057,11.6903406 C3.04144608,11.719533 3.05327063,11.7473934 3.06379931,11.7665161 L12.5400279,11.7665161 C12.5505566,11.7473935 12.5623901,11.7195419 12.5743047,11.6903406 L13.1402795,10.3036777 Z" id="Shape" fill="#212121" fill-rule="nonzero"></path>
                    <path d="M7.80189714,9.57225143 L3.65714286,9.57225143 L3.41332814,9.57225143 L3.41332814,9.32843657 C3.41332814,8.11660343 3.90455786,7.01943086 4.698727,6.22525943 C5.49290529,5.43109029 6.59005729,4.93986057 7.80190414,4.93986057 C9.01374643,4.93986057 10.1109099,5.43109029 10.9050813,6.22525943 C11.6992504,7.01943771 12.1904801,8.11659886 12.1904801,9.32843657 L12.1904801,9.57225143 L11.9466653,9.57225143 L7.801911,9.57225143 L7.80189714,9.57225143 Z M3.90848,9.08461943 L7.80189714,9.08461943 L11.6953143,9.08461943 C11.6348688,8.10448914 11.21256,7.22228343 10.5603131,6.57003657 C9.85439543,5.864128 8.879152,5.427504 7.80191314,5.427504 C6.72466743,5.427504 5.74942171,5.86413029 5.04351314,6.57003657 C4.39126629,7.22229257 3.96895771,8.10449829 3.90848,9.08461943 Z" id="Shape" fill="#212121" fill-rule="nonzero"></path>
                    <polygon id="Shape" fill="#212121" fill-rule="nonzero" points="8.04571429 4.45225143 8.04571429 5.22532571 7.55810286 5.22532571 7.55810286 4.45225143"></polygon>
                    <path d="M7.80189714,3.34964571 C7.98776891,3.34964571 8.15608457,3.42502034 8.27791086,3.54684709 C8.3997376,3.66867383 8.47511223,3.8369888 8.47511223,4.0228608 C8.47511223,4.20872366 8.3997376,4.37704823 8.27791086,4.49887451 C8.15608411,4.62070126 7.98776914,4.69607589 7.80189714,4.69607589 C7.61602537,4.69607589 7.44770971,4.62070126 7.32588343,4.49887451 C7.20405669,4.37704777 7.12868206,4.20872366 7.12868206,4.0228608 C7.12868206,3.83698903 7.20405669,3.66867337 7.32588343,3.54684709 C7.44771017,3.42502034 7.61602514,3.34964571 7.80189714,3.34964571 Z M7.93314583,3.89161143 C7.89958903,3.85805463 7.8531728,3.83727611 7.80189714,3.83727611 C7.75062149,3.83727611 7.70420526,3.85805451 7.67064846,3.89161143 C7.63709166,3.92516823 7.61631314,3.97158446 7.61631314,4.02286011 C7.61631314,4.07412663 7.63709154,4.120552 7.67064846,4.1541088 C7.70420526,4.1876656 7.75062149,4.20844411 7.80189714,4.20844411 C7.8531728,4.20844411 7.89958903,4.18766571 7.93314583,4.1541088 C7.96670263,4.120552 7.98748114,4.07412686 7.98748114,4.02286011 C7.98748114,3.97158446 7.96670274,3.92516823 7.93314583,3.89161143 Z" id="Shape" fill="#212121" fill-rule="nonzero"></path>
                    <circle id="Oval" fill="#66BB6A" cx="5.12" cy="8.23129143" r="1"></circle>
                    <circle id="Oval" fill="#66BB6A" cx="6.90793143" cy="8.23129143" r="1"></circle>
                    <circle id="Oval" fill="#66BB6A" cx="8.69586286" cy="8.23129143" r="1"></circle>
                    <circle id="Oval" fill="#66BB6A" cx="10.4838171" cy="8.23129143" r="1"></circle>
                    <circle id="Oval" fill="#66BB6A" cx="4.02285714" cy="10.9714286" r="1"></circle>
                    <circle id="Oval" fill="#66BB6A" cx="5.55181714" cy="10.9714286" r="1"></circle>
                    <circle id="Oval" fill="#66BB6A" cx="7.08075429" cy="10.9714286" r="1"></circle>
                    <circle id="Oval" fill="#66BB6A" cx="8.60969143" cy="10.9714286" r="1"></circle>
                    <circle id="Oval" fill="#66BB6A" cx="10.1386514" cy="10.9714286" r="1"></circle>
                    <circle id="Oval" fill="#66BB6A" cx="11.6675886" cy="10.9714286" r="1"></circle>
                </g>
            </g>
        </g>
    </g>
</svg>