<?xml version="1.0" encoding="UTF-8"?>
<svg width="24px" height="24px" viewBox="0 0 24 24" version="1.1" xmlns="http://www.w3.org/2000/svg" xmlns:xlink="http://www.w3.org/1999/xlink">
    <!-- Generator: Sketch 49.2 (51160) - http://www.bohemiancoding.com/sketch -->
    <title>space-shuttle-2</title>
    <desc>Created with Sketch.</desc>
    <defs></defs>
    <g id="space-shuttle-2" stroke="none" stroke-width="1" fill="none" fill-rule="evenodd">
        <g id="Group">
            <g id="Layer_x0020_1">
                <g>
                    <g id="_259440360">
                        <rect id="_259440696" x="0" y="0" width="23.4056914" height="23.4056914"></rect>
                        <rect id="_259440432" x="2.92570629" y="2.92570629" width="17.5542857" height="17.5542857"></rect>
                    </g>
                    <path d="M3.08568686,12.4342629 L19.2228411,12.4342629 C19.4163936,12.4342629 19.5931131,12.5138489 19.7221029,12.6421368 L19.7221164,12.6421233 L19.7228318,12.6428387 L19.7235472,12.6435541 L19.7235337,12.6435676 C19.8518353,12.772571 19.9314076,12.9492776 19.9314076,13.1428293 L19.9314076,13.5542853 C19.9314076,13.7478378 19.8518216,13.9245573 19.7235337,14.053547 L19.7235472,14.0535605 L19.7228318,14.054276 L19.7221164,14.0549914 L19.7221029,14.0549779 C19.5931131,14.1832658 19.4163929,14.2628518 19.2228411,14.2628518 L3.08568686,14.2628518 C2.8921344,14.2628518 2.71541486,14.1832658 2.58642514,14.0549779 L2.58641164,14.0549914 L2.58569624,14.054276 L2.58498083,14.0535605 L2.58499432,14.053547 C2.45670644,13.9245573 2.37712038,13.7478371 2.37712038,13.5542853 L2.37712038,13.1428293 C2.37712038,12.9492769 2.45669307,12.772571 2.58499432,12.6435676 L2.58498083,12.6435541 L2.58569624,12.6428387 L2.58641164,12.6421233 L2.58642514,12.6421368 C2.71541486,12.5138489 2.89213509,12.4342629 3.08568686,12.4342629 Z M19.1999726,13.1657109 L3.10855543,13.1657109 L3.10855543,13.5314057 L19.1999726,13.5314057 L19.1999726,13.1657109 Z" id="Shape" fill="#212121" fill-rule="nonzero"></path>
                    <path d="M5.11998857,13.8971314 L6.21713143,13.8971314 L6.70879543,13.8971314 L6.56713063,14.367144 L5.57515234,17.6585726 L5.49636274,17.920008 L5.22515451,17.920008 L4.12801166,17.920008 L3.63636137,17.920008 L3.7780128,17.4499954 L4.76999109,14.1585669 L4.8487944,13.8971314 L5.11998891,13.8971314 L5.11998857,13.8971314 Z M5.72548114,14.6285794 L5.39119543,14.6285794 L4.61966057,17.18856 L4.95394629,17.18856 L5.72548114,14.6285794 Z" id="Shape" fill="#212121" fill-rule="nonzero"></path>
                    <path d="M2.92570629,17.18856 L6.21714857,17.18856 L6.58287086,17.18856 L6.58287086,17.5542823 L6.58287086,18.6514251 L6.58287086,19.0171474 L6.21714857,19.0171474 L2.92570629,19.0171474 L2.559984,19.0171474 L2.559984,18.6514251 L2.559984,17.5542823 L2.559984,17.18856 L2.92570629,17.18856 Z M5.85142629,17.920008 L3.291432,17.920008 L3.291432,18.2857029 L5.85142629,18.2857029 L5.85142629,17.920008 Z" id="Shape" fill="#212121" fill-rule="nonzero"></path>
                    <path d="M17.2830514,14.6285829 L16.9487657,14.6285829 L17.7203006,17.1885634 L18.0545863,17.1885634 L17.2830514,14.6285829 Z M16.4571154,13.8971349 L17.5542583,13.8971349 L17.8254528,13.8971349 L17.9042561,14.1585703 L18.8962344,17.4499989 L19.0378858,17.9200114 L18.5462355,17.9200114 L17.4490927,17.9200114 L17.1778845,17.9200114 L17.0990949,17.658576 L16.1071166,14.3671474 L15.9654518,13.8971349 L16.4571158,13.8971349 L16.4571154,13.8971349 Z" id="Shape" fill="#212121" fill-rule="nonzero"></path>
                    <path d="M19.3828457,17.9200114 L16.8228514,17.9200114 L16.8228514,18.2857063 L19.3828457,18.2857063 L19.3828457,17.9200114 Z M16.4571257,17.1885634 L19.748568,17.1885634 L20.1142903,17.1885634 L20.1142903,17.5542857 L20.1142903,18.6514286 L20.1142903,19.0171509 L19.748568,19.0171509 L16.4571257,19.0171509 L16.0914034,19.0171509 L16.0914034,18.6514286 L16.0914034,17.5542857 L16.0914034,17.1885634 L16.4571257,17.1885634 Z" id="Shape" fill="#212121" fill-rule="nonzero"></path>
                    <path d="M11.3346514,14.6285829 L10.9660937,14.6285829 L10.9738822,17.1885634 L11.3424399,17.1885634 L11.3346514,14.6285829 Z M10.6006937,13.8971349 L11.6978366,13.8971349 L12.061008,13.8971349 L12.0621284,14.2628571 L12.0721306,17.5542857 L12.0732375,17.920008 L11.7078375,17.920008 L10.6106946,17.920008 L10.2475232,17.920008 L10.2464028,17.5542857 L10.2364006,14.2628571 L10.2352937,13.8971349 L10.6006937,13.8971349 Z" id="Shape" fill="#212121" fill-rule="nonzero"></path>
                    <path d="M12.4342629,17.9200114 L9.87426857,17.9200114 L9.87426857,18.2857063 L12.4342629,18.2857063 L12.4342629,17.9200114 Z M9.50854286,17.1885634 L12.7999851,17.1885634 L13.1657074,17.1885634 L13.1657074,17.5542857 L13.1657074,18.6514286 L13.1657074,19.0171509 L12.7999851,19.0171509 L9.50854286,19.0171509 L9.14282057,19.0171509 L9.14282057,18.6514286 L9.14282057,17.5542857 L9.14282057,17.1885634 L9.50854286,17.1885634 Z" id="Shape" fill="#212121" fill-rule="nonzero"></path>
                    <path d="M11.1542743,12.0685714 L4.93714286,12.0685714 L4.57142057,12.0685714 L4.57142057,11.7028491 C4.57142057,9.88508571 5.30826514,8.23934057 6.49951886,7.04808343 C7.69078629,5.85682971 9.33651429,5.11998514 11.1542846,5.11998514 C12.972048,5.11998514 14.6177931,5.85682971 15.8090503,7.04808343 C17.000304,8.23935086 17.7371486,9.88507886 17.7371486,11.7028491 L17.7371486,12.0685714 L17.3714263,12.0685714 L11.1542949,12.0685714 L11.1542743,12.0685714 Z M5.31414857,11.3371234 L11.1542743,11.3371234 L16.9944,11.3371234 C16.9037318,9.86691429 16.2702686,8.54361943 15.2918983,7.56524914 C14.2330217,6.50638629 12.7701566,5.85145029 11.1542983,5.85145029 C9.53842971,5.85145029 8.07556114,6.50638971 7.01669829,7.56524914 C6.038328,8.54363314 5.40486514,9.866928 5.31414857,11.3371234 Z" id="Shape" fill="#66BB6A" fill-rule="nonzero"></path>
                    <polygon id="Shape" fill="#66BB6A" fill-rule="nonzero" points="11.52 4.38857143 11.52 5.54814857 10.7885486 5.54814857 10.7885486 4.38857143"></polygon>
                    <path d="M11.1542743,2.73463543 C11.4330686,2.73463543 11.6855554,2.84769737 11.8682949,3.03043749 C12.051035,3.2131776 12.1640969,3.46565006 12.1640969,3.74445806 C12.1640969,4.02325234 12.051035,4.2757392 11.8682949,4.45847863 C11.6855547,4.64121874 11.4330686,4.75428069 11.1542743,4.75428069 C10.8754666,4.75428069 10.6229931,4.64121874 10.4402537,4.45847863 C10.2575136,4.27573851 10.1444517,4.02325234 10.1444517,3.74445806 C10.1444517,3.4656504 10.2575136,3.21317691 10.4402537,3.03043749 C10.6229938,2.84769737 10.8754663,2.73463543 11.1542743,2.73463543 Z M11.3511473,3.547584 C11.3008121,3.4972488 11.2311744,3.46608103 11.1542743,3.46608103 C11.0773608,3.46608103 11.0077365,3.49724863 10.9574013,3.547584 C10.9070661,3.5979192 10.8758983,3.66754354 10.8758983,3.74445703 C10.8758983,3.8213568 10.9070659,3.89099486 10.9574013,3.94133006 C11.0077365,3.99166526 11.0773608,4.02283303 11.1542743,4.02283303 C11.2311741,4.02283303 11.3008121,3.99166543 11.3511473,3.94133006 C11.4014825,3.89099486 11.4326503,3.82135714 11.4326503,3.74445703 C11.4326503,3.66754354 11.4014827,3.5979192 11.3511473,3.547584 Z" id="Shape" fill="#66BB6A" fill-rule="nonzero"></path>
                    <circle id="Oval" fill="#66BB6A" cx="7.13142857" cy="10.0571314" r="1"></circle>
                    <circle id="Oval" fill="#66BB6A" cx="9.81332571" cy="10.0571314" r="1"></circle>
                    <circle id="Oval" fill="#66BB6A" cx="12.4952229" cy="10.0571314" r="1"></circle>
                    <circle id="Oval" fill="#66BB6A" cx="15.17712" cy="10.0571314" r="1"></circle>
                </g>
            </g>
        </g>
    </g>
</svg>