<?xml version="1.0" encoding="UTF-8"?>
<svg width="24px" height="24px" viewBox="0 0 24 24" version="1.1" xmlns="http://www.w3.org/2000/svg" xmlns:xlink="http://www.w3.org/1999/xlink">
    <!-- Generator: Sketch 49.2 (51160) - http://www.bohemiancoding.com/sketch -->
    <title>space-gun</title>
    <desc>Created with Sketch.</desc>
    <defs></defs>
    <g id="space-gun" stroke="none" stroke-width="1" fill="none" fill-rule="evenodd">
        <g id="Group">
            <g id="Layer_x0020_1">
                <g>
                    <g id="_347238304">
                        <rect id="_347238088" x="0" y="0" width="23.4056914" height="23.4056914"></rect>
                        <rect id="_347237848" x="2.92570629" y="2.92570629" width="17.5542857" height="17.5542857"></rect>
                    </g>
                    <path d="M11.61408,7.45186286 C11.2472503,7.45186286 10.8779074,7.47401359 10.5098366,7.51402251 C10.1372297,7.55454446 9.75953143,7.61368046 9.38195657,7.68698983 L9.21766869,7.67984921 L5.24374869,6.5911715 C5.1914832,6.57682279 5.13851589,6.57894202 5.09105589,6.59543695 C5.04396034,6.6118104 5.00135966,6.64282941 4.9693416,6.68640209 C4.93691866,6.73052815 4.91985669,6.78006689 4.91838549,6.82874163 C4.91686018,6.87883375 4.93092542,6.93026232 4.96072971,6.97656175 L5.79950229,8.27908289 L6.04036629,8.65310918 L5.62522457,8.81622278 C5.35537989,8.92225203 5.10413657,9.02558163 4.87315371,9.12394392 C4.58929783,9.24483466 4.34107714,9.35526449 4.12812857,9.45314061 C4.03393749,9.49641603 3.95744229,9.56389409 3.9044616,9.64657135 C3.85249303,9.72765569 3.82368754,9.82541043 3.82368754,9.93099432 C3.82368754,10.0366049 3.85250643,10.1343868 3.90450206,10.2155119 C3.957456,10.2981216 4.0339104,10.3655455 4.12812857,10.4087671 C4.26620297,10.4722632 4.42410617,10.5431832 4.603188,10.621487 C4.74412389,10.6831067 4.90526674,10.7518403 5.08897886,10.8282 L5.22793063,10.8859595 L5.28612171,11.0282047 C5.4291768,11.3778779 5.4752736,11.7521064 5.4281376,12.114239 C5.38096114,12.4766287 5.24152354,12.826463 5.01361646,13.1273819 C4.85209577,13.3406551 4.62250217,13.6409784 4.32371931,14.0297441 L4.32371931,14.031175 C4.11893657,14.2976048 3.91590789,14.5593361 3.71555246,14.815063 C3.65035577,14.8984016 3.59954811,14.9933487 3.5643984,15.0952743 C3.52864149,15.198955 3.51012171,15.3055105 3.5100408,15.4102979 C3.5100408,15.4281832 3.5116201,15.4559627 3.51479222,15.4935557 C3.51724891,15.5225095 3.5206235,15.5495195 3.52490246,15.5743835 C3.54770112,15.7065862 3.59815766,15.8313509 3.67122429,15.9410795 C3.74329183,16.0492822 3.838482,16.1430683 3.95184086,16.2149603 C4.19363606,16.3682473 4.46347971,16.5121122 4.75920086,16.6455306 C5.06271034,16.7824846 5.39050371,16.908127 5.74031057,17.0214323 C5.7898764,17.0375088 5.8393476,17.0494278 5.88829251,17.0571893 C5.9327964,17.0642489 5.98276714,17.0677719 6.03765137,17.0677719 C6.12744223,17.0677719 6.21636909,17.0552995 6.30188074,17.030719 C6.3867852,17.0063005 6.46892246,16.9698955 6.54574131,16.9218821 C6.66674006,16.8462104 6.76728909,16.7467685 6.84217766,16.6314927 C6.91721469,16.5159876 6.96725297,16.3838796 6.98708211,16.2430801 C7.0533588,15.7724059 7.11024086,15.3616013 7.1575524,15.0120619 C7.21290909,14.6030916 7.25770989,14.2642013 7.29168497,13.9972459 C7.31610343,13.8036396 7.37662989,13.622263 7.46743286,13.4607807 C7.56031491,13.2956422 7.68468806,13.1496581 7.83449229,13.0309133 L8.27475171,12.681943 L8.4144996,13.2266264 C8.47435114,13.4599044 8.59240749,13.6718539 8.75475171,13.8448356 C8.80315663,13.8964126 8.85548966,13.944426 8.91141309,13.988444 C8.88553683,13.923895 8.86071343,13.8567005 8.83796863,13.7879535 C8.76808783,13.5767453 8.71628143,13.3449375 8.70964029,13.1178701 L8.69720835,12.6929981 L9.11821978,12.7450071 C9.17132218,12.7515538 9.2243975,12.758222 9.27743235,12.7648631 L9.39787773,12.7799003 C10.0657463,12.8637923 10.745008,12.9490746 11.3597372,13.0030272 C11.9627063,13.0559407 12.4977246,13.0789149 12.8855474,13.0406202 C13.009084,13.0284447 13.1305823,12.9774076 13.2514857,12.8864424 C13.3921785,12.780575 13.5327637,12.6208362 13.6749006,12.4059693 L13.7627745,12.2731053 L13.9220546,12.2474045 C14.1378116,12.2125788 16.5026752,11.5181851 18.1521918,10.7718091 C18.9351609,10.4175451 19.5284786,10.0944228 19.5284786,9.93099995 C19.5284786,9.63693927 18.5946935,9.21621138 17.3856764,8.80082624 C15.1842112,8.04446281 12.1749678,7.45187195 11.6140535,7.45187195 L11.61408,7.45186286 Z M10.43268,6.78830057 C10.834632,6.74460651 11.2303749,6.7204176 11.61408,6.7204176 C12.2116491,6.7204176 15.3560571,7.3305696 17.6228229,8.10937989 C19.1107406,8.62058674 20.2599326,9.24759703 20.2599326,9.93099017 C20.2599326,10.4470313 19.4806354,10.9721822 18.4522114,11.4375113 C16.9478126,12.1182165 14.8288286,12.7629662 14.2012286,12.9281582 C14.0388305,13.1539581 13.8685087,13.333957 13.6886571,13.469293 C13.4583895,13.6425439 13.2154457,13.7408657 12.9569931,13.7663369 C12.5102126,13.8104493 11.93316,13.7874483 11.2969029,13.7316058 C10.7383029,13.68258 10.1294469,13.6083528 9.52354971,13.5324922 C9.52641136,13.5414551 9.52932699,13.5504315 9.53228311,13.5593674 C9.60673968,13.7843437 9.70693762,13.9850759 9.77889717,14.1040371 L9.77835723,14.104361 C9.80558331,14.1488515 9.82587141,14.1948942 9.83919415,14.2411665 L9.83787131,14.2415445 C9.85323238,14.29489 9.86092643,14.346143 9.86092643,14.3937648 C9.86092643,14.4712183 9.84412105,14.549171 9.81118506,14.6219808 C9.77927504,14.6925634 9.73269238,14.7571934 9.67217946,14.8105389 L9.67074864,14.8119697 C9.62100727,14.8552859 9.56292418,14.8887076 9.49984635,14.9123432 C9.43482487,14.9366671 9.36919618,14.9486401 9.3060107,14.9486401 C9.27797469,14.9486401 9.2448635,14.945198 9.20737858,14.9383814 C9.17824923,14.93309 9.1508747,14.9261519 9.12578133,14.9177019 L9.12574083,14.9178099 C8.77342083,14.8028043 8.46584712,14.6032183 8.2233374,14.3448339 C8.14730129,14.2638171 8.07766357,14.1769148 8.01504483,14.0849509 L8.01455889,14.0886765 C7.97252529,14.4188722 7.92765661,14.7602308 7.88042632,15.1091908 C7.82654118,15.5073233 7.76953775,15.9199279 7.70995604,16.3430719 C7.67507649,16.5908198 7.58654084,16.8240182 7.45360964,17.0286388 C7.32043535,17.2336375 7.14331055,17.4093988 6.93148278,17.5418856 C6.79621604,17.6264256 6.65156838,17.6905289 6.50188621,17.733575 C6.35038106,17.777134 6.19415169,17.7992174 6.03766449,17.7992174 C5.95477124,17.7992174 5.86668129,17.7919013 5.77402895,17.7771881 C5.68701866,17.7633793 5.60123718,17.742889 5.51746655,17.7157303 C5.13504712,17.5918564 4.78149969,17.4566705 4.45920026,17.3112412 C4.12932849,17.1624089 3.82893626,17.0023324 3.56042769,16.8321052 C3.36113855,16.7057071 3.19223341,16.5385169 3.06265055,16.343952 C2.93405204,16.1508586 2.84519272,15.9308503 2.80491386,15.697248 C2.79635594,15.6474933 2.79011972,15.5995337 2.78621869,15.553572 C2.78300609,15.5156551 2.78142678,15.4677768 2.78146727,15.4103009 C2.78161575,15.2193538 2.81279687,15.0326438 2.87297241,14.8581398 C2.93306704,14.6839169 3.02316818,14.5174423 3.14126498,14.3664895 C3.31914578,14.1394478 3.52157927,13.8782164 3.74659641,13.5854644 L3.74728483,13.5859908 C3.88268631,13.4097838 4.1119134,13.1084216 4.43077054,12.6873931 C4.58205968,12.4876315 4.67440174,12.2572034 4.70528563,12.0199428 C4.73035198,11.8273085 4.71566583,11.6298022 4.65998528,11.4399862 C4.54610014,11.3917973 4.42947454,11.3415296 4.31176928,11.2900606 C4.1473734,11.218182 3.98358471,11.1444139 3.82528928,11.0716174 C3.59950311,10.968018 3.41660014,10.806956 3.29022985,10.6097991 C3.16283271,10.4110634 3.09225008,10.1775968 3.09225008,9.93099684 C3.09225008,9.68440953 3.16281934,9.45101056 3.2901894,9.25228713 C3.41652025,9.05517136 3.59946265,8.89406999 3.82528997,8.79029399 C4.0612134,8.68186199 4.31870597,8.56696439 4.58745797,8.45251216 C4.70394848,8.40290587 4.82374585,8.3527325 4.9463094,8.30235684 L4.34645683,7.3708517 C4.2358518,7.19909913 4.18386951,7.00340142 4.18980883,6.80874084 C4.19577509,6.61273182 4.25967625,6.41977284 4.38076963,6.2549717 C4.50228128,6.08961753 4.66692025,5.97087273 4.85106334,5.90686542 C5.03499145,5.84295102 5.23757305,5.83408267 5.43518905,5.88831873 L9.32617191,6.95428216 C9.69267934,6.88507644 10.0626805,6.82853176 10.4326816,6.78830707 L10.43268,6.78830057 Z" id="Shape" fill="#212121" fill-rule="nonzero"></path>
                    <path d="M10.0087543,9.50856 C9.8067792,9.50856 9.643032,9.67230789 9.643032,9.87428229 C9.643032,10.0762574 9.80677989,10.2400046 10.0087543,10.2400046 L17.5487657,10.2400046 C17.7507408,10.2400046 17.914488,10.0762567 17.914488,9.87428229 C17.914488,9.6723072 17.7507401,9.50856 17.5487657,9.50856 L10.0087543,9.50856 Z" id="Shape" fill="#66BB6A" fill-rule="nonzero"></path>
                    <circle id="Oval" fill="#66BB6A" cx="6.76570286" cy="9.69140571" r="1"></circle>
                    <circle id="Oval" fill="#66BB6A" cx="8.41141714" cy="9.69140571" r="1"></circle>
                </g>
            </g>
        </g>
    </g>
</svg>