<?xml version="1.0" encoding="UTF-8"?>
<svg width="24px" height="24px" viewBox="0 0 24 24" version="1.1" xmlns="http://www.w3.org/2000/svg" xmlns:xlink="http://www.w3.org/1999/xlink">
    <!-- Generator: Sketch 49.2 (51160) - http://www.bohemiancoding.com/sketch -->
    <title>space-vehicle</title>
    <desc>Created with Sketch.</desc>
    <defs></defs>
    <g id="space-vehicle" stroke="none" stroke-width="1" fill="none" fill-rule="evenodd">
        <g id="Group">
            <g id="Layer_x0020_1">
                <g>
                    <g id="_258307136">
                        <rect id="_258307808" x="0" y="0" width="23.4056914" height="23.4056914"></rect>
                        <rect id="_258307208" x="2.92570629" y="2.92570629" width="17.5542857" height="17.5542857"></rect>
                    </g>
                    <path d="M20.1610286,14.2171543 L18.139752,15.6970149 L17.7261497,15.9998225 L17.5754681,15.5098728 C17.5288989,15.3584486 17.4341407,15.2276637 17.3089574,15.1352534 C17.1889303,15.0466505 17.0389776,14.9942637 16.8752294,14.9942637 C16.711117,14.9942637 16.5607053,15.047015 16.4402877,15.1361715 C16.3148613,15.2290128 16.2201977,15.3600411 16.1741143,15.5113978 L16.0949331,15.7714022 L15.8255472,15.7714022 L14.8536535,15.7714022 L14.5842542,15.7714022 L14.5050864,15.5113978 C14.4590033,15.3600411 14.3643261,15.2289998 14.238913,15.1361715 C14.1184947,15.0470153 13.968083,14.9942637 13.8039713,14.9942637 C13.639859,14.9942637 13.4894472,15.047015 13.3690296,15.1361715 C13.2436032,15.2290128 13.1489397,15.3600411 13.1028562,15.5113978 L13.0236751,15.7714022 L12.7542891,15.7714022 L9.99206057,15.7714022 L9.72267463,15.7714022 L9.64349349,15.5113978 C9.5974104,15.3600411 9.50274651,15.2290131 9.37732011,15.1361715 C9.25690183,15.0470153 9.10649006,14.9942637 8.9423784,14.9942637 C8.77826606,14.9942637 8.62785429,15.047015 8.50743669,15.1361715 C8.382024,15.2289994 8.28734674,15.3600411 8.24126331,15.5113978 L8.16209554,15.7714022 L7.89269623,15.7714022 L6.92080251,15.7714022 L6.65141657,15.7714022 L6.57223543,15.5113978 C6.52615234,15.3600411 6.43148846,15.2290131 6.30606206,15.1361715 C6.18564377,15.0470153 6.035232,14.9942637 5.87112034,14.9942637 C5.71584926,14.9942637 5.57314526,15.0412783 5.45662663,15.1215528 C5.33550617,15.2049994 5.24058617,15.3246079 5.1870384,15.4651402 L4.9964016,15.9654271 L4.59990103,15.6051425 L3.0457056,14.1928694 L2.8084728,13.9772877 L2.99141554,13.7142864 L5.04449554,10.7628247 L5.15381829,10.6056775 L5.34449554,10.6056775 L14.4936384,10.6056775 L14.6664977,10.6499654 L20.1181663,13.6014271 L20.626284,13.8765093 L20.1610234,14.2171526 L20.1610286,14.2171543 Z M18.0512297,14.8573646 L19.2643371,13.9692171 L14.4025886,11.3371269 L5.53517143,11.3371269 L3.77435657,13.8684377 L4.765536,14.7691131 C4.84679589,14.6754617 4.93981269,14.5921906 5.04231874,14.5215542 C5.27917371,14.3583597 5.56477131,14.2628184 5.87110046,14.2628184 C6.19541109,14.2628184 6.49623531,14.369725 6.74033931,14.5504539 C6.91452137,14.6794032 7.05907509,14.8466475 7.16182389,15.0399579 L7.65162274,15.0399579 C7.75437189,14.8466486 7.89892526,14.6794059 8.07312103,14.5504539 C8.31722469,14.369725 8.61804789,14.2628184 8.94235989,14.2628184 C9.26667051,14.2628184 9.56749474,14.369725 9.81159874,14.5504539 C9.9857808,14.6794032 10.1303345,14.8466475 10.2330833,15.0399579 L12.5132307,15.0399579 C12.6159799,14.8466486 12.7605333,14.6794059 12.9347153,14.5504539 C13.178819,14.369725 13.4796422,14.2628184 13.8039542,14.2628184 C14.1282648,14.2628184 14.429089,14.369725 14.673193,14.5504539 C14.8473888,14.6794032 14.9919422,14.8466475 15.0946913,15.0399579 L15.5844902,15.0399579 C15.6872393,14.8466486 15.8317927,14.6794059 16.0059747,14.5504539 C16.2500784,14.369725 16.5509016,14.2628184 16.8752136,14.2628184 C17.1987682,14.2628184 17.4991313,14.3693472 17.7432353,14.5495361 C17.860549,14.6361278 17.964432,14.7399703 18.0512129,14.8573653 L18.0512297,14.8573646 Z" id="Shape" fill="#212121" fill-rule="nonzero"></path>
                    <path d="M5.87112,14.2628229 C6.27502971,14.2628229 6.640752,14.4265845 6.905496,14.691312 C7.17022491,14.9560543 7.33398514,15.3217783 7.33398514,15.725688 C7.33398514,16.1295977 7.17022354,16.49532 6.905496,16.760064 C6.64075371,17.0248063 6.27502971,17.1885531 5.87112,17.1885531 C5.46721029,17.1885531 5.101488,17.0248053 4.836744,16.760064 C4.57200171,16.4953217 4.40825486,16.1295977 4.40825486,15.725688 C4.40825486,15.3217783 4.57200274,14.956056 4.836744,14.691312 C5.10148629,14.4265831 5.46721029,14.2628229 5.87112,14.2628229 Z M6.38834743,15.2084606 C6.25601006,15.0761366 6.07312149,14.9942695 5.87112,14.9942695 C5.66911783,14.9942695 5.48622857,15.0761369 5.35389257,15.2084606 C5.2215552,15.3407979 5.13970149,15.5236865 5.13970149,15.725688 C5.13970149,15.9276902 5.2215552,16.1105794 5.35389257,16.2429154 C5.48622994,16.3752528 5.66911851,16.4571065 5.87112,16.4571065 C6.07312217,16.4571065 6.25601143,16.3752528 6.38834743,16.2429154 C6.52067143,16.1105781 6.60253851,15.9276895 6.60253851,15.725688 C6.60253851,15.5236858 6.52067109,15.3407966 6.38834743,15.2084606 Z" id="Shape" fill="#212121" fill-rule="nonzero"></path>
                    <path d="M8.9424,14.2628229 C9.34630971,14.2628229 9.712032,14.4265845 9.976776,14.691312 C10.2415049,14.9560543 10.4052651,15.3217783 10.4052651,15.725688 C10.4052651,16.1295977 10.2415035,16.49532 9.976776,16.760064 C9.71203371,17.0248063 9.34630971,17.1885531 8.9424,17.1885531 C8.53849029,17.1885531 8.172768,17.0248053 7.908024,16.760064 C7.64328171,16.4953217 7.47953486,16.1295977 7.47953486,15.725688 C7.47953486,15.3217783 7.64328274,14.956056 7.908024,14.691312 C8.17276629,14.4265831 8.53849029,14.2628229 8.9424,14.2628229 Z M9.45962743,15.2084606 C9.32729006,15.0761366 9.14440149,14.9942695 8.9424,14.9942695 C8.74039783,14.9942695 8.55750857,15.0761369 8.42517257,15.2084606 C8.2928352,15.3407979 8.21098149,15.5236865 8.21098149,15.725688 C8.21098149,15.9276902 8.2928352,16.1105794 8.42517257,16.2429154 C8.55750994,16.3752528 8.74039851,16.4571065 8.9424,16.4571065 C9.14440217,16.4571065 9.32729143,16.3752528 9.45962743,16.2429154 C9.59195143,16.1105781 9.67381851,15.9276895 9.67381851,15.725688 C9.67381851,15.5236858 9.59195109,15.3407966 9.45962743,15.2084606 Z" id="Shape" fill="#212121" fill-rule="nonzero"></path>
                    <path d="M13.8039771,14.2628229 C14.2078869,14.2628229 14.5736091,14.4265845 14.8383531,14.691312 C15.1030954,14.9560543 15.2668423,15.3217783 15.2668423,15.725688 C15.2668423,16.1295977 15.1030944,16.49532 14.8383531,16.760064 C14.5736109,17.0248063 14.2078869,17.1885531 13.8039771,17.1885531 C13.4000674,17.1885531 13.0343451,17.0248053 12.7696011,16.760064 C12.5048722,16.4953217 12.341112,16.1295977 12.341112,15.725688 C12.341112,15.3217783 12.5048736,14.956056 12.7696011,14.691312 C13.0343434,14.4265831 13.4000674,14.2628229 13.8039771,14.2628229 Z M14.3212046,15.2084606 C14.1888672,15.0761366 14.0059786,14.9942695 13.8039771,14.9942695 C13.601975,14.9942695 13.4190857,15.0761369 13.2867497,15.2084606 C13.1544257,15.3407979 13.0725586,15.5236865 13.0725586,15.725688 C13.0725586,15.9276902 13.1544261,16.1105794 13.2867497,16.2429154 C13.4190871,16.3752528 13.6019757,16.4571065 13.8039771,16.4571065 C14.0059793,16.4571065 14.1888686,16.3752528 14.3212046,16.2429154 C14.4535419,16.1105781 14.5353957,15.9276895 14.5353957,15.725688 C14.5353957,15.5236858 14.4535419,15.3407966 14.3212046,15.2084606 Z" id="Shape" fill="#212121" fill-rule="nonzero"></path>
                    <path d="M16.8752229,14.2628229 C17.2791326,14.2628229 17.6448549,14.4265845 17.9095989,14.691312 C18.1743411,14.9560543 18.338088,15.3217783 18.338088,15.725688 C18.338088,16.1295977 18.1743401,16.49532 17.9095989,16.760064 C17.6448566,17.0248063 17.2791326,17.1885531 16.8752229,17.1885531 C16.4713131,17.1885531 16.1055909,17.0248053 15.8408469,16.760064 C15.5761179,16.4953217 15.4123577,16.1295977 15.4123577,15.725688 C15.4123577,15.3217783 15.5761193,14.956056 15.8408469,14.691312 C16.1055891,14.4265831 16.4713131,14.2628229 16.8752229,14.2628229 Z M17.3924503,15.2084606 C17.2601129,15.0761366 17.0772243,14.9942695 16.8752229,14.9942695 C16.6732207,14.9942695 16.4903314,15.0761369 16.3579954,15.2084606 C16.2256714,15.3407979 16.1438043,15.5236865 16.1438043,15.725688 C16.1438043,15.9276902 16.2256718,16.1105794 16.3579954,16.2429154 C16.4903328,16.3752528 16.6732214,16.4571065 16.8752229,16.4571065 C17.077225,16.4571065 17.2601143,16.3752528 17.3924503,16.2429154 C17.5247877,16.1105781 17.6066414,15.9276895 17.6066414,15.725688 C17.6066414,15.5236858 17.5247877,15.3407966 17.3924503,15.2084606 Z" id="Shape" fill="#212121" fill-rule="nonzero"></path>
                    <rect id="Rectangle-path" fill="#66BB6A" x="5.48571429" y="12.4342629" width="2.55999429" height="1"></rect>
                    <rect id="Rectangle-path" fill="#66BB6A" x="10.9714286" y="12.4342629" width="1.48049486" height="1"></rect>
                    <rect id="Rectangle-path" fill="#66BB6A" x="13.53144" y="12.4342629" width="1.48049486" height="1"></rect>
                    <path d="M18.73272,9.93493714 L20.5547211,11.6253977 L20.7216549,11.7802773 L20.5663299,11.9477102 C20.1487882,12.3977445 19.6057779,12.6795627 19.0312625,12.7771947 C18.4576797,12.8746659 17.8525882,12.7879394 17.3098351,12.5011138 C16.6472705,12.1509675 16.1892991,11.5653024 15.9845174,10.9015241 C15.7798423,10.238027 15.8282067,9.4965264 16.178137,8.83435269 C16.2333453,8.72987589 16.2956667,8.62871931 16.3645893,8.53157211 C16.4333091,8.43472183 16.5080763,8.34267669 16.5884047,8.25608503 L16.7432842,8.08915131 L16.9107171,8.24447623 L18.7327183,9.9349368 L18.73272,9.93493714 Z M20.0686217,11.7965829 L18.422016,10.268856 L16.7758286,8.74150971 C16.7622763,8.75944896 16.7489939,8.77757726 16.7360085,8.79586731 C16.679545,8.87546674 16.6279546,8.95931829 16.5817094,9.04684149 C16.2902942,9.59828949 16.2499344,10.2155249 16.4202425,10.7675935 C16.5904831,11.3194186 16.9713099,11.8063546 17.5223259,12.0975432 C17.9741294,12.3363014 18.4781808,12.4084227 18.9562642,12.3271899 C19.3616174,12.2582945 19.7483328,12.0786994 20.0686197,11.7965842 L20.0686217,11.7965829 Z" id="Shape" fill="#212121" fill-rule="nonzero"></path>
                    <polygon id="Shape" fill="#212121" fill-rule="nonzero" points="18.4822971 10.0078971 19.4044457 9.12277714 19.7205257 9.45137143 18.7983771 10.3364914"></polygon>
                    <circle id="Oval" fill="#212121" cx="19.7501143" cy="9.08341714" r="1"></circle>
                    <path d="M9.87428571,6.77321143 C11.0331566,6.77321143 12.0829749,7.24287086 12.8439806,8.00238171 C13.4411589,8.59841486 13.86,9.37328229 14.0136514,10.2399703 L13.271136,10.2399703 C13.1273386,9.57601371 12.7936731,8.98261714 12.3296949,8.51953029 C11.7013749,7.89243771 10.8334217,7.50465943 9.87428571,7.50465943 C8.91514971,7.50465943 8.04719314,7.89243771 7.41887657,8.51953029 C6.95489829,8.98261714 6.62123314,9.57601714 6.47743543,10.2399703 L5.73492,10.2399703 C5.88857143,9.37328571 6.30740914,8.59841486 6.90459086,8.00238171 C7.6656,7.24287086 8.71541486,6.77321143 9.87428571,6.77321143 Z" id="Shape" fill="#66BB6A" fill-rule="nonzero"></path>
                    <polygon id="Shape" fill="#66BB6A" fill-rule="nonzero" points="10.2400114 7.13893714 10.2400114 10.2399771 9.50856 10.2399771 9.50856 7.13893714"></polygon>
                </g>
            </g>
        </g>
    </g>
</svg>