<?xml version="1.0" encoding="UTF-8"?>
<svg width="24px" height="24px" viewBox="0 0 24 24" version="1.1" xmlns="http://www.w3.org/2000/svg" xmlns:xlink="http://www.w3.org/1999/xlink">
    <!-- Generator: Sketch 49.2 (51160) - http://www.bohemiancoding.com/sketch -->
    <title>star-orbitting-earth</title>
    <desc>Created with Sketch.</desc>
    <defs></defs>
    <g id="star-orbitting-earth" stroke="none" stroke-width="1" fill="none" fill-rule="evenodd">
        <g id="Group">
            <g id="Layer_x0020_1">
                <g>
                    <g id="_259445928">
                        <rect id="_259445904" x="0" y="0" width="23.4056914" height="23.4056914"></rect>
                        <rect id="_259445736" x="2.92570629" y="2.92570629" width="17.5542857" height="17.5542857"></rect>
                    </g>
                    <path d="M11.6417829,4.65497143 C13.228968,4.24550057 14.8771543,4.41848091 16.3108457,5.07961371 C17.7187063,5.72884114 18.9208251,6.84920229 19.6565246,8.35140343 C20.5042869,10.0824 20.5716823,11.9918949 19.9953861,13.6809463 C19.4184535,15.3718663 18.1974363,16.8428057 16.4693061,17.6941577 L16.0550146,17.1041589 C17.1116901,16.0927577 17.8019678,14.7748491 18.0521712,13.3651989 C18.2962882,11.9898411 18.1223623,10.528608 17.4621861,9.18062743 C16.9103472,8.05382743 16.0879495,7.14703886 15.1112661,6.50003657 C14.0999849,5.83011429 12.9238101,5.439432 11.7117826,5.37210514 L11.6417805,4.65495429 L11.6417829,4.65497143 Z M16.0051543,5.74246286 C15.4586331,5.49044949 14.8775863,5.317536 14.2809874,5.23008 C14.7103029,5.41149737 15.1233909,5.63261486 15.514152,5.891472 C16.5943954,6.60708343 17.5046949,7.61142857 18.1164926,8.860656 C18.8484103,10.3551223 19.0418297,11.9718 18.7721863,13.4909417 C18.6455181,14.204544 18.4168011,14.896968 18.0939497,15.5455063 C18.634152,14.9270126 19.0428274,14.2120217 19.3039646,13.4466823 C19.8208011,11.9318743 19.7610994,10.2208423 19.0022503,8.67140229 C18.3440331,7.327416 17.2671086,6.32441143 16.0051509,5.74246971 L16.0051543,5.74246286 Z" id="Shape" fill="#66BB6A" fill-rule="nonzero"></path>
                    <path d="M8.08330286,6.82505143 C9.90689829,6.32843657 11.7595543,6.61818994 13.2805714,7.48810286 C14.8015886,8.35798971 15.9907509,9.80811086 16.4874994,11.6322171 C16.984128,13.4558263 16.6943746,15.3084686 15.8244617,16.82952 C14.9545749,18.3505371 13.5044537,19.5396994 11.6803474,20.036448 C9.85673829,20.5330766 8.004096,20.2433232 6.48304457,19.3734103 C4.96202743,18.5035234 3.77286514,17.0534023 3.27611657,15.229296 L3.27610307,15.229242 C2.7794985,13.4056329 3.06924159,11.5530249 3.9391545,10.0319734 C4.80905164,8.51097001 6.25914879,7.32182144 8.0832345,6.82505915 L8.08328849,6.82504565 L8.08330286,6.82505143 Z M12.9177257,8.12238857 C11.5594183,7.34556 9.90438857,7.08697371 8.27472,7.53078514 L8.27466601,7.53079864 C6.64546029,7.97448664 5.35035172,9.0364935 4.57345458,10.3948421 C3.79662601,11.7531495 3.53805344,13.4081518 3.98185115,15.0378478 L3.98186465,15.0379018 C4.42555265,16.6671212 5.48758693,17.9622709 6.84592179,18.7391132 C8.20422922,19.5159418 9.85925893,19.7745281 11.4889275,19.3307166 C13.1181606,18.8870286 14.4133241,17.8249943 15.1901732,16.4666458 C15.9670018,15.1083383 16.2255881,13.4533086 15.7817766,11.8236401 C15.3380886,10.1944069 14.2760544,8.89924349 12.9177058,8.12239435 L12.9177257,8.12238857 Z" id="Shape" fill="#212121" fill-rule="nonzero"></path>
                    <path d="M3.50067429,16.0990971 C3.75027154,15.3811234 4.12755086,15.2650491 4.61436686,15.434304 C4.85207211,15.5169542 5.09149029,15.6840497 5.359704,15.8712583 C5.85729257,16.2185554 6.47691771,16.6510286 7.13589257,16.4715806 C8.68785943,16.0489474 9.74235086,16.376269 10.3250846,16.9686034 C10.6383264,17.2870152 10.8148423,17.6803954 10.8610629,18.0808766 C10.9074432,18.4829794 10.8222552,18.89268 10.6120594,19.2417463 C10.2567017,19.8318377 9.55407429,20.2452789 8.54235086,20.1430697 L8.61378377,19.4173474 C9.30266949,19.4869313 9.7650672,19.232029 9.98633349,18.8646034 C10.1125022,18.655069 10.1634854,18.4076846 10.1353413,18.1637314 C10.1070083,17.9181432 9.99823886,17.6763737 9.80507794,17.4800297 C9.3879408,17.0560217 8.58025509,16.8361063 7.32732823,17.177303 C6.34247794,17.4455009 5.56605394,16.9035706 4.94255451,16.4683978 C4.71937337,16.3126138 4.52013737,16.1735678 4.37437166,16.1228801 C4.31373737,16.1018092 4.25581611,16.147609 4.18925589,16.3390961 L3.50067874,16.0990961 L3.50067429,16.0990971 Z" id="Shape" fill="#212121" fill-rule="nonzero"></path>
                    <path d="M16.4929029,11.7205714 C16.6873056,12.4344309 16.5916701,12.762816 16.2531189,12.8550103 C15.9538207,12.9365266 15.621384,12.6813545 15.1710274,12.3356229 C14.4547783,11.7857966 13.3444217,10.9334434 12.3536057,11.2032617 C10.5883371,11.6839783 9.41629029,11.3664158 8.77016571,10.7303897 C8.36718857,10.3337006 8.17074514,9.81779657 8.16113486,9.28742057 C8.15176704,8.77069029 8.32254754,8.24041029 8.65444457,7.79857029 C9.22474971,7.03937143 10.2653349,6.53743543 11.6707234,6.82333029 L11.5249958,7.537608 C10.4398666,7.31687006 9.65492606,7.67977234 9.23730206,8.23572686 C9.00356537,8.54690331 8.88322663,8.91736457 8.88972034,9.276 C8.89597005,9.62098971 9.02238171,9.95522057 9.28158891,10.2103817 C9.75952491,10.6808503 10.6894083,10.8986057 12.1621546,10.4975448 C13.5002815,10.1331459 14.7850941,11.1194122 15.6138689,11.7556282 C15.6843706,11.8097431 15.7444245,11.8619678 15.7956507,11.9097113 L16.4928919,11.7205728 L16.4929029,11.7205714 Z M16.0616846,12.1492903 C16.1321054,12.1301227 16.0615361,12.1232251 15.9733653,12.0874275 C16.0160064,12.1305545 16.0435971,12.1542171 16.0616846,12.1492903 Z" id="Shape" fill="#212121" fill-rule="nonzero"></path>
                    <path d="M5.97291429,7.98562286 C6.654648,8.07803246 6.82498286,8.39471657 6.761688,8.86165029 C6.73200521,9.08063349 6.63188811,9.31129371 6.51973063,9.569664 C6.31880811,10.0325897 6.06858891,10.6090731 6.31716137,11.1036274 C6.89973394,12.2627417 6.8194608,13.136784 6.43455634,13.6968686 C6.20831109,14.0261061 5.88173349,14.2424846 5.51955977,14.3447623 C5.16613234,14.4445824 4.77771977,14.4359301 4.41755863,14.3172797 C3.75944777,14.1004428 3.19129234,13.52397 3.09749006,12.5810717 L3.82321234,12.5096388 C3.88392789,13.1198834 4.2376512,13.4883897 4.64613806,13.6229782 C4.86934629,13.6965036 5.1076992,13.7025372 5.3224032,13.6419029 C5.52840103,13.5837385 5.71150491,13.4644945 5.83455634,13.2854377 C6.08252023,12.9246149 6.10870697,12.310712 5.6657328,11.4293395 C5.26490194,10.6318469 5.59004777,9.88267659 5.8511592,9.28109602 C5.94154389,9.07288471 6.02222331,8.88701259 6.03882617,8.76451659 C6.04160683,8.74393166 6.00396,8.72585739 5.87578011,8.70848517 L5.97291394,7.98562231 L5.97291429,7.98562286 Z" id="Shape" fill="#212121" fill-rule="nonzero"></path>
                    <polygon id="Shape" fill="#212121" points="9.14286857 2.92569257 9.53561143 4.31376 10.9714286 4.75426286 9.58337143 5.14700571 9.14286857 6.58282286 8.75012571 5.19476571 7.31427429 4.75426286 8.70236571 4.36152"></polygon>
                </g>
            </g>
        </g>
    </g>
</svg>