<?xml version="1.0" encoding="UTF-8"?>
<svg width="24px" height="24px" viewBox="0 0 24 24" version="1.1" xmlns="http://www.w3.org/2000/svg" xmlns:xlink="http://www.w3.org/1999/xlink">
    <!-- Generator: Sketch 49.2 (51160) - http://www.bohemiancoding.com/sketch -->
    <title>star</title>
    <desc>Created with Sketch.</desc>
    <defs></defs>
    <g id="star" stroke="none" stroke-width="1" fill="none" fill-rule="evenodd">
        <g id="Group">
            <g id="Layer_x0020_1">
                <g>
                    <g id="_258300392">
                        <rect id="_258301160" x="0" y="0" width="23.4056914" height="23.4056914"></rect>
                        <rect id="_258301880" x="2.92570629" y="2.92570629" width="17.5542857" height="17.5542857"></rect>
                    </g>
                    <path d="M12.0471429,3.92945143 L13.9811143,9.37961143 L19.75716,9.53218286 L20.7843806,9.55932795 L19.9700126,10.1850422 L15.3846411,13.7082422 L17.0253874,19.251968 L17.3171938,20.2379257 L16.469675,19.6562548 L11.7007378,16.3831691 L6.93605211,19.6562548 L6.0889104,20.2381931 L6.38033897,19.2519645 L8.0193984,13.7053588 L3.43570697,10.1865131 L2.61940869,9.55985253 L3.64855954,9.53222146 L9.42806811,9.37712592 L11.3585698,3.92950306 L11.702627,2.95862421 L12.0471435,3.92950306 L12.0471429,3.92945143 Z M13.3763623,9.85865143 L11.7030857,5.1432 L10.0329806,9.85601143 L9.94931794,10.0921104 L9.69726411,10.0988731 L4.69487554,10.2331136 L8.66166411,13.2784016 L8.86108834,13.431486 L8.79023554,13.6712566 L7.37176697,18.4713937 L11.4949327,15.6390166 L11.7005661,15.4977567 L11.9063613,15.6390166 L16.033607,18.4716646 L14.6141098,13.6755046 L14.5435406,13.4370838 L14.7426813,13.2840804 L18.7128298,10.2336118 L13.7121213,10.1015172 L13.4602159,10.094876 L13.3764048,9.85865565 L13.3763623,9.85865143 Z" id="Shape" fill="#212121" fill-rule="nonzero"></path>
                    <path d="M14.5551771,11.5858629 L13.422696,11.5559506 L12.6695589,11.5360946 L12.4176535,11.5294534 L12.3338424,11.2932331 L11.9981122,10.3470022 L11.7040245,9.51822048 L11.076109,11.2901165 L10.9924464,11.5262155 L10.7403926,11.5329781 L8.85479829,11.5835698 L9.75057429,12.2712555 L10.3481571,12.7299812 L10.5475947,12.8830655 L10.4767286,13.1228362 L9.94212857,14.9319356 L11.494596,13.865475 L11.7002427,13.7242151 L11.9060246,13.865475 L12.7329171,14.4330647 L13.4616909,14.9332453 L12.927684,13.1289802 L12.8571147,12.8905594 L13.0562554,12.7375559 L14.5551754,11.5858679 L14.5551771,11.5858629 Z M13.4398389,10.8273669 L15.5995543,10.8844107 L16.6267886,10.9115558 L15.8124069,11.5372701 L13.6982469,13.1616827 L14.4535029,15.7134998 L14.7453093,16.6994713 L13.8977904,16.1177901 L12.3214841,15.0359284 L11.7003847,14.6095993 L9.50639726,16.116741 L8.65925554,16.6986793 L8.95068411,15.7124507 L9.70587497,13.1568964 L9.30771497,12.851254 L7.59564411,11.5368974 L6.77934583,10.9102232 L7.80849669,10.8826056 L10.471187,10.811159 L11.359499,8.30446869 L11.7035561,7.33357611 L12.0480727,8.30446869 L12.6866784,10.1041464 L12.9385975,10.814159 L13.4398306,10.8273738 L13.4398389,10.8273669 Z" id="Shape" fill="#66BB6A" fill-rule="nonzero"></path>
                </g>
            </g>
        </g>
    </g>
</svg>