<?xml version="1.0" encoding="UTF-8"?>
<svg width="24px" height="24px" viewBox="0 0 24 24" version="1.1" xmlns="http://www.w3.org/2000/svg" xmlns:xlink="http://www.w3.org/1999/xlink">
    <!-- Generator: Sketch 49.2 (51160) - http://www.bohemiancoding.com/sketch -->
    <title>star-falling</title>
    <desc>Created with Sketch.</desc>
    <defs></defs>
    <g id="star-falling" stroke="none" stroke-width="1" fill="none" fill-rule="evenodd">
        <g id="Group">
            <g id="Layer_x0020_1">
                <g>
                    <g id="_259448328">
                        <rect id="_259448232" x="0" y="0" width="23.4056914" height="23.4056914"></rect>
                        <rect id="_259448112" x="2.92570629" y="2.92570629" width="17.5542857" height="17.5542857"></rect>
                    </g>
                    <path d="M5.33677714,14.2049486 L6.80152114,15.3607269 L8.45301257,14.6917646 L9.219192,14.3814113 L8.93301429,15.1560525 L8.28535029,16.9092387 L9.43058914,18.2716365 L9.96127371,18.9029393 L9.13772743,18.8702194 L7.27250229,18.7961002 L6.33017314,20.3071402 L5.89277314,21.0085265 L5.66874171,20.2128545 L5.16285257,18.4160396 L3.43558286,17.9870225 L2.633784,17.7878684 L3.31987543,17.3298696 L4.87262743,16.2933473 L4.74676903,14.516377 L4.68848331,13.6933861 L5.3367816,14.2049461 L5.33677714,14.2049486 Z M6.51743314,16.0642183 L5.53363543,15.2879314 L5.61613714,16.452768 L5.63107978,16.6635981 L5.45469727,16.7813438 L4.41168127,17.4776009 L5.54387784,17.7588113 L5.75063133,17.810159 L5.80816104,18.0145234 L6.14757624,19.2200297 L6.76466424,18.2305097 L6.8768351,18.0506448 L7.08894744,18.0590812 L8.3427383,18.1089035 L7.59113715,17.2147904 L7.4541023,17.0517577 L7.5268583,16.8547904 L7.96112458,15.6792772 L6.88028801,16.1170818 L6.6847919,16.196263 L6.51742618,16.0642225 L6.51743314,16.0642183 Z" id="Shape" fill="#66BB6A" fill-rule="nonzero"></path>
                    <path d="M20.1429943,4.48066286 L10.3347771,14.4451543 L9.784776,13.9680171 L18.1399303,3.06999429 L18.3914849,2.74187726 L18.6856402,3.031416 L19.8903511,4.21724229 L19.882873,4.22484185 L20.1429854,4.48066197 L20.1429943,4.48066286 Z M13.9565006,9.726 L19.1189143,4.48131429 L18.4683634,3.84095314 L13.9565006,9.726 Z" id="Shape" fill="#212121" fill-rule="nonzero"></path>
                </g>
            </g>
        </g>
    </g>
</svg>