<?xml version="1.0" encoding="UTF-8"?>
<svg width="24px" height="24px" viewBox="0 0 24 24" version="1.1" xmlns="http://www.w3.org/2000/svg" xmlns:xlink="http://www.w3.org/1999/xlink">
    <!-- Generator: Sketch 49.2 (51160) - http://www.bohemiancoding.com/sketch -->
    <title>stars-2</title>
    <desc>Created with Sketch.</desc>
    <defs></defs>
    <g id="stars-2" stroke="none" stroke-width="1" fill="none" fill-rule="evenodd">
        <g id="Group">
            <g id="Layer_x0020_1">
                <g>
                    <g id="_347224720">
                        <rect id="_347224384" x="0" y="0" width="23.4056914" height="23.4056914"></rect>
                        <rect id="_347224504" x="2.92570629" y="2.92570629" width="17.5542857" height="17.5542857"></rect>
                    </g>
                    <path d="M15.1739657,3.60850286 L15.9229474,7.16444571 L19.4542731,7.86996343 L19.3828402,8.22853371 L19.4544891,7.869912 C19.6525498,7.90947566 19.781027,8.10212331 19.7414633,8.300184 C19.7100393,8.45749337 19.5820347,8.57089269 19.4314611,8.59107257 L15.8755183,9.34005429 L15.1700006,12.87138 L14.8114303,12.7999471 L15.170052,12.871596 C15.1304883,13.0696567 14.9378407,13.1981338 14.73978,13.1585702 C14.5824706,13.1271461 14.4690713,12.9991416 14.4488914,12.848568 L13.6999097,9.29262514 L10.168584,8.58710743 L10.2400169,8.22853714 L10.168368,8.58715886 C9.97030731,8.5475952 9.84183017,8.35494754 9.88139383,8.15688686 C9.91281789,7.99957749 10.0408224,7.88617817 10.191396,7.86599829 L13.7473389,7.11701657 L14.4528566,3.58569086 L14.8114269,3.65712377 L14.4528051,3.58547486 C14.4923688,3.38741417 14.6850165,3.25893703 14.8830771,3.29850069 C15.0403865,3.32992474 15.1537858,3.45792926 15.1739657,3.60850286 Z M15.6157646,7.47593143 L15.2586274,7.5502128 L14.8213097,5.4739008 L14.4196286,7.48440823 C14.3955476,7.62855669 14.2858197,7.7501496 14.1341931,7.78207303 L14.0588184,7.4242056 L14.1330998,7.78134274 L12.0567878,8.21866046 L14.0672952,8.6203416 C14.2114437,8.64442258 14.3330366,8.75415051 14.36496,8.90577703 L14.0070926,8.98115177 L14.3642297,8.9068704 L14.8015474,10.9831824 L15.2032286,8.97267497 C15.2273096,8.82852651 15.3370375,8.7069336 15.488664,8.67501017 L15.5640387,9.0328776 L15.4897574,8.67574046 L17.5660694,8.23842274 L15.5555619,7.8367416 C15.4114135,7.81266062 15.2898206,7.70293269 15.2578971,7.55130617 L15.6157646,7.47593143 Z" id="Shape" fill="#212121" fill-rule="nonzero"></path>
                    <path d="M6.74190857,13.0742057 L7.29487886,15.6995451 L9.90819429,16.221648 L9.83676137,16.5802183 L9.90841029,16.2215966 C10.106471,16.2611602 10.2349481,16.4538079 10.1953845,16.6518686 C10.1639604,16.8091779 10.0359559,16.9225773 9.88538229,16.9427571 L7.26004286,17.4957274 L6.73794,20.1090429 L6.37936971,20.0376099 L6.73799143,20.1092589 C6.69842777,20.3073195 6.50578011,20.4357967 6.30771943,20.396233 C6.15041006,20.364809 6.03701074,20.2368045 6.01683086,20.0862309 L5.46386057,17.4608914 L2.85054514,16.9387886 L2.92197806,16.5802183 L2.85032914,16.93884 C2.65226846,16.8992763 2.52379131,16.7066287 2.56335497,16.508568 C2.59477903,16.3512586 2.72278354,16.2378593 2.87335714,16.2176794 L5.49869657,15.6647091 L6.02079943,13.0513937 L6.37936971,13.1228266 L6.020748,13.0511777 C6.06031166,12.853117 6.25295931,12.7246399 6.45102,12.7642035 C6.60832937,12.7956276 6.72172869,12.9236321 6.74190857,13.0742057 Z M6.98769943,16.0110206 L6.63056229,16.0853019 L6.38925291,14.9396071 L6.17098526,16.0320939 C6.14690427,16.1762424 6.03717634,16.2978353 5.88554983,16.3297587 L5.81017509,15.9718913 L5.88445646,16.3290285 L4.7387616,16.5703378 L5.83124846,16.7886055 C5.97539691,16.8126865 6.09698983,16.9224144 6.12891326,17.0740409 L5.77104583,17.1494157 L6.12818297,17.0751343 L6.36949234,18.2208291 L6.58776,17.1283423 C6.61184098,16.9841938 6.72156891,16.8626009 6.87319543,16.8306775 L6.94857017,17.1885449 L6.8742888,16.8314078 L8.01998366,16.5900984 L6.9274968,16.3718307 C6.78334834,16.3477498 6.66175543,16.2380218 6.629832,16.0863953 L6.98769943,16.0110206 Z" id="Shape" fill="#66BB6A" fill-rule="nonzero"></path>
                    <path d="M5.11998857,3.65712 C5.40164434,3.65712 5.66221714,3.74692423 5.85575314,3.89208514 C6.0790152,4.05954514 6.21713143,4.29922114 6.21713143,4.57141543 C6.21713143,4.84359531 6.07901657,5.083284 5.85575314,5.25074571 C5.6622144,5.39590663 5.40164229,5.48571086 5.11998857,5.48571086 C4.8383328,5.48571086 4.57776,5.39590663 4.384224,5.25074571 C4.16096194,5.08328571 4.02284571,4.843596 4.02284571,4.57141543 C4.02284571,4.29922183 4.16096057,4.05954686 4.384224,3.89208514 C4.57776274,3.74692423 4.83833486,3.65712 5.11998857,3.65712 Z M5.41859829,4.47494057 C5.34746229,4.42159509 5.24228331,4.38856491 5.11998857,4.38856491 C4.99769383,4.38856491 4.89251486,4.42159529 4.82137886,4.47494057 C4.77993909,4.50601368 4.75429234,4.54065051 4.75429234,4.57141303 C4.75429234,4.60218919 4.77993912,4.63681234 4.82137886,4.66788549 C4.89251486,4.72123097 4.99769383,4.75426114 5.11998857,4.75426114 C5.24228331,4.75426114 5.34746229,4.72123077 5.41859829,4.66788549 C5.46003806,4.63681238 5.4856848,4.60218926 5.4856848,4.57141303 C5.4856848,4.54065038 5.46003802,4.50601371 5.41859829,4.47494057 Z" id="Shape" fill="#66BB6A" fill-rule="nonzero"></path>
                    <path d="M18.5389029,18.0341829 C18.9215383,18.0341829 19.273536,18.1546824 19.5332709,18.3494901 C19.8227016,18.5665563 20.0017577,18.8748295 20.0017577,19.2227643 C20.0017577,19.5707095 19.822716,19.8789723 19.5332709,20.0960386 C19.2735497,20.2908463 18.9215554,20.4113458 18.5389029,20.4113458 C18.1562537,20.4113458 17.804256,20.2908463 17.5445349,20.0960386 C17.2550904,19.8789723 17.076048,19.5707129 17.076048,19.2227643 C17.076048,18.8748329 17.2551031,18.5665563 17.5445349,18.3494901 C17.8042694,18.1546824 18.156264,18.0341829 18.5389029,18.0341829 Z M19.0961143,18.9323486 C18.9587825,18.8293563 18.7621797,18.7656309 18.5389029,18.7656309 C18.3156274,18.7656309 18.1190229,18.8293563 17.9816914,18.9323486 C17.874083,19.0130551 17.8074957,19.1162496 17.8074957,19.2227647 C17.8074957,19.3292664 17.874083,19.4324746 17.9816914,19.5131808 C18.1190098,19.616173 18.3156261,19.6798985 18.5389029,19.6798985 C18.7621783,19.6798985 18.9587829,19.6161864 19.0961143,19.5131808 C19.2037227,19.4324743 19.2703101,19.3292664 19.2703101,19.2227647 C19.2703101,19.1162496 19.2037227,19.0130547 19.0961143,18.9323486 Z" id="Shape" fill="#66BB6A" fill-rule="nonzero"></path>
                    <path d="M17.9199771,10.9713943 C18.3026126,10.9713943 18.6546103,11.0918938 18.9143451,11.2867015 C19.2037896,11.5037815 19.382832,11.8120409 19.382832,12.1599758 C19.382832,12.5079209 19.2037903,12.8161838 18.9143451,13.0332501 C18.654624,13.2280577 18.3026297,13.3485573 17.9199771,13.3485573 C17.537328,13.3485573 17.1853303,13.2280577 16.9256091,13.0332501 C16.6361647,12.8161838 16.4571223,12.5079243 16.4571223,12.1599758 C16.4571223,11.8120443 16.636164,11.5037815 16.9256091,11.2867015 C17.1853437,11.0918938 17.5373383,10.9713943 17.9199771,10.9713943 Z M18.4771886,11.86956 C18.3398568,11.7665678 18.1432539,11.7028423 17.9199771,11.7028423 C17.6967017,11.7028423 17.5000971,11.7665678 17.3627657,11.86956 C17.2551573,11.9502665 17.1885699,12.053461 17.1885699,12.1599761 C17.1885699,12.2664778 17.2551573,12.3696861 17.3627657,12.4503922 C17.5000841,12.5533845 17.6967003,12.6171099 17.9199771,12.6171099 C18.1432526,12.6171099 18.3398571,12.5533978 18.4771886,12.4503922 C18.584797,12.3696857 18.6513843,12.2664778 18.6513843,12.1599761 C18.6513843,12.053461 18.584797,11.9502662 18.4771886,11.86956 Z" id="Shape" fill="#66BB6A" fill-rule="nonzero"></path>
                    <path d="M5.33955429,7.98956571 C5.72218971,7.98956571 6.07418743,8.11006526 6.33392229,8.30487291 C6.62335303,8.5219392 6.80240914,8.83019863 6.80240914,9.1781472 C6.80240914,9.52607863 6.62336743,9.8343552 6.33392229,10.0514215 C6.07420114,10.2462291 5.72220686,10.3667287 5.33955429,10.3667287 C4.95690514,10.3667287 4.60490743,10.2462291 4.34518629,10.0514215 C4.05574183,9.8343552 3.87669943,9.52608206 3.87669943,9.1781472 C3.87669943,8.83020206 4.05575451,8.5219392 4.34518629,8.30487291 C4.6049208,8.11006526 4.95691543,7.98956571 5.33955429,7.98956571 Z M5.89676571,8.88773143 C5.75943394,8.7847392 5.56283109,8.72101371 5.33955429,8.72101371 C5.11627886,8.72101371 4.91967429,8.7847392 4.78234286,8.88773143 C4.6747344,8.96843794 4.60814709,9.07164583 4.60814709,9.17814754 C4.60814709,9.28466263 4.6747344,9.38785749 4.78234286,9.46856366 C4.91967463,9.57156926 5.11627749,9.63528137 5.33955429,9.63528137 C5.56282971,9.63528137 5.759448,9.57155589 5.89676571,9.46856366 C6.00437417,9.38785714 6.07096149,9.28466263 6.07096149,9.17814754 C6.07096149,9.07164583 6.00437417,8.9684376 5.89676571,8.88773143 Z" id="Shape" fill="#66BB6A" fill-rule="nonzero"></path>
                    <polygon id="Shape" fill="#212121" points="14.7350743 14.4693943 15.1481829 16.4307771 17.0829943 16.8173143 15.1216457 17.2304229 14.7350743 19.1652343 14.3219657 17.2038857 12.3871543 16.8173143 14.3485371 16.4042057"></polygon>
                    <polygon id="Shape" fill="#212121" points="10.0863429 9.87428571 10.4994857 11.8356343 12.4342971 12.2222057 10.4729143 12.6353143 10.0863429 14.5701257 9.67323429 12.6087429 7.73842286 12.2222057 9.69980571 11.8090629"></polygon>
                </g>
            </g>
        </g>
    </g>
</svg>