<?xml version="1.0" encoding="UTF-8"?>
<svg width="24px" height="24px" viewBox="0 0 24 24" version="1.1" xmlns="http://www.w3.org/2000/svg" xmlns:xlink="http://www.w3.org/1999/xlink">
    <!-- Generator: Sketch 49.2 (51160) - http://www.bohemiancoding.com/sketch -->
    <title>stars</title>
    <desc>Created with Sketch.</desc>
    <defs></defs>
    <g id="stars" stroke="none" stroke-width="1" fill="none" fill-rule="evenodd">
        <g id="Group">
            <g id="Layer_x0020_1">
                <g>
                    <g id="_347234608">
                        <rect id="_347234896" x="0" y="0" width="23.4056914" height="23.4056914"></rect>
                        <rect id="_347234776" x="2.92570629" y="2.92570629" width="17.5542857" height="17.5542857"></rect>
                    </g>
                    <path d="M8.22980571,14.4328457 C9.5766,12.3071451 11.276376,10.6984114 13.2366857,9.60274286 C15.2512423,8.47676914 17.5370057,7.89684 19.9937829,7.858344 L20.0052024,8.58692914 C17.6695499,8.62352297 15.4996824,9.17306743 13.5909624,10.2398914 C11.7385739,11.275224 10.1282424,12.8019394 8.84695101,14.8242686 L8.22980815,14.4328457 L8.22980571,14.4328457 Z" id="Shape" fill="#212121" fill-rule="nonzero"></path>
                    <path d="M7.40214857,12.9627086 L8.24185029,15.2921109 L10.723824,15.375409 L11.7326057,15.4092628 L10.9352469,16.0282674 L8.97898971,17.5469497 L9.66702514,19.934168 L9.94575189,20.9012 L9.11274274,20.335592 L7.06414389,18.944576 L5.00583874,20.3370217 L4.17031989,20.9022491 L4.45155737,19.9327314 L5.14168423,17.5536937 L3.18190594,16.0268445 L2.3869368,15.4074731 L3.39476194,15.3754011 L5.87004309,15.2966115 L6.71642709,12.9612675 L7.05995966,12.0134287 L7.40214171,12.9626972 L7.40214857,12.9627086 Z M7.64017783,15.7709657 L7.0586304,14.1577029 L6.47162811,15.7773394 L6.38750674,16.0094565 L6.14020423,16.0173395 L4.4254728,16.0719131 L5.78475394,17.1309233 L5.9792376,17.2824285 L5.91046354,17.5194995 L5.43281211,19.166064 L6.85919383,18.2011235 L7.06280229,18.0633731 L7.26776057,18.2025542 L8.688324,19.1671176 L8.21072743,17.5100788 L8.14246663,17.2732104 L8.33786811,17.1215164 L9.69218126,16.0701449 L7.97160411,16.0123992 L7.72422069,16.0040843 L7.64018023,15.7709685 L7.64017783,15.7709657 Z" id="Shape" fill="#212121" fill-rule="nonzero"></path>
                    <path d="M14.7428914,16.1538857 L15.1690183,17.3359749 L16.4289771,17.3782649 L17.4377589,17.4121187 L16.6404,18.0311233 L15.6475063,18.8019313 L15.9969223,20.0142673 L16.2756353,20.9812993 L15.4426399,20.4156913 L14.4030285,19.7097827 L13.3574342,20.417121 L12.5219016,20.9823484 L12.8031525,20.0128307 L13.153501,18.8050958 L12.158245,18.0297004 L11.3632759,17.410329 L12.371101,17.378257 L13.6274016,17.3382613 L14.057173,16.1524488 L14.4006782,15.2046099 L14.7428873,16.1538785 L14.7428914,16.1538857 Z M14.5673458,17.8148263 L14.3993729,17.3488766 L14.2289973,17.8189817 L14.1448622,18.0510987 L13.897573,18.0589817 L13.4018085,18.0747613 L13.7965673,18.3823202 L13.9910376,18.5338254 L13.9222773,18.7708964 L13.7844055,19.2461718 L14.1980763,18.9663249 L14.4016714,18.8285745 L14.6066434,18.9677557 L15.0182057,19.2472113 L14.8792406,18.7650513 L14.8109661,18.528183 L15.0063813,18.3764889 L15.3973344,18.0729928 L14.8987755,18.0562549 L14.6513784,18.0479399 L14.5673513,17.8148242 L14.5673458,17.8148263 Z" id="Shape" fill="#66BB6A" fill-rule="nonzero"></path>
                    <path d="M9.32694857,14.7985371 C10.696488,12.6369291 12.1530377,11.2428686 13.8826286,10.3753714 C15.6044743,9.511776 17.57832,9.18209486 19.9937829,9.14424343 L20.0052024,9.87282857 C17.6957476,9.90901749 15.820631,10.218144 14.2083453,11.0268 C12.6037464,11.8316091 11.2407281,13.1434423 9.94409386,15.1899771 L9.32695101,14.7985543 L9.32694857,14.7985371 Z" id="Shape" fill="#212121" fill-rule="nonzero"></path>
                    <path d="M5.76658286,6.96356571 L6.19270971,8.14565486 L7.45266857,8.18794491 L8.461464,8.22181217 L7.66409143,8.84080303 L6.67119771,9.61161103 L7.02061371,10.823947 L7.29934046,11.790979 L6.46633131,11.225371 L5.42671989,10.5194625 L4.3811256,11.2268007 L3.54560674,11.7920282 L3.82684423,10.8225105 L4.1771928,9.6147756 L3.1819368,8.83938017 L2.38696766,8.22002246 L3.3947928,8.18793696 L4.65109337,8.1479413 L5.0808648,6.96212873 L5.42438366,6.01430359 L5.76657943,6.96355845 L5.76658286,6.96356571 Z M5.59103726,8.62450629 L5.42306434,8.15855657 L5.25268869,8.62866171 L5.16856731,8.86079211 L4.9212648,8.86866165 L4.42550023,8.88444117 L4.82025909,9.19200014 L5.01474274,9.34351865 L4.94596869,9.58057591 L4.80809691,10.0558513 L5.22176777,9.77600448 L5.42537623,9.63826779 L5.63033451,9.77743557 L6.0418968,10.0568912 L5.90293166,9.57473122 L5.83467086,9.33787625 L6.03007234,9.18616882 L6.42102549,8.88267271 L5.92246663,8.8659348 L5.6750832,8.85763334 L5.59104274,8.62450385 L5.59103726,8.62450629 Z" id="Shape" fill="#66BB6A" fill-rule="nonzero"></path>
                    <path d="M6.40124571,7.48426286 C7.78467429,5.30072229 9.28247314,4.17824229 11.0545714,3.58964571 C12.798096,3.01055314 14.7731657,2.96460686 17.16624,2.92710857 L17.1776596,3.65569371 C14.8458127,3.69223371 12.922871,3.73648114 11.2831567,4.28108571 C9.67198529,4.81622743 8.30116358,5.85103543 7.01839101,7.87566857 L6.40124815,7.48424571 L6.40124571,7.48426286 Z" id="Shape" fill="#212121" fill-rule="nonzero"></path>
                </g>
            </g>
        </g>
    </g>
</svg>