<?xml version="1.0" encoding="UTF-8"?>
<svg width="24px" height="24px" viewBox="0 0 24 24" version="1.1" xmlns="http://www.w3.org/2000/svg" xmlns:xlink="http://www.w3.org/1999/xlink">
    <!-- Generator: Sketch 49.2 (51160) - http://www.bohemiancoding.com/sketch -->
    <title>sun-and-planets</title>
    <desc>Created with Sketch.</desc>
    <defs></defs>
    <g id="sun-and-planets" stroke="none" stroke-width="1" fill="none" fill-rule="evenodd">
        <g id="Group" transform="translate(4.000000, 4.000000)">
            <g id="Layer_x0020_1">
                <g>
                    <g id="_259438512">
                        <rect id="_259438680" x="0" y="0" width="15.6037943" height="15.6037943"></rect>
                        <rect id="_259438536" x="1.95047086" y="1.95047086" width="11.7028571" height="11.7028571"></rect>
                    </g>
                    <g id="_259438464" transform="translate(2.285714, 2.285714)" fill="#212121" fill-rule="nonzero">
                        <g id="Group">
                            <path d="M4.12363429,11.2586286 C4.08229349,11.2504306 4.03054103,11.239236 3.96852069,11.2250987 C2.60002469,10.9131879 1.51382354,10.1230782 0.836749257,9.07037189 C0.159773257,8.01783703 -0.1073856,6.70486331 0.161951543,5.34701189 C0.170014537,5.30636389 0.181128137,5.25496229 0.195346286,5.19257326 L0.674402286,5.27162834 C0.558352686,6.33130834 0.839207771,7.33506149 1.42375771,8.12390263 C1.998336,8.89930834 2.86786057,9.46910949 3.94384914,9.68253577 C4.47660114,9.78820046 5.015552,9.79830629 5.54076343,9.72482149 C6.08821029,9.648232 6.62089829,9.48150949 7.11650286,9.23811749 L7.45952229,9.06965851 L7.46602848,9.45240823 C7.46904311,9.63005509 7.51518939,9.79848594 7.59456837,9.94767909 L7.59383046,9.94806604 C7.67578314,10.1019378 7.7930476,10.2339335 7.93471731,10.3331289 L8.2755676,10.5717963 L7.9004316,10.7512249 C7.30949446,11.0338535 6.67698017,11.2265003 6.02848646,11.3136912 C5.40035617,11.3981275 4.7577276,11.3843954 4.12364074,11.258627 L4.12363429,11.2586286 Z M4.07519337,10.7508046 C4.11135086,10.7590475 4.15860389,10.7689643 4.21697074,10.7805369 C4.79996274,10.8961726 5.38919931,10.9090139 5.96372503,10.8317856 C6.44236731,10.7674347 6.91119931,10.6410635 7.35819131,10.4599433 C7.28402263,10.3729691 7.21912274,10.277896 7.16503954,10.1762542 L7.16409466,10.1762542 C7.10385626,10.0630393 7.05700803,9.94128503 7.02564689,9.81309531 C6.57194175,10.0046633 6.09478517,10.138549 5.60742517,10.2067342 C5.0287806,10.2876971 4.43579775,10.2767184 3.85051089,10.1606329 C2.65044689,9.92259406 1.67819089,9.28378263 1.0332766,8.41343749 C1.02039921,8.39606066 1.00770175,8.3785488 0.995085289,8.360992 C1.070091,8.51482766 1.15391546,8.66392 1.24627157,8.80751543 C1.85644072,9.756176 2.83749672,10.4687086 4.07520872,10.7508046 L4.07519337,10.7508046 Z M8.76511337,7.98579886 C9.00390651,7.71741714 9.21508366,7.42526857 9.39251451,7.11306971 C9.56532891,6.80898971 9.70714309,6.48509257 9.8124208,6.14469257 C9.8468864,6.03326857 9.8771136,5.92065669 9.9031744,5.80714514 C10.150059,4.73204114 9.98375931,3.687648 9.4979104,2.83320229 C9.01262811,1.979776 8.20753554,1.31403886 7.17619611,0.995046857 C7.07270011,0.963046857 6.9655504,0.934232457 6.85482926,0.908810743 L6.93673691,0.429754743 C7.0031936,0.4373408 7.07969303,0.44778848 7.16675749,0.461250743 C7.25430743,0.474794057 7.33113097,0.488067429 7.39634606,0.500998857 C7.5847824,0.5383712 7.77049234,0.585588343 7.95298149,0.642038171 C9.19832777,1.0272176 10.1775118,1.82487703 10.7818043,2.85004731 C11.3855209,3.87426217 11.6138226,5.12337989 11.3580832,6.41263017 C11.3207378,6.60093166 11.2722069,6.79245417 11.2121394,6.98665989 C11.0892869,7.38387131 10.9256069,7.76226446 10.727072,8.11825074 C10.5228875,8.48437874 10.2819794,8.82666903 10.0108526,9.14127931 L9.73803429,9.4578416 L9.5975168,9.06414103 C9.5387632,8.89953371 9.44229531,8.75332046 9.31870537,8.63611817 C9.19569074,8.51946583 9.04513966,8.43096183 8.87750766,8.38105303 L8.51063223,8.27182469 L8.76513051,7.98581326 L8.76511337,7.98579886 Z M9.81537166,7.35306971 C9.67523223,7.59965714 9.51712251,7.83367314 9.3434608,8.05370514 C9.4561808,8.11763314 9.56039657,8.19502354 9.65393166,8.28372571 C9.7354704,8.36105303 9.8087664,8.44686629 9.87238834,8.53970743 C10.0303097,8.33124846 10.1742466,8.11165714 10.3022923,7.88205257 C10.4844656,7.55539429 10.6346558,7.20821714 10.7473666,6.84378057 C10.800856,6.67083109 10.8449774,6.49575771 10.8799739,6.31928 C11.1120722,5.149184 10.9070245,4.01914286 10.3627465,3.09576 C10.1756779,2.77839771 9.94838537,2.48518629 9.6848608,2.22288686 C9.7696032,2.34232 9.84837029,2.46587429 9.92076709,2.59319086 C10.4653157,3.55088686 10.6525385,4.717888 10.3774688,5.915728 C10.3493744,6.03811269 10.3159705,6.16212571 10.2771762,6.28756114 C10.1611627,6.66266971 10.0052037,7.01905371 9.8153728,7.353072 L9.81537166,7.35306971 Z" id="_259438872"></path>
                            <path d="M8.56381714,7.84822857 C9.00140571,7.84822857 9.3976,8.02562331 9.68439314,8.31241829 C9.97118629,8.59921143 10.1485829,8.99540571 10.1485829,9.43299429 C10.1485829,9.87058286 9.97118811,10.2667771 9.68439314,10.5535703 C9.3976,10.8403634 9.00140571,11.01776 8.56381714,11.01776 C8.12622857,11.01776 7.73003429,10.8403653 7.44324114,10.5535703 C7.156448,10.2667771 6.97905143,9.87058286 6.97905143,9.43299429 C6.97905143,8.99540571 7.15644617,8.59921143 7.44324114,8.31241829 C7.73003429,8.02562514 8.12622857,7.84822857 8.56381714,7.84822857 Z M9.33962743,8.65718171 C9.14110331,8.4586576 8.86680914,8.33585829 8.56381714,8.33585829 C8.26082514,8.33585829 7.98653029,8.45865691 7.78800686,8.65718171 C7.58948274,8.85570583 7.46668343,9.13 7.46668343,9.432992 C7.46668343,9.735984 7.58948206,10.0102789 7.78800686,10.2088023 C7.98653097,10.4073264 8.26082514,10.5301257 8.56381714,10.5301257 C8.86680914,10.5301257 9.141104,10.4073271 9.33962743,10.2088023 C9.53815154,10.0102782 9.66095086,9.735984 9.66095086,9.432992 C9.66095086,9.13 9.53815223,8.85570514 9.33962743,8.65718171 Z" id="_259439064"></path>
                        </g>
                        <path d="M4.21156571,8.66473143 C4.18702583,8.65986304 4.15199314,8.652232 4.10645874,8.64185623 C3.17697303,8.4300048 2.43900274,7.89301509 1.97876503,7.17744251 C1.5186256,6.46205051 1.33692046,5.57023337 1.51975931,4.64848251 C1.52451973,4.62446446 1.53214176,4.589504 1.54254446,4.5438256 L2.02160046,4.62288069 C1.94693669,5.30470697 2.1272832,5.9500624 2.50277074,6.45678926 C2.87192274,6.95496754 3.43120274,7.32118469 4.12379246,7.45856297 C4.92557531,7.61759109 5.75190446,7.4406912 6.43972389,7.02611269 C7.12861531,6.6108784 7.6768896,5.95905211 7.92121874,5.1690864 C7.95219291,5.06892 7.97786674,4.96639566 7.99840206,4.86204411 C8.01867653,4.75904297 8.03310171,4.65625783 8.04190263,4.55408526 L8.06278903,4.31177211 L8.30381531,4.33122768 C8.32458471,4.33290147 8.33597737,4.33381035 8.33695817,4.33384635 C8.33780407,4.33387335 8.34706391,4.33379236 8.37055109,4.33379236 C8.44807634,4.33379236 8.5220832,4.32326368 8.59123954,4.3036191 C8.66381554,4.28301168 8.73172091,4.25280242 8.79342629,4.21455716 L9.13212571,4.00464036 L9.16390971,4.40217408 C9.18182647,4.62635396 9.17809193,4.8564095 9.1512573,5.0899135 C9.1253405,5.31537133 9.07734965,5.54464493 9.00594347,5.77552036 C8.69640062,6.77634779 8.00603262,7.59960036 7.14013547,8.12150893 C6.27316633,8.6440735 5.22846005,8.86642779 4.21156405,8.66472493 L4.21156571,8.66473143 Z M4.21313152,8.16756114 C4.23270407,8.17201559 4.26334523,8.17839579 4.30490203,8.18663877 C5.19956946,8.36409659 6.12147803,8.16680523 6.88869632,7.70436219 C7.65701175,7.24126277 8.26855689,6.51408105 8.5411786,5.63265019 C8.60292877,5.43298322 8.64463872,5.23296562 8.66743277,5.03467534 C8.67716955,4.94998688 8.68336077,4.86571237 8.68611444,4.78199648 C8.62575901,4.79726757 8.56398164,4.80828219 8.50114256,4.81473431 C8.49395245,4.86146551 8.48573648,4.90835854 8.47648564,4.95537774 C8.45365549,5.07135534 8.42358119,5.19031031 8.38596587,5.31194917 C8.10471559,6.22129545 7.47761844,6.96919945 6.6911453,7.44326117 C5.90359101,7.91796059 4.95444359,8.11992174 4.03043673,7.93665088 C3.5675613,7.84483534 3.15439559,7.66522688 2.80325959,7.41885659 C3.17478644,7.77597659 3.6531773,8.03994002 4.2131133,8.16756288 L4.21313152,8.16756114 Z M7.57603437,2.81352686 C7.39644375,2.56379886 7.16991552,2.34610743 6.90347666,2.17240229 C6.64505609,2.00390743 6.34847095,1.87655543 6.02004809,1.80114514 L6.10195575,1.32208914 C6.14364763,1.32684955 6.19532809,1.33396766 6.25769037,1.34361445 C6.32049357,1.35333323 6.37265106,1.36226912 6.413137,1.37029605 C6.77750957,1.44256599 7.11433015,1.56461765 7.41849929,1.72785719 C7.733217,1.89675707 8.01257015,2.10999433 8.25092215,2.3580309 L8.52878043,2.64719205 L8.14425929,2.75993902 C8.10105563,2.77260043 8.06068672,2.78801559 8.02345837,2.80586039 C7.98741792,2.82312923 7.95018043,2.84519456 7.91223232,2.87162427 L7.71605677,3.0082453 L7.57603437,2.81352759 L7.57603437,2.81352686 Z" id="_259438560"></path>
                        <path d="M8.37053714,2.24059429 C8.726848,2.24059429 9.04944914,2.3850352 9.28297829,2.61856457 C9.51650743,2.85209371 9.66094857,3.17469486 9.66094857,3.53100571 C9.66094857,3.88730743 9.51650766,4.20991771 9.28297829,4.44344686 C9.04944914,4.67696686 8.72685714,4.82141714 8.37053714,4.82141714 C8.01423543,4.82141714 7.69162514,4.67696709 7.458096,4.44344686 C7.224576,4.20991771 7.08012571,3.88730743 7.08012571,3.53100571 C7.08012571,3.17468571 7.22457577,2.85209371 7.458096,2.61856457 C7.69162514,2.38503543 8.01423543,2.24059429 8.37053714,2.24059429 Z M8.93821257,2.96333029 C8.79296183,2.81807954 8.59225143,2.72822629 8.37053714,2.72822629 C8.14883177,2.72822629 7.948112,2.81808 7.80286171,2.96333029 C7.65761097,3.10859017 7.56775771,3.30930057 7.56775771,3.53100571 C7.56775771,3.75271109 7.65761143,3.95342171 7.80286171,4.09868114 C7.9481216,4.24393189 8.148832,4.33378514 8.37053714,4.33378514 C8.59224251,4.33378514 8.79295314,4.24393143 8.93821257,4.09868114 C9.08346331,3.9534304 9.17331657,3.75271086 9.17331657,3.53100571 C9.17331657,3.30929143 9.08346286,3.10858057 8.93821257,2.96333029 Z" id="_259438368"></path>
                    </g>
                    <path d="M5.69115429,3.06384 C6.099056,3.06384 6.46839543,3.22921234 6.73572571,3.49655086 C7.00306514,3.76388114 7.16843657,4.13321143 7.16843657,4.54112229 C7.16843657,4.949024 7.00306423,5.31835429 6.73573486,5.58569371 C6.46839543,5.853024 6.09906514,6.01839543 5.69115429,6.01839543 C5.28324343,6.01839543 4.91392229,5.853032 4.64658286,5.58569371 C4.37925257,5.31835429 4.21388114,4.949024 4.21388114,4.54112229 C4.21388114,4.13321143 4.37925349,3.76388114 4.64658286,3.49654171 C4.91392229,3.22921143 5.28325257,3.06384 5.69115429,3.06384 Z M6.39096,3.84131657 C6.21190034,3.662248 5.96445943,3.551472 5.69115429,3.551472 C5.41784914,3.551472 5.170416,3.66224823 4.99134857,3.84130743 C4.81228891,4.020376 4.70151314,4.26781714 4.70151314,4.54112229 C4.70151314,4.81442743 4.81228937,5.06186057 4.99134857,5.240928 C5.17041714,5.41999657 5.41784914,5.53076343 5.69115429,5.53076343 C5.96445943,5.53076343 6.21190171,5.4199872 6.39096914,5.240928 C6.5700288,5.06185943 6.68080457,4.81442743 6.68080457,4.54112229 C6.68080457,4.26781714 6.57002834,4.02037486 6.39096,3.84131657 Z" id="Shape" fill="#66BB6A" fill-rule="nonzero"></path>
                    <polygon id="Shape" fill="#66BB6A" fill-rule="nonzero" points="5.93499429 2.10057143 5.93499429 2.92288 5.44736 2.92288 5.44736 2.10057143"></polygon>
                    <polygon id="Shape" fill="#66BB6A" fill-rule="nonzero" points="5.93499429 6.18573714 5.93499429 7.00806857 5.44736 7.00806857 5.44736 6.18573714"></polygon>
                    <polygon id="Shape" fill="#66BB6A" fill-rule="nonzero" points="7.12852571 2.55122286 6.71737143 3.26336 6.29641143 3.01954286 6.70756571 2.30740571"></polygon>
                    <polygon id="Shape" fill="#66BB6A" fill-rule="nonzero" points="5.08592 6.08909714 4.67476571 6.80123429 4.25382857 6.55741714 4.66498286 5.84528"></polygon>
                    <polygon id="Shape" fill="#66BB6A" fill-rule="nonzero" points="7.93808 3.53792 7.22594286 3.94907429 6.98212571 3.52813714 7.69426286 3.11696"></polygon>
                    <polygon id="Shape" fill="#66BB6A" fill-rule="nonzero" points="4.39926857 5.58050286 3.68713143 5.99165714 3.44521143 5.57072 4.15737143 5.15956571"></polygon>
                    <polygon id="Shape" fill="#66BB6A" fill-rule="nonzero" points="8.14493714 4.79812571 7.32260571 4.79812571 7.32260571 4.31049143 8.14493714 4.31049143"></polygon>
                    <polygon id="Shape" fill="#66BB6A" fill-rule="nonzero" points="4.05974857 4.79812571 3.23744 4.79812571 3.23744 4.31049143 4.05974857 4.31049143"></polygon>
                    <polygon id="Shape" fill="#66BB6A" fill-rule="nonzero" points="7.69426286 5.99165714 6.98212571 5.58050286 7.22594286 5.15956571 7.93808 5.57072"></polygon>
                    <polygon id="Shape" fill="#66BB6A" fill-rule="nonzero" points="4.15641143 3.94907429 3.44427429 3.53792 3.68809143 3.11696 4.40022857 3.52813714"></polygon>
                    <polygon id="Shape" fill="#66BB6A" fill-rule="nonzero" points="6.70756571 6.80123429 6.29641143 6.08909714 6.71737143 5.84528 7.12852571 6.55741714"></polygon>
                    <polygon id="Shape" fill="#66BB6A" fill-rule="nonzero" points="4.66498286 3.26336 4.25382857 2.55122286 4.67478857 2.30740571 5.08594286 3.01954286"></polygon>
                </g>
            </g>
        </g>
    </g>
</svg>