<?xml version="1.0" encoding="UTF-8"?>
<svg width="24px" height="24px" viewBox="0 0 24 24" version="1.1" xmlns="http://www.w3.org/2000/svg" xmlns:xlink="http://www.w3.org/1999/xlink">
    <!-- Generator: Sketch 49.2 (51160) - http://www.bohemiancoding.com/sketch -->
    <title>sun</title>
    <desc>Created with Sketch.</desc>
    <defs></defs>
    <g id="sun" stroke="none" stroke-width="1" fill="none" fill-rule="evenodd">
        <g id="Group">
            <g id="Layer_x0020_1">
                <g>
                    <g id="_350176088">
                        <rect id="_350176496" x="0" y="0" width="23.4056914" height="23.4056914"></rect>
                        <rect id="_350176208" x="2.92570629" y="2.92570629" width="17.5542857" height="17.5542857"></rect>
                    </g>
                    <path d="M20.27712,12.02856 L18.082848,13.1257166 L17.5542686,13.3900001 L17.5542686,12.8000013 L17.5542686,10.6056881 L17.5542686,10.0156893 L18.082848,10.2799728 L20.27712,11.3771294 L20.9285349,11.7028437 L20.27712,12.0285579 L20.27712,12.02856 Z M18.2857131,12.2099907 L19.2999909,11.7028467 L18.2857131,11.1957027 L18.2857131,12.2099942 L18.2857131,12.2099907 Z" id="Shape" fill="#212121" fill-rule="nonzero"></path>
                    <path d="M4.10571429,11.7028457 L5.119992,12.2099897 L5.119992,11.1956983 L4.10571429,11.7028423 L4.10571429,11.7028457 Z M5.32285714,13.1257166 L3.12858514,12.02856 L2.47717029,11.7028457 L3.12858514,11.3771314 L5.32285714,10.2799749 L5.85143657,10.0156913 L5.85143657,10.6056902 L5.85143657,12.8000033 L5.85143657,13.3900022 L5.32285714,13.1257186 L5.32285714,13.1257166 Z" id="Shape" fill="#212121" fill-rule="nonzero"></path>
                    <path d="M11.7028457,6.21713143 C13.21764,6.21713143 14.5890686,6.83115771 15.5817943,7.82389029 C16.5745269,8.81662286 17.1885531,10.1880514 17.1885531,11.7028389 C17.1885531,13.2176331 16.5745269,14.5890617 15.5817943,15.5817874 C14.5890617,16.57452 13.2176331,17.1885463 11.7028457,17.1885463 C10.1880514,17.1885463 8.81662286,16.57452 7.82389714,15.5817874 C6.83116457,14.5890549 6.21713829,13.2176263 6.21713829,11.7028389 C6.21713829,10.1880446 6.83116457,8.816616 7.82389714,7.82389029 C8.81662971,6.83115771 10.1880583,6.21713143 11.7028457,6.21713143 Z M15.064656,8.34103543 C14.2043417,7.48072114 13.0157486,6.948576 11.7028457,6.948576 C10.3899463,6.948576 9.20135314,7.48072114 8.34103543,8.34103543 C7.48072114,9.20134971 6.948576,10.3899429 6.948576,11.7028457 C6.948576,13.0157451 7.48072114,14.2043383 8.34103543,15.064656 C9.20134971,15.9249703 10.3899429,16.4571154 11.7028457,16.4571154 C13.0157451,16.4571154 14.2043383,15.9249703 15.064656,15.064656 C15.9249703,14.2043417 16.4571154,13.0157486 16.4571154,11.7028457 C16.4571154,10.3899463 15.9249703,9.20135314 15.064656,8.34103543 Z" id="Shape" fill="#212121" fill-rule="nonzero"></path>
                    <path d="M12.02856,3.12857143 L13.1257166,5.32284343 L13.3900001,5.85142286 L12.8000013,5.85142286 L10.6056881,5.85142286 L10.0156893,5.85142286 L10.2799728,5.32284343 L11.3771294,3.12857143 L11.7028437,2.47715657 L12.0285579,3.12857143 L12.02856,3.12857143 Z M12.2099907,5.11997829 L11.7028467,4.10570057 L11.1957027,5.11997829 L12.2099942,5.11997829 L12.2099907,5.11997829 Z" id="Shape" fill="#212121" fill-rule="nonzero"></path>
                    <path d="M11.7028457,19.3000114 L12.2099897,18.2857337 L11.1956983,18.2857337 L11.7028423,19.3000114 L11.7028457,19.3000114 Z M13.1257166,18.0828686 L12.02856,20.2771406 L11.7028457,20.9285554 L11.3771314,20.2771406 L10.2799749,18.0828686 L10.0156913,17.5542891 L10.6056902,17.5542891 L12.8000033,17.5542891 L13.3900022,17.5542891 L13.1257186,18.0828686 L13.1257166,18.0828686 Z" id="Shape" fill="#212121" fill-rule="nonzero"></path>
                    <path d="M17.9963314,5.86937143 L17.2205554,8.19676457 L17.0334147,8.75821371 L16.6162639,8.34104914 L15.0646467,6.789432 L14.6474822,6.37228114 L15.2089313,6.18514046 L17.5363245,5.40936446 L18.2263176,5.17938034 L17.9963335,5.86937349 L17.9963314,5.86937143 Z M16.7162606,7.40674971 L17.074896,6.33079886 L15.9989451,6.68943429 L16.7162606,7.40674971 Z" id="Shape" fill="#212121" fill-rule="nonzero"></path>
                    <path d="M6.33078857,17.0749029 L7.40673943,16.7162674 L6.689424,15.998952 L6.33078857,17.0749029 Z M8.19675429,17.2205633 L5.86936114,17.9963393 L5.179368,18.2263234 L5.40935211,17.5363303 L6.18512811,15.2089371 L6.3722688,14.647488 L6.78941966,15.0646526 L8.3410368,16.6162697 L8.75820137,17.0334206 L8.19675223,17.2205613 L8.19675429,17.2205633 Z" id="Shape" fill="#212121" fill-rule="nonzero"></path>
                    <path d="M17.53632,17.9963314 L15.2089269,17.2205554 L14.6474777,17.0334147 L15.0646423,16.6162639 L16.6162594,15.0646467 L17.0334103,14.6474822 L17.220551,15.2089313 L17.996327,17.5363245 L18.2263111,18.2263176 L17.5363179,17.9963335 L17.53632,17.9963314 Z M15.9989417,16.7162606 L17.0748926,17.074896 L16.7162571,15.9989451 L15.9989417,16.7162606 Z" id="Shape" fill="#212121" fill-rule="nonzero"></path>
                    <path d="M15.108,4.36512 C15.1845219,4.17892423 15.095622,3.96592114 14.9094264,3.88939886 C14.7232306,3.81287691 14.5102275,3.90177682 14.4337053,4.08797246 L13.7117338,5.84731646 C13.6352119,6.03351223 13.7241118,6.24651531 13.9103074,6.3230376 C14.0965032,6.39955954 14.3095063,6.31065963 14.3860286,6.124464 L15.108,4.36512 Z" id="Shape" fill="#66BB6A" fill-rule="nonzero"></path>
                    <path d="M9.69397714,17.5583657 C9.77049909,17.3721699 9.68159918,17.1591669 9.49540354,17.0826446 C9.30920777,17.0061226 9.09620469,17.0950225 9.0196824,17.2812182 L8.29771097,19.0405622 C8.22118903,19.2267579 8.31008894,19.439761 8.49628457,19.5162833 C8.68248034,19.5928053 8.89548343,19.5039053 8.97200571,19.3177097 L9.69397714,17.5583657 Z" id="Shape" fill="#66BB6A" fill-rule="nonzero"></path>
                    <path d="M19.2987771,8.92285714 C19.4849729,8.84553874 19.5732384,8.63190103 19.49592,8.44570629 C19.4186016,8.25951051 19.2049639,8.17124503 19.0187691,8.24856343 L17.264232,8.98208914 C17.0780362,9.05940754 16.9897707,9.27304526 17.0670891,9.45924 C17.1444075,9.64543577 17.3580453,9.73370126 17.54424,9.65638286 L19.2987771,8.92285714 Z" id="Shape" fill="#66BB6A" fill-rule="nonzero"></path>
                    <path d="M6.14146286,14.4235886 C6.32765863,14.3462702 6.41592411,14.1326325 6.33860571,13.9464377 C6.26128731,13.7602419 6.0476496,13.6719765 5.86145486,13.7492949 L4.10691771,14.4828343 C3.92072194,14.5601527 3.83245646,14.7737904 3.90977486,14.9599851 C3.98709326,15.1461809 4.20073097,15.2344464 4.38692571,15.157128 L6.14146286,14.4235886 Z" id="Shape" fill="#66BB6A" fill-rule="nonzero"></path>
                    <path d="M19.0405714,15.108 C19.2267672,15.1845219 19.4397703,15.095622 19.5162926,14.9094264 C19.5928145,14.7232306 19.5039146,14.5102275 19.317719,14.4337053 L17.558375,13.7117338 C17.3721792,13.6352119 17.1591761,13.7241118 17.0826538,13.9103074 C17.0061319,14.0965032 17.0950318,14.3095063 17.2812274,14.3860286 L19.0405714,15.108 Z" id="Shape" fill="#66BB6A" fill-rule="nonzero"></path>
                    <path d="M6.33078857,6.33078857 L6.689424,7.40673943 L7.40673943,6.689424 L6.33078857,6.33078857 Z M6.18512811,8.19675429 L5.40935211,5.86936114 L5.179368,5.179368 L5.86936114,5.40935211 L8.19675429,6.18512811 L8.75820343,6.3722688 L8.34103886,6.78941966 L6.78942171,8.3410368 L6.37227086,8.75820137 L6.18513017,8.19675223 L6.18512811,8.19675429 Z" id="Shape" fill="#212121" fill-rule="nonzero"></path>
                    <path d="M5.84732571,9.69397714 C6.03352149,9.77049909 6.24652457,9.68159918 6.32304686,9.49540354 C6.3995688,9.30920777 6.31066889,9.09620469 6.12447326,9.0196824 L4.36512926,8.29771097 C4.17893349,8.22118903 3.9659304,8.31008894 3.88940811,8.49628457 C3.81288617,8.68248034 3.90178608,8.89548343 4.08798171,8.97200571 L5.84732571,9.69397714 Z" id="Shape" fill="#66BB6A" fill-rule="nonzero"></path>
                    <path d="M14.4228343,17.2638171 C14.3452731,17.07804 14.1317973,16.9902874 13.9460331,17.0678352 C13.760256,17.145383 13.6725034,17.3588722 13.7500646,17.5446363 L14.4835903,19.2991872 C14.5611381,19.4849643 14.7746139,19.5727169 14.9603914,19.4951691 C15.1461552,19.417608 15.2339078,19.2041321 15.15636,19.018368 L14.4228343,17.2638171 Z" id="Shape" fill="#66BB6A" fill-rule="nonzero"></path>
                    <path d="M8.98285714,6.14187429 C9.06041829,6.32765143 9.27389417,6.415404 9.45965829,6.33785623 C9.64543543,6.26030846 9.733188,6.0468192 9.65562686,5.86105509 L8.92210114,4.10650423 C8.84455337,3.92072709 8.63107749,3.83297451 8.4453,3.91052229 C8.25953623,3.98808343 8.17178366,4.20155931 8.24933143,4.38732343 L8.98285714,6.14187429 Z" id="Shape" fill="#66BB6A" fill-rule="nonzero"></path>
                </g>
            </g>
        </g>
    </g>
</svg>