<?xml version="1.0" encoding="UTF-8"?>
<svg width="24px" height="24px" viewBox="0 0 24 24" version="1.1" xmlns="http://www.w3.org/2000/svg" xmlns:xlink="http://www.w3.org/1999/xlink">
    <!-- Generator: Sketch 49.2 (51160) - http://www.bohemiancoding.com/sketch -->
    <title>telescope</title>
    <desc>Created with Sketch.</desc>
    <defs>
        <polygon id="path-1" points="2.87683284e-05 0.0422016 23.733871 0.0422016 23.733871 24 2.87683284e-05 24"></polygon>
    </defs>
    <g id="telescope" stroke="none" stroke-width="1" fill="none" fill-rule="evenodd">
        <g id="Page-1">
            <g id="Group-3">
                <mask id="mask-2" fill="white">
                    <use xlink:href="#path-1"></use>
                </mask>
                <g id="Clip-2"></g>
                <path d="M4.60219416,0.0422016 C2.06453991,0.0422016 2.87683284e-05,2.1089856 2.87683284e-05,4.6494336 C2.87683284e-05,7.0673856 1.87064138,9.0547776 4.23894607,9.2410176 C4.29274284,9.2508096 4.34797804,9.2567616 4.40455575,9.2567616 C5.92716748,9.2567616 7.1659317,10.4967936 7.1659317,12.0210816 L7.1659317,19.3927296 C7.1659317,21.9331776 9.23044284,24.0000576 11.7680971,24.0000576 C14.3058472,24.0000576 16.3703584,21.9331776 16.3703584,19.3927296 L16.3703584,16.4440896 C16.3703584,15.9351936 15.9582041,15.5225856 15.4498678,15.5225856 C14.9415314,15.5225856 14.529473,15.9351936 14.529473,16.4440896 L14.529473,19.3927296 C14.529473,20.9170176 13.2907088,22.1570496 11.7680971,22.1570496 C10.2454854,22.1570496 9.00681704,20.9170176 9.00681704,19.3927296 L9.00681704,12.0210816 C9.00681704,9.6031296 7.13620443,7.6157376 4.76780384,7.4294976 C4.71400707,7.4197056 4.65886777,7.4138496 4.60219416,7.4138496 C3.07958243,7.4138496 1.84081821,6.1737216 1.84081821,4.6494336 C1.84081821,3.1251456 3.07958243,1.8851136 4.60219416,1.8851136 L19.1316384,1.8851136 C20.6542502,1.8851136 21.8930144,3.1251456 21.8930144,4.6494336 C21.8930144,6.1737216 20.6542502,7.4138496 19.1316384,7.4138496 C18.6233021,7.4138496 18.2112437,7.8263616 18.2112437,8.3352576 C18.2112437,8.8441536 18.6233021,9.2567616 19.1316384,9.2567616 C21.6692927,9.2567616 23.7338997,7.1898816 23.7338997,4.6494336 C23.7338997,2.1089856 21.6692927,0.0422016 19.1316384,0.0422016 L4.60219416,0.0422016 Z" id="Fill-1" fill="#58585B" mask="url(#mask-2)"></path>
            </g>
            <path d="M13.9636364,11.8363157 C13.9636364,12.649708 14.6230193,13.3090909 15.4364116,13.3090909 C16.2498039,13.3090909 16.9090909,12.649708 16.9090909,11.8363157 C16.9090909,11.0230193 16.2498039,10.3636364 15.4364116,10.3636364 C14.6230193,10.3636364 13.9636364,11.0230193 13.9636364,11.8363157 Z" id="Fill-4" fill="#4A4A4A"></path>
        </g>
    </g>
</svg>