<?xml version="1.0" encoding="UTF-8"?>
<svg width="24px" height="24px" viewBox="0 0 24 24" version="1.1" xmlns="http://www.w3.org/2000/svg" xmlns:xlink="http://www.w3.org/1999/xlink">
    <!-- Generator: Sketch 49.2 (51160) - http://www.bohemiancoding.com/sketch -->
    <title>two-satellites</title>
    <desc>Created with Sketch.</desc>
    <defs></defs>
    <g id="two-satellites" stroke="none" stroke-width="1" fill="none" fill-rule="evenodd">
        <g id="Group">
            <g id="Layer_x0020_1">
                <g>
                    <g id="_259444968">
                        <rect id="_259445256" x="0" y="0" width="23.4056914" height="23.4056914"></rect>
                        <rect id="_259444776" x="2.92570629" y="2.92570629" width="17.5542857" height="17.5542857"></rect>
                    </g>
                    <path d="M16.0616571,10.4671886 L20.3628686,14.4578743 L20.6299731,14.7057034 L20.3814422,14.9735911 C19.4223747,16.0072779 18.175345,16.6545751 16.8560822,16.8787694 C15.5382696,17.1027065 14.1483062,16.9035523 12.9016022,16.2446997 L12.9015752,16.2446862 C11.3798826,15.4405113 10.3281203,14.0955102 9.85785403,12.571109 C9.38770775,11.0471227 9.49886546,9.3439593 10.3026906,7.82291473 L10.3027041,7.82288773 C10.4296288,7.58269882 10.5726297,7.35049916 10.7306138,7.12782031 C10.8883147,6.90554362 11.0600536,6.69414716 11.244711,6.49510145 L11.4925401,6.22798351 L11.7604278,6.47652785 L16.0616392,10.4672136 L16.0616571,10.4671886 Z M19.58976,14.7361029 L15.5645143,11.0014629 L11.5399886,7.26750857 C11.4651134,7.35971554 11.3933698,7.45414971 11.3249064,7.55064926 C11.1868591,7.74524091 11.0610415,7.94976583 10.9484253,8.16286526 L10.9484118,8.16289225 C10.2382106,9.50678597 10.139862,11.0111025 10.5550038,12.3567894 C10.9700083,13.7020717 11.898342,14.8891014 13.2415878,15.5989768 L13.2416148,15.5989903 C14.3427793,16.1809286 15.5710993,16.3567458 16.7360833,16.1587663 C17.785065,15.9805077 18.7827245,15.498348 19.5897485,14.7360978 L19.58976,14.7361029 Z" id="Shape" fill="#212121" fill-rule="nonzero"></path>
                    <path d="M15.192,16.5184114 L15.192,19.7873931 L15.192,20.1531154 L14.8262777,20.1531154 L13.0715794,20.1531154 L12.7058571,20.1531154 L12.7058571,19.7873931 L12.7058571,15.9218846 L12.7058571,15.3159051 L13.2415783,15.5990321 C13.5020822,15.7367013 13.7700514,15.8516935 14.0428114,15.944399 C14.3199453,16.0386038 14.6024914,16.1097939 14.8877109,16.1584011 L15.1920034,16.2102617 L15.1920034,16.5184011 L15.192,16.5184114 Z M14.460552,19.4216674 L14.460552,16.8186651 C14.2416363,16.7699633 14.0239749,16.7090859 13.8085303,16.6358441 C13.6839137,16.5934865 13.5601073,16.5469577 13.4372983,16.4962581 L13.4372983,19.4216661 L14.460552,19.4216661 L14.460552,19.4216674 Z" id="Shape" fill="#212121" fill-rule="nonzero"></path>
                    <polygon id="Shape" fill="#212121" fill-rule="nonzero" points="10.9524 19.4216571 16.9454743 19.4216571 16.9454743 20.1531086 10.9524 20.1531086"></polygon>
                    <polygon id="Shape" fill="#212121" fill-rule="nonzero" points="15.7088914 10.63752 17.8857943 8.54797714 18.3915086 9.07368 16.2146057 11.1632229"></polygon>
                    <path d="M18.5815886,7.08301714 C18.9259029,7.08301714 19.2376731,7.22263029 19.4633657,7.44829371 C19.6890305,7.6739856 19.8286423,7.98575657 19.8286423,8.33007086 C19.8286423,8.67438514 19.6890291,8.98616914 19.4633657,9.21183429 C19.2376738,9.43752617 18.9259029,9.57712457 18.5815886,9.57712457 C18.2372606,9.57712457 17.9254903,9.43752514 17.6998251,9.21183429 C17.4741333,8.98616949 17.3345349,8.67439886 17.3345349,8.33007086 C17.3345349,7.98575657 17.4741343,7.67398629 17.6998251,7.44829371 C17.9254899,7.22262891 18.2372743,7.08301714 18.5815886,7.08301714 Z M18.9462171,7.96544229 C18.8529439,7.87216903 18.7239943,7.81446377 18.5815886,7.81446377 C18.4391815,7.81446377 18.3102456,7.87216903 18.2169737,7.96544229 C18.1236867,8.05872926 18.0659815,8.18766514 18.0659815,8.33007086 C18.0659815,8.47247794 18.1237001,8.60141383 18.2169737,8.69468571 C18.310247,8.78795897 18.4391829,8.84567794 18.5815886,8.84567794 C18.7239957,8.84567794 18.8529315,8.78797269 18.9462171,8.69468571 C19.0394904,8.60141246 19.0971957,8.47247657 19.0971957,8.33007086 C19.0971957,8.18766377 19.0394904,8.05871417 18.9462171,7.96544229 Z" id="Shape" fill="#212121" fill-rule="nonzero"></path>
                    <path d="M8.52411429,6.74036571 L9.83028,7.95225943 C9.71939143,8.19038331 9.62337771,8.43356914 9.54223954,8.68054629 L8.02697211,7.27465714 L4.6523664,4.14370971 C4.60266549,4.20651737 4.55470594,4.27048594 4.50852823,4.33557463 C4.39279371,4.4987016 4.28725029,4.67029234 4.19269474,4.84922606 L4.19266775,4.84928005 C3.59656946,5.97726634 3.51401289,7.23988576 3.86243152,8.36932576 C4.2107298,9.49835091 4.9898658,10.4945669 6.11719037,11.0903566 L6.11724437,11.0903836 C6.70782265,11.4024916 7.34162151,11.5753928 7.97697351,11.6161413 C8.40910723,11.6438804 8.8416078,11.61085 9.26146037,11.5193586 C9.29052224,11.7599257 9.33293408,11.999722 9.38881705,12.2377643 C8.91111077,12.3396361 8.42051648,12.3761219 7.93126963,12.3447251 C7.19493591,12.2974945 6.46081705,12.0973417 5.77724905,11.7360851 L5.77719506,11.7360581 C4.47140992,11.045969 3.56885906,9.89178496 3.16529906,8.58362039 C2.76188992,7.27591868 2.85722717,5.81445582 3.5469642,4.50927754 L3.5469912,4.50922354 C3.6558552,4.30321234 3.77859531,4.10392183 3.91425291,3.91272069 C4.04964103,3.7218816 4.19701543,3.54044983 4.35541749,3.3697104 L4.60324663,3.10259246 L4.87113429,3.3511368 L8.52410571,6.74036194 L8.52411429,6.74036571 Z" id="Shape" fill="#66BB6A" fill-rule="nonzero"></path>
                    <path d="M7.80318857,11.91984 L7.80318857,14.6961463 L7.80318857,15.0618686 L7.43746629,15.0618686 L5.947224,15.0618686 L5.58150171,15.0618686 L5.58150171,14.6961463 L5.58150171,11.4132206 L5.58150171,10.8072411 L6.11722286,11.0903681 C6.3358416,11.2059003 6.56074971,11.3024133 6.78972343,11.3802442 C7.02221829,11.4592769 7.25941029,11.5190205 7.49889943,11.5598393 L7.803192,11.611727 L7.803192,11.9198393 L7.80318857,11.91984 Z M7.07174057,14.330424 L7.07174057,12.2187737 C6.89848971,12.1787109 6.72617143,12.1297255 6.55544229,12.0716825 C6.47419577,12.044065 6.39332743,12.0143822 6.31294526,11.9826206 L6.31294526,14.330424 L7.07173954,14.330424 L7.07174057,14.330424 Z" id="Shape" fill="#66BB6A" fill-rule="nonzero"></path>
                    <polygon id="Shape" fill="#66BB6A" fill-rule="nonzero" points="4.14744 14.3304343 9.23725714 14.3304343 9.23725714 15.0618857 4.14744 15.0618857"></polygon>
                    <polygon id="Shape" fill="#66BB6A" fill-rule="nonzero" points="8.14896 6.88566857 9.99774857 5.11104 10.5034629 5.63674286 8.65467429 7.41137143"></polygon>
                    <path d="M10.6267886,3.85138286 C10.9344151,3.85138286 11.2129783,3.9761208 11.4146297,4.17777223 C11.6162811,4.37939657 11.7410191,4.6579608 11.7410191,4.96561337 C11.7410191,5.27323989 11.6162811,5.55180309 11.4146434,5.75345451 C11.212992,5.95509223 10.9344274,6.07983017 10.6267886,6.07983017 C10.3191487,6.07983017 10.0405989,5.95507886 9.83894743,5.75345451 C9.637296,5.55180309 9.51257177,5.27323851 9.51257177,4.96561337 C9.51257177,4.65797349 9.63732309,4.37940994 9.83894743,4.17775851 C10.0405989,3.97613417 10.3191634,3.85138286 10.6267886,3.85138286 Z M10.8974839,4.69491771 C10.8282374,4.6256712 10.7325209,4.58282777 10.6267886,4.58282777 C10.5210562,4.58282777 10.4253264,4.62567154 10.3560933,4.69490434 C10.2868605,4.76413714 10.2440167,4.85986731 10.2440167,4.96561303 C10.2440167,5.07134537 10.2868467,5.16706183 10.3560933,5.23630834 C10.4253261,5.30554114 10.5210425,5.34838491 10.6267886,5.34838491 C10.7325343,5.34838491 10.8282645,5.30554114 10.8974973,5.23630834 C10.9667301,5.16707554 11.0095738,5.07135909 11.0095738,4.96561303 C11.0095738,4.8598944 10.9667301,4.76415086 10.8974839,4.69491771 Z" id="Shape" fill="#66BB6A" fill-rule="nonzero"></path>
                </g>
            </g>
        </g>
    </g>
</svg>