<?xml version="1.0" encoding="UTF-8"?>
<svg width="24px" height="24px" viewBox="0 0 24 24" version="1.1" xmlns="http://www.w3.org/2000/svg" xmlns:xlink="http://www.w3.org/1999/xlink">
    <!-- Generator: Sketch 49.2 (51160) - http://www.bohemiancoding.com/sketch -->
    <title>videochain</title>
    <desc>Created with Sketch.</desc>
    <defs>
        <path d="M2.12714794,0.538236756 C0.755361502,1.32927343 0,2.9030513 0,4.96959222 L0,9.94554229 C0,12.0182594 0.756028301,13.5957914 2.12896648,14.3875547 C2.71726464,14.7268213 3.37351563,14.895516 4.07244173,14.895516 C4.99523028,14.895516 5.99221533,14.6013599 7.0044155,14.0175888 L11.9438772,11.1689728 L9.87898398,9.97811866 L5.9719689,12.2313985 C4.87502469,12.8639735 3.85064029,12.9987598 3.16141308,12.6013038 C2.46460861,12.1993671 2.0648932,11.2314613 2.0648932,9.94554229 L2.0648932,4.96959222 C2.0648932,3.68984941 2.46394182,2.72569778 3.15959454,2.32448766 C3.85518665,1.92333809 4.89066415,2.06024363 6.00021691,2.70008476 L15.7981546,8.35075326 C16.2919492,8.63558459 16.9234074,8.46652654 17.2085547,7.97321854 C17.493702,7.48003163 17.324517,6.84927313 16.8306618,6.56450235 L7.03260289,0.913833853 C6.01197681,0.325158216 5.00729328,0.0285800145 4.07813983,0.0285194636 C3.37618283,0.0285194636 2.7174465,0.197759168 2.12714794,0.538236756" id="path-1"></path>
        <path d="M13.3461441,0.0196008095 C12.4255779,0.0231095963 11.4322682,0.316879753 10.4235226,0.896676536 L5.47155932,3.74284716 L7.54167868,4.9325679 L11.4585822,2.68137863 C12.558242,2.04925253 13.5852191,1.91452721 14.2762515,2.31174609 C14.9748803,2.71332069 15.3756074,3.68047545 15.3756074,4.96517542 L15.3756074,9.93664245 C15.3756074,11.2152323 14.9756703,12.1785153 14.2782569,12.5792429 C13.5807828,12.9800916 12.542806,12.8433699 11.4303235,12.2041052 L1.60746616,6.55858814 C1.11236099,6.27389243 0.479365357,6.44279817 0.193557132,6.93572223 C-0.0921903202,7.4285253 0.077422853,8.05865502 0.572467249,8.34322974 L10.3952638,13.9888073 C11.4186554,14.5768316 12.4256994,14.8732031 13.3572045,14.8731426 C14.0609381,14.8731426 14.7215848,14.7040554 15.3132558,14.363945 C16.6884534,13.5735605 17.4458483,12.0012611 17.4456659,9.93658196 L17.4456659,4.96511492 C17.4456052,2.8942652 16.6877242,1.31809394 15.3113719,0.527104484 C14.7264465,0.190926403 14.0744294,0.0223836404 13.3802977,0.0196008095 L13.3461441,0.0196008095 Z" id="path-3"></path>
    </defs>
    <g id="videochain" stroke="none" stroke-width="1" fill="none" fill-rule="evenodd">
        <g id="Page-1" transform="translate(0.000000, 5.000000)">
            <g id="Group-3">
                <mask id="mask-2" fill="white">
                    <use xlink:href="#path-1"></use>
                </mask>
                <g id="Clip-2"></g>
                <path d="M2.12714794,0.538236756 C0.755361502,1.32927343 0,2.9030513 0,4.96959222 L0,9.94554229 C0,12.0182594 0.756028301,13.5957914 2.12896648,14.3875547 C2.71726464,14.7268213 3.37351563,14.895516 4.07244173,14.895516 C4.99523028,14.895516 5.99221533,14.6013599 7.0044155,14.0175888 L11.9438772,11.1689728 L9.87898398,9.97811866 L5.9719689,12.2313985 C4.87502469,12.8639735 3.85064029,12.9987598 3.16141308,12.6013038 C2.46460861,12.1993671 2.0648932,11.2314613 2.0648932,9.94554229 L2.0648932,4.96959222 C2.0648932,3.68984941 2.46394182,2.72569778 3.15959454,2.32448766 C3.85518665,1.92333809 4.89066415,2.06024363 6.00021691,2.70008476 L15.7981546,8.35075326 C16.2919492,8.63558459 16.9234074,8.46652654 17.2085547,7.97321854 C17.493702,7.48003163 17.324517,6.84927313 16.8306618,6.56450235 L7.03260289,0.913833853 C6.01197681,0.325158216 5.00729328,0.0285800145 4.07813983,0.0285194636 C3.37618283,0.0285194636 2.7174465,0.197759168 2.12714794,0.538236756" id="Fill-1" fill="#4A4A4A" mask="url(#mask-2)"></path>
            </g>
            <polygon id="Fill-4" fill="#4A4A4A" points="10.0611354 9.95633188 7.9650655 11.1615721 10.0611354 12.3668122 12.1572052 11.1615721"></polygon>
            <g id="Group-8" transform="translate(6.497817, 0.000000)">
                <mask id="mask-4" fill="white">
                    <use xlink:href="#path-3"></use>
                </mask>
                <g id="Clip-7"></g>
                <path d="M13.3461441,0.0196008095 C12.4255779,0.0231095963 11.4322682,0.316879753 10.4235226,0.896676536 L5.47155932,3.74284716 L7.54167868,4.9325679 L11.4585822,2.68137863 C12.558242,2.04925253 13.5852191,1.91452721 14.2762515,2.31174609 C14.9748803,2.71332069 15.3756074,3.68047545 15.3756074,4.96517542 L15.3756074,9.93664245 C15.3756074,11.2152323 14.9756703,12.1785153 14.2782569,12.5792429 C13.5807828,12.9800916 12.542806,12.8433699 11.4303235,12.2041052 L1.60746616,6.55858814 C1.11236099,6.27389243 0.479365357,6.44279817 0.193557132,6.93572223 C-0.0921903202,7.4285253 0.077422853,8.05865502 0.572467249,8.34322974 L10.3952638,13.9888073 C11.4186554,14.5768316 12.4256994,14.8732031 13.3572045,14.8731426 C14.0609381,14.8731426 14.7215848,14.7040554 15.3132558,14.363945 C16.6884534,13.5735605 17.4458483,12.0012611 17.4456659,9.93658196 L17.4456659,4.96511492 C17.4456052,2.8942652 16.6877242,1.31809394 15.3113719,0.527104484 C14.7264465,0.190926403 14.0744294,0.0223836404 13.3802977,0.0196008095 L13.3461441,0.0196008095 Z" id="Fill-6" fill="#4A4A4A" mask="url(#mask-4)"></path>
            </g>
            <polygon id="Fill-9" fill="#4A4A4A" points="16.2445415 3.72052402 14.1485639 2.51528384 12.0524017 3.72052402 14.1485024 4.92576419"></polygon>
        </g>
    </g>
</svg>