<?xml version="1.0" encoding="UTF-8"?>
<svg width="24px" height="24px" viewBox="0 0 24 24" version="1.1" xmlns="http://www.w3.org/2000/svg" xmlns:xlink="http://www.w3.org/1999/xlink">
    <!-- Generator: Sketch 49.2 (51160) - http://www.bohemiancoding.com/sketch -->
    <title>weapon</title>
    <desc>Created with Sketch.</desc>
    <defs></defs>
    <g id="weapon" stroke="none" stroke-width="1" fill="none" fill-rule="evenodd">
        <g id="Group">
            <g id="Layer_x0020_1">
                <g>
                    <g id="_347229568">
                        <rect id="_347229856" x="0" y="0" width="23.4056914" height="23.4056914"></rect>
                        <rect id="_347229376" x="2.92570629" y="2.92570629" width="17.5542857" height="17.5542857"></rect>
                    </g>
                    <path d="M10.4638286,4.41329143 C11.7844354,4.41329143 13.0250914,4.76205943 14.0987657,5.37267086 C15.002424,5.88660686 15.7866206,6.58616914 16.3994057,7.41939429 L15.7436709,7.76032114 C15.201768,7.049352 14.5197257,6.45110743 13.7387657,6.00695657 C12.7738389,5.45818286 11.6561931,5.14473943 10.463832,5.14473943 C8.63202857,5.14473943 6.97368343,5.8872 5.77330629,7.08757714 C4.57292914,8.28794057 3.83046857,9.94630286 3.83046857,11.7781029 C3.83046857,12.356208 3.90294103,12.9132171 4.03908514,13.4407851 C4.13111657,13.7974389 4.25242594,14.142912 4.40029886,14.4744857 L16.5273617,14.4744857 C16.6752357,14.1428997 16.7965584,13.7974389 16.8885891,13.4407851 C17.0247195,12.9132171 17.0972057,12.356208 17.0972057,11.7781029 C17.0972057,11.5203257 17.0827085,11.2672731 17.0545512,11.0196994 L17.7438003,10.6613451 C17.7551119,10.7351808 17.7653031,10.8092462 17.7743335,10.8835138 C17.810158,11.1781821 17.8286507,11.476763 17.8286507,11.7781001 C17.8286507,12.4105653 17.7472289,13.0281641 17.5943064,13.6207961 C17.4369028,14.2307321 17.2040699,14.8091081 16.9066207,15.3453264 L16.368119,15.2059293 L4.55943329,15.2059293 L4.02104129,15.3452993 C3.72359249,14.809105 3.49077501,14.2307427 3.33336929,13.6207965 C3.18043341,13.0281679 3.09902506,12.4105656 3.09902506,11.7781005 C3.09902506,9.74441931 3.92338049,7.9031976 5.25616221,6.57040903 C6.58893021,5.23762731 8.43015535,4.41327189 10.4638536,4.41327189 L10.4638286,4.41329143 Z" id="Shape" fill="#212121" fill-rule="nonzero"></path>
                    <path d="M11.3276229,15.20592 L4.55941714,15.20592 L4.02102514,15.3452901 C3.72357634,14.8090958 3.49075886,14.2307335 3.33335314,13.6207872 C3.18041726,13.0281586 3.09900891,12.4105563 3.09900891,11.7780912 C3.09900891,10.7155186 3.32553771,9.70344206 3.73306491,8.78752663 C4.15579063,7.83750034 4.77296091,6.99402034 5.53365806,6.30792549 L5.66761543,6.18711566 L5.84509131,6.22078046 C7.56462617,6.54695383 9.07205246,7.46957589 10.1434227,8.76491417 C11.1972902,10.0391016 11.8305919,11.6733542 11.8305919,13.455097 C11.8305919,13.6950295 11.8179844,13.9397119 11.7933634,14.1881359 C11.7693499,14.4305115 11.7329181,14.6719279 11.6847696,14.911633 L11.625647,15.2059231 L11.3276311,15.2059231 L11.3276229,15.20592 Z M4.40026286,14.474472 L11.0225486,14.474472 C11.0405823,14.3569423 11.0556329,14.2376575 11.0676195,14.1167006 C11.0884474,13.9064643 11.0991246,13.6858354 11.0991246,13.4550926 C11.0991246,11.8494137 10.529104,10.3774903 9.58055205,9.23064686 C8.65188233,8.10784457 7.36151205,7.29605486 5.88890633,6.974376 C5.26332576,7.57019314 4.75410405,8.28608914 4.39874633,9.08468914 C4.03346976,9.90564343 3.83042633,10.8169406 3.83042633,11.7781029 C3.83042633,12.356208 3.90289879,12.9132171 4.0390429,13.4407851 C4.13107433,13.7974389 4.2523837,14.142912 4.40025662,14.4744857 L4.40026286,14.474472 Z" id="Shape" fill="#212121" fill-rule="nonzero"></path>
                    <path d="M4.33961143,14.4744686 L16.5880457,14.4744686 L16.953768,14.4744686 L16.953768,14.8401909 L16.953768,18.6266709 L16.953768,18.9923931 L16.5880457,18.9923931 L4.33961143,18.9923931 L3.97388914,18.9923931 L3.97388914,18.6266709 L3.97388914,14.8401909 L3.97388914,14.4744686 L4.33961143,14.4744686 Z M16.22232,15.2059166 L4.70533714,15.2059166 L4.70533714,18.2609349 L16.22232,18.2609349 L16.22232,15.2059166 Z" id="Shape" fill="#212121" fill-rule="nonzero"></path>
                    <path d="M13.3075886,9.43906286 L17.21808,7.40593371 L17.5114255,7.25341611 L17.692357,7.53164331 C17.751925,7.62325646 17.7960106,7.69236789 17.8251398,7.73973326 C17.8579002,7.7930112 17.9002714,7.86430903 17.9519023,7.9530336 L18.1442938,8.28366137 L17.8047573,8.46017897 L17.7536661,8.48674365 C17.781891,8.54606856 17.8108046,8.60443553 17.8404603,8.66180342 C17.8684693,8.71598547 17.8971127,8.76934433 17.9264177,8.82181245 L17.9753897,8.79635462 L18.3154258,8.61956719 L18.4753807,8.9692129 C18.5120558,9.04939279 18.543601,9.11975942 18.5702739,9.18083942 C18.6076509,9.26641862 18.6382378,9.33771679 18.6621569,9.39504422 L18.7913222,9.70453347 L18.4935765,9.8593321 L14.583085,11.8924612 L14.3445158,11.926747 C13.8363329,11.8265356 13.4945146,11.5340418 13.2917695,11.1441001 C13.0754184,10.727947 13.0297673,10.2039035 13.116143,9.70191267 L13.1470001,9.52254696 L13.3075759,9.43905987 L13.3075886,9.43906286 Z M16.9129029,8.38844914 L13.8131623,10.0000526 C13.7866111,10.2957062 13.823826,10.5828411 13.9403434,10.8069669 C14.028636,10.9767758 14.1690453,11.1107465 14.3703309,11.1792377 L17.5133846,9.54510514 L17.485686,9.50250446 C17.3788874,9.33825703 17.2813891,9.16924457 17.1918818,8.99610103 C17.1016185,8.82145989 17.0191305,8.64286217 16.9431619,8.4609216 L16.9128987,8.38844914 L16.9129029,8.38844914 Z" id="Shape" fill="#66BB6A" fill-rule="nonzero"></path>
                    <path d="M20.0898514,8.52085714 L17.9599783,9.62821714 L17.6665923,9.78076149 L17.4857016,9.5025072 C17.3789163,9.3382464 17.281391,9.16923394 17.1919107,8.99610377 C17.1016341,8.82144926 17.0191457,8.64287863 16.9431775,8.46092434 L16.8139581,8.15147554 L17.1117579,7.99663646 L19.2416311,6.88927646 L19.4802003,6.85499074 C19.8127042,6.92055189 20.0365066,7.11221451 20.1693706,7.36777817 C20.3047046,7.62809314 20.3340771,7.95122846 20.281285,8.25800674 L20.2504009,8.43738583 L20.0898519,8.52085954 L20.0898514,8.52085714 Z M17.9264229,8.82181543 L19.5760526,7.96414457 C19.5754991,7.86674091 19.5580863,7.77662606 19.5208039,7.7049096 C19.5012988,7.66739794 19.4738973,7.63516389 19.4377217,7.61116389 L17.7536863,8.48673189 C17.7819112,8.5460568 17.8108248,8.60442377 17.8404806,8.66180503 C17.8684896,8.71598709 17.8971195,8.76934594 17.9264242,8.82181406 L17.9264229,8.82181543 Z" id="Shape" fill="#66BB6A" fill-rule="nonzero"></path>
                </g>
            </g>
        </g>
    </g>
</svg>