<?xml version="1.0" encoding="UTF-8"?>
<svg width="24px" height="24px" viewBox="0 0 24 24" version="1.1" xmlns="http://www.w3.org/2000/svg" xmlns:xlink="http://www.w3.org/1999/xlink">
    <!-- Generator: Sketch 49.2 (51160) - http://www.bohemiancoding.com/sketch -->
    <title>x</title>
    <desc>Created with Sketch.</desc>
    <defs>
        <polygon id="path-1" points="0 0.0220861346 17.9870223 0.0220861346 17.9870223 20.950251 0 20.950251"></polygon>
        <polygon id="path-3" points="0.0163921647 0.0481279168 4.06510738 0.0481279168 4.06510738 5.3038674 0.0163921647 5.3038674"></polygon>
        <polygon id="path-5" points="0.04778154 0.0221655069 17.9719121 0.0221655069 17.9719121 21.019561 0.04778154 21.019561"></polygon>
    </defs>
    <g id="x" stroke="none" stroke-width="1" fill="none" fill-rule="evenodd">
        <g id="Page-1" transform="translate(0.000000, 2.000000)">
            <g id="Group-3">
                <mask id="mask-2" fill="white">
                    <use xlink:href="#path-1"></use>
                </mask>
                <g id="Clip-2"></g>
                <path d="M4.49677139,14.9707771 L11.9913482,14.9707771 C13.6470444,14.9707771 14.9892169,16.3093231 14.9892169,17.9605456 L14.9892169,19.4553983 C14.9892169,20.280978 15.6603031,20.950251 16.4881196,20.950251 C17.3159993,20.950251 17.9870223,20.280978 17.9870223,19.4553983 L17.9870223,17.9605456 C17.9870223,14.6581637 15.3026773,11.9810086 11.9913482,11.9810086 L4.49677139,11.9810086 C3.66889165,11.9810086 2.99780541,11.3117357 2.99780541,10.4861559 C2.99780541,9.66057624 3.66889165,8.99130326 4.49677139,8.99130326 L11.9913482,8.99130326 C15.3026773,8.99130326 17.9870223,6.31421133 17.9870223,3.01182938 L17.9870223,1.51697669 C17.9870223,0.691333875 17.3159993,0.0220608933 16.4881196,0.0220608933 C15.6603031,0.0220608933 14.9892169,0.691333875 14.9892169,1.51697669 L14.9892169,3.01182938 C14.9892169,4.6629888 13.6470444,6.00159787 11.9913482,6.00159787 L4.49677139,6.00159787 C2.01325874,6.00159787 0,8.00935371 0,10.4861559 C0,12.9629582 2.01325874,14.9707771 4.49677139,14.9707771 Z" id="Fill-1" fill="#4A4A4A" mask="url(#mask-2)"></path>
            </g>
            <path d="M9.14917127,12.1104761 L4.51775454,12.1104761 C3.68601169,12.1104761 3.01179398,11.4377347 3.01179398,10.6077348 C3.01179398,9.77773493 3.68601169,9.10499352 4.51775454,9.10499352 L9.14917127,9.10499352 C7.82419297,8.46612706 6.74281285,7.40769326 6.0784484,6.09944751 L4.51775454,6.09944751 C2.02265315,6.09944751 0,8.1179255 0,10.6077348 C0,13.0976076 2.02265315,15.1160221 4.51775454,15.1160221 L6.0784484,15.1160221 C6.74281285,13.8077764 7.82419297,12.7492791 9.14917127,12.1104761" id="Fill-4" fill="#4A4A4A"></path>
            <g id="Group-8" transform="translate(13.790055, 15.646409)">
                <mask id="mask-4" fill="white">
                    <use xlink:href="#path-3"></use>
                </mask>
                <g id="Clip-7"></g>
                <path d="M0.0163921647,0.0481279168 C0.685593571,0.590120767 1.11439317,1.41821046 1.11439317,2.34751043 L1.11439317,3.82572948 C1.11439317,4.64208827 1.77493762,5.30388612 2.58975028,5.30388612 C3.40456293,5.30388612 4.06510738,4.64208827 4.06510738,3.82572948 L4.06510738,2.34751043 C4.06510738,1.53190042 3.90018925,0.754977446 3.60211592,0.0481279168 L0.0163921647,0.0481279168 Z" id="Fill-6" fill="#4A4A4A" mask="url(#mask-4)"></path>
            </g>
            <path d="M14.9048114,1.49170484 L14.9048114,2.98340967 C14.9048114,3.9212902 14.4694684,4.75696983 13.7900552,5.3038674 L17.4304959,5.3038674 C17.7331178,4.59053918 17.9005525,3.80649524 17.9005525,2.98340967 L17.9005525,1.49170484 C17.9005525,0.667800658 17.2299284,0 16.4026819,0 C15.5754355,0 14.9048114,0.667800658 14.9048114,1.49170484" id="Fill-9" fill="#4A4A4A"></path>
            <g id="Group-13" transform="translate(5.966851, 0.000000)">
                <mask id="mask-6" fill="white">
                    <use xlink:href="#path-5"></use>
                </mask>
                <g id="Clip-12"></g>
                <path d="M17.9719121,10.5208664 C17.9719121,8.03587314 15.9656928,6.02141413 13.4908637,6.02141413 L6.02242868,6.02141413 C4.37258469,6.02141413 3.03510511,4.67844145 3.03510511,3.02175816 L3.03510511,1.52196183 C3.03510511,0.693651844 2.36636532,0.0221655069 1.54138027,0.0221655069 C0.716458278,0.0221655069 0.04778154,0.693651844 0.04778154,1.52196183 L0.04778154,3.02175816 C0.04778154,6.33506143 2.72267765,9.02107009 6.02242868,9.02107009 L13.4908637,9.02107009 C14.3157857,9.02107009 14.9845255,9.69255643 14.9845255,10.5208664 C14.9845255,11.3491764 14.3157857,12.0206627 13.4908637,12.0206627 L6.02242868,12.0206627 C2.72267765,12.0206627 0.04778154,14.7066081 0.04778154,18.0199114 L0.04778154,19.519771 C0.04778154,20.348081 0.716458278,21.0195673 1.54138027,21.0195673 C2.36636532,21.0195673 3.03510511,20.348081 3.03510511,19.519771 L3.03510511,18.0199114 C3.03510511,16.3632914 4.37258469,15.0203187 6.02242868,15.0203187 L13.4908637,15.0203187 C15.9656928,15.0203187 17.9719121,13.0058597 17.9719121,10.5208664" id="Fill-11" fill="#4A4A4A" mask="url(#mask-6)"></path>
            </g>
        </g>
    </g>
</svg>